<svg width="352" height="135" viewBox="0 0 352 135" fill="none" xmlns="http://www.w3.org/2000/svg">
	<path d="M3.456 6.41V13.358C1.818 14.096 1.566 14.222 0.378 14.618L0.792 16.094C1.242 15.896 2.214 15.446 3.33 14.78C2.844 18.254 1.386 19.82 0.774 20.468L1.998 21.476C2.826 20.486 4.896 18.074 4.896 12.584V7.76H17.388V6.41H10.692V4.826H9.216V6.41H3.456ZM2.916 10.784C2.646 9.65 2.34 8.75 1.692 7.598L0.486 8.21C0.756 8.696 1.26 9.596 1.62 11.432L2.916 10.784ZM16.992 9.65H5.598V10.964H10.656V19.73H8.118V12.674H6.624V19.73H4.284V21.08H17.298V19.73H12.114V15.608H16.416V14.294H12.114V10.964H16.992V9.65ZM36.194 20C35.078 19.298 31.964 17.318 30.83 11.108H35.978V9.668H30.758V4.826H29.21V9.668H24.728V11.108H29.156C29.084 12.062 28.886 13.016 28.634 13.952C27.842 16.922 26.51 18.722 24.296 20.144L25.142 21.494C28.328 19.244 29.516 16.508 30.182 14.096C31.064 16.688 32.324 19.514 35.33 21.422L36.194 20ZM22.46 4.826V14.006C21.11 14.996 19.544 15.86 19.022 16.148L19.472 17.75C20.21 17.39 21.794 16.4 22.46 15.824V21.494H23.954V4.826H22.46ZM21.92 10.694C21.596 9.47 21.038 8.174 20.444 7.112L19.148 7.688C19.85 9.02 20.156 9.776 20.57 11.27L21.92 10.694ZM35.114 8.102C34.826 7.634 34.106 6.41 32.864 5.114L31.73 5.87C32.612 6.806 33.476 8.156 33.872 8.858L35.114 8.102ZM44.308 21.584C45.478 21.224 48.232 20.27 49.456 17.12C49.924 18.272 51.274 20.504 54.262 21.53L54.982 20.18C53.704 19.766 51.67 18.992 50.554 16.454H54.082V11.468H50.032V9.812H52.552V9.146C53.056 9.524 53.506 9.812 54.244 10.244L55.036 8.948C51.976 7.4 50.896 5.96 50.194 4.772H48.43C47.044 6.77 45.784 7.886 43.696 8.966L44.416 10.262C44.884 10.028 45.388 9.758 46.198 9.164V9.812H48.61V11.468H44.56V16.454H48.214C47.422 19.244 44.398 20.054 43.57 20.27L44.308 21.584ZM50.032 12.71H52.696V15.212H49.924C49.996 14.726 50.032 14.258 50.032 13.124V12.71ZM48.61 13.16C48.61 14.204 48.574 14.726 48.502 15.212H45.982V12.71H48.61V13.16ZM46.9 8.57C47.944 7.616 48.88 6.41 49.312 5.87C49.744 6.428 50.68 7.634 51.814 8.57H46.9ZM44.254 13.898C42.868 12.404 42.22 11 41.968 10.352V9.668H43.534V8.3H41.968V4.808H40.546V8.3H38.026V9.668H40.438C39.502 13.484 38.386 14.924 37.72 15.788L38.35 17.57C39.376 16.166 40.096 14.564 40.546 12.872V21.512H41.968V12.512C42.4 13.592 42.814 14.258 43.516 15.248L44.254 13.898ZM67.11 10.658C66.624 11.216 65.922 12.062 63.996 13.808C63.798 13.646 63.456 13.376 62.574 12.8C62.646 12.728 63.924 11.63 64.86 10.388H71.574V12.512H73.068V9.092H65.778V7.562H73.068V6.23H65.778V4.844H64.302V6.23H57.084V7.562H64.302V9.092H57.012V12.512H58.488V10.388H62.952C62.628 10.838 62.34 11.234 61.44 12.08C60.792 11.666 60.594 11.576 60.252 11.396L59.334 12.494C61.242 13.412 62.664 14.456 62.988 14.726C62.826 14.87 62.7 14.978 62.358 15.248C61.548 15.266 57.624 15.302 56.742 15.284L56.85 16.67C57.912 16.67 63.132 16.562 64.302 16.544V21.476H65.796V16.472L70.926 16.202C71.574 16.832 71.862 17.192 72.15 17.57L73.176 16.544C72.672 15.95 71.502 14.546 69.072 12.782L68.028 13.718C68.46 14.024 68.748 14.222 69.702 15.05C66.048 15.176 65.634 15.194 64.392 15.248C66.696 13.232 67.434 12.566 68.388 11.486L67.11 10.658ZM57.57 21.296C58.524 20.828 60.576 19.784 62.232 17.84L61.062 17.03C59.478 18.848 57.156 19.874 56.634 20.108L57.57 21.296ZM67.596 17.768C68.442 18.65 69.792 19.964 72.564 21.206L73.482 19.928C71.394 19.136 70.044 18.29 68.64 16.904L67.596 17.768ZM84.548 8.534H90.218V6.968H77.204V8.534H82.838V17.786H76.232V19.388H91.19V17.786H84.548V8.534ZM101.824 9.164C101.356 8.876 99.376 7.598 96.19 6.644L95.38 8.084C97.972 8.894 99.862 9.956 100.924 10.676L101.824 9.164ZM96.082 20.288C106.45 19.604 109.33 11.198 110.194 8.642L108.79 7.598C107.548 11.63 104.866 18.002 95.758 18.488L96.082 20.288ZM121.242 7.994C119.82 7.31 118.056 6.5 115.968 6.032L115.32 7.4C117.174 7.922 118.902 8.57 120.558 9.488L121.242 7.994ZM119.766 12.206C118.38 11.396 116.22 10.568 114.564 10.172L113.934 11.594C116.526 12.35 118.164 13.196 119.1 13.736L119.766 12.206ZM124.14 5.042C124.968 6.464 125.22 7.076 125.706 8.57L126.966 7.94C126.372 6.356 126.03 5.528 125.31 4.448L124.14 5.042ZM127.146 4.862C127.92 6.23 128.208 6.986 128.658 8.426L129.936 7.814C129.396 6.194 128.91 5.222 128.334 4.304L127.146 4.862ZM115.266 20.396C122.61 19.442 126.102 16.67 128.442 9.992L127.038 8.966C125.058 15.212 122.034 17.93 114.87 18.632L115.266 20.396ZM139.184 9.164C138.716 8.876 136.736 7.598 133.55 6.644L132.74 8.084C135.332 8.894 137.222 9.956 138.284 10.676L139.184 9.164ZM133.442 20.288C143.81 19.604 146.69 11.198 147.554 8.642L146.15 7.598C144.908 11.63 142.226 18.002 133.118 18.488L133.442 20.288ZM163.534 21.458V6.032H166.99V4.592H162.094V21.458H163.534ZM180.144 17.606C181.206 13.124 181.566 8.588 181.692 7.184H171.738V8.786H179.856C179.748 10.082 179.406 13.88 178.416 17.606H169.452V19.208H184.698V17.606H180.144ZM191.39 6.05H189.734V17.444C189.734 19.73 190.85 20.18 193.532 20.18H198.572C199.706 20.18 201.416 20.126 202.514 19.946L202.424 18.326C201.272 18.542 199.832 18.614 198.392 18.614H193.766C191.714 18.614 191.39 18.47 191.39 17.174V13.196C193.28 12.8 196.574 11.972 200.516 10.172L199.778 8.66C197.078 10.046 194.594 10.892 191.39 11.63V6.05ZM199.22 5.51C200.03 6.752 200.444 7.544 200.984 8.966L202.208 8.246C201.632 6.914 201.182 5.996 200.372 4.862L199.22 5.51ZM201.974 4.664C202.874 6.032 203.18 6.68 203.72 8.12L204.944 7.418C204.422 6.14 203.918 5.096 203.126 4.016L201.974 4.664ZM206.74 12.296V14.006H222.22V12.296H206.74ZM228.066 4.862V20.288H224.61V21.728H229.506V4.862H228.066ZM255.8 8.714L255.764 5.672H254.126L254.18 8.714H248.78V10.262H254.216L254.288 14.51C253.784 14.366 253.334 14.24 252.434 14.24C250.148 14.24 248.492 15.518 248.492 17.39C248.492 18.848 249.536 20.486 252.344 20.486C255.782 20.486 255.8 18.452 255.8 17.426V16.76C256.79 17.39 257.69 18.146 258.41 19.1L259.472 17.642C258.644 16.76 257.312 15.734 255.854 15.014L255.8 10.262H259.166V8.714H255.8ZM254.288 17.102C254.288 18.074 254.216 19.136 252.254 19.136C251.3 19.136 249.932 18.794 249.932 17.408C249.932 16.058 251.246 15.59 252.452 15.59C253.37 15.59 253.874 15.806 254.288 15.986V17.102ZM245.342 5.636C244.856 8.444 244.676 11.054 244.676 13.898C244.676 16.112 244.748 18.344 245.18 20.522L246.8 20.306C246.332 18.254 246.242 16.13 246.242 14.024C246.242 9.992 246.674 7.562 247.016 5.762L245.342 5.636ZM275.614 21.458V6.032H279.07V4.592H274.174V21.458H275.614ZM290.586 4.808V5.942H285.204V7.166H287.832C287.886 7.31 288.21 8.516 288.282 8.804H285.798V18.758H287.166V9.974H290.658V11.324H287.724V12.44H290.658V13.682H288.372V17.408H294.276V13.682H291.972V12.44H294.888V11.324H291.972V9.974H295.446V17.192C295.446 17.606 295.284 17.642 295.05 17.642L293.376 17.624L293.574 18.992H295.482C296.418 18.992 296.814 18.47 296.814 17.606V8.804H294.186C294.438 8.192 294.582 7.778 294.762 7.166H297.48V5.942H292.044V4.808H290.586ZM289.578 8.804C289.416 8.102 289.398 8.012 289.182 7.166H293.448C293.394 7.4 293.124 8.336 292.926 8.804H289.578ZM293.034 16.31H289.596V14.762H293.034V16.31ZM288.444 19.694C287.922 19.694 284.646 19.442 284.286 17.246V11.792H280.92V13.268H282.864V18.344C282.072 19.19 281.046 19.856 280.722 20.054L281.442 21.584C282.72 20.468 282.81 20.36 283.962 19.046C284.358 19.568 285.474 21.08 288.426 21.08H297.426L297.714 19.694H288.444ZM284.934 8.048C284.07 6.842 283.026 5.78 282.18 5.06L281.19 5.96C282.81 7.544 283.44 8.516 283.764 9.002L284.934 8.048ZM301.166 9.848L299.312 10.154L299.402 11.612L301.166 11.324V17.084C301.166 17.948 301.616 18.398 302.462 18.398H304.568C306.044 18.398 306.386 16.976 306.674 14.618L305.216 14.276C305.18 14.96 305.054 17.012 304.28 17.012H303.164C302.714 17.012 302.624 16.886 302.624 16.49V11.09L306.584 10.442L306.494 8.966L302.624 9.596V4.826H301.166V9.848ZM306.08 5.6V7.058H309.302C309.302 13.376 308.726 17.426 303.47 20.234L304.514 21.53C309.5 18.488 310.742 14.924 310.814 7.058H314.216C314.216 9.11 314.216 17.93 313.262 19.478C312.956 19.982 312.362 19.964 312.182 19.964L309.5 19.946L309.824 21.476H312.434C314.036 21.476 314.522 20.648 314.738 20.198C315.728 18.074 315.728 9.992 315.728 5.6H306.08ZM330.682 10.532H329.062L329.17 14.384C328.774 14.294 328.198 14.168 327.298 14.168C324.112 14.168 323.068 16.166 323.068 17.516C323.068 19.19 324.4 20.684 327.1 20.684C328.882 20.684 330.7 20.036 330.7 17.372V16.634C331.348 17.012 332.446 17.678 333.616 19.082L334.606 17.66C333.724 16.688 332.284 15.572 330.772 14.906L330.682 10.532ZM329.206 17.084C329.206 18.308 328.936 19.28 327.154 19.28C326.812 19.28 324.598 19.28 324.598 17.462C324.598 16.454 325.462 15.536 327.298 15.536C328.252 15.536 328.792 15.734 329.206 15.878V17.084ZM323.86 7.76C324.094 6.446 324.112 6.338 324.256 5.474L322.546 5.402C322.474 6.122 322.42 6.518 322.222 7.76H318.892V9.272H321.934C321.466 11.288 320.674 14.816 318.748 17.912L320.404 18.632C321.052 17.3 322.528 14.294 323.554 9.272H327.64V7.76H323.86ZM334.3 9.164C332.392 8.102 331.186 7.562 329.386 6.932L328.756 8.264C330.376 8.858 331.726 9.506 333.544 10.604L334.3 9.164ZM2.682 40.106C3.942 39.314 4.446 38.81 4.968 38.288C7.614 39.62 9.198 40.736 10.692 42.014C8.64 44.264 5.85 45.596 2.898 46.298L3.672 47.792C14.472 44.984 15.408 36.38 15.732 33.446H6.426C5.346 35.84 3.762 37.514 1.62 38.846L2.682 40.106ZM13.878 34.94C13.464 37.73 12.636 39.386 11.682 40.79C9.9 39.26 7.83 38.144 5.958 37.208C6.444 36.614 6.768 36.2 7.506 34.94H13.878ZM29.606 38.108C32.126 36.092 33.62 34.346 34.412 33.41L32.9 32.42C29.552 36.632 25.124 39.89 19.994 41.492L20.786 42.986C23.09 42.176 25.43 41.096 27.878 39.386V47.774H29.606V38.108ZM52.426 34.418C48.232 33.464 44.992 33.068 40.654 32.816L40.384 34.31C44.848 34.544 48.358 35.066 52.12 36.074L52.426 34.418ZM51.49 39.872C48.502 38.972 45.64 38.36 40.564 37.982L40.258 39.476C44.758 39.818 47.674 40.322 51.202 41.438L51.49 39.872ZM53.164 45.974C51.184 45.398 46.648 44.066 39.502 43.706L39.178 45.236C45.586 45.722 48.88 46.442 52.714 47.684L53.164 45.974ZM64.464 36.164C63.996 35.876 62.016 34.598 58.83 33.644L58.02 35.084C60.612 35.894 62.502 36.956 63.564 37.676L64.464 36.164ZM58.722 47.288C69.09 46.604 71.97 38.198 72.834 35.642L71.43 34.598C70.188 38.63 67.506 45.002 58.398 45.488L58.722 47.288ZM77.384 47.936C83.792 46.496 87.554 42.932 89.048 36.074L87.374 33.86H80.174C78.914 36.38 77.078 37.928 75.674 38.882L76.7 40.106C78.734 38.738 80.066 37.262 81.254 35.372H87.5C86.474 40.79 83.684 45.02 76.7 46.406L77.384 47.936ZM89.804 31.7C90.74 32.978 91.1 33.698 91.712 35.084L92.864 34.328C92.108 32.816 91.802 32.186 90.884 31.016L89.804 31.7ZM87.41 32.402C88.292 33.572 88.742 34.346 89.372 35.75L90.506 34.976C89.75 33.482 89.39 32.834 88.472 31.7L87.41 32.402ZM104.902 38C105.748 39.188 106.198 40.034 106.792 41.474L108.052 40.682C107.422 39.314 106.9 38.342 106.072 37.28L104.902 38ZM107.566 36.848C108.43 38.09 108.844 38.864 109.456 40.322L110.716 39.53C110.068 38.126 109.6 37.244 108.736 36.128L107.566 36.848ZM109.762 33.464C105.64 33.482 103.948 33.518 99.682 33.752C98.764 33.806 95.65 33.95 94.768 33.968L94.912 35.732C96.874 35.498 103.102 35.12 103.624 35.102C101.5 36.344 98.35 38.702 98.35 42.122C98.35 47.162 104.326 47.414 107.872 47.558L108.196 45.812C106.594 45.866 104.812 45.722 103.66 45.488C101.752 45.092 100.024 44.354 100.024 42.014C100.024 38.918 103.552 36.128 106.144 35.264C106.684 35.084 107.08 35.048 107.962 35.048C108.466 35.048 109.024 35.066 109.798 35.12L109.762 33.464ZM121.53 47.558C123.528 47.36 125.328 46.748 126.498 45.776C128.136 44.408 128.91 42.284 128.91 40.142C128.91 37.1 127.344 33.068 121.512 33.068C116.76 33.068 113.196 36.2 113.196 41.096C113.196 44.066 114.672 46.154 116.436 46.154C117.246 46.154 118.398 45.74 119.46 44.066C121.314 41.096 121.674 36.668 121.836 34.58C126.786 34.742 127.218 38.702 127.218 40.124C127.218 45.272 122.844 45.794 120.99 45.992L121.53 47.558ZM120.234 34.652C120.054 36.722 119.766 40.376 118.254 42.968C117.786 43.76 117.246 44.426 116.49 44.426C115.212 44.426 114.762 42.356 114.762 41.132C114.762 39.044 115.59 37.028 117.264 35.804C118.182 35.12 119.172 34.85 120.234 34.652ZM141.146 31.808V32.942H135.764V34.166H138.392C138.446 34.31 138.77 35.516 138.842 35.804H136.358V45.758H137.726V36.974H141.218V38.324H138.284V39.44H141.218V40.682H138.932V44.408H144.836V40.682H142.532V39.44H145.448V38.324H142.532V36.974H146.006V44.192C146.006 44.606 145.844 44.642 145.61 44.642L143.936 44.624L144.134 45.992H146.042C146.978 45.992 147.374 45.47 147.374 44.606V35.804H144.746C144.998 35.192 145.142 34.778 145.322 34.166H148.04V32.942H142.604V31.808H141.146ZM140.138 35.804C139.976 35.102 139.958 35.012 139.742 34.166H144.008C143.954 34.4 143.684 35.336 143.486 35.804H140.138ZM143.594 43.31H140.156V41.762H143.594V43.31ZM139.004 46.694C138.482 46.694 135.206 46.442 134.846 44.246V38.792H131.48V40.268H133.424V45.344C132.632 46.19 131.606 46.856 131.282 47.054L132.002 48.584C133.28 47.468 133.37 47.36 134.522 46.046C134.918 46.568 136.034 48.08 138.986 48.08H147.986L148.274 46.694H139.004ZM135.494 35.048C134.63 33.842 133.586 32.78 132.74 32.06L131.75 32.96C133.37 34.544 134 35.516 134.324 36.002L135.494 35.048ZM151.726 36.848L149.872 37.154L149.962 38.612L151.726 38.324V44.084C151.726 44.948 152.176 45.398 153.022 45.398H155.128C156.604 45.398 156.946 43.976 157.234 41.618L155.776 41.276C155.74 41.96 155.614 44.012 154.84 44.012H153.724C153.274 44.012 153.184 43.886 153.184 43.49V38.09L157.144 37.442L157.054 35.966L153.184 36.596V31.826H151.726V36.848ZM156.64 32.6V34.058H159.862C159.862 40.376 159.286 44.426 154.03 47.234L155.074 48.53C160.06 45.488 161.302 41.924 161.374 34.058H164.776C164.776 36.11 164.776 44.93 163.822 46.478C163.516 46.982 162.922 46.964 162.742 46.964L160.06 46.946L160.384 48.476H162.994C164.596 48.476 165.082 47.648 165.298 47.198C166.288 45.074 166.288 36.992 166.288 32.6H156.64ZM181.242 37.532H179.622L179.73 41.384C179.334 41.294 178.758 41.168 177.858 41.168C174.672 41.168 173.628 43.166 173.628 44.516C173.628 46.19 174.96 47.684 177.66 47.684C179.442 47.684 181.26 47.036 181.26 44.372V43.634C181.908 44.012 183.006 44.678 184.176 46.082L185.166 44.66C184.284 43.688 182.844 42.572 181.332 41.906L181.242 37.532ZM179.766 44.084C179.766 45.308 179.496 46.28 177.714 46.28C177.372 46.28 175.158 46.28 175.158 44.462C175.158 43.454 176.022 42.536 177.858 42.536C178.812 42.536 179.352 42.734 179.766 42.878V44.084ZM174.42 34.76C174.654 33.446 174.672 33.338 174.816 32.474L173.106 32.402C173.034 33.122 172.98 33.518 172.782 34.76H169.452V36.272H172.494C172.026 38.288 171.234 41.816 169.308 44.912L170.964 45.632C171.612 44.3 173.088 41.294 174.114 36.272H178.2V34.76H174.42ZM184.86 36.164C182.952 35.102 181.746 34.562 179.946 33.932L179.316 35.264C180.936 35.858 182.286 36.506 184.104 37.604L184.86 36.164ZM197.168 39.8C197.294 39.026 197.348 38.432 197.348 37.388H202.298V36.074H194.09C194.342 35.588 194.486 35.282 194.774 34.562L193.334 34.256C192.776 36.002 191.714 37.316 190.436 38.342L191.57 39.314C192.272 38.684 192.686 38.234 193.298 37.388H195.944C195.944 38.684 195.854 39.242 195.764 39.8H190.526V41.132H195.332C194.054 43.778 191.192 44.48 190.292 44.696L191.156 46.01C193.208 45.326 195.512 44.156 196.7 41.42C197.15 42.446 198.59 44.732 202.658 45.992L203.45 44.606C200.534 43.958 198.626 42.284 198.014 41.132H203.054V39.8H197.168ZM188.06 32.402V48.134H204.044V46.766H189.59V33.788H203.666V32.402H188.06ZM220.924 40.556C221.482 40.898 221.824 41.06 222.31 41.294L222.994 40.088C222.49 39.908 222.004 39.728 221.194 39.278C221.23 39.224 221.86 38.612 222.418 37.892L221.41 37.28C221.212 37.55 220.78 38.09 220.258 38.648C219.394 37.982 218.944 37.388 218.584 36.938H222.778V35.804H216.226C216.352 35.552 216.424 35.372 216.604 34.922L215.182 34.76C215.038 35.174 214.948 35.408 214.768 35.804H210.448V36.938H214.084C213.58 37.604 213.13 38.072 212.572 38.522C212.41 38.342 211.906 37.784 211.33 37.352L210.502 38.108C211.006 38.504 211.06 38.558 211.654 39.188C211.042 39.602 210.574 39.836 209.944 40.142L210.736 41.222C211.132 40.988 211.258 40.916 211.636 40.682V44.426H215.506V46.748C215.506 47.108 215.452 47.18 215.092 47.18H213.382L213.688 48.476H215.632C216.19 48.476 216.964 48.44 216.964 47.324V44.426H220.924V40.556ZM219.61 41.258H212.95V40.178H219.61V41.258ZM213.688 39.134C214.858 38.072 215.362 37.28 215.578 36.938H217.108C217.504 37.514 217.954 38.198 218.998 39.134H213.688ZM219.61 43.382H212.95V42.248H219.61V43.382ZM208.45 39.368C208.45 39.872 208.432 40.214 208.432 40.502C207.532 40.952 207.118 41.15 205.876 41.636L206.182 43.112C206.722 42.842 207.406 42.5 208.306 41.906C207.91 45.254 206.92 46.55 206.11 47.558L207.208 48.53C207.928 47.666 209.872 45.344 209.872 39.422V34.526H222.832V33.266H216.136V31.808H214.66V33.266H208.45V39.368ZM208.072 37.82C207.892 36.902 207.514 35.642 206.992 34.616L205.876 35.156C206.29 36.182 206.614 37.334 206.812 38.414L208.072 37.82ZM209.98 48.206C211.186 47.756 212.302 47.162 213.832 45.668L212.788 44.804C211.51 46.028 210.628 46.514 209.188 47L209.98 48.206ZM218.422 45.686C219.394 46.784 220.924 47.738 222.31 48.224L223.102 47C221.428 46.406 220.672 45.974 219.376 44.732L218.422 45.686ZM239.136 36.668C236.346 37.118 234.87 37.406 232.926 38C232.548 37.226 232.458 36.272 232.458 34.364C232.458 33.482 232.476 32.978 232.494 32.492H230.73C230.784 36.326 230.82 37.37 231.414 38.54C230.154 39.08 226.446 40.628 226.446 43.706C226.446 47.54 231.432 47.54 234.546 47.54C237.138 47.54 238.722 47.432 239.892 47.36L239.856 45.668C238.83 45.776 237.156 45.938 234.186 45.938C230.316 45.938 228.12 45.74 228.12 43.652C228.12 39.656 237.84 38.558 239.298 38.396L239.136 36.668ZM252.29 47.558C254.288 47.36 256.088 46.748 257.258 45.776C258.896 44.408 259.67 42.284 259.67 40.142C259.67 37.1 258.104 33.068 252.272 33.068C247.52 33.068 243.956 36.2 243.956 41.096C243.956 44.066 245.432 46.154 247.196 46.154C248.006 46.154 249.158 45.74 250.22 44.066C252.074 41.096 252.434 36.668 252.596 34.58C257.546 34.742 257.978 38.702 257.978 40.124C257.978 45.272 253.604 45.794 251.75 45.992L252.29 47.558ZM250.994 34.652C250.814 36.722 250.526 40.376 249.014 42.968C248.546 43.76 248.006 44.426 247.25 44.426C245.972 44.426 245.522 42.356 245.522 41.132C245.522 39.044 246.35 37.028 248.024 35.804C248.942 35.12 249.932 34.85 250.994 34.652ZM263.446 33.14V39.746H269.746V46.766H264.346V41.132H262.834V48.152H278.188V41.132H276.658V46.766H271.258V39.746H277.594V33.14H276.064V38.36H271.258V31.808H269.746V38.36H264.976V33.14H263.446ZM291.198 43.22C292.602 44.642 293.502 45.776 293.682 46.01C292.35 46.136 290.496 46.298 288.3 46.388C287.922 46.406 285.906 46.46 285.456 46.478C286.626 44.408 287.346 42.842 287.778 41.852H297.174V40.466H281.1V41.852H286.032C285.636 42.896 284.952 44.57 283.818 46.514H281.334L281.496 47.99C284.268 47.99 291.612 47.666 294.618 47.234C294.996 47.792 295.212 48.134 295.5 48.62L296.796 47.756C295.41 45.56 294.312 44.3 292.386 42.41L291.198 43.22ZM293.97 37.154C295.248 38.018 296.256 38.486 297.048 38.846L297.84 37.406C294.708 36.29 291.846 34.112 289.974 31.61H288.372C287.886 32.33 285.87 35.246 280.506 37.352L281.244 38.81C281.856 38.558 282.846 38.126 284.448 37.136V38.144H293.97V37.154ZM285.006 36.776C286.518 35.732 288.048 34.472 289.182 32.888C289.812 33.68 290.856 34.976 293.394 36.776H285.006ZM300.914 33.338C300.806 34.562 300.626 36.524 300.626 38.486C300.626 43.166 301.436 47.198 304.352 47.198C305.27 47.198 305.936 46.766 306.368 46.334C307.376 45.326 308.204 43.814 308.798 42.14L307.466 41.384C306.224 44.624 305.288 45.362 304.478 45.362C302.462 45.362 302.246 41.42 302.246 38.63C302.246 36.2 302.48 34.562 302.624 33.482L300.914 33.338ZM315.422 45.416C315.674 38.216 313.82 35.678 311.678 33.878L310.436 34.832C312.308 36.362 313.712 38.954 313.712 43.652C313.712 44.48 313.676 45.02 313.64 45.488L315.422 45.416ZM321.466 31.862V47.288H318.01V48.728H322.906V31.862H321.466ZM9.45 74.558C11.448 74.36 13.248 73.748 14.418 72.776C16.056 71.408 16.83 69.284 16.83 67.142C16.83 64.1 15.264 60.068 9.432 60.068C4.68 60.068 1.116 63.2 1.116 68.096C1.116 71.066 2.592 73.154 4.356 73.154C5.166 73.154 6.318 72.74 7.38 71.066C9.234 68.096 9.594 63.668 9.756 61.58C14.706 61.742 15.138 65.702 15.138 67.124C15.138 72.272 10.764 72.794 8.91 72.992L9.45 74.558ZM8.154 61.652C7.974 63.722 7.686 67.376 6.174 69.968C5.706 70.76 5.166 71.426 4.41 71.426C3.132 71.426 2.682 69.356 2.682 68.132C2.682 66.044 3.51 64.028 5.184 62.804C6.102 62.12 7.092 61.85 8.154 61.652ZM24.944 66.26C25.394 66.026 25.934 65.756 26.816 65.09V67.178H33.8V65.162C34.43 65.648 34.988 65.972 35.798 66.332L36.374 65.162C34.412 64.28 33.728 63.686 32.846 62.426H35.978V61.31H29.948C30.02 61.166 30.146 60.932 30.434 60.248C31.262 60.194 33.602 60.014 34.952 59.744L34.34 58.664C32.846 58.97 30.434 59.348 25.178 59.33L25.466 60.41C26.15 60.41 26.798 60.41 28.994 60.32C28.904 60.5 28.796 60.734 28.49 61.31H24.746V62.426H27.77C26.546 64.064 24.962 64.802 24.278 65.126L24.944 66.26ZM31.424 62.426C31.658 62.822 31.928 63.272 32.45 63.902H28.13C28.598 63.398 28.904 63.038 29.3 62.426H31.424ZM32.648 66.188H27.95V64.892H32.648V66.188ZM35.492 68.06H25.106V75.512H26.456V69.158H34.106V73.532C34.106 74.18 34.052 74.288 33.44 74.27L32.27 74.252L32.522 75.512H33.98C34.79 75.512 35.492 75.422 35.492 74.27V68.06ZM31.874 72.794H28.724V71.156H31.874V72.794ZM24.962 67.628C23.81 66.26 23.288 65.09 23.036 64.442V63.686H24.656V62.318H23.036V58.808H21.65V62.318H19.364V63.686H21.596C21.128 66.062 19.994 68.168 19.13 69.374L19.778 71.102C20.228 70.436 20.948 69.32 21.65 67.052V75.512H23.036V66.656C23.324 67.376 23.396 67.556 24.17 68.744L24.962 67.628ZM33.08 70.148H27.5V73.838H33.08V70.148ZM42.814 60.158V66.872C42.814 71.426 41.338 73.406 40.654 74.324L41.824 75.458C42.22 74.882 43.264 73.388 43.768 71.12C44.038 69.878 44.254 68.132 44.254 66.89V64.442H46.324V67.268H52.12V64.442H54.532V63.2H52.12V61.94H50.788V63.2H47.656V61.94H46.324V63.2H44.254V61.49H54.676V60.158H49.492V58.808H48.034V60.158H42.814ZM38.548 60.14C39.232 60.464 40.6 61.238 41.284 61.958L42.202 60.626C40.942 59.708 40.15 59.294 39.376 58.97L38.548 60.14ZM50.788 64.442V66.098H47.656V64.442H50.788ZM54.892 74.108C54.172 73.982 52.678 73.694 50.752 72.902C52.588 71.57 53.272 70.184 53.578 69.554V68.312H44.776V69.59H52.012C51.652 70.148 50.95 71.21 49.294 72.182C47.71 71.228 47.026 70.364 46.666 69.932L45.496 70.562C45.838 71.012 46.504 71.84 47.908 72.866C45.802 73.748 44.236 73.982 43.372 74.108L44.02 75.548C46.234 75.062 47.836 74.522 49.312 73.748C51.544 74.972 53.362 75.332 54.298 75.512L54.892 74.108ZM37.738 64.91C38.71 65.378 39.7 66.008 40.528 66.728L41.428 65.486C40.816 64.982 39.628 64.172 38.566 63.704L37.738 64.91ZM40.276 68.384C39.898 69.77 39.034 72.11 37.684 74.108L38.818 75.368C40.582 72.578 41.284 70.004 41.5 69.122L40.276 68.384ZM59.91 59.636C59.892 60.86 59.784 66.836 59.784 68.186C59.784 71.318 60.108 74.612 65.04 74.612C70.512 74.612 71.682 70.904 72.258 67.646L70.746 67.088C70.242 69.824 69.648 73.064 64.986 73.064C61.602 73.064 61.494 70.652 61.494 68.348C61.494 66.638 61.566 64.496 61.728 59.636H59.91ZM77.618 59.798C77.042 62.498 76.862 65.378 76.862 68.348C76.862 71.786 77.168 73.586 77.33 74.63L79.076 74.486C78.932 73.838 78.518 72.11 78.518 68.096C78.518 63.56 79.058 61.202 79.328 59.942L77.618 59.798ZM82.064 61.256V62.84H90.524V61.256H82.064ZM82.46 67.214C81.83 68.276 81.506 69.302 81.506 70.238C81.506 73.334 84.836 73.586 87.5 73.586C89.03 73.586 90.29 73.478 90.902 73.424V71.732C89.246 71.912 87.77 71.948 86.78 71.948C84.854 71.948 83.018 71.732 83.018 70.094C83.018 69.932 83.036 68.906 83.918 67.664L82.46 67.214ZM103.318 64.046H109.402V62.426L103.318 62.48L103.3 59.492H101.608L101.68 67.97C101.23 67.916 100.888 67.862 100.294 67.862C97.72 67.862 95.182 68.924 95.182 71.39C95.182 73.154 96.514 74.63 99.484 74.63C103.228 74.63 103.354 72.326 103.336 71.264L103.318 70.022C105.514 70.868 107.602 72.488 108.7 73.712L109.87 72.164C108.988 71.246 106.882 69.518 103.336 68.312L103.318 64.046ZM101.698 71.156C101.698 71.894 101.518 73.136 99.466 73.136C99.07 73.136 96.784 73.136 96.784 71.408C96.784 69.95 98.494 69.338 100.042 69.338C100.798 69.338 101.338 69.446 101.716 69.518L101.698 71.156ZM119.028 74.054C120.468 74.036 122.016 73.91 123.42 73.46C126.858 72.38 127.254 69.554 127.254 68.474C127.254 65.954 125.49 64.046 122.412 64.046C121.458 64.046 120.198 64.226 119.082 64.406C118.47 64.514 115.482 65.054 114.798 65.162L115.068 66.746C117.84 66.044 120.9 65.45 122.34 65.45C124.104 65.45 125.67 66.35 125.67 68.528C125.67 72.704 120.126 72.668 118.632 72.65L119.028 74.054ZM147.122 60.464C142.694 60.5 141.038 60.536 137.006 60.752C136.088 60.806 133.208 60.932 132.128 60.968L132.272 62.732C134.234 62.498 140.462 62.12 140.984 62.102C138.86 63.344 135.71 65.702 135.71 69.122C135.71 74.162 141.686 74.414 145.232 74.558L145.556 72.812C144.008 72.866 142.28 72.758 141.02 72.488C139.112 72.092 137.384 71.354 137.384 69.014C137.384 65.918 140.912 63.128 143.504 62.264C144.044 62.084 144.422 62.048 145.322 62.048C146.024 62.048 146.546 62.066 147.158 62.12L147.122 60.464ZM155.254 73.838C154.498 72.812 153.22 71.3 152.05 70.22L150.682 71.228C151.276 71.858 152.392 73.028 153.67 74.954L155.254 73.838ZM177.426 74.882C181.26 73.514 182.178 70.508 182.61 68.744C183.51 69.14 183.816 69.302 184.626 69.788L185.166 68.168C184.05 67.556 183.006 67.16 182.952 67.142C183.222 65.702 183.366 64.136 183.492 62.84L181.782 62.714C181.746 63.542 181.656 64.82 181.386 66.584C179.748 66.044 178.56 65.756 177.048 65.63C177.642 62.084 177.696 61.688 177.93 59.888H170.478V61.454L176.112 61.4C176.004 62.678 175.77 64.28 175.518 65.576C169.632 65.81 169.308 69.68 169.308 70.562C169.308 72.488 170.568 73.64 172.296 73.64C175.014 73.64 175.806 71.066 176.778 67.052C178.398 67.196 179.928 67.664 181.098 68.114C180.468 70.724 179.532 72.524 176.436 73.64L177.426 74.882ZM175.248 66.962C174.294 70.868 173.808 72.218 172.188 72.218C170.82 72.218 170.73 70.814 170.73 70.472C170.73 69.248 171.468 68.078 172.638 67.502C173.43 67.106 174.186 66.998 175.248 66.962ZM199.922 64.532H198.302L198.41 68.384C198.014 68.294 197.438 68.168 196.538 68.168C193.352 68.168 192.308 70.166 192.308 71.516C192.308 73.19 193.64 74.684 196.34 74.684C198.122 74.684 199.94 74.036 199.94 71.372V70.634C200.588 71.012 201.686 71.678 202.856 73.082L203.846 71.66C202.964 70.688 201.524 69.572 200.012 68.906L199.922 64.532ZM198.446 71.084C198.446 72.308 198.176 73.28 196.394 73.28C196.052 73.28 193.838 73.28 193.838 71.462C193.838 70.454 194.702 69.536 196.538 69.536C197.492 69.536 198.032 69.734 198.446 69.878V71.084ZM193.1 61.76C193.334 60.446 193.352 60.338 193.496 59.474L191.786 59.402C191.714 60.122 191.66 60.518 191.462 61.76H188.132V63.272H191.174C190.706 65.288 189.914 68.816 187.988 71.912L189.644 72.632C190.292 71.3 191.768 68.294 192.794 63.272H196.88V61.76H193.1ZM203.54 63.164C201.632 62.102 200.426 61.562 198.626 60.932L197.996 62.264C199.616 62.858 200.966 63.506 202.784 64.604L203.54 63.164ZM219.628 68.6C218.548 67.448 217.504 65.702 216.748 63.884C218.332 63.812 219.88 63.74 221.842 63.326L221.554 61.778C219.754 62.156 218.062 62.372 216.226 62.426C215.992 61.706 215.74 60.536 215.578 59.438L213.868 59.564C213.94 59.996 214.21 61.31 214.57 62.48C214.12 62.498 213.148 62.516 212.392 62.498L207.136 62.408V63.974H212.32C212.59 63.974 213.976 63.956 215.074 63.938C216.046 66.404 217.18 68.348 218.242 69.536L219.628 68.6ZM210.556 67.124C208.72 68.024 207.946 69.32 207.946 70.634C207.946 71.534 208.288 72.416 209.008 73.064C210.268 74.198 212.05 74.558 215.2 74.558C217.666 74.558 219.25 74.414 219.898 74.342L219.88 72.74C218.764 72.884 217.396 73.046 215.056 73.046C212.482 73.046 209.566 72.812 209.566 70.616C209.566 70.274 209.656 69.158 211.42 68.294L210.556 67.124ZM230.262 59.384C229.83 60.554 228.786 63.434 228.516 64.19C228.102 65.36 227.796 66.224 225.24 74.036L226.932 74.558C227.418 72.74 227.706 71.66 228.336 69.986C229.47 67.664 230.946 67.286 231.666 67.286C232.944 67.286 233.268 68.348 233.268 69.68V70.688C233.268 72.092 233.286 74.63 236.346 74.63C240.468 74.63 240.9 69.806 241.008 67.43L239.442 67.07C239.442 68.114 239.352 69.464 238.848 70.922C238.254 72.632 237.336 73.046 236.454 73.046C234.996 73.046 234.852 72.056 234.852 70.76V69.554C234.852 68.312 234.708 65.756 231.936 65.756C230.946 65.756 230.244 66.098 229.272 66.89C229.758 65.486 230.838 62.534 232.044 59.87L230.262 59.384ZM252.29 74.558C254.288 74.36 256.088 73.748 257.258 72.776C258.896 71.408 259.67 69.284 259.67 67.142C259.67 64.1 258.104 60.068 252.272 60.068C247.52 60.068 243.956 63.2 243.956 68.096C243.956 71.066 245.432 73.154 247.196 73.154C248.006 73.154 249.158 72.74 250.22 71.066C252.074 68.096 252.434 63.668 252.596 61.58C257.546 61.742 257.978 65.702 257.978 67.124C257.978 72.272 253.604 72.794 251.75 72.992L252.29 74.558ZM250.994 61.652C250.814 63.722 250.526 67.376 249.014 69.968C248.546 70.76 248.006 71.426 247.25 71.426C245.972 71.426 245.522 69.356 245.522 68.132C245.522 66.044 246.35 64.028 248.024 62.804C248.942 62.12 249.932 61.85 250.994 61.652ZM273.202 58.808V59.978H270.862V61.166H273.202V62.57H269.908V63.74H273.202V65.18H270.862V66.332H273.202V67.628H270.61V68.798H273.202V70.148H270.124V71.354H273.202V72.956H274.498V71.354H278.782V70.148H274.498V68.798H278.206V67.628H274.498V66.332H277.972V63.74H278.836V62.57H277.972V59.978H274.498V58.808H273.202ZM276.64 62.57H274.498V61.166H276.64V62.57ZM276.64 65.18H274.498V63.74H276.64V65.18ZM274.066 73.604C270.556 73.604 268.954 72.02 268.846 71.894C269.044 71.372 269.872 68.978 269.944 65.072H267.64C268.432 63.686 269.296 62.192 269.908 60.842V59.492H266.308V60.788H268.45C268.018 61.832 266.848 64.046 266.128 65.054V66.368H268.63C268.594 67.7 268.468 69.104 267.964 70.616C267.37 69.374 267.208 68.222 267.1 67.484L265.876 67.664C265.984 68.33 266.29 70.436 267.334 72.038C266.632 73.19 266.02 73.658 265.516 74.054L266.326 75.386C266.848 74.9 267.496 74.306 268.216 73.136C268.72 73.622 270.502 75.008 273.958 75.008H278.764L278.998 73.604H274.066ZM265.102 63.128C265.732 61.4 265.984 60.05 266.164 59.006L264.724 58.772C264.364 61.328 263.41 64.442 261.88 66.296L262.582 67.772C262.96 67.376 263.248 67.07 263.716 66.224V75.476H265.102V63.128ZM295.734 68.942C294.816 70.076 293.376 71.192 293.16 71.354C291.954 70.454 291.306 69.608 290.856 68.978V68.816H296.13V66.332H297.552V65.144H296.13V62.75H290.856V61.904H289.452V62.75H284.394V63.92H289.452V65.144H283.602V61.454H297.444V60.122H290.136V58.808H288.642V60.122H282.144V67.61C282.144 69.41 282 70.004 281.802 71.048C281.478 72.74 280.938 73.73 280.632 74.252L281.856 75.53C283.44 72.542 283.602 69.068 283.602 67.736V66.332H289.452V67.664H284.394V68.816H289.452V73.64C289.452 73.874 289.416 74.054 289.002 74.054L287.076 74.036L287.364 75.512H289.542C290.46 75.512 290.856 74.972 290.856 74.18V70.832C292.584 72.974 294.942 74.306 296.868 75.026L297.714 73.64C297.066 73.406 295.842 72.974 294.33 72.11C295.536 71.228 296.13 70.688 296.94 69.824L295.734 68.942ZM294.708 63.92V65.144H290.856V63.92H294.708ZM294.708 66.332V67.664H290.856V66.332H294.708ZM284.412 70.004C285.582 70.544 286.14 70.904 286.932 71.642L287.886 70.544C286.968 69.824 286.374 69.5 285.222 68.96L284.412 70.004ZM288.606 71.282C287.994 71.57 285.294 72.812 283.224 73.46L283.782 74.756C287.616 73.154 288.048 72.974 288.84 72.542L288.606 71.282ZM307.88 65.306C306.872 65.306 306.026 66.116 306.026 67.16C306.026 68.168 306.836 69.014 307.88 69.014C308.924 69.014 309.734 68.15 309.734 67.16C309.734 66.152 308.906 65.306 307.88 65.306ZM334.012 74.108C332.968 73.496 331.204 72.488 328.918 71.534C329.62 70.814 330.808 69.464 331.672 66.71H334.858V65.288H325.102C325.75 63.974 325.984 63.38 326.182 62.894L324.526 62.588C324.31 63.218 324.004 64.064 323.374 65.288H318.262V66.71H322.6C321.61 68.42 320.728 69.464 320.188 70.094C322.996 70.868 324.598 71.408 326.056 71.984C323.806 73.226 321.106 73.676 318.694 73.892L319.216 75.476C323.896 74.99 326.668 73.352 327.658 72.632C330.61 73.91 332.212 74.972 333.022 75.512L334.012 74.108ZM330.088 66.71C329.89 67.304 329.206 69.374 327.478 70.958C325.678 70.274 323.878 69.752 322.582 69.374C322.942 68.906 323.464 68.222 324.328 66.71H330.088ZM318.694 60.428V64.352H320.224V61.814H332.914V64.352H334.444V60.428H327.298V58.808H325.75V60.428H318.694ZM14.31 91.766C15.426 92.468 16.236 92.828 16.866 93.116L17.622 91.64C14.31 90.434 11.646 88.274 9.828 85.826H8.19C6.192 88.616 3.24 90.56 0.378 91.658L1.134 93.134C1.782 92.828 2.538 92.486 3.762 91.748V93.116H8.244V95.852H2.52V97.202H8.244V100.604H0.756V102.044H17.244V100.604H9.774V97.202H15.534V95.852H9.774V93.116H14.31V91.766ZM3.78 91.73C5.778 90.524 7.542 88.94 9 87.104C10.926 89.498 13.14 91.01 14.256 91.73H3.78ZM26.438 88.202C26.69 87.302 26.78 86.888 26.888 86.258L25.16 86.186C25.034 87.212 24.908 87.734 24.782 88.202H20.642V89.642H24.35C23.198 93.008 21.758 94.916 20.174 96.41L21.29 97.616C21.866 97.022 23.054 95.438 23.882 94.304C25.142 93.026 26.456 92.468 27.446 92.468C28.274 92.468 28.778 92.828 28.976 93.89C27.194 94.682 23.972 96.302 23.972 98.75C23.972 101.648 28.04 101.648 30.074 101.648C31.784 101.648 33.35 101.54 34.376 101.468L34.322 99.92C32.702 100.1 31.01 100.172 29.57 100.172C27.59 100.172 25.592 100.172 25.592 98.588C25.592 97.112 27.77 95.96 29.156 95.312C29.192 95.78 29.192 96.086 29.192 96.392C29.192 97.04 29.138 97.706 29.102 98.12H30.668C30.722 97.544 30.722 97.004 30.722 96.752C30.722 96.104 30.704 95.33 30.65 94.7C32.63 93.944 33.908 93.548 35.366 93.134L34.934 91.568C33.314 92.126 30.848 93.116 30.434 93.278C30.074 91.568 28.922 91.172 27.698 91.172C26.798 91.172 26.078 91.478 24.818 92.234C25.34 91.334 25.592 90.74 26.006 89.642H33.944V88.202H26.438ZM51.184 89.93V86.51H49.564V89.93H43.282V86.582H41.644V89.93H38.602V91.478H41.644V96.32H43.282V91.478H49.564V93.692C49.564 97.652 47.206 99.722 42.112 100.208L42.706 101.774C45.406 101.45 51.184 100.388 51.184 93.764V91.478H54.298V89.93H51.184ZM65.832 89.606V86.6H64.176V89.606H57.948V91.136H64.176V101.828H65.832V91.136H72.078V90.488C73.158 90.182 73.896 89.21 73.896 88.094C73.896 86.708 72.78 85.592 71.394 85.592C70.026 85.592 68.892 86.708 68.892 88.076C68.892 88.652 69.072 89.174 69.414 89.606H65.832ZM71.394 86.708C72.15 86.708 72.78 87.32 72.78 88.094C72.78 88.85 72.168 89.48 71.394 89.48C70.638 89.48 70.008 88.85 70.008 88.094C70.008 87.32 70.638 86.708 71.394 86.708ZM58.848 100.748C61.008 98.336 61.566 95.402 61.818 93.026L60.288 92.864C60.09 95.078 59.442 97.652 57.534 99.56L58.848 100.748ZM68.262 93.026C68.874 96.716 69.576 98.696 71.196 100.676L72.546 99.632C71.07 97.85 70.314 95.978 69.774 92.846L68.262 93.026ZM75.98 93.296V95.006H91.46V93.296H75.98ZM109.492 94.898C106.9 93.494 104.11 92.108 100.708 91.028V86.42H98.962V101.81H100.708V92.72C104.47 94.016 107.422 95.816 108.646 96.572L109.492 94.898ZM115.95 86.636C115.932 87.86 115.824 93.836 115.824 95.186C115.824 98.318 116.148 101.612 121.08 101.612C126.552 101.612 127.722 97.904 128.298 94.646L126.786 94.088C126.282 96.824 125.688 100.064 121.026 100.064C117.642 100.064 117.534 97.652 117.534 95.348C117.534 93.638 117.606 91.496 117.768 86.636H115.95ZM136.574 100.838C135.818 99.812 134.54 98.3 133.37 97.22L132.002 98.228C132.596 98.858 133.712 100.028 134.99 101.954L136.574 100.838ZM159.808 93.8C159.934 93.026 159.988 92.432 159.988 91.388H164.938V90.074H156.73C156.982 89.588 157.126 89.282 157.414 88.562L155.974 88.256C155.416 90.002 154.354 91.316 153.076 92.342L154.21 93.314C154.912 92.684 155.326 92.234 155.938 91.388H158.584C158.584 92.684 158.494 93.242 158.404 93.8H153.166V95.132H157.972C156.694 97.778 153.832 98.48 152.932 98.696L153.796 100.01C155.848 99.326 158.152 98.156 159.34 95.42C159.79 96.446 161.23 98.732 165.298 99.992L166.09 98.606C163.174 97.958 161.266 96.284 160.654 95.132H165.694V93.8H159.808ZM150.7 86.402V102.134H166.684V100.766H152.23V87.788H166.306V86.402H150.7ZM183.564 94.556C184.122 94.898 184.464 95.06 184.95 95.294L185.634 94.088C185.13 93.908 184.644 93.728 183.834 93.278C183.87 93.224 184.5 92.612 185.058 91.892L184.05 91.28C183.852 91.55 183.42 92.09 182.898 92.648C182.034 91.982 181.584 91.388 181.224 90.938H185.418V89.804H178.866C178.992 89.552 179.064 89.372 179.244 88.922L177.822 88.76C177.678 89.174 177.588 89.408 177.408 89.804H173.088V90.938H176.724C176.22 91.604 175.77 92.072 175.212 92.522C175.05 92.342 174.546 91.784 173.97 91.352L173.142 92.108C173.646 92.504 173.7 92.558 174.294 93.188C173.682 93.602 173.214 93.836 172.584 94.142L173.376 95.222C173.772 94.988 173.898 94.916 174.276 94.682V98.426H178.146V100.748C178.146 101.108 178.092 101.18 177.732 101.18H176.022L176.328 102.476H178.272C178.83 102.476 179.604 102.44 179.604 101.324V98.426H183.564V94.556ZM182.25 95.258H175.59V94.178H182.25V95.258ZM176.328 93.134C177.498 92.072 178.002 91.28 178.218 90.938H179.748C180.144 91.514 180.594 92.198 181.638 93.134H176.328ZM182.25 97.382H175.59V96.248H182.25V97.382ZM171.09 93.368C171.09 93.872 171.072 94.214 171.072 94.502C170.172 94.952 169.758 95.15 168.516 95.636L168.822 97.112C169.362 96.842 170.046 96.5 170.946 95.906C170.55 99.254 169.56 100.55 168.75 101.558L169.848 102.53C170.568 101.666 172.512 99.344 172.512 93.422V88.526H185.472V87.266H178.776V85.808H177.3V87.266H171.09V93.368ZM170.712 91.82C170.532 90.902 170.154 89.642 169.632 88.616L168.516 89.156C168.93 90.182 169.254 91.334 169.452 92.414L170.712 91.82ZM172.62 102.206C173.826 101.756 174.942 101.162 176.472 99.668L175.428 98.804C174.15 100.028 173.268 100.514 171.828 101L172.62 102.206ZM181.062 99.686C182.034 100.784 183.564 101.738 184.95 102.224L185.742 101C184.068 100.406 183.312 99.974 182.016 98.732L181.062 99.686ZM189.698 86.798C189.122 89.498 188.942 92.378 188.942 95.348C188.942 98.786 189.248 100.586 189.41 101.63L191.156 101.486C191.012 100.838 190.598 99.11 190.598 95.096C190.598 90.56 191.138 88.202 191.408 86.942L189.698 86.798ZM194.144 88.256V89.84H202.604V88.256H194.144ZM194.54 94.214C193.91 95.276 193.586 96.302 193.586 97.238C193.586 100.334 196.916 100.586 199.58 100.586C201.11 100.586 202.37 100.478 202.982 100.424V98.732C201.326 98.912 199.85 98.948 198.86 98.948C196.934 98.948 195.098 98.732 195.098 97.094C195.098 96.932 195.116 95.906 195.998 94.664L194.54 94.214ZM212.122 100.586C214.3 100.568 216.316 100.316 217.846 99.686C221.68 98.138 222.13 95.096 222.13 93.71C222.13 91.01 220.42 88.31 216.208 88.31C214.714 88.31 212.986 88.598 211.276 88.904C210.538 89.03 207.046 89.642 206.632 89.696L207.028 91.514C210.07 90.758 213.94 89.894 216.1 89.894C219.61 89.894 220.402 92.036 220.402 93.728C220.402 95.51 219.466 96.806 218.494 97.508C216.73 98.768 214.66 99.02 211.69 99.038L212.122 100.586ZM226.194 87.338C226.086 88.562 225.906 90.524 225.906 92.486C225.906 97.166 226.716 101.198 229.632 101.198C230.55 101.198 231.216 100.766 231.648 100.334C232.656 99.326 233.484 97.814 234.078 96.14L232.746 95.384C231.504 98.624 230.568 99.362 229.758 99.362C227.742 99.362 227.526 95.42 227.526 92.63C227.526 90.2 227.76 88.562 227.904 87.482L226.194 87.338ZM240.702 99.416C240.954 92.216 239.1 89.678 236.958 87.878L235.716 88.832C237.588 90.362 238.992 92.954 238.992 97.652C238.992 98.48 238.956 99.02 238.92 99.488L240.702 99.416ZM259.202 87.464C254.774 87.5 253.118 87.536 249.086 87.752C248.168 87.806 245.288 87.932 244.208 87.968L244.352 89.732C246.314 89.498 252.542 89.12 253.064 89.102C250.94 90.344 247.79 92.702 247.79 96.122C247.79 101.162 253.766 101.414 257.312 101.558L257.636 99.812C256.088 99.866 254.36 99.758 253.1 99.488C251.192 99.092 249.464 98.354 249.464 96.014C249.464 92.918 252.992 90.128 255.584 89.264C256.124 89.084 256.502 89.048 257.402 89.048C258.104 89.048 258.626 89.066 259.238 89.12L259.202 87.464ZM270.97 101.558C272.968 101.36 274.768 100.748 275.938 99.776C277.576 98.408 278.35 96.284 278.35 94.142C278.35 91.1 276.784 87.068 270.952 87.068C266.2 87.068 262.636 90.2 262.636 95.096C262.636 98.066 264.112 100.154 265.876 100.154C266.686 100.154 267.838 99.74 268.9 98.066C270.754 95.096 271.114 90.668 271.276 88.58C276.226 88.742 276.658 92.702 276.658 94.124C276.658 99.272 272.284 99.794 270.43 99.992L270.97 101.558ZM269.674 88.652C269.494 90.722 269.206 94.376 267.694 96.968C267.226 97.76 266.686 98.426 265.93 98.426C264.652 98.426 264.202 96.356 264.202 95.132C264.202 93.044 265.03 91.028 266.704 89.804C267.622 89.12 268.612 88.85 269.674 88.652ZM289.524 90.11C289.848 89.588 290.208 88.994 290.73 87.914H297.498V86.438H280.866V87.914H289.128C287.76 90.83 285.096 93.926 280.668 95.96L281.568 97.382C282.846 96.734 285.564 95.276 288.354 91.748V102.512H289.92V90.11H289.524ZM297.75 96.032C295.014 94.358 293.178 92.468 291.648 90.56L290.55 91.424C292.746 94.196 293.934 95.402 296.67 97.382L297.75 96.032ZM315.332 101.108C314.288 100.496 312.524 99.488 310.238 98.534C310.94 97.814 312.128 96.464 312.992 93.71H316.178V92.288H306.422C307.07 90.974 307.304 90.38 307.502 89.894L305.846 89.588C305.63 90.218 305.324 91.064 304.694 92.288H299.582V93.71H303.92C302.93 95.42 302.048 96.464 301.508 97.094C304.316 97.868 305.918 98.408 307.376 98.984C305.126 100.226 302.426 100.676 300.014 100.892L300.536 102.476C305.216 101.99 307.988 100.352 308.978 99.632C311.93 100.91 313.532 101.972 314.342 102.512L315.332 101.108ZM311.408 93.71C311.21 94.304 310.526 96.374 308.798 97.958C306.998 97.274 305.198 96.752 303.902 96.374C304.262 95.906 304.784 95.222 305.648 93.71H311.408ZM300.014 87.428V91.352H301.544V88.814H314.234V91.352H315.764V87.428H308.618V85.808H307.07V87.428H300.014ZM326.56 92.306C325.552 92.306 324.706 93.116 324.706 94.16C324.706 95.168 325.516 96.014 326.56 96.014C327.604 96.014 328.414 95.15 328.414 94.16C328.414 93.152 327.586 92.306 326.56 92.306ZM1.548 121.736C1.944 120.26 2.106 117.92 2.124 116.678L0.972 116.57C0.972 117.47 0.864 119.54 0.36 121.16L1.548 121.736ZM2.862 112.808V129.512H4.32V112.808H2.862ZM6.516 118.82C6.426 118.514 6.03 117.128 5.58 116.102L4.5 116.534C4.878 117.47 5.166 118.532 5.31 119.288L6.516 118.82ZM16.794 119.144H15.372V127.838H7.74V119.144H6.318V129.134H16.794V119.144ZM12.996 118.622C12.582 119.99 12.204 120.728 11.736 121.61C10.836 120.692 10.296 120.188 9.486 119.576L8.55 120.494C9.63 121.376 10.224 121.97 11.016 122.798C10.206 124.004 9.504 124.886 8.226 125.912L9.216 126.938C10.8 125.57 11.43 124.706 11.988 123.896C12.546 124.526 12.978 125.066 13.77 126.254L14.832 125.3C14.328 124.526 13.878 123.896 12.762 122.69C13.284 121.772 13.752 120.89 14.274 119.18L12.996 118.622ZM12.492 116.516C12.06 114.842 11.268 113.276 11.052 112.844L9.72 113.222C9.828 113.438 10.746 115.346 11.106 116.948L12.492 116.516ZM15.138 118.1C16.02 116.876 16.902 115.058 17.316 113.726L15.966 113.132C15.75 113.762 15.102 115.724 13.896 117.47L15.138 118.1ZM9.108 117.218C8.658 116.03 7.884 114.626 7.128 113.6L5.886 114.122C6.678 115.256 7.362 116.66 7.776 117.722L9.108 117.218ZM27.986 128.882C31.82 127.514 32.738 124.508 33.17 122.744C34.07 123.14 34.376 123.302 35.186 123.788L35.726 122.168C34.61 121.556 33.566 121.16 33.512 121.142C33.782 119.702 33.926 118.136 34.052 116.84L32.342 116.714C32.306 117.542 32.216 118.82 31.946 120.584C30.308 120.044 29.12 119.756 27.608 119.63C28.202 116.084 28.256 115.688 28.49 113.888H21.038V115.454L26.672 115.4C26.564 116.678 26.33 118.28 26.078 119.576C20.192 119.81 19.868 123.68 19.868 124.562C19.868 126.488 21.128 127.64 22.856 127.64C25.574 127.64 26.366 125.066 27.338 121.052C28.958 121.196 30.488 121.664 31.658 122.114C31.028 124.724 30.092 126.524 26.996 127.64L27.986 128.882ZM25.808 120.962C24.854 124.868 24.368 126.218 22.748 126.218C21.38 126.218 21.29 124.814 21.29 124.472C21.29 123.248 22.028 122.078 23.198 121.502C23.99 121.106 24.746 120.998 25.808 120.962ZM46.36 119.306C45.352 119.306 44.506 120.116 44.506 121.16C44.506 122.168 45.316 123.014 46.36 123.014C47.404 123.014 48.214 122.15 48.214 121.16C48.214 120.152 47.386 119.306 46.36 119.306ZM56.67 114.356V115.76H60.684V117.596H62.142V115.76H67.902V117.596H69.342V115.76H73.41V114.356H69.342V112.79H67.902V114.356H62.142V112.79H60.684V114.356H56.67ZM73.41 118.748H65.742V116.768H64.248V118.748H56.67V120.134H64.248V122.456H58.488V129.17H71.556V122.456H65.742V120.134H73.41V118.748ZM70.062 127.856H59.982V123.788H70.062V127.856ZM87.23 120.134C87.104 120.044 86.942 119.918 86.834 119.846C87.248 119.648 89.102 118.784 90.722 117.47V116.516H80.354V117.596H88.292C87.32 118.316 86.816 118.604 85.736 119.144C85.466 118.964 84.494 118.388 83.504 117.938L82.64 118.91C83.828 119.396 84.494 119.738 85.034 120.134H80.678V129.53H82.082V126.542H85.25V129.476H86.636V126.542H90.002V127.676C90.002 128 89.84 128.054 89.588 128.054H88.094L88.364 129.53H90.146C91.388 129.53 91.388 128.63 91.388 128.09V120.134H87.23ZM85.25 122.744H82.082V121.286H85.25V122.744ZM85.25 125.408H82.082V123.86H85.25V125.408ZM90.002 122.744H86.636V121.286H90.002V122.744ZM90.002 125.408H86.636V123.86H90.002V125.408ZM78.158 120.566C78.158 120.98 78.14 121.232 78.122 121.484C77.96 121.592 76.646 122.312 75.224 122.852L75.584 124.328C76.214 124.004 76.826 123.698 78.014 122.978C77.69 125.678 77.168 127.082 75.89 128.576L77.078 129.584C77.888 128.612 79.562 126.614 79.562 120.278V115.508H92V114.23H85.412V112.772H83.9V114.23H78.158V120.566ZM77.744 118.874C77.51 117.938 77.024 116.606 76.502 115.634L75.314 116.282C75.728 117.092 76.25 118.46 76.502 119.486L77.744 118.874ZM101.158 115.202C101.41 114.302 101.5 113.888 101.608 113.258L99.88 113.186C99.754 114.212 99.628 114.734 99.502 115.202H95.362V116.642H99.07C97.918 120.008 96.478 121.916 94.894 123.41L96.01 124.616C96.586 124.022 97.774 122.438 98.602 121.304C99.862 120.026 101.176 119.468 102.166 119.468C102.994 119.468 103.498 119.828 103.696 120.89C101.914 121.682 98.692 123.302 98.692 125.75C98.692 128.648 102.76 128.648 104.794 128.648C106.504 128.648 108.07 128.54 109.096 128.468L109.042 126.92C107.422 127.1 105.73 127.172 104.29 127.172C102.31 127.172 100.312 127.172 100.312 125.588C100.312 124.112 102.49 122.96 103.876 122.312C103.912 122.78 103.912 123.086 103.912 123.392C103.912 124.04 103.858 124.706 103.822 125.12H105.388C105.442 124.544 105.442 124.004 105.442 123.752C105.442 123.104 105.424 122.33 105.37 121.7C107.35 120.944 108.628 120.548 110.086 120.134L109.654 118.568C108.034 119.126 105.568 120.116 105.154 120.278C104.794 118.568 103.642 118.172 102.418 118.172C101.518 118.172 100.798 118.478 99.538 119.234C100.06 118.334 100.312 117.74 100.726 116.642H108.664V115.202H101.158ZM117.606 114.698C118.668 114.518 119.244 114.374 120.216 114.122L119.676 112.808C117.336 113.438 115.338 113.708 112.71 113.78L113.016 115.13C114.474 115.076 115.212 115.004 116.148 114.896V117.542H112.674V118.874H115.968C115.41 120.152 114.294 122.492 112.44 124.31L113.088 126.02C114.762 124.202 115.662 122.51 116.148 121.43V129.512H117.606V121.088C118.272 122.312 118.956 123.266 119.802 124.094L120.54 122.672C119.064 121.412 118.074 119.828 117.606 118.928V118.874H120.504V117.542H117.606V114.698ZM128.82 113.96H121.152V129.026H128.82V113.96ZM127.344 127.622H122.592V115.328H127.344V127.622ZM144.26 114.536C141.506 113.636 138.428 113.474 136.88 113.402L136.592 114.95C139.022 115.04 141.668 115.382 143.81 116.246L144.26 114.536ZM134.396 115.976C134.162 116.912 134 117.902 133.928 119.576C133.91 120.116 133.856 122.816 133.856 123.428L135.458 123.482C135.476 123.392 135.494 123.338 135.548 123.158C136.736 121.592 139.148 120.566 141.56 120.566C143.936 120.566 144.89 121.862 144.89 123.266C144.89 124.004 144.692 124.85 144.188 125.39C143.108 126.578 140.948 127.064 138.464 127.064C137.258 127.064 136.16 126.956 134.954 126.74L135.134 128.324C135.872 128.432 136.934 128.576 138.59 128.576C142.442 128.576 146.6 127.604 146.6 123.284C146.6 121.79 145.826 119.108 141.65 119.108C139.31 119.108 137.294 119.864 135.458 121.322C135.458 118.676 135.602 117.632 136.016 116.264L134.396 115.976ZM156.802 128.9C160.618 128.162 162.832 126.848 162.832 121.052C162.832 120.746 162.796 119.522 162.778 119.036H165.982V117.524H162.688C162.652 116.966 162.508 114.356 162.454 113.654L160.906 113.69C160.96 114.644 161.05 116.714 161.086 117.524H155.02V119.036H161.14C161.158 119.594 161.176 120.44 161.176 120.818C161.176 125.732 159.664 126.776 156.208 127.442L156.802 128.9ZM162.742 112.916C163.318 114.23 163.624 115.328 163.84 116.642L165.136 116.174C164.794 114.734 164.578 113.87 163.948 112.502L162.742 112.916ZM165.19 112.448C165.766 113.762 166.018 114.644 166.288 116.156L167.584 115.688C167.17 113.978 167.026 113.384 166.396 112.016L165.19 112.448ZM151.906 113.69C151.546 116.372 151.366 119.072 151.366 121.772C151.366 124.004 151.456 126.254 151.924 128.45L153.598 128.234C153.112 125.966 152.986 123.698 152.986 121.61C152.986 117.866 153.4 115.202 153.634 113.798L151.906 113.69ZM178.38 115.454V113.564H176.796V115.454H169.956V116.84H176.796V119.072H170.226V120.44H176.796V122.564C176.418 122.492 175.806 122.384 174.996 122.384C172.314 122.384 170.46 123.752 170.46 125.642C170.46 126.794 171.216 128.666 174.726 128.666C176.238 128.666 178.38 128.18 178.38 125.606V124.58C179.37 125.03 180.954 125.858 182.7 127.784L183.762 126.236C181.872 124.652 180.288 123.662 178.38 122.96V120.44H183.78V119.072H178.38V116.84H184.122V115.454H178.38ZM176.796 125.282C176.796 126.704 176.094 127.262 174.528 127.262C172.152 127.262 171.972 125.93 171.972 125.588C171.972 124.4 173.322 123.716 174.996 123.716C175.914 123.716 176.436 123.86 176.796 123.968V125.282ZM198.626 115.4V113.384H196.97L197.006 115.4H188.15V116.894H197.024L197.042 118.838C196.664 118.514 196.232 118.118 195.026 118.118C192.794 118.118 191.3 119.666 191.3 121.772C191.3 123.518 192.416 125.3 194.648 125.3C196.718 125.3 197.312 123.95 197.492 123.572C197.258 125.714 195.926 127.37 191.12 127.316L191.624 128.828C194.756 128.702 198.968 127.838 198.968 123.086C198.968 122.618 198.932 122.15 198.86 121.7C198.806 121.268 198.716 120.854 198.626 120.512V116.894H203.342V115.4H198.626ZM197.078 121.898C197.078 123.086 196.142 123.986 194.864 123.986C193.19 123.986 192.812 122.456 192.812 121.7C192.812 120.044 194.072 119.468 195.062 119.468C196.646 119.468 196.934 120.53 197.078 121.106V121.898ZM209.458 123.554C207.982 123.554 206.776 124.742 206.776 126.236C206.776 127.712 207.964 128.918 209.458 128.918C210.934 128.918 212.14 127.712 212.14 126.236C212.14 124.724 210.916 123.554 209.458 123.554ZM209.458 124.454C210.412 124.454 211.222 125.228 211.222 126.236C211.222 127.208 210.43 128 209.458 128C208.468 128 207.676 127.208 207.676 126.236C207.676 125.246 208.486 124.454 209.458 124.454Z" fill="black" />
</svg>
