<svg width="352" height="125" viewBox="0 0 352 125" fill="none" xmlns="http://www.w3.org/2000/svg">
<path d="M3.456 5.41V12.358C1.818 13.096 1.566 13.222 0.378 13.618L0.792 15.094C1.242 14.896 2.214 14.446 3.33 13.78C2.844 17.254 1.386 18.82 0.774 19.468L1.998 20.476C2.826 19.486 4.896 17.074 4.896 11.584V6.76H17.388V5.41H10.692V3.826H9.216V5.41H3.456ZM2.916 9.784C2.646 8.65 2.34 7.75 1.692 6.598L0.486 7.21C0.756 7.696 1.26 8.596 1.62 10.432L2.916 9.784ZM16.992 8.65H5.598V9.964H10.656V18.73H8.118V11.674H6.624V18.73H4.284V20.08H17.298V18.73H12.114V14.608H16.416V13.294H12.114V9.964H16.992V8.65ZM36.194 19C35.078 18.298 31.964 16.318 30.83 10.108H35.978V8.668H30.758V3.826H29.21V8.668H24.728V10.108H29.156C29.084 11.062 28.886 12.016 28.634 12.952C27.842 15.922 26.51 17.722 24.296 19.144L25.142 20.494C28.328 18.244 29.516 15.508 30.182 13.096C31.064 15.688 32.324 18.514 35.33 20.422L36.194 19ZM22.46 3.826V13.006C21.11 13.996 19.544 14.86 19.022 15.148L19.472 16.75C20.21 16.39 21.794 15.4 22.46 14.824V20.494H23.954V3.826H22.46ZM21.92 9.694C21.596 8.47 21.038 7.174 20.444 6.112L19.148 6.688C19.85 8.02 20.156 8.776 20.57 10.27L21.92 9.694ZM35.114 7.102C34.826 6.634 34.106 5.41 32.864 4.114L31.73 4.87C32.612 5.806 33.476 7.156 33.872 7.858L35.114 7.102ZM44.308 20.584C45.478 20.224 48.232 19.27 49.456 16.12C49.924 17.272 51.274 19.504 54.262 20.53L54.982 19.18C53.704 18.766 51.67 17.992 50.554 15.454H54.082V10.468H50.032V8.812H52.552V8.146C53.056 8.524 53.506 8.812 54.244 9.244L55.036 7.948C51.976 6.4 50.896 4.96 50.194 3.772H48.43C47.044 5.77 45.784 6.886 43.696 7.966L44.416 9.262C44.884 9.028 45.388 8.758 46.198 8.164V8.812H48.61V10.468H44.56V15.454H48.214C47.422 18.244 44.398 19.054 43.57 19.27L44.308 20.584ZM50.032 11.71H52.696V14.212H49.924C49.996 13.726 50.032 13.258 50.032 12.124V11.71ZM48.61 12.16C48.61 13.204 48.574 13.726 48.502 14.212H45.982V11.71H48.61V12.16ZM46.9 7.57C47.944 6.616 48.88 5.41 49.312 4.87C49.744 5.428 50.68 6.634 51.814 7.57H46.9ZM44.254 12.898C42.868 11.404 42.22 10 41.968 9.352V8.668H43.534V7.3H41.968V3.808H40.546V7.3H38.026V8.668H40.438C39.502 12.484 38.386 13.924 37.72 14.788L38.35 16.57C39.376 15.166 40.096 13.564 40.546 11.872V20.512H41.968V11.512C42.4 12.592 42.814 13.258 43.516 14.248L44.254 12.898ZM67.11 9.658C66.624 10.216 65.922 11.062 63.996 12.808C63.798 12.646 63.456 12.376 62.574 11.8C62.646 11.728 63.924 10.63 64.86 9.388H71.574V11.512H73.068V8.092H65.778V6.562H73.068V5.23H65.778V3.844H64.302V5.23H57.084V6.562H64.302V8.092H57.012V11.512H58.488V9.388H62.952C62.628 9.838 62.34 10.234 61.44 11.08C60.792 10.666 60.594 10.576 60.252 10.396L59.334 11.494C61.242 12.412 62.664 13.456 62.988 13.726C62.826 13.87 62.7 13.978 62.358 14.248C61.548 14.266 57.624 14.302 56.742 14.284L56.85 15.67C57.912 15.67 63.132 15.562 64.302 15.544V20.476H65.796V15.472L70.926 15.202C71.574 15.832 71.862 16.192 72.15 16.57L73.176 15.544C72.672 14.95 71.502 13.546 69.072 11.782L68.028 12.718C68.46 13.024 68.748 13.222 69.702 14.05C66.048 14.176 65.634 14.194 64.392 14.248C66.696 12.232 67.434 11.566 68.388 10.486L67.11 9.658ZM57.57 20.296C58.524 19.828 60.576 18.784 62.232 16.84L61.062 16.03C59.478 17.848 57.156 18.874 56.634 19.108L57.57 20.296ZM67.596 16.768C68.442 17.65 69.792 18.964 72.564 20.206L73.482 18.928C71.394 18.136 70.044 17.29 68.64 15.904L67.596 16.768ZM84.548 7.534H90.218V5.968H77.204V7.534H82.838V16.786H76.232V18.388H91.19V16.786H84.548V7.534ZM101.824 8.164C101.356 7.876 99.376 6.598 96.19 5.644L95.38 7.084C97.972 7.894 99.862 8.956 100.924 9.676L101.824 8.164ZM96.082 19.288C106.45 18.604 109.33 10.198 110.194 7.642L108.79 6.598C107.548 10.63 104.866 17.002 95.758 17.488L96.082 19.288ZM121.242 6.994C119.82 6.31 118.056 5.5 115.968 5.032L115.32 6.4C117.174 6.922 118.902 7.57 120.558 8.488L121.242 6.994ZM119.766 11.206C118.38 10.396 116.22 9.568 114.564 9.172L113.934 10.594C116.526 11.35 118.164 12.196 119.1 12.736L119.766 11.206ZM124.14 4.042C124.968 5.464 125.22 6.076 125.706 7.57L126.966 6.94C126.372 5.356 126.03 4.528 125.31 3.448L124.14 4.042ZM127.146 3.862C127.92 5.23 128.208 5.986 128.658 7.426L129.936 6.814C129.396 5.194 128.91 4.222 128.334 3.304L127.146 3.862ZM115.266 19.396C122.61 18.442 126.102 15.67 128.442 8.992L127.038 7.966C125.058 14.212 122.034 16.93 114.87 17.632L115.266 19.396ZM139.184 8.164C138.716 7.876 136.736 6.598 133.55 5.644L132.74 7.084C135.332 7.894 137.222 8.956 138.284 9.676L139.184 8.164ZM133.442 19.288C143.81 18.604 146.69 10.198 147.554 7.642L146.15 6.598C144.908 10.63 142.226 17.002 133.118 17.488L133.442 19.288ZM163.534 20.458V5.032H166.99V3.592H162.094V20.458H163.534ZM180.144 16.606C181.206 12.124 181.566 7.588 181.692 6.184H171.738V7.786H179.856C179.748 9.082 179.406 12.88 178.416 16.606H169.452V18.208H184.698V16.606H180.144ZM191.39 5.05H189.734V16.444C189.734 18.73 190.85 19.18 193.532 19.18H198.572C199.706 19.18 201.416 19.126 202.514 18.946L202.424 17.326C201.272 17.542 199.832 17.614 198.392 17.614H193.766C191.714 17.614 191.39 17.47 191.39 16.174V12.196C193.28 11.8 196.574 10.972 200.516 9.172L199.778 7.66C197.078 9.046 194.594 9.892 191.39 10.63V5.05ZM199.22 4.51C200.03 5.752 200.444 6.544 200.984 7.966L202.208 7.246C201.632 5.914 201.182 4.996 200.372 3.862L199.22 4.51ZM201.974 3.664C202.874 5.032 203.18 5.68 203.72 7.12L204.944 6.418C204.422 5.14 203.918 4.096 203.126 3.016L201.974 3.664ZM206.74 11.296V13.006H222.22V11.296H206.74ZM228.066 3.862V19.288H224.61V20.728H229.506V3.862H228.066ZM255.8 7.714L255.764 4.672H254.126L254.18 7.714H248.78V9.262H254.216L254.288 13.51C253.784 13.366 253.334 13.24 252.434 13.24C250.148 13.24 248.492 14.518 248.492 16.39C248.492 17.848 249.536 19.486 252.344 19.486C255.782 19.486 255.8 17.452 255.8 16.426V15.76C256.79 16.39 257.69 17.146 258.41 18.1L259.472 16.642C258.644 15.76 257.312 14.734 255.854 14.014L255.8 9.262H259.166V7.714H255.8ZM254.288 16.102C254.288 17.074 254.216 18.136 252.254 18.136C251.3 18.136 249.932 17.794 249.932 16.408C249.932 15.058 251.246 14.59 252.452 14.59C253.37 14.59 253.874 14.806 254.288 14.986V16.102ZM245.342 4.636C244.856 7.444 244.676 10.054 244.676 12.898C244.676 15.112 244.748 17.344 245.18 19.522L246.8 19.306C246.332 17.254 246.242 15.13 246.242 13.024C246.242 8.992 246.674 6.562 247.016 4.762L245.342 4.636ZM275.614 20.458V5.032H279.07V3.592H274.174V20.458H275.614ZM290.586 3.808V4.942H285.204V6.166H287.832C287.886 6.31 288.21 7.516 288.282 7.804H285.798V17.758H287.166V8.974H290.658V10.324H287.724V11.44H290.658V12.682H288.372V16.408H294.276V12.682H291.972V11.44H294.888V10.324H291.972V8.974H295.446V16.192C295.446 16.606 295.284 16.642 295.05 16.642L293.376 16.624L293.574 17.992H295.482C296.418 17.992 296.814 17.47 296.814 16.606V7.804H294.186C294.438 7.192 294.582 6.778 294.762 6.166H297.48V4.942H292.044V3.808H290.586ZM289.578 7.804C289.416 7.102 289.398 7.012 289.182 6.166H293.448C293.394 6.4 293.124 7.336 292.926 7.804H289.578ZM293.034 15.31H289.596V13.762H293.034V15.31ZM288.444 18.694C287.922 18.694 284.646 18.442 284.286 16.246V10.792H280.92V12.268H282.864V17.344C282.072 18.19 281.046 18.856 280.722 19.054L281.442 20.584C282.72 19.468 282.81 19.36 283.962 18.046C284.358 18.568 285.474 20.08 288.426 20.08H297.426L297.714 18.694H288.444ZM284.934 7.048C284.07 5.842 283.026 4.78 282.18 4.06L281.19 4.96C282.81 6.544 283.44 7.516 283.764 8.002L284.934 7.048ZM301.166 8.848L299.312 9.154L299.402 10.612L301.166 10.324V16.084C301.166 16.948 301.616 17.398 302.462 17.398H304.568C306.044 17.398 306.386 15.976 306.674 13.618L305.216 13.276C305.18 13.96 305.054 16.012 304.28 16.012H303.164C302.714 16.012 302.624 15.886 302.624 15.49V10.09L306.584 9.442L306.494 7.966L302.624 8.596V3.826H301.166V8.848ZM306.08 4.6V6.058H309.302C309.302 12.376 308.726 16.426 303.47 19.234L304.514 20.53C309.5 17.488 310.742 13.924 310.814 6.058H314.216C314.216 8.11 314.216 16.93 313.262 18.478C312.956 18.982 312.362 18.964 312.182 18.964L309.5 18.946L309.824 20.476H312.434C314.036 20.476 314.522 19.648 314.738 19.198C315.728 17.074 315.728 8.992 315.728 4.6H306.08ZM330.682 9.532H329.062L329.17 13.384C328.774 13.294 328.198 13.168 327.298 13.168C324.112 13.168 323.068 15.166 323.068 16.516C323.068 18.19 324.4 19.684 327.1 19.684C328.882 19.684 330.7 19.036 330.7 16.372V15.634C331.348 16.012 332.446 16.678 333.616 18.082L334.606 16.66C333.724 15.688 332.284 14.572 330.772 13.906L330.682 9.532ZM329.206 16.084C329.206 17.308 328.936 18.28 327.154 18.28C326.812 18.28 324.598 18.28 324.598 16.462C324.598 15.454 325.462 14.536 327.298 14.536C328.252 14.536 328.792 14.734 329.206 14.878V16.084ZM323.86 6.76C324.094 5.446 324.112 5.338 324.256 4.474L322.546 4.402C322.474 5.122 322.42 5.518 322.222 6.76H318.892V8.272H321.934C321.466 10.288 320.674 13.816 318.748 16.912L320.404 17.632C321.052 16.3 322.528 13.294 323.554 8.272H327.64V6.76H323.86ZM334.3 8.164C332.392 7.102 331.186 6.562 329.386 5.932L328.756 7.264C330.376 7.858 331.726 8.506 333.544 9.604L334.3 8.164ZM2.682 37.106C3.942 36.314 4.446 35.81 4.968 35.288C7.614 36.62 9.198 37.736 10.692 39.014C8.64 41.264 5.85 42.596 2.898 43.298L3.672 44.792C14.472 41.984 15.408 33.38 15.732 30.446H6.426C5.346 32.84 3.762 34.514 1.62 35.846L2.682 37.106ZM13.878 31.94C13.464 34.73 12.636 36.386 11.682 37.79C9.9 36.26 7.83 35.144 5.958 34.208C6.444 33.614 6.768 33.2 7.506 31.94H13.878ZM29.606 35.108C32.126 33.092 33.62 31.346 34.412 30.41L32.9 29.42C29.552 33.632 25.124 36.89 19.994 38.492L20.786 39.986C23.09 39.176 25.43 38.096 27.878 36.386V44.774H29.606V35.108ZM52.426 31.418C48.232 30.464 44.992 30.068 40.654 29.816L40.384 31.31C44.848 31.544 48.358 32.066 52.12 33.074L52.426 31.418ZM51.49 36.872C48.502 35.972 45.64 35.36 40.564 34.982L40.258 36.476C44.758 36.818 47.674 37.322 51.202 38.438L51.49 36.872ZM53.164 42.974C51.184 42.398 46.648 41.066 39.502 40.706L39.178 42.236C45.586 42.722 48.88 43.442 52.714 44.684L53.164 42.974ZM64.464 33.164C63.996 32.876 62.016 31.598 58.83 30.644L58.02 32.084C60.612 32.894 62.502 33.956 63.564 34.676L64.464 33.164ZM58.722 44.288C69.09 43.604 71.97 35.198 72.834 32.642L71.43 31.598C70.188 35.63 67.506 42.002 58.398 42.488L58.722 44.288ZM77.384 44.936C83.792 43.496 87.554 39.932 89.048 33.074L87.374 30.86H80.174C78.914 33.38 77.078 34.928 75.674 35.882L76.7 37.106C78.734 35.738 80.066 34.262 81.254 32.372H87.5C86.474 37.79 83.684 42.02 76.7 43.406L77.384 44.936ZM89.804 28.7C90.74 29.978 91.1 30.698 91.712 32.084L92.864 31.328C92.108 29.816 91.802 29.186 90.884 28.016L89.804 28.7ZM87.41 29.402C88.292 30.572 88.742 31.346 89.372 32.75L90.506 31.976C89.75 30.482 89.39 29.834 88.472 28.7L87.41 29.402ZM104.902 35C105.748 36.188 106.198 37.034 106.792 38.474L108.052 37.682C107.422 36.314 106.9 35.342 106.072 34.28L104.902 35ZM107.566 33.848C108.43 35.09 108.844 35.864 109.456 37.322L110.716 36.53C110.068 35.126 109.6 34.244 108.736 33.128L107.566 33.848ZM109.762 30.464C105.64 30.482 103.948 30.518 99.682 30.752C98.764 30.806 95.65 30.95 94.768 30.968L94.912 32.732C96.874 32.498 103.102 32.12 103.624 32.102C101.5 33.344 98.35 35.702 98.35 39.122C98.35 44.162 104.326 44.414 107.872 44.558L108.196 42.812C106.594 42.866 104.812 42.722 103.66 42.488C101.752 42.092 100.024 41.354 100.024 39.014C100.024 35.918 103.552 33.128 106.144 32.264C106.684 32.084 107.08 32.048 107.962 32.048C108.466 32.048 109.024 32.066 109.798 32.12L109.762 30.464ZM121.53 44.558C123.528 44.36 125.328 43.748 126.498 42.776C128.136 41.408 128.91 39.284 128.91 37.142C128.91 34.1 127.344 30.068 121.512 30.068C116.76 30.068 113.196 33.2 113.196 38.096C113.196 41.066 114.672 43.154 116.436 43.154C117.246 43.154 118.398 42.74 119.46 41.066C121.314 38.096 121.674 33.668 121.836 31.58C126.786 31.742 127.218 35.702 127.218 37.124C127.218 42.272 122.844 42.794 120.99 42.992L121.53 44.558ZM120.234 31.652C120.054 33.722 119.766 37.376 118.254 39.968C117.786 40.76 117.246 41.426 116.49 41.426C115.212 41.426 114.762 39.356 114.762 38.132C114.762 36.044 115.59 34.028 117.264 32.804C118.182 32.12 119.172 31.85 120.234 31.652ZM141.146 28.808V29.942H135.764V31.166H138.392C138.446 31.31 138.77 32.516 138.842 32.804H136.358V42.758H137.726V33.974H141.218V35.324H138.284V36.44H141.218V37.682H138.932V41.408H144.836V37.682H142.532V36.44H145.448V35.324H142.532V33.974H146.006V41.192C146.006 41.606 145.844 41.642 145.61 41.642L143.936 41.624L144.134 42.992H146.042C146.978 42.992 147.374 42.47 147.374 41.606V32.804H144.746C144.998 32.192 145.142 31.778 145.322 31.166H148.04V29.942H142.604V28.808H141.146ZM140.138 32.804C139.976 32.102 139.958 32.012 139.742 31.166H144.008C143.954 31.4 143.684 32.336 143.486 32.804H140.138ZM143.594 40.31H140.156V38.762H143.594V40.31ZM139.004 43.694C138.482 43.694 135.206 43.442 134.846 41.246V35.792H131.48V37.268H133.424V42.344C132.632 43.19 131.606 43.856 131.282 44.054L132.002 45.584C133.28 44.468 133.37 44.36 134.522 43.046C134.918 43.568 136.034 45.08 138.986 45.08H147.986L148.274 43.694H139.004ZM135.494 32.048C134.63 30.842 133.586 29.78 132.74 29.06L131.75 29.96C133.37 31.544 134 32.516 134.324 33.002L135.494 32.048ZM151.726 33.848L149.872 34.154L149.962 35.612L151.726 35.324V41.084C151.726 41.948 152.176 42.398 153.022 42.398H155.128C156.604 42.398 156.946 40.976 157.234 38.618L155.776 38.276C155.74 38.96 155.614 41.012 154.84 41.012H153.724C153.274 41.012 153.184 40.886 153.184 40.49V35.09L157.144 34.442L157.054 32.966L153.184 33.596V28.826H151.726V33.848ZM156.64 29.6V31.058H159.862C159.862 37.376 159.286 41.426 154.03 44.234L155.074 45.53C160.06 42.488 161.302 38.924 161.374 31.058H164.776C164.776 33.11 164.776 41.93 163.822 43.478C163.516 43.982 162.922 43.964 162.742 43.964L160.06 43.946L160.384 45.476H162.994C164.596 45.476 165.082 44.648 165.298 44.198C166.288 42.074 166.288 33.992 166.288 29.6H156.64ZM181.242 34.532H179.622L179.73 38.384C179.334 38.294 178.758 38.168 177.858 38.168C174.672 38.168 173.628 40.166 173.628 41.516C173.628 43.19 174.96 44.684 177.66 44.684C179.442 44.684 181.26 44.036 181.26 41.372V40.634C181.908 41.012 183.006 41.678 184.176 43.082L185.166 41.66C184.284 40.688 182.844 39.572 181.332 38.906L181.242 34.532ZM179.766 41.084C179.766 42.308 179.496 43.28 177.714 43.28C177.372 43.28 175.158 43.28 175.158 41.462C175.158 40.454 176.022 39.536 177.858 39.536C178.812 39.536 179.352 39.734 179.766 39.878V41.084ZM174.42 31.76C174.654 30.446 174.672 30.338 174.816 29.474L173.106 29.402C173.034 30.122 172.98 30.518 172.782 31.76H169.452V33.272H172.494C172.026 35.288 171.234 38.816 169.308 41.912L170.964 42.632C171.612 41.3 173.088 38.294 174.114 33.272H178.2V31.76H174.42ZM184.86 33.164C182.952 32.102 181.746 31.562 179.946 30.932L179.316 32.264C180.936 32.858 182.286 33.506 184.104 34.604L184.86 33.164ZM197.168 36.8C197.294 36.026 197.348 35.432 197.348 34.388H202.298V33.074H194.09C194.342 32.588 194.486 32.282 194.774 31.562L193.334 31.256C192.776 33.002 191.714 34.316 190.436 35.342L191.57 36.314C192.272 35.684 192.686 35.234 193.298 34.388H195.944C195.944 35.684 195.854 36.242 195.764 36.8H190.526V38.132H195.332C194.054 40.778 191.192 41.48 190.292 41.696L191.156 43.01C193.208 42.326 195.512 41.156 196.7 38.42C197.15 39.446 198.59 41.732 202.658 42.992L203.45 41.606C200.534 40.958 198.626 39.284 198.014 38.132H203.054V36.8H197.168ZM188.06 29.402V45.134H204.044V43.766H189.59V30.788H203.666V29.402H188.06ZM220.924 37.556C221.482 37.898 221.824 38.06 222.31 38.294L222.994 37.088C222.49 36.908 222.004 36.728 221.194 36.278C221.23 36.224 221.86 35.612 222.418 34.892L221.41 34.28C221.212 34.55 220.78 35.09 220.258 35.648C219.394 34.982 218.944 34.388 218.584 33.938H222.778V32.804H216.226C216.352 32.552 216.424 32.372 216.604 31.922L215.182 31.76C215.038 32.174 214.948 32.408 214.768 32.804H210.448V33.938H214.084C213.58 34.604 213.13 35.072 212.572 35.522C212.41 35.342 211.906 34.784 211.33 34.352L210.502 35.108C211.006 35.504 211.06 35.558 211.654 36.188C211.042 36.602 210.574 36.836 209.944 37.142L210.736 38.222C211.132 37.988 211.258 37.916 211.636 37.682V41.426H215.506V43.748C215.506 44.108 215.452 44.18 215.092 44.18H213.382L213.688 45.476H215.632C216.19 45.476 216.964 45.44 216.964 44.324V41.426H220.924V37.556ZM219.61 38.258H212.95V37.178H219.61V38.258ZM213.688 36.134C214.858 35.072 215.362 34.28 215.578 33.938H217.108C217.504 34.514 217.954 35.198 218.998 36.134H213.688ZM219.61 40.382H212.95V39.248H219.61V40.382ZM208.45 36.368C208.45 36.872 208.432 37.214 208.432 37.502C207.532 37.952 207.118 38.15 205.876 38.636L206.182 40.112C206.722 39.842 207.406 39.5 208.306 38.906C207.91 42.254 206.92 43.55 206.11 44.558L207.208 45.53C207.928 44.666 209.872 42.344 209.872 36.422V31.526H222.832V30.266H216.136V28.808H214.66V30.266H208.45V36.368ZM208.072 34.82C207.892 33.902 207.514 32.642 206.992 31.616L205.876 32.156C206.29 33.182 206.614 34.334 206.812 35.414L208.072 34.82ZM209.98 45.206C211.186 44.756 212.302 44.162 213.832 42.668L212.788 41.804C211.51 43.028 210.628 43.514 209.188 44L209.98 45.206ZM218.422 42.686C219.394 43.784 220.924 44.738 222.31 45.224L223.102 44C221.428 43.406 220.672 42.974 219.376 41.732L218.422 42.686ZM239.136 33.668C236.346 34.118 234.87 34.406 232.926 35C232.548 34.226 232.458 33.272 232.458 31.364C232.458 30.482 232.476 29.978 232.494 29.492H230.73C230.784 33.326 230.82 34.37 231.414 35.54C230.154 36.08 226.446 37.628 226.446 40.706C226.446 44.54 231.432 44.54 234.546 44.54C237.138 44.54 238.722 44.432 239.892 44.36L239.856 42.668C238.83 42.776 237.156 42.938 234.186 42.938C230.316 42.938 228.12 42.74 228.12 40.652C228.12 36.656 237.84 35.558 239.298 35.396L239.136 33.668ZM252.29 44.558C254.288 44.36 256.088 43.748 257.258 42.776C258.896 41.408 259.67 39.284 259.67 37.142C259.67 34.1 258.104 30.068 252.272 30.068C247.52 30.068 243.956 33.2 243.956 38.096C243.956 41.066 245.432 43.154 247.196 43.154C248.006 43.154 249.158 42.74 250.22 41.066C252.074 38.096 252.434 33.668 252.596 31.58C257.546 31.742 257.978 35.702 257.978 37.124C257.978 42.272 253.604 42.794 251.75 42.992L252.29 44.558ZM250.994 31.652C250.814 33.722 250.526 37.376 249.014 39.968C248.546 40.76 248.006 41.426 247.25 41.426C245.972 41.426 245.522 39.356 245.522 38.132C245.522 36.044 246.35 34.028 248.024 32.804C248.942 32.12 249.932 31.85 250.994 31.652ZM263.446 30.14V36.746H269.746V43.766H264.346V38.132H262.834V45.152H278.188V38.132H276.658V43.766H271.258V36.746H277.594V30.14H276.064V35.36H271.258V28.808H269.746V35.36H264.976V30.14H263.446ZM291.198 40.22C292.602 41.642 293.502 42.776 293.682 43.01C292.35 43.136 290.496 43.298 288.3 43.388C287.922 43.406 285.906 43.46 285.456 43.478C286.626 41.408 287.346 39.842 287.778 38.852H297.174V37.466H281.1V38.852H286.032C285.636 39.896 284.952 41.57 283.818 43.514H281.334L281.496 44.99C284.268 44.99 291.612 44.666 294.618 44.234C294.996 44.792 295.212 45.134 295.5 45.62L296.796 44.756C295.41 42.56 294.312 41.3 292.386 39.41L291.198 40.22ZM293.97 34.154C295.248 35.018 296.256 35.486 297.048 35.846L297.84 34.406C294.708 33.29 291.846 31.112 289.974 28.61H288.372C287.886 29.33 285.87 32.246 280.506 34.352L281.244 35.81C281.856 35.558 282.846 35.126 284.448 34.136V35.144H293.97V34.154ZM285.006 33.776C286.518 32.732 288.048 31.472 289.182 29.888C289.812 30.68 290.856 31.976 293.394 33.776H285.006ZM300.914 30.338C300.806 31.562 300.626 33.524 300.626 35.486C300.626 40.166 301.436 44.198 304.352 44.198C305.27 44.198 305.936 43.766 306.368 43.334C307.376 42.326 308.204 40.814 308.798 39.14L307.466 38.384C306.224 41.624 305.288 42.362 304.478 42.362C302.462 42.362 302.246 38.42 302.246 35.63C302.246 33.2 302.48 31.562 302.624 30.482L300.914 30.338ZM315.422 42.416C315.674 35.216 313.82 32.678 311.678 30.878L310.436 31.832C312.308 33.362 313.712 35.954 313.712 40.652C313.712 41.48 313.676 42.02 313.64 42.488L315.422 42.416ZM321.466 28.862V44.288H318.01V45.728H322.906V28.862H321.466ZM9.45 69.558C11.448 69.36 13.248 68.748 14.418 67.776C16.056 66.408 16.83 64.284 16.83 62.142C16.83 59.1 15.264 55.068 9.432 55.068C4.68 55.068 1.116 58.2 1.116 63.096C1.116 66.066 2.592 68.154 4.356 68.154C5.166 68.154 6.318 67.74 7.38 66.066C9.234 63.096 9.594 58.668 9.756 56.58C14.706 56.742 15.138 60.702 15.138 62.124C15.138 67.272 10.764 67.794 8.91 67.992L9.45 69.558ZM8.154 56.652C7.974 58.722 7.686 62.376 6.174 64.968C5.706 65.76 5.166 66.426 4.41 66.426C3.132 66.426 2.682 64.356 2.682 63.132C2.682 61.044 3.51 59.028 5.184 57.804C6.102 57.12 7.092 56.85 8.154 56.652ZM24.944 61.26C25.394 61.026 25.934 60.756 26.816 60.09V62.178H33.8V60.162C34.43 60.648 34.988 60.972 35.798 61.332L36.374 60.162C34.412 59.28 33.728 58.686 32.846 57.426H35.978V56.31H29.948C30.02 56.166 30.146 55.932 30.434 55.248C31.262 55.194 33.602 55.014 34.952 54.744L34.34 53.664C32.846 53.97 30.434 54.348 25.178 54.33L25.466 55.41C26.15 55.41 26.798 55.41 28.994 55.32C28.904 55.5 28.796 55.734 28.49 56.31H24.746V57.426H27.77C26.546 59.064 24.962 59.802 24.278 60.126L24.944 61.26ZM31.424 57.426C31.658 57.822 31.928 58.272 32.45 58.902H28.13C28.598 58.398 28.904 58.038 29.3 57.426H31.424ZM32.648 61.188H27.95V59.892H32.648V61.188ZM35.492 63.06H25.106V70.512H26.456V64.158H34.106V68.532C34.106 69.18 34.052 69.288 33.44 69.27L32.27 69.252L32.522 70.512H33.98C34.79 70.512 35.492 70.422 35.492 69.27V63.06ZM31.874 67.794H28.724V66.156H31.874V67.794ZM24.962 62.628C23.81 61.26 23.288 60.09 23.036 59.442V58.686H24.656V57.318H23.036V53.808H21.65V57.318H19.364V58.686H21.596C21.128 61.062 19.994 63.168 19.13 64.374L19.778 66.102C20.228 65.436 20.948 64.32 21.65 62.052V70.512H23.036V61.656C23.324 62.376 23.396 62.556 24.17 63.744L24.962 62.628ZM33.08 65.148H27.5V68.838H33.08V65.148ZM42.814 55.158V61.872C42.814 66.426 41.338 68.406 40.654 69.324L41.824 70.458C42.22 69.882 43.264 68.388 43.768 66.12C44.038 64.878 44.254 63.132 44.254 61.89V59.442H46.324V62.268H52.12V59.442H54.532V58.2H52.12V56.94H50.788V58.2H47.656V56.94H46.324V58.2H44.254V56.49H54.676V55.158H49.492V53.808H48.034V55.158H42.814ZM38.548 55.14C39.232 55.464 40.6 56.238 41.284 56.958L42.202 55.626C40.942 54.708 40.15 54.294 39.376 53.97L38.548 55.14ZM50.788 59.442V61.098H47.656V59.442H50.788ZM54.892 69.108C54.172 68.982 52.678 68.694 50.752 67.902C52.588 66.57 53.272 65.184 53.578 64.554V63.312H44.776V64.59H52.012C51.652 65.148 50.95 66.21 49.294 67.182C47.71 66.228 47.026 65.364 46.666 64.932L45.496 65.562C45.838 66.012 46.504 66.84 47.908 67.866C45.802 68.748 44.236 68.982 43.372 69.108L44.02 70.548C46.234 70.062 47.836 69.522 49.312 68.748C51.544 69.972 53.362 70.332 54.298 70.512L54.892 69.108ZM37.738 59.91C38.71 60.378 39.7 61.008 40.528 61.728L41.428 60.486C40.816 59.982 39.628 59.172 38.566 58.704L37.738 59.91ZM40.276 63.384C39.898 64.77 39.034 67.11 37.684 69.108L38.818 70.368C40.582 67.578 41.284 65.004 41.5 64.122L40.276 63.384ZM59.91 54.636C59.892 55.86 59.784 61.836 59.784 63.186C59.784 66.318 60.108 69.612 65.04 69.612C70.512 69.612 71.682 65.904 72.258 62.646L70.746 62.088C70.242 64.824 69.648 68.064 64.986 68.064C61.602 68.064 61.494 65.652 61.494 63.348C61.494 61.638 61.566 59.496 61.728 54.636H59.91ZM77.618 54.798C77.042 57.498 76.862 60.378 76.862 63.348C76.862 66.786 77.168 68.586 77.33 69.63L79.076 69.486C78.932 68.838 78.518 67.11 78.518 63.096C78.518 58.56 79.058 56.202 79.328 54.942L77.618 54.798ZM82.064 56.256V57.84H90.524V56.256H82.064ZM82.46 62.214C81.83 63.276 81.506 64.302 81.506 65.238C81.506 68.334 84.836 68.586 87.5 68.586C89.03 68.586 90.29 68.478 90.902 68.424V66.732C89.246 66.912 87.77 66.948 86.78 66.948C84.854 66.948 83.018 66.732 83.018 65.094C83.018 64.932 83.036 63.906 83.918 62.664L82.46 62.214ZM103.318 59.046H109.402V57.426L103.318 57.48L103.3 54.492H101.608L101.68 62.97C101.23 62.916 100.888 62.862 100.294 62.862C97.72 62.862 95.182 63.924 95.182 66.39C95.182 68.154 96.514 69.63 99.484 69.63C103.228 69.63 103.354 67.326 103.336 66.264L103.318 65.022C105.514 65.868 107.602 67.488 108.7 68.712L109.87 67.164C108.988 66.246 106.882 64.518 103.336 63.312L103.318 59.046ZM101.698 66.156C101.698 66.894 101.518 68.136 99.466 68.136C99.07 68.136 96.784 68.136 96.784 66.408C96.784 64.95 98.494 64.338 100.042 64.338C100.798 64.338 101.338 64.446 101.716 64.518L101.698 66.156ZM119.028 69.054C120.468 69.036 122.016 68.91 123.42 68.46C126.858 67.38 127.254 64.554 127.254 63.474C127.254 60.954 125.49 59.046 122.412 59.046C121.458 59.046 120.198 59.226 119.082 59.406C118.47 59.514 115.482 60.054 114.798 60.162L115.068 61.746C117.84 61.044 120.9 60.45 122.34 60.45C124.104 60.45 125.67 61.35 125.67 63.528C125.67 67.704 120.126 67.668 118.632 67.65L119.028 69.054ZM147.122 55.464C142.694 55.5 141.038 55.536 137.006 55.752C136.088 55.806 133.208 55.932 132.128 55.968L132.272 57.732C134.234 57.498 140.462 57.12 140.984 57.102C138.86 58.344 135.71 60.702 135.71 64.122C135.71 69.162 141.686 69.414 145.232 69.558L145.556 67.812C144.008 67.866 142.28 67.758 141.02 67.488C139.112 67.092 137.384 66.354 137.384 64.014C137.384 60.918 140.912 58.128 143.504 57.264C144.044 57.084 144.422 57.048 145.322 57.048C146.024 57.048 146.546 57.066 147.158 57.12L147.122 55.464ZM155.254 68.838C154.498 67.812 153.22 66.3 152.05 65.22L150.682 66.228C151.276 66.858 152.392 68.028 153.67 69.954L155.254 68.838ZM177.426 69.882C181.26 68.514 182.178 65.508 182.61 63.744C183.51 64.14 183.816 64.302 184.626 64.788L185.166 63.168C184.05 62.556 183.006 62.16 182.952 62.142C183.222 60.702 183.366 59.136 183.492 57.84L181.782 57.714C181.746 58.542 181.656 59.82 181.386 61.584C179.748 61.044 178.56 60.756 177.048 60.63C177.642 57.084 177.696 56.688 177.93 54.888H170.478V56.454L176.112 56.4C176.004 57.678 175.77 59.28 175.518 60.576C169.632 60.81 169.308 64.68 169.308 65.562C169.308 67.488 170.568 68.64 172.296 68.64C175.014 68.64 175.806 66.066 176.778 62.052C178.398 62.196 179.928 62.664 181.098 63.114C180.468 65.724 179.532 67.524 176.436 68.64L177.426 69.882ZM175.248 61.962C174.294 65.868 173.808 67.218 172.188 67.218C170.82 67.218 170.73 65.814 170.73 65.472C170.73 64.248 171.468 63.078 172.638 62.502C173.43 62.106 174.186 61.998 175.248 61.962ZM199.922 59.532H198.302L198.41 63.384C198.014 63.294 197.438 63.168 196.538 63.168C193.352 63.168 192.308 65.166 192.308 66.516C192.308 68.19 193.64 69.684 196.34 69.684C198.122 69.684 199.94 69.036 199.94 66.372V65.634C200.588 66.012 201.686 66.678 202.856 68.082L203.846 66.66C202.964 65.688 201.524 64.572 200.012 63.906L199.922 59.532ZM198.446 66.084C198.446 67.308 198.176 68.28 196.394 68.28C196.052 68.28 193.838 68.28 193.838 66.462C193.838 65.454 194.702 64.536 196.538 64.536C197.492 64.536 198.032 64.734 198.446 64.878V66.084ZM193.1 56.76C193.334 55.446 193.352 55.338 193.496 54.474L191.786 54.402C191.714 55.122 191.66 55.518 191.462 56.76H188.132V58.272H191.174C190.706 60.288 189.914 63.816 187.988 66.912L189.644 67.632C190.292 66.3 191.768 63.294 192.794 58.272H196.88V56.76H193.1ZM203.54 58.164C201.632 57.102 200.426 56.562 198.626 55.932L197.996 57.264C199.616 57.858 200.966 58.506 202.784 59.604L203.54 58.164ZM219.628 63.6C218.548 62.448 217.504 60.702 216.748 58.884C218.332 58.812 219.88 58.74 221.842 58.326L221.554 56.778C219.754 57.156 218.062 57.372 216.226 57.426C215.992 56.706 215.74 55.536 215.578 54.438L213.868 54.564C213.94 54.996 214.21 56.31 214.57 57.48C214.12 57.498 213.148 57.516 212.392 57.498L207.136 57.408V58.974H212.32C212.59 58.974 213.976 58.956 215.074 58.938C216.046 61.404 217.18 63.348 218.242 64.536L219.628 63.6ZM210.556 62.124C208.72 63.024 207.946 64.32 207.946 65.634C207.946 66.534 208.288 67.416 209.008 68.064C210.268 69.198 212.05 69.558 215.2 69.558C217.666 69.558 219.25 69.414 219.898 69.342L219.88 67.74C218.764 67.884 217.396 68.046 215.056 68.046C212.482 68.046 209.566 67.812 209.566 65.616C209.566 65.274 209.656 64.158 211.42 63.294L210.556 62.124ZM230.262 54.384C229.83 55.554 228.786 58.434 228.516 59.19C228.102 60.36 227.796 61.224 225.24 69.036L226.932 69.558C227.418 67.74 227.706 66.66 228.336 64.986C229.47 62.664 230.946 62.286 231.666 62.286C232.944 62.286 233.268 63.348 233.268 64.68V65.688C233.268 67.092 233.286 69.63 236.346 69.63C240.468 69.63 240.9 64.806 241.008 62.43L239.442 62.07C239.442 63.114 239.352 64.464 238.848 65.922C238.254 67.632 237.336 68.046 236.454 68.046C234.996 68.046 234.852 67.056 234.852 65.76V64.554C234.852 63.312 234.708 60.756 231.936 60.756C230.946 60.756 230.244 61.098 229.272 61.89C229.758 60.486 230.838 57.534 232.044 54.87L230.262 54.384ZM252.29 69.558C254.288 69.36 256.088 68.748 257.258 67.776C258.896 66.408 259.67 64.284 259.67 62.142C259.67 59.1 258.104 55.068 252.272 55.068C247.52 55.068 243.956 58.2 243.956 63.096C243.956 66.066 245.432 68.154 247.196 68.154C248.006 68.154 249.158 67.74 250.22 66.066C252.074 63.096 252.434 58.668 252.596 56.58C257.546 56.742 257.978 60.702 257.978 62.124C257.978 67.272 253.604 67.794 251.75 67.992L252.29 69.558ZM250.994 56.652C250.814 58.722 250.526 62.376 249.014 64.968C248.546 65.76 248.006 66.426 247.25 66.426C245.972 66.426 245.522 64.356 245.522 63.132C245.522 61.044 246.35 59.028 248.024 57.804C248.942 57.12 249.932 56.85 250.994 56.652ZM273.202 53.808V54.978H270.862V56.166H273.202V57.57H269.908V58.74H273.202V60.18H270.862V61.332H273.202V62.628H270.61V63.798H273.202V65.148H270.124V66.354H273.202V67.956H274.498V66.354H278.782V65.148H274.498V63.798H278.206V62.628H274.498V61.332H277.972V58.74H278.836V57.57H277.972V54.978H274.498V53.808H273.202ZM276.64 57.57H274.498V56.166H276.64V57.57ZM276.64 60.18H274.498V58.74H276.64V60.18ZM274.066 68.604C270.556 68.604 268.954 67.02 268.846 66.894C269.044 66.372 269.872 63.978 269.944 60.072H267.64C268.432 58.686 269.296 57.192 269.908 55.842V54.492H266.308V55.788H268.45C268.018 56.832 266.848 59.046 266.128 60.054V61.368H268.63C268.594 62.7 268.468 64.104 267.964 65.616C267.37 64.374 267.208 63.222 267.1 62.484L265.876 62.664C265.984 63.33 266.29 65.436 267.334 67.038C266.632 68.19 266.02 68.658 265.516 69.054L266.326 70.386C266.848 69.9 267.496 69.306 268.216 68.136C268.72 68.622 270.502 70.008 273.958 70.008H278.764L278.998 68.604H274.066ZM265.102 58.128C265.732 56.4 265.984 55.05 266.164 54.006L264.724 53.772C264.364 56.328 263.41 59.442 261.88 61.296L262.582 62.772C262.96 62.376 263.248 62.07 263.716 61.224V70.476H265.102V58.128ZM295.734 63.942C294.816 65.076 293.376 66.192 293.16 66.354C291.954 65.454 291.306 64.608 290.856 63.978V63.816H296.13V61.332H297.552V60.144H296.13V57.75H290.856V56.904H289.452V57.75H284.394V58.92H289.452V60.144H283.602V56.454H297.444V55.122H290.136V53.808H288.642V55.122H282.144V62.61C282.144 64.41 282 65.004 281.802 66.048C281.478 67.74 280.938 68.73 280.632 69.252L281.856 70.53C283.44 67.542 283.602 64.068 283.602 62.736V61.332H289.452V62.664H284.394V63.816H289.452V68.64C289.452 68.874 289.416 69.054 289.002 69.054L287.076 69.036L287.364 70.512H289.542C290.46 70.512 290.856 69.972 290.856 69.18V65.832C292.584 67.974 294.942 69.306 296.868 70.026L297.714 68.64C297.066 68.406 295.842 67.974 294.33 67.11C295.536 66.228 296.13 65.688 296.94 64.824L295.734 63.942ZM294.708 58.92V60.144H290.856V58.92H294.708ZM294.708 61.332V62.664H290.856V61.332H294.708ZM284.412 65.004C285.582 65.544 286.14 65.904 286.932 66.642L287.886 65.544C286.968 64.824 286.374 64.5 285.222 63.96L284.412 65.004ZM288.606 66.282C287.994 66.57 285.294 67.812 283.224 68.46L283.782 69.756C287.616 68.154 288.048 67.974 288.84 67.542L288.606 66.282ZM307.88 60.306C306.872 60.306 306.026 61.116 306.026 62.16C306.026 63.168 306.836 64.014 307.88 64.014C308.924 64.014 309.734 63.15 309.734 62.16C309.734 61.152 308.906 60.306 307.88 60.306ZM334.012 69.108C332.968 68.496 331.204 67.488 328.918 66.534C329.62 65.814 330.808 64.464 331.672 61.71H334.858V60.288H325.102C325.75 58.974 325.984 58.38 326.182 57.894L324.526 57.588C324.31 58.218 324.004 59.064 323.374 60.288H318.262V61.71H322.6C321.61 63.42 320.728 64.464 320.188 65.094C322.996 65.868 324.598 66.408 326.056 66.984C323.806 68.226 321.106 68.676 318.694 68.892L319.216 70.476C323.896 69.99 326.668 68.352 327.658 67.632C330.61 68.91 332.212 69.972 333.022 70.512L334.012 69.108ZM330.088 61.71C329.89 62.304 329.206 64.374 327.478 65.958C325.678 65.274 323.878 64.752 322.582 64.374C322.942 63.906 323.464 63.222 324.328 61.71H330.088ZM318.694 55.428V59.352H320.224V56.814H332.914V59.352H334.444V55.428H327.298V53.808H325.75V55.428H318.694ZM14.31 84.766C15.426 85.468 16.236 85.828 16.866 86.116L17.622 84.64C14.31 83.434 11.646 81.274 9.828 78.826H8.19C6.192 81.616 3.24 83.56 0.378 84.658L1.134 86.134C1.782 85.828 2.538 85.486 3.762 84.748V86.116H8.244V88.852H2.52V90.202H8.244V93.604H0.756V95.044H17.244V93.604H9.774V90.202H15.534V88.852H9.774V86.116H14.31V84.766ZM3.78 84.73C5.778 83.524 7.542 81.94 9 80.104C10.926 82.498 13.14 84.01 14.256 84.73H3.78ZM26.438 81.202C26.69 80.302 26.78 79.888 26.888 79.258L25.16 79.186C25.034 80.212 24.908 80.734 24.782 81.202H20.642V82.642H24.35C23.198 86.008 21.758 87.916 20.174 89.41L21.29 90.616C21.866 90.022 23.054 88.438 23.882 87.304C25.142 86.026 26.456 85.468 27.446 85.468C28.274 85.468 28.778 85.828 28.976 86.89C27.194 87.682 23.972 89.302 23.972 91.75C23.972 94.648 28.04 94.648 30.074 94.648C31.784 94.648 33.35 94.54 34.376 94.468L34.322 92.92C32.702 93.1 31.01 93.172 29.57 93.172C27.59 93.172 25.592 93.172 25.592 91.588C25.592 90.112 27.77 88.96 29.156 88.312C29.192 88.78 29.192 89.086 29.192 89.392C29.192 90.04 29.138 90.706 29.102 91.12H30.668C30.722 90.544 30.722 90.004 30.722 89.752C30.722 89.104 30.704 88.33 30.65 87.7C32.63 86.944 33.908 86.548 35.366 86.134L34.934 84.568C33.314 85.126 30.848 86.116 30.434 86.278C30.074 84.568 28.922 84.172 27.698 84.172C26.798 84.172 26.078 84.478 24.818 85.234C25.34 84.334 25.592 83.74 26.006 82.642H33.944V81.202H26.438ZM51.184 82.93V79.51H49.564V82.93H43.282V79.582H41.644V82.93H38.602V84.478H41.644V89.32H43.282V84.478H49.564V86.692C49.564 90.652 47.206 92.722 42.112 93.208L42.706 94.774C45.406 94.45 51.184 93.388 51.184 86.764V84.478H54.298V82.93H51.184ZM65.832 82.606V79.6H64.176V82.606H57.948V84.136H64.176V94.828H65.832V84.136H72.078V83.488C73.158 83.182 73.896 82.21 73.896 81.094C73.896 79.708 72.78 78.592 71.394 78.592C70.026 78.592 68.892 79.708 68.892 81.076C68.892 81.652 69.072 82.174 69.414 82.606H65.832ZM71.394 79.708C72.15 79.708 72.78 80.32 72.78 81.094C72.78 81.85 72.168 82.48 71.394 82.48C70.638 82.48 70.008 81.85 70.008 81.094C70.008 80.32 70.638 79.708 71.394 79.708ZM58.848 93.748C61.008 91.336 61.566 88.402 61.818 86.026L60.288 85.864C60.09 88.078 59.442 90.652 57.534 92.56L58.848 93.748ZM68.262 86.026C68.874 89.716 69.576 91.696 71.196 93.676L72.546 92.632C71.07 90.85 70.314 88.978 69.774 85.846L68.262 86.026ZM75.98 86.296V88.006H91.46V86.296H75.98ZM109.492 87.898C106.9 86.494 104.11 85.108 100.708 84.028V79.42H98.962V94.81H100.708V85.72C104.47 87.016 107.422 88.816 108.646 89.572L109.492 87.898ZM115.95 79.636C115.932 80.86 115.824 86.836 115.824 88.186C115.824 91.318 116.148 94.612 121.08 94.612C126.552 94.612 127.722 90.904 128.298 87.646L126.786 87.088C126.282 89.824 125.688 93.064 121.026 93.064C117.642 93.064 117.534 90.652 117.534 88.348C117.534 86.638 117.606 84.496 117.768 79.636H115.95ZM136.574 93.838C135.818 92.812 134.54 91.3 133.37 90.22L132.002 91.228C132.596 91.858 133.712 93.028 134.99 94.954L136.574 93.838ZM159.808 86.8C159.934 86.026 159.988 85.432 159.988 84.388H164.938V83.074H156.73C156.982 82.588 157.126 82.282 157.414 81.562L155.974 81.256C155.416 83.002 154.354 84.316 153.076 85.342L154.21 86.314C154.912 85.684 155.326 85.234 155.938 84.388H158.584C158.584 85.684 158.494 86.242 158.404 86.8H153.166V88.132H157.972C156.694 90.778 153.832 91.48 152.932 91.696L153.796 93.01C155.848 92.326 158.152 91.156 159.34 88.42C159.79 89.446 161.23 91.732 165.298 92.992L166.09 91.606C163.174 90.958 161.266 89.284 160.654 88.132H165.694V86.8H159.808ZM150.7 79.402V95.134H166.684V93.766H152.23V80.788H166.306V79.402H150.7ZM183.564 87.556C184.122 87.898 184.464 88.06 184.95 88.294L185.634 87.088C185.13 86.908 184.644 86.728 183.834 86.278C183.87 86.224 184.5 85.612 185.058 84.892L184.05 84.28C183.852 84.55 183.42 85.09 182.898 85.648C182.034 84.982 181.584 84.388 181.224 83.938H185.418V82.804H178.866C178.992 82.552 179.064 82.372 179.244 81.922L177.822 81.76C177.678 82.174 177.588 82.408 177.408 82.804H173.088V83.938H176.724C176.22 84.604 175.77 85.072 175.212 85.522C175.05 85.342 174.546 84.784 173.97 84.352L173.142 85.108C173.646 85.504 173.7 85.558 174.294 86.188C173.682 86.602 173.214 86.836 172.584 87.142L173.376 88.222C173.772 87.988 173.898 87.916 174.276 87.682V91.426H178.146V93.748C178.146 94.108 178.092 94.18 177.732 94.18H176.022L176.328 95.476H178.272C178.83 95.476 179.604 95.44 179.604 94.324V91.426H183.564V87.556ZM182.25 88.258H175.59V87.178H182.25V88.258ZM176.328 86.134C177.498 85.072 178.002 84.28 178.218 83.938H179.748C180.144 84.514 180.594 85.198 181.638 86.134H176.328ZM182.25 90.382H175.59V89.248H182.25V90.382ZM171.09 86.368C171.09 86.872 171.072 87.214 171.072 87.502C170.172 87.952 169.758 88.15 168.516 88.636L168.822 90.112C169.362 89.842 170.046 89.5 170.946 88.906C170.55 92.254 169.56 93.55 168.75 94.558L169.848 95.53C170.568 94.666 172.512 92.344 172.512 86.422V81.526H185.472V80.266H178.776V78.808H177.3V80.266H171.09V86.368ZM170.712 84.82C170.532 83.902 170.154 82.642 169.632 81.616L168.516 82.156C168.93 83.182 169.254 84.334 169.452 85.414L170.712 84.82ZM172.62 95.206C173.826 94.756 174.942 94.162 176.472 92.668L175.428 91.804C174.15 93.028 173.268 93.514 171.828 94L172.62 95.206ZM181.062 92.686C182.034 93.784 183.564 94.738 184.95 95.224L185.742 94C184.068 93.406 183.312 92.974 182.016 91.732L181.062 92.686ZM189.698 79.798C189.122 82.498 188.942 85.378 188.942 88.348C188.942 91.786 189.248 93.586 189.41 94.63L191.156 94.486C191.012 93.838 190.598 92.11 190.598 88.096C190.598 83.56 191.138 81.202 191.408 79.942L189.698 79.798ZM194.144 81.256V82.84H202.604V81.256H194.144ZM194.54 87.214C193.91 88.276 193.586 89.302 193.586 90.238C193.586 93.334 196.916 93.586 199.58 93.586C201.11 93.586 202.37 93.478 202.982 93.424V91.732C201.326 91.912 199.85 91.948 198.86 91.948C196.934 91.948 195.098 91.732 195.098 90.094C195.098 89.932 195.116 88.906 195.998 87.664L194.54 87.214ZM212.122 93.586C214.3 93.568 216.316 93.316 217.846 92.686C221.68 91.138 222.13 88.096 222.13 86.71C222.13 84.01 220.42 81.31 216.208 81.31C214.714 81.31 212.986 81.598 211.276 81.904C210.538 82.03 207.046 82.642 206.632 82.696L207.028 84.514C210.07 83.758 213.94 82.894 216.1 82.894C219.61 82.894 220.402 85.036 220.402 86.728C220.402 88.51 219.466 89.806 218.494 90.508C216.73 91.768 214.66 92.02 211.69 92.038L212.122 93.586ZM226.194 80.338C226.086 81.562 225.906 83.524 225.906 85.486C225.906 90.166 226.716 94.198 229.632 94.198C230.55 94.198 231.216 93.766 231.648 93.334C232.656 92.326 233.484 90.814 234.078 89.14L232.746 88.384C231.504 91.624 230.568 92.362 229.758 92.362C227.742 92.362 227.526 88.42 227.526 85.63C227.526 83.2 227.76 81.562 227.904 80.482L226.194 80.338ZM240.702 92.416C240.954 85.216 239.1 82.678 236.958 80.878L235.716 81.832C237.588 83.362 238.992 85.954 238.992 90.652C238.992 91.48 238.956 92.02 238.92 92.488L240.702 92.416ZM259.202 80.464C254.774 80.5 253.118 80.536 249.086 80.752C248.168 80.806 245.288 80.932 244.208 80.968L244.352 82.732C246.314 82.498 252.542 82.12 253.064 82.102C250.94 83.344 247.79 85.702 247.79 89.122C247.79 94.162 253.766 94.414 257.312 94.558L257.636 92.812C256.088 92.866 254.36 92.758 253.1 92.488C251.192 92.092 249.464 91.354 249.464 89.014C249.464 85.918 252.992 83.128 255.584 82.264C256.124 82.084 256.502 82.048 257.402 82.048C258.104 82.048 258.626 82.066 259.238 82.12L259.202 80.464ZM270.97 94.558C272.968 94.36 274.768 93.748 275.938 92.776C277.576 91.408 278.35 89.284 278.35 87.142C278.35 84.1 276.784 80.068 270.952 80.068C266.2 80.068 262.636 83.2 262.636 88.096C262.636 91.066 264.112 93.154 265.876 93.154C266.686 93.154 267.838 92.74 268.9 91.066C270.754 88.096 271.114 83.668 271.276 81.58C276.226 81.742 276.658 85.702 276.658 87.124C276.658 92.272 272.284 92.794 270.43 92.992L270.97 94.558ZM269.674 81.652C269.494 83.722 269.206 87.376 267.694 89.968C267.226 90.76 266.686 91.426 265.93 91.426C264.652 91.426 264.202 89.356 264.202 88.132C264.202 86.044 265.03 84.028 266.704 82.804C267.622 82.12 268.612 81.85 269.674 81.652ZM289.524 83.11C289.848 82.588 290.208 81.994 290.73 80.914H297.498V79.438H280.866V80.914H289.128C287.76 83.83 285.096 86.926 280.668 88.96L281.568 90.382C282.846 89.734 285.564 88.276 288.354 84.748V95.512H289.92V83.11H289.524ZM297.75 89.032C295.014 87.358 293.178 85.468 291.648 83.56L290.55 84.424C292.746 87.196 293.934 88.402 296.67 90.382L297.75 89.032ZM315.332 94.108C314.288 93.496 312.524 92.488 310.238 91.534C310.94 90.814 312.128 89.464 312.992 86.71H316.178V85.288H306.422C307.07 83.974 307.304 83.38 307.502 82.894L305.846 82.588C305.63 83.218 305.324 84.064 304.694 85.288H299.582V86.71H303.92C302.93 88.42 302.048 89.464 301.508 90.094C304.316 90.868 305.918 91.408 307.376 91.984C305.126 93.226 302.426 93.676 300.014 93.892L300.536 95.476C305.216 94.99 307.988 93.352 308.978 92.632C311.93 93.91 313.532 94.972 314.342 95.512L315.332 94.108ZM311.408 86.71C311.21 87.304 310.526 89.374 308.798 90.958C306.998 90.274 305.198 89.752 303.902 89.374C304.262 88.906 304.784 88.222 305.648 86.71H311.408ZM300.014 80.428V84.352H301.544V81.814H314.234V84.352H315.764V80.428H308.618V78.808H307.07V80.428H300.014ZM326.56 85.306C325.552 85.306 324.706 86.116 324.706 87.16C324.706 88.168 325.516 89.014 326.56 89.014C327.604 89.014 328.414 88.15 328.414 87.16C328.414 86.152 327.586 85.306 326.56 85.306ZM1.548 112.736C1.944 111.26 2.106 108.92 2.124 107.678L0.972 107.57C0.972 108.47 0.864 110.54 0.36 112.16L1.548 112.736ZM2.862 103.808V120.512H4.32V103.808H2.862ZM6.516 109.82C6.426 109.514 6.03 108.128 5.58 107.102L4.5 107.534C4.878 108.47 5.166 109.532 5.31 110.288L6.516 109.82ZM16.794 110.144H15.372V118.838H7.74V110.144H6.318V120.134H16.794V110.144ZM12.996 109.622C12.582 110.99 12.204 111.728 11.736 112.61C10.836 111.692 10.296 111.188 9.486 110.576L8.55 111.494C9.63 112.376 10.224 112.97 11.016 113.798C10.206 115.004 9.504 115.886 8.226 116.912L9.216 117.938C10.8 116.57 11.43 115.706 11.988 114.896C12.546 115.526 12.978 116.066 13.77 117.254L14.832 116.3C14.328 115.526 13.878 114.896 12.762 113.69C13.284 112.772 13.752 111.89 14.274 110.18L12.996 109.622ZM12.492 107.516C12.06 105.842 11.268 104.276 11.052 103.844L9.72 104.222C9.828 104.438 10.746 106.346 11.106 107.948L12.492 107.516ZM15.138 109.1C16.02 107.876 16.902 106.058 17.316 104.726L15.966 104.132C15.75 104.762 15.102 106.724 13.896 108.47L15.138 109.1ZM9.108 108.218C8.658 107.03 7.884 105.626 7.128 104.6L5.886 105.122C6.678 106.256 7.362 107.66 7.776 108.722L9.108 108.218ZM27.986 119.882C31.82 118.514 32.738 115.508 33.17 113.744C34.07 114.14 34.376 114.302 35.186 114.788L35.726 113.168C34.61 112.556 33.566 112.16 33.512 112.142C33.782 110.702 33.926 109.136 34.052 107.84L32.342 107.714C32.306 108.542 32.216 109.82 31.946 111.584C30.308 111.044 29.12 110.756 27.608 110.63C28.202 107.084 28.256 106.688 28.49 104.888H21.038V106.454L26.672 106.4C26.564 107.678 26.33 109.28 26.078 110.576C20.192 110.81 19.868 114.68 19.868 115.562C19.868 117.488 21.128 118.64 22.856 118.64C25.574 118.64 26.366 116.066 27.338 112.052C28.958 112.196 30.488 112.664 31.658 113.114C31.028 115.724 30.092 117.524 26.996 118.64L27.986 119.882ZM25.808 111.962C24.854 115.868 24.368 117.218 22.748 117.218C21.38 117.218 21.29 115.814 21.29 115.472C21.29 114.248 22.028 113.078 23.198 112.502C23.99 112.106 24.746 111.998 25.808 111.962ZM46.36 110.306C45.352 110.306 44.506 111.116 44.506 112.16C44.506 113.168 45.316 114.014 46.36 114.014C47.404 114.014 48.214 113.15 48.214 112.16C48.214 111.152 47.386 110.306 46.36 110.306ZM56.67 105.356V106.76H60.684V108.596H62.142V106.76H67.902V108.596H69.342V106.76H73.41V105.356H69.342V103.79H67.902V105.356H62.142V103.79H60.684V105.356H56.67ZM73.41 109.748H65.742V107.768H64.248V109.748H56.67V111.134H64.248V113.456H58.488V120.17H71.556V113.456H65.742V111.134H73.41V109.748ZM70.062 118.856H59.982V114.788H70.062V118.856ZM87.23 111.134C87.104 111.044 86.942 110.918 86.834 110.846C87.248 110.648 89.102 109.784 90.722 108.47V107.516H80.354V108.596H88.292C87.32 109.316 86.816 109.604 85.736 110.144C85.466 109.964 84.494 109.388 83.504 108.938L82.64 109.91C83.828 110.396 84.494 110.738 85.034 111.134H80.678V120.53H82.082V117.542H85.25V120.476H86.636V117.542H90.002V118.676C90.002 119 89.84 119.054 89.588 119.054H88.094L88.364 120.53H90.146C91.388 120.53 91.388 119.63 91.388 119.09V111.134H87.23ZM85.25 113.744H82.082V112.286H85.25V113.744ZM85.25 116.408H82.082V114.86H85.25V116.408ZM90.002 113.744H86.636V112.286H90.002V113.744ZM90.002 116.408H86.636V114.86H90.002V116.408ZM78.158 111.566C78.158 111.98 78.14 112.232 78.122 112.484C77.96 112.592 76.646 113.312 75.224 113.852L75.584 115.328C76.214 115.004 76.826 114.698 78.014 113.978C77.69 116.678 77.168 118.082 75.89 119.576L77.078 120.584C77.888 119.612 79.562 117.614 79.562 111.278V106.508H92V105.23H85.412V103.772H83.9V105.23H78.158V111.566ZM77.744 109.874C77.51 108.938 77.024 107.606 76.502 106.634L75.314 107.282C75.728 108.092 76.25 109.46 76.502 110.486L77.744 109.874ZM101.158 106.202C101.41 105.302 101.5 104.888 101.608 104.258L99.88 104.186C99.754 105.212 99.628 105.734 99.502 106.202H95.362V107.642H99.07C97.918 111.008 96.478 112.916 94.894 114.41L96.01 115.616C96.586 115.022 97.774 113.438 98.602 112.304C99.862 111.026 101.176 110.468 102.166 110.468C102.994 110.468 103.498 110.828 103.696 111.89C101.914 112.682 98.692 114.302 98.692 116.75C98.692 119.648 102.76 119.648 104.794 119.648C106.504 119.648 108.07 119.54 109.096 119.468L109.042 117.92C107.422 118.1 105.73 118.172 104.29 118.172C102.31 118.172 100.312 118.172 100.312 116.588C100.312 115.112 102.49 113.96 103.876 113.312C103.912 113.78 103.912 114.086 103.912 114.392C103.912 115.04 103.858 115.706 103.822 116.12H105.388C105.442 115.544 105.442 115.004 105.442 114.752C105.442 114.104 105.424 113.33 105.37 112.7C107.35 111.944 108.628 111.548 110.086 111.134L109.654 109.568C108.034 110.126 105.568 111.116 105.154 111.278C104.794 109.568 103.642 109.172 102.418 109.172C101.518 109.172 100.798 109.478 99.538 110.234C100.06 109.334 100.312 108.74 100.726 107.642H108.664V106.202H101.158ZM117.606 105.698C118.668 105.518 119.244 105.374 120.216 105.122L119.676 103.808C117.336 104.438 115.338 104.708 112.71 104.78L113.016 106.13C114.474 106.076 115.212 106.004 116.148 105.896V108.542H112.674V109.874H115.968C115.41 111.152 114.294 113.492 112.44 115.31L113.088 117.02C114.762 115.202 115.662 113.51 116.148 112.43V120.512H117.606V112.088C118.272 113.312 118.956 114.266 119.802 115.094L120.54 113.672C119.064 112.412 118.074 110.828 117.606 109.928V109.874H120.504V108.542H117.606V105.698ZM128.82 104.96H121.152V120.026H128.82V104.96ZM127.344 118.622H122.592V106.328H127.344V118.622ZM144.26 105.536C141.506 104.636 138.428 104.474 136.88 104.402L136.592 105.95C139.022 106.04 141.668 106.382 143.81 107.246L144.26 105.536ZM134.396 106.976C134.162 107.912 134 108.902 133.928 110.576C133.91 111.116 133.856 113.816 133.856 114.428L135.458 114.482C135.476 114.392 135.494 114.338 135.548 114.158C136.736 112.592 139.148 111.566 141.56 111.566C143.936 111.566 144.89 112.862 144.89 114.266C144.89 115.004 144.692 115.85 144.188 116.39C143.108 117.578 140.948 118.064 138.464 118.064C137.258 118.064 136.16 117.956 134.954 117.74L135.134 119.324C135.872 119.432 136.934 119.576 138.59 119.576C142.442 119.576 146.6 118.604 146.6 114.284C146.6 112.79 145.826 110.108 141.65 110.108C139.31 110.108 137.294 110.864 135.458 112.322C135.458 109.676 135.602 108.632 136.016 107.264L134.396 106.976ZM156.802 119.9C160.618 119.162 162.832 117.848 162.832 112.052C162.832 111.746 162.796 110.522 162.778 110.036H165.982V108.524H162.688C162.652 107.966 162.508 105.356 162.454 104.654L160.906 104.69C160.96 105.644 161.05 107.714 161.086 108.524H155.02V110.036H161.14C161.158 110.594 161.176 111.44 161.176 111.818C161.176 116.732 159.664 117.776 156.208 118.442L156.802 119.9ZM162.742 103.916C163.318 105.23 163.624 106.328 163.84 107.642L165.136 107.174C164.794 105.734 164.578 104.87 163.948 103.502L162.742 103.916ZM165.19 103.448C165.766 104.762 166.018 105.644 166.288 107.156L167.584 106.688C167.17 104.978 167.026 104.384 166.396 103.016L165.19 103.448ZM151.906 104.69C151.546 107.372 151.366 110.072 151.366 112.772C151.366 115.004 151.456 117.254 151.924 119.45L153.598 119.234C153.112 116.966 152.986 114.698 152.986 112.61C152.986 108.866 153.4 106.202 153.634 104.798L151.906 104.69ZM178.38 106.454V104.564H176.796V106.454H169.956V107.84H176.796V110.072H170.226V111.44H176.796V113.564C176.418 113.492 175.806 113.384 174.996 113.384C172.314 113.384 170.46 114.752 170.46 116.642C170.46 117.794 171.216 119.666 174.726 119.666C176.238 119.666 178.38 119.18 178.38 116.606V115.58C179.37 116.03 180.954 116.858 182.7 118.784L183.762 117.236C181.872 115.652 180.288 114.662 178.38 113.96V111.44H183.78V110.072H178.38V107.84H184.122V106.454H178.38ZM176.796 116.282C176.796 117.704 176.094 118.262 174.528 118.262C172.152 118.262 171.972 116.93 171.972 116.588C171.972 115.4 173.322 114.716 174.996 114.716C175.914 114.716 176.436 114.86 176.796 114.968V116.282ZM198.626 106.4V104.384H196.97L197.006 106.4H188.15V107.894H197.024L197.042 109.838C196.664 109.514 196.232 109.118 195.026 109.118C192.794 109.118 191.3 110.666 191.3 112.772C191.3 114.518 192.416 116.3 194.648 116.3C196.718 116.3 197.312 114.95 197.492 114.572C197.258 116.714 195.926 118.37 191.12 118.316L191.624 119.828C194.756 119.702 198.968 118.838 198.968 114.086C198.968 113.618 198.932 113.15 198.86 112.7C198.806 112.268 198.716 111.854 198.626 111.512V107.894H203.342V106.4H198.626ZM197.078 112.898C197.078 114.086 196.142 114.986 194.864 114.986C193.19 114.986 192.812 113.456 192.812 112.7C192.812 111.044 194.072 110.468 195.062 110.468C196.646 110.468 196.934 111.53 197.078 112.106V112.898ZM209.458 114.554C207.982 114.554 206.776 115.742 206.776 117.236C206.776 118.712 207.964 119.918 209.458 119.918C210.934 119.918 212.14 118.712 212.14 117.236C212.14 115.724 210.916 114.554 209.458 114.554ZM209.458 115.454C210.412 115.454 211.222 116.228 211.222 117.236C211.222 118.208 210.43 119 209.458 119C208.468 119 207.676 118.208 207.676 117.236C207.676 116.246 208.486 115.454 209.458 115.454Z" fill="black"/>
</svg>
