<svg width="352" height="120" viewBox="0 0 352 120" fill="none" xmlns="http://www.w3.org/2000/svg">
<path d="M3.072 5.92V12.096C1.616 12.752 1.392 12.864 0.336 13.216L0.704 14.528C1.104 14.352 1.968 13.952 2.96 13.36C2.528 16.448 1.232 17.84 0.688 18.416L1.776 19.312C2.512 18.432 4.352 16.288 4.352 11.408V7.12H15.456V5.92H9.504V4.512H8.192V5.92H3.072ZM2.592 9.808C2.352 8.8 2.08 8 1.504 6.976L0.432 7.52C0.672 7.952 1.12 8.752 1.44 10.384L2.592 9.808ZM15.104 8.8H4.976V9.968H9.472V17.76H7.216V11.488H5.888V17.76H3.808V18.96H15.376V17.76H10.768V14.096H14.592V12.928H10.768V9.968H15.104V8.8ZM32.168 18C31.176 17.376 28.408 15.616 27.4 10.096H31.976V8.816H27.336V4.512H25.96V8.816H21.976V10.096H25.912C25.848 10.944 25.672 11.792 25.448 12.624C24.744 15.264 23.56 16.864 21.592 18.128L22.344 19.328C25.176 17.328 26.232 14.896 26.824 12.752C27.608 15.056 28.728 17.568 31.4 19.264L32.168 18ZM19.96 4.512V12.672C18.76 13.552 17.368 14.32 16.904 14.576L17.304 16C17.96 15.68 19.368 14.8 19.96 14.288V19.328H21.288V4.512H19.96ZM19.48 9.728C19.192 8.64 18.696 7.488 18.168 6.544L17.016 7.056C17.64 8.24 17.912 8.912 18.28 10.24L19.48 9.728ZM31.208 7.424C30.952 7.008 30.312 5.92 29.208 4.768L28.2 5.44C28.984 6.272 29.752 7.472 30.104 8.096L31.208 7.424ZM39.376 19.408C40.416 19.088 42.864 18.24 43.952 15.44C44.368 16.464 45.568 18.448 48.224 19.36L48.864 18.16C47.728 17.792 45.92 17.104 44.928 14.848H48.064V10.416H44.464V8.944H46.704V8.352C47.152 8.688 47.552 8.944 48.208 9.328L48.912 8.176C46.192 6.8 45.232 5.52 44.608 4.464H43.04C41.808 6.24 40.688 7.232 38.832 8.192L39.472 9.344C39.888 9.136 40.336 8.896 41.056 8.368V8.944H43.2V10.416H39.6V14.848H42.848C42.144 17.328 39.456 18.048 38.72 18.24L39.376 19.408ZM44.464 11.52H46.832V13.744H44.368C44.432 13.312 44.464 12.896 44.464 11.888V11.52ZM43.2 11.92C43.2 12.848 43.168 13.312 43.104 13.744H40.864V11.52H43.2V11.92ZM41.68 7.84C42.608 6.992 43.44 5.92 43.824 5.44C44.208 5.936 45.04 7.008 46.048 7.84H41.68ZM39.328 12.576C38.096 11.248 37.52 10 37.296 9.424V8.816H38.688V7.6H37.296V4.496H36.032V7.6H33.792V8.816H35.936C35.104 12.208 34.112 13.488 33.52 14.256L34.08 15.84C34.992 14.592 35.632 13.168 36.032 11.664V19.344H37.296V11.344C37.68 12.304 38.048 12.896 38.672 13.776L39.328 12.576ZM59.64 9.696C59.208 10.192 58.584 10.944 56.872 12.496C56.696 12.352 56.392 12.112 55.608 11.6C55.672 11.536 56.808 10.56 57.64 9.456H63.608V11.344H64.936V8.304H58.456V6.944H64.936V5.76H58.456V4.528H57.144V5.76H50.728V6.944H57.144V8.304H50.664V11.344H51.976V9.456H55.944C55.656 9.856 55.4 10.208 54.6 10.96C54.024 10.592 53.848 10.512 53.544 10.352L52.728 11.328C54.424 12.144 55.688 13.072 55.976 13.312C55.832 13.44 55.72 13.536 55.416 13.776C54.696 13.792 51.208 13.824 50.424 13.808L50.52 15.04C51.464 15.04 56.104 14.944 57.144 14.928V19.312H58.472V14.864L63.032 14.624C63.608 15.184 63.864 15.504 64.12 15.84L65.032 14.928C64.584 14.4 63.544 13.152 61.384 11.584L60.456 12.416C60.84 12.688 61.096 12.864 61.944 13.6C58.696 13.712 58.328 13.728 57.224 13.776C59.272 11.984 59.928 11.392 60.776 10.432L59.64 9.696ZM51.16 19.152C52.008 18.736 53.832 17.808 55.304 16.08L54.264 15.36C52.856 16.976 50.792 17.888 50.328 18.096L51.16 19.152ZM60.072 16.016C60.824 16.8 62.024 17.968 64.488 19.072L65.304 17.936C63.448 17.232 62.248 16.48 61 15.248L60.072 16.016ZM75.136 7.808H80.176V6.416H68.608V7.808H73.616V16.032H67.744V17.456H81.04V16.032H75.136V7.808ZM90.488 8.368C90.072 8.112 88.312 6.976 85.48 6.128L84.76 7.408C87.064 8.128 88.744 9.072 89.688 9.712L90.488 8.368ZM85.384 18.256C94.6 17.648 97.16 10.176 97.928 7.904L96.68 6.976C95.576 10.56 93.192 16.224 85.096 16.656L85.384 18.256ZM107.744 7.328C106.48 6.72 104.912 6 103.056 5.584L102.48 6.8C104.128 7.264 105.664 7.84 107.136 8.656L107.744 7.328ZM106.432 11.072C105.2 10.352 103.28 9.616 101.808 9.264L101.248 10.528C103.552 11.2 105.008 11.952 105.84 12.432L106.432 11.072ZM110.32 4.704C111.056 5.968 111.28 6.512 111.712 7.84L112.832 7.28C112.304 5.872 112 5.136 111.36 4.176L110.32 4.704ZM112.992 4.544C113.68 5.76 113.936 6.432 114.336 7.712L115.472 7.168C114.992 5.728 114.56 4.864 114.048 4.048L112.992 4.544ZM102.432 18.352C108.96 17.504 112.064 15.04 114.144 9.104L112.896 8.192C111.136 13.744 108.448 16.16 102.08 16.784L102.432 18.352ZM123.688 8.368C123.272 8.112 121.512 6.976 118.68 6.128L117.96 7.408C120.264 8.128 121.944 9.072 122.888 9.712L123.688 8.368ZM118.584 18.256C127.8 17.648 130.36 10.176 131.128 7.904L129.88 6.976C128.776 10.56 126.392 16.224 118.296 16.656L118.584 18.256ZM145.328 19.296V5.584H148.4V4.304H144.048V19.296H145.328ZM160.088 15.872C161.032 11.888 161.352 7.856 161.464 6.608H152.616V8.032H159.832C159.736 9.184 159.432 12.56 158.552 15.872H150.584V17.296H164.136V15.872H160.088ZM170.08 5.6H168.608V15.728C168.608 17.76 169.6 18.16 171.984 18.16H176.464C177.472 18.16 178.992 18.112 179.968 17.952L179.888 16.512C178.864 16.704 177.584 16.768 176.304 16.768H172.192C170.368 16.768 170.08 16.64 170.08 15.488V11.952C171.76 11.6 174.688 10.864 178.192 9.264L177.536 7.92C175.136 9.152 172.928 9.904 170.08 10.56V5.6ZM177.04 5.12C177.76 6.224 178.128 6.928 178.608 8.192L179.696 7.552C179.184 6.368 178.784 5.552 178.064 4.544L177.04 5.12ZM179.488 4.368C180.288 5.584 180.56 6.16 181.04 7.44L182.128 6.816C181.664 5.68 181.216 4.752 180.512 3.792L179.488 4.368ZM183.72 11.152V12.672H197.48V11.152H183.72ZM202.672 4.544V18.256H199.6V19.536H203.952V4.544H202.672ZM227.32 7.968L227.288 5.264H225.832L225.88 7.968H221.08V9.344H225.912L225.976 13.12C225.528 12.992 225.128 12.88 224.328 12.88C222.296 12.88 220.824 14.016 220.824 15.68C220.824 16.976 221.752 18.432 224.248 18.432C227.304 18.432 227.32 16.624 227.32 15.712V15.12C228.2 15.68 229 16.352 229.64 17.2L230.584 15.904C229.848 15.12 228.664 14.208 227.368 13.568L227.32 9.344H230.312V7.968H227.32ZM225.976 15.424C225.976 16.288 225.912 17.232 224.168 17.232C223.32 17.232 222.104 16.928 222.104 15.696C222.104 14.496 223.272 14.08 224.344 14.08C225.16 14.08 225.608 14.272 225.976 14.432V15.424ZM218.024 5.232C217.592 7.728 217.432 10.048 217.432 12.576C217.432 14.544 217.496 16.528 217.88 18.464L219.32 18.272C218.904 16.448 218.824 14.56 218.824 12.688C218.824 9.104 219.208 6.944 219.512 5.344L218.024 5.232ZM244.928 19.296V5.584H248V4.304H243.648V19.296H244.928ZM258.232 4.496V5.504H253.448V6.592H255.784C255.832 6.72 256.12 7.792 256.184 8.048H253.976V16.896H255.192V9.088H258.296V10.288H255.688V11.28H258.296V12.384H256.264V15.696H261.512V12.384H259.464V11.28H262.056V10.288H259.464V9.088H262.552V15.504C262.552 15.872 262.408 15.904 262.2 15.904L260.712 15.888L260.888 17.104H262.584C263.416 17.104 263.768 16.64 263.768 15.872V8.048H261.432C261.656 7.504 261.784 7.136 261.944 6.592H264.36V5.504H259.528V4.496H258.232ZM257.336 8.048C257.192 7.424 257.176 7.344 256.984 6.592H260.776C260.728 6.8 260.488 7.632 260.312 8.048H257.336ZM260.408 14.72H257.352V13.344H260.408V14.72ZM256.328 17.728C255.864 17.728 252.952 17.504 252.632 15.552V10.704H249.64V12.016H251.368V16.528C250.664 17.28 249.752 17.872 249.464 18.048L250.104 19.408C251.24 18.416 251.32 18.32 252.344 17.152C252.696 17.616 253.688 18.96 256.312 18.96H264.312L264.568 17.728H256.328ZM253.208 7.376C252.44 6.304 251.512 5.36 250.76 4.72L249.88 5.52C251.32 6.928 251.88 7.792 252.168 8.224L253.208 7.376ZM267.632 8.976L265.984 9.248L266.064 10.544L267.632 10.288V15.408C267.632 16.176 268.032 16.576 268.784 16.576H270.656C271.968 16.576 272.272 15.312 272.528 13.216L271.232 12.912C271.2 13.52 271.088 15.344 270.4 15.344H269.408C269.008 15.344 268.928 15.232 268.928 14.88V10.08L272.448 9.504L272.368 8.192L268.928 8.752V4.512H267.632V8.976ZM272 5.2V6.496H274.864C274.864 12.112 274.352 15.712 269.68 18.208L270.608 19.36C275.04 16.656 276.144 13.488 276.208 6.496H279.232C279.232 8.32 279.232 16.16 278.384 17.536C278.112 17.984 277.584 17.968 277.424 17.968L275.04 17.952L275.328 19.312H277.648C279.072 19.312 279.504 18.576 279.696 18.176C280.576 16.288 280.576 9.104 280.576 5.2H272ZM293.864 9.584H292.424L292.52 13.008C292.168 12.928 291.656 12.816 290.856 12.816C288.024 12.816 287.096 14.592 287.096 15.792C287.096 17.28 288.28 18.608 290.68 18.608C292.264 18.608 293.88 18.032 293.88 15.664V15.008C294.456 15.344 295.432 15.936 296.472 17.184L297.352 15.92C296.568 15.056 295.288 14.064 293.944 13.472L293.864 9.584ZM292.552 15.408C292.552 16.496 292.312 17.36 290.728 17.36C290.424 17.36 288.456 17.36 288.456 15.744C288.456 14.848 289.224 14.032 290.856 14.032C291.704 14.032 292.184 14.208 292.552 14.336V15.408ZM287.8 7.12C288.008 5.952 288.024 5.856 288.152 5.088L286.632 5.024C286.568 5.664 286.52 6.016 286.344 7.12H283.384V8.464H286.088C285.672 10.256 284.968 13.392 283.256 16.144L284.728 16.784C285.304 15.6 286.616 12.928 287.528 8.464H291.16V7.12H287.8ZM297.08 8.368C295.384 7.424 294.312 6.944 292.712 6.384L292.152 7.568C293.592 8.096 294.792 8.672 296.408 9.648L297.08 8.368ZM301.184 11.872C302.304 11.168 302.752 10.72 303.216 10.256C305.568 11.44 306.976 12.432 308.304 13.568C306.48 15.568 304 16.752 301.376 17.376L302.064 18.704C311.664 16.208 312.496 8.56 312.784 5.952H304.512C303.552 8.08 302.144 9.568 300.24 10.752L301.184 11.872ZM311.136 7.28C310.768 9.76 310.032 11.232 309.184 12.48C307.6 11.12 305.76 10.128 304.096 9.296C304.528 8.768 304.816 8.4 305.472 7.28H311.136ZM325.112 10.096C327.352 8.304 328.68 6.752 329.384 5.92L328.04 5.04C325.064 8.784 321.128 11.68 316.568 13.104L317.272 14.432C319.32 13.712 321.4 12.752 323.576 11.232V18.688H325.112V10.096ZM345.392 6.816C341.664 5.968 338.784 5.616 334.928 5.392L334.688 6.72C338.656 6.928 341.776 7.392 345.12 8.288L345.392 6.816ZM344.56 11.664C341.904 10.864 339.36 10.32 334.848 9.984L334.576 11.312C338.576 11.616 341.168 12.064 344.304 13.056L344.56 11.664ZM346.048 17.088C344.288 16.576 340.256 15.392 333.904 15.072L333.616 16.432C339.312 16.864 342.24 17.504 345.648 18.608L346.048 17.088ZM7.488 32.368C7.072 32.112 5.312 30.976 2.48 30.128L1.76 31.408C4.064 32.128 5.744 33.072 6.688 33.712L7.488 32.368ZM2.384 42.256C11.6 41.648 14.16 34.176 14.928 31.904L13.68 30.976C12.576 34.56 10.192 40.224 2.096 40.656L2.384 42.256ZM18.968 42.832C24.664 41.552 28.008 38.384 29.336 32.288L27.848 30.32H21.448C20.328 32.56 18.696 33.936 17.448 34.784L18.36 35.872C20.168 34.656 21.352 33.344 22.408 31.664H27.96C27.048 36.48 24.568 40.24 18.36 41.472L18.968 42.832ZM30.008 28.4C30.84 29.536 31.16 30.176 31.704 31.408L32.728 30.736C32.056 29.392 31.784 28.832 30.968 27.792L30.008 28.4ZM27.88 29.024C28.664 30.064 29.064 30.752 29.624 32L30.632 31.312C29.96 29.984 29.64 29.408 28.824 28.4L27.88 29.024ZM43.424 34C44.176 35.056 44.576 35.808 45.104 37.088L46.224 36.384C45.664 35.168 45.2 34.304 44.464 33.36L43.424 34ZM45.792 32.976C46.56 34.08 46.928 34.768 47.472 36.064L48.592 35.36C48.016 34.112 47.6 33.328 46.832 32.336L45.792 32.976ZM47.744 29.968C44.08 29.984 42.576 30.016 38.784 30.224C37.968 30.272 35.2 30.4 34.416 30.416L34.544 31.984C36.288 31.776 41.824 31.44 42.288 31.424C40.4 32.528 37.6 34.624 37.6 37.664C37.6 42.144 42.912 42.368 46.064 42.496L46.352 40.944C44.928 40.992 43.344 40.864 42.32 40.656C40.624 40.304 39.088 39.648 39.088 37.568C39.088 34.816 42.224 32.336 44.528 31.568C45.008 31.408 45.36 31.376 46.144 31.376C46.592 31.376 47.088 31.392 47.776 31.44L47.744 29.968ZM58.2 42.496C59.976 42.32 61.576 41.776 62.616 40.912C64.072 39.696 64.76 37.808 64.76 35.904C64.76 33.2 63.368 29.616 58.184 29.616C53.96 29.616 50.792 32.4 50.792 36.752C50.792 39.392 52.104 41.248 53.672 41.248C54.392 41.248 55.416 40.88 56.36 39.392C58.008 36.752 58.328 32.816 58.472 30.96C62.872 31.104 63.256 34.624 63.256 35.888C63.256 40.464 59.368 40.928 57.72 41.104L58.2 42.496ZM57.048 31.024C56.888 32.864 56.632 36.112 55.288 38.416C54.872 39.12 54.392 39.712 53.72 39.712C52.584 39.712 52.184 37.872 52.184 36.784C52.184 34.928 52.92 33.136 54.408 32.048C55.224 31.44 56.104 31.2 57.048 31.024ZM75.632 28.496V29.504H70.848V30.592H73.184C73.232 30.72 73.52 31.792 73.584 32.048H71.376V40.896H72.592V33.088H75.696V34.288H73.088V35.28H75.696V36.384H73.664V39.696H78.912V36.384H76.864V35.28H79.456V34.288H76.864V33.088H79.952V39.504C79.952 39.872 79.808 39.904 79.6 39.904L78.112 39.888L78.288 41.104H79.984C80.816 41.104 81.168 40.64 81.168 39.872V32.048H78.832C79.056 31.504 79.184 31.136 79.344 30.592H81.76V29.504H76.928V28.496H75.632ZM74.736 32.048C74.592 31.424 74.576 31.344 74.384 30.592H78.176C78.128 30.8 77.888 31.632 77.712 32.048H74.736ZM77.808 38.72H74.752V37.344H77.808V38.72ZM73.728 41.728C73.264 41.728 70.352 41.504 70.032 39.552V34.704H67.04V36.016H68.768V40.528C68.064 41.28 67.152 41.872 66.864 42.048L67.504 43.408C68.64 42.416 68.72 42.32 69.744 41.152C70.096 41.616 71.088 42.96 73.712 42.96H81.712L81.968 41.728H73.728ZM70.608 31.376C69.84 30.304 68.912 29.36 68.16 28.72L67.28 29.52C68.72 30.928 69.28 31.792 69.568 32.224L70.608 31.376ZM85.032 32.976L83.384 33.248L83.464 34.544L85.032 34.288V39.408C85.032 40.176 85.432 40.576 86.184 40.576H88.056C89.368 40.576 89.672 39.312 89.928 37.216L88.632 36.912C88.6 37.52 88.488 39.344 87.8 39.344H86.808C86.408 39.344 86.328 39.232 86.328 38.88V34.08L89.848 33.504L89.768 32.192L86.328 32.752V28.512H85.032V32.976ZM89.4 29.2V30.496H92.264C92.264 36.112 91.752 39.712 87.08 42.208L88.008 43.36C92.44 40.656 93.544 37.488 93.608 30.496H96.632C96.632 32.32 96.632 40.16 95.784 41.536C95.512 41.984 94.984 41.968 94.824 41.968L92.44 41.952L92.728 43.312H95.048C96.472 43.312 96.904 42.576 97.096 42.176C97.976 40.288 97.976 33.104 97.976 29.2H89.4ZM111.264 33.584H109.824L109.92 37.008C109.568 36.928 109.056 36.816 108.256 36.816C105.424 36.816 104.496 38.592 104.496 39.792C104.496 41.28 105.68 42.608 108.08 42.608C109.664 42.608 111.28 42.032 111.28 39.664V39.008C111.856 39.344 112.832 39.936 113.872 41.184L114.752 39.92C113.968 39.056 112.688 38.064 111.344 37.472L111.264 33.584ZM109.952 39.408C109.952 40.496 109.712 41.36 108.128 41.36C107.824 41.36 105.856 41.36 105.856 39.744C105.856 38.848 106.624 38.032 108.256 38.032C109.104 38.032 109.584 38.208 109.952 38.336V39.408ZM105.2 31.12C105.408 29.952 105.424 29.856 105.552 29.088L104.032 29.024C103.968 29.664 103.92 30.016 103.744 31.12H100.784V32.464H103.488C103.072 34.256 102.368 37.392 100.656 40.144L102.128 40.784C102.704 39.6 104.016 36.928 104.928 32.464H108.56V31.12H105.2ZM114.48 32.368C112.784 31.424 111.712 30.944 110.112 30.384L109.552 31.568C110.992 32.096 112.192 32.672 113.808 33.648L114.48 32.368ZM125.416 35.6C125.528 34.912 125.576 34.384 125.576 33.456H129.976V32.288H122.68C122.904 31.856 123.032 31.584 123.288 30.944L122.008 30.672C121.512 32.224 120.568 33.392 119.432 34.304L120.44 35.168C121.064 34.608 121.432 34.208 121.976 33.456H124.328C124.328 34.608 124.248 35.104 124.168 35.6H119.512V36.784H123.784C122.648 39.136 120.104 39.76 119.304 39.952L120.072 41.12C121.896 40.512 123.944 39.472 125 37.04C125.4 37.952 126.68 39.984 130.296 41.104L131 39.872C128.408 39.296 126.712 37.808 126.168 36.784H130.648V35.6H125.416ZM117.32 29.024V43.008H131.528V41.792H118.68V30.256H131.192V29.024H117.32ZM146.528 36.272C147.024 36.576 147.328 36.72 147.76 36.928L148.368 35.856C147.92 35.696 147.488 35.536 146.768 35.136C146.8 35.088 147.36 34.544 147.856 33.904L146.96 33.36C146.784 33.6 146.4 34.08 145.936 34.576C145.168 33.984 144.768 33.456 144.448 33.056H148.176V32.048H142.352C142.464 31.824 142.528 31.664 142.688 31.264L141.424 31.12C141.296 31.488 141.216 31.696 141.056 32.048H137.216V33.056H140.448C140 33.648 139.6 34.064 139.104 34.464C138.96 34.304 138.512 33.808 138 33.424L137.264 34.096C137.712 34.448 137.76 34.496 138.288 35.056C137.744 35.424 137.328 35.632 136.768 35.904L137.472 36.864C137.824 36.656 137.936 36.592 138.272 36.384V39.712H141.712V41.776C141.712 42.096 141.664 42.16 141.344 42.16H139.824L140.096 43.312H141.824C142.32 43.312 143.008 43.28 143.008 42.288V39.712H146.528V36.272ZM145.36 36.896H139.44V35.936H145.36V36.896ZM140.096 35.008C141.136 34.064 141.584 33.36 141.776 33.056H143.136C143.488 33.568 143.888 34.176 144.816 35.008H140.096ZM145.36 38.784H139.44V37.776H145.36V38.784ZM135.44 35.216C135.44 35.664 135.424 35.968 135.424 36.224C134.624 36.624 134.256 36.8 133.152 37.232L133.424 38.544C133.904 38.304 134.512 38 135.312 37.472C134.96 40.448 134.08 41.6 133.36 42.496L134.336 43.36C134.976 42.592 136.704 40.528 136.704 35.264V30.912H148.224V29.792H142.272V28.496H140.96V29.792H135.44V35.216ZM135.104 33.84C134.944 33.024 134.608 31.904 134.144 30.992L133.152 31.472C133.52 32.384 133.808 33.408 133.984 34.368L135.104 33.84ZM136.8 43.072C137.872 42.672 138.864 42.144 140.224 40.816L139.296 40.048C138.16 41.136 137.376 41.568 136.096 42L136.8 43.072ZM144.304 40.832C145.168 41.808 146.528 42.656 147.76 43.088L148.464 42C146.976 41.472 146.304 41.088 145.152 39.984L144.304 40.832ZM162.712 32.816C160.232 33.216 158.92 33.472 157.192 34C156.856 33.312 156.776 32.464 156.776 30.768C156.776 29.984 156.792 29.536 156.808 29.104H155.24C155.288 32.512 155.32 33.44 155.848 34.48C154.728 34.96 151.432 36.336 151.432 39.072C151.432 42.48 155.864 42.48 158.632 42.48C160.936 42.48 162.344 42.384 163.384 42.32L163.352 40.816C162.44 40.912 160.952 41.056 158.312 41.056C154.872 41.056 152.92 40.88 152.92 39.024C152.92 35.472 161.56 34.496 162.856 34.352L162.712 32.816ZM174.4 42.496C176.176 42.32 177.776 41.776 178.816 40.912C180.272 39.696 180.96 37.808 180.96 35.904C180.96 33.2 179.568 29.616 174.384 29.616C170.16 29.616 166.992 32.4 166.992 36.752C166.992 39.392 168.304 41.248 169.872 41.248C170.592 41.248 171.616 40.88 172.56 39.392C174.208 36.752 174.528 32.816 174.672 30.96C179.072 31.104 179.456 34.624 179.456 35.888C179.456 40.464 175.568 40.928 173.92 41.104L174.4 42.496ZM173.248 31.024C173.088 32.864 172.832 36.112 171.488 38.416C171.072 39.12 170.592 39.712 169.92 39.712C168.784 39.712 168.384 37.872 168.384 36.784C168.384 34.928 169.12 33.136 170.608 32.048C171.424 31.44 172.304 31.2 173.248 31.024ZM184.312 29.68V35.552H189.912V41.792H185.112V36.784H183.768V43.024H197.416V36.784H196.056V41.792H191.256V35.552H196.888V29.68H195.528V34.32H191.256V28.496H189.912V34.32H185.672V29.68H184.312ZM208.976 38.64C210.224 39.904 211.024 40.912 211.184 41.12C210 41.232 208.352 41.376 206.4 41.456C206.064 41.472 204.272 41.52 203.872 41.536C204.912 39.696 205.552 38.304 205.936 37.424H214.288V36.192H200V37.424H204.384C204.032 38.352 203.424 39.84 202.416 41.568H200.208L200.352 42.88C202.816 42.88 209.344 42.592 212.016 42.208C212.352 42.704 212.544 43.008 212.8 43.44L213.952 42.672C212.72 40.72 211.744 39.6 210.032 37.92L208.976 38.64ZM211.44 33.248C212.576 34.016 213.472 34.432 214.176 34.752L214.88 33.472C212.096 32.48 209.552 30.544 207.888 28.32H206.464C206.032 28.96 204.24 31.552 199.472 33.424L200.128 34.72C200.672 34.496 201.552 34.112 202.976 33.232V34.128H211.44V33.248ZM203.472 32.912C204.816 31.984 206.176 30.864 207.184 29.456C207.744 30.16 208.672 31.312 210.928 32.912H203.472ZM217.608 29.856C217.512 30.944 217.352 32.688 217.352 34.432C217.352 38.592 218.072 42.176 220.664 42.176C221.48 42.176 222.072 41.792 222.456 41.408C223.352 40.512 224.088 39.168 224.616 37.68L223.432 37.008C222.328 39.888 221.496 40.544 220.776 40.544C218.984 40.544 218.792 37.04 218.792 34.56C218.792 32.4 219 30.944 219.128 29.984L217.608 29.856ZM230.504 40.592C230.728 34.192 229.08 31.936 227.176 30.336L226.072 31.184C227.736 32.544 228.984 34.848 228.984 39.024C228.984 39.76 228.952 40.24 228.92 40.656L230.504 40.592ZM235.872 28.544V42.256H232.8V43.536H237.152V28.544H235.872ZM257.4 42.496C259.176 42.32 260.776 41.776 261.816 40.912C263.272 39.696 263.96 37.808 263.96 35.904C263.96 33.2 262.568 29.616 257.384 29.616C253.16 29.616 249.992 32.4 249.992 36.752C249.992 39.392 251.304 41.248 252.872 41.248C253.592 41.248 254.616 40.88 255.56 39.392C257.208 36.752 257.528 32.816 257.672 30.96C262.072 31.104 262.456 34.624 262.456 35.888C262.456 40.464 258.568 40.928 256.92 41.104L257.4 42.496ZM256.248 31.024C256.088 32.864 255.832 36.112 254.488 38.416C254.072 39.12 253.592 39.712 252.92 39.712C251.784 39.712 251.384 37.872 251.384 36.784C251.384 34.928 252.12 33.136 253.608 32.048C254.424 31.44 255.304 31.2 256.248 31.024ZM271.168 35.12C271.568 34.912 272.048 34.672 272.832 34.08V35.936H279.04V34.144C279.6 34.576 280.096 34.864 280.816 35.184L281.328 34.144C279.584 33.36 278.976 32.832 278.192 31.712H280.976V30.72H275.616C275.68 30.592 275.792 30.384 276.048 29.776C276.784 29.728 278.864 29.568 280.064 29.328L279.52 28.368C278.192 28.64 276.048 28.976 271.376 28.96L271.632 29.92C272.24 29.92 272.816 29.92 274.768 29.84C274.688 30 274.592 30.208 274.32 30.72H270.992V31.712H273.68C272.592 33.168 271.184 33.824 270.576 34.112L271.168 35.12ZM276.928 31.712C277.136 32.064 277.376 32.464 277.84 33.024H274C274.416 32.576 274.688 32.256 275.04 31.712H276.928ZM278.016 35.056H273.84V33.904H278.016V35.056ZM280.544 36.72H271.312V43.344H272.512V37.696H279.312V41.584C279.312 42.16 279.264 42.256 278.72 42.24L277.68 42.224L277.904 43.344H279.2C279.92 43.344 280.544 43.264 280.544 42.24V36.72ZM277.328 40.928H274.528V39.472H277.328V40.928ZM271.184 36.336C270.16 35.12 269.696 34.08 269.472 33.504V32.832H270.912V31.616H269.472V28.496H268.24V31.616H266.208V32.832H268.192C267.776 34.944 266.768 36.816 266 37.888L266.576 39.424C266.976 38.832 267.616 37.84 268.24 35.824V43.344H269.472V35.472C269.728 36.112 269.792 36.272 270.48 37.328L271.184 36.336ZM278.4 38.576H273.44V41.856H278.4V38.576ZM287.048 29.696V35.664C287.048 39.712 285.736 41.472 285.128 42.288L286.168 43.296C286.52 42.784 287.448 41.456 287.896 39.44C288.136 38.336 288.328 36.784 288.328 35.68V33.504H290.168V36.016H295.32V33.504H297.464V32.4H295.32V31.28H294.136V32.4H291.352V31.28H290.168V32.4H288.328V30.88H297.592V29.696H292.984V28.496H291.688V29.696H287.048ZM283.256 29.68C283.864 29.968 285.08 30.656 285.688 31.296L286.504 30.112C285.384 29.296 284.68 28.928 283.992 28.64L283.256 29.68ZM294.136 33.504V34.976H291.352V33.504H294.136ZM297.784 42.096C297.144 41.984 295.816 41.728 294.104 41.024C295.736 39.84 296.344 38.608 296.616 38.048V36.944H288.792V38.08H295.224C294.904 38.576 294.28 39.52 292.808 40.384C291.4 39.536 290.792 38.768 290.472 38.384L289.432 38.944C289.736 39.344 290.328 40.08 291.576 40.992C289.704 41.776 288.312 41.984 287.544 42.096L288.12 43.376C290.088 42.944 291.512 42.464 292.824 41.776C294.808 42.864 296.424 43.184 297.256 43.344L297.784 42.096ZM282.536 33.92C283.4 34.336 284.28 34.896 285.016 35.536L285.816 34.432C285.272 33.984 284.216 33.264 283.272 32.848L282.536 33.92ZM284.792 37.008C284.456 38.24 283.688 40.32 282.488 42.096L283.496 43.216C285.064 40.736 285.688 38.448 285.88 37.664L284.792 37.008ZM302.24 29.232C302.224 30.32 302.128 35.632 302.128 36.832C302.128 39.616 302.416 42.544 306.8 42.544C311.664 42.544 312.704 39.248 313.216 36.352L311.872 35.856C311.424 38.288 310.896 41.168 306.752 41.168C303.744 41.168 303.648 39.024 303.648 36.976C303.648 35.456 303.712 33.552 303.856 29.232H302.24ZM317.976 29.376C317.464 31.776 317.304 34.336 317.304 36.976C317.304 40.032 317.576 41.632 317.72 42.56L319.272 42.432C319.144 41.856 318.776 40.32 318.776 36.752C318.776 32.72 319.256 30.624 319.496 29.504L317.976 29.376ZM321.928 30.672V32.08H329.448V30.672H321.928ZM322.28 35.968C321.72 36.912 321.432 37.824 321.432 38.656C321.432 41.408 324.392 41.632 326.76 41.632C328.12 41.632 329.24 41.536 329.784 41.488V39.984C328.312 40.144 327 40.176 326.12 40.176C324.408 40.176 322.776 39.984 322.776 38.528C322.776 38.384 322.792 37.472 323.576 36.368L322.28 35.968ZM8.816 57.152H14.224V55.712L8.816 55.76L8.8 53.104H7.296L7.36 60.64C6.96 60.592 6.656 60.544 6.128 60.544C3.84 60.544 1.584 61.488 1.584 63.68C1.584 65.248 2.768 66.56 5.408 66.56C8.736 66.56 8.848 64.512 8.832 63.568L8.816 62.464C10.768 63.216 12.624 64.656 13.6 65.744L14.64 64.368C13.856 63.552 11.984 62.016 8.832 60.944L8.816 57.152ZM7.376 63.472C7.376 64.128 7.216 65.232 5.392 65.232C5.04 65.232 3.008 65.232 3.008 63.696C3.008 62.4 4.528 61.856 5.904 61.856C6.576 61.856 7.056 61.952 7.392 62.016L7.376 63.472ZM22.776 66.048C24.056 66.032 25.432 65.92 26.68 65.52C29.736 64.56 30.088 62.048 30.088 61.088C30.088 58.848 28.52 57.152 25.784 57.152C24.936 57.152 23.816 57.312 22.824 57.472C22.28 57.568 19.624 58.048 19.016 58.144L19.256 59.552C21.72 58.928 24.44 58.4 25.72 58.4C27.288 58.4 28.68 59.2 28.68 61.136C28.68 64.848 23.752 64.816 22.424 64.8L22.776 66.048ZM47.744 53.968C43.808 54 42.336 54.032 38.752 54.224C37.936 54.272 35.376 54.384 34.416 54.416L34.544 55.984C36.288 55.776 41.824 55.44 42.288 55.424C40.4 56.528 37.6 58.624 37.6 61.664C37.6 66.144 42.912 66.368 46.064 66.496L46.352 64.944C44.976 64.992 43.44 64.896 42.32 64.656C40.624 64.304 39.088 63.648 39.088 61.568C39.088 58.816 42.224 56.336 44.528 55.568C45.008 55.408 45.344 55.376 46.144 55.376C46.768 55.376 47.232 55.392 47.776 55.44L47.744 53.968ZM54.968 65.856C54.296 64.944 53.16 63.6 52.12 62.64L50.904 63.536C51.432 64.096 52.424 65.136 53.56 66.848L54.968 65.856ZM74.672 66.784C78.08 65.568 78.896 62.896 79.28 61.328C80.08 61.68 80.352 61.824 81.072 62.256L81.552 60.816C80.56 60.272 79.632 59.92 79.584 59.904C79.824 58.624 79.952 57.232 80.064 56.08L78.544 55.968C78.512 56.704 78.432 57.84 78.192 59.408C76.736 58.928 75.68 58.672 74.336 58.56C74.864 55.408 74.912 55.056 75.12 53.456H68.496V54.848L73.504 54.8C73.408 55.936 73.2 57.36 72.976 58.512C67.744 58.72 67.456 62.16 67.456 62.944C67.456 64.656 68.576 65.68 70.112 65.68C72.528 65.68 73.232 63.392 74.096 59.824C75.536 59.952 76.896 60.368 77.936 60.768C77.376 63.088 76.544 64.688 73.792 65.68L74.672 66.784ZM72.736 59.744C71.888 63.216 71.456 64.416 70.016 64.416C68.8 64.416 68.72 63.168 68.72 62.864C68.72 61.776 69.376 60.736 70.416 60.224C71.12 59.872 71.792 59.776 72.736 59.744ZM94.664 57.584H93.224L93.32 61.008C92.968 60.928 92.456 60.816 91.656 60.816C88.824 60.816 87.896 62.592 87.896 63.792C87.896 65.28 89.08 66.608 91.48 66.608C93.064 66.608 94.68 66.032 94.68 63.664V63.008C95.256 63.344 96.232 63.936 97.272 65.184L98.152 63.92C97.368 63.056 96.088 62.064 94.744 61.472L94.664 57.584ZM93.352 63.408C93.352 64.496 93.112 65.36 91.528 65.36C91.224 65.36 89.256 65.36 89.256 63.744C89.256 62.848 90.024 62.032 91.656 62.032C92.504 62.032 92.984 62.208 93.352 62.336V63.408ZM88.6 55.12C88.808 53.952 88.824 53.856 88.952 53.088L87.432 53.024C87.368 53.664 87.32 54.016 87.144 55.12H84.184V56.464H86.888C86.472 58.256 85.768 61.392 84.056 64.144L85.528 64.784C86.104 63.6 87.416 60.928 88.328 56.464H91.96V55.12H88.6ZM97.88 56.368C96.184 55.424 95.112 54.944 93.512 54.384L92.952 55.568C94.392 56.096 95.592 56.672 97.208 57.648L97.88 56.368ZM112.176 61.2C111.216 60.176 110.288 58.624 109.616 57.008C111.024 56.944 112.4 56.88 114.144 56.512L113.888 55.136C112.288 55.472 110.784 55.664 109.152 55.712C108.944 55.072 108.72 54.032 108.576 53.056L107.056 53.168C107.12 53.552 107.36 54.72 107.68 55.76C107.28 55.776 106.416 55.792 105.744 55.776L101.072 55.696V57.088H105.68C105.92 57.088 107.152 57.072 108.128 57.056C108.992 59.248 110 60.976 110.944 62.032L112.176 61.2ZM104.112 59.888C102.48 60.688 101.792 61.84 101.792 63.008C101.792 63.808 102.096 64.592 102.736 65.168C103.856 66.176 105.44 66.496 108.24 66.496C110.432 66.496 111.84 66.368 112.416 66.304L112.4 64.88C111.408 65.008 110.192 65.152 108.112 65.152C105.824 65.152 103.232 64.944 103.232 62.992C103.232 62.688 103.312 61.696 104.88 60.928L104.112 59.888ZM121.624 53.008C121.24 54.048 120.312 56.608 120.072 57.28C119.704 58.32 119.432 59.088 117.16 66.032L118.664 66.496C119.096 64.88 119.352 63.92 119.912 62.432C120.92 60.368 122.232 60.032 122.872 60.032C124.008 60.032 124.296 60.976 124.296 62.16V63.056C124.296 64.304 124.312 66.56 127.032 66.56C130.696 66.56 131.08 62.272 131.176 60.16L129.784 59.84C129.784 60.768 129.704 61.968 129.256 63.264C128.728 64.784 127.912 65.152 127.128 65.152C125.832 65.152 125.704 64.272 125.704 63.12V62.048C125.704 60.944 125.576 58.672 123.112 58.672C122.232 58.672 121.608 58.976 120.744 59.68C121.176 58.432 122.136 55.808 123.208 53.44L121.624 53.008ZM141.2 66.496C142.976 66.32 144.576 65.776 145.616 64.912C147.072 63.696 147.76 61.808 147.76 59.904C147.76 57.2 146.368 53.616 141.184 53.616C136.96 53.616 133.792 56.4 133.792 60.752C133.792 63.392 135.104 65.248 136.672 65.248C137.392 65.248 138.416 64.88 139.36 63.392C141.008 60.752 141.328 56.816 141.472 54.96C145.872 55.104 146.256 58.624 146.256 59.888C146.256 64.464 142.368 64.928 140.72 65.104L141.2 66.496ZM140.048 55.024C139.888 56.864 139.632 60.112 138.288 62.416C137.872 63.12 137.392 63.712 136.72 63.712C135.584 63.712 135.184 61.872 135.184 60.784C135.184 58.928 135.92 57.136 137.408 56.048C138.224 55.44 139.104 55.2 140.048 55.024ZM159.784 52.496V53.536H157.704V54.592H159.784V55.84H156.856V56.88H159.784V58.16H157.704V59.184H159.784V60.336H157.48V61.376H159.784V62.576H157.048V63.648H159.784V65.072H160.936V63.648H164.744V62.576H160.936V61.376H164.232V60.336H160.936V59.184H164.024V56.88H164.792V55.84H164.024V53.536H160.936V52.496H159.784ZM162.84 55.84H160.936V54.592H162.84V55.84ZM162.84 58.16H160.936V56.88H162.84V58.16ZM160.552 65.648C157.432 65.648 156.008 64.24 155.912 64.128C156.088 63.664 156.824 61.536 156.888 58.064H154.84C155.544 56.832 156.312 55.504 156.856 54.304V53.104H153.656V54.256H155.56C155.176 55.184 154.136 57.152 153.496 58.048V59.216H155.72C155.688 60.4 155.576 61.648 155.128 62.992C154.6 61.888 154.456 60.864 154.36 60.208L153.272 60.368C153.368 60.96 153.64 62.832 154.568 64.256C153.944 65.28 153.4 65.696 152.952 66.048L153.672 67.232C154.136 66.8 154.712 66.272 155.352 65.232C155.8 65.664 157.384 66.896 160.456 66.896H164.728L164.936 65.648H160.552ZM152.584 56.336C153.144 54.8 153.368 53.6 153.528 52.672L152.248 52.464C151.928 54.736 151.08 57.504 149.72 59.152L150.344 60.464C150.68 60.112 150.936 59.84 151.352 59.088V67.312H152.584V56.336ZM179.808 61.504C178.992 62.512 177.712 63.504 177.52 63.648C176.448 62.848 175.872 62.096 175.472 61.536V61.392H180.16V59.184H181.424V58.128H180.16V56H175.472V55.248H174.224V56H169.728V57.04H174.224V58.128H169.024V54.848H181.328V53.664H174.832V52.496H173.504V53.664H167.728V60.32C167.728 61.92 167.6 62.448 167.424 63.376C167.136 64.88 166.656 65.76 166.384 66.224L167.472 67.36C168.88 64.704 169.024 61.616 169.024 60.432V59.184H174.224V60.368H169.728V61.392H174.224V65.68C174.224 65.888 174.192 66.048 173.824 66.048L172.112 66.032L172.368 67.344H174.304C175.12 67.344 175.472 66.864 175.472 66.16V63.184C177.008 65.088 179.104 66.272 180.816 66.912L181.568 65.68C180.992 65.472 179.904 65.088 178.56 64.32C179.632 63.536 180.16 63.056 180.88 62.288L179.808 61.504ZM178.896 57.04V58.128H175.472V57.04H178.896ZM178.896 59.184V60.368H175.472V59.184H178.896ZM169.744 62.448C170.784 62.928 171.28 63.248 171.984 63.904L172.832 62.928C172.016 62.288 171.488 62 170.464 61.52L169.744 62.448ZM173.472 63.584C172.928 63.84 170.528 64.944 168.688 65.52L169.184 66.672C172.592 65.248 172.976 65.088 173.68 64.704L173.472 63.584ZM190.6 58.272C189.704 58.272 188.952 58.992 188.952 59.92C188.952 60.816 189.672 61.568 190.6 61.568C191.528 61.568 192.248 60.8 192.248 59.92C192.248 59.024 191.512 58.272 190.6 58.272ZM213.824 66.096C212.896 65.552 211.328 64.656 209.296 63.808C209.92 63.168 210.976 61.968 211.744 59.52H214.576V58.256H205.904C206.48 57.088 206.688 56.56 206.864 56.128L205.392 55.856C205.2 56.416 204.928 57.168 204.368 58.256H199.824V59.52H203.68C202.8 61.04 202.016 61.968 201.536 62.528C204.032 63.216 205.456 63.696 206.752 64.208C204.752 65.312 202.352 65.712 200.208 65.904L200.672 67.312C204.832 66.88 207.296 65.424 208.176 64.784C210.8 65.92 212.224 66.864 212.944 67.344L213.824 66.096ZM210.336 59.52C210.16 60.048 209.552 61.888 208.016 63.296C206.416 62.688 204.816 62.224 203.664 61.888C203.984 61.472 204.448 60.864 205.216 59.52H210.336ZM200.208 53.936V57.424H201.568V55.168H212.848V57.424H214.208V53.936H207.856V52.496H206.48V53.936H200.208ZM228.52 57.792C229.512 58.416 230.232 58.736 230.792 58.992L231.464 57.68C228.52 56.608 226.152 54.688 224.536 52.512H223.08C221.304 54.992 218.68 56.72 216.136 57.696L216.808 59.008C217.384 58.736 218.056 58.432 219.144 57.776V58.992H223.128V61.424H218.04V62.624H223.128V65.648H216.472V66.928H231.128V65.648H224.488V62.624H229.608V61.424H224.488V58.992H228.52V57.792ZM219.16 57.76C220.936 56.688 222.504 55.28 223.8 53.648C225.512 55.776 227.48 57.12 228.472 57.76H219.16ZM239.296 54.624C239.52 53.824 239.6 53.456 239.696 52.896L238.16 52.832C238.048 53.744 237.936 54.208 237.824 54.624H234.144V55.904H237.44C236.416 58.896 235.136 60.592 233.728 61.92L234.72 62.992C235.232 62.464 236.288 61.056 237.024 60.048C238.144 58.912 239.312 58.416 240.192 58.416C240.928 58.416 241.376 58.736 241.552 59.68C239.968 60.384 237.104 61.824 237.104 64C237.104 66.576 240.72 66.576 242.528 66.576C244.048 66.576 245.44 66.48 246.352 66.416L246.304 65.04C244.864 65.2 243.36 65.264 242.08 65.264C240.32 65.264 238.544 65.264 238.544 63.856C238.544 62.544 240.48 61.52 241.712 60.944C241.744 61.36 241.744 61.632 241.744 61.904C241.744 62.48 241.696 63.072 241.664 63.44H243.056C243.104 62.928 243.104 62.448 243.104 62.224C243.104 61.648 243.088 60.96 243.04 60.4C244.8 59.728 245.936 59.376 247.232 59.008L246.848 57.616C245.408 58.112 243.216 58.992 242.848 59.136C242.528 57.616 241.504 57.264 240.416 57.264C239.616 57.264 238.976 57.536 237.856 58.208C238.32 57.408 238.544 56.88 238.912 55.904H245.968V54.624H239.296ZM261.288 56.16V53.12H259.848V56.16H254.264V53.184H252.808V56.16H250.104V57.536H252.808V61.84H254.264V57.536H259.848V59.504C259.848 63.024 257.752 64.864 253.224 65.296L253.752 66.688C256.152 66.4 261.288 65.456 261.288 59.568V57.536H264.056V56.16H261.288ZM274.304 55.872V53.2H272.832V55.872H267.296V57.232H272.832V66.736H274.304V57.232H279.856V56.656C280.816 56.384 281.472 55.52 281.472 54.528C281.472 53.296 280.48 52.304 279.248 52.304C278.032 52.304 277.024 53.296 277.024 54.512C277.024 55.024 277.184 55.488 277.488 55.872H274.304ZM279.248 53.296C279.92 53.296 280.48 53.84 280.48 54.528C280.48 55.2 279.936 55.76 279.248 55.76C278.576 55.76 278.016 55.2 278.016 54.528C278.016 53.84 278.576 53.296 279.248 53.296ZM268.096 65.776C270.016 63.632 270.512 61.024 270.736 58.912L269.376 58.768C269.2 60.736 268.624 63.024 266.928 64.72L268.096 65.776ZM276.464 58.912C277.008 62.192 277.632 63.952 279.072 65.712L280.272 64.784C278.96 63.2 278.288 61.536 277.808 58.752L276.464 58.912ZM283.32 59.152V60.672H297.08V59.152H283.32ZM313.104 60.576C310.8 59.328 308.32 58.096 305.296 57.136V53.04H303.744V66.72H305.296V58.64C308.64 59.792 311.264 61.392 312.352 62.064L313.104 60.576ZM318.84 53.232C318.824 54.32 318.728 59.632 318.728 60.832C318.728 63.616 319.016 66.544 323.4 66.544C328.264 66.544 329.304 63.248 329.816 60.352L328.472 59.856C328.024 62.288 327.496 65.168 323.352 65.168C320.344 65.168 320.248 63.024 320.248 60.976C320.248 59.456 320.312 57.552 320.456 53.232H318.84ZM337.168 65.856C336.496 64.944 335.36 63.6 334.32 62.64L333.104 63.536C333.632 64.096 334.624 65.136 335.76 66.848L337.168 65.856ZM9.216 83.6C9.328 82.912 9.376 82.384 9.376 81.456H13.776V80.288H6.48C6.704 79.856 6.832 79.584 7.088 78.944L5.808 78.672C5.312 80.224 4.368 81.392 3.232 82.304L4.24 83.168C4.864 82.608 5.232 82.208 5.776 81.456H8.128C8.128 82.608 8.048 83.104 7.968 83.6H3.312V84.784H7.584C6.448 87.136 3.904 87.76 3.104 87.952L3.872 89.12C5.696 88.512 7.744 87.472 8.8 85.04C9.2 85.952 10.48 87.984 14.096 89.104L14.8 87.872C12.208 87.296 10.512 85.808 9.968 84.784H14.448V83.6H9.216ZM1.12 77.024V91.008H15.328V89.792H2.48V78.256H14.992V77.024H1.12ZM30.328 84.272C30.824 84.576 31.128 84.72 31.56 84.928L32.168 83.856C31.72 83.696 31.288 83.536 30.568 83.136C30.6 83.088 31.16 82.544 31.656 81.904L30.76 81.36C30.584 81.6 30.2 82.08 29.736 82.576C28.968 81.984 28.568 81.456 28.248 81.056H31.976V80.048H26.152C26.264 79.824 26.328 79.664 26.488 79.264L25.224 79.12C25.096 79.488 25.016 79.696 24.856 80.048H21.016V81.056H24.248C23.8 81.648 23.4 82.064 22.904 82.464C22.76 82.304 22.312 81.808 21.8 81.424L21.064 82.096C21.512 82.448 21.56 82.496 22.088 83.056C21.544 83.424 21.128 83.632 20.568 83.904L21.272 84.864C21.624 84.656 21.736 84.592 22.072 84.384V87.712H25.512V89.776C25.512 90.096 25.464 90.16 25.144 90.16H23.624L23.896 91.312H25.624C26.12 91.312 26.808 91.28 26.808 90.288V87.712H30.328V84.272ZM29.16 84.896H23.24V83.936H29.16V84.896ZM23.896 83.008C24.936 82.064 25.384 81.36 25.576 81.056H26.936C27.288 81.568 27.688 82.176 28.616 83.008H23.896ZM29.16 86.784H23.24V85.776H29.16V86.784ZM19.24 83.216C19.24 83.664 19.224 83.968 19.224 84.224C18.424 84.624 18.056 84.8 16.952 85.232L17.224 86.544C17.704 86.304 18.312 86 19.112 85.472C18.76 88.448 17.88 89.6 17.16 90.496L18.136 91.36C18.776 90.592 20.504 88.528 20.504 83.264V78.912H32.024V77.792H26.072V76.496H24.76V77.792H19.24V83.216ZM18.904 81.84C18.744 81.024 18.408 79.904 17.944 78.992L16.952 79.472C17.32 80.384 17.608 81.408 17.784 82.368L18.904 81.84ZM20.6 91.072C21.672 90.672 22.664 90.144 24.024 88.816L23.096 88.048C21.96 89.136 21.176 89.568 19.896 90L20.6 91.072ZM28.104 88.832C28.968 89.808 30.328 90.656 31.56 91.088L32.264 90C30.776 89.472 30.104 89.088 28.952 87.984L28.104 88.832ZM35.776 77.376C35.264 79.776 35.104 82.336 35.104 84.976C35.104 88.032 35.376 89.632 35.52 90.56L37.072 90.432C36.944 89.856 36.576 88.32 36.576 84.752C36.576 80.72 37.056 78.624 37.296 77.504L35.776 77.376ZM39.728 78.672V80.08H47.248V78.672H39.728ZM40.08 83.968C39.52 84.912 39.232 85.824 39.232 86.656C39.232 89.408 42.192 89.632 44.56 89.632C45.92 89.632 47.04 89.536 47.584 89.488V87.984C46.112 88.144 44.8 88.176 43.92 88.176C42.208 88.176 40.576 87.984 40.576 86.528C40.576 86.384 40.592 85.472 41.376 84.368L40.08 83.968ZM55.704 89.632C57.64 89.616 59.432 89.392 60.792 88.832C64.2 87.456 64.6 84.752 64.6 83.52C64.6 81.12 63.08 78.72 59.336 78.72C58.008 78.72 56.472 78.976 54.952 79.248C54.296 79.36 51.192 79.904 50.824 79.952L51.176 81.568C53.88 80.896 57.32 80.128 59.24 80.128C62.36 80.128 63.064 82.032 63.064 83.536C63.064 85.12 62.232 86.272 61.368 86.896C59.8 88.016 57.96 88.24 55.32 88.256L55.704 89.632ZM68.208 77.856C68.112 78.944 67.952 80.688 67.952 82.432C67.952 86.592 68.672 90.176 71.264 90.176C72.08 90.176 72.672 89.792 73.056 89.408C73.952 88.512 74.688 87.168 75.216 85.68L74.032 85.008C72.928 87.888 72.096 88.544 71.376 88.544C69.584 88.544 69.392 85.04 69.392 82.56C69.392 80.4 69.6 78.944 69.728 77.984L68.208 77.856ZM81.104 88.592C81.328 82.192 79.68 79.936 77.776 78.336L76.672 79.184C78.336 80.544 79.584 82.848 79.584 87.024C79.584 87.76 79.552 88.24 79.52 88.656L81.104 88.592ZM97.544 77.968C93.608 78 92.136 78.032 88.552 78.224C87.736 78.272 85.176 78.384 84.216 78.416L84.344 79.984C86.088 79.776 91.624 79.44 92.088 79.424C90.2 80.528 87.4 82.624 87.4 85.664C87.4 90.144 92.712 90.368 95.864 90.496L96.152 88.944C94.776 88.992 93.24 88.896 92.12 88.656C90.424 88.304 88.888 87.648 88.888 85.568C88.888 82.816 92.024 80.336 94.328 79.568C94.808 79.408 95.144 79.376 95.944 79.376C96.568 79.376 97.032 79.392 97.576 79.44L97.544 77.968ZM108 90.496C109.776 90.32 111.376 89.776 112.416 88.912C113.872 87.696 114.56 85.808 114.56 83.904C114.56 81.2 113.168 77.616 107.984 77.616C103.76 77.616 100.592 80.4 100.592 84.752C100.592 87.392 101.904 89.248 103.472 89.248C104.192 89.248 105.216 88.88 106.16 87.392C107.808 84.752 108.128 80.816 108.272 78.96C112.672 79.104 113.056 82.624 113.056 83.888C113.056 88.464 109.168 88.928 107.52 89.104L108 90.496ZM106.848 79.024C106.688 80.864 106.432 84.112 105.088 86.416C104.672 87.12 104.192 87.712 103.52 87.712C102.384 87.712 101.984 85.872 101.984 84.784C101.984 82.928 102.72 81.136 104.208 80.048C105.024 79.44 105.904 79.2 106.848 79.024ZM124.488 80.32C124.776 79.856 125.096 79.328 125.56 78.368H131.576V77.056H116.792V78.368H124.136C122.92 80.96 120.552 83.712 116.616 85.52L117.416 86.784C118.552 86.208 120.968 84.912 123.448 81.776V91.344H124.84V80.32H124.488ZM131.8 85.584C129.368 84.096 127.736 82.416 126.376 80.72L125.4 81.488C127.352 83.952 128.408 85.024 130.84 86.784L131.8 85.584ZM147.424 90.096C146.496 89.552 144.928 88.656 142.896 87.808C143.52 87.168 144.576 85.968 145.344 83.52H148.176V82.256H139.504C140.08 81.088 140.288 80.56 140.464 80.128L138.992 79.856C138.8 80.416 138.528 81.168 137.968 82.256H133.424V83.52H137.28C136.4 85.04 135.616 85.968 135.136 86.528C137.632 87.216 139.056 87.696 140.352 88.208C138.352 89.312 135.952 89.712 133.808 89.904L134.272 91.312C138.432 90.88 140.896 89.424 141.776 88.784C144.4 89.92 145.824 90.864 146.544 91.344L147.424 90.096ZM143.936 83.52C143.76 84.048 143.152 85.888 141.616 87.296C140.016 86.688 138.416 86.224 137.264 85.888C137.584 85.472 138.048 84.864 138.816 83.52H143.936ZM133.808 77.936V81.424H135.168V79.168H146.448V81.424H147.808V77.936H141.456V76.496H140.08V77.936H133.808ZM157.4 82.272C156.504 82.272 155.752 82.992 155.752 83.92C155.752 84.816 156.472 85.568 157.4 85.568C158.328 85.568 159.048 84.8 159.048 83.92C159.048 83.024 158.312 82.272 157.4 82.272ZM167.376 84.432C167.728 83.12 167.872 81.04 167.888 79.936L166.864 79.84C166.864 80.64 166.768 82.48 166.32 83.92L167.376 84.432ZM168.544 76.496V91.344H169.84V76.496H168.544ZM171.792 81.84C171.712 81.568 171.36 80.336 170.96 79.424L170 79.808C170.336 80.64 170.592 81.584 170.72 82.256L171.792 81.84ZM180.928 82.128H179.664V89.856H172.88V82.128H171.616V91.008H180.928V82.128ZM177.552 81.664C177.184 82.88 176.848 83.536 176.432 84.32C175.632 83.504 175.152 83.056 174.432 82.512L173.6 83.328C174.56 84.112 175.088 84.64 175.792 85.376C175.072 86.448 174.448 87.232 173.312 88.144L174.192 89.056C175.6 87.84 176.16 87.072 176.656 86.352C177.152 86.912 177.536 87.392 178.24 88.448L179.184 87.6C178.736 86.912 178.336 86.352 177.344 85.28C177.808 84.464 178.224 83.68 178.688 82.16L177.552 81.664ZM177.104 79.792C176.72 78.304 176.016 76.912 175.824 76.528L174.64 76.864C174.736 77.056 175.552 78.752 175.872 80.176L177.104 79.792ZM179.456 81.2C180.24 80.112 181.024 78.496 181.392 77.312L180.192 76.784C180 77.344 179.424 79.088 178.352 80.64L179.456 81.2ZM174.096 80.416C173.696 79.36 173.008 78.112 172.336 77.2L171.232 77.664C171.936 78.672 172.544 79.92 172.912 80.864L174.096 80.416ZM190.872 90.784C194.28 89.568 195.096 86.896 195.48 85.328C196.28 85.68 196.552 85.824 197.272 86.256L197.752 84.816C196.76 84.272 195.832 83.92 195.784 83.904C196.024 82.624 196.152 81.232 196.264 80.08L194.744 79.968C194.712 80.704 194.632 81.84 194.392 83.408C192.936 82.928 191.88 82.672 190.536 82.56C191.064 79.408 191.112 79.056 191.32 77.456H184.696V78.848L189.704 78.8C189.608 79.936 189.4 81.36 189.176 82.512C183.944 82.72 183.656 86.16 183.656 86.944C183.656 88.656 184.776 89.68 186.312 89.68C188.728 89.68 189.432 87.392 190.296 83.824C191.736 83.952 193.096 84.368 194.136 84.768C193.576 87.088 192.744 88.688 189.992 89.68L190.872 90.784ZM188.936 83.744C188.088 87.216 187.656 88.416 186.216 88.416C185 88.416 184.92 87.168 184.92 86.864C184.92 85.776 185.576 84.736 186.616 84.224C187.32 83.872 187.992 83.776 188.936 83.744ZM207.2 82.272C206.304 82.272 205.552 82.992 205.552 83.92C205.552 84.816 206.272 85.568 207.2 85.568C208.128 85.568 208.848 84.8 208.848 83.92C208.848 83.024 208.112 82.272 207.2 82.272ZM216.36 77.872V79.12H219.928V80.752H221.224V79.12H226.344V80.752H227.624V79.12H231.24V77.872H227.624V76.48H226.344V77.872H221.224V76.48H219.928V77.872H216.36ZM231.24 81.776H224.424V80.016H223.096V81.776H216.36V83.008H223.096V85.072H217.976V91.04H229.592V85.072H224.424V83.008H231.24V81.776ZM228.264 89.872H219.304V86.256H228.264V89.872ZM243.52 83.008C243.408 82.928 243.264 82.816 243.168 82.752C243.536 82.576 245.184 81.808 246.624 80.64V79.792H237.408V80.752H244.464C243.6 81.392 243.152 81.648 242.192 82.128C241.952 81.968 241.088 81.456 240.208 81.056L239.44 81.92C240.496 82.352 241.088 82.656 241.568 83.008H237.696V91.36H238.944V88.704H241.76V91.312H242.992V88.704H245.984V89.712C245.984 90 245.84 90.048 245.616 90.048H244.288L244.528 91.36H246.112C247.216 91.36 247.216 90.56 247.216 90.08V83.008H243.52ZM241.76 85.328H238.944V84.032H241.76V85.328ZM241.76 87.696H238.944V86.32H241.76V87.696ZM245.984 85.328H242.992V84.032H245.984V85.328ZM245.984 87.696H242.992V86.32H245.984V87.696ZM235.456 83.392C235.456 83.76 235.44 83.984 235.424 84.208C235.28 84.304 234.112 84.944 232.848 85.424L233.168 86.736C233.728 86.448 234.272 86.176 235.328 85.536C235.04 87.936 234.576 89.184 233.44 90.512L234.496 91.408C235.216 90.544 236.704 88.768 236.704 83.136V78.896H247.76V77.76H241.904V76.464H240.56V77.76H235.456V83.392ZM235.088 81.888C234.88 81.056 234.448 79.872 233.984 79.008L232.928 79.584C233.296 80.304 233.76 81.52 233.984 82.432L235.088 81.888ZM255.896 78.624C256.12 77.824 256.2 77.456 256.296 76.896L254.76 76.832C254.648 77.744 254.536 78.208 254.424 78.624H250.744V79.904H254.04C253.016 82.896 251.736 84.592 250.328 85.92L251.32 86.992C251.832 86.464 252.888 85.056 253.624 84.048C254.744 82.912 255.912 82.416 256.792 82.416C257.528 82.416 257.976 82.736 258.152 83.68C256.568 84.384 253.704 85.824 253.704 88C253.704 90.576 257.32 90.576 259.128 90.576C260.648 90.576 262.04 90.48 262.952 90.416L262.904 89.04C261.464 89.2 259.96 89.264 258.68 89.264C256.92 89.264 255.144 89.264 255.144 87.856C255.144 86.544 257.08 85.52 258.312 84.944C258.344 85.36 258.344 85.632 258.344 85.904C258.344 86.48 258.296 87.072 258.264 87.44H259.656C259.704 86.928 259.704 86.448 259.704 86.224C259.704 85.648 259.688 84.96 259.64 84.4C261.4 83.728 262.536 83.376 263.832 83.008L263.448 81.616C262.008 82.112 259.816 82.992 259.448 83.136C259.128 81.616 258.104 81.264 257.016 81.264C256.216 81.264 255.576 81.536 254.456 82.208C254.92 81.408 255.144 80.88 255.512 79.904H262.568V78.624H255.896ZM270.512 78.176C271.456 78.016 271.968 77.888 272.832 77.664L272.352 76.496C270.272 77.056 268.496 77.296 266.16 77.36L266.432 78.56C267.728 78.512 268.384 78.448 269.216 78.352V80.704H266.128V81.888H269.056C268.56 83.024 267.568 85.104 265.92 86.72L266.496 88.24C267.984 86.624 268.784 85.12 269.216 84.16V91.344H270.512V83.856C271.104 84.944 271.712 85.792 272.464 86.528L273.12 85.264C271.808 84.144 270.928 82.736 270.512 81.936V81.888H273.088V80.704H270.512V78.176ZM280.48 77.52H273.664V90.912H280.48V77.52ZM279.168 89.664H274.944V78.736H279.168V89.664ZM294.2 78.032C291.752 77.232 289.016 77.088 287.64 77.024L287.384 78.4C289.544 78.48 291.896 78.784 293.8 79.552L294.2 78.032ZM285.432 79.312C285.224 80.144 285.08 81.024 285.016 82.512C285 82.992 284.952 85.392 284.952 85.936L286.376 85.984C286.392 85.904 286.408 85.856 286.456 85.696C287.512 84.304 289.656 83.392 291.8 83.392C293.912 83.392 294.76 84.544 294.76 85.792C294.76 86.448 294.584 87.2 294.136 87.68C293.176 88.736 291.256 89.168 289.048 89.168C287.976 89.168 287 89.072 285.928 88.88L286.088 90.288C286.744 90.384 287.688 90.512 289.16 90.512C292.584 90.512 296.28 89.648 296.28 85.808C296.28 84.48 295.592 82.096 291.88 82.096C289.8 82.096 288.008 82.768 286.376 84.064C286.376 81.712 286.504 80.784 286.872 79.568L285.432 79.312ZM305.344 90.8C308.736 90.144 310.704 88.976 310.704 83.824C310.704 83.552 310.672 82.464 310.656 82.032H313.504V80.688H310.576C310.544 80.192 310.416 77.872 310.368 77.248L308.992 77.28C309.04 78.128 309.12 79.968 309.152 80.688H303.76V82.032H309.2C309.216 82.528 309.232 83.28 309.232 83.616C309.232 87.984 307.888 88.912 304.816 89.504L305.344 90.8ZM310.624 76.592C311.136 77.76 311.408 78.736 311.6 79.904L312.752 79.488C312.448 78.208 312.256 77.44 311.696 76.224L310.624 76.592ZM312.8 76.176C313.312 77.344 313.536 78.128 313.776 79.472L314.928 79.056C314.56 77.536 314.432 77.008 313.872 75.792L312.8 76.176ZM300.992 77.28C300.672 79.664 300.512 82.064 300.512 84.464C300.512 86.448 300.592 88.448 301.008 90.4L302.496 90.208C302.064 88.192 301.952 86.176 301.952 84.32C301.952 80.992 302.32 78.624 302.528 77.376L300.992 77.28ZM324.52 78.848V77.168H323.112V78.848H317.032V80.08H323.112V82.064H317.272V83.28H323.112V85.168C322.776 85.104 322.232 85.008 321.512 85.008C319.128 85.008 317.48 86.224 317.48 87.904C317.48 88.928 318.152 90.592 321.272 90.592C322.616 90.592 324.52 90.16 324.52 87.872V86.96C325.4 87.36 326.808 88.096 328.36 89.808L329.304 88.432C327.624 87.024 326.216 86.144 324.52 85.52V83.28H329.32V82.064H324.52V80.08H329.624V78.848H324.52ZM323.112 87.584C323.112 88.848 322.488 89.344 321.096 89.344C318.984 89.344 318.824 88.16 318.824 87.856C318.824 86.8 320.024 86.192 321.512 86.192C322.328 86.192 322.792 86.32 323.112 86.416V87.584ZM10.512 102.8V101.008H9.04L9.072 102.8H1.2V104.128H9.088L9.104 105.856C8.768 105.568 8.384 105.216 7.312 105.216C5.328 105.216 4 106.592 4 108.464C4 110.016 4.992 111.6 6.976 111.6C8.816 111.6 9.344 110.4 9.504 110.064C9.296 111.968 8.112 113.44 3.84 113.392L4.288 114.736C7.072 114.624 10.816 113.856 10.816 109.632C10.816 109.216 10.784 108.8 10.72 108.4C10.672 108.016 10.592 107.648 10.512 107.344V104.128H14.704V102.8H10.512ZM9.136 108.576C9.136 109.632 8.304 110.432 7.168 110.432C5.68 110.432 5.344 109.072 5.344 108.4C5.344 106.928 6.464 106.416 7.344 106.416C8.752 106.416 9.008 107.36 9.136 107.872V108.576ZM20.136 110.048C18.824 110.048 17.752 111.104 17.752 112.432C17.752 113.744 18.808 114.816 20.136 114.816C21.448 114.816 22.52 113.744 22.52 112.432C22.52 111.088 21.432 110.048 20.136 110.048ZM20.136 110.848C20.984 110.848 21.704 111.536 21.704 112.432C21.704 113.296 21 114 20.136 114C19.256 114 18.552 113.296 18.552 112.432C18.552 111.552 19.272 110.848 20.136 110.848Z" fill="black"/>
</svg>
