<svg width="352" height="60" viewBox="0 0 352 60" fill="none" xmlns="http://www.w3.org/2000/svg">
<path d="M2.304 5.94H6.144V4.884H7.128V5.94H11.592V6.84H3.264V10.056C3.264 13.716 1.884 15.324 1.332 15.984L0.516 15.312C0.924 14.88 1.896 13.836 2.22 11.52C1.476 11.964 0.828 12.264 0.528 12.396L0.252 11.412C1.044 11.148 1.212 11.064 2.304 10.572V5.94ZM1.944 8.856L1.08 9.288C0.84 8.064 0.504 7.464 0.324 7.14L1.128 6.732C1.56 7.5 1.764 8.1 1.944 8.856ZM11.328 8.1V8.976H8.076V11.196H10.944V12.072H8.076V14.82H11.532V15.72H2.856V14.82H4.416V10.116H5.412V14.82H7.104V8.976H3.732V8.1H11.328ZM24.126 15L23.55 15.948C21.546 14.676 20.706 12.792 20.118 11.064C19.674 12.672 18.882 14.496 16.758 15.996L16.194 15.096C17.67 14.148 18.558 12.948 19.086 10.968C19.254 10.344 19.386 9.708 19.434 9.072H16.482V8.112H19.47V4.884H20.502V8.112H23.982V9.072H20.55C21.306 13.212 23.382 14.532 24.126 15ZM14.97 4.884H15.966V15.996H14.97V12.216C14.526 12.6 13.47 13.26 12.978 13.5L12.678 12.432C13.026 12.24 14.07 11.664 14.97 11.004V4.884ZM14.61 8.796L13.71 9.18C13.434 8.184 13.23 7.68 12.762 6.792L13.626 6.408C14.022 7.116 14.394 7.98 14.61 8.796ZM23.406 7.068L22.578 7.572C22.314 7.104 21.738 6.204 21.15 5.58L21.906 5.076C22.734 5.94 23.214 6.756 23.406 7.068ZM29.532 16.056L29.04 15.18C29.592 15.036 31.608 14.496 32.136 12.636H29.7V9.312H32.4V8.208H30.792V7.776C30.252 8.172 29.916 8.352 29.604 8.508L29.124 7.644C30.516 6.924 31.356 6.18 32.28 4.848H33.456C33.924 5.64 34.644 6.6 36.684 7.632L36.156 8.496C35.664 8.208 35.364 8.016 35.028 7.764V8.208H33.348V9.312H36.048V12.636H33.696C34.44 14.328 35.796 14.844 36.648 15.12L36.168 16.02C34.176 15.336 33.276 13.848 32.964 13.08C32.148 15.18 30.312 15.816 29.532 16.056ZM33.348 10.14V10.416C33.348 11.172 33.324 11.484 33.276 11.808H35.124V10.14H33.348ZM32.4 10.44V10.14H30.648V11.808H32.328C32.376 11.484 32.4 11.136 32.4 10.44ZM31.26 7.38H34.536C33.78 6.756 33.156 5.952 32.868 5.58C32.58 5.94 31.956 6.744 31.26 7.38ZM29.496 10.932L29.004 11.832C28.536 11.172 28.26 10.728 27.972 10.008V16.008H27.024V10.248C26.724 11.376 26.244 12.444 25.56 13.38L25.14 12.192C25.584 11.616 26.328 10.656 26.952 8.112H25.344V7.2H27.024V4.872H27.972V7.2H29.016V8.112H27.972V8.568C28.14 9 28.572 9.936 29.496 10.932ZM44.73 8.772L45.582 9.324C44.946 10.044 44.454 10.488 42.918 11.832C43.746 11.796 44.022 11.784 46.458 11.7C45.822 11.148 45.63 11.016 45.342 10.812L46.038 10.188C47.658 11.364 48.438 12.3 48.774 12.696L48.09 13.38C47.898 13.128 47.706 12.888 47.274 12.468L43.854 12.648V15.984H42.858V12.696C42.078 12.708 38.598 12.78 37.89 12.78L37.818 11.856C38.406 11.868 41.022 11.844 41.562 11.832C41.79 11.652 41.874 11.58 41.982 11.484C41.766 11.304 40.818 10.608 39.546 9.996L40.158 9.264C40.386 9.384 40.518 9.444 40.95 9.72C41.55 9.156 41.742 8.892 41.958 8.592H38.982V10.008H37.998V7.728H42.858V6.708H38.046V5.82H42.858V4.896H43.842V5.82H48.702V6.708H43.842V7.728H48.702V10.008H47.706V8.592H43.23C42.606 9.42 41.754 10.152 41.706 10.2C42.294 10.584 42.522 10.764 42.654 10.872C43.938 9.708 44.406 9.144 44.73 8.772ZM38.37 15.864L37.746 15.072C38.094 14.916 39.642 14.232 40.698 13.02L41.478 13.56C40.374 14.856 39.006 15.552 38.37 15.864ZM45.054 13.512L45.75 12.936C46.686 13.86 47.586 14.424 48.978 14.952L48.366 15.804C46.518 14.976 45.618 14.1 45.054 13.512ZM56.352 7.356V13.524H60.78V14.592H50.808V13.524H55.212V7.356H51.456V6.312H60.132V7.356H56.352ZM67.866 7.776L67.266 8.784C66.558 8.304 65.298 7.596 63.57 7.056L64.11 6.096C66.234 6.732 67.554 7.584 67.866 7.776ZM64.038 15.192L63.822 13.992C69.894 13.668 71.682 9.42 72.51 6.732L73.446 7.428C72.87 9.132 70.95 14.736 64.038 15.192ZM80.808 6.996L80.352 7.992C79.248 7.38 78.096 6.948 76.86 6.6L77.292 5.688C78.684 6 79.86 6.54 80.808 6.996ZM79.824 9.804L79.38 10.824C78.756 10.464 77.664 9.9 75.936 9.396L76.356 8.448C77.46 8.712 78.9 9.264 79.824 9.804ZM82.74 5.028L83.52 4.632C84 5.352 84.228 5.904 84.624 6.96L83.784 7.38C83.46 6.384 83.292 5.976 82.74 5.028ZM84.744 4.908L85.536 4.536C85.92 5.148 86.244 5.796 86.604 6.876L85.752 7.284C85.452 6.324 85.26 5.82 84.744 4.908ZM76.824 15.264L76.56 14.088C81.336 13.62 83.352 11.808 84.672 7.644L85.608 8.328C84.048 12.78 81.72 14.628 76.824 15.264ZM92.766 7.776L92.166 8.784C91.458 8.304 90.198 7.596 88.47 7.056L89.01 6.096C91.134 6.732 92.454 7.584 92.766 7.776ZM88.938 15.192L88.722 13.992C94.794 13.668 96.582 9.42 97.41 6.732L98.346 7.428C97.77 9.132 95.85 14.736 88.938 15.192ZM108.996 15.972H108.036V4.728H111.3V5.688H108.996V15.972ZM120.066 13.404H123.102V14.472H112.938V13.404H118.914C119.574 10.92 119.802 8.388 119.874 7.524H114.462V6.456H121.098C121.014 7.392 120.774 10.416 120.066 13.404ZM127.56 5.7V9.42C129.696 8.928 131.352 8.364 133.152 7.44L133.644 8.448C131.016 9.648 128.82 10.2 127.56 10.464V13.116C127.56 13.98 127.776 14.076 129.144 14.076H132.228C133.188 14.076 134.148 14.028 134.916 13.884L134.976 14.964C134.244 15.084 133.104 15.12 132.348 15.12H128.988C127.2 15.12 126.456 14.82 126.456 13.296V5.7H127.56ZM132.78 5.34L133.548 4.908C134.088 5.664 134.388 6.276 134.772 7.164L133.956 7.644C133.596 6.696 133.32 6.168 132.78 5.34ZM134.616 4.776L135.384 4.344C135.912 5.064 136.248 5.76 136.596 6.612L135.78 7.08C135.42 6.12 135.216 5.688 134.616 4.776ZM137.79 9.864H148.11V11.004H137.79V9.864ZM152.004 4.908H152.964V16.152H149.7V15.192H152.004V4.908ZM170.49 7.476H172.734V8.508H170.49L170.526 11.676C171.498 12.156 172.386 12.84 172.938 13.428L172.23 14.4C171.75 13.764 171.15 13.26 170.49 12.84V13.284C170.49 13.968 170.478 15.324 168.186 15.324C166.314 15.324 165.618 14.232 165.618 13.26C165.618 12.012 166.722 11.16 168.246 11.16C168.846 11.16 169.146 11.244 169.482 11.34L169.434 8.508H165.81V7.476H169.41L169.374 5.448H170.466L170.49 7.476ZM169.482 13.068V12.324C169.206 12.204 168.87 12.06 168.258 12.06C167.454 12.06 166.578 12.372 166.578 13.272C166.578 14.196 167.49 14.424 168.126 14.424C169.434 14.424 169.482 13.716 169.482 13.068ZM163.518 5.424L164.634 5.508C164.406 6.708 164.118 8.328 164.118 11.016C164.118 12.42 164.178 13.836 164.49 15.204L163.41 15.348C163.122 13.896 163.074 12.408 163.074 10.932C163.074 9.036 163.194 7.296 163.518 5.424ZM183.696 15.972H182.736V4.728H186V5.688H183.696V15.972ZM193.674 4.872H194.646V5.628H198.27V6.444H196.458C196.338 6.852 196.242 7.128 196.074 7.536H197.826V13.404C197.826 13.98 197.562 14.328 196.938 14.328H195.666L195.534 13.416L196.65 13.428C196.806 13.428 196.914 13.404 196.914 13.128V8.316H194.598V9.216H196.542V9.96H194.598V10.788H196.134V13.272H192.198V10.788H193.722V9.96H191.766V9.216H193.722V8.316H191.394V14.172H190.482V7.536H192.138C192.09 7.344 191.874 6.54 191.838 6.444H190.086V5.628H193.674V4.872ZM193.002 7.536H195.234C195.366 7.224 195.546 6.6 195.582 6.444H192.738C192.882 7.008 192.894 7.068 193.002 7.536ZM195.306 12.54V11.508H193.014V12.54H195.306ZM192.246 14.796H198.426L198.234 15.72H192.234C190.266 15.72 189.522 14.712 189.258 14.364C188.49 15.24 188.43 15.312 187.578 16.056L187.098 15.036C187.314 14.904 187.998 14.46 188.526 13.896V10.512H187.23V9.528H189.474V13.164C189.714 14.628 191.898 14.796 192.246 14.796ZM189.906 7.032L189.126 7.668C188.91 7.344 188.49 6.696 187.41 5.64L188.07 5.04C188.634 5.52 189.33 6.228 189.906 7.032ZM200.724 8.232V4.884H201.696V8.064L204.276 7.644L204.336 8.628L201.696 9.06V12.66C201.696 12.924 201.756 13.008 202.056 13.008H202.8C203.316 13.008 203.4 11.64 203.424 11.184L204.396 11.412C204.204 12.984 203.976 13.932 202.992 13.932H201.588C201.024 13.932 200.724 13.632 200.724 13.056V9.216L199.548 9.408L199.488 8.436L200.724 8.232ZM204 5.4H210.432C210.432 8.328 210.432 13.716 209.772 15.132C209.628 15.432 209.304 15.984 208.236 15.984H206.496L206.28 14.964L208.068 14.976C208.188 14.976 208.584 14.988 208.788 14.652C209.424 13.62 209.424 7.74 209.424 6.372H207.156C207.108 11.616 206.28 13.992 202.956 16.02L202.26 15.156C205.764 13.284 206.148 10.584 206.148 6.372H204V5.4ZM220.398 8.688L220.458 11.604C221.466 12.048 222.426 12.792 223.014 13.44L222.354 14.388C221.574 13.452 220.842 13.008 220.41 12.756V13.248C220.41 15.024 219.198 15.456 218.01 15.456C216.21 15.456 215.322 14.46 215.322 13.344C215.322 12.444 216.018 11.112 218.142 11.112C218.742 11.112 219.126 11.196 219.39 11.256L219.318 8.688H220.398ZM219.414 13.056V12.252C219.138 12.156 218.778 12.024 218.142 12.024C216.918 12.024 216.342 12.636 216.342 13.308C216.342 14.52 217.818 14.52 218.046 14.52C219.234 14.52 219.414 13.872 219.414 13.056ZM215.85 6.84H218.37V7.848H215.646C214.962 11.196 213.978 13.2 213.546 14.088L212.442 13.608C213.726 11.544 214.254 9.192 214.566 7.848H212.538V6.84H214.758C214.89 6.012 214.926 5.748 214.974 5.268L216.114 5.316C216.018 5.892 216.006 5.964 215.85 6.84ZM222.81 7.776L222.306 8.736C221.094 8.004 220.194 7.572 219.114 7.176L219.534 6.288C220.734 6.708 221.538 7.068 222.81 7.776ZM225.888 10.404L225.18 9.564C226.608 8.676 227.664 7.56 228.384 5.964H234.588C234.372 7.92 233.748 13.656 226.548 15.528L226.032 14.532C228 14.064 229.86 13.176 231.228 11.676C230.232 10.824 229.176 10.08 227.412 9.192C227.064 9.54 226.728 9.876 225.888 10.404ZM233.352 6.96H229.104C228.612 7.8 228.396 8.076 228.072 8.472C229.32 9.096 230.7 9.84 231.888 10.86C232.524 9.924 233.076 8.82 233.352 6.96ZM243.834 9.072V15.516H242.682V9.924C241.05 11.064 239.49 11.784 237.954 12.324L237.426 11.328C240.846 10.26 243.798 8.088 246.03 5.28L247.038 5.94C246.51 6.564 245.514 7.728 243.834 9.072ZM259.044 6.612L258.84 7.716C256.332 7.044 253.992 6.696 251.016 6.54L251.196 5.544C254.088 5.712 256.248 5.976 259.044 6.612ZM258.42 10.248L258.228 11.292C255.876 10.548 253.932 10.212 250.932 9.984L251.136 8.988C254.52 9.24 256.428 9.648 258.42 10.248ZM259.536 14.316L259.236 15.456C256.68 14.628 254.484 14.148 250.212 13.824L250.428 12.804C255.192 13.044 258.216 13.932 259.536 14.316ZM267.066 7.776L266.466 8.784C265.758 8.304 264.498 7.596 262.77 7.056L263.31 6.096C265.434 6.732 266.754 7.584 267.066 7.776ZM263.238 15.192L263.022 13.992C269.094 13.668 270.882 9.42 271.71 6.732L272.646 7.428C272.07 9.132 270.15 14.736 263.238 15.192ZM275.676 15.624L275.22 14.604C279.876 13.68 281.736 10.86 282.42 7.248H278.256C277.464 8.508 276.576 9.492 275.22 10.404L274.536 9.588C275.472 8.952 276.696 7.92 277.536 6.24H282.336L283.452 7.716C282.456 12.288 279.948 14.664 275.676 15.624ZM283.956 4.8L284.676 4.344C285.288 5.124 285.492 5.544 285.996 6.552L285.228 7.056C284.82 6.132 284.58 5.652 283.956 4.8ZM282.36 5.268L283.068 4.8C283.68 5.556 283.92 5.988 284.424 6.984L283.668 7.5C283.248 6.564 282.948 6.048 282.36 5.268ZM294.018 9L294.798 8.52C295.35 9.228 295.698 9.876 296.118 10.788L295.278 11.316C294.882 10.356 294.582 9.792 294.018 9ZM295.794 8.232L296.574 7.752C297.15 8.496 297.462 9.084 297.894 10.02L297.054 10.548C296.646 9.576 296.37 9.06 295.794 8.232ZM297.258 5.976L297.282 7.08C296.766 7.044 296.394 7.032 296.058 7.032C295.47 7.032 295.206 7.056 294.846 7.176C293.118 7.752 290.766 9.612 290.766 11.676C290.766 13.236 291.918 13.728 293.19 13.992C293.958 14.148 295.146 14.244 296.214 14.208L295.998 15.372C293.634 15.276 289.65 15.108 289.65 11.748C289.65 9.468 291.75 7.896 293.166 7.068C292.818 7.08 288.666 7.332 287.358 7.488L287.262 6.312C287.85 6.3 289.926 6.204 290.538 6.168C293.382 6.012 294.51 5.988 297.258 5.976ZM305.1 15.372L304.74 14.328C305.976 14.196 308.892 13.848 308.892 10.416C308.892 9.468 308.604 6.828 305.304 6.72C305.196 8.112 304.956 11.064 303.72 13.044C303.012 14.16 302.244 14.436 301.704 14.436C300.528 14.436 299.544 13.044 299.544 11.064C299.544 7.8 301.92 5.712 305.088 5.712C308.976 5.712 310.02 8.4 310.02 10.428C310.02 11.856 309.504 13.272 308.412 14.184C307.632 14.832 306.432 15.24 305.1 15.372ZM304.236 6.768C303.528 6.9 302.868 7.08 302.256 7.536C301.14 8.352 300.588 9.696 300.588 11.088C300.588 11.904 300.888 13.284 301.74 13.284C302.244 13.284 302.604 12.84 302.916 12.312C303.924 10.584 304.116 8.148 304.236 6.768ZM318.174 4.872H319.146V5.628H322.77V6.444H320.958C320.838 6.852 320.742 7.128 320.574 7.536H322.326V13.404C322.326 13.98 322.062 14.328 321.438 14.328H320.166L320.034 13.416L321.15 13.428C321.306 13.428 321.414 13.404 321.414 13.128V8.316H319.098V9.216H321.042V9.96H319.098V10.788H320.634V13.272H316.698V10.788H318.222V9.96H316.266V9.216H318.222V8.316H315.894V14.172H314.982V7.536H316.638C316.59 7.344 316.374 6.54 316.338 6.444H314.586V5.628H318.174V4.872ZM317.502 7.536H319.734C319.866 7.224 320.046 6.6 320.082 6.444H317.238C317.382 7.008 317.394 7.068 317.502 7.536ZM319.806 12.54V11.508H317.514V12.54H319.806ZM316.746 14.796H322.926L322.734 15.72H316.734C314.766 15.72 314.022 14.712 313.758 14.364C312.99 15.24 312.93 15.312 312.078 16.056L311.598 15.036C311.814 14.904 312.498 14.46 313.026 13.896V10.512H311.73V9.528H313.974V13.164C314.214 14.628 316.398 14.796 316.746 14.796ZM314.406 7.032L313.626 7.668C313.41 7.344 312.99 6.696 311.91 5.64L312.57 5.04C313.134 5.52 313.83 6.228 314.406 7.032ZM325.224 8.232V4.884H326.196V8.064L328.776 7.644L328.836 8.628L326.196 9.06V12.66C326.196 12.924 326.256 13.008 326.556 13.008H327.3C327.816 13.008 327.9 11.64 327.924 11.184L328.896 11.412C328.704 12.984 328.476 13.932 327.492 13.932H326.088C325.524 13.932 325.224 13.632 325.224 13.056V9.216L324.048 9.408L323.988 8.436L325.224 8.232ZM328.5 5.4H334.932C334.932 8.328 334.932 13.716 334.272 15.132C334.128 15.432 333.804 15.984 332.736 15.984H330.996L330.78 14.964L332.568 14.976C332.688 14.976 333.084 14.988 333.288 14.652C333.924 13.62 333.924 7.74 333.924 6.372H331.656C331.608 11.616 330.78 13.992 327.456 16.02L326.76 15.156C330.264 13.284 330.648 10.584 330.648 6.372H328.5V5.4ZM344.898 8.688L344.958 11.604C345.966 12.048 346.926 12.792 347.514 13.44L346.854 14.388C346.074 13.452 345.342 13.008 344.91 12.756V13.248C344.91 15.024 343.698 15.456 342.51 15.456C340.71 15.456 339.822 14.46 339.822 13.344C339.822 12.444 340.518 11.112 342.642 11.112C343.242 11.112 343.626 11.196 343.89 11.256L343.818 8.688H344.898ZM343.914 13.056V12.252C343.638 12.156 343.278 12.024 342.642 12.024C341.418 12.024 340.842 12.636 340.842 13.308C340.842 14.52 342.318 14.52 342.546 14.52C343.734 14.52 343.914 13.872 343.914 13.056ZM340.35 6.84H342.87V7.848H340.146C339.462 11.196 338.478 13.2 338.046 14.088L336.942 13.608C338.226 11.544 338.754 9.192 339.066 7.848H337.038V6.84H339.258C339.39 6.012 339.426 5.748 339.474 5.268L340.614 5.316C340.518 5.892 340.506 5.964 340.35 6.84ZM347.31 7.776L346.806 8.736C345.594 8.004 344.694 7.572 343.614 7.176L344.034 6.288C345.234 6.708 346.038 7.068 347.31 7.776ZM6.912 30.2H10.836V31.088H7.476C7.884 31.856 9.156 32.972 11.1 33.404L10.572 34.328C7.86 33.488 6.9 31.964 6.6 31.28C5.808 33.104 4.272 33.884 2.904 34.34L2.328 33.464C2.928 33.32 4.836 32.852 5.688 31.088H2.484V30.2H5.976C6.036 29.828 6.096 29.456 6.096 28.592H4.332C3.924 29.156 3.648 29.456 3.18 29.876L2.424 29.228C3.276 28.544 3.984 27.668 4.356 26.504L5.316 26.708C5.124 27.188 5.028 27.392 4.86 27.716H10.332V28.592H7.032C7.032 29.288 6.996 29.684 6.912 30.2ZM0.84 25.268H11.244V26.192H1.86V34.844H11.496V35.756H0.84V25.268ZM22.746 30.704V33.284H20.106V35.216C20.106 35.96 19.59 35.984 19.218 35.984H17.922L17.718 35.12H18.858C19.098 35.12 19.134 35.072 19.134 34.832V33.284H16.554V30.788C16.302 30.944 16.218 30.992 15.954 31.148L15.426 30.428C15.846 30.224 16.158 30.068 16.566 29.792C16.17 29.372 16.134 29.336 15.798 29.072L16.35 28.568C16.734 28.856 17.07 29.228 17.178 29.348C17.55 29.048 17.85 28.736 18.186 28.292H15.762V27.536H18.642C18.762 27.272 18.822 27.116 18.918 26.84L19.866 26.948C19.746 27.248 19.698 27.368 19.614 27.536H23.982V28.292H21.186C21.426 28.592 21.726 28.988 22.302 29.432C22.65 29.06 22.938 28.7 23.07 28.52L23.742 28.928C23.37 29.408 22.95 29.816 22.926 29.852C23.466 30.152 23.79 30.272 24.126 30.392L23.67 31.196C23.346 31.04 23.118 30.932 22.746 30.704ZM21.87 31.172V30.452H17.43V31.172H21.87ZM17.922 29.756H21.462C20.766 29.132 20.466 28.676 20.202 28.292H19.182C19.038 28.52 18.702 29.048 17.922 29.756ZM21.87 32.588V31.832H17.43V32.588H21.87ZM14.43 29.912V25.844H18.57V24.872H19.554V25.844H24.018V26.684H15.378V29.948C15.378 33.896 14.082 35.444 13.602 36.02L12.87 35.372C13.41 34.7 14.07 33.836 14.334 31.604C13.734 32 13.278 32.228 12.918 32.408L12.714 31.424C13.542 31.1 13.818 30.968 14.418 30.668C14.418 30.476 14.43 30.248 14.43 29.912ZM14.178 28.88L13.338 29.276C13.206 28.556 12.99 27.788 12.714 27.104L13.458 26.744C13.806 27.428 14.058 28.268 14.178 28.88ZM15.45 35.804L14.922 35C15.882 34.676 16.47 34.352 17.322 33.536L18.018 34.112C16.998 35.108 16.254 35.504 15.45 35.804ZM21.078 34.124L21.714 33.488C22.578 34.316 23.082 34.604 24.198 35L23.67 35.816C22.746 35.492 21.726 34.856 21.078 34.124ZM34.884 28.112L34.992 29.264C34.02 29.372 27.54 30.104 27.54 32.768C27.54 34.16 29.004 34.292 31.584 34.292C33.564 34.292 34.68 34.184 35.364 34.112L35.388 35.24C34.608 35.288 33.552 35.36 31.824 35.36C29.748 35.36 26.424 35.36 26.424 32.804C26.424 30.752 28.896 29.72 29.736 29.36C29.34 28.58 29.316 27.884 29.28 25.328H30.456C30.444 25.652 30.432 25.988 30.432 26.576C30.432 27.848 30.492 28.484 30.744 29C32.04 28.604 33.024 28.412 34.884 28.112ZM43.65 35.372L43.29 34.328C44.526 34.196 47.442 33.848 47.442 30.416C47.442 29.468 47.154 26.828 43.854 26.72C43.746 28.112 43.506 31.064 42.27 33.044C41.562 34.16 40.794 34.436 40.254 34.436C39.078 34.436 38.094 33.044 38.094 31.064C38.094 27.8 40.47 25.712 43.638 25.712C47.526 25.712 48.57 28.4 48.57 30.428C48.57 31.856 48.054 33.272 46.962 34.184C46.182 34.832 44.982 35.24 43.65 35.372ZM42.786 26.768C42.078 26.9 41.418 27.08 40.806 27.536C39.69 28.352 39.138 29.696 39.138 31.088C39.138 31.904 39.438 33.284 40.29 33.284C40.794 33.284 41.154 32.84 41.466 32.312C42.474 30.584 42.666 28.148 42.786 26.768ZM51.084 25.76H52.104V29.24H55.284V24.872H56.292V29.24H59.496V25.76H60.516V30.164H56.292V34.844H59.892V31.088H60.912V35.768H50.676V31.088H51.684V34.844H55.284V30.164H51.084V25.76ZM69.582 32.48L70.374 31.94C71.658 33.2 72.39 34.04 73.314 35.504L72.45 36.08C72.258 35.756 72.114 35.528 71.862 35.156C69.858 35.444 64.962 35.66 63.114 35.66L63.006 34.676H64.662C65.418 33.38 65.874 32.264 66.138 31.568H62.85V30.644H73.566V31.568H67.302C67.014 32.228 66.534 33.272 65.754 34.652C66.054 34.64 67.398 34.604 67.65 34.592C69.114 34.532 70.35 34.424 71.238 34.34C71.118 34.184 70.518 33.428 69.582 32.48ZM71.43 28.436V29.096H65.082V28.424C64.014 29.084 63.354 29.372 62.946 29.54L62.454 28.568C66.03 27.164 67.374 25.22 67.698 24.74H68.766C70.014 26.408 71.922 27.86 74.01 28.604L73.482 29.564C72.954 29.324 72.282 29.012 71.43 28.436ZM65.454 28.184H71.046C69.354 26.984 68.658 26.12 68.238 25.592C67.482 26.648 66.462 27.488 65.454 28.184ZM76.056 25.892L77.196 25.988C77.1 26.708 76.944 27.8 76.944 29.42C76.944 31.28 77.088 33.908 78.432 33.908C78.972 33.908 79.596 33.416 80.424 31.256L81.312 31.76C80.916 32.876 80.364 33.884 79.692 34.556C79.404 34.844 78.96 35.132 78.348 35.132C76.404 35.132 75.864 32.444 75.864 29.324C75.864 28.016 75.984 26.708 76.056 25.892ZM85.728 33.944L84.54 33.992C84.564 33.68 84.588 33.32 84.588 32.768C84.588 29.636 83.652 27.908 82.404 26.888L83.232 26.252C84.66 27.452 85.896 29.144 85.728 33.944ZM89.754 24.908H90.714V36.152H87.45V35.192H89.754V24.908ZM105.9 35.372L105.54 34.328C106.776 34.196 109.692 33.848 109.692 30.416C109.692 29.468 109.404 26.828 106.104 26.72C105.996 28.112 105.756 31.064 104.52 33.044C103.812 34.16 103.044 34.436 102.504 34.436C101.328 34.436 100.344 33.044 100.344 31.064C100.344 27.8 102.72 25.712 105.888 25.712C109.776 25.712 110.82 28.4 110.82 30.428C110.82 31.856 110.304 33.272 109.212 34.184C108.432 34.832 107.232 35.24 105.9 35.372ZM105.036 26.768C104.328 26.9 103.668 27.08 103.056 27.536C101.94 28.352 101.388 29.696 101.388 31.088C101.388 31.904 101.688 33.284 102.54 33.284C103.044 33.284 103.404 32.84 103.716 32.312C104.724 30.584 104.916 28.148 105.036 26.768ZM116.226 29.84L115.782 29.084C116.238 28.868 117.294 28.376 118.11 27.284H116.094V26.54H118.59C118.794 26.156 118.866 26 118.926 25.88C117.462 25.94 117.03 25.94 116.574 25.94L116.382 25.22C119.886 25.232 121.494 24.98 122.49 24.776L122.898 25.496C121.998 25.676 120.438 25.796 119.886 25.832C119.694 26.288 119.61 26.444 119.562 26.54H123.582V27.284H121.494C122.082 28.124 122.538 28.52 123.846 29.108L123.462 29.888C122.922 29.648 122.55 29.432 122.13 29.108V30.452H117.474V29.06C116.886 29.504 116.526 29.684 116.226 29.84ZM120.546 27.284H119.13C118.866 27.692 118.662 27.932 118.35 28.268H121.23C120.882 27.848 120.702 27.548 120.546 27.284ZM121.362 29.792V28.928H118.23V29.792H121.362ZM123.258 31.04V35.18C123.258 35.948 122.79 36.008 122.25 36.008H121.278L121.11 35.168L121.89 35.18C122.298 35.192 122.334 35.12 122.334 34.688V31.772H117.234V36.008H116.334V31.04H123.258ZM120.846 34.196V33.104H118.746V34.196H120.846ZM116.238 30.752L115.71 31.496C115.194 30.704 115.146 30.584 114.954 30.104V36.008H114.03V30.368C113.562 31.88 113.082 32.624 112.782 33.068L112.35 31.916C112.926 31.112 113.682 29.708 113.994 28.124H112.506V27.212H114.03V24.872H114.954V27.212H116.034V28.124H114.954V28.628C115.122 29.06 115.47 29.84 116.238 30.752ZM121.65 32.432V34.892H117.93V32.432H121.65ZM128.136 25.772H131.616V24.872H132.588V25.772H136.044V26.66H129.096V27.8H130.476V26.96H131.364V27.8H133.452V26.96H134.34V27.8H135.948V28.628H134.34V30.512H130.476V28.628H129.096V30.26C129.096 31.088 128.952 32.252 128.772 33.08C128.436 34.592 127.74 35.588 127.476 35.972L126.696 35.216C127.152 34.604 128.136 33.284 128.136 30.248V25.772ZM125.292 25.76L125.844 24.98C126.36 25.196 126.888 25.472 127.728 26.084L127.116 26.972C126.66 26.492 125.748 25.976 125.292 25.76ZM133.452 28.628H131.364V29.732H133.452V28.628ZM136.188 35.072L135.792 36.008C135.168 35.888 133.956 35.648 132.468 34.832C131.484 35.348 130.416 35.708 128.94 36.032L128.508 35.072C129.084 34.988 130.128 34.832 131.532 34.244C130.596 33.56 130.152 33.008 129.924 32.708L130.704 32.288C130.944 32.576 131.4 33.152 132.456 33.788C133.56 33.14 134.028 32.432 134.268 32.06H129.444V31.208H135.312V32.036C135.108 32.456 134.652 33.38 133.428 34.268C134.712 34.796 135.708 34.988 136.188 35.072ZM124.752 28.94L125.304 28.136C126.012 28.448 126.804 28.988 127.212 29.324L126.612 30.152C126.06 29.672 125.4 29.252 124.752 28.94ZM126.444 31.256L127.26 31.748C127.116 32.336 126.648 34.052 125.472 35.912L124.716 35.072C125.616 33.74 126.192 32.18 126.444 31.256ZM139.53 25.424H140.742C140.634 28.664 140.586 30.092 140.586 31.232C140.586 32.768 140.658 34.376 142.914 34.376C146.022 34.376 146.418 32.216 146.754 30.392L147.762 30.764C147.378 32.936 146.598 35.408 142.95 35.408C139.662 35.408 139.446 33.212 139.446 31.124C139.446 30.224 139.518 26.24 139.53 25.424ZM151.332 25.532L152.472 25.628C152.292 26.468 151.932 28.04 151.932 31.064C151.932 33.74 152.208 34.892 152.304 35.324L151.14 35.42C151.032 34.724 150.828 33.524 150.828 31.232C150.828 29.252 150.948 27.332 151.332 25.532ZM154.296 26.504H159.936V27.56H154.296V26.504ZM154.56 30.476L155.532 30.776C154.944 31.604 154.932 32.288 154.932 32.396C154.932 33.488 156.156 33.632 157.44 33.632C158.1 33.632 159.084 33.608 160.188 33.488V34.616C159.78 34.652 158.94 34.724 157.92 34.724C156.144 34.724 153.924 34.556 153.924 32.492C153.924 31.868 154.14 31.184 154.56 30.476ZM168.462 28.364L168.474 31.208C170.838 32.012 172.242 33.164 172.83 33.776L172.05 34.808C171.318 33.992 169.926 32.912 168.462 32.348L168.474 33.176C168.486 33.884 168.402 35.42 165.906 35.42C163.926 35.42 163.038 34.436 163.038 33.26C163.038 31.616 164.73 30.908 166.446 30.908C166.842 30.908 167.07 30.944 167.37 30.98L167.322 25.328H168.45L168.462 27.32L172.518 27.284V28.364H168.462ZM167.382 33.104L167.394 32.012C167.142 31.964 166.782 31.892 166.278 31.892C165.246 31.892 164.106 32.3 164.106 33.272C164.106 34.424 165.63 34.424 165.894 34.424C167.262 34.424 167.382 33.596 167.382 33.104ZM178.932 35.036L178.668 34.1C179.664 34.112 183.36 34.136 183.36 31.352C183.36 29.9 182.316 29.3 181.14 29.3C180.18 29.3 178.14 29.696 176.292 30.164L176.112 29.108C176.568 29.036 178.56 28.676 178.968 28.604C179.712 28.484 180.552 28.364 181.188 28.364C183.24 28.364 184.416 29.636 184.416 31.316C184.416 32.036 184.152 33.92 181.86 34.64C180.924 34.94 179.892 35.024 178.932 35.036ZM197.658 25.976L197.682 27.08C197.274 27.044 196.926 27.032 196.458 27.032C195.858 27.032 195.606 27.056 195.246 27.176C193.518 27.752 191.166 29.612 191.166 31.676C191.166 33.236 192.318 33.728 193.59 33.992C194.43 34.172 195.582 34.244 196.614 34.208L196.398 35.372C194.034 35.276 190.05 35.108 190.05 31.748C190.05 29.468 192.15 27.896 193.566 27.068C193.218 27.08 189.066 27.332 187.758 27.488L187.662 26.312C188.382 26.288 190.302 26.204 190.914 26.168C193.602 26.024 194.706 26 197.658 25.976ZM203.076 34.892L202.02 35.636C201.168 34.352 200.424 33.572 200.028 33.152L200.94 32.48C201.72 33.2 202.572 34.208 203.076 34.892ZM217.854 35.588L217.194 34.76C219.258 34.016 219.882 32.816 220.302 31.076C219.522 30.776 218.502 30.464 217.422 30.368C216.774 33.044 216.246 34.76 214.434 34.76C213.282 34.76 212.442 33.992 212.442 32.708C212.442 32.12 212.658 29.54 216.582 29.384C216.75 28.52 216.906 27.452 216.978 26.6L213.222 26.636V25.592H218.19C218.034 26.792 217.998 27.056 217.602 29.42C218.61 29.504 219.402 29.696 220.494 30.056C220.674 28.88 220.734 28.028 220.758 27.476L221.898 27.56C221.814 28.424 221.718 29.468 221.538 30.428C221.574 30.44 222.27 30.704 223.014 31.112L222.654 32.192C222.114 31.868 221.91 31.76 221.31 31.496C221.022 32.672 220.41 34.676 217.854 35.588ZM216.402 30.308C215.694 30.332 215.19 30.404 214.662 30.668C213.882 31.052 213.39 31.832 213.39 32.648C213.39 32.876 213.45 33.812 214.362 33.812C215.442 33.812 215.766 32.912 216.402 30.308ZM232.848 28.688L232.908 31.604C233.916 32.048 234.876 32.792 235.464 33.44L234.804 34.388C234.024 33.452 233.292 33.008 232.86 32.756V33.248C232.86 35.024 231.648 35.456 230.46 35.456C228.66 35.456 227.772 34.46 227.772 33.344C227.772 32.444 228.468 31.112 230.592 31.112C231.192 31.112 231.576 31.196 231.84 31.256L231.768 28.688H232.848ZM231.864 33.056V32.252C231.588 32.156 231.228 32.024 230.592 32.024C229.368 32.024 228.792 32.636 228.792 33.308C228.792 34.52 230.268 34.52 230.496 34.52C231.684 34.52 231.864 33.872 231.864 33.056ZM228.3 26.84H230.82V27.848H228.096C227.412 31.196 226.428 33.2 225.996 34.088L224.892 33.608C226.176 31.544 226.704 29.192 227.016 27.848H224.988V26.84H227.208C227.34 26.012 227.376 25.748 227.424 25.268L228.564 25.316C228.468 25.892 228.456 25.964 228.3 26.84ZM235.26 27.776L234.756 28.736C233.544 28.004 232.644 27.572 231.564 27.176L231.984 26.288C233.184 26.708 233.988 27.068 235.26 27.776ZM245.982 31.4L245.058 32.024C244.35 31.232 243.594 29.936 242.946 28.292C242.214 28.304 241.29 28.316 241.11 28.316H237.654V27.272L241.158 27.332C241.662 27.344 242.31 27.332 242.61 27.32C242.37 26.54 242.19 25.664 242.142 25.376L243.282 25.292C243.39 26.024 243.558 26.804 243.714 27.284C244.938 27.248 246.066 27.104 247.266 26.852L247.458 27.884C246.15 28.16 245.118 28.208 244.062 28.256C244.566 29.468 245.262 30.632 245.982 31.4ZM239.934 30.416L240.51 31.196C239.334 31.772 239.274 32.516 239.274 32.744C239.274 34.208 241.218 34.364 242.934 34.364C244.494 34.364 245.406 34.256 246.15 34.16L246.162 35.228C245.73 35.276 244.674 35.372 243.03 35.372C240.93 35.372 239.742 35.132 238.902 34.376C238.422 33.944 238.194 33.356 238.194 32.756C238.194 31.88 238.71 31.016 239.934 30.416ZM253.068 25.256L254.256 25.58C253.452 27.356 252.732 29.324 252.408 30.26C253.056 29.732 253.524 29.504 254.184 29.504C256.032 29.504 256.128 31.208 256.128 32.036V32.84C256.128 33.704 256.224 34.364 257.196 34.364C257.784 34.364 258.396 34.088 258.792 32.948C259.128 31.976 259.188 31.076 259.188 30.38L260.232 30.62C260.16 32.204 259.872 35.42 257.124 35.42C255.084 35.42 255.072 33.728 255.072 32.792V32.12C255.072 31.232 254.856 30.524 254.004 30.524C253.524 30.524 252.54 30.776 251.784 32.324C251.364 33.44 251.172 34.16 250.848 35.372L249.72 35.024C251.424 29.816 251.628 29.24 251.904 28.46C252.084 27.956 252.78 26.036 253.068 25.256ZM267.75 35.372L267.39 34.328C268.626 34.196 271.542 33.848 271.542 30.416C271.542 29.468 271.254 26.828 267.954 26.72C267.846 28.112 267.606 31.064 266.37 33.044C265.662 34.16 264.894 34.436 264.354 34.436C263.178 34.436 262.194 33.044 262.194 31.064C262.194 27.8 264.57 25.712 267.738 25.712C271.626 25.712 272.67 28.4 272.67 30.428C272.67 31.856 272.154 33.272 271.062 34.184C270.282 34.832 269.082 35.24 267.75 35.372ZM266.886 26.768C266.178 26.9 265.518 27.08 264.906 27.536C263.79 28.352 263.238 29.696 263.238 31.088C263.238 31.904 263.538 33.284 264.39 33.284C264.894 33.284 265.254 32.84 265.566 32.312C266.574 30.584 266.766 28.148 266.886 26.768ZM281.688 24.872H282.552V25.652H284.868V27.38H285.444V28.16H284.868V29.888H282.552V30.752H285.024V31.532H282.552V32.432H285.408V33.236H282.552V34.304H281.688V33.236H279.636V32.432H281.688V31.532H279.96V30.752H281.688V29.888H280.128V29.12H281.688V28.16H279.492V27.38H281.688V26.444H280.128V25.652H281.688V24.872ZM283.98 27.38V26.444H282.552V27.38H283.98ZM283.98 29.12V28.16H282.552V29.12H283.98ZM282.264 34.736H285.552L285.396 35.672H282.192C279.888 35.672 278.7 34.748 278.364 34.424C277.884 35.204 277.452 35.6 277.104 35.924L276.564 35.036C276.9 34.772 277.308 34.46 277.776 33.692C277.08 32.624 276.876 31.22 276.804 30.776L277.62 30.656C277.692 31.148 277.8 31.916 278.196 32.744C278.532 31.736 278.616 30.8 278.64 29.912H276.972V29.036C277.452 28.364 278.232 26.888 278.52 26.192H277.092V25.328H279.492V26.228C279.084 27.128 278.508 28.124 277.98 29.048H279.516C279.468 31.652 278.916 33.248 278.784 33.596C278.856 33.68 279.924 34.736 282.264 34.736ZM276.288 27.752V35.984H275.364V29.816C275.052 30.38 274.86 30.584 274.608 30.848L274.14 29.864C275.16 28.628 275.796 26.552 276.036 24.848L276.996 25.004C276.876 25.7 276.708 26.6 276.288 27.752ZM296.706 31.628L297.51 32.216C296.97 32.792 296.574 33.152 295.77 33.74C296.778 34.316 297.594 34.604 298.026 34.76L297.462 35.684C296.178 35.204 294.606 34.316 293.454 32.888V35.12C293.454 35.648 293.19 36.008 292.578 36.008H291.126L290.934 35.024L292.218 35.036C292.494 35.036 292.518 34.916 292.518 34.76V31.544H289.146V30.776H292.518V29.888H288.618V30.824C288.618 31.712 288.51 34.028 287.454 36.02L286.638 35.168C286.842 34.82 287.202 34.16 287.418 33.032C287.55 32.336 287.646 31.94 287.646 30.74V25.748H291.978V24.872H292.974V25.748H297.846V26.636H288.618V29.096H292.518V28.28H289.146V27.5H292.518V26.936H293.454V27.5H296.97V29.096H297.918V29.888H296.97V31.544H293.454V31.652C293.754 32.072 294.186 32.636 294.99 33.236C295.134 33.128 296.094 32.384 296.706 31.628ZM296.022 28.28H293.454V29.096H296.022V28.28ZM296.022 29.888H293.454V30.776H296.022V29.888ZM289.158 32.336L289.698 31.64C290.466 32 290.862 32.216 291.474 32.696L290.838 33.428C290.31 32.936 289.938 32.696 289.158 32.336ZM291.954 33.188L292.11 34.028C291.582 34.316 291.294 34.436 288.738 35.504L288.366 34.64C289.746 34.208 291.546 33.38 291.954 33.188ZM304.8 29.204C305.484 29.204 306.036 29.768 306.036 30.44C306.036 31.1 305.496 31.676 304.8 31.676C304.104 31.676 303.564 31.112 303.564 30.44C303.564 29.744 304.128 29.204 304.8 29.204ZM322.218 35.072L321.558 36.008C321.018 35.648 319.95 34.94 317.982 34.088C317.322 34.568 315.474 35.66 312.354 35.984L312.006 34.928C313.614 34.784 315.414 34.484 316.914 33.656C315.942 33.272 314.874 32.912 313.002 32.396C313.362 31.976 313.95 31.28 314.61 30.14H311.718V29.192H315.126C315.546 28.376 315.75 27.812 315.894 27.392L316.998 27.596C316.866 27.92 316.71 28.316 316.278 29.192H322.782V30.14H320.658C320.082 31.976 319.29 32.876 318.822 33.356C320.346 33.992 321.522 34.664 322.218 35.072ZM319.602 30.14H315.762C315.186 31.148 314.838 31.604 314.598 31.916C315.462 32.168 316.662 32.516 317.862 32.972C319.014 31.916 319.47 30.536 319.602 30.14ZM312.006 25.952H316.71V24.872H317.742V25.952H322.506V28.568H321.486V26.876H313.026V28.568H312.006V25.952ZM333.24 28.844V29.744H330.216V31.568H334.056V32.468H330.216V34.736H335.196V35.696H324.204V34.736H329.196V32.468H325.38V31.568H329.196V29.744H326.208V28.832C325.392 29.324 324.888 29.552 324.456 29.756L323.952 28.772C325.86 28.04 327.828 26.744 329.16 24.884H330.252C331.464 26.516 333.24 27.956 335.448 28.76L334.944 29.744C334.524 29.552 333.984 29.312 333.24 28.844ZM326.22 28.82H333.204C332.46 28.34 330.984 27.332 329.7 25.736C328.728 26.96 327.552 28.016 326.22 28.82ZM341.322 26.468H346.326V27.428H341.034C340.758 28.16 340.59 28.556 340.242 29.156C341.082 28.652 341.562 28.448 342.162 28.448C342.978 28.448 343.746 28.712 343.986 29.852C344.262 29.744 345.906 29.084 346.986 28.712L347.274 29.756C346.302 30.032 345.45 30.296 344.13 30.8C344.166 31.22 344.178 31.736 344.178 32.168C344.178 32.336 344.178 32.696 344.142 33.08H343.098C343.122 32.804 343.158 32.36 343.158 31.928C343.158 31.724 343.158 31.52 343.134 31.208C342.21 31.64 340.758 32.408 340.758 33.392C340.758 34.448 342.09 34.448 343.41 34.448C344.37 34.448 345.498 34.4 346.578 34.28L346.614 35.312C345.93 35.36 344.886 35.432 343.746 35.432C342.39 35.432 339.678 35.432 339.678 33.5C339.678 31.868 341.826 30.788 343.014 30.26C342.882 29.552 342.546 29.312 341.994 29.312C341.334 29.312 340.458 29.684 339.618 30.536C339.066 31.292 338.274 32.348 337.89 32.744L337.146 31.94C338.202 30.944 339.162 29.672 339.93 27.428H337.458V26.468H340.218C340.302 26.156 340.386 25.808 340.47 25.124L341.622 25.172C341.55 25.592 341.49 25.868 341.322 26.468ZM9.216 47.62H11.292V48.652H9.216V50.176C9.216 54.592 5.364 55.3 3.564 55.516L3.168 54.472C6.564 54.148 8.136 52.768 8.136 50.128V48.652H3.948V51.88H2.856V48.652H0.828V47.62H2.856V45.388H3.948V47.62H8.136V45.34H9.216V47.62ZM18.978 47.404H21.366C21.138 47.116 21.018 46.768 21.018 46.384C21.018 45.472 21.774 44.728 22.686 44.728C23.61 44.728 24.354 45.472 24.354 46.396C24.354 47.14 23.862 47.788 23.142 47.992V48.424H18.978V55.552H17.874V48.424H13.722V47.404H17.874V45.4H18.978V47.404ZM22.686 45.472C22.182 45.472 21.762 45.88 21.762 46.396C21.762 46.9 22.182 47.32 22.686 47.32C23.202 47.32 23.61 46.9 23.61 46.396C23.61 45.88 23.19 45.472 22.686 45.472ZM14.322 54.832L13.446 54.04C14.718 52.768 15.15 51.052 15.282 49.576L16.302 49.684C16.134 51.268 15.762 53.224 14.322 54.832ZM20.598 49.684L21.606 49.564C21.966 51.652 22.47 52.9 23.454 54.088L22.554 54.784C21.474 53.464 21.006 52.144 20.598 49.684ZM25.74 49.864H36.06V51.004H25.74V49.864ZM48.078 50.932L47.514 52.048C46.698 51.544 44.73 50.344 42.222 49.48V55.54H41.058V45.28H42.222V48.352C44.49 49.072 46.35 49.996 48.078 50.932ZM52.38 45.424H53.592C53.484 48.664 53.436 50.092 53.436 51.232C53.436 52.768 53.508 54.376 55.764 54.376C58.872 54.376 59.268 52.216 59.604 50.392L60.612 50.764C60.228 52.936 59.448 55.408 55.8 55.408C52.512 55.408 52.296 53.212 52.296 51.124C52.296 50.224 52.368 46.24 52.38 45.424ZM66.126 54.892L65.07 55.636C64.218 54.352 63.474 53.572 63.078 53.152L63.99 52.48C64.77 53.2 65.622 54.208 66.126 54.892ZM81.612 50.2H85.536V51.088H82.176C82.584 51.856 83.856 52.972 85.8 53.404L85.272 54.328C82.56 53.488 81.6 51.964 81.3 51.28C80.508 53.104 78.972 53.884 77.604 54.34L77.028 53.464C77.628 53.32 79.536 52.852 80.388 51.088H77.184V50.2H80.676C80.736 49.828 80.796 49.456 80.796 48.592H79.032C78.624 49.156 78.348 49.456 77.88 49.876L77.124 49.228C77.976 48.544 78.684 47.668 79.056 46.504L80.016 46.708C79.824 47.188 79.728 47.392 79.56 47.716H85.032V48.592H81.732C81.732 49.288 81.696 49.684 81.612 50.2ZM75.54 45.268H85.944V46.192H76.56V54.844H86.196V55.756H75.54V45.268ZM97.446 50.704V53.284H94.806V55.216C94.806 55.96 94.29 55.984 93.918 55.984H92.622L92.418 55.12H93.558C93.798 55.12 93.834 55.072 93.834 54.832V53.284H91.254V50.788C91.002 50.944 90.918 50.992 90.654 51.148L90.126 50.428C90.546 50.224 90.858 50.068 91.266 49.792C90.87 49.372 90.834 49.336 90.498 49.072L91.05 48.568C91.434 48.856 91.77 49.228 91.878 49.348C92.25 49.048 92.55 48.736 92.886 48.292H90.462V47.536H93.342C93.462 47.272 93.522 47.116 93.618 46.84L94.566 46.948C94.446 47.248 94.398 47.368 94.314 47.536H98.682V48.292H95.886C96.126 48.592 96.426 48.988 97.002 49.432C97.35 49.06 97.638 48.7 97.77 48.52L98.442 48.928C98.07 49.408 97.65 49.816 97.626 49.852C98.166 50.152 98.49 50.272 98.826 50.392L98.37 51.196C98.046 51.04 97.818 50.932 97.446 50.704ZM96.57 51.172V50.452H92.13V51.172H96.57ZM92.622 49.756H96.162C95.466 49.132 95.166 48.676 94.902 48.292H93.882C93.738 48.52 93.402 49.048 92.622 49.756ZM96.57 52.588V51.832H92.13V52.588H96.57ZM89.13 49.912V45.844H93.27V44.872H94.254V45.844H98.718V46.684H90.078V49.948C90.078 53.896 88.782 55.444 88.302 56.02L87.57 55.372C88.11 54.7 88.77 53.836 89.034 51.604C88.434 52 87.978 52.228 87.618 52.408L87.414 51.424C88.242 51.1 88.518 50.968 89.118 50.668C89.118 50.476 89.13 50.248 89.13 49.912ZM88.878 48.88L88.038 49.276C87.906 48.556 87.69 47.788 87.414 47.104L88.158 46.744C88.506 47.428 88.758 48.268 88.878 48.88ZM90.15 55.804L89.622 55C90.582 54.676 91.17 54.352 92.022 53.536L92.718 54.112C91.698 55.108 90.954 55.504 90.15 55.804ZM95.778 54.124L96.414 53.488C97.278 54.316 97.782 54.604 98.898 55L98.37 55.816C97.446 55.492 96.426 54.856 95.778 54.124ZM101.532 45.532L102.672 45.628C102.492 46.468 102.132 48.04 102.132 51.064C102.132 53.74 102.408 54.892 102.504 55.324L101.34 55.42C101.232 54.724 101.028 53.524 101.028 51.232C101.028 49.252 101.148 47.332 101.532 45.532ZM104.496 46.504H110.136V47.56H104.496V46.504ZM104.76 50.476L105.732 50.776C105.144 51.604 105.132 52.288 105.132 52.396C105.132 53.488 106.356 53.632 107.64 53.632C108.3 53.632 109.284 53.608 110.388 53.488V54.616C109.98 54.652 109.14 54.724 108.12 54.724C106.344 54.724 104.124 54.556 104.124 52.492C104.124 51.868 104.34 51.184 104.76 50.476ZM116.478 54.724L116.19 53.692C118.17 53.68 119.55 53.512 120.726 52.672C121.374 52.204 121.998 51.34 121.998 50.152C121.998 49.024 121.47 47.596 119.13 47.596C117.69 47.596 115.11 48.172 113.082 48.676L112.818 47.464C113.094 47.428 115.422 47.02 115.914 46.936C117.054 46.732 118.206 46.54 119.202 46.54C122.01 46.54 123.15 48.34 123.15 50.14C123.15 51.064 122.85 53.092 120.294 54.124C119.274 54.544 117.93 54.712 116.478 54.724ZM125.856 45.892L126.996 45.988C126.9 46.708 126.744 47.8 126.744 49.42C126.744 51.28 126.888 53.908 128.232 53.908C128.772 53.908 129.396 53.416 130.224 51.256L131.112 51.76C130.716 52.876 130.164 53.884 129.492 54.556C129.204 54.844 128.76 55.132 128.148 55.132C126.204 55.132 125.664 52.444 125.664 49.324C125.664 48.016 125.784 46.708 125.856 45.892ZM135.528 53.944L134.34 53.992C134.364 53.68 134.388 53.32 134.388 52.768C134.388 49.636 133.452 47.908 132.204 46.888L133.032 46.252C134.46 47.452 135.696 49.144 135.528 53.944ZM147.858 45.976L147.882 47.08C147.474 47.044 147.126 47.032 146.658 47.032C146.058 47.032 145.806 47.056 145.446 47.176C143.718 47.752 141.366 49.612 141.366 51.676C141.366 53.236 142.518 53.728 143.79 53.992C144.63 54.172 145.782 54.244 146.814 54.208L146.598 55.372C144.234 55.276 140.25 55.108 140.25 51.748C140.25 49.468 142.35 47.896 143.766 47.068C143.418 47.08 139.266 47.332 137.958 47.488L137.862 46.312C138.582 46.288 140.502 46.204 141.114 46.168C143.802 46.024 144.906 46 147.858 45.976ZM155.7 55.372L155.34 54.328C156.576 54.196 159.492 53.848 159.492 50.416C159.492 49.468 159.204 46.828 155.904 46.72C155.796 48.112 155.556 51.064 154.32 53.044C153.612 54.16 152.844 54.436 152.304 54.436C151.128 54.436 150.144 53.044 150.144 51.064C150.144 47.8 152.52 45.712 155.688 45.712C159.576 45.712 160.62 48.4 160.62 50.428C160.62 51.856 160.104 53.272 159.012 54.184C158.232 54.832 157.032 55.24 155.7 55.372ZM154.836 46.768C154.128 46.9 153.468 47.08 152.856 47.536C151.74 48.352 151.188 49.696 151.188 51.088C151.188 51.904 151.488 53.284 152.34 53.284C152.844 53.284 153.204 52.84 153.516 52.312C154.524 50.584 154.716 48.148 154.836 46.768ZM168.066 47.74H168.33V56.008H167.286V48.832C165.426 51.184 163.614 52.156 162.762 52.588L162.162 51.64C165.114 50.284 166.89 48.22 167.802 46.276H162.294V45.292H173.382V46.276H168.87C168.522 46.996 168.282 47.392 168.066 47.74ZM173.55 51.688L172.83 52.588C171.006 51.268 170.214 50.464 168.75 48.616L169.482 48.04C170.502 49.312 171.726 50.572 173.55 51.688ZM185.268 55.072L184.608 56.008C184.068 55.648 183 54.94 181.032 54.088C180.372 54.568 178.524 55.66 175.404 55.984L175.056 54.928C176.664 54.784 178.464 54.484 179.964 53.656C178.992 53.272 177.924 52.912 176.052 52.396C176.412 51.976 177 51.28 177.66 50.14H174.768V49.192H178.176C178.596 48.376 178.8 47.812 178.944 47.392L180.048 47.596C179.916 47.92 179.76 48.316 179.328 49.192H185.832V50.14H183.708C183.132 51.976 182.34 52.876 181.872 53.356C183.396 53.992 184.572 54.664 185.268 55.072ZM182.652 50.14H178.812C178.236 51.148 177.888 51.604 177.648 51.916C178.512 52.168 179.712 52.516 180.912 52.972C182.064 51.916 182.52 50.536 182.652 50.14ZM175.056 45.952H179.76V44.872H180.792V45.952H185.556V48.568H184.536V46.876H176.076V48.568H175.056V45.952ZM192.75 49.204C193.434 49.204 193.986 49.768 193.986 50.44C193.986 51.1 193.446 51.676 192.75 51.676C192.054 51.676 191.514 51.112 191.514 50.44C191.514 49.744 192.078 49.204 192.75 49.204ZM200.232 50.824L199.44 50.44C199.776 49.36 199.848 47.98 199.848 47.38L200.616 47.452C200.604 48.28 200.496 49.84 200.232 50.824ZM201.108 44.872H202.08V56.008H201.108V44.872ZM203.544 48.88L202.74 49.192C202.644 48.688 202.452 47.98 202.2 47.356L202.92 47.068C203.22 47.752 203.484 48.676 203.544 48.88ZM210.396 49.096V55.756H203.412V49.096H204.36V54.892H209.448V49.096H210.396ZM207.864 48.748L208.716 49.12C208.368 50.26 208.056 50.848 207.708 51.46C208.452 52.264 208.752 52.684 209.088 53.2L208.38 53.836C207.852 53.044 207.564 52.684 207.192 52.264C206.82 52.804 206.4 53.38 205.344 54.292L204.684 53.608C205.536 52.924 206.004 52.336 206.544 51.532C206.016 50.98 205.62 50.584 204.9 49.996L205.524 49.384C206.064 49.792 206.424 50.128 207.024 50.74C207.336 50.152 207.588 49.66 207.864 48.748ZM207.528 47.344L206.604 47.632C206.364 46.564 205.752 45.292 205.68 45.148L206.568 44.896C206.712 45.184 207.24 46.228 207.528 47.344ZM209.292 48.4L208.464 47.98C209.268 46.816 209.7 45.508 209.844 45.088L210.744 45.484C210.468 46.372 209.88 47.584 209.292 48.4ZM205.272 47.812L204.384 48.148C204.108 47.44 203.652 46.504 203.124 45.748L203.952 45.4C204.456 46.084 204.972 47.02 205.272 47.812ZM217.854 55.588L217.194 54.76C219.258 54.016 219.882 52.816 220.302 51.076C219.522 50.776 218.502 50.464 217.422 50.368C216.774 53.044 216.246 54.76 214.434 54.76C213.282 54.76 212.442 53.992 212.442 52.708C212.442 52.12 212.658 49.54 216.582 49.384C216.75 48.52 216.906 47.452 216.978 46.6L213.222 46.636V45.592H218.19C218.034 46.792 217.998 47.056 217.602 49.42C218.61 49.504 219.402 49.696 220.494 50.056C220.674 48.88 220.734 48.028 220.758 47.476L221.898 47.56C221.814 48.424 221.718 49.468 221.538 50.428C221.574 50.44 222.27 50.704 223.014 51.112L222.654 52.192C222.114 51.868 221.91 51.76 221.31 51.496C221.022 52.672 220.41 54.676 217.854 55.588ZM216.402 50.308C215.694 50.332 215.19 50.404 214.662 50.668C213.882 51.052 213.39 51.832 213.39 52.648C213.39 52.876 213.45 53.812 214.362 53.812C215.442 53.812 215.766 52.912 216.402 50.308ZM230.1 49.204C230.784 49.204 231.336 49.768 231.336 50.44C231.336 51.1 230.796 51.676 230.1 51.676C229.404 51.676 228.864 51.112 228.864 50.44C228.864 49.744 229.428 49.204 230.1 49.204ZM236.97 45.904H239.646V44.86H240.618V45.904H244.458V44.86H245.418V45.904H248.13V46.84H245.418V48.064H244.458V46.84H240.618V48.064H239.646V46.84H236.97V45.904ZM248.13 48.832V49.756H243.018V51.304H246.894V55.78H238.182V51.304H242.022V49.756H236.97V48.832H242.022V47.512H243.018V48.832H248.13ZM245.898 54.904V52.192H239.178V54.904H245.898ZM257.34 49.756H260.112V55.06C260.112 55.42 260.112 56.02 259.284 56.02H258.096L257.916 55.036H258.912C259.08 55.036 259.188 55 259.188 54.784V54.028H256.944V55.984H256.02V54.028H253.908V56.02H252.972V49.756H255.876C255.516 49.492 255.072 49.264 254.28 48.94L254.856 48.292C255.516 48.592 256.164 48.976 256.344 49.096C257.064 48.736 257.4 48.544 258.048 48.064H252.756V47.344H259.668V47.98C258.588 48.856 257.352 49.432 257.076 49.564C257.148 49.612 257.256 49.696 257.34 49.756ZM256.02 51.496V50.524H253.908V51.496H256.02ZM256.02 53.272V52.24H253.908V53.272H256.02ZM259.188 51.496V50.524H256.944V51.496H259.188ZM259.188 53.272V52.24H256.944V53.272H259.188ZM251.292 50.044V45.82H255.12V44.848H256.128V45.82H260.52V46.672H252.228V49.852C252.228 54.076 251.112 55.408 250.572 56.056L249.78 55.384C250.632 54.388 250.98 53.452 251.196 51.652C250.404 52.132 249.996 52.336 249.576 52.552L249.336 51.568C250.284 51.208 251.16 50.728 251.268 50.656C251.28 50.488 251.292 50.32 251.292 50.044ZM251.016 48.916L250.188 49.324C250.02 48.64 249.672 47.728 249.396 47.188L250.188 46.756C250.536 47.404 250.86 48.292 251.016 48.916ZM266.622 46.468H271.626V47.428H266.334C266.058 48.16 265.89 48.556 265.542 49.156C266.382 48.652 266.862 48.448 267.462 48.448C268.278 48.448 269.046 48.712 269.286 49.852C269.562 49.744 271.206 49.084 272.286 48.712L272.574 49.756C271.602 50.032 270.75 50.296 269.43 50.8C269.466 51.22 269.478 51.736 269.478 52.168C269.478 52.336 269.478 52.696 269.442 53.08H268.398C268.422 52.804 268.458 52.36 268.458 51.928C268.458 51.724 268.458 51.52 268.434 51.208C267.51 51.64 266.058 52.408 266.058 53.392C266.058 54.448 267.39 54.448 268.71 54.448C269.67 54.448 270.798 54.4 271.878 54.28L271.914 55.312C271.23 55.36 270.186 55.432 269.046 55.432C267.69 55.432 264.978 55.432 264.978 53.5C264.978 51.868 267.126 50.788 268.314 50.26C268.182 49.552 267.846 49.312 267.294 49.312C266.634 49.312 265.758 49.684 264.918 50.536C264.366 51.292 263.574 52.348 263.19 52.744L262.446 51.94C263.502 50.944 264.462 49.672 265.23 47.428H262.758V46.468H265.518C265.602 46.156 265.686 45.808 265.77 45.124L266.922 45.172C266.85 45.592 266.79 45.868 266.622 46.468ZM277.584 46.132V48.028H279.516V48.916H277.584V48.952C277.896 49.552 278.556 50.608 279.54 51.448L279.048 52.396C278.484 51.844 278.028 51.208 277.584 50.392V56.008H276.612V50.62C276.288 51.34 275.688 52.468 274.572 53.68L274.14 52.54C275.376 51.328 276.12 49.768 276.492 48.916H274.296V48.028H276.612V46.264C275.988 46.336 275.496 46.384 274.524 46.42L274.32 45.52C276.072 45.472 277.404 45.292 278.964 44.872L279.324 45.748C278.676 45.916 278.292 46.012 277.584 46.132ZM285.06 45.64V55.684H279.948V45.64H285.06ZM284.076 54.748V46.552H280.908V54.748H284.076ZM295.35 46.024L295.05 47.164C293.622 46.588 291.858 46.36 290.238 46.3L290.43 45.268C291.462 45.316 293.514 45.424 295.35 46.024ZM288.774 46.984L289.854 47.176C289.578 48.088 289.482 48.784 289.482 50.548C290.706 49.576 292.05 49.072 293.61 49.072C296.394 49.072 296.91 50.86 296.91 51.856C296.91 54.736 294.138 55.384 291.57 55.384C290.466 55.384 289.758 55.288 289.266 55.216L289.146 54.16C289.95 54.304 290.682 54.376 291.486 54.376C293.142 54.376 294.582 54.052 295.302 53.26C295.638 52.9 295.77 52.336 295.77 51.844C295.77 50.908 295.134 50.044 293.55 50.044C291.942 50.044 290.334 50.728 289.542 51.772C289.506 51.892 289.494 51.928 289.482 51.988L288.414 51.952C288.414 51.544 288.45 49.744 288.462 49.384C288.51 48.268 288.618 47.608 288.774 46.984ZM303.708 55.6L303.312 54.628C305.616 54.184 306.624 53.488 306.624 50.212C306.624 49.96 306.612 49.396 306.6 49.024H302.52V48.016H306.564C306.54 47.476 306.48 46.096 306.444 45.46L307.476 45.436C307.512 45.904 307.608 47.644 307.632 48.016H309.828V49.024H307.692C307.704 49.348 307.728 50.164 307.728 50.368C307.728 54.232 306.252 55.108 303.708 55.6ZM307.668 44.944L308.472 44.668C308.892 45.58 309.036 46.156 309.264 47.116L308.4 47.428C308.256 46.552 308.052 45.82 307.668 44.944ZM309.3 44.632L310.104 44.344C310.524 45.256 310.62 45.652 310.896 46.792L310.032 47.104C309.852 46.096 309.684 45.508 309.3 44.632ZM300.444 45.46L301.596 45.532C301.44 46.468 301.164 48.244 301.164 50.74C301.164 52.132 301.248 53.644 301.572 55.156L300.456 55.3C300.144 53.836 300.084 52.336 300.084 50.848C300.084 49.048 300.204 47.248 300.444 45.46ZM318.09 46.636H321.918V47.56H318.09V49.048H321.69V49.96H318.09V51.64C319.362 52.108 320.418 52.768 321.678 53.824L320.97 54.856C319.806 53.572 318.75 53.02 318.09 52.72V53.404C318.09 55.12 316.662 55.444 315.654 55.444C313.314 55.444 312.81 54.196 312.81 53.428C312.81 52.168 314.046 51.256 315.834 51.256C316.374 51.256 316.782 51.328 317.034 51.376V49.96H312.654V49.048H317.034V47.56H312.474V46.636H317.034V45.376H318.09V46.636ZM317.034 53.188V52.312C316.794 52.24 316.446 52.144 315.834 52.144C314.718 52.144 313.818 52.6 313.818 53.392C313.818 53.62 313.938 54.508 315.522 54.508C316.566 54.508 317.034 54.136 317.034 53.188ZM331.584 46.6H334.728V47.596H331.584V50.008C331.644 50.236 331.704 50.512 331.74 50.8C331.788 51.1 331.812 51.412 331.812 51.724C331.812 54.892 329.004 55.468 326.916 55.552L326.58 54.544C329.784 54.58 330.672 53.476 330.828 52.048C330.708 52.3 330.312 53.2 328.932 53.2C327.444 53.2 326.7 52.012 326.7 50.848C326.7 49.444 327.696 48.412 329.184 48.412C329.988 48.412 330.276 48.676 330.528 48.892L330.516 47.596H324.6V46.6H330.504L330.48 45.256H331.584V46.6ZM330.552 50.932V50.404C330.456 50.02 330.264 49.312 329.208 49.312C328.548 49.312 327.708 49.696 327.708 50.8C327.708 51.304 327.96 52.324 329.076 52.324C329.928 52.324 330.552 51.724 330.552 50.932ZM338.802 52.036C339.774 52.036 340.59 52.816 340.59 53.824C340.59 54.808 339.786 55.612 338.802 55.612C337.806 55.612 337.014 54.808 337.014 53.824C337.014 52.828 337.818 52.036 338.802 52.036ZM338.802 52.636C338.154 52.636 337.614 53.164 337.614 53.824C337.614 54.472 338.142 55 338.802 55C339.45 55 339.978 54.472 339.978 53.824C339.978 53.152 339.438 52.636 338.802 52.636Z" fill="black"/>
</svg>
