<svg width="348" height="49" viewBox="0 0 348 49" fill="none" xmlns="http://www.w3.org/2000/svg">
<path d="M2.304 1.94V6.572C1.212 7.064 1.044 7.148 0.252 7.412L0.528 8.396C0.828 8.264 1.476 7.964 2.22 7.52C1.896 9.836 0.924 10.88 0.516 11.312L1.332 11.984C1.884 11.324 3.264 9.716 3.264 6.056V2.84H11.592V1.94H7.128V0.883999H6.144V1.94H2.304ZM1.944 4.856C1.764 4.1 1.56 3.5 1.128 2.732L0.324 3.14C0.504 3.464 0.84 4.064 1.08 5.288L1.944 4.856ZM11.328 4.1H3.732V4.976H7.104V10.82H5.412V6.116H4.416V10.82H2.856V11.72H11.532V10.82H8.076V8.072H10.944V7.196H8.076V4.976H11.328V4.1ZM24.126 11C23.382 10.532 21.306 9.212 20.55 5.072H23.982V4.112H20.502V0.883999H19.47V4.112H16.482V5.072H19.434C19.386 5.708 19.254 6.344 19.086 6.968C18.558 8.948 17.67 10.148 16.194 11.096L16.758 11.996C18.882 10.496 19.674 8.672 20.118 7.064C20.706 8.792 21.546 10.676 23.55 11.948L24.126 11ZM14.97 0.883999V7.004C14.07 7.664 13.026 8.24 12.678 8.432L12.978 9.5C13.47 9.26 14.526 8.6 14.97 8.216V11.996H15.966V0.883999H14.97ZM14.61 4.796C14.394 3.98 14.022 3.116 13.626 2.408L12.762 2.792C13.23 3.68 13.434 4.184 13.71 5.18L14.61 4.796ZM23.406 3.068C23.214 2.756 22.734 1.94 21.906 1.076L21.15 1.58C21.738 2.204 22.314 3.104 22.578 3.572L23.406 3.068ZM29.532 12.056C30.312 11.816 32.148 11.18 32.964 9.08C33.276 9.848 34.176 11.336 36.168 12.02L36.648 11.12C35.796 10.844 34.44 10.328 33.696 8.636H36.048V5.312H33.348V4.208H35.028V3.764C35.364 4.016 35.664 4.208 36.156 4.496L36.684 3.632C34.644 2.6 33.924 1.64 33.456 0.848H32.28C31.356 2.18 30.516 2.924 29.124 3.644L29.604 4.508C29.916 4.352 30.252 4.172 30.792 3.776V4.208H32.4V5.312H29.7V8.636H32.136C31.608 10.496 29.592 11.036 29.04 11.18L29.532 12.056ZM33.348 6.14H35.124V7.808H33.276C33.324 7.484 33.348 7.172 33.348 6.416V6.14ZM32.4 6.44C32.4 7.136 32.376 7.484 32.328 7.808H30.648V6.14H32.4V6.44ZM31.26 3.38C31.956 2.744 32.58 1.94 32.868 1.58C33.156 1.952 33.78 2.756 34.536 3.38H31.26ZM29.496 6.932C28.572 5.936 28.14 5 27.972 4.568V4.112H29.016V3.2H27.972V0.872H27.024V3.2H25.344V4.112H26.952C26.328 6.656 25.584 7.616 25.14 8.192L25.56 9.38C26.244 8.444 26.724 7.376 27.024 6.248V12.008H27.972V6.008C28.26 6.728 28.536 7.172 29.004 7.832L29.496 6.932ZM44.73 4.772C44.406 5.144 43.938 5.708 42.654 6.872C42.522 6.764 42.294 6.584 41.706 6.2C41.754 6.152 42.606 5.42 43.23 4.592H47.706V6.008H48.702V3.728H43.842V2.708H48.702V1.82H43.842V0.895999H42.858V1.82H38.046V2.708H42.858V3.728H37.998V6.008H38.982V4.592H41.958C41.742 4.892 41.55 5.156 40.95 5.72C40.518 5.444 40.386 5.384 40.158 5.264L39.546 5.996C40.818 6.608 41.766 7.304 41.982 7.484C41.874 7.58 41.79 7.652 41.562 7.832C41.022 7.844 38.406 7.868 37.818 7.856L37.89 8.78C38.598 8.78 42.078 8.708 42.858 8.696V11.984H43.854V8.648L47.274 8.468C47.706 8.888 47.898 9.128 48.09 9.38L48.774 8.696C48.438 8.3 47.658 7.364 46.038 6.188L45.342 6.812C45.63 7.016 45.822 7.148 46.458 7.7C44.022 7.784 43.746 7.796 42.918 7.832C44.454 6.488 44.946 6.044 45.582 5.324L44.73 4.772ZM38.37 11.864C39.006 11.552 40.374 10.856 41.478 9.56L40.698 9.02C39.642 10.232 38.094 10.916 37.746 11.072L38.37 11.864ZM45.054 9.512C45.618 10.1 46.518 10.976 48.366 11.804L48.978 10.952C47.586 10.424 46.686 9.86 45.75 8.936L45.054 9.512ZM56.352 3.356H60.132V2.312H51.456V3.356H55.212V9.524H50.808V10.592H60.78V9.524H56.352V3.356ZM67.866 3.776C67.554 3.584 66.234 2.732 64.11 2.096L63.57 3.056C65.298 3.596 66.558 4.304 67.266 4.784L67.866 3.776ZM64.038 11.192C70.95 10.736 72.87 5.132 73.446 3.428L72.51 2.732C71.682 5.42 69.894 9.668 63.822 9.992L64.038 11.192ZM80.808 2.996C79.86 2.54 78.684 2 77.292 1.688L76.86 2.6C78.096 2.948 79.248 3.38 80.352 3.992L80.808 2.996ZM79.824 5.804C78.9 5.264 77.46 4.712 76.356 4.448L75.936 5.396C77.664 5.9 78.756 6.464 79.38 6.824L79.824 5.804ZM82.74 1.028C83.292 1.976 83.46 2.384 83.784 3.38L84.624 2.96C84.228 1.904 84 1.352 83.52 0.632L82.74 1.028ZM84.744 0.908C85.26 1.82 85.452 2.324 85.752 3.284L86.604 2.876C86.244 1.796 85.92 1.148 85.536 0.536L84.744 0.908ZM76.824 11.264C81.72 10.628 84.048 8.78 85.608 4.328L84.672 3.644C83.352 7.808 81.336 9.62 76.56 10.088L76.824 11.264ZM92.766 3.776C92.454 3.584 91.134 2.732 89.01 2.096L88.47 3.056C90.198 3.596 91.458 4.304 92.166 4.784L92.766 3.776ZM88.938 11.192C95.85 10.736 97.77 5.132 98.346 3.428L97.41 2.732C96.582 5.42 94.794 9.668 88.722 9.992L88.938 11.192ZM108.996 11.972V1.688H111.3V0.727999H108.036V11.972H108.996ZM120.066 9.404C120.774 6.416 121.014 3.392 121.098 2.456H114.462V3.524H119.874C119.802 4.388 119.574 6.92 118.914 9.404H112.938V10.472H123.102V9.404H120.066ZM127.56 1.7H126.456V9.296C126.456 10.82 127.2 11.12 128.988 11.12H132.348C133.104 11.12 134.244 11.084 134.976 10.964L134.916 9.884C134.148 10.028 133.188 10.076 132.228 10.076H129.144C127.776 10.076 127.56 9.98 127.56 9.116V6.464C128.82 6.2 131.016 5.648 133.644 4.448L133.152 3.44C131.352 4.364 129.696 4.928 127.56 5.42V1.7ZM132.78 1.34C133.32 2.168 133.596 2.696 133.956 3.644L134.772 3.164C134.388 2.276 134.088 1.664 133.548 0.908L132.78 1.34ZM134.616 0.775999C135.216 1.688 135.42 2.12 135.78 3.08L136.596 2.612C136.248 1.76 135.912 1.064 135.384 0.343999L134.616 0.775999ZM137.79 5.864V7.004H148.11V5.864H137.79ZM152.004 0.908V11.192H149.7V12.152H152.964V0.908H152.004ZM170.49 3.476L170.466 1.448H169.374L169.41 3.476H165.81V4.508H169.434L169.482 7.34C169.146 7.244 168.846 7.16 168.246 7.16C166.722 7.16 165.618 8.012 165.618 9.26C165.618 10.232 166.314 11.324 168.186 11.324C170.478 11.324 170.49 9.968 170.49 9.284V8.84C171.15 9.26 171.75 9.764 172.23 10.4L172.938 9.428C172.386 8.84 171.498 8.156 170.526 7.676L170.49 4.508H172.734V3.476H170.49ZM169.482 9.068C169.482 9.716 169.434 10.424 168.126 10.424C167.49 10.424 166.578 10.196 166.578 9.272C166.578 8.372 167.454 8.06 168.258 8.06C168.87 8.06 169.206 8.204 169.482 8.324V9.068ZM163.518 1.424C163.194 3.296 163.074 5.036 163.074 6.932C163.074 8.408 163.122 9.896 163.41 11.348L164.49 11.204C164.178 9.836 164.118 8.42 164.118 7.016C164.118 4.328 164.406 2.708 164.634 1.508L163.518 1.424ZM183.696 11.972V1.688H186V0.727999H182.736V11.972H183.696ZM193.674 0.872V1.628H190.086V2.444H191.838C191.874 2.54 192.09 3.344 192.138 3.536H190.482V10.172H191.394V4.316H193.722V5.216H191.766V5.96H193.722V6.788H192.198V9.272H196.134V6.788H194.598V5.96H196.542V5.216H194.598V4.316H196.914V9.128C196.914 9.404 196.806 9.428 196.65 9.428L195.534 9.416L195.666 10.328H196.938C197.562 10.328 197.826 9.98 197.826 9.404V3.536H196.074C196.242 3.128 196.338 2.852 196.458 2.444H198.27V1.628H194.646V0.872H193.674ZM193.002 3.536C192.894 3.068 192.882 3.008 192.738 2.444H195.582C195.546 2.6 195.366 3.224 195.234 3.536H193.002ZM195.306 8.54H193.014V7.508H195.306V8.54ZM192.246 10.796C191.898 10.796 189.714 10.628 189.474 9.164V5.528H187.23V6.512H188.526V9.896C187.998 10.46 187.314 10.904 187.098 11.036L187.578 12.056C188.43 11.312 188.49 11.24 189.258 10.364C189.522 10.712 190.266 11.72 192.234 11.72H198.234L198.426 10.796H192.246ZM189.906 3.032C189.33 2.228 188.634 1.52 188.07 1.04L187.41 1.64C188.49 2.696 188.91 3.344 189.126 3.668L189.906 3.032ZM200.724 4.232L199.488 4.436L199.548 5.408L200.724 5.216V9.056C200.724 9.632 201.024 9.932 201.588 9.932H202.992C203.976 9.932 204.204 8.984 204.396 7.412L203.424 7.184C203.4 7.64 203.316 9.008 202.8 9.008H202.056C201.756 9.008 201.696 8.924 201.696 8.66V5.06L204.336 4.628L204.276 3.644L201.696 4.064V0.883999H200.724V4.232ZM204 1.4V2.372H206.148C206.148 6.584 205.764 9.284 202.26 11.156L202.956 12.02C206.28 9.992 207.108 7.616 207.156 2.372H209.424C209.424 3.74 209.424 9.62 208.788 10.652C208.584 10.988 208.188 10.976 208.068 10.976L206.28 10.964L206.496 11.984H208.236C209.304 11.984 209.628 11.432 209.772 11.132C210.432 9.716 210.432 4.328 210.432 1.4H204ZM220.398 4.688H219.318L219.39 7.256C219.126 7.196 218.742 7.112 218.142 7.112C216.018 7.112 215.322 8.444 215.322 9.344C215.322 10.46 216.21 11.456 218.01 11.456C219.198 11.456 220.41 11.024 220.41 9.248V8.756C220.842 9.008 221.574 9.452 222.354 10.388L223.014 9.44C222.426 8.792 221.466 8.048 220.458 7.604L220.398 4.688ZM219.414 9.056C219.414 9.872 219.234 10.52 218.046 10.52C217.818 10.52 216.342 10.52 216.342 9.308C216.342 8.636 216.918 8.024 218.142 8.024C218.778 8.024 219.138 8.156 219.414 8.252V9.056ZM215.85 2.84C216.006 1.964 216.018 1.892 216.114 1.316L214.974 1.268C214.926 1.748 214.89 2.012 214.758 2.84H212.538V3.848H214.566C214.254 5.192 213.726 7.544 212.442 9.608L213.546 10.088C213.978 9.2 214.962 7.196 215.646 3.848H218.37V2.84H215.85ZM222.81 3.776C221.538 3.068 220.734 2.708 219.534 2.288L219.114 3.176C220.194 3.572 221.094 4.004 222.306 4.736L222.81 3.776ZM225.888 6.404C226.728 5.876 227.064 5.54 227.412 5.192C229.176 6.08 230.232 6.824 231.228 7.676C229.86 9.176 228 10.064 226.032 10.532L226.548 11.528C233.748 9.656 234.372 3.92 234.588 1.964H228.384C227.664 3.56 226.608 4.676 225.18 5.564L225.888 6.404ZM233.352 2.96C233.076 4.82 232.524 5.924 231.888 6.86C230.7 5.84 229.32 5.096 228.072 4.472C228.396 4.076 228.612 3.8 229.104 2.96H233.352ZM243.834 5.072C245.514 3.728 246.51 2.564 247.038 1.94L246.03 1.28C243.798 4.088 240.846 6.26 237.426 7.328L237.954 8.324C239.49 7.784 241.05 7.064 242.682 5.924V11.516H243.834V5.072ZM259.044 2.612C256.248 1.976 254.088 1.712 251.196 1.544L251.016 2.54C253.992 2.696 256.332 3.044 258.84 3.716L259.044 2.612ZM258.42 6.248C256.428 5.648 254.52 5.24 251.136 4.988L250.932 5.984C253.932 6.212 255.876 6.548 258.228 7.292L258.42 6.248ZM259.536 10.316C258.216 9.932 255.192 9.044 250.428 8.804L250.212 9.824C254.484 10.148 256.68 10.628 259.236 11.456L259.536 10.316ZM267.066 3.776C266.754 3.584 265.434 2.732 263.31 2.096L262.77 3.056C264.498 3.596 265.758 4.304 266.466 4.784L267.066 3.776ZM263.238 11.192C270.15 10.736 272.07 5.132 272.646 3.428L271.71 2.732C270.882 5.42 269.094 9.668 263.022 9.992L263.238 11.192ZM275.676 11.624C279.948 10.664 282.456 8.288 283.452 3.716L282.336 2.24H277.536C276.696 3.92 275.472 4.952 274.536 5.588L275.22 6.404C276.576 5.492 277.464 4.508 278.256 3.248H282.42C281.736 6.86 279.876 9.68 275.22 10.604L275.676 11.624ZM283.956 0.8C284.58 1.652 284.82 2.132 285.228 3.056L285.996 2.552C285.492 1.544 285.288 1.124 284.676 0.343999L283.956 0.8ZM282.36 1.268C282.948 2.048 283.248 2.564 283.668 3.5L284.424 2.984C283.92 1.988 283.68 1.556 283.068 0.8L282.36 1.268ZM294.018 5C294.582 5.792 294.882 6.356 295.278 7.316L296.118 6.788C295.698 5.876 295.35 5.228 294.798 4.52L294.018 5ZM295.794 4.232C296.37 5.06 296.646 5.576 297.054 6.548L297.894 6.02C297.462 5.084 297.15 4.496 296.574 3.752L295.794 4.232ZM297.258 1.976C294.51 1.988 293.382 2.012 290.538 2.168C289.926 2.204 287.85 2.3 287.262 2.312L287.358 3.488C288.666 3.332 292.818 3.08 293.166 3.068C291.75 3.896 289.65 5.468 289.65 7.748C289.65 11.108 293.634 11.276 295.998 11.372L296.214 10.208C295.146 10.244 293.958 10.148 293.19 9.992C291.918 9.728 290.766 9.236 290.766 7.676C290.766 5.612 293.118 3.752 294.846 3.176C295.206 3.056 295.47 3.032 296.058 3.032C296.394 3.032 296.766 3.044 297.282 3.08L297.258 1.976ZM305.1 11.372C306.432 11.24 307.632 10.832 308.412 10.184C309.504 9.272 310.02 7.856 310.02 6.428C310.02 4.4 308.976 1.712 305.088 1.712C301.92 1.712 299.544 3.8 299.544 7.064C299.544 9.044 300.528 10.436 301.704 10.436C302.244 10.436 303.012 10.16 303.72 9.044C304.956 7.064 305.196 4.112 305.304 2.72C308.604 2.828 308.892 5.468 308.892 6.416C308.892 9.848 305.976 10.196 304.74 10.328L305.1 11.372ZM304.236 2.768C304.116 4.148 303.924 6.584 302.916 8.312C302.604 8.84 302.244 9.284 301.74 9.284C300.888 9.284 300.588 7.904 300.588 7.088C300.588 5.696 301.14 4.352 302.256 3.536C302.868 3.08 303.528 2.9 304.236 2.768ZM318.174 0.872V1.628H314.586V2.444H316.338C316.374 2.54 316.59 3.344 316.638 3.536H314.982V10.172H315.894V4.316H318.222V5.216H316.266V5.96H318.222V6.788H316.698V9.272H320.634V6.788H319.098V5.96H321.042V5.216H319.098V4.316H321.414V9.128C321.414 9.404 321.306 9.428 321.15 9.428L320.034 9.416L320.166 10.328H321.438C322.062 10.328 322.326 9.98 322.326 9.404V3.536H320.574C320.742 3.128 320.838 2.852 320.958 2.444H322.77V1.628H319.146V0.872H318.174ZM317.502 3.536C317.394 3.068 317.382 3.008 317.238 2.444H320.082C320.046 2.6 319.866 3.224 319.734 3.536H317.502ZM319.806 8.54H317.514V7.508H319.806V8.54ZM316.746 10.796C316.398 10.796 314.214 10.628 313.974 9.164V5.528H311.73V6.512H313.026V9.896C312.498 10.46 311.814 10.904 311.598 11.036L312.078 12.056C312.93 11.312 312.99 11.24 313.758 10.364C314.022 10.712 314.766 11.72 316.734 11.72H322.734L322.926 10.796H316.746ZM314.406 3.032C313.83 2.228 313.134 1.52 312.57 1.04L311.91 1.64C312.99 2.696 313.41 3.344 313.626 3.668L314.406 3.032ZM325.224 4.232L323.988 4.436L324.048 5.408L325.224 5.216V9.056C325.224 9.632 325.524 9.932 326.088 9.932H327.492C328.476 9.932 328.704 8.984 328.896 7.412L327.924 7.184C327.9 7.64 327.816 9.008 327.3 9.008H326.556C326.256 9.008 326.196 8.924 326.196 8.66V5.06L328.836 4.628L328.776 3.644L326.196 4.064V0.883999H325.224V4.232ZM328.5 1.4V2.372H330.648C330.648 6.584 330.264 9.284 326.76 11.156L327.456 12.02C330.78 9.992 331.608 7.616 331.656 2.372H333.924C333.924 3.74 333.924 9.62 333.288 10.652C333.084 10.988 332.688 10.976 332.568 10.976L330.78 10.964L330.996 11.984H332.736C333.804 11.984 334.128 11.432 334.272 11.132C334.932 9.716 334.932 4.328 334.932 1.4H328.5ZM344.898 4.688H343.818L343.89 7.256C343.626 7.196 343.242 7.112 342.642 7.112C340.518 7.112 339.822 8.444 339.822 9.344C339.822 10.46 340.71 11.456 342.51 11.456C343.698 11.456 344.91 11.024 344.91 9.248V8.756C345.342 9.008 346.074 9.452 346.854 10.388L347.514 9.44C346.926 8.792 345.966 8.048 344.958 7.604L344.898 4.688ZM343.914 9.056C343.914 9.872 343.734 10.52 342.546 10.52C342.318 10.52 340.842 10.52 340.842 9.308C340.842 8.636 341.418 8.024 342.642 8.024C343.278 8.024 343.638 8.156 343.914 8.252V9.056ZM340.35 2.84C340.506 1.964 340.518 1.892 340.614 1.316L339.474 1.268C339.426 1.748 339.39 2.012 339.258 2.84H337.038V3.848H339.066C338.754 5.192 338.226 7.544 336.942 9.608L338.046 10.088C338.478 9.2 339.462 7.196 340.146 3.848H342.87V2.84H340.35ZM347.31 3.776C346.038 3.068 345.234 2.708 344.034 2.288L343.614 3.176C344.694 3.572 345.594 4.004 346.806 4.736L347.31 3.776ZM6.912 24.2C6.996 23.684 7.032 23.288 7.032 22.592H10.332V21.716H4.86C5.028 21.392 5.124 21.188 5.316 20.708L4.356 20.504C3.984 21.668 3.276 22.544 2.424 23.228L3.18 23.876C3.648 23.456 3.924 23.156 4.332 22.592H6.096C6.096 23.456 6.036 23.828 5.976 24.2H2.484V25.088H5.688C4.836 26.852 2.928 27.32 2.328 27.464L2.904 28.34C4.272 27.884 5.808 27.104 6.6 25.28C6.9 25.964 7.86 27.488 10.572 28.328L11.1 27.404C9.156 26.972 7.884 25.856 7.476 25.088H10.836V24.2H6.912ZM0.84 19.268V29.756H11.496V28.844H1.86V20.192H11.244V19.268H0.84ZM22.746 24.704C23.118 24.932 23.346 25.04 23.67 25.196L24.126 24.392C23.79 24.272 23.466 24.152 22.926 23.852C22.95 23.816 23.37 23.408 23.742 22.928L23.07 22.52C22.938 22.7 22.65 23.06 22.302 23.432C21.726 22.988 21.426 22.592 21.186 22.292H23.982V21.536H19.614C19.698 21.368 19.746 21.248 19.866 20.948L18.918 20.84C18.822 21.116 18.762 21.272 18.642 21.536H15.762V22.292H18.186C17.85 22.736 17.55 23.048 17.178 23.348C17.07 23.228 16.734 22.856 16.35 22.568L15.798 23.072C16.134 23.336 16.17 23.372 16.566 23.792C16.158 24.068 15.846 24.224 15.426 24.428L15.954 25.148C16.218 24.992 16.302 24.944 16.554 24.788V27.284H19.134V28.832C19.134 29.072 19.098 29.12 18.858 29.12H17.718L17.922 29.984H19.218C19.59 29.984 20.106 29.96 20.106 29.216V27.284H22.746V24.704ZM21.87 25.172H17.43V24.452H21.87V25.172ZM17.922 23.756C18.702 23.048 19.038 22.52 19.182 22.292H20.202C20.466 22.676 20.766 23.132 21.462 23.756H17.922ZM21.87 26.588H17.43V25.832H21.87V26.588ZM14.43 23.912C14.43 24.248 14.418 24.476 14.418 24.668C13.818 24.968 13.542 25.1 12.714 25.424L12.918 26.408C13.278 26.228 13.734 26 14.334 25.604C14.07 27.836 13.41 28.7 12.87 29.372L13.602 30.02C14.082 29.444 15.378 27.896 15.378 23.948V20.684H24.018V19.844H19.554V18.872H18.57V19.844H14.43V23.912ZM14.178 22.88C14.058 22.268 13.806 21.428 13.458 20.744L12.714 21.104C12.99 21.788 13.206 22.556 13.338 23.276L14.178 22.88ZM15.45 29.804C16.254 29.504 16.998 29.108 18.018 28.112L17.322 27.536C16.47 28.352 15.882 28.676 14.922 29L15.45 29.804ZM21.078 28.124C21.726 28.856 22.746 29.492 23.67 29.816L24.198 29C23.082 28.604 22.578 28.316 21.714 27.488L21.078 28.124ZM34.884 22.112C33.024 22.412 32.04 22.604 30.744 23C30.492 22.484 30.432 21.848 30.432 20.576C30.432 19.988 30.444 19.652 30.456 19.328H29.28C29.316 21.884 29.34 22.58 29.736 23.36C28.896 23.72 26.424 24.752 26.424 26.804C26.424 29.36 29.748 29.36 31.824 29.36C33.552 29.36 34.608 29.288 35.388 29.24L35.364 28.112C34.68 28.184 33.564 28.292 31.584 28.292C29.004 28.292 27.54 28.16 27.54 26.768C27.54 24.104 34.02 23.372 34.992 23.264L34.884 22.112ZM43.65 29.372C44.982 29.24 46.182 28.832 46.962 28.184C48.054 27.272 48.57 25.856 48.57 24.428C48.57 22.4 47.526 19.712 43.638 19.712C40.47 19.712 38.094 21.8 38.094 25.064C38.094 27.044 39.078 28.436 40.254 28.436C40.794 28.436 41.562 28.16 42.27 27.044C43.506 25.064 43.746 22.112 43.854 20.72C47.154 20.828 47.442 23.468 47.442 24.416C47.442 27.848 44.526 28.196 43.29 28.328L43.65 29.372ZM42.786 20.768C42.666 22.148 42.474 24.584 41.466 26.312C41.154 26.84 40.794 27.284 40.29 27.284C39.438 27.284 39.138 25.904 39.138 25.088C39.138 23.696 39.69 22.352 40.806 21.536C41.418 21.08 42.078 20.9 42.786 20.768ZM51.084 19.76V24.164H55.284V28.844H51.684V25.088H50.676V29.768H60.912V25.088H59.892V28.844H56.292V24.164H60.516V19.76H59.496V23.24H56.292V18.872H55.284V23.24H52.104V19.76H51.084ZM69.582 26.48C70.518 27.428 71.118 28.184 71.238 28.34C70.35 28.424 69.114 28.532 67.65 28.592C67.398 28.604 66.054 28.64 65.754 28.652C66.534 27.272 67.014 26.228 67.302 25.568H73.566V24.644H62.85V25.568H66.138C65.874 26.264 65.418 27.38 64.662 28.676H63.006L63.114 29.66C64.962 29.66 69.858 29.444 71.862 29.156C72.114 29.528 72.258 29.756 72.45 30.08L73.314 29.504C72.39 28.04 71.658 27.2 70.374 25.94L69.582 26.48ZM71.43 22.436C72.282 23.012 72.954 23.324 73.482 23.564L74.01 22.604C71.922 21.86 70.014 20.408 68.766 18.74H67.698C67.374 19.22 66.03 21.164 62.454 22.568L62.946 23.54C63.354 23.372 64.014 23.084 65.082 22.424V23.096H71.43V22.436ZM65.454 22.184C66.462 21.488 67.482 20.648 68.238 19.592C68.658 20.12 69.354 20.984 71.046 22.184H65.454ZM76.056 19.892C75.984 20.708 75.864 22.016 75.864 23.324C75.864 26.444 76.404 29.132 78.348 29.132C78.96 29.132 79.404 28.844 79.692 28.556C80.364 27.884 80.916 26.876 81.312 25.76L80.424 25.256C79.596 27.416 78.972 27.908 78.432 27.908C77.088 27.908 76.944 25.28 76.944 23.42C76.944 21.8 77.1 20.708 77.196 19.988L76.056 19.892ZM85.728 27.944C85.896 23.144 84.66 21.452 83.232 20.252L82.404 20.888C83.652 21.908 84.588 23.636 84.588 26.768C84.588 27.32 84.564 27.68 84.54 27.992L85.728 27.944ZM89.754 18.908V29.192H87.45V30.152H90.714V18.908H89.754ZM105.9 29.372C107.232 29.24 108.432 28.832 109.212 28.184C110.304 27.272 110.82 25.856 110.82 24.428C110.82 22.4 109.776 19.712 105.888 19.712C102.72 19.712 100.344 21.8 100.344 25.064C100.344 27.044 101.328 28.436 102.504 28.436C103.044 28.436 103.812 28.16 104.52 27.044C105.756 25.064 105.996 22.112 106.104 20.72C109.404 20.828 109.692 23.468 109.692 24.416C109.692 27.848 106.776 28.196 105.54 28.328L105.9 29.372ZM105.036 20.768C104.916 22.148 104.724 24.584 103.716 26.312C103.404 26.84 103.044 27.284 102.54 27.284C101.688 27.284 101.388 25.904 101.388 25.088C101.388 23.696 101.94 22.352 103.056 21.536C103.668 21.08 104.328 20.9 105.036 20.768ZM116.226 23.84C116.526 23.684 116.886 23.504 117.474 23.06V24.452H122.13V23.108C122.55 23.432 122.922 23.648 123.462 23.888L123.846 23.108C122.538 22.52 122.082 22.124 121.494 21.284H123.582V20.54H119.562C119.61 20.444 119.694 20.288 119.886 19.832C120.438 19.796 121.998 19.676 122.898 19.496L122.49 18.776C121.494 18.98 119.886 19.232 116.382 19.22L116.574 19.94C117.03 19.94 117.462 19.94 118.926 19.88C118.866 20 118.794 20.156 118.59 20.54H116.094V21.284H118.11C117.294 22.376 116.238 22.868 115.782 23.084L116.226 23.84ZM120.546 21.284C120.702 21.548 120.882 21.848 121.23 22.268H118.35C118.662 21.932 118.866 21.692 119.13 21.284H120.546ZM121.362 23.792H118.23V22.928H121.362V23.792ZM123.258 25.04H116.334V30.008H117.234V25.772H122.334V28.688C122.334 29.12 122.298 29.192 121.89 29.18L121.11 29.168L121.278 30.008H122.25C122.79 30.008 123.258 29.948 123.258 29.18V25.04ZM120.846 28.196H118.746V27.104H120.846V28.196ZM116.238 24.752C115.47 23.84 115.122 23.06 114.954 22.628V22.124H116.034V21.212H114.954V18.872H114.03V21.212H112.506V22.124H113.994C113.682 23.708 112.926 25.112 112.35 25.916L112.782 27.068C113.082 26.624 113.562 25.88 114.03 24.368V30.008H114.954V24.104C115.146 24.584 115.194 24.704 115.71 25.496L116.238 24.752ZM121.65 26.432H117.93V28.892H121.65V26.432ZM128.136 19.772V24.248C128.136 27.284 127.152 28.604 126.696 29.216L127.476 29.972C127.74 29.588 128.436 28.592 128.772 27.08C128.952 26.252 129.096 25.088 129.096 24.26V22.628H130.476V24.512H134.34V22.628H135.948V21.8H134.34V20.96H133.452V21.8H131.364V20.96H130.476V21.8H129.096V20.66H136.044V19.772H132.588V18.872H131.616V19.772H128.136ZM125.292 19.76C125.748 19.976 126.66 20.492 127.116 20.972L127.728 20.084C126.888 19.472 126.36 19.196 125.844 18.98L125.292 19.76ZM133.452 22.628V23.732H131.364V22.628H133.452ZM136.188 29.072C135.708 28.988 134.712 28.796 133.428 28.268C134.652 27.38 135.108 26.456 135.312 26.036V25.208H129.444V26.06H134.268C134.028 26.432 133.56 27.14 132.456 27.788C131.4 27.152 130.944 26.576 130.704 26.288L129.924 26.708C130.152 27.008 130.596 27.56 131.532 28.244C130.128 28.832 129.084 28.988 128.508 29.072L128.94 30.032C130.416 29.708 131.484 29.348 132.468 28.832C133.956 29.648 135.168 29.888 135.792 30.008L136.188 29.072ZM124.752 22.94C125.4 23.252 126.06 23.672 126.612 24.152L127.212 23.324C126.804 22.988 126.012 22.448 125.304 22.136L124.752 22.94ZM126.444 25.256C126.192 26.18 125.616 27.74 124.716 29.072L125.472 29.912C126.648 28.052 127.116 26.336 127.26 25.748L126.444 25.256ZM139.53 19.424C139.518 20.24 139.446 24.224 139.446 25.124C139.446 27.212 139.662 29.408 142.95 29.408C146.598 29.408 147.378 26.936 147.762 24.764L146.754 24.392C146.418 26.216 146.022 28.376 142.914 28.376C140.658 28.376 140.586 26.768 140.586 25.232C140.586 24.092 140.634 22.664 140.742 19.424H139.53ZM151.332 19.532C150.948 21.332 150.828 23.252 150.828 25.232C150.828 27.524 151.032 28.724 151.14 29.42L152.304 29.324C152.208 28.892 151.932 27.74 151.932 25.064C151.932 22.04 152.292 20.468 152.472 19.628L151.332 19.532ZM154.296 20.504V21.56H159.936V20.504H154.296ZM154.56 24.476C154.14 25.184 153.924 25.868 153.924 26.492C153.924 28.556 156.144 28.724 157.92 28.724C158.94 28.724 159.78 28.652 160.188 28.616V27.488C159.084 27.608 158.1 27.632 157.44 27.632C156.156 27.632 154.932 27.488 154.932 26.396C154.932 26.288 154.944 25.604 155.532 24.776L154.56 24.476ZM168.462 22.364H172.518V21.284L168.462 21.32L168.45 19.328H167.322L167.37 24.98C167.07 24.944 166.842 24.908 166.446 24.908C164.73 24.908 163.038 25.616 163.038 27.26C163.038 28.436 163.926 29.42 165.906 29.42C168.402 29.42 168.486 27.884 168.474 27.176L168.462 26.348C169.926 26.912 171.318 27.992 172.05 28.808L172.83 27.776C172.242 27.164 170.838 26.012 168.474 25.208L168.462 22.364ZM167.382 27.104C167.382 27.596 167.262 28.424 165.894 28.424C165.63 28.424 164.106 28.424 164.106 27.272C164.106 26.3 165.246 25.892 166.278 25.892C166.782 25.892 167.142 25.964 167.394 26.012L167.382 27.104ZM178.932 29.036C179.892 29.024 180.924 28.94 181.86 28.64C184.152 27.92 184.416 26.036 184.416 25.316C184.416 23.636 183.24 22.364 181.188 22.364C180.552 22.364 179.712 22.484 178.968 22.604C178.56 22.676 176.568 23.036 176.112 23.108L176.292 24.164C178.14 23.696 180.18 23.3 181.14 23.3C182.316 23.3 183.36 23.9 183.36 25.352C183.36 28.136 179.664 28.112 178.668 28.1L178.932 29.036ZM197.658 19.976C194.706 20 193.602 20.024 190.914 20.168C190.302 20.204 188.382 20.288 187.662 20.312L187.758 21.488C189.066 21.332 193.218 21.08 193.566 21.068C192.15 21.896 190.05 23.468 190.05 25.748C190.05 29.108 194.034 29.276 196.398 29.372L196.614 28.208C195.582 28.244 194.43 28.172 193.59 27.992C192.318 27.728 191.166 27.236 191.166 25.676C191.166 23.612 193.518 21.752 195.246 21.176C195.606 21.056 195.858 21.032 196.458 21.032C196.926 21.032 197.274 21.044 197.682 21.08L197.658 19.976ZM203.076 28.892C202.572 28.208 201.72 27.2 200.94 26.48L200.028 27.152C200.424 27.572 201.168 28.352 202.02 29.636L203.076 28.892ZM217.854 29.588C220.41 28.676 221.022 26.672 221.31 25.496C221.91 25.76 222.114 25.868 222.654 26.192L223.014 25.112C222.27 24.704 221.574 24.44 221.538 24.428C221.718 23.468 221.814 22.424 221.898 21.56L220.758 21.476C220.734 22.028 220.674 22.88 220.494 24.056C219.402 23.696 218.61 23.504 217.602 23.42C217.998 21.056 218.034 20.792 218.19 19.592H213.222V20.636L216.978 20.6C216.906 21.452 216.75 22.52 216.582 23.384C212.658 23.54 212.442 26.12 212.442 26.708C212.442 27.992 213.282 28.76 214.434 28.76C216.246 28.76 216.774 27.044 217.422 24.368C218.502 24.464 219.522 24.776 220.302 25.076C219.882 26.816 219.258 28.016 217.194 28.76L217.854 29.588ZM216.402 24.308C215.766 26.912 215.442 27.812 214.362 27.812C213.45 27.812 213.39 26.876 213.39 26.648C213.39 25.832 213.882 25.052 214.662 24.668C215.19 24.404 215.694 24.332 216.402 24.308ZM232.848 22.688H231.768L231.84 25.256C231.576 25.196 231.192 25.112 230.592 25.112C228.468 25.112 227.772 26.444 227.772 27.344C227.772 28.46 228.66 29.456 230.46 29.456C231.648 29.456 232.86 29.024 232.86 27.248V26.756C233.292 27.008 234.024 27.452 234.804 28.388L235.464 27.44C234.876 26.792 233.916 26.048 232.908 25.604L232.848 22.688ZM231.864 27.056C231.864 27.872 231.684 28.52 230.496 28.52C230.268 28.52 228.792 28.52 228.792 27.308C228.792 26.636 229.368 26.024 230.592 26.024C231.228 26.024 231.588 26.156 231.864 26.252V27.056ZM228.3 20.84C228.456 19.964 228.468 19.892 228.564 19.316L227.424 19.268C227.376 19.748 227.34 20.012 227.208 20.84H224.988V21.848H227.016C226.704 23.192 226.176 25.544 224.892 27.608L225.996 28.088C226.428 27.2 227.412 25.196 228.096 21.848H230.82V20.84H228.3ZM235.26 21.776C233.988 21.068 233.184 20.708 231.984 20.288L231.564 21.176C232.644 21.572 233.544 22.004 234.756 22.736L235.26 21.776ZM245.982 25.4C245.262 24.632 244.566 23.468 244.062 22.256C245.118 22.208 246.15 22.16 247.458 21.884L247.266 20.852C246.066 21.104 244.938 21.248 243.714 21.284C243.558 20.804 243.39 20.024 243.282 19.292L242.142 19.376C242.19 19.664 242.37 20.54 242.61 21.32C242.31 21.332 241.662 21.344 241.158 21.332L237.654 21.272V22.316H241.11C241.29 22.316 242.214 22.304 242.946 22.292C243.594 23.936 244.35 25.232 245.058 26.024L245.982 25.4ZM239.934 24.416C238.71 25.016 238.194 25.88 238.194 26.756C238.194 27.356 238.422 27.944 238.902 28.376C239.742 29.132 240.93 29.372 243.03 29.372C244.674 29.372 245.73 29.276 246.162 29.228L246.15 28.16C245.406 28.256 244.494 28.364 242.934 28.364C241.218 28.364 239.274 28.208 239.274 26.744C239.274 26.516 239.334 25.772 240.51 25.196L239.934 24.416ZM253.068 19.256C252.78 20.036 252.084 21.956 251.904 22.46C251.628 23.24 251.424 23.816 249.72 29.024L250.848 29.372C251.172 28.16 251.364 27.44 251.784 26.324C252.54 24.776 253.524 24.524 254.004 24.524C254.856 24.524 255.072 25.232 255.072 26.12V26.792C255.072 27.728 255.084 29.42 257.124 29.42C259.872 29.42 260.16 26.204 260.232 24.62L259.188 24.38C259.188 25.076 259.128 25.976 258.792 26.948C258.396 28.088 257.784 28.364 257.196 28.364C256.224 28.364 256.128 27.704 256.128 26.84V26.036C256.128 25.208 256.032 23.504 254.184 23.504C253.524 23.504 253.056 23.732 252.408 24.26C252.732 23.324 253.452 21.356 254.256 19.58L253.068 19.256ZM267.75 29.372C269.082 29.24 270.282 28.832 271.062 28.184C272.154 27.272 272.67 25.856 272.67 24.428C272.67 22.4 271.626 19.712 267.738 19.712C264.57 19.712 262.194 21.8 262.194 25.064C262.194 27.044 263.178 28.436 264.354 28.436C264.894 28.436 265.662 28.16 266.37 27.044C267.606 25.064 267.846 22.112 267.954 20.72C271.254 20.828 271.542 23.468 271.542 24.416C271.542 27.848 268.626 28.196 267.39 28.328L267.75 29.372ZM266.886 20.768C266.766 22.148 266.574 24.584 265.566 26.312C265.254 26.84 264.894 27.284 264.39 27.284C263.538 27.284 263.238 25.904 263.238 25.088C263.238 23.696 263.79 22.352 264.906 21.536C265.518 21.08 266.178 20.9 266.886 20.768ZM281.688 18.872V19.652H280.128V20.444H281.688V21.38H279.492V22.16H281.688V23.12H280.128V23.888H281.688V24.752H279.96V25.532H281.688V26.432H279.636V27.236H281.688V28.304H282.552V27.236H285.408V26.432H282.552V25.532H285.024V24.752H282.552V23.888H284.868V22.16H285.444V21.38H284.868V19.652H282.552V18.872H281.688ZM283.98 21.38H282.552V20.444H283.98V21.38ZM283.98 23.12H282.552V22.16H283.98V23.12ZM282.264 28.736C279.924 28.736 278.856 27.68 278.784 27.596C278.916 27.248 279.468 25.652 279.516 23.048H277.98C278.508 22.124 279.084 21.128 279.492 20.228V19.328H277.092V20.192H278.52C278.232 20.888 277.452 22.364 276.972 23.036V23.912H278.64C278.616 24.8 278.532 25.736 278.196 26.744C277.8 25.916 277.692 25.148 277.62 24.656L276.804 24.776C276.876 25.22 277.08 26.624 277.776 27.692C277.308 28.46 276.9 28.772 276.564 29.036L277.104 29.924C277.452 29.6 277.884 29.204 278.364 28.424C278.7 28.748 279.888 29.672 282.192 29.672H285.396L285.552 28.736H282.264ZM276.288 21.752C276.708 20.6 276.876 19.7 276.996 19.004L276.036 18.848C275.796 20.552 275.16 22.628 274.14 23.864L274.608 24.848C274.86 24.584 275.052 24.38 275.364 23.816V29.984H276.288V21.752ZM296.706 25.628C296.094 26.384 295.134 27.128 294.99 27.236C294.186 26.636 293.754 26.072 293.454 25.652V25.544H296.97V23.888H297.918V23.096H296.97V21.5H293.454V20.936H292.518V21.5H289.146V22.28H292.518V23.096H288.618V20.636H297.846V19.748H292.974V18.872H291.978V19.748H287.646V24.74C287.646 25.94 287.55 26.336 287.418 27.032C287.202 28.16 286.842 28.82 286.638 29.168L287.454 30.02C288.51 28.028 288.618 25.712 288.618 24.824V23.888H292.518V24.776H289.146V25.544H292.518V28.76C292.518 28.916 292.494 29.036 292.218 29.036L290.934 29.024L291.126 30.008H292.578C293.19 30.008 293.454 29.648 293.454 29.12V26.888C294.606 28.316 296.178 29.204 297.462 29.684L298.026 28.76C297.594 28.604 296.778 28.316 295.77 27.74C296.574 27.152 296.97 26.792 297.51 26.216L296.706 25.628ZM296.022 22.28V23.096H293.454V22.28H296.022ZM296.022 23.888V24.776H293.454V23.888H296.022ZM289.158 26.336C289.938 26.696 290.31 26.936 290.838 27.428L291.474 26.696C290.862 26.216 290.466 26 289.698 25.64L289.158 26.336ZM291.954 27.188C291.546 27.38 289.746 28.208 288.366 28.64L288.738 29.504C291.294 28.436 291.582 28.316 292.11 28.028L291.954 27.188ZM304.8 23.204C304.128 23.204 303.564 23.744 303.564 24.44C303.564 25.112 304.104 25.676 304.8 25.676C305.496 25.676 306.036 25.1 306.036 24.44C306.036 23.768 305.484 23.204 304.8 23.204ZM322.218 29.072C321.522 28.664 320.346 27.992 318.822 27.356C319.29 26.876 320.082 25.976 320.658 24.14H322.782V23.192H316.278C316.71 22.316 316.866 21.92 316.998 21.596L315.894 21.392C315.75 21.812 315.546 22.376 315.126 23.192H311.718V24.14H314.61C313.95 25.28 313.362 25.976 313.002 26.396C314.874 26.912 315.942 27.272 316.914 27.656C315.414 28.484 313.614 28.784 312.006 28.928L312.354 29.984C315.474 29.66 317.322 28.568 317.982 28.088C319.95 28.94 321.018 29.648 321.558 30.008L322.218 29.072ZM319.602 24.14C319.47 24.536 319.014 25.916 317.862 26.972C316.662 26.516 315.462 26.168 314.598 25.916C314.838 25.604 315.186 25.148 315.762 24.14H319.602ZM312.006 19.952V22.568H313.026V20.876H321.486V22.568H322.506V19.952H317.742V18.872H316.71V19.952H312.006ZM333.24 22.844C333.984 23.312 334.524 23.552 334.944 23.744L335.448 22.76C333.24 21.956 331.464 20.516 330.252 18.884H329.16C327.828 20.744 325.86 22.04 323.952 22.772L324.456 23.756C324.888 23.552 325.392 23.324 326.208 22.832V23.744H329.196V25.568H325.38V26.468H329.196V28.736H324.204V29.696H335.196V28.736H330.216V26.468H334.056V25.568H330.216V23.744H333.24V22.844ZM326.22 22.82C327.552 22.016 328.728 20.96 329.7 19.736C330.984 21.332 332.46 22.34 333.204 22.82H326.22ZM341.322 20.468C341.49 19.868 341.55 19.592 341.622 19.172L340.47 19.124C340.386 19.808 340.302 20.156 340.218 20.468H337.458V21.428H339.93C339.162 23.672 338.202 24.944 337.146 25.94L337.89 26.744C338.274 26.348 339.066 25.292 339.618 24.536C340.458 23.684 341.334 23.312 341.994 23.312C342.546 23.312 342.882 23.552 343.014 24.26C341.826 24.788 339.678 25.868 339.678 27.5C339.678 29.432 342.39 29.432 343.746 29.432C344.886 29.432 345.93 29.36 346.614 29.312L346.578 28.28C345.498 28.4 344.37 28.448 343.41 28.448C342.09 28.448 340.758 28.448 340.758 27.392C340.758 26.408 342.21 25.64 343.134 25.208C343.158 25.52 343.158 25.724 343.158 25.928C343.158 26.36 343.122 26.804 343.098 27.08H344.142C344.178 26.696 344.178 26.336 344.178 26.168C344.178 25.736 344.166 25.22 344.13 24.8C345.45 24.296 346.302 24.032 347.274 23.756L346.986 22.712C345.906 23.084 344.262 23.744 343.986 23.852C343.746 22.712 342.978 22.448 342.162 22.448C341.562 22.448 341.082 22.652 340.242 23.156C340.59 22.556 340.758 22.16 341.034 21.428H346.326V20.468H341.322ZM9.216 39.62V37.34H8.136V39.62H3.948V37.388H2.856V39.62H0.828V40.652H2.856V43.88H3.948V40.652H8.136V42.128C8.136 44.768 6.564 46.148 3.168 46.472L3.564 47.516C5.364 47.3 9.216 46.592 9.216 42.176V40.652H11.292V39.62H9.216ZM18.978 39.404V37.4H17.874V39.404H13.722V40.424H17.874V47.552H18.978V40.424H23.142V39.992C23.862 39.788 24.354 39.14 24.354 38.396C24.354 37.472 23.61 36.728 22.686 36.728C21.774 36.728 21.018 37.472 21.018 38.384C21.018 38.768 21.138 39.116 21.366 39.404H18.978ZM22.686 37.472C23.19 37.472 23.61 37.88 23.61 38.396C23.61 38.9 23.202 39.32 22.686 39.32C22.182 39.32 21.762 38.9 21.762 38.396C21.762 37.88 22.182 37.472 22.686 37.472ZM14.322 46.832C15.762 45.224 16.134 43.268 16.302 41.684L15.282 41.576C15.15 43.052 14.718 44.768 13.446 46.04L14.322 46.832ZM20.598 41.684C21.006 44.144 21.474 45.464 22.554 46.784L23.454 46.088C22.47 44.9 21.966 43.652 21.606 41.564L20.598 41.684ZM25.74 41.864V43.004H36.06V41.864H25.74ZM48.078 42.932C46.35 41.996 44.49 41.072 42.222 40.352V37.28H41.058V47.54H42.222V41.48C44.73 42.344 46.698 43.544 47.514 44.048L48.078 42.932ZM52.38 37.424C52.368 38.24 52.296 42.224 52.296 43.124C52.296 45.212 52.512 47.408 55.8 47.408C59.448 47.408 60.228 44.936 60.612 42.764L59.604 42.392C59.268 44.216 58.872 46.376 55.764 46.376C53.508 46.376 53.436 44.768 53.436 43.232C53.436 42.092 53.484 40.664 53.592 37.424H52.38ZM66.126 46.892C65.622 46.208 64.77 45.2 63.99 44.48L63.078 45.152C63.474 45.572 64.218 46.352 65.07 47.636L66.126 46.892ZM81.612 42.2C81.696 41.684 81.732 41.288 81.732 40.592H85.032V39.716H79.56C79.728 39.392 79.824 39.188 80.016 38.708L79.056 38.504C78.684 39.668 77.976 40.544 77.124 41.228L77.88 41.876C78.348 41.456 78.624 41.156 79.032 40.592H80.796C80.796 41.456 80.736 41.828 80.676 42.2H77.184V43.088H80.388C79.536 44.852 77.628 45.32 77.028 45.464L77.604 46.34C78.972 45.884 80.508 45.104 81.3 43.28C81.6 43.964 82.56 45.488 85.272 46.328L85.8 45.404C83.856 44.972 82.584 43.856 82.176 43.088H85.536V42.2H81.612ZM75.54 37.268V47.756H86.196V46.844H76.56V38.192H85.944V37.268H75.54ZM97.446 42.704C97.818 42.932 98.046 43.04 98.37 43.196L98.826 42.392C98.49 42.272 98.166 42.152 97.626 41.852C97.65 41.816 98.07 41.408 98.442 40.928L97.77 40.52C97.638 40.7 97.35 41.06 97.002 41.432C96.426 40.988 96.126 40.592 95.886 40.292H98.682V39.536H94.314C94.398 39.368 94.446 39.248 94.566 38.948L93.618 38.84C93.522 39.116 93.462 39.272 93.342 39.536H90.462V40.292H92.886C92.55 40.736 92.25 41.048 91.878 41.348C91.77 41.228 91.434 40.856 91.05 40.568L90.498 41.072C90.834 41.336 90.87 41.372 91.266 41.792C90.858 42.068 90.546 42.224 90.126 42.428L90.654 43.148C90.918 42.992 91.002 42.944 91.254 42.788V45.284H93.834V46.832C93.834 47.072 93.798 47.12 93.558 47.12H92.418L92.622 47.984H93.918C94.29 47.984 94.806 47.96 94.806 47.216V45.284H97.446V42.704ZM96.57 43.172H92.13V42.452H96.57V43.172ZM92.622 41.756C93.402 41.048 93.738 40.52 93.882 40.292H94.902C95.166 40.676 95.466 41.132 96.162 41.756H92.622ZM96.57 44.588H92.13V43.832H96.57V44.588ZM89.13 41.912C89.13 42.248 89.118 42.476 89.118 42.668C88.518 42.968 88.242 43.1 87.414 43.424L87.618 44.408C87.978 44.228 88.434 44 89.034 43.604C88.77 45.836 88.11 46.7 87.57 47.372L88.302 48.02C88.782 47.444 90.078 45.896 90.078 41.948V38.684H98.718V37.844H94.254V36.872H93.27V37.844H89.13V41.912ZM88.878 40.88C88.758 40.268 88.506 39.428 88.158 38.744L87.414 39.104C87.69 39.788 87.906 40.556 88.038 41.276L88.878 40.88ZM90.15 47.804C90.954 47.504 91.698 47.108 92.718 46.112L92.022 45.536C91.17 46.352 90.582 46.676 89.622 47L90.15 47.804ZM95.778 46.124C96.426 46.856 97.446 47.492 98.37 47.816L98.898 47C97.782 46.604 97.278 46.316 96.414 45.488L95.778 46.124ZM101.532 37.532C101.148 39.332 101.028 41.252 101.028 43.232C101.028 45.524 101.232 46.724 101.34 47.42L102.504 47.324C102.408 46.892 102.132 45.74 102.132 43.064C102.132 40.04 102.492 38.468 102.672 37.628L101.532 37.532ZM104.496 38.504V39.56H110.136V38.504H104.496ZM104.76 42.476C104.34 43.184 104.124 43.868 104.124 44.492C104.124 46.556 106.344 46.724 108.12 46.724C109.14 46.724 109.98 46.652 110.388 46.616V45.488C109.284 45.608 108.3 45.632 107.64 45.632C106.356 45.632 105.132 45.488 105.132 44.396C105.132 44.288 105.144 43.604 105.732 42.776L104.76 42.476ZM116.478 46.724C117.93 46.712 119.274 46.544 120.294 46.124C122.85 45.092 123.15 43.064 123.15 42.14C123.15 40.34 122.01 38.54 119.202 38.54C118.206 38.54 117.054 38.732 115.914 38.936C115.422 39.02 113.094 39.428 112.818 39.464L113.082 40.676C115.11 40.172 117.69 39.596 119.13 39.596C121.47 39.596 121.998 41.024 121.998 42.152C121.998 43.34 121.374 44.204 120.726 44.672C119.55 45.512 118.17 45.68 116.19 45.692L116.478 46.724ZM125.856 37.892C125.784 38.708 125.664 40.016 125.664 41.324C125.664 44.444 126.204 47.132 128.148 47.132C128.76 47.132 129.204 46.844 129.492 46.556C130.164 45.884 130.716 44.876 131.112 43.76L130.224 43.256C129.396 45.416 128.772 45.908 128.232 45.908C126.888 45.908 126.744 43.28 126.744 41.42C126.744 39.8 126.9 38.708 126.996 37.988L125.856 37.892ZM135.528 45.944C135.696 41.144 134.46 39.452 133.032 38.252L132.204 38.888C133.452 39.908 134.388 41.636 134.388 44.768C134.388 45.32 134.364 45.68 134.34 45.992L135.528 45.944ZM147.858 37.976C144.906 38 143.802 38.024 141.114 38.168C140.502 38.204 138.582 38.288 137.862 38.312L137.958 39.488C139.266 39.332 143.418 39.08 143.766 39.068C142.35 39.896 140.25 41.468 140.25 43.748C140.25 47.108 144.234 47.276 146.598 47.372L146.814 46.208C145.782 46.244 144.63 46.172 143.79 45.992C142.518 45.728 141.366 45.236 141.366 43.676C141.366 41.612 143.718 39.752 145.446 39.176C145.806 39.056 146.058 39.032 146.658 39.032C147.126 39.032 147.474 39.044 147.882 39.08L147.858 37.976ZM155.7 47.372C157.032 47.24 158.232 46.832 159.012 46.184C160.104 45.272 160.62 43.856 160.62 42.428C160.62 40.4 159.576 37.712 155.688 37.712C152.52 37.712 150.144 39.8 150.144 43.064C150.144 45.044 151.128 46.436 152.304 46.436C152.844 46.436 153.612 46.16 154.32 45.044C155.556 43.064 155.796 40.112 155.904 38.72C159.204 38.828 159.492 41.468 159.492 42.416C159.492 45.848 156.576 46.196 155.34 46.328L155.7 47.372ZM154.836 38.768C154.716 40.148 154.524 42.584 153.516 44.312C153.204 44.84 152.844 45.284 152.34 45.284C151.488 45.284 151.188 43.904 151.188 43.088C151.188 41.696 151.74 40.352 152.856 39.536C153.468 39.08 154.128 38.9 154.836 38.768ZM168.066 39.74C168.282 39.392 168.522 38.996 168.87 38.276H173.382V37.292H162.294V38.276H167.802C166.89 40.22 165.114 42.284 162.162 43.64L162.762 44.588C163.614 44.156 165.426 43.184 167.286 40.832V48.008H168.33V39.74H168.066ZM173.55 43.688C171.726 42.572 170.502 41.312 169.482 40.04L168.75 40.616C170.214 42.464 171.006 43.268 172.83 44.588L173.55 43.688ZM185.268 47.072C184.572 46.664 183.396 45.992 181.872 45.356C182.34 44.876 183.132 43.976 183.708 42.14H185.832V41.192H179.328C179.76 40.316 179.916 39.92 180.048 39.596L178.944 39.392C178.8 39.812 178.596 40.376 178.176 41.192H174.768V42.14H177.66C177 43.28 176.412 43.976 176.052 44.396C177.924 44.912 178.992 45.272 179.964 45.656C178.464 46.484 176.664 46.784 175.056 46.928L175.404 47.984C178.524 47.66 180.372 46.568 181.032 46.088C183 46.94 184.068 47.648 184.608 48.008L185.268 47.072ZM182.652 42.14C182.52 42.536 182.064 43.916 180.912 44.972C179.712 44.516 178.512 44.168 177.648 43.916C177.888 43.604 178.236 43.148 178.812 42.14H182.652ZM175.056 37.952V40.568H176.076V38.876H184.536V40.568H185.556V37.952H180.792V36.872H179.76V37.952H175.056ZM192.75 41.204C192.078 41.204 191.514 41.744 191.514 42.44C191.514 43.112 192.054 43.676 192.75 43.676C193.446 43.676 193.986 43.1 193.986 42.44C193.986 41.768 193.434 41.204 192.75 41.204ZM200.232 42.824C200.496 41.84 200.604 40.28 200.616 39.452L199.848 39.38C199.848 39.98 199.776 41.36 199.44 42.44L200.232 42.824ZM201.108 36.872V48.008H202.08V36.872H201.108ZM203.544 40.88C203.484 40.676 203.22 39.752 202.92 39.068L202.2 39.356C202.452 39.98 202.644 40.688 202.74 41.192L203.544 40.88ZM210.396 41.096H209.448V46.892H204.36V41.096H203.412V47.756H210.396V41.096ZM207.864 40.748C207.588 41.66 207.336 42.152 207.024 42.74C206.424 42.128 206.064 41.792 205.524 41.384L204.9 41.996C205.62 42.584 206.016 42.98 206.544 43.532C206.004 44.336 205.536 44.924 204.684 45.608L205.344 46.292C206.4 45.38 206.82 44.804 207.192 44.264C207.564 44.684 207.852 45.044 208.38 45.836L209.088 45.2C208.752 44.684 208.452 44.264 207.708 43.46C208.056 42.848 208.368 42.26 208.716 41.12L207.864 40.748ZM207.528 39.344C207.24 38.228 206.712 37.184 206.568 36.896L205.68 37.148C205.752 37.292 206.364 38.564 206.604 39.632L207.528 39.344ZM209.292 40.4C209.88 39.584 210.468 38.372 210.744 37.484L209.844 37.088C209.7 37.508 209.268 38.816 208.464 39.98L209.292 40.4ZM205.272 39.812C204.972 39.02 204.456 38.084 203.952 37.4L203.124 37.748C203.652 38.504 204.108 39.44 204.384 40.148L205.272 39.812ZM217.854 47.588C220.41 46.676 221.022 44.672 221.31 43.496C221.91 43.76 222.114 43.868 222.654 44.192L223.014 43.112C222.27 42.704 221.574 42.44 221.538 42.428C221.718 41.468 221.814 40.424 221.898 39.56L220.758 39.476C220.734 40.028 220.674 40.88 220.494 42.056C219.402 41.696 218.61 41.504 217.602 41.42C217.998 39.056 218.034 38.792 218.19 37.592H213.222V38.636L216.978 38.6C216.906 39.452 216.75 40.52 216.582 41.384C212.658 41.54 212.442 44.12 212.442 44.708C212.442 45.992 213.282 46.76 214.434 46.76C216.246 46.76 216.774 45.044 217.422 42.368C218.502 42.464 219.522 42.776 220.302 43.076C219.882 44.816 219.258 46.016 217.194 46.76L217.854 47.588ZM216.402 42.308C215.766 44.912 215.442 45.812 214.362 45.812C213.45 45.812 213.39 44.876 213.39 44.648C213.39 43.832 213.882 43.052 214.662 42.668C215.19 42.404 215.694 42.332 216.402 42.308ZM230.1 41.204C229.428 41.204 228.864 41.744 228.864 42.44C228.864 43.112 229.404 43.676 230.1 43.676C230.796 43.676 231.336 43.1 231.336 42.44C231.336 41.768 230.784 41.204 230.1 41.204ZM236.97 37.904V38.84H239.646V40.064H240.618V38.84H244.458V40.064H245.418V38.84H248.13V37.904H245.418V36.86H244.458V37.904H240.618V36.86H239.646V37.904H236.97ZM248.13 40.832H243.018V39.512H242.022V40.832H236.97V41.756H242.022V43.304H238.182V47.78H246.894V43.304H243.018V41.756H248.13V40.832ZM245.898 46.904H239.178V44.192H245.898V46.904ZM257.34 41.756C257.256 41.696 257.148 41.612 257.076 41.564C257.352 41.432 258.588 40.856 259.668 39.98V39.344H252.756V40.064H258.048C257.4 40.544 257.064 40.736 256.344 41.096C256.164 40.976 255.516 40.592 254.856 40.292L254.28 40.94C255.072 41.264 255.516 41.492 255.876 41.756H252.972V48.02H253.908V46.028H256.02V47.984H256.944V46.028H259.188V46.784C259.188 47 259.08 47.036 258.912 47.036H257.916L258.096 48.02H259.284C260.112 48.02 260.112 47.42 260.112 47.06V41.756H257.34ZM256.02 43.496H253.908V42.524H256.02V43.496ZM256.02 45.272H253.908V44.24H256.02V45.272ZM259.188 43.496H256.944V42.524H259.188V43.496ZM259.188 45.272H256.944V44.24H259.188V45.272ZM251.292 42.044C251.292 42.32 251.28 42.488 251.268 42.656C251.16 42.728 250.284 43.208 249.336 43.568L249.576 44.552C249.996 44.336 250.404 44.132 251.196 43.652C250.98 45.452 250.632 46.388 249.78 47.384L250.572 48.056C251.112 47.408 252.228 46.076 252.228 41.852V38.672H260.52V37.82H256.128V36.848H255.12V37.82H251.292V42.044ZM251.016 40.916C250.86 40.292 250.536 39.404 250.188 38.756L249.396 39.188C249.672 39.728 250.02 40.64 250.188 41.324L251.016 40.916ZM266.622 38.468C266.79 37.868 266.85 37.592 266.922 37.172L265.77 37.124C265.686 37.808 265.602 38.156 265.518 38.468H262.758V39.428H265.23C264.462 41.672 263.502 42.944 262.446 43.94L263.19 44.744C263.574 44.348 264.366 43.292 264.918 42.536C265.758 41.684 266.634 41.312 267.294 41.312C267.846 41.312 268.182 41.552 268.314 42.26C267.126 42.788 264.978 43.868 264.978 45.5C264.978 47.432 267.69 47.432 269.046 47.432C270.186 47.432 271.23 47.36 271.914 47.312L271.878 46.28C270.798 46.4 269.67 46.448 268.71 46.448C267.39 46.448 266.058 46.448 266.058 45.392C266.058 44.408 267.51 43.64 268.434 43.208C268.458 43.52 268.458 43.724 268.458 43.928C268.458 44.36 268.422 44.804 268.398 45.08H269.442C269.478 44.696 269.478 44.336 269.478 44.168C269.478 43.736 269.466 43.22 269.43 42.8C270.75 42.296 271.602 42.032 272.574 41.756L272.286 40.712C271.206 41.084 269.562 41.744 269.286 41.852C269.046 40.712 268.278 40.448 267.462 40.448C266.862 40.448 266.382 40.652 265.542 41.156C265.89 40.556 266.058 40.16 266.334 39.428H271.626V38.468H266.622ZM277.584 38.132C278.292 38.012 278.676 37.916 279.324 37.748L278.964 36.872C277.404 37.292 276.072 37.472 274.32 37.52L274.524 38.42C275.496 38.384 275.988 38.336 276.612 38.264V40.028H274.296V40.916H276.492C276.12 41.768 275.376 43.328 274.14 44.54L274.572 45.68C275.688 44.468 276.288 43.34 276.612 42.62V48.008H277.584V42.392C278.028 43.208 278.484 43.844 279.048 44.396L279.54 43.448C278.556 42.608 277.896 41.552 277.584 40.952V40.916H279.516V40.028H277.584V38.132ZM285.06 37.64H279.948V47.684H285.06V37.64ZM284.076 46.748H280.908V38.552H284.076V46.748ZM295.35 38.024C293.514 37.424 291.462 37.316 290.43 37.268L290.238 38.3C291.858 38.36 293.622 38.588 295.05 39.164L295.35 38.024ZM288.774 38.984C288.618 39.608 288.51 40.268 288.462 41.384C288.45 41.744 288.414 43.544 288.414 43.952L289.482 43.988C289.494 43.928 289.506 43.892 289.542 43.772C290.334 42.728 291.942 42.044 293.55 42.044C295.134 42.044 295.77 42.908 295.77 43.844C295.77 44.336 295.638 44.9 295.302 45.26C294.582 46.052 293.142 46.376 291.486 46.376C290.682 46.376 289.95 46.304 289.146 46.16L289.266 47.216C289.758 47.288 290.466 47.384 291.57 47.384C294.138 47.384 296.91 46.736 296.91 43.856C296.91 42.86 296.394 41.072 293.61 41.072C292.05 41.072 290.706 41.576 289.482 42.548C289.482 40.784 289.578 40.088 289.854 39.176L288.774 38.984ZM303.708 47.6C306.252 47.108 307.728 46.232 307.728 42.368C307.728 42.164 307.704 41.348 307.692 41.024H309.828V40.016H307.632C307.608 39.644 307.512 37.904 307.476 37.436L306.444 37.46C306.48 38.096 306.54 39.476 306.564 40.016H302.52V41.024H306.6C306.612 41.396 306.624 41.96 306.624 42.212C306.624 45.488 305.616 46.184 303.312 46.628L303.708 47.6ZM307.668 36.944C308.052 37.82 308.256 38.552 308.4 39.428L309.264 39.116C309.036 38.156 308.892 37.58 308.472 36.668L307.668 36.944ZM309.3 36.632C309.684 37.508 309.852 38.096 310.032 39.104L310.896 38.792C310.62 37.652 310.524 37.256 310.104 36.344L309.3 36.632ZM300.444 37.46C300.204 39.248 300.084 41.048 300.084 42.848C300.084 44.336 300.144 45.836 300.456 47.3L301.572 47.156C301.248 45.644 301.164 44.132 301.164 42.74C301.164 40.244 301.44 38.468 301.596 37.532L300.444 37.46ZM318.09 38.636V37.376H317.034V38.636H312.474V39.56H317.034V41.048H312.654V41.96H317.034V43.376C316.782 43.328 316.374 43.256 315.834 43.256C314.046 43.256 312.81 44.168 312.81 45.428C312.81 46.196 313.314 47.444 315.654 47.444C316.662 47.444 318.09 47.12 318.09 45.404V44.72C318.75 45.02 319.806 45.572 320.97 46.856L321.678 45.824C320.418 44.768 319.362 44.108 318.09 43.64V41.96H321.69V41.048H318.09V39.56H321.918V38.636H318.09ZM317.034 45.188C317.034 46.136 316.566 46.508 315.522 46.508C313.938 46.508 313.818 45.62 313.818 45.392C313.818 44.6 314.718 44.144 315.834 44.144C316.446 44.144 316.794 44.24 317.034 44.312V45.188ZM331.584 38.6V37.256H330.48L330.504 38.6H324.6V39.596H330.516L330.528 40.892C330.276 40.676 329.988 40.412 329.184 40.412C327.696 40.412 326.7 41.444 326.7 42.848C326.7 44.012 327.444 45.2 328.932 45.2C330.312 45.2 330.708 44.3 330.828 44.048C330.672 45.476 329.784 46.58 326.58 46.544L326.916 47.552C329.004 47.468 331.812 46.892 331.812 43.724C331.812 43.412 331.788 43.1 331.74 42.8C331.704 42.512 331.644 42.236 331.584 42.008V39.596H334.728V38.6H331.584ZM330.552 42.932C330.552 43.724 329.928 44.324 329.076 44.324C327.96 44.324 327.708 43.304 327.708 42.8C327.708 41.696 328.548 41.312 329.208 41.312C330.264 41.312 330.456 42.02 330.552 42.404V42.932ZM338.802 44.036C337.818 44.036 337.014 44.828 337.014 45.824C337.014 46.808 337.806 47.612 338.802 47.612C339.786 47.612 340.59 46.808 340.59 45.824C340.59 44.816 339.774 44.036 338.802 44.036ZM338.802 44.636C339.438 44.636 339.978 45.152 339.978 45.824C339.978 46.472 339.45 47 338.802 47C338.142 47 337.614 46.472 337.614 45.824C337.614 45.164 338.154 44.636 338.802 44.636Z" fill="black"/>
</svg>
