<svg width="352" height="96" viewBox="0 0 352 96" fill="none" xmlns="http://www.w3.org/2000/svg">
<path d="M2.688 6.43V11.834C1.414 12.408 1.218 12.506 0.294 12.814L0.616 13.962C0.966 13.808 1.722 13.458 2.59 12.94C2.212 15.642 1.078 16.86 0.602 17.364L1.554 18.148C2.198 17.378 3.808 15.502 3.808 11.232V7.48H13.524V6.43H8.316V5.198H7.168V6.43H2.688ZM2.268 9.832C2.058 8.95 1.82 8.25 1.316 7.354L0.378 7.83C0.588 8.208 0.98 8.908 1.26 10.336L2.268 9.832ZM13.216 8.95H4.354V9.972H8.288V16.79H6.314V11.302H5.152V16.79H3.332V17.84H13.454V16.79H9.422V13.584H12.768V12.562H9.422V9.972H13.216V8.95ZM28.147 17C27.279 16.454 24.857 14.914 23.975 10.084H27.979V8.964H23.919V5.198H22.715V8.964H19.229V10.084H22.673C22.617 10.826 22.463 11.568 22.267 12.296C21.651 14.606 20.615 16.006 18.893 17.112L19.551 18.162C22.029 16.412 22.953 14.284 23.471 12.408C24.157 14.424 25.137 16.622 27.475 18.106L28.147 17ZM17.465 5.198V12.338C16.415 13.108 15.197 13.78 14.791 14.004L15.141 15.25C15.715 14.97 16.947 14.2 17.465 13.752V18.162H18.627V5.198H17.465ZM17.045 9.762C16.793 8.81 16.359 7.802 15.897 6.976L14.889 7.424C15.435 8.46 15.673 9.048 15.995 10.21L17.045 9.762ZM27.307 7.746C27.083 7.382 26.523 6.43 25.557 5.422L24.675 6.01C25.361 6.738 26.033 7.788 26.341 8.334L27.307 7.746ZM34.454 18.232C35.364 17.952 37.506 17.21 38.458 14.76C38.822 15.656 39.872 17.392 42.196 18.19L42.756 17.14C41.762 16.818 40.18 16.216 39.312 14.242H42.056V10.364H38.906V9.076H40.866V8.558C41.258 8.852 41.608 9.076 42.182 9.412L42.798 8.404C40.418 7.2 39.578 6.08 39.032 5.156H37.66C36.582 6.71 35.602 7.578 33.978 8.418L34.538 9.426C34.902 9.244 35.294 9.034 35.924 8.572V9.076H37.8V10.364H34.65V14.242H37.492C36.876 16.412 34.524 17.042 33.88 17.21L34.454 18.232ZM38.906 11.33H40.978V13.276H38.822C38.878 12.898 38.906 12.534 38.906 11.652V11.33ZM37.8 11.68C37.8 12.492 37.772 12.898 37.716 13.276H35.756V11.33H37.8V11.68ZM36.47 8.11C37.282 7.368 38.01 6.43 38.346 6.01C38.682 6.444 39.41 7.382 40.292 8.11H36.47ZM34.412 12.254C33.334 11.092 32.83 10 32.634 9.496V8.964H33.852V7.9H32.634V5.184H31.528V7.9H29.568V8.964H31.444C30.716 11.932 29.848 13.052 29.33 13.724L29.82 15.11C30.618 14.018 31.178 12.772 31.528 11.456V18.176H32.634V11.176C32.97 12.016 33.292 12.534 33.838 13.304L34.412 12.254ZM52.185 9.734C51.807 10.168 51.261 10.826 49.763 12.184C49.609 12.058 49.343 11.848 48.657 11.4C48.713 11.344 49.707 10.49 50.435 9.524H55.657V11.176H56.819V8.516H51.149V7.326H56.819V6.29H51.149V5.212H50.001V6.29H44.387V7.326H50.001V8.516H44.331V11.176H45.479V9.524H48.951C48.699 9.874 48.475 10.182 47.775 10.84C47.271 10.518 47.117 10.448 46.851 10.308L46.137 11.162C47.621 11.876 48.727 12.688 48.979 12.898C48.853 13.01 48.755 13.094 48.489 13.304C47.859 13.318 44.807 13.346 44.121 13.332L44.205 14.41C45.031 14.41 49.091 14.326 50.001 14.312V18.148H51.163V14.256L55.153 14.046C55.657 14.536 55.881 14.816 56.105 15.11L56.903 14.312C56.511 13.85 55.601 12.758 53.711 11.386L52.899 12.114C53.235 12.352 53.459 12.506 54.201 13.15C51.359 13.248 51.037 13.262 50.071 13.304C51.863 11.736 52.437 11.218 53.179 10.378L52.185 9.734ZM44.765 18.008C45.507 17.644 47.103 16.832 48.391 15.32L47.481 14.69C46.249 16.104 44.443 16.902 44.037 17.084L44.765 18.008ZM52.563 15.264C53.221 15.95 54.271 16.972 56.427 17.938L57.141 16.944C55.517 16.328 54.467 15.67 53.375 14.592L52.563 15.264ZM65.744 8.082H70.154V6.864H60.032V8.082H64.414V15.278H59.276V16.524H70.91V15.278H65.744V8.082ZM79.177 8.572C78.813 8.348 77.273 7.354 74.795 6.612L74.165 7.732C76.181 8.362 77.651 9.188 78.477 9.748L79.177 8.572ZM74.711 17.224C82.775 16.692 85.015 10.154 85.687 8.166L84.595 7.354C83.629 10.49 81.543 15.446 74.459 15.824L74.711 17.224ZM94.276 7.662C93.17 7.13 91.798 6.5 90.174 6.136L89.67 7.2C91.112 7.606 92.456 8.11 93.744 8.824L94.276 7.662ZM93.128 10.938C92.05 10.308 90.37 9.664 89.082 9.356L88.592 10.462C90.608 11.05 91.882 11.708 92.61 12.128L93.128 10.938ZM96.53 5.366C97.174 6.472 97.37 6.948 97.748 8.11L98.728 7.62C98.266 6.388 98 5.744 97.44 4.904L96.53 5.366ZM98.868 5.226C99.47 6.29 99.694 6.878 100.044 7.998L101.038 7.522C100.618 6.262 100.24 5.506 99.792 4.792L98.868 5.226ZM89.628 17.308C95.34 16.566 98.056 14.41 99.876 9.216L98.784 8.418C97.244 13.276 94.892 15.39 89.32 15.936L89.628 17.308ZM108.227 8.572C107.863 8.348 106.323 7.354 103.845 6.612L103.215 7.732C105.231 8.362 106.701 9.188 107.527 9.748L108.227 8.572ZM103.761 17.224C111.825 16.692 114.065 10.154 114.737 8.166L113.645 7.354C112.679 10.49 110.593 15.446 103.509 15.824L103.761 17.224ZM127.162 18.134V6.136H129.85V5.016H126.042V18.134H127.162ZM140.077 15.138C140.903 11.652 141.183 8.124 141.281 7.032H133.539V8.278H139.853C139.769 9.286 139.503 12.24 138.733 15.138H131.761V16.384H143.619V15.138H140.077ZM148.82 6.15H147.532V15.012C147.532 16.79 148.4 17.14 150.486 17.14H154.406C155.288 17.14 156.618 17.098 157.472 16.958L157.402 15.698C156.506 15.866 155.386 15.922 154.266 15.922H150.668C149.072 15.922 148.82 15.81 148.82 14.802V11.708C150.29 11.4 152.852 10.756 155.918 9.356L155.344 8.18C153.244 9.258 151.312 9.916 148.82 10.49V6.15ZM154.91 5.73C155.54 6.696 155.862 7.312 156.282 8.418L157.234 7.858C156.786 6.822 156.436 6.108 155.806 5.226L154.91 5.73ZM157.052 5.072C157.752 6.136 157.99 6.64 158.41 7.76L159.362 7.214C158.956 6.22 158.564 5.408 157.948 4.568L157.052 5.072ZM160.755 11.008V12.338H172.795V11.008H160.755ZM177.338 5.226V17.224H174.65V18.344H178.458V5.226H177.338ZM198.905 8.222L198.877 5.856H197.603L197.645 8.222H193.445V9.426H197.673L197.729 12.73C197.337 12.618 196.987 12.52 196.287 12.52C194.509 12.52 193.221 13.514 193.221 14.97C193.221 16.104 194.033 17.378 196.217 17.378C198.891 17.378 198.905 15.796 198.905 14.998V14.48C199.675 14.97 200.375 15.558 200.935 16.3L201.761 15.166C201.117 14.48 200.081 13.682 198.947 13.122L198.905 9.426H201.523V8.222H198.905ZM197.729 14.746C197.729 15.502 197.673 16.328 196.147 16.328C195.405 16.328 194.341 16.062 194.341 14.984C194.341 13.934 195.363 13.57 196.301 13.57C197.015 13.57 197.407 13.738 197.729 13.878V14.746ZM190.771 5.828C190.393 8.012 190.253 10.042 190.253 12.254C190.253 13.976 190.309 15.712 190.645 17.406L191.905 17.238C191.541 15.642 191.471 13.99 191.471 12.352C191.471 9.216 191.807 7.326 192.073 5.926L190.771 5.828ZM214.312 18.134V6.136H217V5.016H213.192V18.134H214.312ZM225.953 5.184V6.066H221.767V7.018H223.811C223.853 7.13 224.105 8.068 224.161 8.292H222.229V16.034H223.293V9.202H226.009V10.252H223.727V11.12H226.009V12.086H224.231V14.984H228.823V12.086H227.031V11.12H229.299V10.252H227.031V9.202H229.733V14.816C229.733 15.138 229.607 15.166 229.425 15.166L228.123 15.152L228.277 16.216H229.761C230.489 16.216 230.797 15.81 230.797 15.138V8.292H228.753C228.949 7.816 229.061 7.494 229.201 7.018H231.315V6.066H227.087V5.184H225.953ZM225.169 8.292C225.043 7.746 225.029 7.676 224.861 7.018H228.179C228.137 7.2 227.927 7.928 227.773 8.292H225.169ZM227.857 14.13H225.183V12.926H227.857V14.13ZM224.287 16.762C223.881 16.762 221.333 16.566 221.053 14.858V10.616H218.435V11.764H219.947V15.712C219.331 16.37 218.533 16.888 218.281 17.042L218.841 18.232C219.835 17.364 219.905 17.28 220.801 16.258C221.109 16.664 221.977 17.84 224.273 17.84H231.273L231.497 16.762H224.287ZM221.557 7.704C220.885 6.766 220.073 5.94 219.415 5.38L218.645 6.08C219.905 7.312 220.395 8.068 220.647 8.446L221.557 7.704ZM234.178 9.104L232.736 9.342L232.806 10.476L234.178 10.252V14.732C234.178 15.404 234.528 15.754 235.186 15.754H236.824C237.972 15.754 238.238 14.648 238.462 12.814L237.328 12.548C237.3 13.08 237.202 14.676 236.6 14.676H235.732C235.382 14.676 235.312 14.578 235.312 14.27V10.07L238.392 9.566L238.322 8.418L235.312 8.908V5.198H234.178V9.104ZM238 5.8V6.934H240.506C240.506 11.848 240.058 14.998 235.97 17.182L236.782 18.19C240.66 15.824 241.626 13.052 241.682 6.934H244.328C244.328 8.53 244.328 15.39 243.586 16.594C243.348 16.986 242.886 16.972 242.746 16.972L240.66 16.958L240.912 18.148H242.942C244.188 18.148 244.566 17.504 244.734 17.154C245.504 15.502 245.504 9.216 245.504 5.8H238ZM257.131 9.636H255.871L255.955 12.632C255.647 12.562 255.199 12.464 254.499 12.464C252.021 12.464 251.209 14.018 251.209 15.068C251.209 16.37 252.245 17.532 254.345 17.532C255.731 17.532 257.145 17.028 257.145 14.956V14.382C257.649 14.676 258.503 15.194 259.413 16.286L260.183 15.18C259.497 14.424 258.377 13.556 257.201 13.038L257.131 9.636ZM255.983 14.732C255.983 15.684 255.773 16.44 254.387 16.44C254.121 16.44 252.399 16.44 252.399 15.026C252.399 14.242 253.071 13.528 254.499 13.528C255.241 13.528 255.661 13.682 255.983 13.794V14.732ZM251.825 7.48C252.007 6.458 252.021 6.374 252.133 5.702L250.803 5.646C250.747 6.206 250.705 6.514 250.551 7.48H247.961V8.656H250.327C249.963 10.224 249.347 12.968 247.849 15.376L249.137 15.936C249.641 14.9 250.789 12.562 251.587 8.656H254.765V7.48H251.825ZM259.945 8.572C258.461 7.746 257.523 7.326 256.123 6.836L255.633 7.872C256.893 8.334 257.943 8.838 259.357 9.692L259.945 8.572ZM263.536 11.638C264.516 11.022 264.908 10.63 265.314 10.224C267.372 11.26 268.604 12.128 269.766 13.122C268.17 14.872 266 15.908 263.704 16.454L264.306 17.616C272.706 15.432 273.434 8.74 273.686 6.458H266.448C265.608 8.32 264.376 9.622 262.71 10.658L263.536 11.638ZM272.244 7.62C271.922 9.79 271.278 11.078 270.536 12.17C269.15 10.98 267.54 10.112 266.084 9.384C266.462 8.922 266.714 8.6 267.288 7.62H272.244ZM284.473 10.084C286.433 8.516 287.595 7.158 288.211 6.43L287.035 5.66C284.431 8.936 280.987 11.47 276.997 12.716L277.613 13.878C279.405 13.248 281.225 12.408 283.129 11.078V17.602H284.473V10.084ZM302.218 7.214C298.956 6.472 296.436 6.164 293.062 5.968L292.852 7.13C296.324 7.312 299.054 7.718 301.98 8.502L302.218 7.214ZM301.49 11.456C299.166 10.756 296.94 10.28 292.992 9.986L292.754 11.148C296.254 11.414 298.522 11.806 301.266 12.674L301.49 11.456ZM302.792 16.202C301.252 15.754 297.724 14.718 292.166 14.438L291.914 15.628C296.898 16.006 299.46 16.566 302.442 17.532L302.792 16.202ZM311.577 8.572C311.213 8.348 309.673 7.354 307.195 6.612L306.565 7.732C308.581 8.362 310.051 9.188 310.877 9.748L311.577 8.572ZM307.111 17.224C315.175 16.692 317.415 10.154 318.087 8.166L316.995 7.354C316.029 10.49 313.943 15.446 306.859 15.824L307.111 17.224ZM321.622 17.728C326.606 16.608 329.532 13.836 330.694 8.502L329.392 6.78H323.792C322.812 8.74 321.384 9.944 320.292 10.686L321.09 11.638C322.672 10.574 323.708 9.426 324.632 7.956H329.49C328.692 12.17 326.522 15.46 321.09 16.538L321.622 17.728ZM331.282 5.1C332.01 6.094 332.29 6.654 332.766 7.732L333.662 7.144C333.074 5.968 332.836 5.478 332.122 4.568L331.282 5.1ZM329.42 5.646C330.106 6.556 330.456 7.158 330.946 8.25L331.828 7.648C331.24 6.486 330.96 5.982 330.246 5.1L329.42 5.646ZM343.021 10C343.679 10.924 344.029 11.582 344.491 12.702L345.471 12.086C344.981 11.022 344.575 10.266 343.931 9.44L343.021 10ZM345.093 9.104C345.765 10.07 346.087 10.672 346.563 11.806L347.543 11.19C347.039 10.098 346.675 9.412 346.003 8.544L345.093 9.104ZM346.801 6.472C343.595 6.486 342.279 6.514 338.961 6.696C338.247 6.738 335.825 6.85 335.139 6.864L335.251 8.236C336.777 8.054 341.621 7.76 342.027 7.746C340.375 8.712 337.925 10.546 337.925 13.206C337.925 17.126 342.573 17.322 345.331 17.434L345.583 16.076C344.337 16.118 342.951 16.006 342.055 15.824C340.571 15.516 339.227 14.942 339.227 13.122C339.227 10.714 341.971 8.544 343.987 7.872C344.407 7.732 344.715 7.704 345.401 7.704C345.793 7.704 346.227 7.718 346.829 7.76L346.801 6.472ZM7.35 41.434C8.904 41.28 10.304 40.804 11.214 40.048C12.488 38.984 13.09 37.332 13.09 35.666C13.09 33.3 11.872 30.164 7.336 30.164C3.64 30.164 0.868 32.6 0.868 36.408C0.868 38.718 2.016 40.342 3.388 40.342C4.018 40.342 4.914 40.02 5.74 38.718C7.182 36.408 7.462 32.964 7.588 31.34C11.438 31.466 11.774 34.546 11.774 35.652C11.774 39.656 8.372 40.062 6.93 40.216L7.35 41.434ZM6.342 31.396C6.202 33.006 5.978 35.848 4.802 37.864C4.438 38.48 4.018 38.998 3.43 38.998C2.436 38.998 2.086 37.388 2.086 36.436C2.086 34.812 2.73 33.244 4.032 32.292C4.746 31.76 5.516 31.55 6.342 31.396ZM22.603 29.184V30.066H18.417V31.018H20.461C20.503 31.13 20.755 32.068 20.811 32.292H18.879V40.034H19.943V33.202H22.659V34.252H20.377V35.12H22.659V36.086H20.881V38.984H25.473V36.086H23.681V35.12H25.949V34.252H23.681V33.202H26.383V38.816C26.383 39.138 26.257 39.166 26.075 39.166L24.773 39.152L24.927 40.216H26.411C27.139 40.216 27.447 39.81 27.447 39.138V32.292H25.403C25.599 31.816 25.711 31.494 25.851 31.018H27.965V30.066H23.737V29.184H22.603ZM21.819 32.292C21.693 31.746 21.679 31.676 21.511 31.018H24.829C24.787 31.2 24.577 31.928 24.423 32.292H21.819ZM24.507 38.13H21.833V36.926H24.507V38.13ZM20.937 40.762C20.531 40.762 17.983 40.566 17.703 38.858V34.616H15.085V35.764H16.597V39.712C15.981 40.37 15.183 40.888 14.931 41.042L15.491 42.232C16.485 41.364 16.555 41.28 17.451 40.258C17.759 40.664 18.627 41.84 20.923 41.84H27.923L28.147 40.762H20.937ZM18.207 31.704C17.535 30.766 16.723 29.94 16.065 29.38L15.295 30.08C16.555 31.312 17.045 32.068 17.297 32.446L18.207 31.704ZM30.828 33.104L29.386 33.342L29.456 34.476L30.828 34.252V38.732C30.828 39.404 31.178 39.754 31.836 39.754H33.474C34.622 39.754 34.888 38.648 35.112 36.814L33.978 36.548C33.95 37.08 33.852 38.676 33.25 38.676H32.382C32.032 38.676 31.962 38.578 31.962 38.27V34.07L35.042 33.566L34.972 32.418L31.962 32.908V29.198H30.828V33.104ZM34.65 29.8V30.934H37.156C37.156 35.848 36.708 38.998 32.62 41.182L33.432 42.19C37.31 39.824 38.276 37.052 38.332 30.934H40.978C40.978 32.53 40.978 39.39 40.236 40.594C39.998 40.986 39.536 40.972 39.396 40.972L37.31 40.958L37.562 42.148H39.592C40.838 42.148 41.216 41.504 41.384 41.154C42.154 39.502 42.154 33.216 42.154 29.8H34.65ZM53.781 33.636H52.521L52.605 36.632C52.297 36.562 51.849 36.464 51.149 36.464C48.671 36.464 47.859 38.018 47.859 39.068C47.859 40.37 48.895 41.532 50.995 41.532C52.381 41.532 53.795 41.028 53.795 38.956V38.382C54.299 38.676 55.153 39.194 56.063 40.286L56.833 39.18C56.147 38.424 55.027 37.556 53.851 37.038L53.781 33.636ZM52.633 38.732C52.633 39.684 52.423 40.44 51.037 40.44C50.771 40.44 49.049 40.44 49.049 39.026C49.049 38.242 49.721 37.528 51.149 37.528C51.891 37.528 52.311 37.682 52.633 37.794V38.732ZM48.475 31.48C48.657 30.458 48.671 30.374 48.783 29.702L47.453 29.646C47.397 30.206 47.355 30.514 47.201 31.48H44.611V32.656H46.977C46.613 34.224 45.997 36.968 44.499 39.376L45.787 39.936C46.291 38.9 47.439 36.562 48.237 32.656H51.415V31.48H48.475ZM56.595 32.572C55.111 31.746 54.173 31.326 52.773 30.836L52.283 31.872C53.543 32.334 54.593 32.838 56.007 33.692L56.595 32.572ZM66.164 35.4C66.262 34.798 66.304 34.336 66.304 33.524H70.154V32.502H63.77C63.966 32.124 64.078 31.886 64.302 31.326L63.182 31.088C62.748 32.446 61.922 33.468 60.928 34.266L61.81 35.022C62.356 34.532 62.678 34.182 63.154 33.524H65.212C65.212 34.532 65.142 34.966 65.072 35.4H60.998V36.436H64.736C63.742 38.494 61.516 39.04 60.816 39.208L61.488 40.23C63.084 39.698 64.876 38.788 65.8 36.66C66.15 37.458 67.27 39.236 70.434 40.216L71.05 39.138C68.782 38.634 67.298 37.332 66.822 36.436H70.742V35.4H66.164ZM59.08 29.646V41.882H71.512V40.818H60.27V30.724H71.218V29.646H59.08ZM84.637 35.988C85.071 36.254 85.337 36.38 85.715 36.562L86.247 35.624C85.855 35.484 85.477 35.344 84.847 34.994C84.875 34.952 85.365 34.476 85.799 33.916L85.015 33.44C84.861 33.65 84.525 34.07 84.119 34.504C83.447 33.986 83.097 33.524 82.817 33.174H86.079V32.292H80.983C81.081 32.096 81.137 31.956 81.277 31.606L80.171 31.48C80.059 31.802 79.989 31.984 79.849 32.292H76.489V33.174H79.317C78.925 33.692 78.575 34.056 78.141 34.406C78.015 34.266 77.623 33.832 77.175 33.496L76.531 34.084C76.923 34.392 76.965 34.434 77.427 34.924C76.951 35.246 76.587 35.428 76.097 35.666L76.713 36.506C77.021 36.324 77.119 36.268 77.413 36.086V38.998H80.423V40.804C80.423 41.084 80.381 41.14 80.101 41.14H78.771L79.009 42.148H80.521C80.955 42.148 81.557 42.12 81.557 41.252V38.998H84.637V35.988ZM83.615 36.534H78.435V35.694H83.615V36.534ZM79.009 34.882C79.919 34.056 80.311 33.44 80.479 33.174H81.669C81.977 33.622 82.327 34.154 83.139 34.882H79.009ZM83.615 38.186H78.435V37.304H83.615V38.186ZM74.935 35.064C74.935 35.456 74.921 35.722 74.921 35.946C74.221 36.296 73.899 36.45 72.933 36.828L73.171 37.976C73.591 37.766 74.123 37.5 74.823 37.038C74.515 39.642 73.745 40.65 73.115 41.434L73.969 42.19C74.529 41.518 76.041 39.712 76.041 35.106V31.298H86.121V30.318H80.913V29.184H79.765V30.318H74.935V35.064ZM74.641 33.86C74.501 33.146 74.207 32.166 73.801 31.368L72.933 31.788C73.255 32.586 73.507 33.482 73.661 34.322L74.641 33.86ZM76.125 41.938C77.063 41.588 77.931 41.126 79.121 39.964L78.309 39.292C77.315 40.244 76.629 40.622 75.509 41L76.125 41.938ZM82.691 39.978C83.447 40.832 84.637 41.574 85.715 41.952L86.331 41C85.029 40.538 84.441 40.202 83.433 39.236L82.691 39.978ZM98.798 32.964C96.628 33.314 95.48 33.538 93.968 34C93.674 33.398 93.604 32.656 93.604 31.172C93.604 30.486 93.618 30.094 93.632 29.716H92.26C92.302 32.698 92.33 33.51 92.792 34.42C91.812 34.84 88.928 36.044 88.928 38.438C88.928 41.42 92.806 41.42 95.228 41.42C97.244 41.42 98.476 41.336 99.386 41.28L99.358 39.964C98.56 40.048 97.258 40.174 94.948 40.174C91.938 40.174 90.23 40.02 90.23 38.396C90.23 35.288 97.79 34.434 98.924 34.308L98.798 32.964ZM109.025 41.434C110.579 41.28 111.979 40.804 112.889 40.048C114.163 38.984 114.765 37.332 114.765 35.666C114.765 33.3 113.547 30.164 109.011 30.164C105.315 30.164 102.543 32.6 102.543 36.408C102.543 38.718 103.691 40.342 105.063 40.342C105.693 40.342 106.589 40.02 107.415 38.718C108.857 36.408 109.137 32.964 109.263 31.34C113.113 31.466 113.449 34.546 113.449 35.652C113.449 39.656 110.047 40.062 108.605 40.216L109.025 41.434ZM108.017 31.396C107.877 33.006 107.653 35.848 106.477 37.864C106.113 38.48 105.693 38.998 105.105 38.998C104.111 38.998 103.761 37.388 103.761 36.436C103.761 34.812 104.405 33.244 105.707 32.292C106.421 31.76 107.191 31.55 108.017 31.396ZM117.698 30.22V35.358H122.598V40.818H118.398V36.436H117.222V41.896H129.164V36.436H127.974V40.818H123.774V35.358H128.702V30.22H127.512V34.28H123.774V29.184H122.598V34.28H118.888V30.22H117.698ZM139.279 38.06C140.371 39.166 141.071 40.048 141.211 40.23C140.175 40.328 138.733 40.454 137.025 40.524C136.731 40.538 135.163 40.58 134.813 40.594C135.723 38.984 136.283 37.766 136.619 36.996H143.927V35.918H131.425V36.996H135.261C134.953 37.808 134.421 39.11 133.539 40.622H131.607L131.733 41.77C133.889 41.77 139.601 41.518 141.939 41.182C142.233 41.616 142.401 41.882 142.625 42.26L143.633 41.588C142.555 39.88 141.701 38.9 140.203 37.43L139.279 38.06ZM141.435 33.342C142.429 34.014 143.213 34.378 143.829 34.658L144.445 33.538C142.009 32.67 139.783 30.976 138.327 29.03H137.081C136.703 29.59 135.135 31.858 130.963 33.496L131.537 34.63C132.013 34.434 132.783 34.098 134.029 33.328V34.112H141.435V33.342ZM134.463 33.048C135.639 32.236 136.829 31.256 137.711 30.024C138.201 30.64 139.013 31.648 140.987 33.048H134.463ZM146.832 30.374C146.748 31.326 146.608 32.852 146.608 34.378C146.608 38.018 147.238 41.154 149.506 41.154C150.22 41.154 150.738 40.818 151.074 40.482C151.858 39.698 152.502 38.522 152.964 37.22L151.928 36.632C150.962 39.152 150.234 39.726 149.604 39.726C148.036 39.726 147.868 36.66 147.868 34.49C147.868 32.6 148.05 31.326 148.162 30.486L146.832 30.374ZM158.116 39.768C158.312 34.168 156.87 32.194 155.204 30.794L154.238 31.536C155.694 32.726 156.786 34.742 156.786 38.396C156.786 39.04 156.758 39.46 156.73 39.824L158.116 39.768ZM162.813 29.226V41.224H160.125V42.344H163.933V29.226H162.813ZM181.65 41.434C183.204 41.28 184.604 40.804 185.514 40.048C186.788 38.984 187.39 37.332 187.39 35.666C187.39 33.3 186.172 30.164 181.636 30.164C177.94 30.164 175.168 32.6 175.168 36.408C175.168 38.718 176.316 40.342 177.688 40.342C178.318 40.342 179.214 40.02 180.04 38.718C181.482 36.408 181.762 32.964 181.888 31.34C185.738 31.466 186.074 34.546 186.074 35.652C186.074 39.656 182.672 40.062 181.23 40.216L181.65 41.434ZM180.642 31.396C180.502 33.006 180.278 35.848 179.102 37.864C178.738 38.48 178.318 38.998 177.73 38.998C176.736 38.998 176.386 37.388 176.386 36.436C176.386 34.812 177.03 33.244 178.332 32.292C179.046 31.76 179.816 31.55 180.642 31.396ZM193.697 34.98C194.047 34.798 194.467 34.588 195.153 34.07V35.694H200.585V34.126C201.075 34.504 201.509 34.756 202.139 35.036L202.587 34.126C201.061 33.44 200.529 32.978 199.843 31.998H202.279V31.13H197.589C197.645 31.018 197.743 30.836 197.967 30.304C198.611 30.262 200.431 30.122 201.481 29.912L201.005 29.072C199.843 29.31 197.967 29.604 193.879 29.59L194.103 30.43C194.635 30.43 195.139 30.43 196.847 30.36C196.777 30.5 196.693 30.682 196.455 31.13H193.543V31.998H195.895C194.943 33.272 193.711 33.846 193.179 34.098L193.697 34.98ZM198.737 31.998C198.919 32.306 199.129 32.656 199.535 33.146H196.175C196.539 32.754 196.777 32.474 197.085 31.998H198.737ZM199.689 34.924H196.035V33.916H199.689V34.924ZM201.901 36.38H193.823V42.176H194.873V37.234H200.823V40.636C200.823 41.14 200.781 41.224 200.305 41.21L199.395 41.196L199.591 42.176H200.725C201.355 42.176 201.901 42.106 201.901 41.21V36.38ZM199.087 40.062H196.637V38.788H199.087V40.062ZM193.711 36.044C192.815 34.98 192.409 34.07 192.213 33.566V32.978H193.473V31.914H192.213V29.184H191.135V31.914H189.357V32.978H191.093C190.729 34.826 189.847 36.464 189.175 37.402L189.679 38.746C190.029 38.228 190.589 37.36 191.135 35.596V42.176H192.213V35.288C192.437 35.848 192.493 35.988 193.095 36.912L193.711 36.044ZM200.025 38.004H195.685V40.874H200.025V38.004ZM207.592 30.234V35.456C207.592 38.998 206.444 40.538 205.912 41.252L206.822 42.134C207.13 41.686 207.942 40.524 208.334 38.76C208.544 37.794 208.712 36.436 208.712 35.47V33.566H210.322V35.764H214.83V33.566H216.706V32.6H214.83V31.62H213.794V32.6H211.358V31.62H210.322V32.6H208.712V31.27H216.818V30.234H212.786V29.184H211.652V30.234H207.592ZM204.274 30.22C204.806 30.472 205.87 31.074 206.402 31.634L207.116 30.598C206.136 29.884 205.52 29.562 204.918 29.31L204.274 30.22ZM213.794 33.566V34.854H211.358V33.566H213.794ZM216.986 41.084C216.426 40.986 215.264 40.762 213.766 40.146C215.194 39.11 215.726 38.032 215.964 37.542V36.576H209.118V37.57H214.746C214.466 38.004 213.92 38.83 212.632 39.586C211.4 38.844 210.868 38.172 210.588 37.836L209.678 38.326C209.944 38.676 210.462 39.32 211.554 40.118C209.916 40.804 208.698 40.986 208.026 41.084L208.53 42.204C210.252 41.826 211.498 41.406 212.646 40.804C214.382 41.756 215.796 42.036 216.524 42.176L216.986 41.084ZM203.644 33.93C204.4 34.294 205.17 34.784 205.814 35.344L206.514 34.378C206.038 33.986 205.114 33.356 204.288 32.992L203.644 33.93ZM205.618 36.632C205.324 37.71 204.652 39.53 203.602 41.084L204.484 42.064C205.856 39.894 206.402 37.892 206.57 37.206L205.618 36.632ZM220.885 29.828C220.871 30.78 220.787 35.428 220.787 36.478C220.787 38.914 221.039 41.476 224.875 41.476C229.131 41.476 230.041 38.592 230.489 36.058L229.313 35.624C228.921 37.752 228.459 40.272 224.833 40.272C222.201 40.272 222.117 38.396 222.117 36.604C222.117 35.274 222.173 33.608 222.299 29.828H220.885ZM234.654 29.954C234.206 32.054 234.066 34.294 234.066 36.604C234.066 39.278 234.304 40.678 234.43 41.49L235.788 41.378C235.676 40.874 235.354 39.53 235.354 36.408C235.354 32.88 235.774 31.046 235.984 30.066L234.654 29.954ZM238.112 31.088V32.32H244.692V31.088H238.112ZM238.42 35.722C237.93 36.548 237.678 37.346 237.678 38.074C237.678 40.482 240.268 40.678 242.34 40.678C243.53 40.678 244.51 40.594 244.986 40.552V39.236C243.698 39.376 242.55 39.404 241.78 39.404C240.282 39.404 238.854 39.236 238.854 37.962C238.854 37.836 238.868 37.038 239.554 36.072L238.42 35.722ZM254.639 33.258H259.371V31.998L254.639 32.04L254.625 29.716H253.309L253.365 36.31C253.015 36.268 252.749 36.226 252.287 36.226C250.285 36.226 248.311 37.052 248.311 38.97C248.311 40.342 249.347 41.49 251.657 41.49C254.569 41.49 254.667 39.698 254.653 38.872L254.639 37.906C256.347 38.564 257.971 39.824 258.825 40.776L259.735 39.572C259.049 38.858 257.411 37.514 254.653 36.576L254.639 33.258ZM253.379 38.788C253.379 39.362 253.239 40.328 251.643 40.328C251.335 40.328 249.557 40.328 249.557 38.984C249.557 37.85 250.887 37.374 252.091 37.374C252.679 37.374 253.099 37.458 253.393 37.514L253.379 38.788ZM266.854 41.042C267.974 41.028 269.178 40.93 270.27 40.58C272.944 39.74 273.252 37.542 273.252 36.702C273.252 34.742 271.88 33.258 269.486 33.258C268.744 33.258 267.764 33.398 266.896 33.538C266.42 33.622 264.096 34.042 263.564 34.126L263.774 35.358C265.93 34.812 268.31 34.35 269.43 34.35C270.802 34.35 272.02 35.05 272.02 36.744C272.02 39.992 267.708 39.964 266.546 39.95L266.854 41.042ZM288.701 30.472C285.257 30.5 283.969 30.528 280.833 30.696C280.119 30.738 277.879 30.836 277.039 30.864L277.151 32.236C278.677 32.054 283.521 31.76 283.927 31.746C282.275 32.712 279.825 34.546 279.825 37.206C279.825 41.126 284.473 41.322 287.231 41.434L287.483 40.076C286.279 40.118 284.935 40.034 283.955 39.824C282.471 39.516 281.127 38.942 281.127 37.122C281.127 34.714 283.871 32.544 285.887 31.872C286.307 31.732 286.601 31.704 287.301 31.704C287.847 31.704 288.253 31.718 288.729 31.76L288.701 30.472ZM295.022 40.874C294.434 40.076 293.44 38.9 292.53 38.06L291.466 38.844C291.928 39.334 292.796 40.244 293.79 41.742L295.022 40.874ZM312.263 41.686C315.245 40.622 315.959 38.284 316.295 36.912C316.995 37.22 317.233 37.346 317.863 37.724L318.283 36.464C317.415 35.988 316.603 35.68 316.561 35.666C316.771 34.546 316.883 33.328 316.981 32.32L315.651 32.222C315.623 32.866 315.553 33.86 315.343 35.232C314.069 34.812 313.145 34.588 311.969 34.49C312.431 31.732 312.473 31.424 312.655 30.024H306.859V31.242L311.241 31.2C311.157 32.194 310.975 33.44 310.779 34.448C306.201 34.63 305.949 37.64 305.949 38.326C305.949 39.824 306.929 40.72 308.273 40.72C310.387 40.72 311.003 38.718 311.759 35.596C313.019 35.708 314.209 36.072 315.119 36.422C314.629 38.452 313.901 39.852 311.493 40.72L312.263 41.686ZM310.569 35.526C309.827 38.564 309.449 39.614 308.189 39.614C307.125 39.614 307.055 38.522 307.055 38.256C307.055 37.304 307.629 36.394 308.539 35.946C309.155 35.638 309.743 35.554 310.569 35.526ZM329.756 33.636H328.496L328.58 36.632C328.272 36.562 327.824 36.464 327.124 36.464C324.646 36.464 323.834 38.018 323.834 39.068C323.834 40.37 324.87 41.532 326.97 41.532C328.356 41.532 329.77 41.028 329.77 38.956V38.382C330.274 38.676 331.128 39.194 332.038 40.286L332.808 39.18C332.122 38.424 331.002 37.556 329.826 37.038L329.756 33.636ZM328.608 38.732C328.608 39.684 328.398 40.44 327.012 40.44C326.746 40.44 325.024 40.44 325.024 39.026C325.024 38.242 325.696 37.528 327.124 37.528C327.866 37.528 328.286 37.682 328.608 37.794V38.732ZM324.45 31.48C324.632 30.458 324.646 30.374 324.758 29.702L323.428 29.646C323.372 30.206 323.33 30.514 323.176 31.48H320.586V32.656H322.952C322.588 34.224 321.972 36.968 320.474 39.376L321.762 39.936C322.266 38.9 323.414 36.562 324.212 32.656H327.39V31.48H324.45ZM332.57 32.572C331.086 31.746 330.148 31.326 328.748 30.836L328.258 31.872C329.518 32.334 330.568 32.838 331.982 33.692L332.57 32.572ZM345.079 36.8C344.239 35.904 343.427 34.546 342.839 33.132C344.071 33.076 345.275 33.02 346.801 32.698L346.577 31.494C345.177 31.788 343.861 31.956 342.433 31.998C342.251 31.438 342.055 30.528 341.929 29.674L340.599 29.772C340.655 30.108 340.865 31.13 341.145 32.04C340.795 32.054 340.039 32.068 339.451 32.054L335.363 31.984V33.202H339.395C339.605 33.202 340.683 33.188 341.537 33.174C342.293 35.092 343.175 36.604 344.001 37.528L345.079 36.8ZM338.023 35.652C336.595 36.352 335.993 37.36 335.993 38.382C335.993 39.082 336.259 39.768 336.819 40.272C337.799 41.154 339.185 41.434 341.635 41.434C343.553 41.434 344.785 41.322 345.289 41.266L345.275 40.02C344.407 40.132 343.343 40.258 341.523 40.258C339.521 40.258 337.253 40.076 337.253 38.368C337.253 38.102 337.323 37.234 338.695 36.562L338.023 35.652ZM4.746 53.632C4.41 54.542 3.598 56.782 3.388 57.37C3.066 58.28 2.828 58.952 0.84 65.028L2.156 65.434C2.534 64.02 2.758 63.18 3.248 61.878C4.13 60.072 5.278 59.778 5.838 59.778C6.832 59.778 7.084 60.604 7.084 61.64V62.424C7.084 63.516 7.098 65.49 9.478 65.49C12.684 65.49 13.02 61.738 13.104 59.89L11.886 59.61C11.886 60.422 11.816 61.472 11.424 62.606C10.962 63.936 10.248 64.258 9.562 64.258C8.428 64.258 8.316 63.488 8.316 62.48V61.542C8.316 60.576 8.204 58.588 6.048 58.588C5.278 58.588 4.732 58.854 3.976 59.47C4.354 58.378 5.194 56.082 6.132 54.01L4.746 53.632ZM21.875 65.434C23.429 65.28 24.829 64.804 25.739 64.048C27.013 62.984 27.615 61.332 27.615 59.666C27.615 57.3 26.397 54.164 21.861 54.164C18.165 54.164 15.393 56.6 15.393 60.408C15.393 62.718 16.541 64.342 17.913 64.342C18.543 64.342 19.439 64.02 20.265 62.718C21.707 60.408 21.987 56.964 22.113 55.34C25.963 55.466 26.299 58.546 26.299 59.652C26.299 63.656 22.897 64.062 21.455 64.216L21.875 65.434ZM20.867 55.396C20.727 57.006 20.503 59.848 19.327 61.864C18.963 62.48 18.543 62.998 17.955 62.998C16.961 62.998 16.611 61.388 16.611 60.436C16.611 58.812 17.255 57.244 18.557 56.292C19.271 55.76 20.041 55.55 20.867 55.396ZM38.136 53.184V54.094H36.316V55.018H38.136V56.11H35.574V57.02H38.136V58.14H36.316V59.036H38.136V60.044H36.12V60.954H38.136V62.004H35.742V62.942H38.136V64.188H39.144V62.942H42.476V62.004H39.144V60.954H42.028V60.044H39.144V59.036H41.846V57.02H42.518V56.11H41.846V54.094H39.144V53.184H38.136ZM40.81 56.11H39.144V55.018H40.81V56.11ZM40.81 58.14H39.144V57.02H40.81V58.14ZM38.808 64.692C36.078 64.692 34.832 63.46 34.748 63.362C34.902 62.956 35.546 61.094 35.602 58.056H33.81C34.426 56.978 35.098 55.816 35.574 54.766V53.716H32.774V54.724H34.44C34.104 55.536 33.194 57.258 32.634 58.042V59.064H34.58C34.552 60.1 34.454 61.192 34.062 62.368C33.6 61.402 33.474 60.506 33.39 59.932L32.438 60.072C32.522 60.59 32.76 62.228 33.572 63.474C33.026 64.37 32.55 64.734 32.158 65.042L32.788 66.078C33.194 65.7 33.698 65.238 34.258 64.328C34.65 64.706 36.036 65.784 38.724 65.784H42.462L42.644 64.692H38.808ZM31.836 56.544C32.326 55.2 32.522 54.15 32.662 53.338L31.542 53.156C31.262 55.144 30.52 57.566 29.33 59.008L29.876 60.156C30.17 59.848 30.394 59.61 30.758 58.952V66.148H31.836V56.544ZM55.657 61.066C54.943 61.948 53.823 62.816 53.655 62.942C52.717 62.242 52.213 61.584 51.863 61.094V60.968H55.965V59.036H57.071V58.112H55.965V56.25H51.863V55.592H50.771V56.25H46.837V57.16H50.771V58.112H46.221V55.242H56.987V54.206H51.303V53.184H50.141V54.206H45.087V60.03C45.087 61.43 44.975 61.892 44.821 62.704C44.569 64.02 44.149 64.79 43.911 65.196L44.863 66.19C46.095 63.866 46.221 61.164 46.221 60.128V59.036H50.771V60.072H46.837V60.968H50.771V64.72C50.771 64.902 50.743 65.042 50.421 65.042L48.923 65.028L49.147 66.176H50.841C51.555 66.176 51.863 65.756 51.863 65.14V62.536C53.207 64.202 55.041 65.238 56.539 65.798L57.197 64.72C56.693 64.538 55.741 64.202 54.565 63.53C55.503 62.844 55.965 62.424 56.595 61.752L55.657 61.066ZM54.859 57.16V58.112H51.863V57.16H54.859ZM54.859 59.036V60.072H51.863V59.036H54.859ZM46.851 61.892C47.761 62.312 48.195 62.592 48.811 63.166L49.553 62.312C48.839 61.752 48.377 61.5 47.481 61.08L46.851 61.892ZM50.113 62.886C49.637 63.11 47.537 64.076 45.927 64.58L46.361 65.588C49.343 64.342 49.679 64.202 50.295 63.866L50.113 62.886ZM65.1 58.238C64.316 58.238 63.658 58.868 63.658 59.68C63.658 60.464 64.288 61.122 65.1 61.122C65.912 61.122 66.542 60.45 66.542 59.68C66.542 58.896 65.898 58.238 65.1 58.238ZM85.421 65.084C84.609 64.608 83.237 63.824 81.459 63.082C82.005 62.522 82.929 61.472 83.601 59.33H86.079V58.224H78.491C78.995 57.202 79.177 56.74 79.331 56.362L78.043 56.124C77.875 56.614 77.637 57.272 77.147 58.224H73.171V59.33H76.545C75.775 60.66 75.089 61.472 74.669 61.962C76.853 62.564 78.099 62.984 79.233 63.432C77.483 64.398 75.383 64.748 73.507 64.916L73.913 66.148C77.553 65.77 79.709 64.496 80.479 63.936C82.775 64.93 84.021 65.756 84.651 66.176L85.421 65.084ZM82.369 59.33C82.215 59.792 81.683 61.402 80.339 62.634C78.939 62.102 77.539 61.696 76.531 61.402C76.811 61.038 77.217 60.506 77.889 59.33H82.369ZM73.507 54.444V57.496H74.697V55.522H84.567V57.496H85.757V54.444H80.199V53.184H78.995V54.444H73.507ZM98.28 57.818C99.148 58.364 99.778 58.644 100.268 58.868L100.856 57.72C98.28 56.782 96.208 55.102 94.794 53.198H93.52C91.966 55.368 89.67 56.88 87.444 57.734L88.032 58.882C88.536 58.644 89.124 58.378 90.076 57.804V58.868H93.562V60.996H89.11V62.046H93.562V64.692H87.738V65.812H100.562V64.692H94.752V62.046H99.232V60.996H94.752V58.868H98.28V57.818ZM90.09 57.79C91.644 56.852 93.016 55.62 94.15 54.192C95.648 56.054 97.37 57.23 98.238 57.79H90.09ZM107.709 55.046C107.905 54.346 107.975 54.024 108.059 53.534L106.715 53.478C106.617 54.276 106.519 54.682 106.421 55.046H103.201V56.166H106.085C105.189 58.784 104.069 60.268 102.837 61.43L103.705 62.368C104.153 61.906 105.077 60.674 105.721 59.792C106.701 58.798 107.723 58.364 108.493 58.364C109.137 58.364 109.529 58.644 109.683 59.47C108.297 60.086 105.791 61.346 105.791 63.25C105.791 65.504 108.955 65.504 110.537 65.504C111.867 65.504 113.085 65.42 113.883 65.364L113.841 64.16C112.581 64.3 111.265 64.356 110.145 64.356C108.605 64.356 107.051 64.356 107.051 63.124C107.051 61.976 108.745 61.08 109.823 60.576C109.851 60.94 109.851 61.178 109.851 61.416C109.851 61.92 109.809 62.438 109.781 62.76H110.999C111.041 62.312 111.041 61.892 111.041 61.696C111.041 61.192 111.027 60.59 110.985 60.1C112.525 59.512 113.519 59.204 114.653 58.882L114.317 57.664C113.057 58.098 111.139 58.868 110.817 58.994C110.537 57.664 109.641 57.356 108.689 57.356C107.989 57.356 107.429 57.594 106.449 58.182C106.855 57.482 107.051 57.02 107.373 56.166H113.547V55.046H107.709ZM126.952 56.39V53.73H125.692V56.39H120.806V53.786H119.532V56.39H117.166V57.594H119.532V61.36H120.806V57.594H125.692V59.316C125.692 62.396 123.858 64.006 119.896 64.384L120.358 65.602C122.458 65.35 126.952 64.524 126.952 59.372V57.594H129.374V56.39H126.952ZM138.341 56.138V53.8H137.053V56.138H132.209V57.328H137.053V65.644H138.341V57.328H143.199V56.824C144.039 56.586 144.613 55.83 144.613 54.962C144.613 53.884 143.745 53.016 142.667 53.016C141.603 53.016 140.721 53.884 140.721 54.948C140.721 55.396 140.861 55.802 141.127 56.138H138.341ZM142.667 53.884C143.255 53.884 143.745 54.36 143.745 54.962C143.745 55.55 143.269 56.04 142.667 56.04C142.079 56.04 141.589 55.55 141.589 54.962C141.589 54.36 142.079 53.884 142.667 53.884ZM132.909 64.804C134.589 62.928 135.023 60.646 135.219 58.798L134.029 58.672C133.875 60.394 133.371 62.396 131.887 63.88L132.909 64.804ZM140.231 58.798C140.707 61.668 141.253 63.208 142.513 64.748L143.563 63.936C142.415 62.55 141.827 61.094 141.407 58.658L140.231 58.798ZM146.23 59.008V60.338H158.27V59.008H146.23ZM172.291 60.254C170.275 59.162 168.105 58.084 165.459 57.244V53.66H164.101V65.63H165.459V58.56C168.385 59.568 170.681 60.968 171.633 61.556L172.291 60.254ZM177.31 53.828C177.296 54.78 177.212 59.428 177.212 60.478C177.212 62.914 177.464 65.476 181.3 65.476C185.556 65.476 186.466 62.592 186.914 60.058L185.738 59.624C185.346 61.752 184.884 64.272 181.258 64.272C178.626 64.272 178.542 62.396 178.542 60.604C178.542 59.274 178.598 57.608 178.724 53.828H177.31ZM193.347 64.874C192.759 64.076 191.765 62.9 190.855 62.06L189.791 62.844C190.253 63.334 191.121 64.244 192.115 65.742L193.347 64.874ZM211.414 59.4C211.512 58.798 211.554 58.336 211.554 57.524H215.404V56.502H209.02C209.216 56.124 209.328 55.886 209.552 55.326L208.432 55.088C207.998 56.446 207.172 57.468 206.178 58.266L207.06 59.022C207.606 58.532 207.928 58.182 208.404 57.524H210.462C210.462 58.532 210.392 58.966 210.322 59.4H206.248V60.436H209.986C208.992 62.494 206.766 63.04 206.066 63.208L206.738 64.23C208.334 63.698 210.126 62.788 211.05 60.66C211.4 61.458 212.52 63.236 215.684 64.216L216.3 63.138C214.032 62.634 212.548 61.332 212.072 60.436H215.992V59.4H211.414ZM204.33 53.646V65.882H216.762V64.818H205.52V54.724H216.468V53.646H204.33ZM229.887 59.988C230.321 60.254 230.587 60.38 230.965 60.562L231.497 59.624C231.105 59.484 230.727 59.344 230.097 58.994C230.125 58.952 230.615 58.476 231.049 57.916L230.265 57.44C230.111 57.65 229.775 58.07 229.369 58.504C228.697 57.986 228.347 57.524 228.067 57.174H231.329V56.292H226.233C226.331 56.096 226.387 55.956 226.527 55.606L225.421 55.48C225.309 55.802 225.239 55.984 225.099 56.292H221.739V57.174H224.567C224.175 57.692 223.825 58.056 223.391 58.406C223.265 58.266 222.873 57.832 222.425 57.496L221.781 58.084C222.173 58.392 222.215 58.434 222.677 58.924C222.201 59.246 221.837 59.428 221.347 59.666L221.963 60.506C222.271 60.324 222.369 60.268 222.663 60.086V62.998H225.673V64.804C225.673 65.084 225.631 65.14 225.351 65.14H224.021L224.259 66.148H225.771C226.205 66.148 226.807 66.12 226.807 65.252V62.998H229.887V59.988ZM228.865 60.534H223.685V59.694H228.865V60.534ZM224.259 58.882C225.169 58.056 225.561 57.44 225.729 57.174H226.919C227.227 57.622 227.577 58.154 228.389 58.882H224.259ZM228.865 62.186H223.685V61.304H228.865V62.186ZM220.185 59.064C220.185 59.456 220.171 59.722 220.171 59.946C219.471 60.296 219.149 60.45 218.183 60.828L218.421 61.976C218.841 61.766 219.373 61.5 220.073 61.038C219.765 63.642 218.995 64.65 218.365 65.434L219.219 66.19C219.779 65.518 221.291 63.712 221.291 59.106V55.298H231.371V54.318H226.163V53.184H225.015V54.318H220.185V59.064ZM219.891 57.86C219.751 57.146 219.457 56.166 219.051 55.368L218.183 55.788C218.505 56.586 218.757 57.482 218.911 58.322L219.891 57.86ZM221.375 65.938C222.313 65.588 223.181 65.126 224.371 63.964L223.559 63.292C222.565 64.244 221.879 64.622 220.759 65L221.375 65.938ZM227.941 63.978C228.697 64.832 229.887 65.574 230.965 65.952L231.581 65C230.279 64.538 229.691 64.202 228.683 63.236L227.941 63.978ZM234.654 53.954C234.206 56.054 234.066 58.294 234.066 60.604C234.066 63.278 234.304 64.678 234.43 65.49L235.788 65.378C235.676 64.874 235.354 63.53 235.354 60.408C235.354 56.88 235.774 55.046 235.984 54.066L234.654 53.954ZM238.112 55.088V56.32H244.692V55.088H238.112ZM238.42 59.722C237.93 60.548 237.678 61.346 237.678 62.074C237.678 64.482 240.268 64.678 242.34 64.678C243.53 64.678 244.51 64.594 244.986 64.552V63.236C243.698 63.376 242.55 63.404 241.78 63.404C240.282 63.404 238.854 63.236 238.854 61.962C238.854 61.836 238.868 61.038 239.554 60.072L238.42 59.722ZM252.091 64.678C253.785 64.664 255.353 64.468 256.543 63.978C259.525 62.774 259.875 60.408 259.875 59.33C259.875 57.23 258.545 55.13 255.269 55.13C254.107 55.13 252.763 55.354 251.433 55.592C250.859 55.69 248.143 56.166 247.821 56.208L248.129 57.622C250.495 57.034 253.505 56.362 255.185 56.362C257.915 56.362 258.531 58.028 258.531 59.344C258.531 60.73 257.803 61.738 257.047 62.284C255.675 63.264 254.065 63.46 251.755 63.474L252.091 64.678ZM263.032 54.374C262.948 55.326 262.808 56.852 262.808 58.378C262.808 62.018 263.438 65.154 265.706 65.154C266.42 65.154 266.938 64.818 267.274 64.482C268.058 63.698 268.702 62.522 269.164 61.22L268.128 60.632C267.162 63.152 266.434 63.726 265.804 63.726C264.236 63.726 264.068 60.66 264.068 58.49C264.068 56.6 264.25 55.326 264.362 54.486L263.032 54.374ZM274.316 63.768C274.512 58.168 273.07 56.194 271.404 54.794L270.438 55.536C271.894 56.726 272.986 58.742 272.986 62.396C272.986 63.04 272.958 63.46 272.93 63.824L274.316 63.768ZM288.701 54.472C285.257 54.5 283.969 54.528 280.833 54.696C280.119 54.738 277.879 54.836 277.039 54.864L277.151 56.236C278.677 56.054 283.521 55.76 283.927 55.746C282.275 56.712 279.825 58.546 279.825 61.206C279.825 65.126 284.473 65.322 287.231 65.434L287.483 64.076C286.279 64.118 284.935 64.034 283.955 63.824C282.471 63.516 281.127 62.942 281.127 61.122C281.127 58.714 283.871 56.544 285.887 55.872C286.307 55.732 286.601 55.704 287.301 55.704C287.847 55.704 288.253 55.718 288.729 55.76L288.701 54.472ZM297.85 65.434C299.404 65.28 300.804 64.804 301.714 64.048C302.988 62.984 303.59 61.332 303.59 59.666C303.59 57.3 302.372 54.164 297.836 54.164C294.14 54.164 291.368 56.6 291.368 60.408C291.368 62.718 292.516 64.342 293.888 64.342C294.518 64.342 295.414 64.02 296.24 62.718C297.682 60.408 297.962 56.964 298.088 55.34C301.938 55.466 302.274 58.546 302.274 59.652C302.274 63.656 298.872 64.062 297.43 64.216L297.85 65.434ZM296.842 55.396C296.702 57.006 296.478 59.848 295.302 61.864C294.938 62.48 294.518 62.998 293.93 62.998C292.936 62.998 292.586 61.388 292.586 60.436C292.586 58.812 293.23 57.244 294.532 56.292C295.246 55.76 296.016 55.55 296.842 55.396ZM312.277 56.53C312.529 56.124 312.809 55.662 313.215 54.822H318.479V53.674H305.543V54.822H311.969C310.905 57.09 308.833 59.498 305.389 61.08L306.089 62.186C307.083 61.682 309.197 60.548 311.367 57.804V66.176H312.585V56.53H312.277ZM318.675 61.136C316.547 59.834 315.119 58.364 313.929 56.88L313.075 57.552C314.783 59.708 315.707 60.646 317.835 62.186L318.675 61.136ZM332.346 65.084C331.534 64.608 330.162 63.824 328.384 63.082C328.93 62.522 329.854 61.472 330.526 59.33H333.004V58.224H325.416C325.92 57.202 326.102 56.74 326.256 56.362L324.968 56.124C324.8 56.614 324.562 57.272 324.072 58.224H320.096V59.33H323.47C322.7 60.66 322.014 61.472 321.594 61.962C323.778 62.564 325.024 62.984 326.158 63.432C324.408 64.398 322.308 64.748 320.432 64.916L320.838 66.148C324.478 65.77 326.634 64.496 327.404 63.936C329.7 64.93 330.946 65.756 331.576 66.176L332.346 65.084ZM329.294 59.33C329.14 59.792 328.608 61.402 327.264 62.634C325.864 62.102 324.464 61.696 323.456 61.402C323.736 61.038 324.142 60.506 324.814 59.33H329.294ZM320.432 54.444V57.496H321.622V55.522H331.492V57.496H332.682V54.444H327.124V53.184H325.92V54.444H320.432ZM341.075 58.238C340.291 58.238 339.633 58.868 339.633 59.68C339.633 60.464 340.263 61.122 341.075 61.122C341.887 61.122 342.517 60.45 342.517 59.68C342.517 58.896 341.873 58.238 341.075 58.238ZM1.204 84.128C1.512 82.98 1.638 81.16 1.652 80.194L0.756 80.11C0.756 80.81 0.672 82.42 0.28 83.68L1.204 84.128ZM2.226 77.184V90.176H3.36V77.184H2.226ZM5.068 81.86C4.998 81.622 4.69 80.544 4.34 79.746L3.5 80.082C3.794 80.81 4.018 81.636 4.13 82.224L5.068 81.86ZM13.062 82.112H11.956V88.874H6.02V82.112H4.914V89.882H13.062V82.112ZM10.108 81.706C9.786 82.77 9.492 83.344 9.128 84.03C8.428 83.316 8.008 82.924 7.378 82.448L6.65 83.162C7.49 83.848 7.952 84.31 8.568 84.954C7.938 85.892 7.392 86.578 6.398 87.376L7.168 88.174C8.4 87.11 8.89 86.438 9.324 85.808C9.758 86.298 10.094 86.718 10.71 87.642L11.536 86.9C11.144 86.298 10.794 85.808 9.926 84.87C10.332 84.156 10.696 83.47 11.102 82.14L10.108 81.706ZM9.716 80.068C9.38 78.766 8.764 77.548 8.596 77.212L7.56 77.506C7.644 77.674 8.358 79.158 8.638 80.404L9.716 80.068ZM11.774 81.3C12.46 80.348 13.146 78.934 13.468 77.898L12.418 77.436C12.25 77.926 11.746 79.452 10.808 80.81L11.774 81.3ZM7.084 80.614C6.734 79.69 6.132 78.598 5.544 77.8L4.578 78.206C5.194 79.088 5.726 80.18 6.048 81.006L7.084 80.614ZM21.763 89.686C24.745 88.622 25.459 86.284 25.795 84.912C26.495 85.22 26.733 85.346 27.363 85.724L27.783 84.464C26.915 83.988 26.103 83.68 26.061 83.666C26.271 82.546 26.383 81.328 26.481 80.32L25.151 80.222C25.123 80.866 25.053 81.86 24.843 83.232C23.569 82.812 22.645 82.588 21.469 82.49C21.931 79.732 21.973 79.424 22.155 78.024H16.359V79.242L20.741 79.2C20.657 80.194 20.475 81.44 20.279 82.448C15.701 82.63 15.449 85.64 15.449 86.326C15.449 87.824 16.429 88.72 17.773 88.72C19.887 88.72 20.503 86.718 21.259 83.596C22.519 83.708 23.709 84.072 24.619 84.422C24.129 86.452 23.401 87.852 20.993 88.72L21.763 89.686ZM20.069 83.526C19.327 86.564 18.949 87.614 17.689 87.614C16.625 87.614 16.555 86.522 16.555 86.256C16.555 85.304 17.129 84.394 18.039 83.946C18.655 83.638 19.243 83.554 20.069 83.526ZM36.05 82.238C35.266 82.238 34.608 82.868 34.608 83.68C34.608 84.464 35.238 85.122 36.05 85.122C36.862 85.122 37.492 84.45 37.492 83.68C37.492 82.896 36.848 82.238 36.05 82.238ZM44.065 78.388V79.48H47.187V80.908H48.321V79.48H52.801V80.908H53.921V79.48H57.085V78.388H53.921V77.17H52.801V78.388H48.321V77.17H47.187V78.388H44.065ZM57.085 81.804H51.121V80.264H49.959V81.804H44.065V82.882H49.959V84.688H45.479V89.91H55.643V84.688H51.121V82.882H57.085V81.804ZM54.481 88.888H46.641V85.724H54.481V88.888ZM67.83 82.882C67.732 82.812 67.606 82.714 67.522 82.658C67.844 82.504 69.286 81.832 70.546 80.81V80.068H62.482V80.908H68.656C67.9 81.468 67.508 81.692 66.668 82.112C66.458 81.972 65.702 81.524 64.932 81.174L64.26 81.93C65.184 82.308 65.702 82.574 66.122 82.882H62.734V90.19H63.826V87.866H66.29V90.148H67.368V87.866H69.986V88.748C69.986 89 69.86 89.042 69.664 89.042H68.502L68.712 90.19H70.098C71.064 90.19 71.064 89.49 71.064 89.07V82.882H67.83ZM66.29 84.912H63.826V83.778H66.29V84.912ZM66.29 86.984H63.826V85.78H66.29V86.984ZM69.986 84.912H67.368V83.778H69.986V84.912ZM69.986 86.984H67.368V85.78H69.986V86.984ZM60.774 83.218C60.774 83.54 60.76 83.736 60.746 83.932C60.62 84.016 59.598 84.576 58.492 84.996L58.772 86.144C59.262 85.892 59.738 85.654 60.662 85.094C60.41 87.194 60.004 88.286 59.01 89.448L59.934 90.232C60.564 89.476 61.866 87.922 61.866 82.994V79.284H71.54V78.29H66.416V77.156H65.24V78.29H60.774V83.218ZM60.452 81.902C60.27 81.174 59.892 80.138 59.486 79.382L58.562 79.886C58.884 80.516 59.29 81.58 59.486 82.378L60.452 81.902ZM78.659 79.046C78.855 78.346 78.925 78.024 79.009 77.534L77.665 77.478C77.567 78.276 77.469 78.682 77.371 79.046H74.151V80.166H77.035C76.139 82.784 75.019 84.268 73.787 85.43L74.655 86.368C75.103 85.906 76.027 84.674 76.671 83.792C77.651 82.798 78.673 82.364 79.443 82.364C80.087 82.364 80.479 82.644 80.633 83.47C79.247 84.086 76.741 85.346 76.741 87.25C76.741 89.504 79.905 89.504 81.487 89.504C82.817 89.504 84.035 89.42 84.833 89.364L84.791 88.16C83.531 88.3 82.215 88.356 81.095 88.356C79.555 88.356 78.001 88.356 78.001 87.124C78.001 85.976 79.695 85.08 80.773 84.576C80.801 84.94 80.801 85.178 80.801 85.416C80.801 85.92 80.759 86.438 80.731 86.76H81.949C81.991 86.312 81.991 85.892 81.991 85.696C81.991 85.192 81.977 84.59 81.935 84.1C83.475 83.512 84.469 83.204 85.603 82.882L85.267 81.664C84.007 82.098 82.089 82.868 81.767 82.994C81.487 81.664 80.591 81.356 79.639 81.356C78.939 81.356 78.379 81.594 77.399 82.182C77.805 81.482 78.001 81.02 78.323 80.166H84.497V79.046H78.659ZM91.448 78.654C92.274 78.514 92.722 78.402 93.478 78.206L93.058 77.184C91.238 77.674 89.684 77.884 87.64 77.94L87.878 78.99C89.012 78.948 89.586 78.892 90.314 78.808V80.866H87.612V81.902H90.174C89.74 82.896 88.872 84.716 87.43 86.13L87.934 87.46C89.236 86.046 89.936 84.73 90.314 83.89V90.176H91.448V83.624C91.966 84.576 92.498 85.318 93.156 85.962L93.73 84.856C92.582 83.876 91.812 82.644 91.448 81.944V81.902H93.702V80.866H91.448V78.654ZM100.17 78.08H94.206V89.798H100.17V78.08ZM99.022 88.706H95.326V79.144H99.022V88.706ZM112.175 78.528C110.033 77.828 107.639 77.702 106.435 77.646L106.211 78.85C108.101 78.92 110.159 79.186 111.825 79.858L112.175 78.528ZM104.503 79.648C104.321 80.376 104.195 81.146 104.139 82.448C104.125 82.868 104.083 84.968 104.083 85.444L105.329 85.486C105.343 85.416 105.357 85.374 105.399 85.234C106.323 84.016 108.199 83.218 110.075 83.218C111.923 83.218 112.665 84.226 112.665 85.318C112.665 85.892 112.511 86.55 112.119 86.97C111.279 87.894 109.599 88.272 107.667 88.272C106.729 88.272 105.875 88.188 104.937 88.02L105.077 89.252C105.651 89.336 106.477 89.448 107.765 89.448C110.761 89.448 113.995 88.692 113.995 85.332C113.995 84.17 113.393 82.084 110.145 82.084C108.325 82.084 106.757 82.672 105.329 83.806C105.329 81.748 105.441 80.936 105.763 79.872L104.503 79.648ZM121.926 89.7C124.894 89.126 126.616 88.104 126.616 83.596C126.616 83.358 126.588 82.406 126.574 82.028H129.066V80.852H126.504C126.476 80.418 126.364 78.388 126.322 77.842L125.118 77.87C125.16 78.612 125.23 80.222 125.258 80.852H120.54V82.028H125.3C125.314 82.462 125.328 83.12 125.328 83.414C125.328 87.236 124.152 88.048 121.464 88.566L121.926 89.7ZM126.546 77.268C126.994 78.29 127.232 79.144 127.4 80.166L128.408 79.802C128.142 78.682 127.974 78.01 127.484 76.946L126.546 77.268ZM128.45 76.904C128.898 77.926 129.094 78.612 129.304 79.788L130.312 79.424C129.99 78.094 129.878 77.632 129.388 76.568L128.45 76.904ZM118.118 77.87C117.838 79.956 117.698 82.056 117.698 84.156C117.698 85.892 117.768 87.642 118.132 89.35L119.434 89.182C119.056 87.418 118.958 85.654 118.958 84.03C118.958 81.118 119.28 79.046 119.462 77.954L118.118 77.87ZM138.705 79.242V77.772H137.473V79.242H132.153V80.32H137.473V82.056H132.363V83.12H137.473V84.772C137.179 84.716 136.703 84.632 136.073 84.632C133.987 84.632 132.545 85.696 132.545 87.166C132.545 88.062 133.133 89.518 135.863 89.518C137.039 89.518 138.705 89.14 138.705 87.138V86.34C139.475 86.69 140.707 87.334 142.065 88.832L142.891 87.628C141.421 86.396 140.189 85.626 138.705 85.08V83.12H142.905V82.056H138.705V80.32H143.171V79.242H138.705ZM137.473 86.886C137.473 87.992 136.927 88.426 135.709 88.426C133.861 88.426 133.721 87.39 133.721 87.124C133.721 86.2 134.771 85.668 136.073 85.668C136.787 85.668 137.193 85.78 137.473 85.864V86.886ZM154.448 79.2V77.632H153.16L153.188 79.2H146.3V80.362H153.202L153.216 81.874C152.922 81.622 152.586 81.314 151.648 81.314C149.912 81.314 148.75 82.518 148.75 84.156C148.75 85.514 149.618 86.9 151.354 86.9C152.964 86.9 153.426 85.85 153.566 85.556C153.384 87.222 152.348 88.51 148.61 88.468L149.002 89.644C151.438 89.546 154.714 88.874 154.714 85.178C154.714 84.814 154.686 84.45 154.63 84.1C154.588 83.764 154.518 83.442 154.448 83.176V80.362H158.116V79.2H154.448ZM153.244 84.254C153.244 85.178 152.516 85.878 151.522 85.878C150.22 85.878 149.926 84.688 149.926 84.1C149.926 82.812 150.906 82.364 151.676 82.364C152.908 82.364 153.132 83.19 153.244 83.638V84.254ZM162.869 85.542C161.721 85.542 160.783 86.466 160.783 87.628C160.783 88.776 161.707 89.714 162.869 89.714C164.017 89.714 164.955 88.776 164.955 87.628C164.955 86.452 164.003 85.542 162.869 85.542ZM162.869 86.242C163.611 86.242 164.241 86.844 164.241 87.628C164.241 88.384 163.625 89 162.869 89C162.099 89 161.483 88.384 161.483 87.628C161.483 86.858 162.113 86.242 162.869 86.242Z" fill="black"/>
</svg>
