<svg width="350" height="68" viewBox="0 0 350 68" fill="none" xmlns="http://www.w3.org/2000/svg">
<path d="M2.496 2.185V7.203C1.313 7.736 1.131 7.827 0.273 8.113L0.572 9.179C0.897 9.036 1.599 8.711 2.405 8.23C2.054 10.739 1.001 11.87 0.559 12.338L1.443 13.066C2.041 12.351 3.536 10.609 3.536 6.644V3.16H12.558V2.185H7.722V1.041H6.656V2.185H2.496ZM2.106 5.344C1.911 4.525 1.69 3.875 1.222 3.043L0.351 3.485C0.546 3.836 0.91 4.486 1.17 5.812L2.106 5.344ZM12.272 4.525H4.043V5.474H7.696V11.805H5.863V6.709H4.784V11.805H3.094V12.78H12.493V11.805H8.749V8.828H11.856V7.879H8.749V5.474H12.272V4.525ZM26.139 12C25.333 11.493 23.084 10.063 22.265 5.578H25.983V4.538H22.213V1.041H21.095V4.538H17.858V5.578H21.056C21.004 6.267 20.861 6.956 20.679 7.632C20.107 9.777 19.145 11.077 17.546 12.104L18.157 13.079C20.458 11.454 21.316 9.478 21.797 7.736C22.434 9.608 23.344 11.649 25.515 13.027L26.139 12ZM16.22 1.041V7.671C15.245 8.386 14.114 9.01 13.737 9.218L14.062 10.375C14.595 10.115 15.739 9.4 16.22 8.984V13.079H17.299V1.041H16.22ZM15.83 5.279C15.596 4.395 15.193 3.459 14.764 2.692L13.828 3.108C14.335 4.07 14.556 4.616 14.855 5.695L15.83 5.279ZM25.359 3.407C25.151 3.069 24.631 2.185 23.734 1.249L22.915 1.795C23.552 2.471 24.176 3.446 24.462 3.953L25.359 3.407ZM31.998 13.144C32.843 12.884 34.832 12.195 35.716 9.92C36.054 10.752 37.029 12.364 39.187 13.105L39.707 12.13C38.784 11.831 37.315 11.272 36.509 9.439H39.057V5.838H36.132V4.642H37.952V4.161C38.316 4.434 38.641 4.642 39.174 4.954L39.746 4.018C37.536 2.9 36.756 1.86 36.249 1.002H34.975C33.974 2.445 33.064 3.251 31.556 4.031L32.076 4.967C32.414 4.798 32.778 4.603 33.363 4.174V4.642H35.105V5.838H32.18V9.439H34.819C34.247 11.454 32.063 12.039 31.465 12.195L31.998 13.144ZM36.132 6.735H38.056V8.542H36.054C36.106 8.191 36.132 7.853 36.132 7.034V6.735ZM35.105 7.06C35.105 7.814 35.079 8.191 35.027 8.542H33.207V6.735H35.105V7.06ZM33.87 3.745C34.624 3.056 35.3 2.185 35.612 1.795C35.924 2.198 36.6 3.069 37.419 3.745H33.87ZM31.959 7.593C30.958 6.514 30.49 5.5 30.308 5.032V4.538H31.439V3.55H30.308V1.028H29.281V3.55H27.461V4.538H29.203C28.527 7.294 27.721 8.334 27.24 8.958L27.695 10.245C28.436 9.231 28.956 8.074 29.281 6.852V13.092H30.308V6.592C30.62 7.372 30.919 7.853 31.426 8.568L31.959 7.593ZM48.465 5.253C48.114 5.656 47.607 6.267 46.216 7.528C46.073 7.411 45.826 7.216 45.189 6.8C45.241 6.748 46.164 5.955 46.84 5.058H51.689V6.592H52.768V4.122H47.503V3.017H52.768V2.055H47.503V1.054H46.437V2.055H41.224V3.017H46.437V4.122H41.172V6.592H42.238V5.058H45.462C45.228 5.383 45.02 5.669 44.37 6.28C43.902 5.981 43.759 5.916 43.512 5.786L42.849 6.579C44.227 7.242 45.254 7.996 45.488 8.191C45.371 8.295 45.28 8.373 45.033 8.568C44.448 8.581 41.614 8.607 40.977 8.594L41.055 9.595C41.822 9.595 45.592 9.517 46.437 9.504V13.066H47.516V9.452L51.221 9.257C51.689 9.712 51.897 9.972 52.105 10.245L52.846 9.504C52.482 9.075 51.637 8.061 49.882 6.787L49.128 7.463C49.44 7.684 49.648 7.827 50.337 8.425C47.698 8.516 47.399 8.529 46.502 8.568C48.166 7.112 48.699 6.631 49.388 5.851L48.465 5.253ZM41.575 12.936C42.264 12.598 43.746 11.844 44.942 10.44L44.097 9.855C42.953 11.168 41.276 11.909 40.899 12.078L41.575 12.936ZM48.816 10.388C49.427 11.025 50.402 11.974 52.404 12.871L53.067 11.948C51.559 11.376 50.584 10.765 49.57 9.764L48.816 10.388ZM61.058 3.719H65.153V2.588H55.754V3.719H59.823V10.401H55.052V11.558H65.855V10.401H61.058V3.719ZM73.534 4.174C73.196 3.966 71.766 3.043 69.465 2.354L68.88 3.394C70.752 3.979 72.117 4.746 72.884 5.266L73.534 4.174ZM69.387 12.208C76.875 11.714 78.955 5.643 79.579 3.797L78.565 3.043C77.668 5.955 75.731 10.557 69.153 10.908L69.387 12.208ZM87.557 3.329C86.53 2.835 85.256 2.25 83.748 1.912L83.28 2.9C84.619 3.277 85.867 3.745 87.063 4.408L87.557 3.329ZM86.491 6.371C85.49 5.786 83.93 5.188 82.734 4.902L82.279 5.929C84.151 6.475 85.334 7.086 86.01 7.476L86.491 6.371ZM89.65 1.197C90.248 2.224 90.43 2.666 90.781 3.745L91.691 3.29C91.262 2.146 91.015 1.548 90.495 0.768L89.65 1.197ZM91.821 1.067C92.38 2.055 92.588 2.601 92.913 3.641L93.836 3.199C93.446 2.029 93.095 1.327 92.679 0.663999L91.821 1.067ZM83.241 12.286C88.545 11.597 91.067 9.595 92.757 4.772L91.743 4.031C90.313 8.542 88.129 10.505 82.955 11.012L83.241 12.286ZM100.514 4.174C100.176 3.966 98.746 3.043 96.445 2.354L95.86 3.394C97.732 3.979 99.097 4.746 99.864 5.266L100.514 4.174ZM96.367 12.208C103.855 11.714 105.935 5.643 106.559 3.797L105.545 3.043C104.648 5.955 102.711 10.557 96.133 10.908L96.367 12.208ZM118.099 13.053V1.912H120.595V0.871999H117.059V13.053H118.099ZM130.094 10.271C130.861 7.034 131.121 3.758 131.212 2.744H124.023V3.901H129.886C129.808 4.837 129.561 7.58 128.846 10.271H122.372V11.428H133.383V10.271H130.094ZM138.215 1.925H137.019V10.154C137.019 11.805 137.825 12.13 139.762 12.13H143.402C144.221 12.13 145.456 12.091 146.249 11.961L146.184 10.791C145.352 10.947 144.312 10.999 143.272 10.999H139.931C138.449 10.999 138.215 10.895 138.215 9.959V7.086C139.58 6.8 141.959 6.202 144.806 4.902L144.273 3.81C142.323 4.811 140.529 5.422 138.215 5.955V1.925ZM143.87 1.535C144.455 2.432 144.754 3.004 145.144 4.031L146.028 3.511C145.612 2.549 145.287 1.886 144.702 1.067L143.87 1.535ZM145.859 0.923999C146.509 1.912 146.73 2.38 147.12 3.42L148.004 2.913C147.627 1.99 147.263 1.236 146.691 0.455999L145.859 0.923999ZM149.3 6.436V7.671H160.48V6.436H149.3ZM164.701 1.067V12.208H162.205V13.248H165.741V1.067H164.701ZM184.73 3.849L184.704 1.652H183.521L183.56 3.849H179.66V4.967H183.586L183.638 8.035C183.274 7.931 182.949 7.84 182.299 7.84C180.648 7.84 179.452 8.763 179.452 10.115C179.452 11.168 180.206 12.351 182.234 12.351C184.717 12.351 184.73 10.882 184.73 10.141V9.66C185.445 10.115 186.095 10.661 186.615 11.35L187.382 10.297C186.784 9.66 185.822 8.919 184.769 8.399L184.73 4.967H187.161V3.849H184.73ZM183.638 9.907C183.638 10.609 183.586 11.376 182.169 11.376C181.48 11.376 180.492 11.129 180.492 10.128C180.492 9.153 181.441 8.815 182.312 8.815C182.975 8.815 183.339 8.971 183.638 9.101V9.907ZM177.177 1.626C176.826 3.654 176.696 5.539 176.696 7.593C176.696 9.192 176.748 10.804 177.06 12.377L178.23 12.221C177.892 10.739 177.827 9.205 177.827 7.684C177.827 4.772 178.139 3.017 178.386 1.717L177.177 1.626ZM199.039 13.053V1.912H201.535V0.871999H197.999V13.053H199.039ZM209.851 1.028V1.847H205.964V2.731H207.862C207.901 2.835 208.135 3.706 208.187 3.914H206.393V11.103H207.381V4.759H209.903V5.734H207.784V6.54H209.903V7.437H208.252V10.128H212.516V7.437H210.852V6.54H212.958V5.734H210.852V4.759H213.361V9.972C213.361 10.271 213.244 10.297 213.075 10.297L211.866 10.284L212.009 11.272H213.387C214.063 11.272 214.349 10.895 214.349 10.271V3.914H212.451C212.633 3.472 212.737 3.173 212.867 2.731H214.83V1.847H210.904V1.028H209.851ZM209.123 3.914C209.006 3.407 208.993 3.342 208.837 2.731H211.918C211.879 2.9 211.684 3.576 211.541 3.914H209.123ZM211.619 9.335H209.136V8.217H211.619V9.335ZM208.304 11.779C207.927 11.779 205.561 11.597 205.301 10.011V6.072H202.87V7.138H204.274V10.804C203.702 11.415 202.961 11.896 202.727 12.039L203.247 13.144C204.17 12.338 204.235 12.26 205.067 11.311C205.353 11.688 206.159 12.78 208.291 12.78H214.791L214.999 11.779H208.304ZM205.769 3.368C205.145 2.497 204.391 1.73 203.78 1.21L203.065 1.86C204.235 3.004 204.69 3.706 204.924 4.057L205.769 3.368ZM217.491 4.668L216.152 4.889L216.217 5.942L217.491 5.734V9.894C217.491 10.518 217.816 10.843 218.427 10.843H219.948C221.014 10.843 221.261 9.816 221.469 8.113L220.416 7.866C220.39 8.36 220.299 9.842 219.74 9.842H218.934C218.609 9.842 218.544 9.751 218.544 9.465V5.565L221.404 5.097L221.339 4.031L218.544 4.486V1.041H217.491V4.668ZM221.04 1.6V2.653H223.367C223.367 7.216 222.951 10.141 219.155 12.169L219.909 13.105C223.51 10.908 224.407 8.334 224.459 2.653H226.916C226.916 4.135 226.916 10.505 226.227 11.623C226.006 11.987 225.577 11.974 225.447 11.974L223.51 11.961L223.744 13.066H225.629C226.786 13.066 227.137 12.468 227.293 12.143C228.008 10.609 228.008 4.772 228.008 1.6H221.04ZM238.807 5.162H237.637L237.715 7.944C237.429 7.879 237.013 7.788 236.363 7.788C234.062 7.788 233.308 9.231 233.308 10.206C233.308 11.415 234.27 12.494 236.22 12.494C237.507 12.494 238.82 12.026 238.82 10.102V9.569C239.288 9.842 240.081 10.323 240.926 11.337L241.641 10.31C241.004 9.608 239.964 8.802 238.872 8.321L238.807 5.162ZM237.741 9.894C237.741 10.778 237.546 11.48 236.259 11.48C236.012 11.48 234.413 11.48 234.413 10.167C234.413 9.439 235.037 8.776 236.363 8.776C237.052 8.776 237.442 8.919 237.741 9.023V9.894ZM233.88 3.16C234.049 2.211 234.062 2.133 234.166 1.509L232.931 1.457C232.879 1.977 232.84 2.263 232.697 3.16H230.292V4.252H232.489C232.151 5.708 231.579 8.256 230.188 10.492L231.384 11.012C231.852 10.05 232.918 7.879 233.659 4.252H236.61V3.16H233.88ZM241.42 4.174C240.042 3.407 239.171 3.017 237.871 2.562L237.416 3.524C238.586 3.953 239.561 4.421 240.874 5.214L241.42 4.174ZM244.757 7.021C245.667 6.449 246.031 6.085 246.408 5.708C248.319 6.67 249.463 7.476 250.542 8.399C249.06 10.024 247.045 10.986 244.913 11.493L245.472 12.572C253.272 10.544 253.948 4.33 254.182 2.211H247.461C246.681 3.94 245.537 5.149 243.99 6.111L244.757 7.021ZM252.843 3.29C252.544 5.305 251.946 6.501 251.257 7.515C249.97 6.41 248.475 5.604 247.123 4.928C247.474 4.499 247.708 4.2 248.241 3.29H252.843ZM264.201 5.578C266.021 4.122 267.1 2.861 267.672 2.185L266.58 1.47C264.162 4.512 260.964 6.865 257.259 8.022L257.831 9.101C259.495 8.516 261.185 7.736 262.953 6.501V12.559H264.201V5.578ZM280.681 2.913C277.652 2.224 275.312 1.938 272.179 1.756L271.984 2.835C275.208 3.004 277.743 3.381 280.46 4.109L280.681 2.913ZM280.005 6.852C277.847 6.202 275.78 5.76 272.114 5.487L271.893 6.566C275.143 6.813 277.249 7.177 279.797 7.983L280.005 6.852ZM281.214 11.259C279.784 10.843 276.508 9.881 271.347 9.621L271.113 10.726C275.741 11.077 278.12 11.597 280.889 12.494L281.214 11.259ZM289.374 4.174C289.036 3.966 287.606 3.043 285.305 2.354L284.72 3.394C286.592 3.979 287.957 4.746 288.724 5.266L289.374 4.174ZM285.227 12.208C292.715 11.714 294.795 5.643 295.419 3.797L294.405 3.043C293.508 5.955 291.571 10.557 284.993 10.908L285.227 12.208ZM298.704 12.676C303.332 11.636 306.049 9.062 307.128 4.109L305.919 2.51H300.719C299.809 4.33 298.483 5.448 297.469 6.137L298.21 7.021C299.679 6.033 300.641 4.967 301.499 3.602H306.01C305.269 7.515 303.254 10.57 298.21 11.571L298.704 12.676ZM307.674 0.95C308.35 1.873 308.61 2.393 309.052 3.394L309.884 2.848C309.338 1.756 309.117 1.301 308.454 0.455999L307.674 0.95ZM305.945 1.457C306.582 2.302 306.907 2.861 307.362 3.875L308.181 3.316C307.635 2.237 307.375 1.769 306.712 0.95L305.945 1.457ZM318.577 5.5C319.188 6.358 319.513 6.969 319.942 8.009L320.852 7.437C320.397 6.449 320.02 5.747 319.422 4.98L318.577 5.5ZM320.501 4.668C321.125 5.565 321.424 6.124 321.866 7.177L322.776 6.605C322.308 5.591 321.97 4.954 321.346 4.148L320.501 4.668ZM322.087 2.224C319.11 2.237 317.888 2.263 314.807 2.432C314.144 2.471 311.895 2.575 311.258 2.588L311.362 3.862C312.779 3.693 317.277 3.42 317.654 3.407C316.12 4.304 313.845 6.007 313.845 8.477C313.845 12.117 318.161 12.299 320.722 12.403L320.956 11.142C319.799 11.181 318.512 11.077 317.68 10.908C316.302 10.622 315.054 10.089 315.054 8.399C315.054 6.163 317.602 4.148 319.474 3.524C319.864 3.394 320.15 3.368 320.787 3.368C321.151 3.368 321.554 3.381 322.113 3.42L322.087 2.224ZM330.585 12.403C332.028 12.26 333.328 11.818 334.173 11.116C335.356 10.128 335.915 8.594 335.915 7.047C335.915 4.85 334.784 1.938 330.572 1.938C327.14 1.938 324.566 4.2 324.566 7.736C324.566 9.881 325.632 11.389 326.906 11.389C327.491 11.389 328.323 11.09 329.09 9.881C330.429 7.736 330.689 4.538 330.806 3.03C334.381 3.147 334.693 6.007 334.693 7.034C334.693 10.752 331.534 11.129 330.195 11.272L330.585 12.403ZM329.649 3.082C329.519 4.577 329.311 7.216 328.219 9.088C327.881 9.66 327.491 10.141 326.945 10.141C326.022 10.141 325.697 8.646 325.697 7.762C325.697 6.254 326.295 4.798 327.504 3.914C328.167 3.42 328.882 3.225 329.649 3.082ZM344.751 1.028V1.847H340.864V2.731H342.762C342.801 2.835 343.035 3.706 343.087 3.914H341.293V11.103H342.281V4.759H344.803V5.734H342.684V6.54H344.803V7.437H343.152V10.128H347.416V7.437H345.752V6.54H347.858V5.734H345.752V4.759H348.261V9.972C348.261 10.271 348.144 10.297 347.975 10.297L346.766 10.284L346.909 11.272H348.287C348.963 11.272 349.249 10.895 349.249 10.271V3.914H347.351C347.533 3.472 347.637 3.173 347.767 2.731H349.73V1.847H345.804V1.028H344.751ZM344.023 3.914C343.906 3.407 343.893 3.342 343.737 2.731H346.818C346.779 2.9 346.584 3.576 346.441 3.914H344.023ZM346.519 9.335H344.036V8.217H346.519V9.335ZM343.204 11.779C342.827 11.779 340.461 11.597 340.201 10.011V6.072H337.77V7.138H339.174V10.804C338.602 11.415 337.861 11.896 337.627 12.039L338.147 13.144C339.07 12.338 339.135 12.26 339.967 11.311C340.253 11.688 341.059 12.78 343.191 12.78H349.691L349.899 11.779H343.204ZM340.669 3.368C340.045 2.497 339.291 1.73 338.68 1.21L337.965 1.86C339.135 3.004 339.59 3.706 339.824 4.057L340.669 3.368ZM1.651 22.668L0.312 22.889L0.377 23.942L1.651 23.734V27.894C1.651 28.518 1.976 28.843 2.587 28.843H4.108C5.174 28.843 5.421 27.816 5.629 26.113L4.576 25.866C4.55 26.36 4.459 27.842 3.9 27.842H3.094C2.769 27.842 2.704 27.751 2.704 27.465V23.565L5.564 23.097L5.499 22.031L2.704 22.486V19.041H1.651V22.668ZM5.2 19.6V20.653H7.527C7.527 25.216 7.111 28.141 3.315 30.169L4.069 31.105C7.67 28.908 8.567 26.334 8.619 20.653H11.076C11.076 22.135 11.076 28.505 10.387 29.623C10.166 29.987 9.737 29.974 9.607 29.974L7.67 29.961L7.904 31.066H9.789C10.946 31.066 11.297 30.468 11.453 30.143C12.168 28.609 12.168 22.772 12.168 19.6H5.2ZM22.967 23.162H21.797L21.875 25.944C21.589 25.879 21.173 25.788 20.523 25.788C18.222 25.788 17.468 27.231 17.468 28.206C17.468 29.415 18.43 30.494 20.38 30.494C21.667 30.494 22.98 30.026 22.98 28.102V27.569C23.448 27.842 24.241 28.323 25.086 29.337L25.801 28.31C25.164 27.608 24.124 26.802 23.032 26.321L22.967 23.162ZM21.901 27.894C21.901 28.778 21.706 29.48 20.419 29.48C20.172 29.48 18.573 29.48 18.573 28.167C18.573 27.439 19.197 26.776 20.523 26.776C21.212 26.776 21.602 26.919 21.901 27.023V27.894ZM18.04 21.16C18.209 20.211 18.222 20.133 18.326 19.509L17.091 19.457C17.039 19.977 17 20.263 16.857 21.16H14.452V22.252H16.649C16.311 23.708 15.739 26.256 14.348 28.492L15.544 29.012C16.012 28.05 17.078 25.879 17.819 22.252H20.77V21.16H18.04ZM25.58 22.174C24.202 21.407 23.331 21.017 22.031 20.562L21.576 21.524C22.746 21.953 23.721 22.421 25.034 23.214L25.58 22.174ZM34.468 24.8C34.559 24.241 34.598 23.812 34.598 23.058H38.173V22.109H32.245C32.427 21.758 32.531 21.537 32.739 21.017L31.699 20.796C31.296 22.057 30.529 23.006 29.606 23.747L30.425 24.449C30.932 23.994 31.231 23.669 31.673 23.058H33.584C33.584 23.994 33.519 24.397 33.454 24.8H29.671V25.762H33.142C32.219 27.673 30.152 28.18 29.502 28.336L30.126 29.285C31.608 28.791 33.272 27.946 34.13 25.97C34.455 26.711 35.495 28.362 38.433 29.272L39.005 28.271C36.899 27.803 35.521 26.594 35.079 25.762H38.719V24.8H34.468ZM27.89 19.457V30.819H39.434V29.831H28.995V20.458H39.161V19.457H27.89ZM51.624 25.346C52.027 25.593 52.274 25.71 52.625 25.879L53.119 25.008C52.755 24.878 52.404 24.748 51.819 24.423C51.845 24.384 52.3 23.942 52.703 23.422L51.975 22.98C51.832 23.175 51.52 23.565 51.143 23.968C50.519 23.487 50.194 23.058 49.934 22.733H52.963V21.914H48.231C48.322 21.732 48.374 21.602 48.504 21.277L47.477 21.16C47.373 21.459 47.308 21.628 47.178 21.914H44.058V22.733H46.684C46.32 23.214 45.995 23.552 45.592 23.877C45.475 23.747 45.111 23.344 44.695 23.032L44.097 23.578C44.461 23.864 44.5 23.903 44.929 24.358C44.487 24.657 44.149 24.826 43.694 25.047L44.266 25.827C44.552 25.658 44.643 25.606 44.916 25.437V28.141H47.711V29.818C47.711 30.078 47.672 30.13 47.412 30.13H46.177L46.398 31.066H47.802C48.205 31.066 48.764 31.04 48.764 30.234V28.141H51.624V25.346ZM50.675 25.853H45.865V25.073H50.675V25.853ZM46.398 24.319C47.243 23.552 47.607 22.98 47.763 22.733H48.868C49.154 23.149 49.479 23.643 50.233 24.319H46.398ZM50.675 27.387H45.865V26.568H50.675V27.387ZM42.615 24.488C42.615 24.852 42.602 25.099 42.602 25.307C41.952 25.632 41.653 25.775 40.756 26.126L40.977 27.192C41.367 26.997 41.861 26.75 42.511 26.321C42.225 28.739 41.51 29.675 40.925 30.403L41.718 31.105C42.238 30.481 43.642 28.804 43.642 24.527V20.991H53.002V20.081H48.166V19.028H47.1V20.081H42.615V24.488ZM42.342 23.37C42.212 22.707 41.939 21.797 41.562 21.056L40.756 21.446C41.055 22.187 41.289 23.019 41.432 23.799L42.342 23.37ZM43.72 30.871C44.591 30.546 45.397 30.117 46.502 29.038L45.748 28.414C44.825 29.298 44.188 29.649 43.148 30L43.72 30.871ZM49.817 29.051C50.519 29.844 51.624 30.533 52.625 30.884L53.197 30C51.988 29.571 51.442 29.259 50.506 28.362L49.817 29.051ZM64.776 22.538C62.761 22.863 61.695 23.071 60.291 23.5C60.018 22.941 59.953 22.252 59.953 20.874C59.953 20.237 59.966 19.873 59.979 19.522H58.705C58.744 22.291 58.77 23.045 59.199 23.89C58.289 24.28 55.611 25.398 55.611 27.621C55.611 30.39 59.212 30.39 61.461 30.39C63.333 30.39 64.477 30.312 65.322 30.26L65.296 29.038C64.555 29.116 63.346 29.233 61.201 29.233C58.406 29.233 56.82 29.09 56.82 27.582C56.82 24.696 63.84 23.903 64.893 23.786L64.776 22.538ZM74.275 30.403C75.718 30.26 77.018 29.818 77.863 29.116C79.046 28.128 79.605 26.594 79.605 25.047C79.605 22.85 78.474 19.938 74.262 19.938C70.83 19.938 68.256 22.2 68.256 25.736C68.256 27.881 69.322 29.389 70.596 29.389C71.181 29.389 72.013 29.09 72.78 27.881C74.119 25.736 74.379 22.538 74.496 21.03C78.071 21.147 78.383 24.007 78.383 25.034C78.383 28.752 75.224 29.129 73.885 29.272L74.275 30.403ZM73.339 21.082C73.209 22.577 73.001 25.216 71.909 27.088C71.571 27.66 71.181 28.141 70.635 28.141C69.712 28.141 69.387 26.646 69.387 25.762C69.387 24.254 69.985 22.798 71.194 21.914C71.857 21.42 72.572 21.225 73.339 21.082ZM82.331 19.99V24.761H86.881V29.831H82.981V25.762H81.889V30.832H92.978V25.762H91.873V29.831H87.973V24.761H92.549V19.99H91.444V23.76H87.973V19.028H86.881V23.76H83.436V19.99H82.331ZM102.373 27.27C103.387 28.297 104.037 29.116 104.167 29.285C103.205 29.376 101.866 29.493 100.28 29.558C100.007 29.571 98.551 29.61 98.226 29.623C99.071 28.128 99.591 26.997 99.903 26.282H106.689V25.281H95.08V26.282H98.642C98.356 27.036 97.862 28.245 97.043 29.649H95.249L95.366 30.715C97.368 30.715 102.672 30.481 104.843 30.169C105.116 30.572 105.272 30.819 105.48 31.17L106.416 30.546C105.415 28.96 104.622 28.05 103.231 26.685L102.373 27.27ZM104.375 22.889C105.298 23.513 106.026 23.851 106.598 24.111L107.17 23.071C104.908 22.265 102.841 20.692 101.489 18.885H100.332C99.981 19.405 98.525 21.511 94.651 23.032L95.184 24.085C95.626 23.903 96.341 23.591 97.498 22.876V23.604H104.375V22.889ZM97.901 22.616C98.993 21.862 100.098 20.952 100.917 19.808C101.372 20.38 102.126 21.316 103.959 22.616H97.901ZM109.389 20.133C109.311 21.017 109.181 22.434 109.181 23.851C109.181 27.231 109.766 30.143 111.872 30.143C112.535 30.143 113.016 29.831 113.328 29.519C114.056 28.791 114.654 27.699 115.083 26.49L114.121 25.944C113.224 28.284 112.548 28.817 111.963 28.817C110.507 28.817 110.351 25.97 110.351 23.955C110.351 22.2 110.52 21.017 110.624 20.237L109.389 20.133ZM119.867 28.856C120.049 23.656 118.71 21.823 117.163 20.523L116.266 21.212C117.618 22.317 118.632 24.189 118.632 27.582C118.632 28.18 118.606 28.57 118.58 28.908L119.867 28.856ZM124.231 19.067V30.208H121.735V31.248H125.271V19.067H124.231ZM141.725 30.403C143.168 30.26 144.468 29.818 145.313 29.116C146.496 28.128 147.055 26.594 147.055 25.047C147.055 22.85 145.924 19.938 141.712 19.938C138.28 19.938 135.706 22.2 135.706 25.736C135.706 27.881 136.772 29.389 138.046 29.389C138.631 29.389 139.463 29.09 140.23 27.881C141.569 25.736 141.829 22.538 141.946 21.03C145.521 21.147 145.833 24.007 145.833 25.034C145.833 28.752 142.674 29.129 141.335 29.272L141.725 30.403ZM140.789 21.082C140.659 22.577 140.451 25.216 139.359 27.088C139.021 27.66 138.631 28.141 138.085 28.141C137.162 28.141 136.837 26.646 136.837 25.762C136.837 24.254 137.435 22.798 138.644 21.914C139.307 21.42 140.022 21.225 140.789 21.082ZM152.914 24.41C153.239 24.241 153.629 24.046 154.266 23.565V25.073H159.31V23.617C159.765 23.968 160.168 24.202 160.753 24.462L161.169 23.617C159.752 22.98 159.258 22.551 158.621 21.641H160.883V20.835H156.528C156.58 20.731 156.671 20.562 156.879 20.068C157.477 20.029 159.167 19.899 160.142 19.704L159.7 18.924C158.621 19.145 156.879 19.418 153.083 19.405L153.291 20.185C153.785 20.185 154.253 20.185 155.839 20.12C155.774 20.25 155.696 20.419 155.475 20.835H152.771V21.641H154.955C154.071 22.824 152.927 23.357 152.433 23.591L152.914 24.41ZM157.594 21.641C157.763 21.927 157.958 22.252 158.335 22.707H155.215C155.553 22.343 155.774 22.083 156.06 21.641H157.594ZM158.478 24.358H155.085V23.422H158.478V24.358ZM160.532 25.71H153.031V31.092H154.006V26.503H159.531V29.662C159.531 30.13 159.492 30.208 159.05 30.195L158.205 30.182L158.387 31.092H159.44C160.025 31.092 160.532 31.027 160.532 30.195V25.71ZM157.919 29.129H155.644V27.946H157.919V29.129ZM152.927 25.398C152.095 24.41 151.718 23.565 151.536 23.097V22.551H152.706V21.563H151.536V19.028H150.535V21.563H148.884V22.551H150.496C150.158 24.267 149.339 25.788 148.715 26.659L149.183 27.907C149.508 27.426 150.028 26.62 150.535 24.982V31.092H151.536V24.696C151.744 25.216 151.796 25.346 152.355 26.204L152.927 25.398ZM158.79 27.218H154.76V29.883H158.79V27.218ZM165.819 20.003V24.852C165.819 28.141 164.753 29.571 164.259 30.234L165.104 31.053C165.39 30.637 166.144 29.558 166.508 27.92C166.703 27.023 166.859 25.762 166.859 24.865V23.097H168.354V25.138H172.54V23.097H174.282V22.2H172.54V21.29H171.578V22.2H169.316V21.29H168.354V22.2H166.859V20.965H174.386V20.003H170.642V19.028H169.589V20.003H165.819ZM162.738 19.99C163.232 20.224 164.22 20.783 164.714 21.303L165.377 20.341C164.467 19.678 163.895 19.379 163.336 19.145L162.738 19.99ZM171.578 23.097V24.293H169.316V23.097H171.578ZM174.542 30.078C174.022 29.987 172.943 29.779 171.552 29.207C172.878 28.245 173.372 27.244 173.593 26.789V25.892H167.236V26.815H172.462C172.202 27.218 171.695 27.985 170.499 28.687C169.355 27.998 168.861 27.374 168.601 27.062L167.756 27.517C168.003 27.842 168.484 28.44 169.498 29.181C167.977 29.818 166.846 29.987 166.222 30.078L166.69 31.118C168.289 30.767 169.446 30.377 170.512 29.818C172.124 30.702 173.437 30.962 174.113 31.092L174.542 30.078ZM162.153 23.435C162.855 23.773 163.57 24.228 164.168 24.748L164.818 23.851C164.376 23.487 163.518 22.902 162.751 22.564L162.153 23.435ZM163.986 25.944C163.713 26.945 163.089 28.635 162.114 30.078L162.933 30.988C164.207 28.973 164.714 27.114 164.87 26.477L163.986 25.944ZM178.165 19.626C178.152 20.51 178.074 24.826 178.074 25.801C178.074 28.063 178.308 30.442 181.87 30.442C185.822 30.442 186.667 27.764 187.083 25.411L185.991 25.008C185.627 26.984 185.198 29.324 181.831 29.324C179.387 29.324 179.309 27.582 179.309 25.918C179.309 24.683 179.361 23.136 179.478 19.626H178.165ZM190.953 19.743C190.537 21.693 190.407 23.773 190.407 25.918C190.407 28.401 190.628 29.701 190.745 30.455L192.006 30.351C191.902 29.883 191.603 28.635 191.603 25.736C191.603 22.46 191.993 20.757 192.188 19.847L190.953 19.743ZM194.164 20.796V21.94H200.274V20.796H194.164ZM194.45 25.099C193.995 25.866 193.761 26.607 193.761 27.283C193.761 29.519 196.166 29.701 198.09 29.701C199.195 29.701 200.105 29.623 200.547 29.584V28.362C199.351 28.492 198.285 28.518 197.57 28.518C196.179 28.518 194.853 28.362 194.853 27.179C194.853 27.062 194.866 26.321 195.503 25.424L194.45 25.099ZM209.513 22.811H213.907V21.641L209.513 21.68L209.5 19.522H208.278L208.33 25.645C208.005 25.606 207.758 25.567 207.329 25.567C205.47 25.567 203.637 26.334 203.637 28.115C203.637 29.389 204.599 30.455 206.744 30.455C209.448 30.455 209.539 28.791 209.526 28.024L209.513 27.127C211.099 27.738 212.607 28.908 213.4 29.792L214.245 28.674C213.608 28.011 212.087 26.763 209.526 25.892L209.513 22.811ZM208.343 27.946C208.343 28.479 208.213 29.376 206.731 29.376C206.445 29.376 204.794 29.376 204.794 28.128C204.794 27.075 206.029 26.633 207.147 26.633C207.693 26.633 208.083 26.711 208.356 26.763L208.343 27.946ZM220.858 30.039C221.898 30.026 223.016 29.935 224.03 29.61C226.513 28.83 226.799 26.789 226.799 26.009C226.799 24.189 225.525 22.811 223.302 22.811C222.613 22.811 221.703 22.941 220.897 23.071C220.455 23.149 218.297 23.539 217.803 23.617L217.998 24.761C220 24.254 222.21 23.825 223.25 23.825C224.524 23.825 225.655 24.475 225.655 26.048C225.655 29.064 221.651 29.038 220.572 29.025L220.858 30.039ZM241.147 20.224C237.949 20.25 236.753 20.276 233.841 20.432C233.178 20.471 231.098 20.562 230.318 20.588L230.422 21.862C231.839 21.693 236.337 21.42 236.714 21.407C235.18 22.304 232.905 24.007 232.905 26.477C232.905 30.117 237.221 30.299 239.782 30.403L240.016 29.142C238.898 29.181 237.65 29.103 236.74 28.908C235.362 28.622 234.114 28.089 234.114 26.399C234.114 24.163 236.662 22.148 238.534 21.524C238.924 21.394 239.197 21.368 239.847 21.368C240.354 21.368 240.731 21.381 241.173 21.42L241.147 20.224ZM247.019 29.883C246.473 29.142 245.55 28.05 244.705 27.27L243.717 27.998C244.146 28.453 244.952 29.298 245.875 30.689L247.019 29.883ZM263.031 30.637C265.8 29.649 266.463 27.478 266.775 26.204C267.425 26.49 267.646 26.607 268.231 26.958L268.621 25.788C267.815 25.346 267.061 25.06 267.022 25.047C267.217 24.007 267.321 22.876 267.412 21.94L266.177 21.849C266.151 22.447 266.086 23.37 265.891 24.644C264.708 24.254 263.85 24.046 262.758 23.955C263.187 21.394 263.226 21.108 263.395 19.808H258.013V20.939L262.082 20.9C262.004 21.823 261.835 22.98 261.653 23.916C257.402 24.085 257.168 26.88 257.168 27.517C257.168 28.908 258.078 29.74 259.326 29.74C261.289 29.74 261.861 27.881 262.563 24.982C263.733 25.086 264.838 25.424 265.683 25.749C265.228 27.634 264.552 28.934 262.316 29.74L263.031 30.637ZM261.458 24.917C260.769 27.738 260.418 28.713 259.248 28.713C258.26 28.713 258.195 27.699 258.195 27.452C258.195 26.568 258.728 25.723 259.573 25.307C260.145 25.021 260.691 24.943 261.458 24.917ZM279.277 23.162H278.107L278.185 25.944C277.899 25.879 277.483 25.788 276.833 25.788C274.532 25.788 273.778 27.231 273.778 28.206C273.778 29.415 274.74 30.494 276.69 30.494C277.977 30.494 279.29 30.026 279.29 28.102V27.569C279.758 27.842 280.551 28.323 281.396 29.337L282.111 28.31C281.474 27.608 280.434 26.802 279.342 26.321L279.277 23.162ZM278.211 27.894C278.211 28.778 278.016 29.48 276.729 29.48C276.482 29.48 274.883 29.48 274.883 28.167C274.883 27.439 275.507 26.776 276.833 26.776C277.522 26.776 277.912 26.919 278.211 27.023V27.894ZM274.35 21.16C274.519 20.211 274.532 20.133 274.636 19.509L273.401 19.457C273.349 19.977 273.31 20.263 273.167 21.16H270.762V22.252H272.959C272.621 23.708 272.049 26.256 270.658 28.492L271.854 29.012C272.322 28.05 273.388 25.879 274.129 22.252H277.08V21.16H274.35ZM281.89 22.174C280.512 21.407 279.641 21.017 278.341 20.562L277.886 21.524C279.056 21.953 280.031 22.421 281.344 23.214L281.89 22.174ZM293.508 26.1C292.728 25.268 291.974 24.007 291.428 22.694C292.572 22.642 293.69 22.59 295.107 22.291L294.899 21.173C293.599 21.446 292.377 21.602 291.051 21.641C290.882 21.121 290.7 20.276 290.583 19.483L289.348 19.574C289.4 19.886 289.595 20.835 289.855 21.68C289.53 21.693 288.828 21.706 288.282 21.693L284.486 21.628V22.759H288.23C288.425 22.759 289.426 22.746 290.219 22.733C290.921 24.514 291.74 25.918 292.507 26.776L293.508 26.1ZM286.956 25.034C285.63 25.684 285.071 26.62 285.071 27.569C285.071 28.219 285.318 28.856 285.838 29.324C286.748 30.143 288.035 30.403 290.31 30.403C292.091 30.403 293.235 30.299 293.703 30.247L293.69 29.09C292.884 29.194 291.896 29.311 290.206 29.311C288.347 29.311 286.241 29.142 286.241 27.556C286.241 27.309 286.306 26.503 287.58 25.879L286.956 25.034ZM301.187 19.444C300.875 20.289 300.121 22.369 299.926 22.915C299.627 23.76 299.406 24.384 297.56 30.026L298.782 30.403C299.133 29.09 299.341 28.31 299.796 27.101C300.615 25.424 301.681 25.151 302.201 25.151C303.124 25.151 303.358 25.918 303.358 26.88V27.608C303.358 28.622 303.371 30.455 305.581 30.455C308.558 30.455 308.87 26.971 308.948 25.255L307.817 24.995C307.817 25.749 307.752 26.724 307.388 27.777C306.959 29.012 306.296 29.311 305.659 29.311C304.606 29.311 304.502 28.596 304.502 27.66V26.789C304.502 25.892 304.398 24.046 302.396 24.046C301.681 24.046 301.174 24.293 300.472 24.865C300.823 23.851 301.603 21.719 302.474 19.795L301.187 19.444ZM317.095 30.403C318.538 30.26 319.838 29.818 320.683 29.116C321.866 28.128 322.425 26.594 322.425 25.047C322.425 22.85 321.294 19.938 317.082 19.938C313.65 19.938 311.076 22.2 311.076 25.736C311.076 27.881 312.142 29.389 313.416 29.389C314.001 29.389 314.833 29.09 315.6 27.881C316.939 25.736 317.199 22.538 317.316 21.03C320.891 21.147 321.203 24.007 321.203 25.034C321.203 28.752 318.044 29.129 316.705 29.272L317.095 30.403ZM316.159 21.082C316.029 22.577 315.821 25.216 314.729 27.088C314.391 27.66 314.001 28.141 313.455 28.141C312.532 28.141 312.207 26.646 312.207 25.762C312.207 24.254 312.805 22.798 314.014 21.914C314.677 21.42 315.392 21.225 316.159 21.082ZM332.197 19.028V19.873H330.507V20.731H332.197V21.745H329.818V22.59H332.197V23.63H330.507V24.462H332.197V25.398H330.325V26.243H332.197V27.218H329.974V28.089H332.197V29.246H333.133V28.089H336.227V27.218H333.133V26.243H335.811V25.398H333.133V24.462H335.642V22.59H336.266V21.745H335.642V19.873H333.133V19.028H332.197ZM334.68 21.745H333.133V20.731H334.68V21.745ZM334.68 23.63H333.133V22.59H334.68V23.63ZM332.821 29.714C330.286 29.714 329.129 28.57 329.051 28.479C329.194 28.102 329.792 26.373 329.844 23.552H328.18C328.752 22.551 329.376 21.472 329.818 20.497V19.522H327.218V20.458H328.765C328.453 21.212 327.608 22.811 327.088 23.539V24.488H328.895C328.869 25.45 328.778 26.464 328.414 27.556C327.985 26.659 327.868 25.827 327.79 25.294L326.906 25.424C326.984 25.905 327.205 27.426 327.959 28.583C327.452 29.415 327.01 29.753 326.646 30.039L327.231 31.001C327.608 30.65 328.076 30.221 328.596 29.376C328.96 29.727 330.247 30.728 332.743 30.728H336.214L336.383 29.714H332.821ZM326.347 22.148C326.802 20.9 326.984 19.925 327.114 19.171L326.074 19.002C325.814 20.848 325.125 23.097 324.02 24.436L324.527 25.502C324.8 25.216 325.008 24.995 325.346 24.384V31.066H326.347V22.148ZM11.219 44.347C10.556 45.166 9.516 45.972 9.36 46.089C8.489 45.439 8.021 44.828 7.696 44.373V44.256H11.505V42.462H12.532V41.604H11.505V39.875H7.696V39.264H6.682V39.875H3.029V40.72H6.682V41.604H2.457V38.939H12.454V37.977H7.176V37.028H6.097V37.977H1.404V43.385C1.404 44.685 1.3 45.114 1.157 45.868C0.923 47.09 0.533 47.805 0.312 48.182L1.196 49.105C2.34 46.947 2.457 44.438 2.457 43.476V42.462H6.682V43.424H3.029V44.256H6.682V47.74C6.682 47.909 6.656 48.039 6.357 48.039L4.966 48.026L5.174 49.092H6.747C7.41 49.092 7.696 48.702 7.696 48.13V45.712C8.944 47.259 10.647 48.221 12.038 48.741L12.649 47.74C12.181 47.571 11.297 47.259 10.205 46.635C11.076 45.998 11.505 45.608 12.09 44.984L11.219 44.347ZM10.478 40.72V41.604H7.696V40.72H10.478ZM10.478 42.462V43.424H7.696V42.462H10.478ZM3.042 45.114C3.887 45.504 4.29 45.764 4.862 46.297L5.551 45.504C4.888 44.984 4.459 44.75 3.627 44.36L3.042 45.114ZM6.071 46.037C5.629 46.245 3.679 47.142 2.184 47.61L2.587 48.546C5.356 47.389 5.668 47.259 6.24 46.947L6.071 46.037ZM19.99 41.721C19.262 41.721 18.651 42.306 18.651 43.06C18.651 43.788 19.236 44.399 19.99 44.399C20.744 44.399 21.329 43.775 21.329 43.06C21.329 42.332 20.731 41.721 19.99 41.721ZM38.862 48.078C38.108 47.636 36.834 46.908 35.183 46.219C35.69 45.699 36.548 44.724 37.172 42.735H39.473V41.708H32.427C32.895 40.759 33.064 40.33 33.207 39.979L32.011 39.758C31.855 40.213 31.634 40.824 31.179 41.708H27.487V42.735H30.62C29.905 43.97 29.268 44.724 28.878 45.179C30.906 45.738 32.063 46.128 33.116 46.544C31.491 47.441 29.541 47.766 27.799 47.922L28.176 49.066C31.556 48.715 33.558 47.532 34.273 47.012C36.405 47.935 37.562 48.702 38.147 49.092L38.862 48.078ZM36.028 42.735C35.885 43.164 35.391 44.659 34.143 45.803C32.843 45.309 31.543 44.932 30.607 44.659C30.867 44.321 31.244 43.827 31.868 42.735H36.028ZM27.799 38.198V41.032H28.904V39.199H38.069V41.032H39.174V38.198H34.013V37.028H32.895V38.198H27.799ZM50.805 41.331C51.611 41.838 52.196 42.098 52.651 42.306L53.197 41.24C50.805 40.369 48.881 38.809 47.568 37.041H46.385C44.942 39.056 42.81 40.46 40.743 41.253L41.289 42.319C41.757 42.098 42.303 41.851 43.187 41.318V42.306H46.424V44.282H42.29V45.257H46.424V47.714H41.016V48.754H52.924V47.714H47.529V45.257H51.689V44.282H47.529V42.306H50.805V41.331ZM43.2 41.305C44.643 40.434 45.917 39.29 46.97 37.964C48.361 39.693 49.96 40.785 50.766 41.305H43.2ZM59.563 38.757C59.745 38.107 59.81 37.808 59.888 37.353L58.64 37.301C58.549 38.042 58.458 38.419 58.367 38.757H55.377V39.797H58.055C57.223 42.228 56.183 43.606 55.039 44.685L55.845 45.556C56.261 45.127 57.119 43.983 57.717 43.164C58.627 42.241 59.576 41.838 60.291 41.838C60.889 41.838 61.253 42.098 61.396 42.865C60.109 43.437 57.782 44.607 57.782 46.375C57.782 48.468 60.72 48.468 62.189 48.468C63.424 48.468 64.555 48.39 65.296 48.338L65.257 47.22C64.087 47.35 62.865 47.402 61.825 47.402C60.395 47.402 58.952 47.402 58.952 46.258C58.952 45.192 60.525 44.36 61.526 43.892C61.552 44.23 61.552 44.451 61.552 44.672C61.552 45.14 61.513 45.621 61.487 45.92H62.618C62.657 45.504 62.657 45.114 62.657 44.932C62.657 44.464 62.644 43.905 62.605 43.45C64.035 42.904 64.958 42.618 66.011 42.319L65.699 41.188C64.529 41.591 62.748 42.306 62.449 42.423C62.189 41.188 61.357 40.902 60.473 40.902C59.823 40.902 59.303 41.123 58.393 41.669C58.77 41.019 58.952 40.59 59.251 39.797H64.984V38.757H59.563ZM77.434 40.005V37.535H76.264V40.005H71.727V37.587H70.544V40.005H68.347V41.123H70.544V44.62H71.727V41.123H76.264V42.722C76.264 45.582 74.561 47.077 70.882 47.428L71.311 48.559C73.261 48.325 77.434 47.558 77.434 42.774V41.123H79.683V40.005H77.434ZM88.012 39.771V37.6H86.816V39.771H82.318V40.876H86.816V48.598H88.012V40.876H92.523V40.408C93.303 40.187 93.836 39.485 93.836 38.679C93.836 37.678 93.03 36.872 92.029 36.872C91.041 36.872 90.222 37.678 90.222 38.666C90.222 39.082 90.352 39.459 90.599 39.771H88.012ZM92.029 37.678C92.575 37.678 93.03 38.12 93.03 38.679C93.03 39.225 92.588 39.68 92.029 39.68C91.483 39.68 91.028 39.225 91.028 38.679C91.028 38.12 91.483 37.678 92.029 37.678ZM82.968 47.818C84.528 46.076 84.931 43.957 85.113 42.241L84.008 42.124C83.865 43.723 83.397 45.582 82.019 46.96L82.968 47.818ZM89.767 42.241C90.209 44.906 90.716 46.336 91.886 47.766L92.861 47.012C91.795 45.725 91.249 44.373 90.859 42.111L89.767 42.241ZM95.34 42.436V43.671H106.52V42.436H95.34ZM119.542 43.593C117.67 42.579 115.655 41.578 113.198 40.798V37.47H111.937V48.585H113.198V42.02C115.915 42.956 118.047 44.256 118.931 44.802L119.542 43.593ZM124.205 37.626C124.192 38.51 124.114 42.826 124.114 43.801C124.114 46.063 124.348 48.442 127.91 48.442C131.862 48.442 132.707 45.764 133.123 43.411L132.031 43.008C131.667 44.984 131.238 47.324 127.871 47.324C125.427 47.324 125.349 45.582 125.349 43.918C125.349 42.683 125.401 41.136 125.518 37.626H124.205ZM139.099 47.883C138.553 47.142 137.63 46.05 136.785 45.27L135.797 45.998C136.226 46.453 137.032 47.298 137.955 48.689L139.099 47.883ZM155.878 42.8C155.969 42.241 156.008 41.812 156.008 41.058H159.583V40.109H153.655C153.837 39.758 153.941 39.537 154.149 39.017L153.109 38.796C152.706 40.057 151.939 41.006 151.016 41.747L151.835 42.449C152.342 41.994 152.641 41.669 153.083 41.058H154.994C154.994 41.994 154.929 42.397 154.864 42.8H151.081V43.762H154.552C153.629 45.673 151.562 46.18 150.912 46.336L151.536 47.285C153.018 46.791 154.682 45.946 155.54 43.97C155.865 44.711 156.905 46.362 159.843 47.272L160.415 46.271C158.309 45.803 156.931 44.594 156.489 43.762H160.129V42.8H155.878ZM149.3 37.457V48.819H160.844V47.831H150.405V38.458H160.571V37.457H149.3ZM173.034 43.346C173.437 43.593 173.684 43.71 174.035 43.879L174.529 43.008C174.165 42.878 173.814 42.748 173.229 42.423C173.255 42.384 173.71 41.942 174.113 41.422L173.385 40.98C173.242 41.175 172.93 41.565 172.553 41.968C171.929 41.487 171.604 41.058 171.344 40.733H174.373V39.914H169.641C169.732 39.732 169.784 39.602 169.914 39.277L168.887 39.16C168.783 39.459 168.718 39.628 168.588 39.914H165.468V40.733H168.094C167.73 41.214 167.405 41.552 167.002 41.877C166.885 41.747 166.521 41.344 166.105 41.032L165.507 41.578C165.871 41.864 165.91 41.903 166.339 42.358C165.897 42.657 165.559 42.826 165.104 43.047L165.676 43.827C165.962 43.658 166.053 43.606 166.326 43.437V46.141H169.121V47.818C169.121 48.078 169.082 48.13 168.822 48.13H167.587L167.808 49.066H169.212C169.615 49.066 170.174 49.04 170.174 48.234V46.141H173.034V43.346ZM172.085 43.853H167.275V43.073H172.085V43.853ZM167.808 42.319C168.653 41.552 169.017 40.98 169.173 40.733H170.278C170.564 41.149 170.889 41.643 171.643 42.319H167.808ZM172.085 45.387H167.275V44.568H172.085V45.387ZM164.025 42.488C164.025 42.852 164.012 43.099 164.012 43.307C163.362 43.632 163.063 43.775 162.166 44.126L162.387 45.192C162.777 44.997 163.271 44.75 163.921 44.321C163.635 46.739 162.92 47.675 162.335 48.403L163.128 49.105C163.648 48.481 165.052 46.804 165.052 42.527V38.991H174.412V38.081H169.576V37.028H168.51V38.081H164.025V42.488ZM163.752 41.37C163.622 40.707 163.349 39.797 162.972 39.056L162.166 39.446C162.465 40.187 162.699 41.019 162.842 41.799L163.752 41.37ZM165.13 48.871C166.001 48.546 166.807 48.117 167.912 47.038L167.158 46.414C166.235 47.298 165.598 47.649 164.558 48L165.13 48.871ZM171.227 47.051C171.929 47.844 173.034 48.533 174.035 48.884L174.607 48C173.398 47.571 172.852 47.259 171.916 46.362L171.227 47.051ZM177.463 37.743C177.047 39.693 176.917 41.773 176.917 43.918C176.917 46.401 177.138 47.701 177.255 48.455L178.516 48.351C178.412 47.883 178.113 46.635 178.113 43.736C178.113 40.46 178.503 38.757 178.698 37.847L177.463 37.743ZM180.674 38.796V39.94H186.784V38.796H180.674ZM180.96 43.099C180.505 43.866 180.271 44.607 180.271 45.283C180.271 47.519 182.676 47.701 184.6 47.701C185.705 47.701 186.615 47.623 187.057 47.584V46.362C185.861 46.492 184.795 46.518 184.08 46.518C182.689 46.518 181.363 46.362 181.363 45.179C181.363 45.062 181.376 44.321 182.013 43.424L180.96 43.099ZM193.657 47.701C195.23 47.688 196.686 47.506 197.791 47.051C200.56 45.933 200.885 43.736 200.885 42.735C200.885 40.785 199.65 38.835 196.608 38.835C195.529 38.835 194.281 39.043 193.046 39.264C192.513 39.355 189.991 39.797 189.692 39.836L189.978 41.149C192.175 40.603 194.97 39.979 196.53 39.979C199.065 39.979 199.637 41.526 199.637 42.748C199.637 44.035 198.961 44.971 198.259 45.478C196.985 46.388 195.49 46.57 193.345 46.583L193.657 47.701ZM203.819 38.133C203.741 39.017 203.611 40.434 203.611 41.851C203.611 45.231 204.196 48.143 206.302 48.143C206.965 48.143 207.446 47.831 207.758 47.519C208.486 46.791 209.084 45.699 209.513 44.49L208.551 43.944C207.654 46.284 206.978 46.817 206.393 46.817C204.937 46.817 204.781 43.97 204.781 41.955C204.781 40.2 204.95 39.017 205.054 38.237L203.819 38.133ZM214.297 46.856C214.479 41.656 213.14 39.823 211.593 38.523L210.696 39.212C212.048 40.317 213.062 42.189 213.062 45.582C213.062 46.18 213.036 46.57 213.01 46.908L214.297 46.856ZM227.657 38.224C224.459 38.25 223.263 38.276 220.351 38.432C219.688 38.471 217.608 38.562 216.828 38.588L216.932 39.862C218.349 39.693 222.847 39.42 223.224 39.407C221.69 40.304 219.415 42.007 219.415 44.477C219.415 48.117 223.731 48.299 226.292 48.403L226.526 47.142C225.408 47.181 224.16 47.103 223.25 46.908C221.872 46.622 220.624 46.089 220.624 44.399C220.624 42.163 223.172 40.148 225.044 39.524C225.434 39.394 225.707 39.368 226.357 39.368C226.864 39.368 227.241 39.381 227.683 39.42L227.657 38.224ZM236.155 48.403C237.598 48.26 238.898 47.818 239.743 47.116C240.926 46.128 241.485 44.594 241.485 43.047C241.485 40.85 240.354 37.938 236.142 37.938C232.71 37.938 230.136 40.2 230.136 43.736C230.136 45.881 231.202 47.389 232.476 47.389C233.061 47.389 233.893 47.09 234.66 45.881C235.999 43.736 236.259 40.538 236.376 39.03C239.951 39.147 240.263 42.007 240.263 43.034C240.263 46.752 237.104 47.129 235.765 47.272L236.155 48.403ZM235.219 39.082C235.089 40.577 234.881 43.216 233.789 45.088C233.451 45.66 233.061 46.141 232.515 46.141C231.592 46.141 231.267 44.646 231.267 43.762C231.267 42.254 231.865 40.798 233.074 39.914C233.737 39.42 234.452 39.225 235.219 39.082ZM249.554 40.135C249.788 39.758 250.048 39.329 250.425 38.549H255.313V37.483H243.301V38.549H249.268C248.28 40.655 246.356 42.891 243.158 44.36L243.808 45.387C244.731 44.919 246.694 43.866 248.709 41.318V49.092H249.84V40.135H249.554ZM255.495 44.412C253.519 43.203 252.193 41.838 251.088 40.46L250.295 41.084C251.881 43.086 252.739 43.957 254.715 45.387L255.495 44.412ZM268.192 48.078C267.438 47.636 266.164 46.908 264.513 46.219C265.02 45.699 265.878 44.724 266.502 42.735H268.803V41.708H261.757C262.225 40.759 262.394 40.33 262.537 39.979L261.341 39.758C261.185 40.213 260.964 40.824 260.509 41.708H256.817V42.735H259.95C259.235 43.97 258.598 44.724 258.208 45.179C260.236 45.738 261.393 46.128 262.446 46.544C260.821 47.441 258.871 47.766 257.129 47.922L257.506 49.066C260.886 48.715 262.888 47.532 263.603 47.012C265.735 47.935 266.892 48.702 267.477 49.092L268.192 48.078ZM265.358 42.735C265.215 43.164 264.721 44.659 263.473 45.803C262.173 45.309 260.873 44.932 259.937 44.659C260.197 44.321 260.574 43.827 261.198 42.735H265.358ZM257.129 38.198V41.032H258.234V39.199H267.399V41.032H268.504V38.198H263.343V37.028H262.225V38.198H257.129ZM276.3 41.721C275.572 41.721 274.961 42.306 274.961 43.06C274.961 43.788 275.546 44.399 276.3 44.399C277.054 44.399 277.639 43.775 277.639 43.06C277.639 42.332 277.041 41.721 276.3 41.721ZM284.408 43.476C284.694 42.41 284.811 40.72 284.824 39.823L283.992 39.745C283.992 40.395 283.914 41.89 283.55 43.06L284.408 43.476ZM285.357 37.028V49.092H286.41V37.028H285.357ZM287.996 41.37C287.931 41.149 287.645 40.148 287.32 39.407L286.54 39.719C286.813 40.395 287.021 41.162 287.125 41.708L287.996 41.37ZM295.419 41.604H294.392V47.883H288.88V41.604H287.853V48.819H295.419V41.604ZM292.676 41.227C292.377 42.215 292.104 42.748 291.766 43.385C291.116 42.722 290.726 42.358 290.141 41.916L289.465 42.579C290.245 43.216 290.674 43.645 291.246 44.243C290.661 45.114 290.154 45.751 289.231 46.492L289.946 47.233C291.09 46.245 291.545 45.621 291.948 45.036C292.351 45.491 292.663 45.881 293.235 46.739L294.002 46.05C293.638 45.491 293.313 45.036 292.507 44.165C292.884 43.502 293.222 42.865 293.599 41.63L292.676 41.227ZM292.312 39.706C292 38.497 291.428 37.366 291.272 37.054L290.31 37.327C290.388 37.483 291.051 38.861 291.311 40.018L292.312 39.706ZM294.223 40.85C294.86 39.966 295.497 38.653 295.796 37.691L294.821 37.262C294.665 37.717 294.197 39.134 293.326 40.395L294.223 40.85ZM289.868 40.213C289.543 39.355 288.984 38.341 288.438 37.6L287.541 37.977C288.113 38.796 288.607 39.81 288.906 40.577L289.868 40.213ZM303.501 48.637C306.27 47.649 306.933 45.478 307.245 44.204C307.895 44.49 308.116 44.607 308.701 44.958L309.091 43.788C308.285 43.346 307.531 43.06 307.492 43.047C307.687 42.007 307.791 40.876 307.882 39.94L306.647 39.849C306.621 40.447 306.556 41.37 306.361 42.644C305.178 42.254 304.32 42.046 303.228 41.955C303.657 39.394 303.696 39.108 303.865 37.808H298.483V38.939L302.552 38.9C302.474 39.823 302.305 40.98 302.123 41.916C297.872 42.085 297.638 44.88 297.638 45.517C297.638 46.908 298.548 47.74 299.796 47.74C301.759 47.74 302.331 45.881 303.033 42.982C304.203 43.086 305.308 43.424 306.153 43.749C305.698 45.634 305.022 46.934 302.786 47.74L303.501 48.637ZM301.928 42.917C301.239 45.738 300.888 46.713 299.718 46.713C298.73 46.713 298.665 45.699 298.665 45.452C298.665 44.568 299.198 43.723 300.043 43.307C300.615 43.021 301.161 42.943 301.928 42.917ZM316.77 41.721C316.042 41.721 315.431 42.306 315.431 43.06C315.431 43.788 316.016 44.399 316.77 44.399C317.524 44.399 318.109 43.775 318.109 43.06C318.109 42.332 317.511 41.721 316.77 41.721ZM324.215 38.146V39.16H327.114V40.486H328.167V39.16H332.327V40.486H333.367V39.16H336.305V38.146H333.367V37.015H332.327V38.146H328.167V37.015H327.114V38.146H324.215ZM336.305 41.318H330.767V39.888H329.688V41.318H324.215V42.319H329.688V43.996H325.528V48.845H334.966V43.996H330.767V42.319H336.305V41.318ZM333.887 47.896H326.607V44.958H333.887V47.896ZM346.285 42.319C346.194 42.254 346.077 42.163 345.999 42.111C346.298 41.968 347.637 41.344 348.807 40.395V39.706H341.319V40.486H347.052C346.35 41.006 345.986 41.214 345.206 41.604C345.011 41.474 344.309 41.058 343.594 40.733L342.97 41.435C343.828 41.786 344.309 42.033 344.699 42.319H341.553V49.105H342.567V46.947H344.855V49.066H345.856V46.947H348.287V47.766C348.287 48 348.17 48.039 347.988 48.039H346.909L347.104 49.105H348.391C349.288 49.105 349.288 48.455 349.288 48.065V42.319H346.285ZM344.855 44.204H342.567V43.151H344.855V44.204ZM344.855 46.128H342.567V45.01H344.855V46.128ZM348.287 44.204H345.856V43.151H348.287V44.204ZM348.287 46.128H345.856V45.01H348.287V46.128ZM339.733 42.631C339.733 42.93 339.72 43.112 339.707 43.294C339.59 43.372 338.641 43.892 337.614 44.282L337.874 45.348C338.329 45.114 338.771 44.893 339.629 44.373C339.395 46.323 339.018 47.337 338.095 48.416L338.953 49.144C339.538 48.442 340.747 46.999 340.747 42.423V38.978H349.73V38.055H344.972V37.002H343.88V38.055H339.733V42.631ZM339.434 41.409C339.265 40.733 338.914 39.771 338.537 39.069L337.679 39.537C337.978 40.122 338.355 41.11 338.537 41.851L339.434 41.409ZM5.603 56.757C5.785 56.107 5.85 55.808 5.928 55.353L4.68 55.301C4.589 56.042 4.498 56.419 4.407 56.757H1.417V57.797H4.095C3.263 60.228 2.223 61.606 1.079 62.685L1.885 63.556C2.301 63.127 3.159 61.983 3.757 61.164C4.667 60.241 5.616 59.838 6.331 59.838C6.929 59.838 7.293 60.098 7.436 60.865C6.149 61.437 3.822 62.607 3.822 64.375C3.822 66.468 6.76 66.468 8.229 66.468C9.464 66.468 10.595 66.39 11.336 66.338L11.297 65.22C10.127 65.35 8.905 65.402 7.865 65.402C6.435 65.402 4.992 65.402 4.992 64.258C4.992 63.192 6.565 62.36 7.566 61.892C7.592 62.23 7.592 62.451 7.592 62.672C7.592 63.14 7.553 63.621 7.527 63.92H8.658C8.697 63.504 8.697 63.114 8.697 62.932C8.697 62.464 8.684 61.905 8.645 61.45C10.075 60.904 10.998 60.618 12.051 60.319L11.739 59.188C10.569 59.591 8.788 60.306 8.489 60.423C8.229 59.188 7.397 58.902 6.513 58.902C5.863 58.902 5.343 59.123 4.433 59.669C4.81 59.019 4.992 58.59 5.291 57.797H11.024V56.757H5.603ZM17.481 56.393C18.248 56.263 18.664 56.159 19.366 55.977L18.976 55.028C17.286 55.483 15.843 55.678 13.945 55.73L14.166 56.705C15.219 56.666 15.752 56.614 16.428 56.536V58.447H13.919V59.409H16.298C15.895 60.332 15.089 62.022 13.75 63.335L14.218 64.57C15.427 63.257 16.077 62.035 16.428 61.255V67.092H17.481V61.008C17.962 61.892 18.456 62.581 19.067 63.179L19.6 62.152C18.534 61.242 17.819 60.098 17.481 59.448V59.409H19.574V58.447H17.481V56.393ZM25.58 55.86H20.042V66.741H25.58V55.86ZM24.514 65.727H21.082V56.848H24.514V65.727ZM36.73 56.276C34.741 55.626 32.518 55.509 31.4 55.457L31.192 56.575C32.947 56.64 34.858 56.887 36.405 57.511L36.73 56.276ZM29.606 57.316C29.437 57.992 29.32 58.707 29.268 59.916C29.255 60.306 29.216 62.256 29.216 62.698L30.373 62.737C30.386 62.672 30.399 62.633 30.438 62.503C31.296 61.372 33.038 60.631 34.78 60.631C36.496 60.631 37.185 61.567 37.185 62.581C37.185 63.114 37.042 63.725 36.678 64.115C35.898 64.973 34.338 65.324 32.544 65.324C31.673 65.324 30.88 65.246 30.009 65.09L30.139 66.234C30.672 66.312 31.439 66.416 32.635 66.416C35.417 66.416 38.42 65.714 38.42 62.594C38.42 61.515 37.861 59.578 34.845 59.578C33.155 59.578 31.699 60.124 30.373 61.177C30.373 59.266 30.477 58.512 30.776 57.524L29.606 57.316ZM45.787 66.65C48.543 66.117 50.142 65.168 50.142 60.982C50.142 60.761 50.116 59.877 50.103 59.526H52.417V58.434H50.038C50.012 58.031 49.908 56.146 49.869 55.639L48.751 55.665C48.79 56.354 48.855 57.849 48.881 58.434H44.5V59.526H48.92C48.933 59.929 48.946 60.54 48.946 60.813C48.946 64.362 47.854 65.116 45.358 65.597L45.787 66.65ZM50.077 55.106C50.493 56.055 50.714 56.848 50.87 57.797L51.806 57.459C51.559 56.419 51.403 55.795 50.948 54.807L50.077 55.106ZM51.845 54.768C52.261 55.717 52.443 56.354 52.638 57.446L53.574 57.108C53.275 55.873 53.171 55.444 52.716 54.456L51.845 54.768ZM42.251 55.665C41.991 57.602 41.861 59.552 41.861 61.502C41.861 63.114 41.926 64.739 42.264 66.325L43.473 66.169C43.122 64.531 43.031 62.893 43.031 61.385C43.031 58.681 43.33 56.757 43.499 55.743L42.251 55.665ZM61.37 56.939V55.574H60.226V56.939H55.286V57.94H60.226V59.552H55.481V60.54H60.226V62.074C59.953 62.022 59.511 61.944 58.926 61.944C56.989 61.944 55.65 62.932 55.65 64.297C55.65 65.129 56.196 66.481 58.731 66.481C59.823 66.481 61.37 66.13 61.37 64.271V63.53C62.085 63.855 63.229 64.453 64.49 65.844L65.257 64.726C63.892 63.582 62.748 62.867 61.37 62.36V60.54H65.27V59.552H61.37V57.94H65.517V56.939H61.37ZM60.226 64.037C60.226 65.064 59.719 65.467 58.588 65.467C56.872 65.467 56.742 64.505 56.742 64.258C56.742 63.4 57.717 62.906 58.926 62.906C59.589 62.906 59.966 63.01 60.226 63.088V64.037ZM75.991 56.9V55.444H74.795L74.821 56.9H68.425V57.979H74.834L74.847 59.383C74.574 59.149 74.262 58.863 73.391 58.863C71.779 58.863 70.7 59.981 70.7 61.502C70.7 62.763 71.506 64.05 73.118 64.05C74.613 64.05 75.042 63.075 75.172 62.802C75.003 64.349 74.041 65.545 70.57 65.506L70.934 66.598C73.196 66.507 76.238 65.883 76.238 62.451C76.238 62.113 76.212 61.775 76.16 61.45C76.121 61.138 76.056 60.839 75.991 60.592V57.979H79.397V56.9H75.991ZM74.873 61.593C74.873 62.451 74.197 63.101 73.274 63.101C72.065 63.101 71.792 61.996 71.792 61.45C71.792 60.254 72.702 59.838 73.417 59.838C74.561 59.838 74.769 60.605 74.873 61.021V61.593ZM83.813 62.789C82.747 62.789 81.876 63.647 81.876 64.726C81.876 65.792 82.734 66.663 83.813 66.663C84.879 66.663 85.75 65.792 85.75 64.726C85.75 63.634 84.866 62.789 83.813 62.789ZM83.813 63.439C84.502 63.439 85.087 63.998 85.087 64.726C85.087 65.428 84.515 66 83.813 66C83.098 66 82.526 65.428 82.526 64.726C82.526 64.011 83.111 63.439 83.813 63.439Z" fill="black"/>
</svg>
