<svg width="352" height="155" viewBox="0 0 352 155" fill="none" xmlns="http://www.w3.org/2000/svg">
<path d="M3.456 8.41V15.358C1.818 16.096 1.566 16.222 0.378 16.618L0.792 18.094C1.242 17.896 2.214 17.446 3.33 16.78C2.844 20.254 1.386 21.82 0.774 22.468L1.998 23.476C2.826 22.486 4.896 20.074 4.896 14.584V9.76H17.388V8.41H10.692V6.826H9.216V8.41H3.456ZM2.916 12.784C2.646 11.65 2.34 10.75 1.692 9.598L0.486 10.21C0.756 10.696 1.26 11.596 1.62 13.432L2.916 12.784ZM16.992 11.65H5.598V12.964H10.656V21.73H8.118V14.674H6.624V21.73H4.284V23.08H17.298V21.73H12.114V17.608H16.416V16.294H12.114V12.964H16.992V11.65ZM36.194 22C35.078 21.298 31.964 19.318 30.83 13.108H35.978V11.668H30.758V6.826H29.21V11.668H24.728V13.108H29.156C29.084 14.062 28.886 15.016 28.634 15.952C27.842 18.922 26.51 20.722 24.296 22.144L25.142 23.494C28.328 21.244 29.516 18.508 30.182 16.096C31.064 18.688 32.324 21.514 35.33 23.422L36.194 22ZM22.46 6.826V16.006C21.11 16.996 19.544 17.86 19.022 18.148L19.472 19.75C20.21 19.39 21.794 18.4 22.46 17.824V23.494H23.954V6.826H22.46ZM21.92 12.694C21.596 11.47 21.038 10.174 20.444 9.112L19.148 9.688C19.85 11.02 20.156 11.776 20.57 13.27L21.92 12.694ZM35.114 10.102C34.826 9.634 34.106 8.41 32.864 7.114L31.73 7.87C32.612 8.806 33.476 10.156 33.872 10.858L35.114 10.102ZM44.308 23.584C45.478 23.224 48.232 22.27 49.456 19.12C49.924 20.272 51.274 22.504 54.262 23.53L54.982 22.18C53.704 21.766 51.67 20.992 50.554 18.454H54.082V13.468H50.032V11.812H52.552V11.146C53.056 11.524 53.506 11.812 54.244 12.244L55.036 10.948C51.976 9.4 50.896 7.96 50.194 6.772H48.43C47.044 8.77 45.784 9.886 43.696 10.966L44.416 12.262C44.884 12.028 45.388 11.758 46.198 11.164V11.812H48.61V13.468H44.56V18.454H48.214C47.422 21.244 44.398 22.054 43.57 22.27L44.308 23.584ZM50.032 14.71H52.696V17.212H49.924C49.996 16.726 50.032 16.258 50.032 15.124V14.71ZM48.61 15.16C48.61 16.204 48.574 16.726 48.502 17.212H45.982V14.71H48.61V15.16ZM46.9 10.57C47.944 9.616 48.88 8.41 49.312 7.87C49.744 8.428 50.68 9.634 51.814 10.57H46.9ZM44.254 15.898C42.868 14.404 42.22 13 41.968 12.352V11.668H43.534V10.3H41.968V6.808H40.546V10.3H38.026V11.668H40.438C39.502 15.484 38.386 16.924 37.72 17.788L38.35 19.57C39.376 18.166 40.096 16.564 40.546 14.872V23.512H41.968V14.512C42.4 15.592 42.814 16.258 43.516 17.248L44.254 15.898ZM67.11 12.658C66.624 13.216 65.922 14.062 63.996 15.808C63.798 15.646 63.456 15.376 62.574 14.8C62.646 14.728 63.924 13.63 64.86 12.388H71.574V14.512H73.068V11.092H65.778V9.562H73.068V8.23H65.778V6.844H64.302V8.23H57.084V9.562H64.302V11.092H57.012V14.512H58.488V12.388H62.952C62.628 12.838 62.34 13.234 61.44 14.08C60.792 13.666 60.594 13.576 60.252 13.396L59.334 14.494C61.242 15.412 62.664 16.456 62.988 16.726C62.826 16.87 62.7 16.978 62.358 17.248C61.548 17.266 57.624 17.302 56.742 17.284L56.85 18.67C57.912 18.67 63.132 18.562 64.302 18.544V23.476H65.796V18.472L70.926 18.202C71.574 18.832 71.862 19.192 72.15 19.57L73.176 18.544C72.672 17.95 71.502 16.546 69.072 14.782L68.028 15.718C68.46 16.024 68.748 16.222 69.702 17.05C66.048 17.176 65.634 17.194 64.392 17.248C66.696 15.232 67.434 14.566 68.388 13.486L67.11 12.658ZM57.57 23.296C58.524 22.828 60.576 21.784 62.232 19.84L61.062 19.03C59.478 20.848 57.156 21.874 56.634 22.108L57.57 23.296ZM67.596 19.768C68.442 20.65 69.792 21.964 72.564 23.206L73.482 21.928C71.394 21.136 70.044 20.29 68.64 18.904L67.596 19.768ZM84.548 10.534H90.218V8.968H77.204V10.534H82.838V19.786H76.232V21.388H91.19V19.786H84.548V10.534ZM101.824 11.164C101.356 10.876 99.376 9.598 96.19 8.644L95.38 10.084C97.972 10.894 99.862 11.956 100.924 12.676L101.824 11.164ZM96.082 22.288C106.45 21.604 109.33 13.198 110.194 10.642L108.79 9.598C107.548 13.63 104.866 20.002 95.758 20.488L96.082 22.288ZM121.242 9.994C119.82 9.31 118.056 8.5 115.968 8.032L115.32 9.4C117.174 9.922 118.902 10.57 120.558 11.488L121.242 9.994ZM119.766 14.206C118.38 13.396 116.22 12.568 114.564 12.172L113.934 13.594C116.526 14.35 118.164 15.196 119.1 15.736L119.766 14.206ZM124.14 7.042C124.968 8.464 125.22 9.076 125.706 10.57L126.966 9.94C126.372 8.356 126.03 7.528 125.31 6.448L124.14 7.042ZM127.146 6.862C127.92 8.23 128.208 8.986 128.658 10.426L129.936 9.814C129.396 8.194 128.91 7.222 128.334 6.304L127.146 6.862ZM115.266 22.396C122.61 21.442 126.102 18.67 128.442 11.992L127.038 10.966C125.058 17.212 122.034 19.93 114.87 20.632L115.266 22.396ZM139.184 11.164C138.716 10.876 136.736 9.598 133.55 8.644L132.74 10.084C135.332 10.894 137.222 11.956 138.284 12.676L139.184 11.164ZM133.442 22.288C143.81 21.604 146.69 13.198 147.554 10.642L146.15 9.598C144.908 13.63 142.226 20.002 133.118 20.488L133.442 22.288ZM163.534 23.458V8.032H166.99V6.592H162.094V23.458H163.534ZM180.144 19.606C181.206 15.124 181.566 10.588 181.692 9.184H171.738V10.786H179.856C179.748 12.082 179.406 15.88 178.416 19.606H169.452V21.208H184.698V19.606H180.144ZM191.39 8.05H189.734V19.444C189.734 21.73 190.85 22.18 193.532 22.18H198.572C199.706 22.18 201.416 22.126 202.514 21.946L202.424 20.326C201.272 20.542 199.832 20.614 198.392 20.614H193.766C191.714 20.614 191.39 20.47 191.39 19.174V15.196C193.28 14.8 196.574 13.972 200.516 12.172L199.778 10.66C197.078 12.046 194.594 12.892 191.39 13.63V8.05ZM199.22 7.51C200.03 8.752 200.444 9.544 200.984 10.966L202.208 10.246C201.632 8.914 201.182 7.996 200.372 6.862L199.22 7.51ZM201.974 6.664C202.874 8.032 203.18 8.68 203.72 10.12L204.944 9.418C204.422 8.14 203.918 7.096 203.126 6.016L201.974 6.664ZM206.74 14.296V16.006H222.22V14.296H206.74ZM228.066 6.862V22.288H224.61V23.728H229.506V6.862H228.066ZM255.8 10.714L255.764 7.672H254.126L254.18 10.714H248.78V12.262H254.216L254.288 16.51C253.784 16.366 253.334 16.24 252.434 16.24C250.148 16.24 248.492 17.518 248.492 19.39C248.492 20.848 249.536 22.486 252.344 22.486C255.782 22.486 255.8 20.452 255.8 19.426V18.76C256.79 19.39 257.69 20.146 258.41 21.1L259.472 19.642C258.644 18.76 257.312 17.734 255.854 17.014L255.8 12.262H259.166V10.714H255.8ZM254.288 19.102C254.288 20.074 254.216 21.136 252.254 21.136C251.3 21.136 249.932 20.794 249.932 19.408C249.932 18.058 251.246 17.59 252.452 17.59C253.37 17.59 253.874 17.806 254.288 17.986V19.102ZM245.342 7.636C244.856 10.444 244.676 13.054 244.676 15.898C244.676 18.112 244.748 20.344 245.18 22.522L246.8 22.306C246.332 20.254 246.242 18.13 246.242 16.024C246.242 11.992 246.674 9.562 247.016 7.762L245.342 7.636ZM275.614 23.458V8.032H279.07V6.592H274.174V23.458H275.614ZM290.586 6.808V7.942H285.204V9.166H287.832C287.886 9.31 288.21 10.516 288.282 10.804H285.798V20.758H287.166V11.974H290.658V13.324H287.724V14.44H290.658V15.682H288.372V19.408H294.276V15.682H291.972V14.44H294.888V13.324H291.972V11.974H295.446V19.192C295.446 19.606 295.284 19.642 295.05 19.642L293.376 19.624L293.574 20.992H295.482C296.418 20.992 296.814 20.47 296.814 19.606V10.804H294.186C294.438 10.192 294.582 9.778 294.762 9.166H297.48V7.942H292.044V6.808H290.586ZM289.578 10.804C289.416 10.102 289.398 10.012 289.182 9.166H293.448C293.394 9.4 293.124 10.336 292.926 10.804H289.578ZM293.034 18.31H289.596V16.762H293.034V18.31ZM288.444 21.694C287.922 21.694 284.646 21.442 284.286 19.246V13.792H280.92V15.268H282.864V20.344C282.072 21.19 281.046 21.856 280.722 22.054L281.442 23.584C282.72 22.468 282.81 22.36 283.962 21.046C284.358 21.568 285.474 23.08 288.426 23.08H297.426L297.714 21.694H288.444ZM284.934 10.048C284.07 8.842 283.026 7.78 282.18 7.06L281.19 7.96C282.81 9.544 283.44 10.516 283.764 11.002L284.934 10.048ZM301.166 11.848L299.312 12.154L299.402 13.612L301.166 13.324V19.084C301.166 19.948 301.616 20.398 302.462 20.398H304.568C306.044 20.398 306.386 18.976 306.674 16.618L305.216 16.276C305.18 16.96 305.054 19.012 304.28 19.012H303.164C302.714 19.012 302.624 18.886 302.624 18.49V13.09L306.584 12.442L306.494 10.966L302.624 11.596V6.826H301.166V11.848ZM306.08 7.6V9.058H309.302C309.302 15.376 308.726 19.426 303.47 22.234L304.514 23.53C309.5 20.488 310.742 16.924 310.814 9.058H314.216C314.216 11.11 314.216 19.93 313.262 21.478C312.956 21.982 312.362 21.964 312.182 21.964L309.5 21.946L309.824 23.476H312.434C314.036 23.476 314.522 22.648 314.738 22.198C315.728 20.074 315.728 11.992 315.728 7.6H306.08ZM330.682 12.532H329.062L329.17 16.384C328.774 16.294 328.198 16.168 327.298 16.168C324.112 16.168 323.068 18.166 323.068 19.516C323.068 21.19 324.4 22.684 327.1 22.684C328.882 22.684 330.7 22.036 330.7 19.372V18.634C331.348 19.012 332.446 19.678 333.616 21.082L334.606 19.66C333.724 18.688 332.284 17.572 330.772 16.906L330.682 12.532ZM329.206 19.084C329.206 20.308 328.936 21.28 327.154 21.28C326.812 21.28 324.598 21.28 324.598 19.462C324.598 18.454 325.462 17.536 327.298 17.536C328.252 17.536 328.792 17.734 329.206 17.878V19.084ZM323.86 9.76C324.094 8.446 324.112 8.338 324.256 7.474L322.546 7.402C322.474 8.122 322.42 8.518 322.222 9.76H318.892V11.272H321.934C321.466 13.288 320.674 16.816 318.748 19.912L320.404 20.632C321.052 19.3 322.528 16.294 323.554 11.272H327.64V9.76H323.86ZM334.3 11.164C332.392 10.102 331.186 9.562 329.386 8.932L328.756 10.264C330.376 10.858 331.726 11.506 333.544 12.604L334.3 11.164ZM2.682 46.106C3.942 45.314 4.446 44.81 4.968 44.288C7.614 45.62 9.198 46.736 10.692 48.014C8.64 50.264 5.85 51.596 2.898 52.298L3.672 53.792C14.472 50.984 15.408 42.38 15.732 39.446H6.426C5.346 41.84 3.762 43.514 1.62 44.846L2.682 46.106ZM13.878 40.94C13.464 43.73 12.636 45.386 11.682 46.79C9.9 45.26 7.83 44.144 5.958 43.208C6.444 42.614 6.768 42.2 7.506 40.94H13.878ZM29.606 44.108C32.126 42.092 33.62 40.346 34.412 39.41L32.9 38.42C29.552 42.632 25.124 45.89 19.994 47.492L20.786 48.986C23.09 48.176 25.43 47.096 27.878 45.386V53.774H29.606V44.108ZM52.426 40.418C48.232 39.464 44.992 39.068 40.654 38.816L40.384 40.31C44.848 40.544 48.358 41.066 52.12 42.074L52.426 40.418ZM51.49 45.872C48.502 44.972 45.64 44.36 40.564 43.982L40.258 45.476C44.758 45.818 47.674 46.322 51.202 47.438L51.49 45.872ZM53.164 51.974C51.184 51.398 46.648 50.066 39.502 49.706L39.178 51.236C45.586 51.722 48.88 52.442 52.714 53.684L53.164 51.974ZM64.464 42.164C63.996 41.876 62.016 40.598 58.83 39.644L58.02 41.084C60.612 41.894 62.502 42.956 63.564 43.676L64.464 42.164ZM58.722 53.288C69.09 52.604 71.97 44.198 72.834 41.642L71.43 40.598C70.188 44.63 67.506 51.002 58.398 51.488L58.722 53.288ZM77.384 53.936C83.792 52.496 87.554 48.932 89.048 42.074L87.374 39.86H80.174C78.914 42.38 77.078 43.928 75.674 44.882L76.7 46.106C78.734 44.738 80.066 43.262 81.254 41.372H87.5C86.474 46.79 83.684 51.02 76.7 52.406L77.384 53.936ZM89.804 37.7C90.74 38.978 91.1 39.698 91.712 41.084L92.864 40.328C92.108 38.816 91.802 38.186 90.884 37.016L89.804 37.7ZM87.41 38.402C88.292 39.572 88.742 40.346 89.372 41.75L90.506 40.976C89.75 39.482 89.39 38.834 88.472 37.7L87.41 38.402ZM104.902 44C105.748 45.188 106.198 46.034 106.792 47.474L108.052 46.682C107.422 45.314 106.9 44.342 106.072 43.28L104.902 44ZM107.566 42.848C108.43 44.09 108.844 44.864 109.456 46.322L110.716 45.53C110.068 44.126 109.6 43.244 108.736 42.128L107.566 42.848ZM109.762 39.464C105.64 39.482 103.948 39.518 99.682 39.752C98.764 39.806 95.65 39.95 94.768 39.968L94.912 41.732C96.874 41.498 103.102 41.12 103.624 41.102C101.5 42.344 98.35 44.702 98.35 48.122C98.35 53.162 104.326 53.414 107.872 53.558L108.196 51.812C106.594 51.866 104.812 51.722 103.66 51.488C101.752 51.092 100.024 50.354 100.024 48.014C100.024 44.918 103.552 42.128 106.144 41.264C106.684 41.084 107.08 41.048 107.962 41.048C108.466 41.048 109.024 41.066 109.798 41.12L109.762 39.464ZM121.53 53.558C123.528 53.36 125.328 52.748 126.498 51.776C128.136 50.408 128.91 48.284 128.91 46.142C128.91 43.1 127.344 39.068 121.512 39.068C116.76 39.068 113.196 42.2 113.196 47.096C113.196 50.066 114.672 52.154 116.436 52.154C117.246 52.154 118.398 51.74 119.46 50.066C121.314 47.096 121.674 42.668 121.836 40.58C126.786 40.742 127.218 44.702 127.218 46.124C127.218 51.272 122.844 51.794 120.99 51.992L121.53 53.558ZM120.234 40.652C120.054 42.722 119.766 46.376 118.254 48.968C117.786 49.76 117.246 50.426 116.49 50.426C115.212 50.426 114.762 48.356 114.762 47.132C114.762 45.044 115.59 43.028 117.264 41.804C118.182 41.12 119.172 40.85 120.234 40.652ZM141.146 37.808V38.942H135.764V40.166H138.392C138.446 40.31 138.77 41.516 138.842 41.804H136.358V51.758H137.726V42.974H141.218V44.324H138.284V45.44H141.218V46.682H138.932V50.408H144.836V46.682H142.532V45.44H145.448V44.324H142.532V42.974H146.006V50.192C146.006 50.606 145.844 50.642 145.61 50.642L143.936 50.624L144.134 51.992H146.042C146.978 51.992 147.374 51.47 147.374 50.606V41.804H144.746C144.998 41.192 145.142 40.778 145.322 40.166H148.04V38.942H142.604V37.808H141.146ZM140.138 41.804C139.976 41.102 139.958 41.012 139.742 40.166H144.008C143.954 40.4 143.684 41.336 143.486 41.804H140.138ZM143.594 49.31H140.156V47.762H143.594V49.31ZM139.004 52.694C138.482 52.694 135.206 52.442 134.846 50.246V44.792H131.48V46.268H133.424V51.344C132.632 52.19 131.606 52.856 131.282 53.054L132.002 54.584C133.28 53.468 133.37 53.36 134.522 52.046C134.918 52.568 136.034 54.08 138.986 54.08H147.986L148.274 52.694H139.004ZM135.494 41.048C134.63 39.842 133.586 38.78 132.74 38.06L131.75 38.96C133.37 40.544 134 41.516 134.324 42.002L135.494 41.048ZM151.726 42.848L149.872 43.154L149.962 44.612L151.726 44.324V50.084C151.726 50.948 152.176 51.398 153.022 51.398H155.128C156.604 51.398 156.946 49.976 157.234 47.618L155.776 47.276C155.74 47.96 155.614 50.012 154.84 50.012H153.724C153.274 50.012 153.184 49.886 153.184 49.49V44.09L157.144 43.442L157.054 41.966L153.184 42.596V37.826H151.726V42.848ZM156.64 38.6V40.058H159.862C159.862 46.376 159.286 50.426 154.03 53.234L155.074 54.53C160.06 51.488 161.302 47.924 161.374 40.058H164.776C164.776 42.11 164.776 50.93 163.822 52.478C163.516 52.982 162.922 52.964 162.742 52.964L160.06 52.946L160.384 54.476H162.994C164.596 54.476 165.082 53.648 165.298 53.198C166.288 51.074 166.288 42.992 166.288 38.6H156.64ZM181.242 43.532H179.622L179.73 47.384C179.334 47.294 178.758 47.168 177.858 47.168C174.672 47.168 173.628 49.166 173.628 50.516C173.628 52.19 174.96 53.684 177.66 53.684C179.442 53.684 181.26 53.036 181.26 50.372V49.634C181.908 50.012 183.006 50.678 184.176 52.082L185.166 50.66C184.284 49.688 182.844 48.572 181.332 47.906L181.242 43.532ZM179.766 50.084C179.766 51.308 179.496 52.28 177.714 52.28C177.372 52.28 175.158 52.28 175.158 50.462C175.158 49.454 176.022 48.536 177.858 48.536C178.812 48.536 179.352 48.734 179.766 48.878V50.084ZM174.42 40.76C174.654 39.446 174.672 39.338 174.816 38.474L173.106 38.402C173.034 39.122 172.98 39.518 172.782 40.76H169.452V42.272H172.494C172.026 44.288 171.234 47.816 169.308 50.912L170.964 51.632C171.612 50.3 173.088 47.294 174.114 42.272H178.2V40.76H174.42ZM184.86 42.164C182.952 41.102 181.746 40.562 179.946 39.932L179.316 41.264C180.936 41.858 182.286 42.506 184.104 43.604L184.86 42.164ZM197.168 45.8C197.294 45.026 197.348 44.432 197.348 43.388H202.298V42.074H194.09C194.342 41.588 194.486 41.282 194.774 40.562L193.334 40.256C192.776 42.002 191.714 43.316 190.436 44.342L191.57 45.314C192.272 44.684 192.686 44.234 193.298 43.388H195.944C195.944 44.684 195.854 45.242 195.764 45.8H190.526V47.132H195.332C194.054 49.778 191.192 50.48 190.292 50.696L191.156 52.01C193.208 51.326 195.512 50.156 196.7 47.42C197.15 48.446 198.59 50.732 202.658 51.992L203.45 50.606C200.534 49.958 198.626 48.284 198.014 47.132H203.054V45.8H197.168ZM188.06 38.402V54.134H204.044V52.766H189.59V39.788H203.666V38.402H188.06ZM220.924 46.556C221.482 46.898 221.824 47.06 222.31 47.294L222.994 46.088C222.49 45.908 222.004 45.728 221.194 45.278C221.23 45.224 221.86 44.612 222.418 43.892L221.41 43.28C221.212 43.55 220.78 44.09 220.258 44.648C219.394 43.982 218.944 43.388 218.584 42.938H222.778V41.804H216.226C216.352 41.552 216.424 41.372 216.604 40.922L215.182 40.76C215.038 41.174 214.948 41.408 214.768 41.804H210.448V42.938H214.084C213.58 43.604 213.13 44.072 212.572 44.522C212.41 44.342 211.906 43.784 211.33 43.352L210.502 44.108C211.006 44.504 211.06 44.558 211.654 45.188C211.042 45.602 210.574 45.836 209.944 46.142L210.736 47.222C211.132 46.988 211.258 46.916 211.636 46.682V50.426H215.506V52.748C215.506 53.108 215.452 53.18 215.092 53.18H213.382L213.688 54.476H215.632C216.19 54.476 216.964 54.44 216.964 53.324V50.426H220.924V46.556ZM219.61 47.258H212.95V46.178H219.61V47.258ZM213.688 45.134C214.858 44.072 215.362 43.28 215.578 42.938H217.108C217.504 43.514 217.954 44.198 218.998 45.134H213.688ZM219.61 49.382H212.95V48.248H219.61V49.382ZM208.45 45.368C208.45 45.872 208.432 46.214 208.432 46.502C207.532 46.952 207.118 47.15 205.876 47.636L206.182 49.112C206.722 48.842 207.406 48.5 208.306 47.906C207.91 51.254 206.92 52.55 206.11 53.558L207.208 54.53C207.928 53.666 209.872 51.344 209.872 45.422V40.526H222.832V39.266H216.136V37.808H214.66V39.266H208.45V45.368ZM208.072 43.82C207.892 42.902 207.514 41.642 206.992 40.616L205.876 41.156C206.29 42.182 206.614 43.334 206.812 44.414L208.072 43.82ZM209.98 54.206C211.186 53.756 212.302 53.162 213.832 51.668L212.788 50.804C211.51 52.028 210.628 52.514 209.188 53L209.98 54.206ZM218.422 51.686C219.394 52.784 220.924 53.738 222.31 54.224L223.102 53C221.428 52.406 220.672 51.974 219.376 50.732L218.422 51.686ZM239.136 42.668C236.346 43.118 234.87 43.406 232.926 44C232.548 43.226 232.458 42.272 232.458 40.364C232.458 39.482 232.476 38.978 232.494 38.492H230.73C230.784 42.326 230.82 43.37 231.414 44.54C230.154 45.08 226.446 46.628 226.446 49.706C226.446 53.54 231.432 53.54 234.546 53.54C237.138 53.54 238.722 53.432 239.892 53.36L239.856 51.668C238.83 51.776 237.156 51.938 234.186 51.938C230.316 51.938 228.12 51.74 228.12 49.652C228.12 45.656 237.84 44.558 239.298 44.396L239.136 42.668ZM252.29 53.558C254.288 53.36 256.088 52.748 257.258 51.776C258.896 50.408 259.67 48.284 259.67 46.142C259.67 43.1 258.104 39.068 252.272 39.068C247.52 39.068 243.956 42.2 243.956 47.096C243.956 50.066 245.432 52.154 247.196 52.154C248.006 52.154 249.158 51.74 250.22 50.066C252.074 47.096 252.434 42.668 252.596 40.58C257.546 40.742 257.978 44.702 257.978 46.124C257.978 51.272 253.604 51.794 251.75 51.992L252.29 53.558ZM250.994 40.652C250.814 42.722 250.526 46.376 249.014 48.968C248.546 49.76 248.006 50.426 247.25 50.426C245.972 50.426 245.522 48.356 245.522 47.132C245.522 45.044 246.35 43.028 248.024 41.804C248.942 41.12 249.932 40.85 250.994 40.652ZM263.446 39.14V45.746H269.746V52.766H264.346V47.132H262.834V54.152H278.188V47.132H276.658V52.766H271.258V45.746H277.594V39.14H276.064V44.36H271.258V37.808H269.746V44.36H264.976V39.14H263.446ZM291.198 49.22C292.602 50.642 293.502 51.776 293.682 52.01C292.35 52.136 290.496 52.298 288.3 52.388C287.922 52.406 285.906 52.46 285.456 52.478C286.626 50.408 287.346 48.842 287.778 47.852H297.174V46.466H281.1V47.852H286.032C285.636 48.896 284.952 50.57 283.818 52.514H281.334L281.496 53.99C284.268 53.99 291.612 53.666 294.618 53.234C294.996 53.792 295.212 54.134 295.5 54.62L296.796 53.756C295.41 51.56 294.312 50.3 292.386 48.41L291.198 49.22ZM293.97 43.154C295.248 44.018 296.256 44.486 297.048 44.846L297.84 43.406C294.708 42.29 291.846 40.112 289.974 37.61H288.372C287.886 38.33 285.87 41.246 280.506 43.352L281.244 44.81C281.856 44.558 282.846 44.126 284.448 43.136V44.144H293.97V43.154ZM285.006 42.776C286.518 41.732 288.048 40.472 289.182 38.888C289.812 39.68 290.856 40.976 293.394 42.776H285.006ZM300.914 39.338C300.806 40.562 300.626 42.524 300.626 44.486C300.626 49.166 301.436 53.198 304.352 53.198C305.27 53.198 305.936 52.766 306.368 52.334C307.376 51.326 308.204 49.814 308.798 48.14L307.466 47.384C306.224 50.624 305.288 51.362 304.478 51.362C302.462 51.362 302.246 47.42 302.246 44.63C302.246 42.2 302.48 40.562 302.624 39.482L300.914 39.338ZM315.422 51.416C315.674 44.216 313.82 41.678 311.678 39.878L310.436 40.832C312.308 42.362 313.712 44.954 313.712 49.652C313.712 50.48 313.676 51.02 313.64 51.488L315.422 51.416ZM321.466 37.862V53.288H318.01V54.728H322.906V37.862H321.466ZM9.45 84.558C11.448 84.36 13.248 83.748 14.418 82.776C16.056 81.408 16.83 79.284 16.83 77.142C16.83 74.1 15.264 70.068 9.432 70.068C4.68 70.068 1.116 73.2 1.116 78.096C1.116 81.066 2.592 83.154 4.356 83.154C5.166 83.154 6.318 82.74 7.38 81.066C9.234 78.096 9.594 73.668 9.756 71.58C14.706 71.742 15.138 75.702 15.138 77.124C15.138 82.272 10.764 82.794 8.91 82.992L9.45 84.558ZM8.154 71.652C7.974 73.722 7.686 77.376 6.174 79.968C5.706 80.76 5.166 81.426 4.41 81.426C3.132 81.426 2.682 79.356 2.682 78.132C2.682 76.044 3.51 74.028 5.184 72.804C6.102 72.12 7.092 71.85 8.154 71.652ZM24.944 76.26C25.394 76.026 25.934 75.756 26.816 75.09V77.178H33.8V75.162C34.43 75.648 34.988 75.972 35.798 76.332L36.374 75.162C34.412 74.28 33.728 73.686 32.846 72.426H35.978V71.31H29.948C30.02 71.166 30.146 70.932 30.434 70.248C31.262 70.194 33.602 70.014 34.952 69.744L34.34 68.664C32.846 68.97 30.434 69.348 25.178 69.33L25.466 70.41C26.15 70.41 26.798 70.41 28.994 70.32C28.904 70.5 28.796 70.734 28.49 71.31H24.746V72.426H27.77C26.546 74.064 24.962 74.802 24.278 75.126L24.944 76.26ZM31.424 72.426C31.658 72.822 31.928 73.272 32.45 73.902H28.13C28.598 73.398 28.904 73.038 29.3 72.426H31.424ZM32.648 76.188H27.95V74.892H32.648V76.188ZM35.492 78.06H25.106V85.512H26.456V79.158H34.106V83.532C34.106 84.18 34.052 84.288 33.44 84.27L32.27 84.252L32.522 85.512H33.98C34.79 85.512 35.492 85.422 35.492 84.27V78.06ZM31.874 82.794H28.724V81.156H31.874V82.794ZM24.962 77.628C23.81 76.26 23.288 75.09 23.036 74.442V73.686H24.656V72.318H23.036V68.808H21.65V72.318H19.364V73.686H21.596C21.128 76.062 19.994 78.168 19.13 79.374L19.778 81.102C20.228 80.436 20.948 79.32 21.65 77.052V85.512H23.036V76.656C23.324 77.376 23.396 77.556 24.17 78.744L24.962 77.628ZM33.08 80.148H27.5V83.838H33.08V80.148ZM42.814 70.158V76.872C42.814 81.426 41.338 83.406 40.654 84.324L41.824 85.458C42.22 84.882 43.264 83.388 43.768 81.12C44.038 79.878 44.254 78.132 44.254 76.89V74.442H46.324V77.268H52.12V74.442H54.532V73.2H52.12V71.94H50.788V73.2H47.656V71.94H46.324V73.2H44.254V71.49H54.676V70.158H49.492V68.808H48.034V70.158H42.814ZM38.548 70.14C39.232 70.464 40.6 71.238 41.284 71.958L42.202 70.626C40.942 69.708 40.15 69.294 39.376 68.97L38.548 70.14ZM50.788 74.442V76.098H47.656V74.442H50.788ZM54.892 84.108C54.172 83.982 52.678 83.694 50.752 82.902C52.588 81.57 53.272 80.184 53.578 79.554V78.312H44.776V79.59H52.012C51.652 80.148 50.95 81.21 49.294 82.182C47.71 81.228 47.026 80.364 46.666 79.932L45.496 80.562C45.838 81.012 46.504 81.84 47.908 82.866C45.802 83.748 44.236 83.982 43.372 84.108L44.02 85.548C46.234 85.062 47.836 84.522 49.312 83.748C51.544 84.972 53.362 85.332 54.298 85.512L54.892 84.108ZM37.738 74.91C38.71 75.378 39.7 76.008 40.528 76.728L41.428 75.486C40.816 74.982 39.628 74.172 38.566 73.704L37.738 74.91ZM40.276 78.384C39.898 79.77 39.034 82.11 37.684 84.108L38.818 85.368C40.582 82.578 41.284 80.004 41.5 79.122L40.276 78.384ZM59.91 69.636C59.892 70.86 59.784 76.836 59.784 78.186C59.784 81.318 60.108 84.612 65.04 84.612C70.512 84.612 71.682 80.904 72.258 77.646L70.746 77.088C70.242 79.824 69.648 83.064 64.986 83.064C61.602 83.064 61.494 80.652 61.494 78.348C61.494 76.638 61.566 74.496 61.728 69.636H59.91ZM77.618 69.798C77.042 72.498 76.862 75.378 76.862 78.348C76.862 81.786 77.168 83.586 77.33 84.63L79.076 84.486C78.932 83.838 78.518 82.11 78.518 78.096C78.518 73.56 79.058 71.202 79.328 69.942L77.618 69.798ZM82.064 71.256V72.84H90.524V71.256H82.064ZM82.46 77.214C81.83 78.276 81.506 79.302 81.506 80.238C81.506 83.334 84.836 83.586 87.5 83.586C89.03 83.586 90.29 83.478 90.902 83.424V81.732C89.246 81.912 87.77 81.948 86.78 81.948C84.854 81.948 83.018 81.732 83.018 80.094C83.018 79.932 83.036 78.906 83.918 77.664L82.46 77.214ZM103.318 74.046H109.402V72.426L103.318 72.48L103.3 69.492H101.608L101.68 77.97C101.23 77.916 100.888 77.862 100.294 77.862C97.72 77.862 95.182 78.924 95.182 81.39C95.182 83.154 96.514 84.63 99.484 84.63C103.228 84.63 103.354 82.326 103.336 81.264L103.318 80.022C105.514 80.868 107.602 82.488 108.7 83.712L109.87 82.164C108.988 81.246 106.882 79.518 103.336 78.312L103.318 74.046ZM101.698 81.156C101.698 81.894 101.518 83.136 99.466 83.136C99.07 83.136 96.784 83.136 96.784 81.408C96.784 79.95 98.494 79.338 100.042 79.338C100.798 79.338 101.338 79.446 101.716 79.518L101.698 81.156ZM119.028 84.054C120.468 84.036 122.016 83.91 123.42 83.46C126.858 82.38 127.254 79.554 127.254 78.474C127.254 75.954 125.49 74.046 122.412 74.046C121.458 74.046 120.198 74.226 119.082 74.406C118.47 74.514 115.482 75.054 114.798 75.162L115.068 76.746C117.84 76.044 120.9 75.45 122.34 75.45C124.104 75.45 125.67 76.35 125.67 78.528C125.67 82.704 120.126 82.668 118.632 82.65L119.028 84.054ZM147.122 70.464C142.694 70.5 141.038 70.536 137.006 70.752C136.088 70.806 133.208 70.932 132.128 70.968L132.272 72.732C134.234 72.498 140.462 72.12 140.984 72.102C138.86 73.344 135.71 75.702 135.71 79.122C135.71 84.162 141.686 84.414 145.232 84.558L145.556 82.812C144.008 82.866 142.28 82.758 141.02 82.488C139.112 82.092 137.384 81.354 137.384 79.014C137.384 75.918 140.912 73.128 143.504 72.264C144.044 72.084 144.422 72.048 145.322 72.048C146.024 72.048 146.546 72.066 147.158 72.12L147.122 70.464ZM155.254 83.838C154.498 82.812 153.22 81.3 152.05 80.22L150.682 81.228C151.276 81.858 152.392 83.028 153.67 84.954L155.254 83.838ZM177.426 84.882C181.26 83.514 182.178 80.508 182.61 78.744C183.51 79.14 183.816 79.302 184.626 79.788L185.166 78.168C184.05 77.556 183.006 77.16 182.952 77.142C183.222 75.702 183.366 74.136 183.492 72.84L181.782 72.714C181.746 73.542 181.656 74.82 181.386 76.584C179.748 76.044 178.56 75.756 177.048 75.63C177.642 72.084 177.696 71.688 177.93 69.888H170.478V71.454L176.112 71.4C176.004 72.678 175.77 74.28 175.518 75.576C169.632 75.81 169.308 79.68 169.308 80.562C169.308 82.488 170.568 83.64 172.296 83.64C175.014 83.64 175.806 81.066 176.778 77.052C178.398 77.196 179.928 77.664 181.098 78.114C180.468 80.724 179.532 82.524 176.436 83.64L177.426 84.882ZM175.248 76.962C174.294 80.868 173.808 82.218 172.188 82.218C170.82 82.218 170.73 80.814 170.73 80.472C170.73 79.248 171.468 78.078 172.638 77.502C173.43 77.106 174.186 76.998 175.248 76.962ZM199.922 74.532H198.302L198.41 78.384C198.014 78.294 197.438 78.168 196.538 78.168C193.352 78.168 192.308 80.166 192.308 81.516C192.308 83.19 193.64 84.684 196.34 84.684C198.122 84.684 199.94 84.036 199.94 81.372V80.634C200.588 81.012 201.686 81.678 202.856 83.082L203.846 81.66C202.964 80.688 201.524 79.572 200.012 78.906L199.922 74.532ZM198.446 81.084C198.446 82.308 198.176 83.28 196.394 83.28C196.052 83.28 193.838 83.28 193.838 81.462C193.838 80.454 194.702 79.536 196.538 79.536C197.492 79.536 198.032 79.734 198.446 79.878V81.084ZM193.1 71.76C193.334 70.446 193.352 70.338 193.496 69.474L191.786 69.402C191.714 70.122 191.66 70.518 191.462 71.76H188.132V73.272H191.174C190.706 75.288 189.914 78.816 187.988 81.912L189.644 82.632C190.292 81.3 191.768 78.294 192.794 73.272H196.88V71.76H193.1ZM203.54 73.164C201.632 72.102 200.426 71.562 198.626 70.932L197.996 72.264C199.616 72.858 200.966 73.506 202.784 74.604L203.54 73.164ZM219.628 78.6C218.548 77.448 217.504 75.702 216.748 73.884C218.332 73.812 219.88 73.74 221.842 73.326L221.554 71.778C219.754 72.156 218.062 72.372 216.226 72.426C215.992 71.706 215.74 70.536 215.578 69.438L213.868 69.564C213.94 69.996 214.21 71.31 214.57 72.48C214.12 72.498 213.148 72.516 212.392 72.498L207.136 72.408V73.974H212.32C212.59 73.974 213.976 73.956 215.074 73.938C216.046 76.404 217.18 78.348 218.242 79.536L219.628 78.6ZM210.556 77.124C208.72 78.024 207.946 79.32 207.946 80.634C207.946 81.534 208.288 82.416 209.008 83.064C210.268 84.198 212.05 84.558 215.2 84.558C217.666 84.558 219.25 84.414 219.898 84.342L219.88 82.74C218.764 82.884 217.396 83.046 215.056 83.046C212.482 83.046 209.566 82.812 209.566 80.616C209.566 80.274 209.656 79.158 211.42 78.294L210.556 77.124ZM230.262 69.384C229.83 70.554 228.786 73.434 228.516 74.19C228.102 75.36 227.796 76.224 225.24 84.036L226.932 84.558C227.418 82.74 227.706 81.66 228.336 79.986C229.47 77.664 230.946 77.286 231.666 77.286C232.944 77.286 233.268 78.348 233.268 79.68V80.688C233.268 82.092 233.286 84.63 236.346 84.63C240.468 84.63 240.9 79.806 241.008 77.43L239.442 77.07C239.442 78.114 239.352 79.464 238.848 80.922C238.254 82.632 237.336 83.046 236.454 83.046C234.996 83.046 234.852 82.056 234.852 80.76V79.554C234.852 78.312 234.708 75.756 231.936 75.756C230.946 75.756 230.244 76.098 229.272 76.89C229.758 75.486 230.838 72.534 232.044 69.87L230.262 69.384ZM252.29 84.558C254.288 84.36 256.088 83.748 257.258 82.776C258.896 81.408 259.67 79.284 259.67 77.142C259.67 74.1 258.104 70.068 252.272 70.068C247.52 70.068 243.956 73.2 243.956 78.096C243.956 81.066 245.432 83.154 247.196 83.154C248.006 83.154 249.158 82.74 250.22 81.066C252.074 78.096 252.434 73.668 252.596 71.58C257.546 71.742 257.978 75.702 257.978 77.124C257.978 82.272 253.604 82.794 251.75 82.992L252.29 84.558ZM250.994 71.652C250.814 73.722 250.526 77.376 249.014 79.968C248.546 80.76 248.006 81.426 247.25 81.426C245.972 81.426 245.522 79.356 245.522 78.132C245.522 76.044 246.35 74.028 248.024 72.804C248.942 72.12 249.932 71.85 250.994 71.652ZM273.202 68.808V69.978H270.862V71.166H273.202V72.57H269.908V73.74H273.202V75.18H270.862V76.332H273.202V77.628H270.61V78.798H273.202V80.148H270.124V81.354H273.202V82.956H274.498V81.354H278.782V80.148H274.498V78.798H278.206V77.628H274.498V76.332H277.972V73.74H278.836V72.57H277.972V69.978H274.498V68.808H273.202ZM276.64 72.57H274.498V71.166H276.64V72.57ZM276.64 75.18H274.498V73.74H276.64V75.18ZM274.066 83.604C270.556 83.604 268.954 82.02 268.846 81.894C269.044 81.372 269.872 78.978 269.944 75.072H267.64C268.432 73.686 269.296 72.192 269.908 70.842V69.492H266.308V70.788H268.45C268.018 71.832 266.848 74.046 266.128 75.054V76.368H268.63C268.594 77.7 268.468 79.104 267.964 80.616C267.37 79.374 267.208 78.222 267.1 77.484L265.876 77.664C265.984 78.33 266.29 80.436 267.334 82.038C266.632 83.19 266.02 83.658 265.516 84.054L266.326 85.386C266.848 84.9 267.496 84.306 268.216 83.136C268.72 83.622 270.502 85.008 273.958 85.008H278.764L278.998 83.604H274.066ZM265.102 73.128C265.732 71.4 265.984 70.05 266.164 69.006L264.724 68.772C264.364 71.328 263.41 74.442 261.88 76.296L262.582 77.772C262.96 77.376 263.248 77.07 263.716 76.224V85.476H265.102V73.128ZM295.734 78.942C294.816 80.076 293.376 81.192 293.16 81.354C291.954 80.454 291.306 79.608 290.856 78.978V78.816H296.13V76.332H297.552V75.144H296.13V72.75H290.856V71.904H289.452V72.75H284.394V73.92H289.452V75.144H283.602V71.454H297.444V70.122H290.136V68.808H288.642V70.122H282.144V77.61C282.144 79.41 282 80.004 281.802 81.048C281.478 82.74 280.938 83.73 280.632 84.252L281.856 85.53C283.44 82.542 283.602 79.068 283.602 77.736V76.332H289.452V77.664H284.394V78.816H289.452V83.64C289.452 83.874 289.416 84.054 289.002 84.054L287.076 84.036L287.364 85.512H289.542C290.46 85.512 290.856 84.972 290.856 84.18V80.832C292.584 82.974 294.942 84.306 296.868 85.026L297.714 83.64C297.066 83.406 295.842 82.974 294.33 82.11C295.536 81.228 296.13 80.688 296.94 79.824L295.734 78.942ZM294.708 73.92V75.144H290.856V73.92H294.708ZM294.708 76.332V77.664H290.856V76.332H294.708ZM284.412 80.004C285.582 80.544 286.14 80.904 286.932 81.642L287.886 80.544C286.968 79.824 286.374 79.5 285.222 78.96L284.412 80.004ZM288.606 81.282C287.994 81.57 285.294 82.812 283.224 83.46L283.782 84.756C287.616 83.154 288.048 82.974 288.84 82.542L288.606 81.282ZM307.88 75.306C306.872 75.306 306.026 76.116 306.026 77.16C306.026 78.168 306.836 79.014 307.88 79.014C308.924 79.014 309.734 78.15 309.734 77.16C309.734 76.152 308.906 75.306 307.88 75.306ZM334.012 84.108C332.968 83.496 331.204 82.488 328.918 81.534C329.62 80.814 330.808 79.464 331.672 76.71H334.858V75.288H325.102C325.75 73.974 325.984 73.38 326.182 72.894L324.526 72.588C324.31 73.218 324.004 74.064 323.374 75.288H318.262V76.71H322.6C321.61 78.42 320.728 79.464 320.188 80.094C322.996 80.868 324.598 81.408 326.056 81.984C323.806 83.226 321.106 83.676 318.694 83.892L319.216 85.476C323.896 84.99 326.668 83.352 327.658 82.632C330.61 83.91 332.212 84.972 333.022 85.512L334.012 84.108ZM330.088 76.71C329.89 77.304 329.206 79.374 327.478 80.958C325.678 80.274 323.878 79.752 322.582 79.374C322.942 78.906 323.464 78.222 324.328 76.71H330.088ZM318.694 70.428V74.352H320.224V71.814H332.914V74.352H334.444V70.428H327.298V68.808H325.75V70.428H318.694ZM14.31 105.766C15.426 106.468 16.236 106.828 16.866 107.116L17.622 105.64C14.31 104.434 11.646 102.274 9.828 99.826H8.19C6.192 102.616 3.24 104.56 0.378 105.658L1.134 107.134C1.782 106.828 2.538 106.486 3.762 105.748V107.116H8.244V109.852H2.52V111.202H8.244V114.604H0.756V116.044H17.244V114.604H9.774V111.202H15.534V109.852H9.774V107.116H14.31V105.766ZM3.78 105.73C5.778 104.524 7.542 102.94 9 101.104C10.926 103.498 13.14 105.01 14.256 105.73H3.78ZM26.438 102.202C26.69 101.302 26.78 100.888 26.888 100.258L25.16 100.186C25.034 101.212 24.908 101.734 24.782 102.202H20.642V103.642H24.35C23.198 107.008 21.758 108.916 20.174 110.41L21.29 111.616C21.866 111.022 23.054 109.438 23.882 108.304C25.142 107.026 26.456 106.468 27.446 106.468C28.274 106.468 28.778 106.828 28.976 107.89C27.194 108.682 23.972 110.302 23.972 112.75C23.972 115.648 28.04 115.648 30.074 115.648C31.784 115.648 33.35 115.54 34.376 115.468L34.322 113.92C32.702 114.1 31.01 114.172 29.57 114.172C27.59 114.172 25.592 114.172 25.592 112.588C25.592 111.112 27.77 109.96 29.156 109.312C29.192 109.78 29.192 110.086 29.192 110.392C29.192 111.04 29.138 111.706 29.102 112.12H30.668C30.722 111.544 30.722 111.004 30.722 110.752C30.722 110.104 30.704 109.33 30.65 108.7C32.63 107.944 33.908 107.548 35.366 107.134L34.934 105.568C33.314 106.126 30.848 107.116 30.434 107.278C30.074 105.568 28.922 105.172 27.698 105.172C26.798 105.172 26.078 105.478 24.818 106.234C25.34 105.334 25.592 104.74 26.006 103.642H33.944V102.202H26.438ZM51.184 103.93V100.51H49.564V103.93H43.282V100.582H41.644V103.93H38.602V105.478H41.644V110.32H43.282V105.478H49.564V107.692C49.564 111.652 47.206 113.722 42.112 114.208L42.706 115.774C45.406 115.45 51.184 114.388 51.184 107.764V105.478H54.298V103.93H51.184ZM65.832 103.606V100.6H64.176V103.606H57.948V105.136H64.176V115.828H65.832V105.136H72.078V104.488C73.158 104.182 73.896 103.21 73.896 102.094C73.896 100.708 72.78 99.592 71.394 99.592C70.026 99.592 68.892 100.708 68.892 102.076C68.892 102.652 69.072 103.174 69.414 103.606H65.832ZM71.394 100.708C72.15 100.708 72.78 101.32 72.78 102.094C72.78 102.85 72.168 103.48 71.394 103.48C70.638 103.48 70.008 102.85 70.008 102.094C70.008 101.32 70.638 100.708 71.394 100.708ZM58.848 114.748C61.008 112.336 61.566 109.402 61.818 107.026L60.288 106.864C60.09 109.078 59.442 111.652 57.534 113.56L58.848 114.748ZM68.262 107.026C68.874 110.716 69.576 112.696 71.196 114.676L72.546 113.632C71.07 111.85 70.314 109.978 69.774 106.846L68.262 107.026ZM75.98 107.296V109.006H91.46V107.296H75.98ZM109.492 108.898C106.9 107.494 104.11 106.108 100.708 105.028V100.42H98.962V115.81H100.708V106.72C104.47 108.016 107.422 109.816 108.646 110.572L109.492 108.898ZM115.95 100.636C115.932 101.86 115.824 107.836 115.824 109.186C115.824 112.318 116.148 115.612 121.08 115.612C126.552 115.612 127.722 111.904 128.298 108.646L126.786 108.088C126.282 110.824 125.688 114.064 121.026 114.064C117.642 114.064 117.534 111.652 117.534 109.348C117.534 107.638 117.606 105.496 117.768 100.636H115.95ZM136.574 114.838C135.818 113.812 134.54 112.3 133.37 111.22L132.002 112.228C132.596 112.858 133.712 114.028 134.99 115.954L136.574 114.838ZM159.808 107.8C159.934 107.026 159.988 106.432 159.988 105.388H164.938V104.074H156.73C156.982 103.588 157.126 103.282 157.414 102.562L155.974 102.256C155.416 104.002 154.354 105.316 153.076 106.342L154.21 107.314C154.912 106.684 155.326 106.234 155.938 105.388H158.584C158.584 106.684 158.494 107.242 158.404 107.8H153.166V109.132H157.972C156.694 111.778 153.832 112.48 152.932 112.696L153.796 114.01C155.848 113.326 158.152 112.156 159.34 109.42C159.79 110.446 161.23 112.732 165.298 113.992L166.09 112.606C163.174 111.958 161.266 110.284 160.654 109.132H165.694V107.8H159.808ZM150.7 100.402V116.134H166.684V114.766H152.23V101.788H166.306V100.402H150.7ZM183.564 108.556C184.122 108.898 184.464 109.06 184.95 109.294L185.634 108.088C185.13 107.908 184.644 107.728 183.834 107.278C183.87 107.224 184.5 106.612 185.058 105.892L184.05 105.28C183.852 105.55 183.42 106.09 182.898 106.648C182.034 105.982 181.584 105.388 181.224 104.938H185.418V103.804H178.866C178.992 103.552 179.064 103.372 179.244 102.922L177.822 102.76C177.678 103.174 177.588 103.408 177.408 103.804H173.088V104.938H176.724C176.22 105.604 175.77 106.072 175.212 106.522C175.05 106.342 174.546 105.784 173.97 105.352L173.142 106.108C173.646 106.504 173.7 106.558 174.294 107.188C173.682 107.602 173.214 107.836 172.584 108.142L173.376 109.222C173.772 108.988 173.898 108.916 174.276 108.682V112.426H178.146V114.748C178.146 115.108 178.092 115.18 177.732 115.18H176.022L176.328 116.476H178.272C178.83 116.476 179.604 116.44 179.604 115.324V112.426H183.564V108.556ZM182.25 109.258H175.59V108.178H182.25V109.258ZM176.328 107.134C177.498 106.072 178.002 105.28 178.218 104.938H179.748C180.144 105.514 180.594 106.198 181.638 107.134H176.328ZM182.25 111.382H175.59V110.248H182.25V111.382ZM171.09 107.368C171.09 107.872 171.072 108.214 171.072 108.502C170.172 108.952 169.758 109.15 168.516 109.636L168.822 111.112C169.362 110.842 170.046 110.5 170.946 109.906C170.55 113.254 169.56 114.55 168.75 115.558L169.848 116.53C170.568 115.666 172.512 113.344 172.512 107.422V102.526H185.472V101.266H178.776V99.808H177.3V101.266H171.09V107.368ZM170.712 105.82C170.532 104.902 170.154 103.642 169.632 102.616L168.516 103.156C168.93 104.182 169.254 105.334 169.452 106.414L170.712 105.82ZM172.62 116.206C173.826 115.756 174.942 115.162 176.472 113.668L175.428 112.804C174.15 114.028 173.268 114.514 171.828 115L172.62 116.206ZM181.062 113.686C182.034 114.784 183.564 115.738 184.95 116.224L185.742 115C184.068 114.406 183.312 113.974 182.016 112.732L181.062 113.686ZM189.698 100.798C189.122 103.498 188.942 106.378 188.942 109.348C188.942 112.786 189.248 114.586 189.41 115.63L191.156 115.486C191.012 114.838 190.598 113.11 190.598 109.096C190.598 104.56 191.138 102.202 191.408 100.942L189.698 100.798ZM194.144 102.256V103.84H202.604V102.256H194.144ZM194.54 108.214C193.91 109.276 193.586 110.302 193.586 111.238C193.586 114.334 196.916 114.586 199.58 114.586C201.11 114.586 202.37 114.478 202.982 114.424V112.732C201.326 112.912 199.85 112.948 198.86 112.948C196.934 112.948 195.098 112.732 195.098 111.094C195.098 110.932 195.116 109.906 195.998 108.664L194.54 108.214ZM212.122 114.586C214.3 114.568 216.316 114.316 217.846 113.686C221.68 112.138 222.13 109.096 222.13 107.71C222.13 105.01 220.42 102.31 216.208 102.31C214.714 102.31 212.986 102.598 211.276 102.904C210.538 103.03 207.046 103.642 206.632 103.696L207.028 105.514C210.07 104.758 213.94 103.894 216.1 103.894C219.61 103.894 220.402 106.036 220.402 107.728C220.402 109.51 219.466 110.806 218.494 111.508C216.73 112.768 214.66 113.02 211.69 113.038L212.122 114.586ZM226.194 101.338C226.086 102.562 225.906 104.524 225.906 106.486C225.906 111.166 226.716 115.198 229.632 115.198C230.55 115.198 231.216 114.766 231.648 114.334C232.656 113.326 233.484 111.814 234.078 110.14L232.746 109.384C231.504 112.624 230.568 113.362 229.758 113.362C227.742 113.362 227.526 109.42 227.526 106.63C227.526 104.2 227.76 102.562 227.904 101.482L226.194 101.338ZM240.702 113.416C240.954 106.216 239.1 103.678 236.958 101.878L235.716 102.832C237.588 104.362 238.992 106.954 238.992 111.652C238.992 112.48 238.956 113.02 238.92 113.488L240.702 113.416ZM259.202 101.464C254.774 101.5 253.118 101.536 249.086 101.752C248.168 101.806 245.288 101.932 244.208 101.968L244.352 103.732C246.314 103.498 252.542 103.12 253.064 103.102C250.94 104.344 247.79 106.702 247.79 110.122C247.79 115.162 253.766 115.414 257.312 115.558L257.636 113.812C256.088 113.866 254.36 113.758 253.1 113.488C251.192 113.092 249.464 112.354 249.464 110.014C249.464 106.918 252.992 104.128 255.584 103.264C256.124 103.084 256.502 103.048 257.402 103.048C258.104 103.048 258.626 103.066 259.238 103.12L259.202 101.464ZM270.97 115.558C272.968 115.36 274.768 114.748 275.938 113.776C277.576 112.408 278.35 110.284 278.35 108.142C278.35 105.1 276.784 101.068 270.952 101.068C266.2 101.068 262.636 104.2 262.636 109.096C262.636 112.066 264.112 114.154 265.876 114.154C266.686 114.154 267.838 113.74 268.9 112.066C270.754 109.096 271.114 104.668 271.276 102.58C276.226 102.742 276.658 106.702 276.658 108.124C276.658 113.272 272.284 113.794 270.43 113.992L270.97 115.558ZM269.674 102.652C269.494 104.722 269.206 108.376 267.694 110.968C267.226 111.76 266.686 112.426 265.93 112.426C264.652 112.426 264.202 110.356 264.202 109.132C264.202 107.044 265.03 105.028 266.704 103.804C267.622 103.12 268.612 102.85 269.674 102.652ZM289.524 104.11C289.848 103.588 290.208 102.994 290.73 101.914H297.498V100.438H280.866V101.914H289.128C287.76 104.83 285.096 107.926 280.668 109.96L281.568 111.382C282.846 110.734 285.564 109.276 288.354 105.748V116.512H289.92V104.11H289.524ZM297.75 110.032C295.014 108.358 293.178 106.468 291.648 104.56L290.55 105.424C292.746 108.196 293.934 109.402 296.67 111.382L297.75 110.032ZM315.332 115.108C314.288 114.496 312.524 113.488 310.238 112.534C310.94 111.814 312.128 110.464 312.992 107.71H316.178V106.288H306.422C307.07 104.974 307.304 104.38 307.502 103.894L305.846 103.588C305.63 104.218 305.324 105.064 304.694 106.288H299.582V107.71H303.92C302.93 109.42 302.048 110.464 301.508 111.094C304.316 111.868 305.918 112.408 307.376 112.984C305.126 114.226 302.426 114.676 300.014 114.892L300.536 116.476C305.216 115.99 307.988 114.352 308.978 113.632C311.93 114.91 313.532 115.972 314.342 116.512L315.332 115.108ZM311.408 107.71C311.21 108.304 310.526 110.374 308.798 111.958C306.998 111.274 305.198 110.752 303.902 110.374C304.262 109.906 304.784 109.222 305.648 107.71H311.408ZM300.014 101.428V105.352H301.544V102.814H314.234V105.352H315.764V101.428H308.618V99.808H307.07V101.428H300.014ZM326.56 106.306C325.552 106.306 324.706 107.116 324.706 108.16C324.706 109.168 325.516 110.014 326.56 110.014C327.604 110.014 328.414 109.15 328.414 108.16C328.414 107.152 327.586 106.306 326.56 106.306ZM1.548 139.736C1.944 138.26 2.106 135.92 2.124 134.678L0.972 134.57C0.972 135.47 0.864 137.54 0.36 139.16L1.548 139.736ZM2.862 130.808V147.512H4.32V130.808H2.862ZM6.516 136.82C6.426 136.514 6.03 135.128 5.58 134.102L4.5 134.534C4.878 135.47 5.166 136.532 5.31 137.288L6.516 136.82ZM16.794 137.144H15.372V145.838H7.74V137.144H6.318V147.134H16.794V137.144ZM12.996 136.622C12.582 137.99 12.204 138.728 11.736 139.61C10.836 138.692 10.296 138.188 9.486 137.576L8.55 138.494C9.63 139.376 10.224 139.97 11.016 140.798C10.206 142.004 9.504 142.886 8.226 143.912L9.216 144.938C10.8 143.57 11.43 142.706 11.988 141.896C12.546 142.526 12.978 143.066 13.77 144.254L14.832 143.3C14.328 142.526 13.878 141.896 12.762 140.69C13.284 139.772 13.752 138.89 14.274 137.18L12.996 136.622ZM12.492 134.516C12.06 132.842 11.268 131.276 11.052 130.844L9.72 131.222C9.828 131.438 10.746 133.346 11.106 134.948L12.492 134.516ZM15.138 136.1C16.02 134.876 16.902 133.058 17.316 131.726L15.966 131.132C15.75 131.762 15.102 133.724 13.896 135.47L15.138 136.1ZM9.108 135.218C8.658 134.03 7.884 132.626 7.128 131.6L5.886 132.122C6.678 133.256 7.362 134.66 7.776 135.722L9.108 135.218ZM27.986 146.882C31.82 145.514 32.738 142.508 33.17 140.744C34.07 141.14 34.376 141.302 35.186 141.788L35.726 140.168C34.61 139.556 33.566 139.16 33.512 139.142C33.782 137.702 33.926 136.136 34.052 134.84L32.342 134.714C32.306 135.542 32.216 136.82 31.946 138.584C30.308 138.044 29.12 137.756 27.608 137.63C28.202 134.084 28.256 133.688 28.49 131.888H21.038V133.454L26.672 133.4C26.564 134.678 26.33 136.28 26.078 137.576C20.192 137.81 19.868 141.68 19.868 142.562C19.868 144.488 21.128 145.64 22.856 145.64C25.574 145.64 26.366 143.066 27.338 139.052C28.958 139.196 30.488 139.664 31.658 140.114C31.028 142.724 30.092 144.524 26.996 145.64L27.986 146.882ZM25.808 138.962C24.854 142.868 24.368 144.218 22.748 144.218C21.38 144.218 21.29 142.814 21.29 142.472C21.29 141.248 22.028 140.078 23.198 139.502C23.99 139.106 24.746 138.998 25.808 138.962ZM46.36 137.306C45.352 137.306 44.506 138.116 44.506 139.16C44.506 140.168 45.316 141.014 46.36 141.014C47.404 141.014 48.214 140.15 48.214 139.16C48.214 138.152 47.386 137.306 46.36 137.306ZM56.67 132.356V133.76H60.684V135.596H62.142V133.76H67.902V135.596H69.342V133.76H73.41V132.356H69.342V130.79H67.902V132.356H62.142V130.79H60.684V132.356H56.67ZM73.41 136.748H65.742V134.768H64.248V136.748H56.67V138.134H64.248V140.456H58.488V147.17H71.556V140.456H65.742V138.134H73.41V136.748ZM70.062 145.856H59.982V141.788H70.062V145.856ZM87.23 138.134C87.104 138.044 86.942 137.918 86.834 137.846C87.248 137.648 89.102 136.784 90.722 135.47V134.516H80.354V135.596H88.292C87.32 136.316 86.816 136.604 85.736 137.144C85.466 136.964 84.494 136.388 83.504 135.938L82.64 136.91C83.828 137.396 84.494 137.738 85.034 138.134H80.678V147.53H82.082V144.542H85.25V147.476H86.636V144.542H90.002V145.676C90.002 146 89.84 146.054 89.588 146.054H88.094L88.364 147.53H90.146C91.388 147.53 91.388 146.63 91.388 146.09V138.134H87.23ZM85.25 140.744H82.082V139.286H85.25V140.744ZM85.25 143.408H82.082V141.86H85.25V143.408ZM90.002 140.744H86.636V139.286H90.002V140.744ZM90.002 143.408H86.636V141.86H90.002V143.408ZM78.158 138.566C78.158 138.98 78.14 139.232 78.122 139.484C77.96 139.592 76.646 140.312 75.224 140.852L75.584 142.328C76.214 142.004 76.826 141.698 78.014 140.978C77.69 143.678 77.168 145.082 75.89 146.576L77.078 147.584C77.888 146.612 79.562 144.614 79.562 138.278V133.508H92V132.23H85.412V130.772H83.9V132.23H78.158V138.566ZM77.744 136.874C77.51 135.938 77.024 134.606 76.502 133.634L75.314 134.282C75.728 135.092 76.25 136.46 76.502 137.486L77.744 136.874ZM101.158 133.202C101.41 132.302 101.5 131.888 101.608 131.258L99.88 131.186C99.754 132.212 99.628 132.734 99.502 133.202H95.362V134.642H99.07C97.918 138.008 96.478 139.916 94.894 141.41L96.01 142.616C96.586 142.022 97.774 140.438 98.602 139.304C99.862 138.026 101.176 137.468 102.166 137.468C102.994 137.468 103.498 137.828 103.696 138.89C101.914 139.682 98.692 141.302 98.692 143.75C98.692 146.648 102.76 146.648 104.794 146.648C106.504 146.648 108.07 146.54 109.096 146.468L109.042 144.92C107.422 145.1 105.73 145.172 104.29 145.172C102.31 145.172 100.312 145.172 100.312 143.588C100.312 142.112 102.49 140.96 103.876 140.312C103.912 140.78 103.912 141.086 103.912 141.392C103.912 142.04 103.858 142.706 103.822 143.12H105.388C105.442 142.544 105.442 142.004 105.442 141.752C105.442 141.104 105.424 140.33 105.37 139.7C107.35 138.944 108.628 138.548 110.086 138.134L109.654 136.568C108.034 137.126 105.568 138.116 105.154 138.278C104.794 136.568 103.642 136.172 102.418 136.172C101.518 136.172 100.798 136.478 99.538 137.234C100.06 136.334 100.312 135.74 100.726 134.642H108.664V133.202H101.158ZM117.606 132.698C118.668 132.518 119.244 132.374 120.216 132.122L119.676 130.808C117.336 131.438 115.338 131.708 112.71 131.78L113.016 133.13C114.474 133.076 115.212 133.004 116.148 132.896V135.542H112.674V136.874H115.968C115.41 138.152 114.294 140.492 112.44 142.31L113.088 144.02C114.762 142.202 115.662 140.51 116.148 139.43V147.512H117.606V139.088C118.272 140.312 118.956 141.266 119.802 142.094L120.54 140.672C119.064 139.412 118.074 137.828 117.606 136.928V136.874H120.504V135.542H117.606V132.698ZM128.82 131.96H121.152V147.026H128.82V131.96ZM127.344 145.622H122.592V133.328H127.344V145.622ZM144.26 132.536C141.506 131.636 138.428 131.474 136.88 131.402L136.592 132.95C139.022 133.04 141.668 133.382 143.81 134.246L144.26 132.536ZM134.396 133.976C134.162 134.912 134 135.902 133.928 137.576C133.91 138.116 133.856 140.816 133.856 141.428L135.458 141.482C135.476 141.392 135.494 141.338 135.548 141.158C136.736 139.592 139.148 138.566 141.56 138.566C143.936 138.566 144.89 139.862 144.89 141.266C144.89 142.004 144.692 142.85 144.188 143.39C143.108 144.578 140.948 145.064 138.464 145.064C137.258 145.064 136.16 144.956 134.954 144.74L135.134 146.324C135.872 146.432 136.934 146.576 138.59 146.576C142.442 146.576 146.6 145.604 146.6 141.284C146.6 139.79 145.826 137.108 141.65 137.108C139.31 137.108 137.294 137.864 135.458 139.322C135.458 136.676 135.602 135.632 136.016 134.264L134.396 133.976ZM156.802 146.9C160.618 146.162 162.832 144.848 162.832 139.052C162.832 138.746 162.796 137.522 162.778 137.036H165.982V135.524H162.688C162.652 134.966 162.508 132.356 162.454 131.654L160.906 131.69C160.96 132.644 161.05 134.714 161.086 135.524H155.02V137.036H161.14C161.158 137.594 161.176 138.44 161.176 138.818C161.176 143.732 159.664 144.776 156.208 145.442L156.802 146.9ZM162.742 130.916C163.318 132.23 163.624 133.328 163.84 134.642L165.136 134.174C164.794 132.734 164.578 131.87 163.948 130.502L162.742 130.916ZM165.19 130.448C165.766 131.762 166.018 132.644 166.288 134.156L167.584 133.688C167.17 131.978 167.026 131.384 166.396 130.016L165.19 130.448ZM151.906 131.69C151.546 134.372 151.366 137.072 151.366 139.772C151.366 142.004 151.456 144.254 151.924 146.45L153.598 146.234C153.112 143.966 152.986 141.698 152.986 139.61C152.986 135.866 153.4 133.202 153.634 131.798L151.906 131.69ZM178.38 133.454V131.564H176.796V133.454H169.956V134.84H176.796V137.072H170.226V138.44H176.796V140.564C176.418 140.492 175.806 140.384 174.996 140.384C172.314 140.384 170.46 141.752 170.46 143.642C170.46 144.794 171.216 146.666 174.726 146.666C176.238 146.666 178.38 146.18 178.38 143.606V142.58C179.37 143.03 180.954 143.858 182.7 145.784L183.762 144.236C181.872 142.652 180.288 141.662 178.38 140.96V138.44H183.78V137.072H178.38V134.84H184.122V133.454H178.38ZM176.796 143.282C176.796 144.704 176.094 145.262 174.528 145.262C172.152 145.262 171.972 143.93 171.972 143.588C171.972 142.4 173.322 141.716 174.996 141.716C175.914 141.716 176.436 141.86 176.796 141.968V143.282ZM198.626 133.4V131.384H196.97L197.006 133.4H188.15V134.894H197.024L197.042 136.838C196.664 136.514 196.232 136.118 195.026 136.118C192.794 136.118 191.3 137.666 191.3 139.772C191.3 141.518 192.416 143.3 194.648 143.3C196.718 143.3 197.312 141.95 197.492 141.572C197.258 143.714 195.926 145.37 191.12 145.316L191.624 146.828C194.756 146.702 198.968 145.838 198.968 141.086C198.968 140.618 198.932 140.15 198.86 139.7C198.806 139.268 198.716 138.854 198.626 138.512V134.894H203.342V133.4H198.626ZM197.078 139.898C197.078 141.086 196.142 141.986 194.864 141.986C193.19 141.986 192.812 140.456 192.812 139.7C192.812 138.044 194.072 137.468 195.062 137.468C196.646 137.468 196.934 138.53 197.078 139.106V139.898ZM209.458 141.554C207.982 141.554 206.776 142.742 206.776 144.236C206.776 145.712 207.964 146.918 209.458 146.918C210.934 146.918 212.14 145.712 212.14 144.236C212.14 142.724 210.916 141.554 209.458 141.554ZM209.458 142.454C210.412 142.454 211.222 143.228 211.222 144.236C211.222 145.208 210.43 146 209.458 146C208.468 146 207.676 145.208 207.676 144.236C207.676 143.246 208.486 142.454 209.458 142.454Z" fill="black"/>
</svg>
