<svg width="342" height="38" viewBox="0 0 342 38" fill="none" xmlns="http://www.w3.org/2000/svg">
<path d="M1.92 1.45V5.31C1.01 5.72 0.87 5.79 0.21 6.01L0.44 6.83C0.69 6.72 1.23 6.47 1.85 6.1C1.58 8.03 0.77 8.9 0.43 9.26L1.11 9.82C1.57 9.27 2.72 7.93 2.72 4.88V2.2H9.66V1.45H5.94V0.569999H5.12V1.45H1.92ZM1.62 3.88C1.47 3.25 1.3 2.75 0.94 2.11L0.27 2.45C0.42 2.72 0.7 3.22 0.9 4.24L1.62 3.88ZM9.44 3.25H3.11V3.98H5.92V8.85H4.51V4.93H3.68V8.85H2.38V9.6H9.61V8.85H6.73V6.56H9.12V5.83H6.73V3.98H9.44V3.25ZM20.11 9C19.49 8.61 17.76 7.51 17.13 4.06H19.99V3.26H17.09V0.569999H16.23V3.26H13.74V4.06H16.2C16.16 4.59 16.05 5.12 15.91 5.64C15.47 7.29 14.73 8.29 13.5 9.08L13.97 9.83C15.74 8.58 16.4 7.06 16.77 5.72C17.26 7.16 17.96 8.73 19.63 9.79L20.11 9ZM12.48 0.569999V5.67C11.73 6.22 10.86 6.7 10.57 6.86L10.82 7.75C11.23 7.55 12.11 7 12.48 6.68V9.83H13.31V0.569999H12.48ZM12.18 3.83C12 3.15 11.69 2.43 11.36 1.84L10.64 2.16C11.03 2.9 11.2 3.32 11.43 4.15L12.18 3.83ZM19.51 2.39C19.35 2.13 18.95 1.45 18.26 0.73L17.63 1.15C18.12 1.67 18.6 2.42 18.82 2.81L19.51 2.39ZM24.62 9.88C25.27 9.68 26.8 9.15 27.48 7.4C27.74 8.04 28.49 9.28 30.15 9.85L30.55 9.1C29.84 8.87 28.71 8.44 28.09 7.03H30.05V4.26H27.8V3.34H29.2V2.97C29.48 3.18 29.73 3.34 30.14 3.58L30.58 2.86C28.88 2 28.28 1.2 27.89 0.54H26.91C26.14 1.65 25.44 2.27 24.28 2.87L24.68 3.59C24.94 3.46 25.22 3.31 25.67 2.98V3.34H27.01V4.26H24.76V7.03H26.79C26.35 8.58 24.67 9.03 24.21 9.15L24.62 9.88ZM27.8 4.95H29.28V6.34H27.74C27.78 6.07 27.8 5.81 27.8 5.18V4.95ZM27.01 5.2C27.01 5.78 26.99 6.07 26.95 6.34H25.55V4.95H27.01V5.2ZM26.06 2.65C26.64 2.12 27.16 1.45 27.4 1.15C27.64 1.46 28.16 2.13 28.79 2.65H26.06ZM24.59 5.61C23.82 4.78 23.46 4 23.32 3.64V3.26H24.19V2.5H23.32V0.56H22.53V2.5H21.13V3.26H22.47C21.95 5.38 21.33 6.18 20.96 6.66L21.31 7.65C21.88 6.87 22.28 5.98 22.53 5.04V9.84H23.32V4.84C23.56 5.44 23.79 5.81 24.18 6.36L24.59 5.61ZM37.29 3.81C37.02 4.12 36.63 4.59 35.56 5.56C35.45 5.47 35.26 5.32 34.77 5C34.81 4.96 35.52 4.35 36.04 3.66H39.77V4.84H40.6V2.94H36.55V2.09H40.6V1.35H36.55V0.579999H35.73V1.35H31.72V2.09H35.73V2.94H31.68V4.84H32.5V3.66H34.98C34.8 3.91 34.64 4.13 34.14 4.6C33.78 4.37 33.67 4.32 33.48 4.22L32.97 4.83C34.03 5.34 34.82 5.92 35 6.07C34.91 6.15 34.84 6.21 34.65 6.36C34.2 6.37 32.02 6.39 31.53 6.38L31.59 7.15C32.18 7.15 35.08 7.09 35.73 7.08V9.82H36.56V7.04L39.41 6.89C39.77 7.24 39.93 7.44 40.09 7.65L40.66 7.08C40.38 6.75 39.73 5.97 38.38 4.99L37.8 5.51C38.04 5.68 38.2 5.79 38.73 6.25C36.7 6.32 36.47 6.33 35.78 6.36C37.06 5.24 37.47 4.87 38 4.27L37.29 3.81ZM31.99 9.72C32.52 9.46 33.66 8.88 34.58 7.8L33.93 7.35C33.05 8.36 31.76 8.93 31.47 9.06L31.99 9.72ZM37.56 7.76C38.03 8.25 38.78 8.98 40.32 9.67L40.83 8.96C39.67 8.52 38.92 8.05 38.14 7.28L37.56 7.76ZM46.98 2.63H50.13V1.76H42.9V2.63H46.03V7.77H42.36V8.66H50.67V7.77H46.98V2.63ZM56.58 2.98C56.32 2.82 55.22 2.11 53.45 1.58L53 2.38C54.44 2.83 55.49 3.42 56.08 3.82L56.58 2.98ZM53.39 9.16C59.15 8.78 60.75 4.11 61.23 2.69L60.45 2.11C59.76 4.35 58.27 7.89 53.21 8.16L53.39 9.16ZM67.37 2.33C66.58 1.95 65.6 1.5 64.44 1.24L64.08 2C65.11 2.29 66.07 2.65 66.99 3.16L67.37 2.33ZM66.55 4.67C65.78 4.22 64.58 3.76 63.66 3.54L63.31 4.33C64.75 4.75 65.66 5.22 66.18 5.52L66.55 4.67ZM68.98 0.69C69.44 1.48 69.58 1.82 69.85 2.65L70.55 2.3C70.22 1.42 70.03 0.96 69.63 0.36L68.98 0.69ZM70.65 0.59C71.08 1.35 71.24 1.77 71.49 2.57L72.2 2.23C71.9 1.33 71.63 0.79 71.31 0.28L70.65 0.59ZM64.05 9.22C68.13 8.69 70.07 7.15 71.37 3.44L70.59 2.87C69.49 6.34 67.81 7.85 63.83 8.24L64.05 9.22ZM77.34 2.98C77.08 2.82 75.98 2.11 74.21 1.58L73.76 2.38C75.2 2.83 76.25 3.42 76.84 3.82L77.34 2.98ZM74.15 9.16C79.91 8.78 81.51 4.11 81.99 2.69L81.21 2.11C80.52 4.35 79.03 7.89 73.97 8.16L74.15 9.16ZM90.87 9.81V1.24H92.79V0.439999H90.07V9.81H90.87ZM100.1 7.67C100.69 5.18 100.89 2.66 100.96 1.88H95.43V2.77H99.94C99.88 3.49 99.69 5.6 99.14 7.67H94.16V8.56H102.63V7.67H100.1ZM106.35 1.25H105.43V7.58C105.43 8.85 106.05 9.1 107.54 9.1H110.34C110.97 9.1 111.92 9.07 112.53 8.97L112.48 8.07C111.84 8.19 111.04 8.23 110.24 8.23H107.67C106.53 8.23 106.35 8.15 106.35 7.43V5.22C107.4 5 109.23 4.54 111.42 3.54L111.01 2.7C109.51 3.47 108.13 3.94 106.35 4.35V1.25ZM110.7 0.949999C111.15 1.64 111.38 2.08 111.68 2.87L112.36 2.47C112.04 1.73 111.79 1.22 111.34 0.59L110.7 0.949999ZM112.23 0.479999C112.73 1.24 112.9 1.6 113.2 2.4L113.88 2.01C113.59 1.3 113.31 0.719999 112.87 0.119999L112.23 0.479999ZM114.88 4.72V5.67H123.48V4.72H114.88ZM126.73 0.59V9.16H124.81V9.96H127.53V0.59H126.73ZM142.14 2.73L142.12 1.04H141.21L141.24 2.73H138.24V3.59H141.26L141.3 5.95C141.02 5.87 140.77 5.8 140.27 5.8C139 5.8 138.08 6.51 138.08 7.55C138.08 8.36 138.66 9.27 140.22 9.27C142.13 9.27 142.14 8.14 142.14 7.57V7.2C142.69 7.55 143.19 7.97 143.59 8.5L144.18 7.69C143.72 7.2 142.98 6.63 142.17 6.23L142.14 3.59H144.01V2.73H142.14ZM141.3 7.39C141.3 7.93 141.26 8.52 140.17 8.52C139.64 8.52 138.88 8.33 138.88 7.56C138.88 6.81 139.61 6.55 140.28 6.55C140.79 6.55 141.07 6.67 141.3 6.77V7.39ZM136.33 1.02C136.06 2.58 135.96 4.03 135.96 5.61C135.96 6.84 136 8.08 136.24 9.29L137.14 9.17C136.88 8.03 136.83 6.85 136.83 5.68C136.83 3.44 137.07 2.09 137.26 1.09L136.33 1.02ZM153.15 9.81V1.24H155.07V0.439999H152.35V9.81H153.15ZM161.47 0.56V1.19H158.48V1.87H159.94C159.97 1.95 160.15 2.62 160.19 2.78H158.81V8.31H159.57V3.43H161.51V4.18H159.88V4.8H161.51V5.49H160.24V7.56H163.52V5.49H162.24V4.8H163.86V4.18H162.24V3.43H164.17V7.44C164.17 7.67 164.08 7.69 163.95 7.69L163.02 7.68L163.13 8.44H164.19C164.71 8.44 164.93 8.15 164.93 7.67V2.78H163.47C163.61 2.44 163.69 2.21 163.79 1.87H165.3V1.19H162.28V0.56H161.47ZM160.91 2.78C160.82 2.39 160.81 2.34 160.69 1.87H163.06C163.03 2 162.88 2.52 162.77 2.78H160.91ZM162.83 6.95H160.92V6.09H162.83V6.95ZM160.28 8.83C159.99 8.83 158.17 8.69 157.97 7.47V4.44H156.1V5.26H157.18V8.08C156.74 8.55 156.17 8.92 155.99 9.03L156.39 9.88C157.1 9.26 157.15 9.2 157.79 8.47C158.01 8.76 158.63 9.6 160.27 9.6H165.27L165.43 8.83H160.28ZM158.33 2.36C157.85 1.69 157.27 1.1 156.8 0.7L156.25 1.2C157.15 2.08 157.5 2.62 157.68 2.89L158.33 2.36ZM167.35 3.36L166.32 3.53L166.37 4.34L167.35 4.18V7.38C167.35 7.86 167.6 8.11 168.07 8.11H169.24C170.06 8.11 170.25 7.32 170.41 6.01L169.6 5.82C169.58 6.2 169.51 7.34 169.08 7.34H168.46C168.21 7.34 168.16 7.27 168.16 7.05V4.05L170.36 3.69L170.31 2.87L168.16 3.22V0.569999H167.35V3.36ZM170.08 1V1.81H171.87C171.87 5.32 171.55 7.57 168.63 9.13L169.21 9.85C171.98 8.16 172.67 6.18 172.71 1.81H174.6C174.6 2.95 174.6 7.85 174.07 8.71C173.9 8.99 173.57 8.98 173.47 8.98L171.98 8.97L172.16 9.82H173.61C174.5 9.82 174.77 9.36 174.89 9.11C175.44 7.93 175.44 3.44 175.44 1H170.08ZM183.75 3.74H182.85L182.91 5.88C182.69 5.83 182.37 5.76 181.87 5.76C180.1 5.76 179.52 6.87 179.52 7.62C179.52 8.55 180.26 9.38 181.76 9.38C182.75 9.38 183.76 9.02 183.76 7.54V7.13C184.12 7.34 184.73 7.71 185.38 8.49L185.93 7.7C185.44 7.16 184.64 6.54 183.8 6.17L183.75 3.74ZM182.93 7.38C182.93 8.06 182.78 8.6 181.79 8.6C181.6 8.6 180.37 8.6 180.37 7.59C180.37 7.03 180.85 6.52 181.87 6.52C182.4 6.52 182.7 6.63 182.93 6.71V7.38ZM179.96 2.2C180.09 1.47 180.1 1.41 180.18 0.93L179.23 0.89C179.19 1.29 179.16 1.51 179.05 2.2H177.2V3.04H178.89C178.63 4.16 178.19 6.12 177.12 7.84L178.04 8.24C178.4 7.5 179.22 5.83 179.79 3.04H182.06V2.2H179.96ZM185.76 2.98C184.7 2.39 184.03 2.09 183.03 1.74L182.68 2.48C183.58 2.81 184.33 3.17 185.34 3.78L185.76 2.98ZM188.33 5.17C189.03 4.73 189.31 4.45 189.6 4.16C191.07 4.9 191.95 5.52 192.78 6.23C191.64 7.48 190.09 8.22 188.45 8.61L188.88 9.44C194.88 7.88 195.4 3.1 195.58 1.47H190.41C189.81 2.8 188.93 3.73 187.74 4.47L188.33 5.17ZM194.55 2.3C194.32 3.85 193.86 4.77 193.33 5.55C192.34 4.7 191.19 4.08 190.15 3.56C190.42 3.23 190.6 3 191.01 2.3H194.55ZM203.29 4.06C204.69 2.94 205.52 1.97 205.96 1.45L205.12 0.899999C203.26 3.24 200.8 5.05 197.95 5.94L198.39 6.77C199.67 6.32 200.97 5.72 202.33 4.77V9.43H203.29V4.06ZM215.97 2.01C213.64 1.48 211.84 1.26 209.43 1.12L209.28 1.95C211.76 2.08 213.71 2.37 215.8 2.93L215.97 2.01ZM215.45 5.04C213.79 4.54 212.2 4.2 209.38 3.99L209.21 4.82C211.71 5.01 213.33 5.29 215.29 5.91L215.45 5.04ZM216.38 8.43C215.28 8.11 212.76 7.37 208.79 7.17L208.61 8.02C212.17 8.29 214 8.69 216.13 9.38L216.38 8.43ZM222.66 2.98C222.4 2.82 221.3 2.11 219.53 1.58L219.08 2.38C220.52 2.83 221.57 3.42 222.16 3.82L222.66 2.98ZM219.47 9.16C225.23 8.78 226.83 4.11 227.31 2.69L226.53 2.11C225.84 4.35 224.35 7.89 219.29 8.16L219.47 9.16ZM229.84 9.52C233.4 8.72 235.49 6.74 236.32 2.93L235.39 1.7H231.39C230.69 3.1 229.67 3.96 228.89 4.49L229.46 5.17C230.59 4.41 231.33 3.59 231.99 2.54H235.46C234.89 5.55 233.34 7.9 229.46 8.67L229.84 9.52ZM236.74 0.5C237.26 1.21 237.46 1.61 237.8 2.38L238.44 1.96C238.02 1.12 237.85 0.77 237.34 0.119999L236.74 0.5ZM235.41 0.89C235.9 1.54 236.15 1.97 236.5 2.75L237.13 2.32C236.71 1.49 236.51 1.13 236 0.5L235.41 0.89ZM245.13 4C245.6 4.66 245.85 5.13 246.18 5.93L246.88 5.49C246.53 4.73 246.24 4.19 245.78 3.6L245.13 4ZM246.61 3.36C247.09 4.05 247.32 4.48 247.66 5.29L248.36 4.85C248 4.07 247.74 3.58 247.26 2.96L246.61 3.36ZM247.83 1.48C245.54 1.49 244.6 1.51 242.23 1.64C241.72 1.67 239.99 1.75 239.5 1.76L239.58 2.74C240.67 2.61 244.13 2.4 244.42 2.39C243.24 3.08 241.49 4.39 241.49 6.29C241.49 9.09 244.81 9.23 246.78 9.31L246.96 8.34C246.07 8.37 245.08 8.29 244.44 8.16C243.38 7.94 242.42 7.53 242.42 6.23C242.42 4.51 244.38 2.96 245.82 2.48C246.12 2.38 246.34 2.36 246.83 2.36C247.11 2.36 247.42 2.37 247.85 2.4L247.83 1.48ZM254.37 9.31C255.48 9.2 256.48 8.86 257.13 8.32C258.04 7.56 258.47 6.38 258.47 5.19C258.47 3.5 257.6 1.26 254.36 1.26C251.72 1.26 249.74 3 249.74 5.72C249.74 7.37 250.56 8.53 251.54 8.53C251.99 8.53 252.63 8.3 253.22 7.37C254.25 5.72 254.45 3.26 254.54 2.1C257.29 2.19 257.53 4.39 257.53 5.18C257.53 8.04 255.1 8.33 254.07 8.44L254.37 9.31ZM253.65 2.14C253.55 3.29 253.39 5.32 252.55 6.76C252.29 7.2 251.99 7.57 251.57 7.57C250.86 7.57 250.61 6.42 250.61 5.74C250.61 4.58 251.07 3.46 252 2.78C252.51 2.4 253.06 2.25 253.65 2.14ZM265.27 0.56V1.19H262.28V1.87H263.74C263.77 1.95 263.95 2.62 263.99 2.78H262.61V8.31H263.37V3.43H265.31V4.18H263.68V4.8H265.31V5.49H264.04V7.56H267.32V5.49H266.04V4.8H267.66V4.18H266.04V3.43H267.97V7.44C267.97 7.67 267.88 7.69 267.75 7.69L266.82 7.68L266.93 8.44H267.99C268.51 8.44 268.73 8.15 268.73 7.67V2.78H267.27C267.41 2.44 267.49 2.21 267.59 1.87H269.1V1.19H266.08V0.56H265.27ZM264.71 2.78C264.62 2.39 264.61 2.34 264.49 1.87H266.86C266.83 2 266.68 2.52 266.57 2.78H264.71ZM266.63 6.95H264.72V6.09H266.63V6.95ZM264.08 8.83C263.79 8.83 261.97 8.69 261.77 7.47V4.44H259.9V5.26H260.98V8.08C260.54 8.55 259.97 8.92 259.79 9.03L260.19 9.88C260.9 9.26 260.95 9.2 261.59 8.47C261.81 8.76 262.43 9.6 264.07 9.6H269.07L269.23 8.83H264.08ZM262.13 2.36C261.65 1.69 261.07 1.1 260.6 0.7L260.05 1.2C260.95 2.08 261.3 2.62 261.48 2.89L262.13 2.36ZM271.15 3.36L270.12 3.53L270.17 4.34L271.15 4.18V7.38C271.15 7.86 271.4 8.11 271.87 8.11H273.04C273.86 8.11 274.05 7.32 274.21 6.01L273.4 5.82C273.38 6.2 273.31 7.34 272.88 7.34H272.26C272.01 7.34 271.96 7.27 271.96 7.05V4.05L274.16 3.69L274.11 2.87L271.96 3.22V0.569999H271.15V3.36ZM273.88 1V1.81H275.67C275.67 5.32 275.35 7.57 272.43 9.13L273.01 9.85C275.78 8.16 276.47 6.18 276.51 1.81H278.4C278.4 2.95 278.4 7.85 277.87 8.71C277.7 8.99 277.37 8.98 277.27 8.98L275.78 8.97L275.96 9.82H277.41C278.3 9.82 278.57 9.36 278.69 9.11C279.24 7.93 279.24 3.44 279.24 1H273.88ZM287.55 3.74H286.65L286.71 5.88C286.49 5.83 286.17 5.76 285.67 5.76C283.9 5.76 283.32 6.87 283.32 7.62C283.32 8.55 284.06 9.38 285.56 9.38C286.55 9.38 287.56 9.02 287.56 7.54V7.13C287.92 7.34 288.53 7.71 289.18 8.49L289.73 7.7C289.24 7.16 288.44 6.54 287.6 6.17L287.55 3.74ZM286.73 7.38C286.73 8.06 286.58 8.6 285.59 8.6C285.4 8.6 284.17 8.6 284.17 7.59C284.17 7.03 284.65 6.52 285.67 6.52C286.2 6.52 286.5 6.63 286.73 6.71V7.38ZM283.76 2.2C283.89 1.47 283.9 1.41 283.98 0.93L283.03 0.89C282.99 1.29 282.96 1.51 282.85 2.2H281V3.04H282.69C282.43 4.16 281.99 6.12 280.92 7.84L281.84 8.24C282.2 7.5 283.02 5.83 283.59 3.04H285.86V2.2H283.76ZM289.56 2.98C288.5 2.39 287.83 2.09 286.83 1.74L286.48 2.48C287.38 2.81 288.13 3.17 289.14 3.78L289.56 2.98ZM296.4 5C296.47 4.57 296.5 4.24 296.5 3.66H299.25V2.93H294.69C294.83 2.66 294.91 2.49 295.07 2.09L294.27 1.92C293.96 2.89 293.37 3.62 292.66 4.19L293.29 4.73C293.68 4.38 293.91 4.13 294.25 3.66H295.72C295.72 4.38 295.67 4.69 295.62 5H292.71V5.74H295.38C294.67 7.21 293.08 7.6 292.58 7.72L293.06 8.45C294.2 8.07 295.48 7.42 296.14 5.9C296.39 6.47 297.19 7.74 299.45 8.44L299.89 7.67C298.27 7.31 297.21 6.38 296.87 5.74H299.67V5H296.4ZM291.34 0.89V9.63H300.22V8.87H292.19V1.66H300.01V0.89H291.34ZM309.6 5.42C309.91 5.61 310.1 5.7 310.37 5.83L310.75 5.16C310.47 5.06 310.2 4.96 309.75 4.71C309.77 4.68 310.12 4.34 310.43 3.94L309.87 3.6C309.76 3.75 309.52 4.05 309.23 4.36C308.75 3.99 308.5 3.66 308.3 3.41H310.63V2.78H306.99C307.06 2.64 307.1 2.54 307.2 2.29L306.41 2.2C306.33 2.43 306.28 2.56 306.18 2.78H303.78V3.41H305.8C305.52 3.78 305.27 4.04 304.96 4.29C304.87 4.19 304.59 3.88 304.27 3.64L303.81 4.06C304.09 4.28 304.12 4.31 304.45 4.66C304.11 4.89 303.85 5.02 303.5 5.19L303.94 5.79C304.16 5.66 304.23 5.62 304.44 5.49V7.57H306.59V8.86C306.59 9.06 306.56 9.1 306.36 9.1H305.41L305.58 9.82H306.66C306.97 9.82 307.4 9.8 307.4 9.18V7.57H309.6V5.42ZM308.87 5.81H305.17V5.21H308.87V5.81ZM305.58 4.63C306.23 4.04 306.51 3.6 306.63 3.41H307.48C307.7 3.73 307.95 4.11 308.53 4.63H305.58ZM308.87 6.99H305.17V6.36H308.87V6.99ZM302.67 4.76C302.67 5.04 302.66 5.23 302.66 5.39C302.16 5.64 301.93 5.75 301.24 6.02L301.41 6.84C301.71 6.69 302.09 6.5 302.59 6.17C302.37 8.03 301.82 8.75 301.37 9.31L301.98 9.85C302.38 9.37 303.46 8.08 303.46 4.79V2.07H310.66V1.37H306.94V0.56H306.12V1.37H302.67V4.76ZM302.46 3.9C302.36 3.39 302.15 2.69 301.86 2.12L301.24 2.42C301.47 2.99 301.65 3.63 301.76 4.23L302.46 3.9ZM303.52 9.67C304.19 9.42 304.81 9.09 305.66 8.26L305.08 7.78C304.37 8.46 303.88 8.73 303.08 9L303.52 9.67ZM308.21 8.27C308.75 8.88 309.6 9.41 310.37 9.68L310.81 9C309.88 8.67 309.46 8.43 308.74 7.74L308.21 8.27ZM319.72 3.26C318.17 3.51 317.35 3.67 316.27 4C316.06 3.57 316.01 3.04 316.01 1.98C316.01 1.49 316.02 1.21 316.03 0.939999H315.05C315.08 3.07 315.1 3.65 315.43 4.3C314.73 4.6 312.67 5.46 312.67 7.17C312.67 9.3 315.44 9.3 317.17 9.3C318.61 9.3 319.49 9.24 320.14 9.2L320.12 8.26C319.55 8.32 318.62 8.41 316.97 8.41C314.82 8.41 313.6 8.3 313.6 7.14C313.6 4.92 319 4.31 319.81 4.22L319.72 3.26ZM327.03 9.31C328.14 9.2 329.14 8.86 329.79 8.32C330.7 7.56 331.13 6.38 331.13 5.19C331.13 3.5 330.26 1.26 327.02 1.26C324.38 1.26 322.4 3 322.4 5.72C322.4 7.37 323.22 8.53 324.2 8.53C324.65 8.53 325.29 8.3 325.88 7.37C326.91 5.72 327.11 3.26 327.2 2.1C329.95 2.19 330.19 4.39 330.19 5.18C330.19 8.04 327.76 8.33 326.73 8.44L327.03 9.31ZM326.31 2.14C326.21 3.29 326.05 5.32 325.21 6.76C324.95 7.2 324.65 7.57 324.23 7.57C323.52 7.57 323.27 6.42 323.27 5.74C323.27 4.58 323.73 3.46 324.66 2.78C325.17 2.4 325.72 2.25 326.31 2.14ZM333.23 1.3V4.97H336.73V8.87H333.73V5.74H332.89V9.64H341.42V5.74H340.57V8.87H337.57V4.97H341.09V1.3H340.24V4.2H337.57V0.56H336.73V4.2H334.08V1.3H333.23ZM6.11 20.9C6.89 21.69 7.39 22.32 7.49 22.45C6.75 22.52 5.72 22.61 4.5 22.66C4.29 22.67 3.17 22.7 2.92 22.71C3.57 21.56 3.97 20.69 4.21 20.14H9.43V19.37H0.5V20.14H3.24C3.02 20.72 2.64 21.65 2.01 22.73H0.63L0.72 23.55C2.26 23.55 6.34 23.37 8.01 23.13C8.22 23.44 8.34 23.63 8.5 23.9L9.22 23.42C8.45 22.2 7.84 21.5 6.77 20.45L6.11 20.9ZM7.65 17.53C8.36 18.01 8.92 18.27 9.36 18.47L9.8 17.67C8.06 17.05 6.47 15.84 5.43 14.45H4.54C4.27 14.85 3.15 16.47 0.17 17.64L0.58 18.45C0.92 18.31 1.47 18.07 2.36 17.52V18.08H7.65V17.53ZM2.67 17.32C3.51 16.74 4.36 16.04 4.99 15.16C5.34 15.6 5.92 16.32 7.33 17.32H2.67ZM11.51 15.41C11.45 16.09 11.35 17.18 11.35 18.27C11.35 20.87 11.8 23.11 13.42 23.11C13.93 23.11 14.3 22.87 14.54 22.63C15.1 22.07 15.56 21.23 15.89 20.3L15.15 19.88C14.46 21.68 13.94 22.09 13.49 22.09C12.37 22.09 12.25 19.9 12.25 18.35C12.25 17 12.38 16.09 12.46 15.49L11.51 15.41ZM19.57 22.12C19.71 18.12 18.68 16.71 17.49 15.71L16.8 16.24C17.84 17.09 18.62 18.53 18.62 21.14C18.62 21.6 18.6 21.9 18.58 22.16L19.57 22.12ZM22.93 14.59V23.16H21.01V23.96H23.73V14.59H22.93ZM36.39 23.31C37.5 23.2 38.5 22.86 39.15 22.32C40.06 21.56 40.49 20.38 40.49 19.19C40.49 17.5 39.62 15.26 36.38 15.26C33.74 15.26 31.76 17 31.76 19.72C31.76 21.37 32.58 22.53 33.56 22.53C34.01 22.53 34.65 22.3 35.24 21.37C36.27 19.72 36.47 17.26 36.56 16.1C39.31 16.19 39.55 18.39 39.55 19.18C39.55 22.04 37.12 22.33 36.09 22.44L36.39 23.31ZM35.67 16.14C35.57 17.29 35.41 19.32 34.57 20.76C34.31 21.2 34.01 21.57 33.59 21.57C32.88 21.57 32.63 20.42 32.63 19.74C32.63 18.58 33.09 17.46 34.02 16.78C34.53 16.4 35.08 16.25 35.67 16.14ZM45 18.7C45.25 18.57 45.55 18.42 46.04 18.05V19.21H49.92V18.09C50.27 18.36 50.58 18.54 51.03 18.74L51.35 18.09C50.26 17.6 49.88 17.27 49.39 16.57H51.13V15.95H47.78C47.82 15.87 47.89 15.74 48.05 15.36C48.51 15.33 49.81 15.23 50.56 15.08L50.22 14.48C49.39 14.65 48.05 14.86 45.13 14.85L45.29 15.45C45.67 15.45 46.03 15.45 47.25 15.4C47.2 15.5 47.14 15.63 46.97 15.95H44.89V16.57H46.57C45.89 17.48 45.01 17.89 44.63 18.07L45 18.7ZM48.6 16.57C48.73 16.79 48.88 17.04 49.17 17.39H46.77C47.03 17.11 47.2 16.91 47.42 16.57H48.6ZM49.28 18.66H46.67V17.94H49.28V18.66ZM50.86 19.7H45.09V23.84H45.84V20.31H50.09V22.74C50.09 23.1 50.06 23.16 49.72 23.15L49.07 23.14L49.21 23.84H50.02C50.47 23.84 50.86 23.79 50.86 23.15V19.7ZM48.85 22.33H47.1V21.42H48.85V22.33ZM45.01 19.46C44.37 18.7 44.08 18.05 43.94 17.69V17.27H44.84V16.51H43.94V14.56H43.17V16.51H41.9V17.27H43.14C42.88 18.59 42.25 19.76 41.77 20.43L42.13 21.39C42.38 21.02 42.78 20.4 43.17 19.14V23.84H43.94V18.92C44.1 19.32 44.14 19.42 44.57 20.08L45.01 19.46ZM49.52 20.86H46.42V22.91H49.52V20.86ZM54.93 15.31V19.04C54.93 21.57 54.11 22.67 53.73 23.18L54.38 23.81C54.6 23.49 55.18 22.66 55.46 21.4C55.61 20.71 55.73 19.74 55.73 19.05V17.69H56.88V19.26H60.1V17.69H61.44V17H60.1V16.3H59.36V17H57.62V16.3H56.88V17H55.73V16.05H61.52V15.31H58.64V14.56H57.83V15.31H54.93ZM52.56 15.3C52.94 15.48 53.7 15.91 54.08 16.31L54.59 15.57C53.89 15.06 53.45 14.83 53.02 14.65L52.56 15.3ZM59.36 17.69V18.61H57.62V17.69H59.36ZM61.64 23.06C61.24 22.99 60.41 22.83 59.34 22.39C60.36 21.65 60.74 20.88 60.91 20.53V19.84H56.02V20.55H60.04C59.84 20.86 59.45 21.45 58.53 21.99C57.65 21.46 57.27 20.98 57.07 20.74L56.42 21.09C56.61 21.34 56.98 21.8 57.76 22.37C56.59 22.86 55.72 22.99 55.24 23.06L55.6 23.86C56.83 23.59 57.72 23.29 58.54 22.86C59.78 23.54 60.79 23.74 61.31 23.84L61.64 23.06ZM52.11 17.95C52.65 18.21 53.2 18.56 53.66 18.96L54.16 18.27C53.82 17.99 53.16 17.54 52.57 17.28L52.11 17.95ZM53.52 19.88C53.31 20.65 52.83 21.95 52.08 23.06L52.71 23.76C53.69 22.21 54.08 20.78 54.2 20.29L53.52 19.88ZM64.43 15.02C64.42 15.7 64.36 19.02 64.36 19.77C64.36 21.51 64.54 23.34 67.28 23.34C70.32 23.34 70.97 21.28 71.29 19.47L70.45 19.16C70.17 20.68 69.84 22.48 67.25 22.48C65.37 22.48 65.31 21.14 65.31 19.86C65.31 18.91 65.35 17.72 65.44 15.02H64.43ZM74.27 15.11C73.95 16.61 73.85 18.21 73.85 19.86C73.85 21.77 74.02 22.77 74.11 23.35L75.08 23.27C75 22.91 74.77 21.95 74.77 19.72C74.77 17.2 75.07 15.89 75.22 15.19L74.27 15.11ZM76.74 15.92V16.8H81.44V15.92H76.74ZM76.96 19.23C76.61 19.82 76.43 20.39 76.43 20.91C76.43 22.63 78.28 22.77 79.76 22.77C80.61 22.77 81.31 22.71 81.65 22.68V21.74C80.73 21.84 79.91 21.86 79.36 21.86C78.29 21.86 77.27 21.74 77.27 20.83C77.27 20.74 77.28 20.17 77.77 19.48L76.96 19.23ZM88.55 17.47H91.93V16.57L88.55 16.6L88.54 14.94H87.6L87.64 19.65C87.39 19.62 87.2 19.59 86.87 19.59C85.44 19.59 84.03 20.18 84.03 21.55C84.03 22.53 84.77 23.35 86.42 23.35C88.5 23.35 88.57 22.07 88.56 21.48L88.55 20.79C89.77 21.26 90.93 22.16 91.54 22.84L92.19 21.98C91.7 21.47 90.53 20.51 88.56 19.84L88.55 17.47ZM87.65 21.42C87.65 21.83 87.55 22.52 86.41 22.52C86.19 22.52 84.92 22.52 84.92 21.56C84.92 20.75 85.87 20.41 86.73 20.41C87.15 20.41 87.45 20.47 87.66 20.51L87.65 21.42ZM97.28 23.03C98.08 23.02 98.94 22.95 99.72 22.7C101.63 22.1 101.85 20.53 101.85 19.93C101.85 18.53 100.87 17.47 99.16 17.47C98.63 17.47 97.93 17.57 97.31 17.67C96.97 17.73 95.31 18.03 94.93 18.09L95.08 18.97C96.62 18.58 98.32 18.25 99.12 18.25C100.1 18.25 100.97 18.75 100.97 19.96C100.97 22.28 97.89 22.26 97.06 22.25L97.28 23.03ZM112.89 15.48C110.43 15.5 109.51 15.52 107.27 15.64C106.76 15.67 105.16 15.74 104.56 15.76L104.64 16.74C105.73 16.61 109.19 16.4 109.48 16.39C108.3 17.08 106.55 18.39 106.55 20.29C106.55 23.09 109.87 23.23 111.84 23.31L112.02 22.34C111.16 22.37 110.2 22.31 109.5 22.16C108.44 21.94 107.48 21.53 107.48 20.23C107.48 18.51 109.44 16.96 110.88 16.48C111.18 16.38 111.39 16.36 111.89 16.36C112.28 16.36 112.57 16.37 112.91 16.4L112.89 15.48ZM117.41 22.91C116.99 22.34 116.28 21.5 115.63 20.9L114.87 21.46C115.2 21.81 115.82 22.46 116.53 23.53L117.41 22.91ZM129.73 23.49C131.86 22.73 132.37 21.06 132.61 20.08C133.11 20.3 133.28 20.39 133.73 20.66L134.03 19.76C133.41 19.42 132.83 19.2 132.8 19.19C132.95 18.39 133.03 17.52 133.1 16.8L132.15 16.73C132.13 17.19 132.08 17.9 131.93 18.88C131.02 18.58 130.36 18.42 129.52 18.35C129.85 16.38 129.88 16.16 130.01 15.16H125.87V16.03L129 16C128.94 16.71 128.81 17.6 128.67 18.32C125.4 18.45 125.22 20.6 125.22 21.09C125.22 22.16 125.92 22.8 126.88 22.8C128.39 22.8 128.83 21.37 129.37 19.14C130.27 19.22 131.12 19.48 131.77 19.73C131.42 21.18 130.9 22.18 129.18 22.8L129.73 23.49ZM128.52 19.09C127.99 21.26 127.72 22.01 126.82 22.01C126.06 22.01 126.01 21.23 126.01 21.04C126.01 20.36 126.42 19.71 127.07 19.39C127.51 19.17 127.93 19.11 128.52 19.09ZM142.23 17.74H141.33L141.39 19.88C141.17 19.83 140.85 19.76 140.35 19.76C138.58 19.76 138 20.87 138 21.62C138 22.55 138.74 23.38 140.24 23.38C141.23 23.38 142.24 23.02 142.24 21.54V21.13C142.6 21.34 143.21 21.71 143.86 22.49L144.41 21.7C143.92 21.16 143.12 20.54 142.28 20.17L142.23 17.74ZM141.41 21.38C141.41 22.06 141.26 22.6 140.27 22.6C140.08 22.6 138.85 22.6 138.85 21.59C138.85 21.03 139.33 20.52 140.35 20.52C140.88 20.52 141.18 20.63 141.41 20.71V21.38ZM138.44 16.2C138.57 15.47 138.58 15.41 138.66 14.93L137.71 14.89C137.67 15.29 137.64 15.51 137.53 16.2H135.68V17.04H137.37C137.11 18.16 136.67 20.12 135.6 21.84L136.52 22.24C136.88 21.5 137.7 19.83 138.27 17.04H140.54V16.2H138.44ZM144.24 16.98C143.18 16.39 142.51 16.09 141.51 15.74L141.16 16.48C142.06 16.81 142.81 17.17 143.82 17.78L144.24 16.98ZM153.18 20C152.58 19.36 152 18.39 151.58 17.38C152.46 17.34 153.32 17.3 154.41 17.07L154.25 16.21C153.25 16.42 152.31 16.54 151.29 16.57C151.16 16.17 151.02 15.52 150.93 14.91L149.98 14.98C150.02 15.22 150.17 15.95 150.37 16.6C150.12 16.61 149.58 16.62 149.16 16.61L146.24 16.56V17.43H149.12C149.27 17.43 150.04 17.42 150.65 17.41C151.19 18.78 151.82 19.86 152.41 20.52L153.18 20ZM148.14 19.18C147.12 19.68 146.69 20.4 146.69 21.13C146.69 21.63 146.88 22.12 147.28 22.48C147.98 23.11 148.97 23.31 150.72 23.31C152.09 23.31 152.97 23.23 153.33 23.19L153.32 22.3C152.7 22.38 151.94 22.47 150.64 22.47C149.21 22.47 147.59 22.34 147.59 21.12C147.59 20.93 147.64 20.31 148.62 19.83L148.14 19.18ZM159.09 14.88C158.85 15.53 158.27 17.13 158.12 17.55C157.89 18.2 157.72 18.68 156.3 23.02L157.24 23.31C157.51 22.3 157.67 21.7 158.02 20.77C158.65 19.48 159.47 19.27 159.87 19.27C160.58 19.27 160.76 19.86 160.76 20.6V21.16C160.76 21.94 160.77 23.35 162.47 23.35C164.76 23.35 165 20.67 165.06 19.35L164.19 19.15C164.19 19.73 164.14 20.48 163.86 21.29C163.53 22.24 163.02 22.47 162.53 22.47C161.72 22.47 161.64 21.92 161.64 21.2V20.53C161.64 19.84 161.56 18.42 160.02 18.42C159.47 18.42 159.08 18.61 158.54 19.05C158.81 18.27 159.41 16.63 160.08 15.15L159.09 14.88ZM171.33 23.31C172.44 23.2 173.44 22.86 174.09 22.32C175 21.56 175.43 20.38 175.43 19.19C175.43 17.5 174.56 15.26 171.32 15.26C168.68 15.26 166.7 17 166.7 19.72C166.7 21.37 167.52 22.53 168.5 22.53C168.95 22.53 169.59 22.3 170.18 21.37C171.21 19.72 171.41 17.26 171.5 16.1C174.25 16.19 174.49 18.39 174.49 19.18C174.49 22.04 172.06 22.33 171.03 22.44L171.33 23.31ZM170.61 16.14C170.51 17.29 170.35 19.32 169.51 20.76C169.25 21.2 168.95 21.57 168.53 21.57C167.82 21.57 167.57 20.42 167.57 19.74C167.57 18.58 168.03 17.46 168.96 16.78C169.47 16.4 170.02 16.25 170.61 16.14ZM182.95 14.56V15.21H181.65V15.87H182.95V16.65H181.12V17.3H182.95V18.1H181.65V18.74H182.95V19.46H181.51V20.11H182.95V20.86H181.24V21.53H182.95V22.42H183.67V21.53H186.05V20.86H183.67V20.11H185.73V19.46H183.67V18.74H185.6V17.3H186.08V16.65H185.6V15.21H183.67V14.56H182.95ZM184.86 16.65H183.67V15.87H184.86V16.65ZM184.86 18.1H183.67V17.3H184.86V18.1ZM183.43 22.78C181.48 22.78 180.59 21.9 180.53 21.83C180.64 21.54 181.1 20.21 181.14 18.04H179.86C180.3 17.27 180.78 16.44 181.12 15.69V14.94H179.12V15.66H180.31C180.07 16.24 179.42 17.47 179.02 18.03V18.76H180.41C180.39 19.5 180.32 20.28 180.04 21.12C179.71 20.43 179.62 19.79 179.56 19.38L178.88 19.48C178.94 19.85 179.11 21.02 179.69 21.91C179.3 22.55 178.96 22.81 178.68 23.03L179.13 23.77C179.42 23.5 179.78 23.17 180.18 22.52C180.46 22.79 181.45 23.56 183.37 23.56H186.04L186.17 22.78H183.43ZM178.45 16.96C178.8 16 178.94 15.25 179.04 14.67L178.24 14.54C178.04 15.96 177.51 17.69 176.66 18.72L177.05 19.54C177.26 19.32 177.42 19.15 177.68 18.68V23.82H178.45V16.96ZM195.47 20.19C194.96 20.82 194.16 21.44 194.04 21.53C193.37 21.03 193.01 20.56 192.76 20.21V20.12H195.69V18.74H196.48V18.08H195.69V16.75H192.76V16.28H191.98V16.75H189.17V17.4H191.98V18.08H188.73V16.03H196.42V15.29H192.36V14.56H191.53V15.29H187.92V19.45C187.92 20.45 187.84 20.78 187.73 21.36C187.55 22.3 187.25 22.85 187.08 23.14L187.76 23.85C188.64 22.19 188.73 20.26 188.73 19.52V18.74H191.98V19.48H189.17V20.12H191.98V22.8C191.98 22.93 191.96 23.03 191.73 23.03L190.66 23.02L190.82 23.84H192.03C192.54 23.84 192.76 23.54 192.76 23.1V21.24C193.72 22.43 195.03 23.17 196.1 23.57L196.57 22.8C196.21 22.67 195.53 22.43 194.69 21.95C195.36 21.46 195.69 21.16 196.14 20.68L195.47 20.19ZM194.9 17.4V18.08H192.76V17.4H194.9ZM194.9 18.74V19.48H192.76V18.74H194.9ZM189.18 20.78C189.83 21.08 190.14 21.28 190.58 21.69L191.11 21.08C190.6 20.68 190.27 20.5 189.63 20.2L189.18 20.78ZM191.51 21.49C191.17 21.65 189.67 22.34 188.52 22.7L188.83 23.42C190.96 22.53 191.2 22.43 191.64 22.19L191.51 21.49ZM202.22 18.17C201.66 18.17 201.19 18.62 201.19 19.2C201.19 19.76 201.64 20.23 202.22 20.23C202.8 20.23 203.25 19.75 203.25 19.2C203.25 18.64 202.79 18.17 202.22 18.17ZM216.74 23.06C216.16 22.72 215.18 22.16 213.91 21.63C214.3 21.23 214.96 20.48 215.44 18.95H217.21V18.16H211.79C212.15 17.43 212.28 17.1 212.39 16.83L211.47 16.66C211.35 17.01 211.18 17.48 210.83 18.16H207.99V18.95H210.4C209.85 19.9 209.36 20.48 209.06 20.83C210.62 21.26 211.51 21.56 212.32 21.88C211.07 22.57 209.57 22.82 208.23 22.94L208.52 23.82C211.12 23.55 212.66 22.64 213.21 22.24C214.85 22.95 215.74 23.54 216.19 23.84L216.74 23.06ZM214.56 18.95C214.45 19.28 214.07 20.43 213.11 21.31C212.11 20.93 211.11 20.64 210.39 20.43C210.59 20.17 210.88 19.79 211.36 18.95H214.56ZM208.23 15.46V17.64H209.08V16.23H216.13V17.64H216.98V15.46H213.01V14.56H212.15V15.46H208.23ZM225.93 17.87C226.55 18.26 227 18.46 227.35 18.62L227.77 17.8C225.93 17.13 224.45 15.93 223.44 14.57H222.53C221.42 16.12 219.78 17.2 218.19 17.81L218.61 18.63C218.97 18.46 219.39 18.27 220.07 17.86V18.62H222.56V20.14H219.38V20.89H222.56V22.78H218.4V23.58H227.56V22.78H223.41V20.89H226.61V20.14H223.41V18.62H225.93V17.87ZM220.08 17.85C221.19 17.18 222.17 16.3 222.98 15.28C224.05 16.61 225.28 17.45 225.9 17.85H220.08ZM232.67 15.89C232.81 15.39 232.86 15.16 232.92 14.81L231.96 14.77C231.89 15.34 231.82 15.63 231.75 15.89H229.45V16.69H231.51C230.87 18.56 230.07 19.62 229.19 20.45L229.81 21.12C230.13 20.79 230.79 19.91 231.25 19.28C231.95 18.57 232.68 18.26 233.23 18.26C233.69 18.26 233.97 18.46 234.08 19.05C233.09 19.49 231.3 20.39 231.3 21.75C231.3 23.36 233.56 23.36 234.69 23.36C235.64 23.36 236.51 23.3 237.08 23.26L237.05 22.4C236.15 22.5 235.21 22.54 234.41 22.54C233.31 22.54 232.2 22.54 232.2 21.66C232.2 20.84 233.41 20.2 234.18 19.84C234.2 20.1 234.2 20.27 234.2 20.44C234.2 20.8 234.17 21.17 234.15 21.4H235.02C235.05 21.08 235.05 20.78 235.05 20.64C235.05 20.28 235.04 19.85 235.01 19.5C236.11 19.08 236.82 18.86 237.63 18.63L237.39 17.76C236.49 18.07 235.12 18.62 234.89 18.71C234.69 17.76 234.05 17.54 233.37 17.54C232.87 17.54 232.47 17.71 231.77 18.13C232.06 17.63 232.2 17.3 232.43 16.69H236.84V15.89H232.67ZM246.42 16.85V14.95H245.52V16.85H242.03V14.99H241.12V16.85H239.43V17.71H241.12V20.4H242.03V17.71H245.52V18.94C245.52 21.14 244.21 22.29 241.38 22.56L241.71 23.43C243.21 23.25 246.42 22.66 246.42 18.98V17.71H248.15V16.85H246.42ZM254.56 16.67V15H253.64V16.67H250.18V17.52H253.64V23.46H254.56V17.52H258.03V17.16C258.63 16.99 259.04 16.45 259.04 15.83C259.04 15.06 258.42 14.44 257.65 14.44C256.89 14.44 256.26 15.06 256.26 15.82C256.26 16.14 256.36 16.43 256.55 16.67H254.56ZM257.65 15.06C258.07 15.06 258.42 15.4 258.42 15.83C258.42 16.25 258.08 16.6 257.65 16.6C257.23 16.6 256.88 16.25 256.88 15.83C256.88 15.4 257.23 15.06 257.65 15.06ZM250.68 22.86C251.88 21.52 252.19 19.89 252.33 18.57L251.48 18.48C251.37 19.71 251.01 21.14 249.95 22.2L250.68 22.86ZM255.91 18.57C256.25 20.62 256.64 21.72 257.54 22.82L258.29 22.24C257.47 21.25 257.05 20.21 256.75 18.47L255.91 18.57ZM260.2 18.72V19.67H268.8V18.72H260.2ZM278.82 19.61C277.38 18.83 275.83 18.06 273.94 17.46V14.9H272.97V23.45H273.94V18.4C276.03 19.12 277.67 20.12 278.35 20.54L278.82 19.61ZM282.41 15.02C282.4 15.7 282.34 19.02 282.34 19.77C282.34 21.51 282.52 23.34 285.26 23.34C288.3 23.34 288.95 21.28 289.27 19.47L288.43 19.16C288.15 20.68 287.82 22.48 285.23 22.48C283.35 22.48 283.29 21.14 283.29 19.86C283.29 18.91 283.33 17.72 283.42 15.02H282.41ZM293.87 22.91C293.45 22.34 292.74 21.5 292.09 20.9L291.33 21.46C291.66 21.81 292.28 22.46 292.99 23.53L293.87 22.91ZM306.78 19C306.85 18.57 306.88 18.24 306.88 17.66H309.63V16.93H305.07C305.21 16.66 305.29 16.49 305.45 16.09L304.65 15.92C304.34 16.89 303.75 17.62 303.04 18.19L303.67 18.73C304.06 18.38 304.29 18.13 304.63 17.66H306.1C306.1 18.38 306.05 18.69 306 19H303.09V19.74H305.76C305.05 21.21 303.46 21.6 302.96 21.72L303.44 22.45C304.58 22.07 305.86 21.42 306.52 19.9C306.77 20.47 307.57 21.74 309.83 22.44L310.27 21.67C308.65 21.31 307.59 20.38 307.25 19.74H310.05V19H306.78ZM301.72 14.89V23.63H310.6V22.87H302.57V15.66H310.39V14.89H301.72ZM319.98 19.42C320.29 19.61 320.48 19.7 320.75 19.83L321.13 19.16C320.85 19.06 320.58 18.96 320.13 18.71C320.15 18.68 320.5 18.34 320.81 17.94L320.25 17.6C320.14 17.75 319.9 18.05 319.61 18.36C319.13 17.99 318.88 17.66 318.68 17.41H321.01V16.78H317.37C317.44 16.64 317.48 16.54 317.58 16.29L316.79 16.2C316.71 16.43 316.66 16.56 316.56 16.78H314.16V17.41H316.18C315.9 17.78 315.65 18.04 315.34 18.29C315.25 18.19 314.97 17.88 314.65 17.64L314.19 18.06C314.47 18.28 314.5 18.31 314.83 18.66C314.49 18.89 314.23 19.02 313.88 19.19L314.32 19.79C314.54 19.66 314.61 19.62 314.82 19.49V21.57H316.97V22.86C316.97 23.06 316.94 23.1 316.74 23.1H315.79L315.96 23.82H317.04C317.35 23.82 317.78 23.8 317.78 23.18V21.57H319.98V19.42ZM319.25 19.81H315.55V19.21H319.25V19.81ZM315.96 18.63C316.61 18.04 316.89 17.6 317.01 17.41H317.86C318.08 17.73 318.33 18.11 318.91 18.63H315.96ZM319.25 20.99H315.55V20.36H319.25V20.99ZM313.05 18.76C313.05 19.04 313.04 19.23 313.04 19.39C312.54 19.64 312.31 19.75 311.62 20.02L311.79 20.84C312.09 20.69 312.47 20.5 312.97 20.17C312.75 22.03 312.2 22.75 311.75 23.31L312.36 23.85C312.76 23.37 313.84 22.08 313.84 18.79V16.07H321.04V15.37H317.32V14.56H316.5V15.37H313.05V18.76ZM312.84 17.9C312.74 17.39 312.53 16.69 312.24 16.12L311.62 16.42C311.85 16.99 312.03 17.63 312.14 18.23L312.84 17.9ZM313.9 23.67C314.57 23.42 315.19 23.09 316.04 22.26L315.46 21.78C314.75 22.46 314.26 22.73 313.46 23L313.9 23.67ZM318.59 22.27C319.13 22.88 319.98 23.41 320.75 23.68L321.19 23C320.26 22.67 319.84 22.43 319.12 21.74L318.59 22.27ZM323.39 15.11C323.07 16.61 322.97 18.21 322.97 19.86C322.97 21.77 323.14 22.77 323.23 23.35L324.2 23.27C324.12 22.91 323.89 21.95 323.89 19.72C323.89 17.2 324.19 15.89 324.34 15.19L323.39 15.11ZM325.86 15.92V16.8H330.56V15.92H325.86ZM326.08 19.23C325.73 19.82 325.55 20.39 325.55 20.91C325.55 22.63 327.4 22.77 328.88 22.77C329.73 22.77 330.43 22.71 330.77 22.68V21.74C329.85 21.84 329.03 21.86 328.48 21.86C327.41 21.86 326.39 21.74 326.39 20.83C326.39 20.74 326.4 20.17 326.89 19.48L326.08 19.23ZM335.85 22.77C337.06 22.76 338.18 22.62 339.03 22.27C341.16 21.41 341.41 19.72 341.41 18.95C341.41 17.45 340.46 15.95 338.12 15.95C337.29 15.95 336.33 16.11 335.38 16.28C334.97 16.35 333.03 16.69 332.8 16.72L333.02 17.73C334.71 17.31 336.86 16.83 338.06 16.83C340.01 16.83 340.45 18.02 340.45 18.96C340.45 19.95 339.93 20.67 339.39 21.06C338.41 21.76 337.26 21.9 335.61 21.91L335.85 22.77ZM1.13 29.41C1.07 30.09 0.97 31.18 0.97 32.27C0.97 34.87 1.42 37.11 3.04 37.11C3.55 37.11 3.92 36.87 4.16 36.63C4.72 36.07 5.18 35.23 5.51 34.3L4.77 33.88C4.08 35.68 3.56 36.09 3.11 36.09C1.99 36.09 1.87 33.9 1.87 32.35C1.87 31 2 30.09 2.08 29.49L1.13 29.41ZM9.19 36.12C9.33 32.12 8.3 30.71 7.11 29.71L6.42 30.24C7.46 31.09 8.24 32.53 8.24 35.14C8.24 35.6 8.22 35.9 8.2 36.16L9.19 36.12ZM19.47 29.48C17.01 29.5 16.09 29.52 13.85 29.64C13.34 29.67 11.74 29.74 11.14 29.76L11.22 30.74C12.31 30.61 15.77 30.4 16.06 30.39C14.88 31.08 13.13 32.39 13.13 34.29C13.13 37.09 16.45 37.23 18.42 37.31L18.6 36.34C17.74 36.37 16.78 36.31 16.08 36.16C15.02 35.94 14.06 35.53 14.06 34.23C14.06 32.51 16.02 30.96 17.46 30.48C17.76 30.38 17.97 30.36 18.47 30.36C18.86 30.36 19.15 30.37 19.49 30.4L19.47 29.48ZM26.01 37.31C27.12 37.2 28.12 36.86 28.77 36.32C29.68 35.56 30.11 34.38 30.11 33.19C30.11 31.5 29.24 29.26 26 29.26C23.36 29.26 21.38 31 21.38 33.72C21.38 35.37 22.2 36.53 23.18 36.53C23.63 36.53 24.27 36.3 24.86 35.37C25.89 33.72 26.09 31.26 26.18 30.1C28.93 30.19 29.17 32.39 29.17 33.18C29.17 36.04 26.74 36.33 25.71 36.44L26.01 37.31ZM25.29 30.14C25.19 31.29 25.03 33.32 24.19 34.76C23.93 35.2 23.63 35.57 23.21 35.57C22.5 35.57 22.25 34.42 22.25 33.74C22.25 32.58 22.71 31.46 23.64 30.78C24.15 30.4 24.7 30.25 25.29 30.14ZM36.32 30.95C36.5 30.66 36.7 30.33 36.99 29.73H40.75V28.91H31.51V29.73H36.1C35.34 31.35 33.86 33.07 31.4 34.2L31.9 34.99C32.61 34.63 34.12 33.82 35.67 31.86V37.84H36.54V30.95H36.32ZM40.89 34.24C39.37 33.31 38.35 32.26 37.5 31.2L36.89 31.68C38.11 33.22 38.77 33.89 40.29 34.99L40.89 34.24ZM50.66 37.06C50.08 36.72 49.1 36.16 47.83 35.63C48.22 35.23 48.88 34.48 49.36 32.95H51.13V32.16H45.71C46.07 31.43 46.2 31.1 46.31 30.83L45.39 30.66C45.27 31.01 45.1 31.48 44.75 32.16H41.91V32.95H44.32C43.77 33.9 43.28 34.48 42.98 34.83C44.54 35.26 45.43 35.56 46.24 35.88C44.99 36.57 43.49 36.82 42.15 36.94L42.44 37.82C45.04 37.55 46.58 36.64 47.13 36.24C48.77 36.95 49.66 37.54 50.11 37.84L50.66 37.06ZM48.48 32.95C48.37 33.28 47.99 34.43 47.03 35.31C46.03 34.93 45.03 34.64 44.31 34.43C44.51 34.17 44.8 33.79 45.28 32.95H48.48ZM42.15 29.46V31.64H43V30.23H50.05V31.64H50.9V29.46H46.93V28.56H46.07V29.46H42.15ZM56.9 32.17C56.34 32.17 55.87 32.62 55.87 33.2C55.87 33.76 56.32 34.23 56.9 34.23C57.48 34.23 57.93 33.75 57.93 33.2C57.93 32.64 57.47 32.17 56.9 32.17ZM63.14 33.52C63.36 32.7 63.45 31.4 63.46 30.71L62.82 30.65C62.82 31.15 62.76 32.3 62.48 33.2L63.14 33.52ZM63.87 28.56V37.84H64.68V28.56H63.87ZM65.9 31.9C65.85 31.73 65.63 30.96 65.38 30.39L64.78 30.63C64.99 31.15 65.15 31.74 65.23 32.16L65.9 31.9ZM71.61 32.08H70.82V36.91H66.58V32.08H65.79V37.63H71.61V32.08ZM69.5 31.79C69.27 32.55 69.06 32.96 68.8 33.45C68.3 32.94 68 32.66 67.55 32.32L67.03 32.83C67.63 33.32 67.96 33.65 68.4 34.11C67.95 34.78 67.56 35.27 66.85 35.84L67.4 36.41C68.28 35.65 68.63 35.17 68.94 34.72C69.25 35.07 69.49 35.37 69.93 36.03L70.52 35.5C70.24 35.07 69.99 34.72 69.37 34.05C69.66 33.54 69.92 33.05 70.21 32.1L69.5 31.79ZM69.22 30.62C68.98 29.69 68.54 28.82 68.42 28.58L67.68 28.79C67.74 28.91 68.25 29.97 68.45 30.86L69.22 30.62ZM70.69 31.5C71.18 30.82 71.67 29.81 71.9 29.07L71.15 28.74C71.03 29.09 70.67 30.18 70 31.15L70.69 31.5ZM67.34 31.01C67.09 30.35 66.66 29.57 66.24 29L65.55 29.29C65.99 29.92 66.37 30.7 66.6 31.29L67.34 31.01ZM77.83 37.49C79.96 36.73 80.47 35.06 80.71 34.08C81.21 34.3 81.38 34.39 81.83 34.66L82.13 33.76C81.51 33.42 80.93 33.2 80.9 33.19C81.05 32.39 81.13 31.52 81.2 30.8L80.25 30.73C80.23 31.19 80.18 31.9 80.03 32.88C79.12 32.58 78.46 32.42 77.62 32.35C77.95 30.38 77.98 30.16 78.11 29.16H73.97V30.03L77.1 30C77.04 30.71 76.91 31.6 76.77 32.32C73.5 32.45 73.32 34.6 73.32 35.09C73.32 36.16 74.02 36.8 74.98 36.8C76.49 36.8 76.93 35.37 77.47 33.14C78.37 33.22 79.22 33.48 79.87 33.73C79.52 35.18 79 36.18 77.28 36.8L77.83 37.49ZM76.62 33.09C76.09 35.26 75.82 36.01 74.92 36.01C74.16 36.01 74.11 35.23 74.11 35.04C74.11 34.36 74.52 33.71 75.17 33.39C75.61 33.17 76.03 33.11 76.62 33.09ZM88.04 32.17C87.48 32.17 87.01 32.62 87.01 33.2C87.01 33.76 87.46 34.23 88.04 34.23C88.62 34.23 89.07 33.75 89.07 33.2C89.07 32.64 88.61 32.17 88.04 32.17ZM93.77 29.42V30.2H96V31.22H96.81V30.2H100.01V31.22H100.81V30.2H103.07V29.42H100.81V28.55H100.01V29.42H96.81V28.55H96V29.42H93.77ZM103.07 31.86H98.81V30.76H97.98V31.86H93.77V32.63H97.98V33.92H94.78V37.65H102.04V33.92H98.81V32.63H103.07V31.86ZM101.21 36.92H95.61V34.66H101.21V36.92ZM110.75 32.63C110.68 32.58 110.59 32.51 110.53 32.47C110.76 32.36 111.79 31.88 112.69 31.15V30.62H106.93V31.22H111.34C110.8 31.62 110.52 31.78 109.92 32.08C109.77 31.98 109.23 31.66 108.68 31.41L108.2 31.95C108.86 32.22 109.23 32.41 109.53 32.63H107.11V37.85H107.89V36.19H109.65V37.82H110.42V36.19H112.29V36.82C112.29 37 112.2 37.03 112.06 37.03H111.23L111.38 37.85H112.37C113.06 37.85 113.06 37.35 113.06 37.05V32.63H110.75ZM109.65 34.08H107.89V33.27H109.65V34.08ZM109.65 35.56H107.89V34.7H109.65V35.56ZM112.29 34.08H110.42V33.27H112.29V34.08ZM112.29 35.56H110.42V34.7H112.29V35.56ZM105.71 32.87C105.71 33.1 105.7 33.24 105.69 33.38C105.6 33.44 104.87 33.84 104.08 34.14L104.28 34.96C104.63 34.78 104.97 34.61 105.63 34.21C105.45 35.71 105.16 36.49 104.45 37.32L105.11 37.88C105.56 37.34 106.49 36.23 106.49 32.71V30.06H113.4V29.35H109.74V28.54H108.9V29.35H105.71V32.87ZM105.48 31.93C105.35 31.41 105.08 30.67 104.79 30.13L104.13 30.49C104.36 30.94 104.65 31.7 104.79 32.27L105.48 31.93ZM118.49 29.89C118.63 29.39 118.68 29.16 118.74 28.81L117.78 28.77C117.71 29.34 117.64 29.63 117.57 29.89H115.27V30.69H117.33C116.69 32.56 115.89 33.62 115.01 34.45L115.63 35.12C115.95 34.79 116.61 33.91 117.07 33.28C117.77 32.57 118.5 32.26 119.05 32.26C119.51 32.26 119.79 32.46 119.9 33.05C118.91 33.49 117.12 34.39 117.12 35.75C117.12 37.36 119.38 37.36 120.51 37.36C121.46 37.36 122.33 37.3 122.9 37.26L122.87 36.4C121.97 36.5 121.03 36.54 120.23 36.54C119.13 36.54 118.02 36.54 118.02 35.66C118.02 34.84 119.23 34.2 120 33.84C120.02 34.1 120.02 34.27 120.02 34.44C120.02 34.8 119.99 35.17 119.97 35.4H120.84C120.87 35.08 120.87 34.78 120.87 34.64C120.87 34.28 120.86 33.85 120.83 33.5C121.93 33.08 122.64 32.86 123.45 32.63L123.21 31.76C122.31 32.07 120.94 32.62 120.71 32.71C120.51 31.76 119.87 31.54 119.19 31.54C118.69 31.54 118.29 31.71 117.59 32.13C117.88 31.63 118.02 31.3 118.25 30.69H122.66V29.89H118.49ZM127.63 29.61C128.22 29.51 128.54 29.43 129.08 29.29L128.78 28.56C127.48 28.91 126.37 29.06 124.91 29.1L125.08 29.85C125.89 29.82 126.3 29.78 126.82 29.72V31.19H124.89V31.93H126.72C126.41 32.64 125.79 33.94 124.76 34.95L125.12 35.9C126.05 34.89 126.55 33.95 126.82 33.35V37.84H127.63V33.16C128 33.84 128.38 34.37 128.85 34.83L129.26 34.04C128.44 33.34 127.89 32.46 127.63 31.96V31.93H129.24V31.19H127.63V29.61ZM133.86 29.2H129.6V37.57H133.86V29.2ZM133.04 36.79H130.4V29.96H133.04V36.79ZM142.44 29.52C140.91 29.02 139.2 28.93 138.34 28.89L138.18 29.75C139.53 29.8 141 29.99 142.19 30.47L142.44 29.52ZM136.96 30.32C136.83 30.84 136.74 31.39 136.7 32.32C136.69 32.62 136.66 34.12 136.66 34.46L137.55 34.49C137.56 34.44 137.57 34.41 137.6 34.31C138.26 33.44 139.6 32.87 140.94 32.87C142.26 32.87 142.79 33.59 142.79 34.37C142.79 34.78 142.68 35.25 142.4 35.55C141.8 36.21 140.6 36.48 139.22 36.48C138.55 36.48 137.94 36.42 137.27 36.3L137.37 37.18C137.78 37.24 138.37 37.32 139.29 37.32C141.43 37.32 143.74 36.78 143.74 34.38C143.74 33.55 143.31 32.06 140.99 32.06C139.69 32.06 138.57 32.48 137.55 33.29C137.55 31.82 137.63 31.24 137.86 30.48L136.96 30.32ZM149.41 37.5C151.53 37.09 152.76 36.36 152.76 33.14C152.76 32.97 152.74 32.29 152.73 32.02H154.51V31.18H152.68C152.66 30.87 152.58 29.42 152.55 29.03L151.69 29.05C151.72 29.58 151.77 30.73 151.79 31.18H148.42V32.02H151.82C151.83 32.33 151.84 32.8 151.84 33.01C151.84 35.74 151 36.32 149.08 36.69L149.41 37.5ZM152.71 28.62C153.03 29.35 153.2 29.96 153.32 30.69L154.04 30.43C153.85 29.63 153.73 29.15 153.38 28.39L152.71 28.62ZM154.07 28.36C154.39 29.09 154.53 29.58 154.68 30.42L155.4 30.16C155.17 29.21 155.09 28.88 154.74 28.12L154.07 28.36ZM146.69 29.05C146.49 30.54 146.39 32.04 146.39 33.54C146.39 34.78 146.44 36.03 146.7 37.25L147.63 37.13C147.36 35.87 147.29 34.61 147.29 33.45C147.29 31.37 147.52 29.89 147.65 29.11L146.69 29.05ZM161.4 30.03V28.98H160.52V30.03H156.72V30.8H160.52V32.04H156.87V32.8H160.52V33.98C160.31 33.94 159.97 33.88 159.52 33.88C158.03 33.88 157 34.64 157 35.69C157 36.33 157.42 37.37 159.37 37.37C160.21 37.37 161.4 37.1 161.4 35.67V35.1C161.95 35.35 162.83 35.81 163.8 36.88L164.39 36.02C163.34 35.14 162.46 34.59 161.4 34.2V32.8H164.4V32.04H161.4V30.8H164.59V30.03H161.4ZM160.52 35.49C160.52 36.28 160.13 36.59 159.26 36.59C157.94 36.59 157.84 35.85 157.84 35.66C157.84 35 158.59 34.62 159.52 34.62C160.03 34.62 160.32 34.7 160.52 34.76V35.49ZM172.65 30V28.88H171.73L171.75 30H166.83V30.83H171.76L171.77 31.91C171.56 31.73 171.32 31.51 170.65 31.51C169.41 31.51 168.58 32.37 168.58 33.54C168.58 34.51 169.2 35.5 170.44 35.5C171.59 35.5 171.92 34.75 172.02 34.54C171.89 35.73 171.15 36.65 168.48 36.62L168.76 37.46C170.5 37.39 172.84 36.91 172.84 34.27C172.84 34.01 172.82 33.75 172.78 33.5C172.75 33.26 172.7 33.03 172.65 32.84V30.83H175.27V30H172.65ZM171.79 33.61C171.79 34.27 171.27 34.77 170.56 34.77C169.63 34.77 169.42 33.92 169.42 33.5C169.42 32.58 170.12 32.26 170.67 32.26C171.55 32.26 171.71 32.85 171.79 33.17V33.61ZM178.67 34.53C177.85 34.53 177.18 35.19 177.18 36.02C177.18 36.84 177.84 37.51 178.67 37.51C179.49 37.51 180.16 36.84 180.16 36.02C180.16 35.18 179.48 34.53 178.67 34.53ZM178.67 35.03C179.2 35.03 179.65 35.46 179.65 36.02C179.65 36.56 179.21 37 178.67 37C178.12 37 177.68 36.56 177.68 36.02C177.68 35.47 178.13 35.03 178.67 35.03Z" fill="black"/>
</svg>
