<svg width="348" height="49" viewBox="0 0 348 49" fill="none" xmlns="http://www.w3.org/2000/svg">
<path d="M2.304 1.94H6.144V0.883999H7.128V1.94H11.592V2.84H3.264V6.056C3.264 9.716 1.884 11.324 1.332 11.984L0.516 11.312C0.924 10.88 1.896 9.836 2.22 7.52C1.476 7.964 0.828 8.264 0.528 8.396L0.252 7.412C1.044 7.148 1.212 7.064 2.304 6.572V1.94ZM1.944 4.856L1.08 5.288C0.84 4.064 0.504 3.464 0.324 3.14L1.128 2.732C1.56 3.5 1.764 4.1 1.944 4.856ZM11.328 4.1V4.976H8.076V7.196H10.944V8.072H8.076V10.82H11.532V11.72H2.856V10.82H4.416V6.116H5.412V10.82H7.104V4.976H3.732V4.1H11.328ZM24.126 11L23.55 11.948C21.546 10.676 20.706 8.792 20.118 7.064C19.674 8.672 18.882 10.496 16.758 11.996L16.194 11.096C17.67 10.148 18.558 8.948 19.086 6.968C19.254 6.344 19.386 5.708 19.434 5.072H16.482V4.112H19.47V0.883999H20.502V4.112H23.982V5.072H20.55C21.306 9.212 23.382 10.532 24.126 11ZM14.97 0.883999H15.966V11.996H14.97V8.216C14.526 8.6 13.47 9.26 12.978 9.5L12.678 8.432C13.026 8.24 14.07 7.664 14.97 7.004V0.883999ZM14.61 4.796L13.71 5.18C13.434 4.184 13.23 3.68 12.762 2.792L13.626 2.408C14.022 3.116 14.394 3.98 14.61 4.796ZM23.406 3.068L22.578 3.572C22.314 3.104 21.738 2.204 21.15 1.58L21.906 1.076C22.734 1.94 23.214 2.756 23.406 3.068ZM29.532 12.056L29.04 11.18C29.592 11.036 31.608 10.496 32.136 8.636H29.7V5.312H32.4V4.208H30.792V3.776C30.252 4.172 29.916 4.352 29.604 4.508L29.124 3.644C30.516 2.924 31.356 2.18 32.28 0.848H33.456C33.924 1.64 34.644 2.6 36.684 3.632L36.156 4.496C35.664 4.208 35.364 4.016 35.028 3.764V4.208H33.348V5.312H36.048V8.636H33.696C34.44 10.328 35.796 10.844 36.648 11.12L36.168 12.02C34.176 11.336 33.276 9.848 32.964 9.08C32.148 11.18 30.312 11.816 29.532 12.056ZM33.348 6.14V6.416C33.348 7.172 33.324 7.484 33.276 7.808H35.124V6.14H33.348ZM32.4 6.44V6.14H30.648V7.808H32.328C32.376 7.484 32.4 7.136 32.4 6.44ZM31.26 3.38H34.536C33.78 2.756 33.156 1.952 32.868 1.58C32.58 1.94 31.956 2.744 31.26 3.38ZM29.496 6.932L29.004 7.832C28.536 7.172 28.26 6.728 27.972 6.008V12.008H27.024V6.248C26.724 7.376 26.244 8.444 25.56 9.38L25.14 8.192C25.584 7.616 26.328 6.656 26.952 4.112H25.344V3.2H27.024V0.872H27.972V3.2H29.016V4.112H27.972V4.568C28.14 5 28.572 5.936 29.496 6.932ZM44.73 4.772L45.582 5.324C44.946 6.044 44.454 6.488 42.918 7.832C43.746 7.796 44.022 7.784 46.458 7.7C45.822 7.148 45.63 7.016 45.342 6.812L46.038 6.188C47.658 7.364 48.438 8.3 48.774 8.696L48.09 9.38C47.898 9.128 47.706 8.888 47.274 8.468L43.854 8.648V11.984H42.858V8.696C42.078 8.708 38.598 8.78 37.89 8.78L37.818 7.856C38.406 7.868 41.022 7.844 41.562 7.832C41.79 7.652 41.874 7.58 41.982 7.484C41.766 7.304 40.818 6.608 39.546 5.996L40.158 5.264C40.386 5.384 40.518 5.444 40.95 5.72C41.55 5.156 41.742 4.892 41.958 4.592H38.982V6.008H37.998V3.728H42.858V2.708H38.046V1.82H42.858V0.895999H43.842V1.82H48.702V2.708H43.842V3.728H48.702V6.008H47.706V4.592H43.23C42.606 5.42 41.754 6.152 41.706 6.2C42.294 6.584 42.522 6.764 42.654 6.872C43.938 5.708 44.406 5.144 44.73 4.772ZM38.37 11.864L37.746 11.072C38.094 10.916 39.642 10.232 40.698 9.02L41.478 9.56C40.374 10.856 39.006 11.552 38.37 11.864ZM45.054 9.512L45.75 8.936C46.686 9.86 47.586 10.424 48.978 10.952L48.366 11.804C46.518 10.976 45.618 10.1 45.054 9.512ZM56.352 3.356V9.524H60.78V10.592H50.808V9.524H55.212V3.356H51.456V2.312H60.132V3.356H56.352ZM67.866 3.776L67.266 4.784C66.558 4.304 65.298 3.596 63.57 3.056L64.11 2.096C66.234 2.732 67.554 3.584 67.866 3.776ZM64.038 11.192L63.822 9.992C69.894 9.668 71.682 5.42 72.51 2.732L73.446 3.428C72.87 5.132 70.95 10.736 64.038 11.192ZM80.808 2.996L80.352 3.992C79.248 3.38 78.096 2.948 76.86 2.6L77.292 1.688C78.684 2 79.86 2.54 80.808 2.996ZM79.824 5.804L79.38 6.824C78.756 6.464 77.664 5.9 75.936 5.396L76.356 4.448C77.46 4.712 78.9 5.264 79.824 5.804ZM82.74 1.028L83.52 0.632C84 1.352 84.228 1.904 84.624 2.96L83.784 3.38C83.46 2.384 83.292 1.976 82.74 1.028ZM84.744 0.908L85.536 0.536C85.92 1.148 86.244 1.796 86.604 2.876L85.752 3.284C85.452 2.324 85.26 1.82 84.744 0.908ZM76.824 11.264L76.56 10.088C81.336 9.62 83.352 7.808 84.672 3.644L85.608 4.328C84.048 8.78 81.72 10.628 76.824 11.264ZM92.766 3.776L92.166 4.784C91.458 4.304 90.198 3.596 88.47 3.056L89.01 2.096C91.134 2.732 92.454 3.584 92.766 3.776ZM88.938 11.192L88.722 9.992C94.794 9.668 96.582 5.42 97.41 2.732L98.346 3.428C97.77 5.132 95.85 10.736 88.938 11.192ZM108.996 11.972H108.036V0.727999H111.3V1.688H108.996V11.972ZM120.066 9.404H123.102V10.472H112.938V9.404H118.914C119.574 6.92 119.802 4.388 119.874 3.524H114.462V2.456H121.098C121.014 3.392 120.774 6.416 120.066 9.404ZM127.56 1.7V5.42C129.696 4.928 131.352 4.364 133.152 3.44L133.644 4.448C131.016 5.648 128.82 6.2 127.56 6.464V9.116C127.56 9.98 127.776 10.076 129.144 10.076H132.228C133.188 10.076 134.148 10.028 134.916 9.884L134.976 10.964C134.244 11.084 133.104 11.12 132.348 11.12H128.988C127.2 11.12 126.456 10.82 126.456 9.296V1.7H127.56ZM132.78 1.34L133.548 0.908C134.088 1.664 134.388 2.276 134.772 3.164L133.956 3.644C133.596 2.696 133.32 2.168 132.78 1.34ZM134.616 0.775999L135.384 0.343999C135.912 1.064 136.248 1.76 136.596 2.612L135.78 3.08C135.42 2.12 135.216 1.688 134.616 0.775999ZM137.79 5.864H148.11V7.004H137.79V5.864ZM152.004 0.908H152.964V12.152H149.7V11.192H152.004V0.908ZM170.49 3.476H172.734V4.508H170.49L170.526 7.676C171.498 8.156 172.386 8.84 172.938 9.428L172.23 10.4C171.75 9.764 171.15 9.26 170.49 8.84V9.284C170.49 9.968 170.478 11.324 168.186 11.324C166.314 11.324 165.618 10.232 165.618 9.26C165.618 8.012 166.722 7.16 168.246 7.16C168.846 7.16 169.146 7.244 169.482 7.34L169.434 4.508H165.81V3.476H169.41L169.374 1.448H170.466L170.49 3.476ZM169.482 9.068V8.324C169.206 8.204 168.87 8.06 168.258 8.06C167.454 8.06 166.578 8.372 166.578 9.272C166.578 10.196 167.49 10.424 168.126 10.424C169.434 10.424 169.482 9.716 169.482 9.068ZM163.518 1.424L164.634 1.508C164.406 2.708 164.118 4.328 164.118 7.016C164.118 8.42 164.178 9.836 164.49 11.204L163.41 11.348C163.122 9.896 163.074 8.408 163.074 6.932C163.074 5.036 163.194 3.296 163.518 1.424ZM183.696 11.972H182.736V0.727999H186V1.688H183.696V11.972ZM193.674 0.872H194.646V1.628H198.27V2.444H196.458C196.338 2.852 196.242 3.128 196.074 3.536H197.826V9.404C197.826 9.98 197.562 10.328 196.938 10.328H195.666L195.534 9.416L196.65 9.428C196.806 9.428 196.914 9.404 196.914 9.128V4.316H194.598V5.216H196.542V5.96H194.598V6.788H196.134V9.272H192.198V6.788H193.722V5.96H191.766V5.216H193.722V4.316H191.394V10.172H190.482V3.536H192.138C192.09 3.344 191.874 2.54 191.838 2.444H190.086V1.628H193.674V0.872ZM193.002 3.536H195.234C195.366 3.224 195.546 2.6 195.582 2.444H192.738C192.882 3.008 192.894 3.068 193.002 3.536ZM195.306 8.54V7.508H193.014V8.54H195.306ZM192.246 10.796H198.426L198.234 11.72H192.234C190.266 11.72 189.522 10.712 189.258 10.364C188.49 11.24 188.43 11.312 187.578 12.056L187.098 11.036C187.314 10.904 187.998 10.46 188.526 9.896V6.512H187.23V5.528H189.474V9.164C189.714 10.628 191.898 10.796 192.246 10.796ZM189.906 3.032L189.126 3.668C188.91 3.344 188.49 2.696 187.41 1.64L188.07 1.04C188.634 1.52 189.33 2.228 189.906 3.032ZM200.724 4.232V0.883999H201.696V4.064L204.276 3.644L204.336 4.628L201.696 5.06V8.66C201.696 8.924 201.756 9.008 202.056 9.008H202.8C203.316 9.008 203.4 7.64 203.424 7.184L204.396 7.412C204.204 8.984 203.976 9.932 202.992 9.932H201.588C201.024 9.932 200.724 9.632 200.724 9.056V5.216L199.548 5.408L199.488 4.436L200.724 4.232ZM204 1.4H210.432C210.432 4.328 210.432 9.716 209.772 11.132C209.628 11.432 209.304 11.984 208.236 11.984H206.496L206.28 10.964L208.068 10.976C208.188 10.976 208.584 10.988 208.788 10.652C209.424 9.62 209.424 3.74 209.424 2.372H207.156C207.108 7.616 206.28 9.992 202.956 12.02L202.26 11.156C205.764 9.284 206.148 6.584 206.148 2.372H204V1.4ZM220.398 4.688L220.458 7.604C221.466 8.048 222.426 8.792 223.014 9.44L222.354 10.388C221.574 9.452 220.842 9.008 220.41 8.756V9.248C220.41 11.024 219.198 11.456 218.01 11.456C216.21 11.456 215.322 10.46 215.322 9.344C215.322 8.444 216.018 7.112 218.142 7.112C218.742 7.112 219.126 7.196 219.39 7.256L219.318 4.688H220.398ZM219.414 9.056V8.252C219.138 8.156 218.778 8.024 218.142 8.024C216.918 8.024 216.342 8.636 216.342 9.308C216.342 10.52 217.818 10.52 218.046 10.52C219.234 10.52 219.414 9.872 219.414 9.056ZM215.85 2.84H218.37V3.848H215.646C214.962 7.196 213.978 9.2 213.546 10.088L212.442 9.608C213.726 7.544 214.254 5.192 214.566 3.848H212.538V2.84H214.758C214.89 2.012 214.926 1.748 214.974 1.268L216.114 1.316C216.018 1.892 216.006 1.964 215.85 2.84ZM222.81 3.776L222.306 4.736C221.094 4.004 220.194 3.572 219.114 3.176L219.534 2.288C220.734 2.708 221.538 3.068 222.81 3.776ZM225.888 6.404L225.18 5.564C226.608 4.676 227.664 3.56 228.384 1.964H234.588C234.372 3.92 233.748 9.656 226.548 11.528L226.032 10.532C228 10.064 229.86 9.176 231.228 7.676C230.232 6.824 229.176 6.08 227.412 5.192C227.064 5.54 226.728 5.876 225.888 6.404ZM233.352 2.96H229.104C228.612 3.8 228.396 4.076 228.072 4.472C229.32 5.096 230.7 5.84 231.888 6.86C232.524 5.924 233.076 4.82 233.352 2.96ZM243.834 5.072V11.516H242.682V5.924C241.05 7.064 239.49 7.784 237.954 8.324L237.426 7.328C240.846 6.26 243.798 4.088 246.03 1.28L247.038 1.94C246.51 2.564 245.514 3.728 243.834 5.072ZM259.044 2.612L258.84 3.716C256.332 3.044 253.992 2.696 251.016 2.54L251.196 1.544C254.088 1.712 256.248 1.976 259.044 2.612ZM258.42 6.248L258.228 7.292C255.876 6.548 253.932 6.212 250.932 5.984L251.136 4.988C254.52 5.24 256.428 5.648 258.42 6.248ZM259.536 10.316L259.236 11.456C256.68 10.628 254.484 10.148 250.212 9.824L250.428 8.804C255.192 9.044 258.216 9.932 259.536 10.316ZM267.066 3.776L266.466 4.784C265.758 4.304 264.498 3.596 262.77 3.056L263.31 2.096C265.434 2.732 266.754 3.584 267.066 3.776ZM263.238 11.192L263.022 9.992C269.094 9.668 270.882 5.42 271.71 2.732L272.646 3.428C272.07 5.132 270.15 10.736 263.238 11.192ZM275.676 11.624L275.22 10.604C279.876 9.68 281.736 6.86 282.42 3.248H278.256C277.464 4.508 276.576 5.492 275.22 6.404L274.536 5.588C275.472 4.952 276.696 3.92 277.536 2.24H282.336L283.452 3.716C282.456 8.288 279.948 10.664 275.676 11.624ZM283.956 0.8L284.676 0.343999C285.288 1.124 285.492 1.544 285.996 2.552L285.228 3.056C284.82 2.132 284.58 1.652 283.956 0.8ZM282.36 1.268L283.068 0.8C283.68 1.556 283.92 1.988 284.424 2.984L283.668 3.5C283.248 2.564 282.948 2.048 282.36 1.268ZM294.018 5L294.798 4.52C295.35 5.228 295.698 5.876 296.118 6.788L295.278 7.316C294.882 6.356 294.582 5.792 294.018 5ZM295.794 4.232L296.574 3.752C297.15 4.496 297.462 5.084 297.894 6.02L297.054 6.548C296.646 5.576 296.37 5.06 295.794 4.232ZM297.258 1.976L297.282 3.08C296.766 3.044 296.394 3.032 296.058 3.032C295.47 3.032 295.206 3.056 294.846 3.176C293.118 3.752 290.766 5.612 290.766 7.676C290.766 9.236 291.918 9.728 293.19 9.992C293.958 10.148 295.146 10.244 296.214 10.208L295.998 11.372C293.634 11.276 289.65 11.108 289.65 7.748C289.65 5.468 291.75 3.896 293.166 3.068C292.818 3.08 288.666 3.332 287.358 3.488L287.262 2.312C287.85 2.3 289.926 2.204 290.538 2.168C293.382 2.012 294.51 1.988 297.258 1.976ZM305.1 11.372L304.74 10.328C305.976 10.196 308.892 9.848 308.892 6.416C308.892 5.468 308.604 2.828 305.304 2.72C305.196 4.112 304.956 7.064 303.72 9.044C303.012 10.16 302.244 10.436 301.704 10.436C300.528 10.436 299.544 9.044 299.544 7.064C299.544 3.8 301.92 1.712 305.088 1.712C308.976 1.712 310.02 4.4 310.02 6.428C310.02 7.856 309.504 9.272 308.412 10.184C307.632 10.832 306.432 11.24 305.1 11.372ZM304.236 2.768C303.528 2.9 302.868 3.08 302.256 3.536C301.14 4.352 300.588 5.696 300.588 7.088C300.588 7.904 300.888 9.284 301.74 9.284C302.244 9.284 302.604 8.84 302.916 8.312C303.924 6.584 304.116 4.148 304.236 2.768ZM318.174 0.872H319.146V1.628H322.77V2.444H320.958C320.838 2.852 320.742 3.128 320.574 3.536H322.326V9.404C322.326 9.98 322.062 10.328 321.438 10.328H320.166L320.034 9.416L321.15 9.428C321.306 9.428 321.414 9.404 321.414 9.128V4.316H319.098V5.216H321.042V5.96H319.098V6.788H320.634V9.272H316.698V6.788H318.222V5.96H316.266V5.216H318.222V4.316H315.894V10.172H314.982V3.536H316.638C316.59 3.344 316.374 2.54 316.338 2.444H314.586V1.628H318.174V0.872ZM317.502 3.536H319.734C319.866 3.224 320.046 2.6 320.082 2.444H317.238C317.382 3.008 317.394 3.068 317.502 3.536ZM319.806 8.54V7.508H317.514V8.54H319.806ZM316.746 10.796H322.926L322.734 11.72H316.734C314.766 11.72 314.022 10.712 313.758 10.364C312.99 11.24 312.93 11.312 312.078 12.056L311.598 11.036C311.814 10.904 312.498 10.46 313.026 9.896V6.512H311.73V5.528H313.974V9.164C314.214 10.628 316.398 10.796 316.746 10.796ZM314.406 3.032L313.626 3.668C313.41 3.344 312.99 2.696 311.91 1.64L312.57 1.04C313.134 1.52 313.83 2.228 314.406 3.032ZM325.224 4.232V0.883999H326.196V4.064L328.776 3.644L328.836 4.628L326.196 5.06V8.66C326.196 8.924 326.256 9.008 326.556 9.008H327.3C327.816 9.008 327.9 7.64 327.924 7.184L328.896 7.412C328.704 8.984 328.476 9.932 327.492 9.932H326.088C325.524 9.932 325.224 9.632 325.224 9.056V5.216L324.048 5.408L323.988 4.436L325.224 4.232ZM328.5 1.4H334.932C334.932 4.328 334.932 9.716 334.272 11.132C334.128 11.432 333.804 11.984 332.736 11.984H330.996L330.78 10.964L332.568 10.976C332.688 10.976 333.084 10.988 333.288 10.652C333.924 9.62 333.924 3.74 333.924 2.372H331.656C331.608 7.616 330.78 9.992 327.456 12.02L326.76 11.156C330.264 9.284 330.648 6.584 330.648 2.372H328.5V1.4ZM344.898 4.688L344.958 7.604C345.966 8.048 346.926 8.792 347.514 9.44L346.854 10.388C346.074 9.452 345.342 9.008 344.91 8.756V9.248C344.91 11.024 343.698 11.456 342.51 11.456C340.71 11.456 339.822 10.46 339.822 9.344C339.822 8.444 340.518 7.112 342.642 7.112C343.242 7.112 343.626 7.196 343.89 7.256L343.818 4.688H344.898ZM343.914 9.056V8.252C343.638 8.156 343.278 8.024 342.642 8.024C341.418 8.024 340.842 8.636 340.842 9.308C340.842 10.52 342.318 10.52 342.546 10.52C343.734 10.52 343.914 9.872 343.914 9.056ZM340.35 2.84H342.87V3.848H340.146C339.462 7.196 338.478 9.2 338.046 10.088L336.942 9.608C338.226 7.544 338.754 5.192 339.066 3.848H337.038V2.84H339.258C339.39 2.012 339.426 1.748 339.474 1.268L340.614 1.316C340.518 1.892 340.506 1.964 340.35 2.84ZM347.31 3.776L346.806 4.736C345.594 4.004 344.694 3.572 343.614 3.176L344.034 2.288C345.234 2.708 346.038 3.068 347.31 3.776ZM6.912 24.2H10.836V25.088H7.476C7.884 25.856 9.156 26.972 11.1 27.404L10.572 28.328C7.86 27.488 6.9 25.964 6.6 25.28C5.808 27.104 4.272 27.884 2.904 28.34L2.328 27.464C2.928 27.32 4.836 26.852 5.688 25.088H2.484V24.2H5.976C6.036 23.828 6.096 23.456 6.096 22.592H4.332C3.924 23.156 3.648 23.456 3.18 23.876L2.424 23.228C3.276 22.544 3.984 21.668 4.356 20.504L5.316 20.708C5.124 21.188 5.028 21.392 4.86 21.716H10.332V22.592H7.032C7.032 23.288 6.996 23.684 6.912 24.2ZM0.84 19.268H11.244V20.192H1.86V28.844H11.496V29.756H0.84V19.268ZM22.746 24.704V27.284H20.106V29.216C20.106 29.96 19.59 29.984 19.218 29.984H17.922L17.718 29.12H18.858C19.098 29.12 19.134 29.072 19.134 28.832V27.284H16.554V24.788C16.302 24.944 16.218 24.992 15.954 25.148L15.426 24.428C15.846 24.224 16.158 24.068 16.566 23.792C16.17 23.372 16.134 23.336 15.798 23.072L16.35 22.568C16.734 22.856 17.07 23.228 17.178 23.348C17.55 23.048 17.85 22.736 18.186 22.292H15.762V21.536H18.642C18.762 21.272 18.822 21.116 18.918 20.84L19.866 20.948C19.746 21.248 19.698 21.368 19.614 21.536H23.982V22.292H21.186C21.426 22.592 21.726 22.988 22.302 23.432C22.65 23.06 22.938 22.7 23.07 22.52L23.742 22.928C23.37 23.408 22.95 23.816 22.926 23.852C23.466 24.152 23.79 24.272 24.126 24.392L23.67 25.196C23.346 25.04 23.118 24.932 22.746 24.704ZM21.87 25.172V24.452H17.43V25.172H21.87ZM17.922 23.756H21.462C20.766 23.132 20.466 22.676 20.202 22.292H19.182C19.038 22.52 18.702 23.048 17.922 23.756ZM21.87 26.588V25.832H17.43V26.588H21.87ZM14.43 23.912V19.844H18.57V18.872H19.554V19.844H24.018V20.684H15.378V23.948C15.378 27.896 14.082 29.444 13.602 30.02L12.87 29.372C13.41 28.7 14.07 27.836 14.334 25.604C13.734 26 13.278 26.228 12.918 26.408L12.714 25.424C13.542 25.1 13.818 24.968 14.418 24.668C14.418 24.476 14.43 24.248 14.43 23.912ZM14.178 22.88L13.338 23.276C13.206 22.556 12.99 21.788 12.714 21.104L13.458 20.744C13.806 21.428 14.058 22.268 14.178 22.88ZM15.45 29.804L14.922 29C15.882 28.676 16.47 28.352 17.322 27.536L18.018 28.112C16.998 29.108 16.254 29.504 15.45 29.804ZM21.078 28.124L21.714 27.488C22.578 28.316 23.082 28.604 24.198 29L23.67 29.816C22.746 29.492 21.726 28.856 21.078 28.124ZM34.884 22.112L34.992 23.264C34.02 23.372 27.54 24.104 27.54 26.768C27.54 28.16 29.004 28.292 31.584 28.292C33.564 28.292 34.68 28.184 35.364 28.112L35.388 29.24C34.608 29.288 33.552 29.36 31.824 29.36C29.748 29.36 26.424 29.36 26.424 26.804C26.424 24.752 28.896 23.72 29.736 23.36C29.34 22.58 29.316 21.884 29.28 19.328H30.456C30.444 19.652 30.432 19.988 30.432 20.576C30.432 21.848 30.492 22.484 30.744 23C32.04 22.604 33.024 22.412 34.884 22.112ZM43.65 29.372L43.29 28.328C44.526 28.196 47.442 27.848 47.442 24.416C47.442 23.468 47.154 20.828 43.854 20.72C43.746 22.112 43.506 25.064 42.27 27.044C41.562 28.16 40.794 28.436 40.254 28.436C39.078 28.436 38.094 27.044 38.094 25.064C38.094 21.8 40.47 19.712 43.638 19.712C47.526 19.712 48.57 22.4 48.57 24.428C48.57 25.856 48.054 27.272 46.962 28.184C46.182 28.832 44.982 29.24 43.65 29.372ZM42.786 20.768C42.078 20.9 41.418 21.08 40.806 21.536C39.69 22.352 39.138 23.696 39.138 25.088C39.138 25.904 39.438 27.284 40.29 27.284C40.794 27.284 41.154 26.84 41.466 26.312C42.474 24.584 42.666 22.148 42.786 20.768ZM51.084 19.76H52.104V23.24H55.284V18.872H56.292V23.24H59.496V19.76H60.516V24.164H56.292V28.844H59.892V25.088H60.912V29.768H50.676V25.088H51.684V28.844H55.284V24.164H51.084V19.76ZM69.582 26.48L70.374 25.94C71.658 27.2 72.39 28.04 73.314 29.504L72.45 30.08C72.258 29.756 72.114 29.528 71.862 29.156C69.858 29.444 64.962 29.66 63.114 29.66L63.006 28.676H64.662C65.418 27.38 65.874 26.264 66.138 25.568H62.85V24.644H73.566V25.568H67.302C67.014 26.228 66.534 27.272 65.754 28.652C66.054 28.64 67.398 28.604 67.65 28.592C69.114 28.532 70.35 28.424 71.238 28.34C71.118 28.184 70.518 27.428 69.582 26.48ZM71.43 22.436V23.096H65.082V22.424C64.014 23.084 63.354 23.372 62.946 23.54L62.454 22.568C66.03 21.164 67.374 19.22 67.698 18.74H68.766C70.014 20.408 71.922 21.86 74.01 22.604L73.482 23.564C72.954 23.324 72.282 23.012 71.43 22.436ZM65.454 22.184H71.046C69.354 20.984 68.658 20.12 68.238 19.592C67.482 20.648 66.462 21.488 65.454 22.184ZM76.056 19.892L77.196 19.988C77.1 20.708 76.944 21.8 76.944 23.42C76.944 25.28 77.088 27.908 78.432 27.908C78.972 27.908 79.596 27.416 80.424 25.256L81.312 25.76C80.916 26.876 80.364 27.884 79.692 28.556C79.404 28.844 78.96 29.132 78.348 29.132C76.404 29.132 75.864 26.444 75.864 23.324C75.864 22.016 75.984 20.708 76.056 19.892ZM85.728 27.944L84.54 27.992C84.564 27.68 84.588 27.32 84.588 26.768C84.588 23.636 83.652 21.908 82.404 20.888L83.232 20.252C84.66 21.452 85.896 23.144 85.728 27.944ZM89.754 18.908H90.714V30.152H87.45V29.192H89.754V18.908ZM105.9 29.372L105.54 28.328C106.776 28.196 109.692 27.848 109.692 24.416C109.692 23.468 109.404 20.828 106.104 20.72C105.996 22.112 105.756 25.064 104.52 27.044C103.812 28.16 103.044 28.436 102.504 28.436C101.328 28.436 100.344 27.044 100.344 25.064C100.344 21.8 102.72 19.712 105.888 19.712C109.776 19.712 110.82 22.4 110.82 24.428C110.82 25.856 110.304 27.272 109.212 28.184C108.432 28.832 107.232 29.24 105.9 29.372ZM105.036 20.768C104.328 20.9 103.668 21.08 103.056 21.536C101.94 22.352 101.388 23.696 101.388 25.088C101.388 25.904 101.688 27.284 102.54 27.284C103.044 27.284 103.404 26.84 103.716 26.312C104.724 24.584 104.916 22.148 105.036 20.768ZM116.226 23.84L115.782 23.084C116.238 22.868 117.294 22.376 118.11 21.284H116.094V20.54H118.59C118.794 20.156 118.866 20 118.926 19.88C117.462 19.94 117.03 19.94 116.574 19.94L116.382 19.22C119.886 19.232 121.494 18.98 122.49 18.776L122.898 19.496C121.998 19.676 120.438 19.796 119.886 19.832C119.694 20.288 119.61 20.444 119.562 20.54H123.582V21.284H121.494C122.082 22.124 122.538 22.52 123.846 23.108L123.462 23.888C122.922 23.648 122.55 23.432 122.13 23.108V24.452H117.474V23.06C116.886 23.504 116.526 23.684 116.226 23.84ZM120.546 21.284H119.13C118.866 21.692 118.662 21.932 118.35 22.268H121.23C120.882 21.848 120.702 21.548 120.546 21.284ZM121.362 23.792V22.928H118.23V23.792H121.362ZM123.258 25.04V29.18C123.258 29.948 122.79 30.008 122.25 30.008H121.278L121.11 29.168L121.89 29.18C122.298 29.192 122.334 29.12 122.334 28.688V25.772H117.234V30.008H116.334V25.04H123.258ZM120.846 28.196V27.104H118.746V28.196H120.846ZM116.238 24.752L115.71 25.496C115.194 24.704 115.146 24.584 114.954 24.104V30.008H114.03V24.368C113.562 25.88 113.082 26.624 112.782 27.068L112.35 25.916C112.926 25.112 113.682 23.708 113.994 22.124H112.506V21.212H114.03V18.872H114.954V21.212H116.034V22.124H114.954V22.628C115.122 23.06 115.47 23.84 116.238 24.752ZM121.65 26.432V28.892H117.93V26.432H121.65ZM128.136 19.772H131.616V18.872H132.588V19.772H136.044V20.66H129.096V21.8H130.476V20.96H131.364V21.8H133.452V20.96H134.34V21.8H135.948V22.628H134.34V24.512H130.476V22.628H129.096V24.26C129.096 25.088 128.952 26.252 128.772 27.08C128.436 28.592 127.74 29.588 127.476 29.972L126.696 29.216C127.152 28.604 128.136 27.284 128.136 24.248V19.772ZM125.292 19.76L125.844 18.98C126.36 19.196 126.888 19.472 127.728 20.084L127.116 20.972C126.66 20.492 125.748 19.976 125.292 19.76ZM133.452 22.628H131.364V23.732H133.452V22.628ZM136.188 29.072L135.792 30.008C135.168 29.888 133.956 29.648 132.468 28.832C131.484 29.348 130.416 29.708 128.94 30.032L128.508 29.072C129.084 28.988 130.128 28.832 131.532 28.244C130.596 27.56 130.152 27.008 129.924 26.708L130.704 26.288C130.944 26.576 131.4 27.152 132.456 27.788C133.56 27.14 134.028 26.432 134.268 26.06H129.444V25.208H135.312V26.036C135.108 26.456 134.652 27.38 133.428 28.268C134.712 28.796 135.708 28.988 136.188 29.072ZM124.752 22.94L125.304 22.136C126.012 22.448 126.804 22.988 127.212 23.324L126.612 24.152C126.06 23.672 125.4 23.252 124.752 22.94ZM126.444 25.256L127.26 25.748C127.116 26.336 126.648 28.052 125.472 29.912L124.716 29.072C125.616 27.74 126.192 26.18 126.444 25.256ZM139.53 19.424H140.742C140.634 22.664 140.586 24.092 140.586 25.232C140.586 26.768 140.658 28.376 142.914 28.376C146.022 28.376 146.418 26.216 146.754 24.392L147.762 24.764C147.378 26.936 146.598 29.408 142.95 29.408C139.662 29.408 139.446 27.212 139.446 25.124C139.446 24.224 139.518 20.24 139.53 19.424ZM151.332 19.532L152.472 19.628C152.292 20.468 151.932 22.04 151.932 25.064C151.932 27.74 152.208 28.892 152.304 29.324L151.14 29.42C151.032 28.724 150.828 27.524 150.828 25.232C150.828 23.252 150.948 21.332 151.332 19.532ZM154.296 20.504H159.936V21.56H154.296V20.504ZM154.56 24.476L155.532 24.776C154.944 25.604 154.932 26.288 154.932 26.396C154.932 27.488 156.156 27.632 157.44 27.632C158.1 27.632 159.084 27.608 160.188 27.488V28.616C159.78 28.652 158.94 28.724 157.92 28.724C156.144 28.724 153.924 28.556 153.924 26.492C153.924 25.868 154.14 25.184 154.56 24.476ZM168.462 22.364L168.474 25.208C170.838 26.012 172.242 27.164 172.83 27.776L172.05 28.808C171.318 27.992 169.926 26.912 168.462 26.348L168.474 27.176C168.486 27.884 168.402 29.42 165.906 29.42C163.926 29.42 163.038 28.436 163.038 27.26C163.038 25.616 164.73 24.908 166.446 24.908C166.842 24.908 167.07 24.944 167.37 24.98L167.322 19.328H168.45L168.462 21.32L172.518 21.284V22.364H168.462ZM167.382 27.104L167.394 26.012C167.142 25.964 166.782 25.892 166.278 25.892C165.246 25.892 164.106 26.3 164.106 27.272C164.106 28.424 165.63 28.424 165.894 28.424C167.262 28.424 167.382 27.596 167.382 27.104ZM178.932 29.036L178.668 28.1C179.664 28.112 183.36 28.136 183.36 25.352C183.36 23.9 182.316 23.3 181.14 23.3C180.18 23.3 178.14 23.696 176.292 24.164L176.112 23.108C176.568 23.036 178.56 22.676 178.968 22.604C179.712 22.484 180.552 22.364 181.188 22.364C183.24 22.364 184.416 23.636 184.416 25.316C184.416 26.036 184.152 27.92 181.86 28.64C180.924 28.94 179.892 29.024 178.932 29.036ZM197.658 19.976L197.682 21.08C197.274 21.044 196.926 21.032 196.458 21.032C195.858 21.032 195.606 21.056 195.246 21.176C193.518 21.752 191.166 23.612 191.166 25.676C191.166 27.236 192.318 27.728 193.59 27.992C194.43 28.172 195.582 28.244 196.614 28.208L196.398 29.372C194.034 29.276 190.05 29.108 190.05 25.748C190.05 23.468 192.15 21.896 193.566 21.068C193.218 21.08 189.066 21.332 187.758 21.488L187.662 20.312C188.382 20.288 190.302 20.204 190.914 20.168C193.602 20.024 194.706 20 197.658 19.976ZM203.076 28.892L202.02 29.636C201.168 28.352 200.424 27.572 200.028 27.152L200.94 26.48C201.72 27.2 202.572 28.208 203.076 28.892ZM217.854 29.588L217.194 28.76C219.258 28.016 219.882 26.816 220.302 25.076C219.522 24.776 218.502 24.464 217.422 24.368C216.774 27.044 216.246 28.76 214.434 28.76C213.282 28.76 212.442 27.992 212.442 26.708C212.442 26.12 212.658 23.54 216.582 23.384C216.75 22.52 216.906 21.452 216.978 20.6L213.222 20.636V19.592H218.19C218.034 20.792 217.998 21.056 217.602 23.42C218.61 23.504 219.402 23.696 220.494 24.056C220.674 22.88 220.734 22.028 220.758 21.476L221.898 21.56C221.814 22.424 221.718 23.468 221.538 24.428C221.574 24.44 222.27 24.704 223.014 25.112L222.654 26.192C222.114 25.868 221.91 25.76 221.31 25.496C221.022 26.672 220.41 28.676 217.854 29.588ZM216.402 24.308C215.694 24.332 215.19 24.404 214.662 24.668C213.882 25.052 213.39 25.832 213.39 26.648C213.39 26.876 213.45 27.812 214.362 27.812C215.442 27.812 215.766 26.912 216.402 24.308ZM232.848 22.688L232.908 25.604C233.916 26.048 234.876 26.792 235.464 27.44L234.804 28.388C234.024 27.452 233.292 27.008 232.86 26.756V27.248C232.86 29.024 231.648 29.456 230.46 29.456C228.66 29.456 227.772 28.46 227.772 27.344C227.772 26.444 228.468 25.112 230.592 25.112C231.192 25.112 231.576 25.196 231.84 25.256L231.768 22.688H232.848ZM231.864 27.056V26.252C231.588 26.156 231.228 26.024 230.592 26.024C229.368 26.024 228.792 26.636 228.792 27.308C228.792 28.52 230.268 28.52 230.496 28.52C231.684 28.52 231.864 27.872 231.864 27.056ZM228.3 20.84H230.82V21.848H228.096C227.412 25.196 226.428 27.2 225.996 28.088L224.892 27.608C226.176 25.544 226.704 23.192 227.016 21.848H224.988V20.84H227.208C227.34 20.012 227.376 19.748 227.424 19.268L228.564 19.316C228.468 19.892 228.456 19.964 228.3 20.84ZM235.26 21.776L234.756 22.736C233.544 22.004 232.644 21.572 231.564 21.176L231.984 20.288C233.184 20.708 233.988 21.068 235.26 21.776ZM245.982 25.4L245.058 26.024C244.35 25.232 243.594 23.936 242.946 22.292C242.214 22.304 241.29 22.316 241.11 22.316H237.654V21.272L241.158 21.332C241.662 21.344 242.31 21.332 242.61 21.32C242.37 20.54 242.19 19.664 242.142 19.376L243.282 19.292C243.39 20.024 243.558 20.804 243.714 21.284C244.938 21.248 246.066 21.104 247.266 20.852L247.458 21.884C246.15 22.16 245.118 22.208 244.062 22.256C244.566 23.468 245.262 24.632 245.982 25.4ZM239.934 24.416L240.51 25.196C239.334 25.772 239.274 26.516 239.274 26.744C239.274 28.208 241.218 28.364 242.934 28.364C244.494 28.364 245.406 28.256 246.15 28.16L246.162 29.228C245.73 29.276 244.674 29.372 243.03 29.372C240.93 29.372 239.742 29.132 238.902 28.376C238.422 27.944 238.194 27.356 238.194 26.756C238.194 25.88 238.71 25.016 239.934 24.416ZM253.068 19.256L254.256 19.58C253.452 21.356 252.732 23.324 252.408 24.26C253.056 23.732 253.524 23.504 254.184 23.504C256.032 23.504 256.128 25.208 256.128 26.036V26.84C256.128 27.704 256.224 28.364 257.196 28.364C257.784 28.364 258.396 28.088 258.792 26.948C259.128 25.976 259.188 25.076 259.188 24.38L260.232 24.62C260.16 26.204 259.872 29.42 257.124 29.42C255.084 29.42 255.072 27.728 255.072 26.792V26.12C255.072 25.232 254.856 24.524 254.004 24.524C253.524 24.524 252.54 24.776 251.784 26.324C251.364 27.44 251.172 28.16 250.848 29.372L249.72 29.024C251.424 23.816 251.628 23.24 251.904 22.46C252.084 21.956 252.78 20.036 253.068 19.256ZM267.75 29.372L267.39 28.328C268.626 28.196 271.542 27.848 271.542 24.416C271.542 23.468 271.254 20.828 267.954 20.72C267.846 22.112 267.606 25.064 266.37 27.044C265.662 28.16 264.894 28.436 264.354 28.436C263.178 28.436 262.194 27.044 262.194 25.064C262.194 21.8 264.57 19.712 267.738 19.712C271.626 19.712 272.67 22.4 272.67 24.428C272.67 25.856 272.154 27.272 271.062 28.184C270.282 28.832 269.082 29.24 267.75 29.372ZM266.886 20.768C266.178 20.9 265.518 21.08 264.906 21.536C263.79 22.352 263.238 23.696 263.238 25.088C263.238 25.904 263.538 27.284 264.39 27.284C264.894 27.284 265.254 26.84 265.566 26.312C266.574 24.584 266.766 22.148 266.886 20.768ZM281.688 18.872H282.552V19.652H284.868V21.38H285.444V22.16H284.868V23.888H282.552V24.752H285.024V25.532H282.552V26.432H285.408V27.236H282.552V28.304H281.688V27.236H279.636V26.432H281.688V25.532H279.96V24.752H281.688V23.888H280.128V23.12H281.688V22.16H279.492V21.38H281.688V20.444H280.128V19.652H281.688V18.872ZM283.98 21.38V20.444H282.552V21.38H283.98ZM283.98 23.12V22.16H282.552V23.12H283.98ZM282.264 28.736H285.552L285.396 29.672H282.192C279.888 29.672 278.7 28.748 278.364 28.424C277.884 29.204 277.452 29.6 277.104 29.924L276.564 29.036C276.9 28.772 277.308 28.46 277.776 27.692C277.08 26.624 276.876 25.22 276.804 24.776L277.62 24.656C277.692 25.148 277.8 25.916 278.196 26.744C278.532 25.736 278.616 24.8 278.64 23.912H276.972V23.036C277.452 22.364 278.232 20.888 278.52 20.192H277.092V19.328H279.492V20.228C279.084 21.128 278.508 22.124 277.98 23.048H279.516C279.468 25.652 278.916 27.248 278.784 27.596C278.856 27.68 279.924 28.736 282.264 28.736ZM276.288 21.752V29.984H275.364V23.816C275.052 24.38 274.86 24.584 274.608 24.848L274.14 23.864C275.16 22.628 275.796 20.552 276.036 18.848L276.996 19.004C276.876 19.7 276.708 20.6 276.288 21.752ZM296.706 25.628L297.51 26.216C296.97 26.792 296.574 27.152 295.77 27.74C296.778 28.316 297.594 28.604 298.026 28.76L297.462 29.684C296.178 29.204 294.606 28.316 293.454 26.888V29.12C293.454 29.648 293.19 30.008 292.578 30.008H291.126L290.934 29.024L292.218 29.036C292.494 29.036 292.518 28.916 292.518 28.76V25.544H289.146V24.776H292.518V23.888H288.618V24.824C288.618 25.712 288.51 28.028 287.454 30.02L286.638 29.168C286.842 28.82 287.202 28.16 287.418 27.032C287.55 26.336 287.646 25.94 287.646 24.74V19.748H291.978V18.872H292.974V19.748H297.846V20.636H288.618V23.096H292.518V22.28H289.146V21.5H292.518V20.936H293.454V21.5H296.97V23.096H297.918V23.888H296.97V25.544H293.454V25.652C293.754 26.072 294.186 26.636 294.99 27.236C295.134 27.128 296.094 26.384 296.706 25.628ZM296.022 22.28H293.454V23.096H296.022V22.28ZM296.022 23.888H293.454V24.776H296.022V23.888ZM289.158 26.336L289.698 25.64C290.466 26 290.862 26.216 291.474 26.696L290.838 27.428C290.31 26.936 289.938 26.696 289.158 26.336ZM291.954 27.188L292.11 28.028C291.582 28.316 291.294 28.436 288.738 29.504L288.366 28.64C289.746 28.208 291.546 27.38 291.954 27.188ZM304.8 23.204C305.484 23.204 306.036 23.768 306.036 24.44C306.036 25.1 305.496 25.676 304.8 25.676C304.104 25.676 303.564 25.112 303.564 24.44C303.564 23.744 304.128 23.204 304.8 23.204ZM322.218 29.072L321.558 30.008C321.018 29.648 319.95 28.94 317.982 28.088C317.322 28.568 315.474 29.66 312.354 29.984L312.006 28.928C313.614 28.784 315.414 28.484 316.914 27.656C315.942 27.272 314.874 26.912 313.002 26.396C313.362 25.976 313.95 25.28 314.61 24.14H311.718V23.192H315.126C315.546 22.376 315.75 21.812 315.894 21.392L316.998 21.596C316.866 21.92 316.71 22.316 316.278 23.192H322.782V24.14H320.658C320.082 25.976 319.29 26.876 318.822 27.356C320.346 27.992 321.522 28.664 322.218 29.072ZM319.602 24.14H315.762C315.186 25.148 314.838 25.604 314.598 25.916C315.462 26.168 316.662 26.516 317.862 26.972C319.014 25.916 319.47 24.536 319.602 24.14ZM312.006 19.952H316.71V18.872H317.742V19.952H322.506V22.568H321.486V20.876H313.026V22.568H312.006V19.952ZM333.24 22.844V23.744H330.216V25.568H334.056V26.468H330.216V28.736H335.196V29.696H324.204V28.736H329.196V26.468H325.38V25.568H329.196V23.744H326.208V22.832C325.392 23.324 324.888 23.552 324.456 23.756L323.952 22.772C325.86 22.04 327.828 20.744 329.16 18.884H330.252C331.464 20.516 333.24 21.956 335.448 22.76L334.944 23.744C334.524 23.552 333.984 23.312 333.24 22.844ZM326.22 22.82H333.204C332.46 22.34 330.984 21.332 329.7 19.736C328.728 20.96 327.552 22.016 326.22 22.82ZM341.322 20.468H346.326V21.428H341.034C340.758 22.16 340.59 22.556 340.242 23.156C341.082 22.652 341.562 22.448 342.162 22.448C342.978 22.448 343.746 22.712 343.986 23.852C344.262 23.744 345.906 23.084 346.986 22.712L347.274 23.756C346.302 24.032 345.45 24.296 344.13 24.8C344.166 25.22 344.178 25.736 344.178 26.168C344.178 26.336 344.178 26.696 344.142 27.08H343.098C343.122 26.804 343.158 26.36 343.158 25.928C343.158 25.724 343.158 25.52 343.134 25.208C342.21 25.64 340.758 26.408 340.758 27.392C340.758 28.448 342.09 28.448 343.41 28.448C344.37 28.448 345.498 28.4 346.578 28.28L346.614 29.312C345.93 29.36 344.886 29.432 343.746 29.432C342.39 29.432 339.678 29.432 339.678 27.5C339.678 25.868 341.826 24.788 343.014 24.26C342.882 23.552 342.546 23.312 341.994 23.312C341.334 23.312 340.458 23.684 339.618 24.536C339.066 25.292 338.274 26.348 337.89 26.744L337.146 25.94C338.202 24.944 339.162 23.672 339.93 21.428H337.458V20.468H340.218C340.302 20.156 340.386 19.808 340.47 19.124L341.622 19.172C341.55 19.592 341.49 19.868 341.322 20.468ZM9.216 39.62H11.292V40.652H9.216V42.176C9.216 46.592 5.364 47.3 3.564 47.516L3.168 46.472C6.564 46.148 8.136 44.768 8.136 42.128V40.652H3.948V43.88H2.856V40.652H0.828V39.62H2.856V37.388H3.948V39.62H8.136V37.34H9.216V39.62ZM18.978 39.404H21.366C21.138 39.116 21.018 38.768 21.018 38.384C21.018 37.472 21.774 36.728 22.686 36.728C23.61 36.728 24.354 37.472 24.354 38.396C24.354 39.14 23.862 39.788 23.142 39.992V40.424H18.978V47.552H17.874V40.424H13.722V39.404H17.874V37.4H18.978V39.404ZM22.686 37.472C22.182 37.472 21.762 37.88 21.762 38.396C21.762 38.9 22.182 39.32 22.686 39.32C23.202 39.32 23.61 38.9 23.61 38.396C23.61 37.88 23.19 37.472 22.686 37.472ZM14.322 46.832L13.446 46.04C14.718 44.768 15.15 43.052 15.282 41.576L16.302 41.684C16.134 43.268 15.762 45.224 14.322 46.832ZM20.598 41.684L21.606 41.564C21.966 43.652 22.47 44.9 23.454 46.088L22.554 46.784C21.474 45.464 21.006 44.144 20.598 41.684ZM25.74 41.864H36.06V43.004H25.74V41.864ZM48.078 42.932L47.514 44.048C46.698 43.544 44.73 42.344 42.222 41.48V47.54H41.058V37.28H42.222V40.352C44.49 41.072 46.35 41.996 48.078 42.932ZM52.38 37.424H53.592C53.484 40.664 53.436 42.092 53.436 43.232C53.436 44.768 53.508 46.376 55.764 46.376C58.872 46.376 59.268 44.216 59.604 42.392L60.612 42.764C60.228 44.936 59.448 47.408 55.8 47.408C52.512 47.408 52.296 45.212 52.296 43.124C52.296 42.224 52.368 38.24 52.38 37.424ZM66.126 46.892L65.07 47.636C64.218 46.352 63.474 45.572 63.078 45.152L63.99 44.48C64.77 45.2 65.622 46.208 66.126 46.892ZM81.612 42.2H85.536V43.088H82.176C82.584 43.856 83.856 44.972 85.8 45.404L85.272 46.328C82.56 45.488 81.6 43.964 81.3 43.28C80.508 45.104 78.972 45.884 77.604 46.34L77.028 45.464C77.628 45.32 79.536 44.852 80.388 43.088H77.184V42.2H80.676C80.736 41.828 80.796 41.456 80.796 40.592H79.032C78.624 41.156 78.348 41.456 77.88 41.876L77.124 41.228C77.976 40.544 78.684 39.668 79.056 38.504L80.016 38.708C79.824 39.188 79.728 39.392 79.56 39.716H85.032V40.592H81.732C81.732 41.288 81.696 41.684 81.612 42.2ZM75.54 37.268H85.944V38.192H76.56V46.844H86.196V47.756H75.54V37.268ZM97.446 42.704V45.284H94.806V47.216C94.806 47.96 94.29 47.984 93.918 47.984H92.622L92.418 47.12H93.558C93.798 47.12 93.834 47.072 93.834 46.832V45.284H91.254V42.788C91.002 42.944 90.918 42.992 90.654 43.148L90.126 42.428C90.546 42.224 90.858 42.068 91.266 41.792C90.87 41.372 90.834 41.336 90.498 41.072L91.05 40.568C91.434 40.856 91.77 41.228 91.878 41.348C92.25 41.048 92.55 40.736 92.886 40.292H90.462V39.536H93.342C93.462 39.272 93.522 39.116 93.618 38.84L94.566 38.948C94.446 39.248 94.398 39.368 94.314 39.536H98.682V40.292H95.886C96.126 40.592 96.426 40.988 97.002 41.432C97.35 41.06 97.638 40.7 97.77 40.52L98.442 40.928C98.07 41.408 97.65 41.816 97.626 41.852C98.166 42.152 98.49 42.272 98.826 42.392L98.37 43.196C98.046 43.04 97.818 42.932 97.446 42.704ZM96.57 43.172V42.452H92.13V43.172H96.57ZM92.622 41.756H96.162C95.466 41.132 95.166 40.676 94.902 40.292H93.882C93.738 40.52 93.402 41.048 92.622 41.756ZM96.57 44.588V43.832H92.13V44.588H96.57ZM89.13 41.912V37.844H93.27V36.872H94.254V37.844H98.718V38.684H90.078V41.948C90.078 45.896 88.782 47.444 88.302 48.02L87.57 47.372C88.11 46.7 88.77 45.836 89.034 43.604C88.434 44 87.978 44.228 87.618 44.408L87.414 43.424C88.242 43.1 88.518 42.968 89.118 42.668C89.118 42.476 89.13 42.248 89.13 41.912ZM88.878 40.88L88.038 41.276C87.906 40.556 87.69 39.788 87.414 39.104L88.158 38.744C88.506 39.428 88.758 40.268 88.878 40.88ZM90.15 47.804L89.622 47C90.582 46.676 91.17 46.352 92.022 45.536L92.718 46.112C91.698 47.108 90.954 47.504 90.15 47.804ZM95.778 46.124L96.414 45.488C97.278 46.316 97.782 46.604 98.898 47L98.37 47.816C97.446 47.492 96.426 46.856 95.778 46.124ZM101.532 37.532L102.672 37.628C102.492 38.468 102.132 40.04 102.132 43.064C102.132 45.74 102.408 46.892 102.504 47.324L101.34 47.42C101.232 46.724 101.028 45.524 101.028 43.232C101.028 41.252 101.148 39.332 101.532 37.532ZM104.496 38.504H110.136V39.56H104.496V38.504ZM104.76 42.476L105.732 42.776C105.144 43.604 105.132 44.288 105.132 44.396C105.132 45.488 106.356 45.632 107.64 45.632C108.3 45.632 109.284 45.608 110.388 45.488V46.616C109.98 46.652 109.14 46.724 108.12 46.724C106.344 46.724 104.124 46.556 104.124 44.492C104.124 43.868 104.34 43.184 104.76 42.476ZM116.478 46.724L116.19 45.692C118.17 45.68 119.55 45.512 120.726 44.672C121.374 44.204 121.998 43.34 121.998 42.152C121.998 41.024 121.47 39.596 119.13 39.596C117.69 39.596 115.11 40.172 113.082 40.676L112.818 39.464C113.094 39.428 115.422 39.02 115.914 38.936C117.054 38.732 118.206 38.54 119.202 38.54C122.01 38.54 123.15 40.34 123.15 42.14C123.15 43.064 122.85 45.092 120.294 46.124C119.274 46.544 117.93 46.712 116.478 46.724ZM125.856 37.892L126.996 37.988C126.9 38.708 126.744 39.8 126.744 41.42C126.744 43.28 126.888 45.908 128.232 45.908C128.772 45.908 129.396 45.416 130.224 43.256L131.112 43.76C130.716 44.876 130.164 45.884 129.492 46.556C129.204 46.844 128.76 47.132 128.148 47.132C126.204 47.132 125.664 44.444 125.664 41.324C125.664 40.016 125.784 38.708 125.856 37.892ZM135.528 45.944L134.34 45.992C134.364 45.68 134.388 45.32 134.388 44.768C134.388 41.636 133.452 39.908 132.204 38.888L133.032 38.252C134.46 39.452 135.696 41.144 135.528 45.944ZM147.858 37.976L147.882 39.08C147.474 39.044 147.126 39.032 146.658 39.032C146.058 39.032 145.806 39.056 145.446 39.176C143.718 39.752 141.366 41.612 141.366 43.676C141.366 45.236 142.518 45.728 143.79 45.992C144.63 46.172 145.782 46.244 146.814 46.208L146.598 47.372C144.234 47.276 140.25 47.108 140.25 43.748C140.25 41.468 142.35 39.896 143.766 39.068C143.418 39.08 139.266 39.332 137.958 39.488L137.862 38.312C138.582 38.288 140.502 38.204 141.114 38.168C143.802 38.024 144.906 38 147.858 37.976ZM155.7 47.372L155.34 46.328C156.576 46.196 159.492 45.848 159.492 42.416C159.492 41.468 159.204 38.828 155.904 38.72C155.796 40.112 155.556 43.064 154.32 45.044C153.612 46.16 152.844 46.436 152.304 46.436C151.128 46.436 150.144 45.044 150.144 43.064C150.144 39.8 152.52 37.712 155.688 37.712C159.576 37.712 160.62 40.4 160.62 42.428C160.62 43.856 160.104 45.272 159.012 46.184C158.232 46.832 157.032 47.24 155.7 47.372ZM154.836 38.768C154.128 38.9 153.468 39.08 152.856 39.536C151.74 40.352 151.188 41.696 151.188 43.088C151.188 43.904 151.488 45.284 152.34 45.284C152.844 45.284 153.204 44.84 153.516 44.312C154.524 42.584 154.716 40.148 154.836 38.768ZM168.066 39.74H168.33V48.008H167.286V40.832C165.426 43.184 163.614 44.156 162.762 44.588L162.162 43.64C165.114 42.284 166.89 40.22 167.802 38.276H162.294V37.292H173.382V38.276H168.87C168.522 38.996 168.282 39.392 168.066 39.74ZM173.55 43.688L172.83 44.588C171.006 43.268 170.214 42.464 168.75 40.616L169.482 40.04C170.502 41.312 171.726 42.572 173.55 43.688ZM185.268 47.072L184.608 48.008C184.068 47.648 183 46.94 181.032 46.088C180.372 46.568 178.524 47.66 175.404 47.984L175.056 46.928C176.664 46.784 178.464 46.484 179.964 45.656C178.992 45.272 177.924 44.912 176.052 44.396C176.412 43.976 177 43.28 177.66 42.14H174.768V41.192H178.176C178.596 40.376 178.8 39.812 178.944 39.392L180.048 39.596C179.916 39.92 179.76 40.316 179.328 41.192H185.832V42.14H183.708C183.132 43.976 182.34 44.876 181.872 45.356C183.396 45.992 184.572 46.664 185.268 47.072ZM182.652 42.14H178.812C178.236 43.148 177.888 43.604 177.648 43.916C178.512 44.168 179.712 44.516 180.912 44.972C182.064 43.916 182.52 42.536 182.652 42.14ZM175.056 37.952H179.76V36.872H180.792V37.952H185.556V40.568H184.536V38.876H176.076V40.568H175.056V37.952ZM192.75 41.204C193.434 41.204 193.986 41.768 193.986 42.44C193.986 43.1 193.446 43.676 192.75 43.676C192.054 43.676 191.514 43.112 191.514 42.44C191.514 41.744 192.078 41.204 192.75 41.204ZM200.232 42.824L199.44 42.44C199.776 41.36 199.848 39.98 199.848 39.38L200.616 39.452C200.604 40.28 200.496 41.84 200.232 42.824ZM201.108 36.872H202.08V48.008H201.108V36.872ZM203.544 40.88L202.74 41.192C202.644 40.688 202.452 39.98 202.2 39.356L202.92 39.068C203.22 39.752 203.484 40.676 203.544 40.88ZM210.396 41.096V47.756H203.412V41.096H204.36V46.892H209.448V41.096H210.396ZM207.864 40.748L208.716 41.12C208.368 42.26 208.056 42.848 207.708 43.46C208.452 44.264 208.752 44.684 209.088 45.2L208.38 45.836C207.852 45.044 207.564 44.684 207.192 44.264C206.82 44.804 206.4 45.38 205.344 46.292L204.684 45.608C205.536 44.924 206.004 44.336 206.544 43.532C206.016 42.98 205.62 42.584 204.9 41.996L205.524 41.384C206.064 41.792 206.424 42.128 207.024 42.74C207.336 42.152 207.588 41.66 207.864 40.748ZM207.528 39.344L206.604 39.632C206.364 38.564 205.752 37.292 205.68 37.148L206.568 36.896C206.712 37.184 207.24 38.228 207.528 39.344ZM209.292 40.4L208.464 39.98C209.268 38.816 209.7 37.508 209.844 37.088L210.744 37.484C210.468 38.372 209.88 39.584 209.292 40.4ZM205.272 39.812L204.384 40.148C204.108 39.44 203.652 38.504 203.124 37.748L203.952 37.4C204.456 38.084 204.972 39.02 205.272 39.812ZM217.854 47.588L217.194 46.76C219.258 46.016 219.882 44.816 220.302 43.076C219.522 42.776 218.502 42.464 217.422 42.368C216.774 45.044 216.246 46.76 214.434 46.76C213.282 46.76 212.442 45.992 212.442 44.708C212.442 44.12 212.658 41.54 216.582 41.384C216.75 40.52 216.906 39.452 216.978 38.6L213.222 38.636V37.592H218.19C218.034 38.792 217.998 39.056 217.602 41.42C218.61 41.504 219.402 41.696 220.494 42.056C220.674 40.88 220.734 40.028 220.758 39.476L221.898 39.56C221.814 40.424 221.718 41.468 221.538 42.428C221.574 42.44 222.27 42.704 223.014 43.112L222.654 44.192C222.114 43.868 221.91 43.76 221.31 43.496C221.022 44.672 220.41 46.676 217.854 47.588ZM216.402 42.308C215.694 42.332 215.19 42.404 214.662 42.668C213.882 43.052 213.39 43.832 213.39 44.648C213.39 44.876 213.45 45.812 214.362 45.812C215.442 45.812 215.766 44.912 216.402 42.308ZM230.1 41.204C230.784 41.204 231.336 41.768 231.336 42.44C231.336 43.1 230.796 43.676 230.1 43.676C229.404 43.676 228.864 43.112 228.864 42.44C228.864 41.744 229.428 41.204 230.1 41.204ZM236.97 37.904H239.646V36.86H240.618V37.904H244.458V36.86H245.418V37.904H248.13V38.84H245.418V40.064H244.458V38.84H240.618V40.064H239.646V38.84H236.97V37.904ZM248.13 40.832V41.756H243.018V43.304H246.894V47.78H238.182V43.304H242.022V41.756H236.97V40.832H242.022V39.512H243.018V40.832H248.13ZM245.898 46.904V44.192H239.178V46.904H245.898ZM257.34 41.756H260.112V47.06C260.112 47.42 260.112 48.02 259.284 48.02H258.096L257.916 47.036H258.912C259.08 47.036 259.188 47 259.188 46.784V46.028H256.944V47.984H256.02V46.028H253.908V48.02H252.972V41.756H255.876C255.516 41.492 255.072 41.264 254.28 40.94L254.856 40.292C255.516 40.592 256.164 40.976 256.344 41.096C257.064 40.736 257.4 40.544 258.048 40.064H252.756V39.344H259.668V39.98C258.588 40.856 257.352 41.432 257.076 41.564C257.148 41.612 257.256 41.696 257.34 41.756ZM256.02 43.496V42.524H253.908V43.496H256.02ZM256.02 45.272V44.24H253.908V45.272H256.02ZM259.188 43.496V42.524H256.944V43.496H259.188ZM259.188 45.272V44.24H256.944V45.272H259.188ZM251.292 42.044V37.82H255.12V36.848H256.128V37.82H260.52V38.672H252.228V41.852C252.228 46.076 251.112 47.408 250.572 48.056L249.78 47.384C250.632 46.388 250.98 45.452 251.196 43.652C250.404 44.132 249.996 44.336 249.576 44.552L249.336 43.568C250.284 43.208 251.16 42.728 251.268 42.656C251.28 42.488 251.292 42.32 251.292 42.044ZM251.016 40.916L250.188 41.324C250.02 40.64 249.672 39.728 249.396 39.188L250.188 38.756C250.536 39.404 250.86 40.292 251.016 40.916ZM266.622 38.468H271.626V39.428H266.334C266.058 40.16 265.89 40.556 265.542 41.156C266.382 40.652 266.862 40.448 267.462 40.448C268.278 40.448 269.046 40.712 269.286 41.852C269.562 41.744 271.206 41.084 272.286 40.712L272.574 41.756C271.602 42.032 270.75 42.296 269.43 42.8C269.466 43.22 269.478 43.736 269.478 44.168C269.478 44.336 269.478 44.696 269.442 45.08H268.398C268.422 44.804 268.458 44.36 268.458 43.928C268.458 43.724 268.458 43.52 268.434 43.208C267.51 43.64 266.058 44.408 266.058 45.392C266.058 46.448 267.39 46.448 268.71 46.448C269.67 46.448 270.798 46.4 271.878 46.28L271.914 47.312C271.23 47.36 270.186 47.432 269.046 47.432C267.69 47.432 264.978 47.432 264.978 45.5C264.978 43.868 267.126 42.788 268.314 42.26C268.182 41.552 267.846 41.312 267.294 41.312C266.634 41.312 265.758 41.684 264.918 42.536C264.366 43.292 263.574 44.348 263.19 44.744L262.446 43.94C263.502 42.944 264.462 41.672 265.23 39.428H262.758V38.468H265.518C265.602 38.156 265.686 37.808 265.77 37.124L266.922 37.172C266.85 37.592 266.79 37.868 266.622 38.468ZM277.584 38.132V40.028H279.516V40.916H277.584V40.952C277.896 41.552 278.556 42.608 279.54 43.448L279.048 44.396C278.484 43.844 278.028 43.208 277.584 42.392V48.008H276.612V42.62C276.288 43.34 275.688 44.468 274.572 45.68L274.14 44.54C275.376 43.328 276.12 41.768 276.492 40.916H274.296V40.028H276.612V38.264C275.988 38.336 275.496 38.384 274.524 38.42L274.32 37.52C276.072 37.472 277.404 37.292 278.964 36.872L279.324 37.748C278.676 37.916 278.292 38.012 277.584 38.132ZM285.06 37.64V47.684H279.948V37.64H285.06ZM284.076 46.748V38.552H280.908V46.748H284.076ZM295.35 38.024L295.05 39.164C293.622 38.588 291.858 38.36 290.238 38.3L290.43 37.268C291.462 37.316 293.514 37.424 295.35 38.024ZM288.774 38.984L289.854 39.176C289.578 40.088 289.482 40.784 289.482 42.548C290.706 41.576 292.05 41.072 293.61 41.072C296.394 41.072 296.91 42.86 296.91 43.856C296.91 46.736 294.138 47.384 291.57 47.384C290.466 47.384 289.758 47.288 289.266 47.216L289.146 46.16C289.95 46.304 290.682 46.376 291.486 46.376C293.142 46.376 294.582 46.052 295.302 45.26C295.638 44.9 295.77 44.336 295.77 43.844C295.77 42.908 295.134 42.044 293.55 42.044C291.942 42.044 290.334 42.728 289.542 43.772C289.506 43.892 289.494 43.928 289.482 43.988L288.414 43.952C288.414 43.544 288.45 41.744 288.462 41.384C288.51 40.268 288.618 39.608 288.774 38.984ZM303.708 47.6L303.312 46.628C305.616 46.184 306.624 45.488 306.624 42.212C306.624 41.96 306.612 41.396 306.6 41.024H302.52V40.016H306.564C306.54 39.476 306.48 38.096 306.444 37.46L307.476 37.436C307.512 37.904 307.608 39.644 307.632 40.016H309.828V41.024H307.692C307.704 41.348 307.728 42.164 307.728 42.368C307.728 46.232 306.252 47.108 303.708 47.6ZM307.668 36.944L308.472 36.668C308.892 37.58 309.036 38.156 309.264 39.116L308.4 39.428C308.256 38.552 308.052 37.82 307.668 36.944ZM309.3 36.632L310.104 36.344C310.524 37.256 310.62 37.652 310.896 38.792L310.032 39.104C309.852 38.096 309.684 37.508 309.3 36.632ZM300.444 37.46L301.596 37.532C301.44 38.468 301.164 40.244 301.164 42.74C301.164 44.132 301.248 45.644 301.572 47.156L300.456 47.3C300.144 45.836 300.084 44.336 300.084 42.848C300.084 41.048 300.204 39.248 300.444 37.46ZM318.09 38.636H321.918V39.56H318.09V41.048H321.69V41.96H318.09V43.64C319.362 44.108 320.418 44.768 321.678 45.824L320.97 46.856C319.806 45.572 318.75 45.02 318.09 44.72V45.404C318.09 47.12 316.662 47.444 315.654 47.444C313.314 47.444 312.81 46.196 312.81 45.428C312.81 44.168 314.046 43.256 315.834 43.256C316.374 43.256 316.782 43.328 317.034 43.376V41.96H312.654V41.048H317.034V39.56H312.474V38.636H317.034V37.376H318.09V38.636ZM317.034 45.188V44.312C316.794 44.24 316.446 44.144 315.834 44.144C314.718 44.144 313.818 44.6 313.818 45.392C313.818 45.62 313.938 46.508 315.522 46.508C316.566 46.508 317.034 46.136 317.034 45.188ZM331.584 38.6H334.728V39.596H331.584V42.008C331.644 42.236 331.704 42.512 331.74 42.8C331.788 43.1 331.812 43.412 331.812 43.724C331.812 46.892 329.004 47.468 326.916 47.552L326.58 46.544C329.784 46.58 330.672 45.476 330.828 44.048C330.708 44.3 330.312 45.2 328.932 45.2C327.444 45.2 326.7 44.012 326.7 42.848C326.7 41.444 327.696 40.412 329.184 40.412C329.988 40.412 330.276 40.676 330.528 40.892L330.516 39.596H324.6V38.6H330.504L330.48 37.256H331.584V38.6ZM330.552 42.932V42.404C330.456 42.02 330.264 41.312 329.208 41.312C328.548 41.312 327.708 41.696 327.708 42.8C327.708 43.304 327.96 44.324 329.076 44.324C329.928 44.324 330.552 43.724 330.552 42.932ZM338.802 44.036C339.774 44.036 340.59 44.816 340.59 45.824C340.59 46.808 339.786 47.612 338.802 47.612C337.806 47.612 337.014 46.808 337.014 45.824C337.014 44.828 337.818 44.036 338.802 44.036ZM338.802 44.636C338.154 44.636 337.614 45.164 337.614 45.824C337.614 46.472 338.142 47 338.802 47C339.45 47 339.978 46.472 339.978 45.824C339.978 45.152 339.438 44.636 338.802 44.636Z" fill="black"/>
</svg>
