<svg width="180" height="16" viewBox="0 0 180 16" fill="none" xmlns="http://www.w3.org/2000/svg">
<path d="M3.32 12.672H10.696V6.576H3.32V12.672ZM8.84 8.272V11.008H5.176V8.272H8.84ZM2.04 15.472V2.768H11.976V13.008C11.976 13.44 11.688 13.44 11.496 13.44H9.336L9.672 15.472H12.36C12.744 15.472 13.976 15.472 13.976 13.952V0.879999H0.024V15.472H2.04ZM2.552 5.52H11.448V3.792H2.552V5.52ZM25.168 11.776C24.512 11.376 24.192 11.216 23.424 10.912H29.568V5.952H17.632V10.912H22.144L21.536 11.744C22.56 12.144 23.296 12.544 24.224 13.2L25.168 11.776ZM27.584 7.888H19.568V7.184H27.584V7.888ZM27.584 9.664H19.568V8.944H27.584V9.664ZM31.088 3.84H27.744C27.808 3.648 27.904 3.328 28.048 2.736H30.24V1.264H24.56V0.4H22.56V1.264H16.992V2.736H19.264C19.36 3.024 19.376 3.104 19.536 3.84H16.096V5.328H31.088V3.84ZM21.552 3.84C21.52 3.712 21.424 3.2 21.264 2.736H25.968C25.952 2.816 25.84 3.408 25.68 3.84H21.552ZM17.312 15.392C18.432 14.24 18.96 13.104 19.312 11.696L17.6 11.264C17.296 12.336 16.768 13.136 15.904 13.936L17.312 15.392ZM19.76 11.872V14.224C19.76 15.184 20.544 15.328 21.184 15.328H25.76C26.656 15.328 27.056 14.8 27.344 12.848L25.52 12.416C25.376 13.696 25.184 13.696 24.848 13.696H22.032C21.792 13.696 21.632 13.648 21.632 13.296V11.872H19.76ZM31.2 14.272C30.704 13.312 29.744 11.904 28.896 11.024L27.296 11.952C28.224 12.976 28.688 13.904 29.392 15.36L31.2 14.272ZM35.32 1.184C35.32 2.304 35.24 7.792 35.24 9.024C35.24 11.968 35.736 14.688 40.136 14.688C43.992 14.688 45.976 12.64 46.792 8.464L44.792 7.584C44.408 9.728 43.88 12.624 40.12 12.624C37.592 12.624 37.432 10.96 37.432 9.12C37.432 8.736 37.496 4.752 37.656 1.216L35.32 1.184ZM63.424 1.728C59.664 1.792 56.928 1.888 53.232 2.128C51.52 2.24 50.656 2.272 49.92 2.272L50.064 4.576C51.504 4.4 55.28 4.112 56.896 4C55.472 4.912 52.992 6.848 52.992 9.696C52.992 14.464 58.768 14.544 61.792 14.608L62.128 12.304C61.84 12.32 61.568 12.336 61.088 12.336C56.24 12.336 55.2 11.168 55.2 9.584C55.2 7.104 58.048 4.688 60.256 4.032C60.816 3.856 61.424 3.824 62.048 3.824C62.416 3.824 62.864 3.84 63.488 3.872L63.424 1.728ZM68.296 7.872C67.112 8.336 66.392 8.544 65.688 8.752L66.12 10.768C66.568 10.576 67.24 10.272 68.088 9.808C67.784 11.376 67.144 12.8 66.072 13.968L67.752 15.296C69.288 13.264 70.168 11.104 70.168 7.184V3.344H80.888V1.552H75.16V0.32H73.144V1.552H68.296V5.232C68.056 4.272 67.48 3.008 67.208 2.448L65.72 3.536C65.928 3.952 66.536 5.264 66.76 6.528L68.296 5.44V7.872ZM70.472 4.672V6.416H74.84V13.136H73.24V7.472H71.32V13.136H69.624V14.96H80.888V13.136H76.76V10.368H80.12V8.64H76.76V6.416H80.584V4.672H70.472ZM97.76 13.44C96.512 12.624 94.416 11.072 93.44 6.304H97.504V4.336H93.392V0.384H91.328V4.336H87.68V6.304H91.216C90.848 9.424 89.84 11.552 87.296 13.6L88.464 15.456C89.968 14.288 91.392 12.736 92.496 9.632C93.12 11.664 94.544 14.128 96.624 15.408L97.76 13.44ZM85.168 8.256C84.688 8.704 83.28 9.488 82.16 10.08L82.608 12.288C83.232 11.952 84.672 11.024 85.168 10.56V15.456H87.184V0.384H85.168V8.256ZM93.92 1.344C94.448 2.016 95.104 3.008 95.552 3.984L97.12 3.136C96.656 2.144 95.968 1.248 95.376 0.544L93.92 1.344ZM82.144 3.072C82.576 3.984 83.024 5.12 83.312 6.352L85.008 5.504C84.72 4.288 84.064 2.8 83.792 2.192L82.144 3.072ZM101.56 14.656C102.904 12.048 103.864 8.208 104.312 5.712L105.528 5.696C107.112 5.68 107.528 6.144 107.528 7.968C107.528 9.104 107.336 10.384 107.112 11.216C106.872 12.08 106.648 12.56 105.592 12.56C104.936 12.56 104.28 12.432 103.992 12.368L104.12 14.512C104.36 14.544 105.016 14.624 105.88 14.624C107.288 14.624 108.296 14.192 108.84 12.976C109.448 11.6 109.608 9.376 109.608 8.208C109.608 4.8 108.488 3.712 106.12 3.712H104.68C104.904 2.304 104.952 1.904 105.064 1.04L102.824 0.927999C102.744 2.08 102.68 2.688 102.536 3.712H99.896V5.744L102.2 5.728C101.864 7.568 100.92 11.184 99.496 13.696L101.56 14.656ZM113.816 9.424C113.64 6.896 113 4.368 111.368 2.416L109.56 3.312C110.952 5.168 111.512 7.488 111.592 9.808L113.816 9.424ZM127.408 1.856C125.648 1.328 123.76 0.959999 120.496 0.848L120.128 2.832C124.352 3.056 126.432 3.904 126.88 4.08L127.408 1.856ZM118.24 3.52C117.904 5.536 117.872 6.368 117.824 10.112L119.92 10.192C119.936 10.048 119.952 9.984 119.968 9.792C120.96 8.592 122.864 7.824 124.704 7.824C126.256 7.824 127.152 8.624 127.152 9.776C127.152 11.392 126.016 12.64 121.872 12.64C120.528 12.64 119.424 12.496 118.688 12.4L118.944 14.464C119.504 14.528 120.448 14.624 121.92 14.624C126.32 14.624 129.376 13.44 129.376 9.856C129.376 8.448 128.624 5.936 124.944 5.936C123.104 5.936 121.504 6.48 119.968 7.52C120.016 5.568 120.112 4.8 120.4 3.728L118.24 3.52ZM137.336 14.544L138.568 15.504C139.4 13.888 139.88 12.144 139.88 7.968V2.624H145.08V13.104C145.08 13.488 145.048 13.648 144.568 13.648H142.872L143.192 15.456H145.48C146.824 15.456 146.824 14.464 146.824 13.904V0.895999H138.152V7.888C138.152 8.96 138.152 11.808 137.336 13.664V10.256H132.696V15.184H137.336V14.544ZM135.752 13.632H134.44V11.792H135.752V13.632ZM132.696 0.895999V2.4H137.336V0.895999H132.696ZM132.696 5.504V7.088H137.336V5.504H132.696ZM132.696 7.84V9.424H137.336V7.84H132.696ZM140.392 8.848V13.328H144.44V8.848H140.392ZM143.112 11.776H141.752V10.384H143.112V11.776ZM132.264 3.168V4.784H137.704V3.168H132.264ZM143.304 3.008H141.736V3.776H140.28V5.264H141.736V6.432H140.264V7.952H144.68V6.432H143.304V5.264H144.664V3.776H143.304V3.008ZM158.24 3.04C159.168 4.016 159.648 4.688 160.368 5.92L161.552 4.992C160.816 3.824 160.208 2.992 159.376 2.176L158.24 3.04ZM160.368 1.664C161.344 2.72 161.76 3.264 162.528 4.528L163.728 3.632C163.056 2.592 162.416 1.696 161.504 0.832L160.368 1.664ZM163.84 10.736C163.488 10.512 162.864 10.096 161.776 9.2C160.8 8.4 158.752 6.608 157.936 5.824C156.32 4.304 155.696 3.744 154.56 3.744C153.84 3.744 153.344 4.016 152.688 4.56C152.128 5.04 149.632 7.648 149.024 8.176L150.48 10.128C151.376 9.088 152.272 8 153.168 6.928C153.952 6 154.224 5.904 154.48 5.904C154.72 5.904 154.928 6 155.28 6.288C155.712 6.64 156.336 7.28 156.864 7.792C159.136 10.048 160.944 11.824 162.432 12.928L163.84 10.736ZM176.744 1.344C172.952 1.504 171.4 1.52 167.896 1.504V3.568C169.928 3.536 171.56 3.456 173.272 3.344C169.608 6.56 166.808 8.704 166.152 9.184L167.352 10.976C169.784 8.672 171.608 7.328 174.088 7.328C176.232 7.328 177.224 8.4 177.224 9.872C177.224 10.688 176.872 11.632 175.944 12.208C175.304 10.304 173.544 9.44 172.088 9.44C170.392 9.44 169.128 10.528 169.128 11.936C169.128 13.36 170.456 14.736 173.416 14.736C176.84 14.736 179.32 12.88 179.32 9.808C179.32 6.656 176.856 5.6 174.952 5.6C174.408 5.6 173.672 5.712 172.92 5.92C174.184 4.928 175.88 3.6 176.744 3.008V1.344ZM174.248 12.96C174.104 12.992 173.768 13.072 173.224 13.072C171.88 13.072 170.984 12.592 170.984 11.84C170.984 11.504 171.384 11.088 172.04 11.088C173.144 11.088 173.848 11.792 174.248 12.96Z" fill="black"/>
</svg>
