<svg width="309" height="48" viewBox="0 0 309 48" fill="none" xmlns="http://www.w3.org/2000/svg">
<path d="M2.36 2.78V5.3H12.26C11.56 7.2 10.5 9.34 8.34 11.68C6.2 14 4.16 15.4 1.26 16.64L2.78 18.86C5.82 17.52 8.68 15.18 10.56 13.08C13.54 15.68 15.24 17.54 16.46 18.9L18.7 16.74C16.32 14.38 15.24 13.5 12.2 11.1C13.48 9.32 14.96 6.84 15.78 2.78H2.36ZM24.59 10.74C25.95 11.76 29.73 14.6 32.65 18.68L34.99 16.76C33.97 15.52 33.29 14.78 31.89 13.38C37.77 9.34 38.93 5.46 39.41 3.52H22.25V6.08H35.47C34.23 8.2 32.77 9.8 30.03 11.66C28.35 10.2 27.29 9.44 26.61 8.96L24.59 10.74ZM42.92 9V11.78H60.08V9H42.92ZM80.39 10.78C78.63 9.82 75.43 8.04 70.93 6.62V1.82H68.05V18.9H70.93V9.4C74.15 10.66 76.11 11.7 78.99 13.56L80.39 10.78ZM85.3 3.1V5.72H97.82C97.2 10.26 95.42 14.66 86.82 16.28L87.98 18.78C99.6 16.42 100.54 8.26 100.86 3.1H85.3ZM113.69 9.98C111.81 12.46 109.35 14.46 106.49 15.72L107.83 17.7C109.45 16.88 112.19 15.16 114.47 12.12L114.51 16.24C114.51 16.82 114.37 16.9 113.85 16.9C113.35 16.9 111.93 16.8 111.41 16.76L111.77 19.02C112.13 19.04 113.13 19.1 113.69 19.1C114.73 19.1 116.85 19.1 116.83 16.56L116.77 9.98H120.49V7.7H116.75L116.71 5.1H114.39L114.41 7.7H107.07V9.98H113.69ZM134.16 5.72C131.44 4.08 129.2 3.34 127.74 2.9L126.52 5.2C129.78 6.26 131.84 7.58 132.72 8.18L134.16 5.72ZM127.5 18.58C136.8 17.56 140.92 12.86 143.3 5.48L140.96 3.84C138.4 13.22 132.84 15.2 126.9 15.68L127.5 18.58ZM159.53 11.06H150.89V17.94H158.65L158.93 19.86H162.35C163.03 19.86 164.07 19.78 164.07 17.94V1.72H156.03V9.66H161.69V16.84C161.69 17.18 161.63 17.38 161.17 17.38H159.53V11.06ZM161.69 3.66V4.92H158.41V3.66H161.69ZM161.69 6.44V7.78H158.41V6.44H161.69ZM157.25 13.1V15.82H153.17V13.1H157.25ZM146.43 19.86H148.85V9.66H154.33V1.72H146.43V19.86ZM151.95 3.66V4.92H148.87V3.66H151.95ZM151.95 6.44V7.78H148.87V6.44H151.95ZM171.44 17.5H169.34V15.26H171.44V17.5ZM167.08 10.32V12.34H173.42V10.32H167.08ZM167.08 7.28V9.34H173.42V7.28H167.08ZM167.08 13.3V19.52H173.42V13.3H167.08ZM178.16 1C176.84 3.1 175.26 4.54 173.9 5.42V4.34H166.52V6.4H173.46L174.54 7.96C176.06 7.02 178.38 4.94 179.4 3.16C179.98 4.18 181.52 6.74 184.44 8.6L185.76 6.28C182.84 4.4 181.48 2.5 180.62 1H178.16ZM167.08 1.44V3.48H173.42V1.44H167.08ZM179.52 5.98C177.76 7.68 176.56 8.5 174.2 9.48L175.4 11.36C177.86 10.28 179.5 9.1 181.16 7.52L179.52 5.98ZM184.02 12.42C181.46 15.32 177.48 17.1 173.94 17.52L175.1 19.82C181 18.56 184.16 15.62 185.64 14.12L184.02 12.42ZM181.82 9.18C179.76 11.28 177 12.72 174.18 13.48L175.48 15.6C177.04 15.08 180.54 13.84 183.48 10.76L181.82 9.18ZM195.99 3.46C196.17 2.74 196.27 2.36 196.41 1.6L193.65 1.46C193.53 2.26 193.45 2.68 193.27 3.46H188.89V5.72H192.59C191.47 8.76 190.07 10.72 188.19 12.54L189.99 14.4C190.75 13.64 192.29 11.52 192.71 10.92C194.37 9.28 195.67 9.08 196.23 9.08C197.35 9.08 197.57 9.66 197.71 10.02C195.85 10.9 192.45 12.58 192.45 15.3C192.45 18.74 196.89 18.84 199.71 18.84C200.99 18.84 202.59 18.78 204.17 18.7L204.13 16.2C201.91 16.46 199.39 16.46 199.03 16.46C196.87 16.46 195.15 16.46 195.15 15C195.15 14.1 195.99 13.22 198.05 12.28C198.07 12.74 198.09 13.58 197.99 14.74H200.51C200.53 14.4 200.55 13.94 200.55 13.28C200.55 12.32 200.49 11.7 200.47 11.28C202.71 10.5 204.23 10.12 205.29 9.88L204.75 7.4C203.67 7.7 202.55 8.1 200.05 9.04C199.61 7.8 198.77 7 196.95 7C195.99 7 195.49 7.24 194.23 7.88C194.67 7.1 194.89 6.64 195.25 5.72H203.67V3.46H195.99ZM212.04 6.18H208V8.56H211.72C210.7 10.64 209.44 12.44 207.78 13.96L208.78 16.88C209.68 15.9 210.9 14.54 212.04 12.2V19.86H214.46V12C215.22 13.4 216.02 14.36 216.38 14.8L217.66 12.66C215.86 10.9 214.74 8.88 214.56 8.56H217.76V6.18H214.46V3.74C216.28 3.52 217.06 3.32 217.92 3.08L217.12 0.839999C214.22 1.72 208.5 1.88 208.1 1.88L208.42 4.16C209.2 4.12 211.2 4 212.04 3.96V6.18ZM218.88 2.46V15.56H221.38V2.46H218.88ZM223.74 0.939999V16.66C223.74 17.06 223.62 17.2 223.12 17.2H220.04L220.52 19.86H224.14C224.7 19.86 226.26 19.68 226.26 17.74V0.939999H223.74ZM246.65 1.78H230.61V11.42C230.61 14.28 229.81 16.24 228.75 17.78L230.81 19.78C231.85 18.34 232.53 16.68 232.83 13.9H237.27V19.68H239.61V13.9H244.13V16.84C244.13 17.3 243.89 17.34 243.63 17.34H241.65L241.99 19.86H244.47C245.55 19.86 246.65 19.52 246.65 17.9V1.78ZM237.27 6.74H233.03V4.16H237.27V6.74ZM244.13 6.74H239.61V4.16H244.13V6.74ZM237.27 11.6H233.03V9.02H237.27V11.6ZM244.13 11.6H239.61V9.02H244.13V11.6ZM261.72 8.38C262.66 9.64 263.18 10.6 263.86 12.2L265.5 11.24C264.78 9.74 264.16 8.6 263.26 7.48L261.72 8.38ZM264.54 7.06C265.52 8.36 266.02 9.26 266.72 10.86L268.36 9.94C267.6 8.4 267.02 7.36 266.08 6.2L264.54 7.06ZM267.28 2.66C263.22 2.74 259.4 2.84 254.54 3.16C252.4 3.3 251.72 3.34 250.4 3.34L250.58 6.22C252.38 6 257.1 5.64 259.12 5.5C257.34 6.64 254.24 9.06 254.24 12.62C254.24 18.58 261.46 18.68 265.24 18.76L265.66 15.88C265.3 15.9 264.96 15.92 264.36 15.92C258.3 15.92 257 14.46 257 12.48C257 9.38 260.56 6.36 263.32 5.54C264.02 5.32 264.78 5.28 265.56 5.28C266.02 5.28 266.58 5.3 267.36 5.34L267.28 2.66ZM287.75 7.48C286.13 7.88 284.41 8.06 282.27 8.18C282.05 7.6 281.87 6.8 281.77 6.28C283.25 6.2 285.09 6.04 286.55 5.76L286.31 3.42C284.63 3.76 283.09 3.9 281.39 4C281.31 3.38 281.23 2.64 281.21 1.8L278.43 1.86C278.47 2.62 278.53 3 278.65 4.1H272.19V6.4H278.29C278.55 6.4 278.61 6.4 279.05 6.38C279.27 7.4 279.49 8.16 279.53 8.26C279.23 8.28 278.93 8.26 278.63 8.26H271.47V10.5H279.21C279.35 10.5 279.83 10.5 280.29 10.48C280.67 11.42 281.33 13.02 282.65 14.5L284.99 13C284.51 12.46 283.85 11.66 283.19 10.36C285.15 10.22 286.53 10.08 288.07 9.78L287.75 7.48ZM274.49 12.02C273.35 13.26 273.07 14.16 273.07 15.02C273.07 16.46 274.19 17.54 275.27 18.04C276.09 18.4 277.21 18.88 281.63 18.86C284.21 18.86 285.17 18.78 286.11 18.72L286.01 16.12C285.01 16.22 283.45 16.36 280.97 16.36C278.15 16.36 275.77 16.1 275.77 14.6C275.77 14.2 275.97 13.76 276.59 13.06L274.49 12.02ZM305.18 2.18C300.44 2.38 298.5 2.4 294.12 2.38V4.96C296.66 4.92 298.7 4.82 300.84 4.68C296.26 8.7 292.76 11.38 291.94 11.98L293.44 14.22C296.48 11.34 298.76 9.66 301.86 9.66C304.54 9.66 305.78 11 305.78 12.84C305.78 13.86 305.34 15.04 304.18 15.76C303.38 13.38 301.18 12.3 299.36 12.3C297.24 12.3 295.66 13.66 295.66 15.42C295.66 17.2 297.32 18.92 301.02 18.92C305.3 18.92 308.4 16.6 308.4 12.76C308.4 8.82 305.32 7.5 302.94 7.5C302.26 7.5 301.34 7.64 300.4 7.9C301.98 6.66 304.1 5 305.18 4.26V2.18ZM302.06 16.7C301.88 16.74 301.46 16.84 300.78 16.84C299.1 16.84 297.98 16.24 297.98 15.3C297.98 14.88 298.48 14.36 299.3 14.36C300.68 14.36 301.56 15.24 302.06 16.7ZM0.96 31.08C2.42 31.92 4.04 33.32 4.98 34.4L6.72 32.22C5.24 30.68 3.74 29.74 2.54 29.06L0.96 31.08ZM0.62 38.92H3.16V43C2.36 43.84 0.56 44.98 0.4 45.08L1.5 47.72C1.98 47.34 3.44 46.22 4.52 44.78C5.54 47.3 8.54 47.32 10.8 47.32H19.14L19.7 44.9H11.2C8.86 44.9 6.06 44.9 5.62 42.42V36.56H0.62V38.92ZM17.62 28.74C15.04 29.7 11.18 30.08 8.12 30.08V36.7C8.12 40.18 7 41.7 6.5 42.36L8.58 43.98C10.32 41.56 10.58 38.78 10.58 36.98V36.62H13.6V44.26H16.08V36.62H19.36V34.3H10.58V32.16C12.18 32.08 15.72 31.82 18.96 30.98L17.62 28.74ZM37.67 45.18C35.75 43.54 31.85 41.18 29.53 39.92C27.21 38.68 26.95 38.54 26.95 38.22C26.95 37.92 27.55 37.48 28.03 37.14C31.37 34.72 33.47 33.22 35.87 30.94L32.99 29.42C31.47 30.94 30.69 31.72 26.01 35.48C24.39 36.78 23.65 37.46 23.65 38.42C23.65 39.24 24.21 39.8 25.45 40.58C31.25 44.26 32.49 45.06 35.03 47.2L37.67 45.18ZM52.16 46.78C54.18 46.58 56.2 45.98 57.6 44.8C59.6 43.12 60.36 40.64 60.36 38.28C60.36 34.18 57.96 30.3 52 30.3C46.94 30.3 42.62 33.56 42.62 39.32C42.62 42.32 44.04 45.18 46.58 45.18C50.7 45.18 52.38 38.28 52.72 32.82C55.86 33.04 57.54 35.04 57.54 38.16C57.54 43.02 53.82 43.98 51.3 44.22L52.16 46.78ZM50.14 32.96C49.52 40.2 47.76 42.3 46.7 42.3C45.5 42.3 45.2 40.32 45.2 39.38C45.2 36.08 47.08 33.62 50.14 32.96ZM74.55 37.52C74.65 36.84 74.67 36.46 74.67 35.76H79.81V33.62H71.19C71.41 33.2 71.57 32.82 71.79 32.32L69.35 31.98C68.95 33.14 68.05 34.46 66.37 35.76L68.23 37.42C68.89 36.82 69.23 36.46 69.79 35.76H72.33C72.33 36.2 72.33 36.76 72.21 37.52H66.75V39.66H71.51C70.97 40.54 69.95 41.78 66.61 42.36L67.95 44.58C70.87 43.66 72.51 42.36 73.51 40.64C74.21 41.92 75.57 43.56 79.65 44.66L80.91 42.38C78.99 42.08 76.49 41.34 75.35 39.66H80.45V37.52H74.55ZM63.53 29.56V47.32H81.59V45H66.01V31.9H81.15V29.56H63.53ZM89.8 43.64H93.96V45.34C93.96 45.6 93.94 45.68 93.6 45.68H91.88L92.36 47.78H94.86C95.3 47.78 96.34 47.78 96.34 46.46V43.64H100.54V39.68C101.02 39.94 101.14 40 101.56 40.2L102.56 38.2C102.02 38.04 101.58 37.9 100.94 37.54C101.58 36.9 101.9 36.52 102.1 36.28L100.58 35.38C100.16 35.98 99.96 36.24 99.58 36.64C98.78 36 98.52 35.66 98.16 35.22H102.32V33.5H95.54C95.66 33.24 95.74 33.06 95.92 32.6L93.88 32.32H102.36V30.32H95.26V28.9H92.72V30.32H86.14V34.52C85.7 33.04 85.26 32.2 84.98 31.66L83.28 32.92C83.76 34 84.1 34.94 84.48 36.68L86.14 35.56V36.72C86.14 37.46 86.14 38.02 86.1 38.7C85.24 39.02 85.06 39.08 83.36 39.56L83.76 42.1C84.42 41.84 84.92 41.64 85.88 41.14C85.56 43.42 84.9 44.8 83.72 46.28L85.7 47.86C88.1 44.62 88.32 40.7 88.4 38.74L89.22 40.22C89.5 40.02 89.66 39.96 89.8 39.86V43.64ZM98.34 38.7V39.68H92.02V38.7H98.34ZM93.06 37.18C93.42 36.76 94 36.14 94.58 35.22H95.82C96.16 35.76 96.58 36.4 97.34 37.18H93.06ZM98.34 41.1V42.12H92.02V41.1H98.34ZM88.76 36.5C89.14 36.82 89.28 36.94 89.7 37.4C89.42 37.58 89.08 37.8 88.42 38.12V32.32H93.64C93.48 32.92 93.32 33.26 93.22 33.5H88.88V35.22H92.14C91.9 35.52 91.56 35.92 91 36.42C90.52 35.9 90.22 35.66 89.94 35.44L88.76 36.5ZM91 43.66C90.38 44.24 89.46 45.04 87.2 45.66L88.42 47.64C89.44 47.24 91.16 46.4 92.6 44.98L91 43.66ZM102.66 45.72C101.14 45.28 100.08 44.74 98.82 43.68L97.32 45.14C99.02 46.62 100.86 47.44 101.4 47.68L102.66 45.72ZM115.51 43.06C115.09 42.78 114.23 42.18 112.59 41.66C112.61 41.3 112.61 41.08 112.61 40.64H115.71C116.11 42.62 116.51 43.72 116.71 44.22C115.05 45.22 113.81 45.58 113.05 45.8L113.95 47.8C114.73 47.58 115.93 47.22 117.59 46.2C118.21 47.1 119.05 47.88 120.51 47.88C122.19 47.88 122.87 46.46 123.39 45.14L121.95 43.34C121.59 44.36 121.15 45.02 120.99 45.26C120.89 45.4 120.71 45.58 120.49 45.58C119.99 45.58 119.63 45.04 119.47 44.8C121.07 43.36 121.73 42.24 122.07 41.64L120.11 40.82C119.75 41.4 119.35 42 118.55 42.78C118.37 42.18 118.15 41.3 118.01 40.64H123.19V38.52H120.59L121.51 37.92C120.89 37.26 120.77 37.14 120.35 36.8C120.71 36.76 121.39 36.68 121.71 36.64C121.75 36.88 121.79 37 121.87 37.44L123.41 36.92C123.09 35.78 122.79 34.68 122.33 33.76L120.93 34.2C121.09 34.52 121.13 34.62 121.31 35.16C121.09 35.18 119.75 35.26 119.45 35.28C120.81 33.8 121.45 32.96 122.63 31.22L121.13 30.56C120.81 31.08 120.71 31.2 119.89 32.32C119.67 32.06 119.51 31.88 119.29 31.66C119.57 31.3 120.27 30.38 120.85 29.36L119.19 28.88C119.03 29.2 118.93 29.42 118.19 30.54L117.87 30.26L116.99 31.46C116.95 30.58 116.95 29.78 116.95 28.98H114.69C114.69 30.22 114.69 30.74 114.71 31.34L113.37 30.6C113.11 31.04 112.91 31.4 112.17 32.36C111.95 32.08 111.75 31.88 111.55 31.64C112.35 30.74 112.79 30 113.15 29.42L111.47 28.9C111.27 29.32 111.13 29.6 110.39 30.62C110.27 30.52 110.09 30.38 109.99 30.3L108.97 31.78C109.41 32.18 110.07 32.74 111.01 33.82C110.51 34.44 109.83 35.28 109.45 35.68H109.15L109.37 37.4C110.33 37.32 112.35 37.16 113.35 37.04C113.39 37.32 113.43 37.44 113.47 37.82L115.01 37.36C114.91 36.82 114.65 35.52 114.05 34.2L112.63 34.62C112.77 34.92 112.83 35.08 112.99 35.6C112.73 35.62 111.77 35.66 111.45 35.66C112.55 34.5 114.27 32.24 114.73 31.6C114.81 34.06 115.03 36.38 115.35 38.52H109.97C109.33 37.7 108.79 36.9 108.37 36V34.78H109.57V32.48H108.37V28.98H106.13V32.48H104.27V34.78H106.03C105.67 36.76 105.07 38.7 104.03 40.42L104.97 43.8C105.33 43.12 105.73 42.4 106.13 40.92V47.82H108.37V39.48C108.81 40.38 108.91 40.54 109.17 40.96L109.81 39.28V40.64H110.39C110.33 43.28 110.11 44.46 109.05 46.22L110.77 47.84C111.39 47.04 112.07 46.02 112.41 43.62C113.55 44.16 114.13 44.66 114.53 45L115.51 43.06ZM118.49 37.38C118.71 37.56 119.19 37.94 119.77 38.52H117.63C117.59 38.3 117.47 37.24 117.43 37C117.69 37 118.93 36.9 119.23 36.88L118.49 37.38ZM117.25 35.36C117.15 34.44 117.05 33.32 117.01 31.9C117.75 32.52 118.45 33.32 118.77 33.74C118.03 34.66 117.63 35.12 117.43 35.36H117.25ZM138.78 45.98L139.3 47.82H141.26C143.1 47.82 143.26 47.12 143.26 45.7V29.6H135.32V36.52H140.9V44.8C140.9 45.3 140.86 45.46 140.3 45.46H139.1L139.38 45C138.68 44.72 137.76 44.36 136.56 43.2H139.86V41.44H135.34C135.44 40.98 135.46 40.68 135.5 40.24H139.6V38.5H137.78C137.84 38.36 138.24 37.6 138.38 37.08L136.02 36.84C135.92 37.24 135.72 37.98 135.52 38.5H133.46C133.34 38.04 133.08 37.34 132.84 36.84L130.56 37.2C130.7 37.44 131.14 38.38 131.22 38.5H129.54V40.24H133.3C133.3 40.62 133.3 40.92 133.16 41.44H129.14V43.2H132.26C130.94 44.7 129.46 45.16 128.74 45.36L130.02 47.32C133.14 46.16 134.28 44.06 134.56 43.54C134.78 43.92 135.84 45.8 138.2 46.9L138.78 45.98ZM140.9 31.3V32.4H137.62V31.3H140.9ZM140.9 33.78V34.88H137.62V33.78H140.9ZM125.74 47.82H128.1V36.52H133.66V29.6H125.74V47.82ZM131.38 31.3V32.4H128.1V31.3H131.38ZM131.38 33.78V34.88H128.1V33.78H131.38ZM148.95 46.82C150.63 43.56 151.83 38.76 152.39 35.64L153.91 35.62C155.89 35.6 156.41 36.18 156.41 38.46C156.41 39.88 156.17 41.48 155.89 42.52C155.59 43.6 155.31 44.2 153.99 44.2C153.17 44.2 152.35 44.04 151.99 43.96L152.15 46.64C152.45 46.68 153.27 46.78 154.35 46.78C156.11 46.78 157.37 46.24 158.05 44.72C158.81 43 159.01 40.22 159.01 38.76C159.01 34.5 157.61 33.14 154.65 33.14H152.85C153.13 31.38 153.19 30.88 153.33 29.8L150.53 29.66C150.43 31.1 150.35 31.86 150.17 33.14H146.87V35.68L149.75 35.66C149.33 37.96 148.15 42.48 146.37 45.62L148.95 46.82ZM164.27 40.28C164.05 37.12 163.25 33.96 161.21 31.52L158.95 32.64C160.69 34.96 161.39 37.86 161.49 40.76L164.27 40.28ZM181.26 30.82C179.06 30.16 176.7 29.7 172.62 29.56L172.16 32.04C177.44 32.32 180.04 33.38 180.6 33.6L181.26 30.82ZM169.8 32.9C169.38 35.42 169.34 36.46 169.28 41.14L171.9 41.24C171.92 41.06 171.94 40.98 171.96 40.74C173.2 39.24 175.58 38.28 177.88 38.28C179.82 38.28 180.94 39.28 180.94 40.72C180.94 42.74 179.52 44.3 174.34 44.3C172.66 44.3 171.28 44.12 170.36 44L170.68 46.58C171.38 46.66 172.56 46.78 174.4 46.78C179.9 46.78 183.72 45.3 183.72 40.82C183.72 39.06 182.78 35.92 178.18 35.92C175.88 35.92 173.88 36.6 171.96 37.9C172.02 35.46 172.14 34.5 172.5 33.16L169.8 32.9ZM193.67 46.68L195.21 47.88C196.25 45.86 196.85 43.68 196.85 38.46V31.78H203.35V44.88C203.35 45.36 203.31 45.56 202.71 45.56H200.59L200.99 47.82H203.85C205.53 47.82 205.53 46.58 205.53 45.88V29.62H194.69V38.36C194.69 39.7 194.69 43.26 193.67 45.58V41.32H187.87V47.48H193.67V46.68ZM191.69 45.54H190.05V43.24H191.69V45.54ZM187.87 29.62V31.5H193.67V29.62H187.87ZM187.87 35.38V37.36H193.67V35.38H187.87ZM187.87 38.3V40.28H193.67V38.3H187.87ZM197.49 39.56V45.16H202.55V39.56H197.49ZM200.89 43.22H199.19V41.48H200.89V43.22ZM187.33 32.46V34.48H194.13V32.46H187.33ZM201.13 32.26H199.17V33.22H197.35V35.08H199.17V36.54H197.33V38.44H202.85V36.54H201.13V35.08H202.83V33.22H201.13V32.26ZM219.8 32.3C220.96 33.52 221.56 34.36 222.46 35.9L223.94 34.74C223.02 33.28 222.26 32.24 221.22 31.22L219.8 32.3ZM222.46 30.58C223.68 31.9 224.2 32.58 225.16 34.16L226.66 33.04C225.82 31.74 225.02 30.62 223.88 29.54L222.46 30.58ZM226.8 41.92C226.36 41.64 225.58 41.12 224.22 40C223 39 220.44 36.76 219.42 35.78C217.4 33.88 216.62 33.18 215.2 33.18C214.3 33.18 213.68 33.52 212.86 34.2C212.16 34.8 209.04 38.06 208.28 38.72L210.1 41.16C211.22 39.86 212.34 38.5 213.46 37.16C214.44 36 214.78 35.88 215.1 35.88C215.4 35.88 215.66 36 216.1 36.36C216.64 36.8 217.42 37.6 218.08 38.24C220.92 41.06 223.18 43.28 225.04 44.66L226.8 41.92ZM242.93 30.18C238.19 30.38 236.25 30.4 231.87 30.38V32.96C234.41 32.92 236.45 32.82 238.59 32.68C234.01 36.7 230.51 39.38 229.69 39.98L231.19 42.22C234.23 39.34 236.51 37.66 239.61 37.66C242.29 37.66 243.53 39 243.53 40.84C243.53 41.86 243.09 43.04 241.93 43.76C241.13 41.38 238.93 40.3 237.11 40.3C234.99 40.3 233.41 41.66 233.41 43.42C233.41 45.2 235.07 46.92 238.77 46.92C243.05 46.92 246.15 44.6 246.15 40.76C246.15 36.82 243.07 35.5 240.69 35.5C240.01 35.5 239.09 35.64 238.15 35.9C239.73 34.66 241.85 33 242.93 32.26V30.18ZM239.81 44.7C239.63 44.74 239.21 44.84 238.53 44.84C236.85 44.84 235.73 44.24 235.73 43.3C235.73 42.88 236.23 42.36 237.05 42.36C238.43 42.36 239.31 43.24 239.81 44.7Z" fill="black"/>
</svg>
