<svg width="348" height="47" viewBox="0 0 348 47" fill="none" xmlns="http://www.w3.org/2000/svg">
<path d="M2.304 1.94V6.572C1.212 7.064 1.044 7.148 0.252 7.412L0.528 8.396C0.828 8.264 1.476 7.964 2.22 7.52C1.896 9.836 0.924 10.88 0.516 11.312L1.332 11.984C1.884 11.324 3.264 9.716 3.264 6.056V2.84H11.592V1.94H7.128V0.883999H6.144V1.94H2.304ZM1.944 4.856C1.764 4.1 1.56 3.5 1.128 2.732L0.324 3.14C0.504 3.464 0.84 4.064 1.08 5.288L1.944 4.856ZM11.328 4.1H3.732V4.976H7.104V10.82H5.412V6.116H4.416V10.82H2.856V11.72H11.532V10.82H8.076V8.072H10.944V7.196H8.076V4.976H11.328V4.1ZM24.126 11C23.382 10.532 21.306 9.212 20.55 5.072H23.982V4.112H20.502V0.883999H19.47V4.112H16.482V5.072H19.434C19.386 5.708 19.254 6.344 19.086 6.968C18.558 8.948 17.67 10.148 16.194 11.096L16.758 11.996C18.882 10.496 19.674 8.672 20.118 7.064C20.706 8.792 21.546 10.676 23.55 11.948L24.126 11ZM14.97 0.883999V7.004C14.07 7.664 13.026 8.24 12.678 8.432L12.978 9.5C13.47 9.26 14.526 8.6 14.97 8.216V11.996H15.966V0.883999H14.97ZM14.61 4.796C14.394 3.98 14.022 3.116 13.626 2.408L12.762 2.792C13.23 3.68 13.434 4.184 13.71 5.18L14.61 4.796ZM23.406 3.068C23.214 2.756 22.734 1.94 21.906 1.076L21.15 1.58C21.738 2.204 22.314 3.104 22.578 3.572L23.406 3.068ZM29.532 12.056C30.312 11.816 32.148 11.18 32.964 9.08C33.276 9.848 34.176 11.336 36.168 12.02L36.648 11.12C35.796 10.844 34.44 10.328 33.696 8.636H36.048V5.312H33.348V4.208H35.028V3.764C35.364 4.016 35.664 4.208 36.156 4.496L36.684 3.632C34.644 2.6 33.924 1.64 33.456 0.848H32.28C31.356 2.18 30.516 2.924 29.124 3.644L29.604 4.508C29.916 4.352 30.252 4.172 30.792 3.776V4.208H32.4V5.312H29.7V8.636H32.136C31.608 10.496 29.592 11.036 29.04 11.18L29.532 12.056ZM33.348 6.14H35.124V7.808H33.276C33.324 7.484 33.348 7.172 33.348 6.416V6.14ZM32.4 6.44C32.4 7.136 32.376 7.484 32.328 7.808H30.648V6.14H32.4V6.44ZM31.26 3.38C31.956 2.744 32.58 1.94 32.868 1.58C33.156 1.952 33.78 2.756 34.536 3.38H31.26ZM29.496 6.932C28.572 5.936 28.14 5 27.972 4.568V4.112H29.016V3.2H27.972V0.872H27.024V3.2H25.344V4.112H26.952C26.328 6.656 25.584 7.616 25.14 8.192L25.56 9.38C26.244 8.444 26.724 7.376 27.024 6.248V12.008H27.972V6.008C28.26 6.728 28.536 7.172 29.004 7.832L29.496 6.932ZM44.73 4.772C44.406 5.144 43.938 5.708 42.654 6.872C42.522 6.764 42.294 6.584 41.706 6.2C41.754 6.152 42.606 5.42 43.23 4.592H47.706V6.008H48.702V3.728H43.842V2.708H48.702V1.82H43.842V0.895999H42.858V1.82H38.046V2.708H42.858V3.728H37.998V6.008H38.982V4.592H41.958C41.742 4.892 41.55 5.156 40.95 5.72C40.518 5.444 40.386 5.384 40.158 5.264L39.546 5.996C40.818 6.608 41.766 7.304 41.982 7.484C41.874 7.58 41.79 7.652 41.562 7.832C41.022 7.844 38.406 7.868 37.818 7.856L37.89 8.78C38.598 8.78 42.078 8.708 42.858 8.696V11.984H43.854V8.648L47.274 8.468C47.706 8.888 47.898 9.128 48.09 9.38L48.774 8.696C48.438 8.3 47.658 7.364 46.038 6.188L45.342 6.812C45.63 7.016 45.822 7.148 46.458 7.7C44.022 7.784 43.746 7.796 42.918 7.832C44.454 6.488 44.946 6.044 45.582 5.324L44.73 4.772ZM38.37 11.864C39.006 11.552 40.374 10.856 41.478 9.56L40.698 9.02C39.642 10.232 38.094 10.916 37.746 11.072L38.37 11.864ZM45.054 9.512C45.618 10.1 46.518 10.976 48.366 11.804L48.978 10.952C47.586 10.424 46.686 9.86 45.75 8.936L45.054 9.512ZM56.352 3.356H60.132V2.312H51.456V3.356H55.212V9.524H50.808V10.592H60.78V9.524H56.352V3.356ZM67.866 3.776C67.554 3.584 66.234 2.732 64.11 2.096L63.57 3.056C65.298 3.596 66.558 4.304 67.266 4.784L67.866 3.776ZM64.038 11.192C70.95 10.736 72.87 5.132 73.446 3.428L72.51 2.732C71.682 5.42 69.894 9.668 63.822 9.992L64.038 11.192ZM80.808 2.996C79.86 2.54 78.684 2 77.292 1.688L76.86 2.6C78.096 2.948 79.248 3.38 80.352 3.992L80.808 2.996ZM79.824 5.804C78.9 5.264 77.46 4.712 76.356 4.448L75.936 5.396C77.664 5.9 78.756 6.464 79.38 6.824L79.824 5.804ZM82.74 1.028C83.292 1.976 83.46 2.384 83.784 3.38L84.624 2.96C84.228 1.904 84 1.352 83.52 0.632L82.74 1.028ZM84.744 0.908C85.26 1.82 85.452 2.324 85.752 3.284L86.604 2.876C86.244 1.796 85.92 1.148 85.536 0.536L84.744 0.908ZM76.824 11.264C81.72 10.628 84.048 8.78 85.608 4.328L84.672 3.644C83.352 7.808 81.336 9.62 76.56 10.088L76.824 11.264ZM92.766 3.776C92.454 3.584 91.134 2.732 89.01 2.096L88.47 3.056C90.198 3.596 91.458 4.304 92.166 4.784L92.766 3.776ZM88.938 11.192C95.85 10.736 97.77 5.132 98.346 3.428L97.41 2.732C96.582 5.42 94.794 9.668 88.722 9.992L88.938 11.192ZM108.996 11.972V1.688H111.3V0.727999H108.036V11.972H108.996ZM120.066 9.404C120.774 6.416 121.014 3.392 121.098 2.456H114.462V3.524H119.874C119.802 4.388 119.574 6.92 118.914 9.404H112.938V10.472H123.102V9.404H120.066ZM127.56 1.7H126.456V9.296C126.456 10.82 127.2 11.12 128.988 11.12H132.348C133.104 11.12 134.244 11.084 134.976 10.964L134.916 9.884C134.148 10.028 133.188 10.076 132.228 10.076H129.144C127.776 10.076 127.56 9.98 127.56 9.116V6.464C128.82 6.2 131.016 5.648 133.644 4.448L133.152 3.44C131.352 4.364 129.696 4.928 127.56 5.42V1.7ZM132.78 1.34C133.32 2.168 133.596 2.696 133.956 3.644L134.772 3.164C134.388 2.276 134.088 1.664 133.548 0.908L132.78 1.34ZM134.616 0.775999C135.216 1.688 135.42 2.12 135.78 3.08L136.596 2.612C136.248 1.76 135.912 1.064 135.384 0.343999L134.616 0.775999ZM137.79 5.864V7.004H148.11V5.864H137.79ZM152.004 0.908V11.192H149.7V12.152H152.964V0.908H152.004ZM170.49 3.476L170.466 1.448H169.374L169.41 3.476H165.81V4.508H169.434L169.482 7.34C169.146 7.244 168.846 7.16 168.246 7.16C166.722 7.16 165.618 8.012 165.618 9.26C165.618 10.232 166.314 11.324 168.186 11.324C170.478 11.324 170.49 9.968 170.49 9.284V8.84C171.15 9.26 171.75 9.764 172.23 10.4L172.938 9.428C172.386 8.84 171.498 8.156 170.526 7.676L170.49 4.508H172.734V3.476H170.49ZM169.482 9.068C169.482 9.716 169.434 10.424 168.126 10.424C167.49 10.424 166.578 10.196 166.578 9.272C166.578 8.372 167.454 8.06 168.258 8.06C168.87 8.06 169.206 8.204 169.482 8.324V9.068ZM163.518 1.424C163.194 3.296 163.074 5.036 163.074 6.932C163.074 8.408 163.122 9.896 163.41 11.348L164.49 11.204C164.178 9.836 164.118 8.42 164.118 7.016C164.118 4.328 164.406 2.708 164.634 1.508L163.518 1.424ZM183.696 11.972V1.688H186V0.727999H182.736V11.972H183.696ZM193.674 0.872V1.628H190.086V2.444H191.838C191.874 2.54 192.09 3.344 192.138 3.536H190.482V10.172H191.394V4.316H193.722V5.216H191.766V5.96H193.722V6.788H192.198V9.272H196.134V6.788H194.598V5.96H196.542V5.216H194.598V4.316H196.914V9.128C196.914 9.404 196.806 9.428 196.65 9.428L195.534 9.416L195.666 10.328H196.938C197.562 10.328 197.826 9.98 197.826 9.404V3.536H196.074C196.242 3.128 196.338 2.852 196.458 2.444H198.27V1.628H194.646V0.872H193.674ZM193.002 3.536C192.894 3.068 192.882 3.008 192.738 2.444H195.582C195.546 2.6 195.366 3.224 195.234 3.536H193.002ZM195.306 8.54H193.014V7.508H195.306V8.54ZM192.246 10.796C191.898 10.796 189.714 10.628 189.474 9.164V5.528H187.23V6.512H188.526V9.896C187.998 10.46 187.314 10.904 187.098 11.036L187.578 12.056C188.43 11.312 188.49 11.24 189.258 10.364C189.522 10.712 190.266 11.72 192.234 11.72H198.234L198.426 10.796H192.246ZM189.906 3.032C189.33 2.228 188.634 1.52 188.07 1.04L187.41 1.64C188.49 2.696 188.91 3.344 189.126 3.668L189.906 3.032ZM200.724 4.232L199.488 4.436L199.548 5.408L200.724 5.216V9.056C200.724 9.632 201.024 9.932 201.588 9.932H202.992C203.976 9.932 204.204 8.984 204.396 7.412L203.424 7.184C203.4 7.64 203.316 9.008 202.8 9.008H202.056C201.756 9.008 201.696 8.924 201.696 8.66V5.06L204.336 4.628L204.276 3.644L201.696 4.064V0.883999H200.724V4.232ZM204 1.4V2.372H206.148C206.148 6.584 205.764 9.284 202.26 11.156L202.956 12.02C206.28 9.992 207.108 7.616 207.156 2.372H209.424C209.424 3.74 209.424 9.62 208.788 10.652C208.584 10.988 208.188 10.976 208.068 10.976L206.28 10.964L206.496 11.984H208.236C209.304 11.984 209.628 11.432 209.772 11.132C210.432 9.716 210.432 4.328 210.432 1.4H204ZM220.398 4.688H219.318L219.39 7.256C219.126 7.196 218.742 7.112 218.142 7.112C216.018 7.112 215.322 8.444 215.322 9.344C215.322 10.46 216.21 11.456 218.01 11.456C219.198 11.456 220.41 11.024 220.41 9.248V8.756C220.842 9.008 221.574 9.452 222.354 10.388L223.014 9.44C222.426 8.792 221.466 8.048 220.458 7.604L220.398 4.688ZM219.414 9.056C219.414 9.872 219.234 10.52 218.046 10.52C217.818 10.52 216.342 10.52 216.342 9.308C216.342 8.636 216.918 8.024 218.142 8.024C218.778 8.024 219.138 8.156 219.414 8.252V9.056ZM215.85 2.84C216.006 1.964 216.018 1.892 216.114 1.316L214.974 1.268C214.926 1.748 214.89 2.012 214.758 2.84H212.538V3.848H214.566C214.254 5.192 213.726 7.544 212.442 9.608L213.546 10.088C213.978 9.2 214.962 7.196 215.646 3.848H218.37V2.84H215.85ZM222.81 3.776C221.538 3.068 220.734 2.708 219.534 2.288L219.114 3.176C220.194 3.572 221.094 4.004 222.306 4.736L222.81 3.776ZM225.888 6.404C226.728 5.876 227.064 5.54 227.412 5.192C229.176 6.08 230.232 6.824 231.228 7.676C229.86 9.176 228 10.064 226.032 10.532L226.548 11.528C233.748 9.656 234.372 3.92 234.588 1.964H228.384C227.664 3.56 226.608 4.676 225.18 5.564L225.888 6.404ZM233.352 2.96C233.076 4.82 232.524 5.924 231.888 6.86C230.7 5.84 229.32 5.096 228.072 4.472C228.396 4.076 228.612 3.8 229.104 2.96H233.352ZM243.834 5.072C245.514 3.728 246.51 2.564 247.038 1.94L246.03 1.28C243.798 4.088 240.846 6.26 237.426 7.328L237.954 8.324C239.49 7.784 241.05 7.064 242.682 5.924V11.516H243.834V5.072ZM259.044 2.612C256.248 1.976 254.088 1.712 251.196 1.544L251.016 2.54C253.992 2.696 256.332 3.044 258.84 3.716L259.044 2.612ZM258.42 6.248C256.428 5.648 254.52 5.24 251.136 4.988L250.932 5.984C253.932 6.212 255.876 6.548 258.228 7.292L258.42 6.248ZM259.536 10.316C258.216 9.932 255.192 9.044 250.428 8.804L250.212 9.824C254.484 10.148 256.68 10.628 259.236 11.456L259.536 10.316ZM267.066 3.776C266.754 3.584 265.434 2.732 263.31 2.096L262.77 3.056C264.498 3.596 265.758 4.304 266.466 4.784L267.066 3.776ZM263.238 11.192C270.15 10.736 272.07 5.132 272.646 3.428L271.71 2.732C270.882 5.42 269.094 9.668 263.022 9.992L263.238 11.192ZM275.676 11.624C279.948 10.664 282.456 8.288 283.452 3.716L282.336 2.24H277.536C276.696 3.92 275.472 4.952 274.536 5.588L275.22 6.404C276.576 5.492 277.464 4.508 278.256 3.248H282.42C281.736 6.86 279.876 9.68 275.22 10.604L275.676 11.624ZM283.956 0.8C284.58 1.652 284.82 2.132 285.228 3.056L285.996 2.552C285.492 1.544 285.288 1.124 284.676 0.343999L283.956 0.8ZM282.36 1.268C282.948 2.048 283.248 2.564 283.668 3.5L284.424 2.984C283.92 1.988 283.68 1.556 283.068 0.8L282.36 1.268ZM294.018 5C294.582 5.792 294.882 6.356 295.278 7.316L296.118 6.788C295.698 5.876 295.35 5.228 294.798 4.52L294.018 5ZM295.794 4.232C296.37 5.06 296.646 5.576 297.054 6.548L297.894 6.02C297.462 5.084 297.15 4.496 296.574 3.752L295.794 4.232ZM297.258 1.976C294.51 1.988 293.382 2.012 290.538 2.168C289.926 2.204 287.85 2.3 287.262 2.312L287.358 3.488C288.666 3.332 292.818 3.08 293.166 3.068C291.75 3.896 289.65 5.468 289.65 7.748C289.65 11.108 293.634 11.276 295.998 11.372L296.214 10.208C295.146 10.244 293.958 10.148 293.19 9.992C291.918 9.728 290.766 9.236 290.766 7.676C290.766 5.612 293.118 3.752 294.846 3.176C295.206 3.056 295.47 3.032 296.058 3.032C296.394 3.032 296.766 3.044 297.282 3.08L297.258 1.976ZM305.1 11.372C306.432 11.24 307.632 10.832 308.412 10.184C309.504 9.272 310.02 7.856 310.02 6.428C310.02 4.4 308.976 1.712 305.088 1.712C301.92 1.712 299.544 3.8 299.544 7.064C299.544 9.044 300.528 10.436 301.704 10.436C302.244 10.436 303.012 10.16 303.72 9.044C304.956 7.064 305.196 4.112 305.304 2.72C308.604 2.828 308.892 5.468 308.892 6.416C308.892 9.848 305.976 10.196 304.74 10.328L305.1 11.372ZM304.236 2.768C304.116 4.148 303.924 6.584 302.916 8.312C302.604 8.84 302.244 9.284 301.74 9.284C300.888 9.284 300.588 7.904 300.588 7.088C300.588 5.696 301.14 4.352 302.256 3.536C302.868 3.08 303.528 2.9 304.236 2.768ZM318.174 0.872V1.628H314.586V2.444H316.338C316.374 2.54 316.59 3.344 316.638 3.536H314.982V10.172H315.894V4.316H318.222V5.216H316.266V5.96H318.222V6.788H316.698V9.272H320.634V6.788H319.098V5.96H321.042V5.216H319.098V4.316H321.414V9.128C321.414 9.404 321.306 9.428 321.15 9.428L320.034 9.416L320.166 10.328H321.438C322.062 10.328 322.326 9.98 322.326 9.404V3.536H320.574C320.742 3.128 320.838 2.852 320.958 2.444H322.77V1.628H319.146V0.872H318.174ZM317.502 3.536C317.394 3.068 317.382 3.008 317.238 2.444H320.082C320.046 2.6 319.866 3.224 319.734 3.536H317.502ZM319.806 8.54H317.514V7.508H319.806V8.54ZM316.746 10.796C316.398 10.796 314.214 10.628 313.974 9.164V5.528H311.73V6.512H313.026V9.896C312.498 10.46 311.814 10.904 311.598 11.036L312.078 12.056C312.93 11.312 312.99 11.24 313.758 10.364C314.022 10.712 314.766 11.72 316.734 11.72H322.734L322.926 10.796H316.746ZM314.406 3.032C313.83 2.228 313.134 1.52 312.57 1.04L311.91 1.64C312.99 2.696 313.41 3.344 313.626 3.668L314.406 3.032ZM325.224 4.232L323.988 4.436L324.048 5.408L325.224 5.216V9.056C325.224 9.632 325.524 9.932 326.088 9.932H327.492C328.476 9.932 328.704 8.984 328.896 7.412L327.924 7.184C327.9 7.64 327.816 9.008 327.3 9.008H326.556C326.256 9.008 326.196 8.924 326.196 8.66V5.06L328.836 4.628L328.776 3.644L326.196 4.064V0.883999H325.224V4.232ZM328.5 1.4V2.372H330.648C330.648 6.584 330.264 9.284 326.76 11.156L327.456 12.02C330.78 9.992 331.608 7.616 331.656 2.372H333.924C333.924 3.74 333.924 9.62 333.288 10.652C333.084 10.988 332.688 10.976 332.568 10.976L330.78 10.964L330.996 11.984H332.736C333.804 11.984 334.128 11.432 334.272 11.132C334.932 9.716 334.932 4.328 334.932 1.4H328.5ZM344.898 4.688H343.818L343.89 7.256C343.626 7.196 343.242 7.112 342.642 7.112C340.518 7.112 339.822 8.444 339.822 9.344C339.822 10.46 340.71 11.456 342.51 11.456C343.698 11.456 344.91 11.024 344.91 9.248V8.756C345.342 9.008 346.074 9.452 346.854 10.388L347.514 9.44C346.926 8.792 345.966 8.048 344.958 7.604L344.898 4.688ZM343.914 9.056C343.914 9.872 343.734 10.52 342.546 10.52C342.318 10.52 340.842 10.52 340.842 9.308C340.842 8.636 341.418 8.024 342.642 8.024C343.278 8.024 343.638 8.156 343.914 8.252V9.056ZM340.35 2.84C340.506 1.964 340.518 1.892 340.614 1.316L339.474 1.268C339.426 1.748 339.39 2.012 339.258 2.84H337.038V3.848H339.066C338.754 5.192 338.226 7.544 336.942 9.608L338.046 10.088C338.478 9.2 339.462 7.196 340.146 3.848H342.87V2.84H340.35ZM347.31 3.776C346.038 3.068 345.234 2.708 344.034 2.288L343.614 3.176C344.694 3.572 345.594 4.004 346.806 4.736L347.31 3.776ZM6.912 23.2C6.996 22.684 7.032 22.288 7.032 21.592H10.332V20.716H4.86C5.028 20.392 5.124 20.188 5.316 19.708L4.356 19.504C3.984 20.668 3.276 21.544 2.424 22.228L3.18 22.876C3.648 22.456 3.924 22.156 4.332 21.592H6.096C6.096 22.456 6.036 22.828 5.976 23.2H2.484V24.088H5.688C4.836 25.852 2.928 26.32 2.328 26.464L2.904 27.34C4.272 26.884 5.808 26.104 6.6 24.28C6.9 24.964 7.86 26.488 10.572 27.328L11.1 26.404C9.156 25.972 7.884 24.856 7.476 24.088H10.836V23.2H6.912ZM0.84 18.268V28.756H11.496V27.844H1.86V19.192H11.244V18.268H0.84ZM22.746 23.704C23.118 23.932 23.346 24.04 23.67 24.196L24.126 23.392C23.79 23.272 23.466 23.152 22.926 22.852C22.95 22.816 23.37 22.408 23.742 21.928L23.07 21.52C22.938 21.7 22.65 22.06 22.302 22.432C21.726 21.988 21.426 21.592 21.186 21.292H23.982V20.536H19.614C19.698 20.368 19.746 20.248 19.866 19.948L18.918 19.84C18.822 20.116 18.762 20.272 18.642 20.536H15.762V21.292H18.186C17.85 21.736 17.55 22.048 17.178 22.348C17.07 22.228 16.734 21.856 16.35 21.568L15.798 22.072C16.134 22.336 16.17 22.372 16.566 22.792C16.158 23.068 15.846 23.224 15.426 23.428L15.954 24.148C16.218 23.992 16.302 23.944 16.554 23.788V26.284H19.134V27.832C19.134 28.072 19.098 28.12 18.858 28.12H17.718L17.922 28.984H19.218C19.59 28.984 20.106 28.96 20.106 28.216V26.284H22.746V23.704ZM21.87 24.172H17.43V23.452H21.87V24.172ZM17.922 22.756C18.702 22.048 19.038 21.52 19.182 21.292H20.202C20.466 21.676 20.766 22.132 21.462 22.756H17.922ZM21.87 25.588H17.43V24.832H21.87V25.588ZM14.43 22.912C14.43 23.248 14.418 23.476 14.418 23.668C13.818 23.968 13.542 24.1 12.714 24.424L12.918 25.408C13.278 25.228 13.734 25 14.334 24.604C14.07 26.836 13.41 27.7 12.87 28.372L13.602 29.02C14.082 28.444 15.378 26.896 15.378 22.948V19.684H24.018V18.844H19.554V17.872H18.57V18.844H14.43V22.912ZM14.178 21.88C14.058 21.268 13.806 20.428 13.458 19.744L12.714 20.104C12.99 20.788 13.206 21.556 13.338 22.276L14.178 21.88ZM15.45 28.804C16.254 28.504 16.998 28.108 18.018 27.112L17.322 26.536C16.47 27.352 15.882 27.676 14.922 28L15.45 28.804ZM21.078 27.124C21.726 27.856 22.746 28.492 23.67 28.816L24.198 28C23.082 27.604 22.578 27.316 21.714 26.488L21.078 27.124ZM34.884 21.112C33.024 21.412 32.04 21.604 30.744 22C30.492 21.484 30.432 20.848 30.432 19.576C30.432 18.988 30.444 18.652 30.456 18.328H29.28C29.316 20.884 29.34 21.58 29.736 22.36C28.896 22.72 26.424 23.752 26.424 25.804C26.424 28.36 29.748 28.36 31.824 28.36C33.552 28.36 34.608 28.288 35.388 28.24L35.364 27.112C34.68 27.184 33.564 27.292 31.584 27.292C29.004 27.292 27.54 27.16 27.54 25.768C27.54 23.104 34.02 22.372 34.992 22.264L34.884 21.112ZM43.65 28.372C44.982 28.24 46.182 27.832 46.962 27.184C48.054 26.272 48.57 24.856 48.57 23.428C48.57 21.4 47.526 18.712 43.638 18.712C40.47 18.712 38.094 20.8 38.094 24.064C38.094 26.044 39.078 27.436 40.254 27.436C40.794 27.436 41.562 27.16 42.27 26.044C43.506 24.064 43.746 21.112 43.854 19.72C47.154 19.828 47.442 22.468 47.442 23.416C47.442 26.848 44.526 27.196 43.29 27.328L43.65 28.372ZM42.786 19.768C42.666 21.148 42.474 23.584 41.466 25.312C41.154 25.84 40.794 26.284 40.29 26.284C39.438 26.284 39.138 24.904 39.138 24.088C39.138 22.696 39.69 21.352 40.806 20.536C41.418 20.08 42.078 19.9 42.786 19.768ZM51.084 18.76V23.164H55.284V27.844H51.684V24.088H50.676V28.768H60.912V24.088H59.892V27.844H56.292V23.164H60.516V18.76H59.496V22.24H56.292V17.872H55.284V22.24H52.104V18.76H51.084ZM69.582 25.48C70.518 26.428 71.118 27.184 71.238 27.34C70.35 27.424 69.114 27.532 67.65 27.592C67.398 27.604 66.054 27.64 65.754 27.652C66.534 26.272 67.014 25.228 67.302 24.568H73.566V23.644H62.85V24.568H66.138C65.874 25.264 65.418 26.38 64.662 27.676H63.006L63.114 28.66C64.962 28.66 69.858 28.444 71.862 28.156C72.114 28.528 72.258 28.756 72.45 29.08L73.314 28.504C72.39 27.04 71.658 26.2 70.374 24.94L69.582 25.48ZM71.43 21.436C72.282 22.012 72.954 22.324 73.482 22.564L74.01 21.604C71.922 20.86 70.014 19.408 68.766 17.74H67.698C67.374 18.22 66.03 20.164 62.454 21.568L62.946 22.54C63.354 22.372 64.014 22.084 65.082 21.424V22.096H71.43V21.436ZM65.454 21.184C66.462 20.488 67.482 19.648 68.238 18.592C68.658 19.12 69.354 19.984 71.046 21.184H65.454ZM76.056 18.892C75.984 19.708 75.864 21.016 75.864 22.324C75.864 25.444 76.404 28.132 78.348 28.132C78.96 28.132 79.404 27.844 79.692 27.556C80.364 26.884 80.916 25.876 81.312 24.76L80.424 24.256C79.596 26.416 78.972 26.908 78.432 26.908C77.088 26.908 76.944 24.28 76.944 22.42C76.944 20.8 77.1 19.708 77.196 18.988L76.056 18.892ZM85.728 26.944C85.896 22.144 84.66 20.452 83.232 19.252L82.404 19.888C83.652 20.908 84.588 22.636 84.588 25.768C84.588 26.32 84.564 26.68 84.54 26.992L85.728 26.944ZM89.754 17.908V28.192H87.45V29.152H90.714V17.908H89.754ZM105.9 28.372C107.232 28.24 108.432 27.832 109.212 27.184C110.304 26.272 110.82 24.856 110.82 23.428C110.82 21.4 109.776 18.712 105.888 18.712C102.72 18.712 100.344 20.8 100.344 24.064C100.344 26.044 101.328 27.436 102.504 27.436C103.044 27.436 103.812 27.16 104.52 26.044C105.756 24.064 105.996 21.112 106.104 19.72C109.404 19.828 109.692 22.468 109.692 23.416C109.692 26.848 106.776 27.196 105.54 27.328L105.9 28.372ZM105.036 19.768C104.916 21.148 104.724 23.584 103.716 25.312C103.404 25.84 103.044 26.284 102.54 26.284C101.688 26.284 101.388 24.904 101.388 24.088C101.388 22.696 101.94 21.352 103.056 20.536C103.668 20.08 104.328 19.9 105.036 19.768ZM116.226 22.84C116.526 22.684 116.886 22.504 117.474 22.06V23.452H122.13V22.108C122.55 22.432 122.922 22.648 123.462 22.888L123.846 22.108C122.538 21.52 122.082 21.124 121.494 20.284H123.582V19.54H119.562C119.61 19.444 119.694 19.288 119.886 18.832C120.438 18.796 121.998 18.676 122.898 18.496L122.49 17.776C121.494 17.98 119.886 18.232 116.382 18.22L116.574 18.94C117.03 18.94 117.462 18.94 118.926 18.88C118.866 19 118.794 19.156 118.59 19.54H116.094V20.284H118.11C117.294 21.376 116.238 21.868 115.782 22.084L116.226 22.84ZM120.546 20.284C120.702 20.548 120.882 20.848 121.23 21.268H118.35C118.662 20.932 118.866 20.692 119.13 20.284H120.546ZM121.362 22.792H118.23V21.928H121.362V22.792ZM123.258 24.04H116.334V29.008H117.234V24.772H122.334V27.688C122.334 28.12 122.298 28.192 121.89 28.18L121.11 28.168L121.278 29.008H122.25C122.79 29.008 123.258 28.948 123.258 28.18V24.04ZM120.846 27.196H118.746V26.104H120.846V27.196ZM116.238 23.752C115.47 22.84 115.122 22.06 114.954 21.628V21.124H116.034V20.212H114.954V17.872H114.03V20.212H112.506V21.124H113.994C113.682 22.708 112.926 24.112 112.35 24.916L112.782 26.068C113.082 25.624 113.562 24.88 114.03 23.368V29.008H114.954V23.104C115.146 23.584 115.194 23.704 115.71 24.496L116.238 23.752ZM121.65 25.432H117.93V27.892H121.65V25.432ZM128.136 18.772V23.248C128.136 26.284 127.152 27.604 126.696 28.216L127.476 28.972C127.74 28.588 128.436 27.592 128.772 26.08C128.952 25.252 129.096 24.088 129.096 23.26V21.628H130.476V23.512H134.34V21.628H135.948V20.8H134.34V19.96H133.452V20.8H131.364V19.96H130.476V20.8H129.096V19.66H136.044V18.772H132.588V17.872H131.616V18.772H128.136ZM125.292 18.76C125.748 18.976 126.66 19.492 127.116 19.972L127.728 19.084C126.888 18.472 126.36 18.196 125.844 17.98L125.292 18.76ZM133.452 21.628V22.732H131.364V21.628H133.452ZM136.188 28.072C135.708 27.988 134.712 27.796 133.428 27.268C134.652 26.38 135.108 25.456 135.312 25.036V24.208H129.444V25.06H134.268C134.028 25.432 133.56 26.14 132.456 26.788C131.4 26.152 130.944 25.576 130.704 25.288L129.924 25.708C130.152 26.008 130.596 26.56 131.532 27.244C130.128 27.832 129.084 27.988 128.508 28.072L128.94 29.032C130.416 28.708 131.484 28.348 132.468 27.832C133.956 28.648 135.168 28.888 135.792 29.008L136.188 28.072ZM124.752 21.94C125.4 22.252 126.06 22.672 126.612 23.152L127.212 22.324C126.804 21.988 126.012 21.448 125.304 21.136L124.752 21.94ZM126.444 24.256C126.192 25.18 125.616 26.74 124.716 28.072L125.472 28.912C126.648 27.052 127.116 25.336 127.26 24.748L126.444 24.256ZM139.53 18.424C139.518 19.24 139.446 23.224 139.446 24.124C139.446 26.212 139.662 28.408 142.95 28.408C146.598 28.408 147.378 25.936 147.762 23.764L146.754 23.392C146.418 25.216 146.022 27.376 142.914 27.376C140.658 27.376 140.586 25.768 140.586 24.232C140.586 23.092 140.634 21.664 140.742 18.424H139.53ZM151.332 18.532C150.948 20.332 150.828 22.252 150.828 24.232C150.828 26.524 151.032 27.724 151.14 28.42L152.304 28.324C152.208 27.892 151.932 26.74 151.932 24.064C151.932 21.04 152.292 19.468 152.472 18.628L151.332 18.532ZM154.296 19.504V20.56H159.936V19.504H154.296ZM154.56 23.476C154.14 24.184 153.924 24.868 153.924 25.492C153.924 27.556 156.144 27.724 157.92 27.724C158.94 27.724 159.78 27.652 160.188 27.616V26.488C159.084 26.608 158.1 26.632 157.44 26.632C156.156 26.632 154.932 26.488 154.932 25.396C154.932 25.288 154.944 24.604 155.532 23.776L154.56 23.476ZM168.462 21.364H172.518V20.284L168.462 20.32L168.45 18.328H167.322L167.37 23.98C167.07 23.944 166.842 23.908 166.446 23.908C164.73 23.908 163.038 24.616 163.038 26.26C163.038 27.436 163.926 28.42 165.906 28.42C168.402 28.42 168.486 26.884 168.474 26.176L168.462 25.348C169.926 25.912 171.318 26.992 172.05 27.808L172.83 26.776C172.242 26.164 170.838 25.012 168.474 24.208L168.462 21.364ZM167.382 26.104C167.382 26.596 167.262 27.424 165.894 27.424C165.63 27.424 164.106 27.424 164.106 26.272C164.106 25.3 165.246 24.892 166.278 24.892C166.782 24.892 167.142 24.964 167.394 25.012L167.382 26.104ZM178.932 28.036C179.892 28.024 180.924 27.94 181.86 27.64C184.152 26.92 184.416 25.036 184.416 24.316C184.416 22.636 183.24 21.364 181.188 21.364C180.552 21.364 179.712 21.484 178.968 21.604C178.56 21.676 176.568 22.036 176.112 22.108L176.292 23.164C178.14 22.696 180.18 22.3 181.14 22.3C182.316 22.3 183.36 22.9 183.36 24.352C183.36 27.136 179.664 27.112 178.668 27.1L178.932 28.036ZM197.658 18.976C194.706 19 193.602 19.024 190.914 19.168C190.302 19.204 188.382 19.288 187.662 19.312L187.758 20.488C189.066 20.332 193.218 20.08 193.566 20.068C192.15 20.896 190.05 22.468 190.05 24.748C190.05 28.108 194.034 28.276 196.398 28.372L196.614 27.208C195.582 27.244 194.43 27.172 193.59 26.992C192.318 26.728 191.166 26.236 191.166 24.676C191.166 22.612 193.518 20.752 195.246 20.176C195.606 20.056 195.858 20.032 196.458 20.032C196.926 20.032 197.274 20.044 197.682 20.08L197.658 18.976ZM203.076 27.892C202.572 27.208 201.72 26.2 200.94 25.48L200.028 26.152C200.424 26.572 201.168 27.352 202.02 28.636L203.076 27.892ZM217.854 28.588C220.41 27.676 221.022 25.672 221.31 24.496C221.91 24.76 222.114 24.868 222.654 25.192L223.014 24.112C222.27 23.704 221.574 23.44 221.538 23.428C221.718 22.468 221.814 21.424 221.898 20.56L220.758 20.476C220.734 21.028 220.674 21.88 220.494 23.056C219.402 22.696 218.61 22.504 217.602 22.42C217.998 20.056 218.034 19.792 218.19 18.592H213.222V19.636L216.978 19.6C216.906 20.452 216.75 21.52 216.582 22.384C212.658 22.54 212.442 25.12 212.442 25.708C212.442 26.992 213.282 27.76 214.434 27.76C216.246 27.76 216.774 26.044 217.422 23.368C218.502 23.464 219.522 23.776 220.302 24.076C219.882 25.816 219.258 27.016 217.194 27.76L217.854 28.588ZM216.402 23.308C215.766 25.912 215.442 26.812 214.362 26.812C213.45 26.812 213.39 25.876 213.39 25.648C213.39 24.832 213.882 24.052 214.662 23.668C215.19 23.404 215.694 23.332 216.402 23.308ZM232.848 21.688H231.768L231.84 24.256C231.576 24.196 231.192 24.112 230.592 24.112C228.468 24.112 227.772 25.444 227.772 26.344C227.772 27.46 228.66 28.456 230.46 28.456C231.648 28.456 232.86 28.024 232.86 26.248V25.756C233.292 26.008 234.024 26.452 234.804 27.388L235.464 26.44C234.876 25.792 233.916 25.048 232.908 24.604L232.848 21.688ZM231.864 26.056C231.864 26.872 231.684 27.52 230.496 27.52C230.268 27.52 228.792 27.52 228.792 26.308C228.792 25.636 229.368 25.024 230.592 25.024C231.228 25.024 231.588 25.156 231.864 25.252V26.056ZM228.3 19.84C228.456 18.964 228.468 18.892 228.564 18.316L227.424 18.268C227.376 18.748 227.34 19.012 227.208 19.84H224.988V20.848H227.016C226.704 22.192 226.176 24.544 224.892 26.608L225.996 27.088C226.428 26.2 227.412 24.196 228.096 20.848H230.82V19.84H228.3ZM235.26 20.776C233.988 20.068 233.184 19.708 231.984 19.288L231.564 20.176C232.644 20.572 233.544 21.004 234.756 21.736L235.26 20.776ZM245.982 24.4C245.262 23.632 244.566 22.468 244.062 21.256C245.118 21.208 246.15 21.16 247.458 20.884L247.266 19.852C246.066 20.104 244.938 20.248 243.714 20.284C243.558 19.804 243.39 19.024 243.282 18.292L242.142 18.376C242.19 18.664 242.37 19.54 242.61 20.32C242.31 20.332 241.662 20.344 241.158 20.332L237.654 20.272V21.316H241.11C241.29 21.316 242.214 21.304 242.946 21.292C243.594 22.936 244.35 24.232 245.058 25.024L245.982 24.4ZM239.934 23.416C238.71 24.016 238.194 24.88 238.194 25.756C238.194 26.356 238.422 26.944 238.902 27.376C239.742 28.132 240.93 28.372 243.03 28.372C244.674 28.372 245.73 28.276 246.162 28.228L246.15 27.16C245.406 27.256 244.494 27.364 242.934 27.364C241.218 27.364 239.274 27.208 239.274 25.744C239.274 25.516 239.334 24.772 240.51 24.196L239.934 23.416ZM253.068 18.256C252.78 19.036 252.084 20.956 251.904 21.46C251.628 22.24 251.424 22.816 249.72 28.024L250.848 28.372C251.172 27.16 251.364 26.44 251.784 25.324C252.54 23.776 253.524 23.524 254.004 23.524C254.856 23.524 255.072 24.232 255.072 25.12V25.792C255.072 26.728 255.084 28.42 257.124 28.42C259.872 28.42 260.16 25.204 260.232 23.62L259.188 23.38C259.188 24.076 259.128 24.976 258.792 25.948C258.396 27.088 257.784 27.364 257.196 27.364C256.224 27.364 256.128 26.704 256.128 25.84V25.036C256.128 24.208 256.032 22.504 254.184 22.504C253.524 22.504 253.056 22.732 252.408 23.26C252.732 22.324 253.452 20.356 254.256 18.58L253.068 18.256ZM267.75 28.372C269.082 28.24 270.282 27.832 271.062 27.184C272.154 26.272 272.67 24.856 272.67 23.428C272.67 21.4 271.626 18.712 267.738 18.712C264.57 18.712 262.194 20.8 262.194 24.064C262.194 26.044 263.178 27.436 264.354 27.436C264.894 27.436 265.662 27.16 266.37 26.044C267.606 24.064 267.846 21.112 267.954 19.72C271.254 19.828 271.542 22.468 271.542 23.416C271.542 26.848 268.626 27.196 267.39 27.328L267.75 28.372ZM266.886 19.768C266.766 21.148 266.574 23.584 265.566 25.312C265.254 25.84 264.894 26.284 264.39 26.284C263.538 26.284 263.238 24.904 263.238 24.088C263.238 22.696 263.79 21.352 264.906 20.536C265.518 20.08 266.178 19.9 266.886 19.768ZM281.688 17.872V18.652H280.128V19.444H281.688V20.38H279.492V21.16H281.688V22.12H280.128V22.888H281.688V23.752H279.96V24.532H281.688V25.432H279.636V26.236H281.688V27.304H282.552V26.236H285.408V25.432H282.552V24.532H285.024V23.752H282.552V22.888H284.868V21.16H285.444V20.38H284.868V18.652H282.552V17.872H281.688ZM283.98 20.38H282.552V19.444H283.98V20.38ZM283.98 22.12H282.552V21.16H283.98V22.12ZM282.264 27.736C279.924 27.736 278.856 26.68 278.784 26.596C278.916 26.248 279.468 24.652 279.516 22.048H277.98C278.508 21.124 279.084 20.128 279.492 19.228V18.328H277.092V19.192H278.52C278.232 19.888 277.452 21.364 276.972 22.036V22.912H278.64C278.616 23.8 278.532 24.736 278.196 25.744C277.8 24.916 277.692 24.148 277.62 23.656L276.804 23.776C276.876 24.22 277.08 25.624 277.776 26.692C277.308 27.46 276.9 27.772 276.564 28.036L277.104 28.924C277.452 28.6 277.884 28.204 278.364 27.424C278.7 27.748 279.888 28.672 282.192 28.672H285.396L285.552 27.736H282.264ZM276.288 20.752C276.708 19.6 276.876 18.7 276.996 18.004L276.036 17.848C275.796 19.552 275.16 21.628 274.14 22.864L274.608 23.848C274.86 23.584 275.052 23.38 275.364 22.816V28.984H276.288V20.752ZM296.706 24.628C296.094 25.384 295.134 26.128 294.99 26.236C294.186 25.636 293.754 25.072 293.454 24.652V24.544H296.97V22.888H297.918V22.096H296.97V20.5H293.454V19.936H292.518V20.5H289.146V21.28H292.518V22.096H288.618V19.636H297.846V18.748H292.974V17.872H291.978V18.748H287.646V23.74C287.646 24.94 287.55 25.336 287.418 26.032C287.202 27.16 286.842 27.82 286.638 28.168L287.454 29.02C288.51 27.028 288.618 24.712 288.618 23.824V22.888H292.518V23.776H289.146V24.544H292.518V27.76C292.518 27.916 292.494 28.036 292.218 28.036L290.934 28.024L291.126 29.008H292.578C293.19 29.008 293.454 28.648 293.454 28.12V25.888C294.606 27.316 296.178 28.204 297.462 28.684L298.026 27.76C297.594 27.604 296.778 27.316 295.77 26.74C296.574 26.152 296.97 25.792 297.51 25.216L296.706 24.628ZM296.022 21.28V22.096H293.454V21.28H296.022ZM296.022 22.888V23.776H293.454V22.888H296.022ZM289.158 25.336C289.938 25.696 290.31 25.936 290.838 26.428L291.474 25.696C290.862 25.216 290.466 25 289.698 24.64L289.158 25.336ZM291.954 26.188C291.546 26.38 289.746 27.208 288.366 27.64L288.738 28.504C291.294 27.436 291.582 27.316 292.11 27.028L291.954 26.188ZM304.8 22.204C304.128 22.204 303.564 22.744 303.564 23.44C303.564 24.112 304.104 24.676 304.8 24.676C305.496 24.676 306.036 24.1 306.036 23.44C306.036 22.768 305.484 22.204 304.8 22.204ZM322.218 28.072C321.522 27.664 320.346 26.992 318.822 26.356C319.29 25.876 320.082 24.976 320.658 23.14H322.782V22.192H316.278C316.71 21.316 316.866 20.92 316.998 20.596L315.894 20.392C315.75 20.812 315.546 21.376 315.126 22.192H311.718V23.14H314.61C313.95 24.28 313.362 24.976 313.002 25.396C314.874 25.912 315.942 26.272 316.914 26.656C315.414 27.484 313.614 27.784 312.006 27.928L312.354 28.984C315.474 28.66 317.322 27.568 317.982 27.088C319.95 27.94 321.018 28.648 321.558 29.008L322.218 28.072ZM319.602 23.14C319.47 23.536 319.014 24.916 317.862 25.972C316.662 25.516 315.462 25.168 314.598 24.916C314.838 24.604 315.186 24.148 315.762 23.14H319.602ZM312.006 18.952V21.568H313.026V19.876H321.486V21.568H322.506V18.952H317.742V17.872H316.71V18.952H312.006ZM333.24 21.844C333.984 22.312 334.524 22.552 334.944 22.744L335.448 21.76C333.24 20.956 331.464 19.516 330.252 17.884H329.16C327.828 19.744 325.86 21.04 323.952 21.772L324.456 22.756C324.888 22.552 325.392 22.324 326.208 21.832V22.744H329.196V24.568H325.38V25.468H329.196V27.736H324.204V28.696H335.196V27.736H330.216V25.468H334.056V24.568H330.216V22.744H333.24V21.844ZM326.22 21.82C327.552 21.016 328.728 19.96 329.7 18.736C330.984 20.332 332.46 21.34 333.204 21.82H326.22ZM341.322 19.468C341.49 18.868 341.55 18.592 341.622 18.172L340.47 18.124C340.386 18.808 340.302 19.156 340.218 19.468H337.458V20.428H339.93C339.162 22.672 338.202 23.944 337.146 24.94L337.89 25.744C338.274 25.348 339.066 24.292 339.618 23.536C340.458 22.684 341.334 22.312 341.994 22.312C342.546 22.312 342.882 22.552 343.014 23.26C341.826 23.788 339.678 24.868 339.678 26.5C339.678 28.432 342.39 28.432 343.746 28.432C344.886 28.432 345.93 28.36 346.614 28.312L346.578 27.28C345.498 27.4 344.37 27.448 343.41 27.448C342.09 27.448 340.758 27.448 340.758 26.392C340.758 25.408 342.21 24.64 343.134 24.208C343.158 24.52 343.158 24.724 343.158 24.928C343.158 25.36 343.122 25.804 343.098 26.08H344.142C344.178 25.696 344.178 25.336 344.178 25.168C344.178 24.736 344.166 24.22 344.13 23.8C345.45 23.296 346.302 23.032 347.274 22.756L346.986 21.712C345.906 22.084 344.262 22.744 343.986 22.852C343.746 21.712 342.978 21.448 342.162 21.448C341.562 21.448 341.082 21.652 340.242 22.156C340.59 21.556 340.758 21.16 341.034 20.428H346.326V19.468H341.322ZM9.216 37.62V35.34H8.136V37.62H3.948V35.388H2.856V37.62H0.828V38.652H2.856V41.88H3.948V38.652H8.136V40.128C8.136 42.768 6.564 44.148 3.168 44.472L3.564 45.516C5.364 45.3 9.216 44.592 9.216 40.176V38.652H11.292V37.62H9.216ZM18.978 37.404V35.4H17.874V37.404H13.722V38.424H17.874V45.552H18.978V38.424H23.142V37.992C23.862 37.788 24.354 37.14 24.354 36.396C24.354 35.472 23.61 34.728 22.686 34.728C21.774 34.728 21.018 35.472 21.018 36.384C21.018 36.768 21.138 37.116 21.366 37.404H18.978ZM22.686 35.472C23.19 35.472 23.61 35.88 23.61 36.396C23.61 36.9 23.202 37.32 22.686 37.32C22.182 37.32 21.762 36.9 21.762 36.396C21.762 35.88 22.182 35.472 22.686 35.472ZM14.322 44.832C15.762 43.224 16.134 41.268 16.302 39.684L15.282 39.576C15.15 41.052 14.718 42.768 13.446 44.04L14.322 44.832ZM20.598 39.684C21.006 42.144 21.474 43.464 22.554 44.784L23.454 44.088C22.47 42.9 21.966 41.652 21.606 39.564L20.598 39.684ZM25.74 39.864V41.004H36.06V39.864H25.74ZM48.078 40.932C46.35 39.996 44.49 39.072 42.222 38.352V35.28H41.058V45.54H42.222V39.48C44.73 40.344 46.698 41.544 47.514 42.048L48.078 40.932ZM52.38 35.424C52.368 36.24 52.296 40.224 52.296 41.124C52.296 43.212 52.512 45.408 55.8 45.408C59.448 45.408 60.228 42.936 60.612 40.764L59.604 40.392C59.268 42.216 58.872 44.376 55.764 44.376C53.508 44.376 53.436 42.768 53.436 41.232C53.436 40.092 53.484 38.664 53.592 35.424H52.38ZM66.126 44.892C65.622 44.208 64.77 43.2 63.99 42.48L63.078 43.152C63.474 43.572 64.218 44.352 65.07 45.636L66.126 44.892ZM81.612 40.2C81.696 39.684 81.732 39.288 81.732 38.592H85.032V37.716H79.56C79.728 37.392 79.824 37.188 80.016 36.708L79.056 36.504C78.684 37.668 77.976 38.544 77.124 39.228L77.88 39.876C78.348 39.456 78.624 39.156 79.032 38.592H80.796C80.796 39.456 80.736 39.828 80.676 40.2H77.184V41.088H80.388C79.536 42.852 77.628 43.32 77.028 43.464L77.604 44.34C78.972 43.884 80.508 43.104 81.3 41.28C81.6 41.964 82.56 43.488 85.272 44.328L85.8 43.404C83.856 42.972 82.584 41.856 82.176 41.088H85.536V40.2H81.612ZM75.54 35.268V45.756H86.196V44.844H76.56V36.192H85.944V35.268H75.54ZM97.446 40.704C97.818 40.932 98.046 41.04 98.37 41.196L98.826 40.392C98.49 40.272 98.166 40.152 97.626 39.852C97.65 39.816 98.07 39.408 98.442 38.928L97.77 38.52C97.638 38.7 97.35 39.06 97.002 39.432C96.426 38.988 96.126 38.592 95.886 38.292H98.682V37.536H94.314C94.398 37.368 94.446 37.248 94.566 36.948L93.618 36.84C93.522 37.116 93.462 37.272 93.342 37.536H90.462V38.292H92.886C92.55 38.736 92.25 39.048 91.878 39.348C91.77 39.228 91.434 38.856 91.05 38.568L90.498 39.072C90.834 39.336 90.87 39.372 91.266 39.792C90.858 40.068 90.546 40.224 90.126 40.428L90.654 41.148C90.918 40.992 91.002 40.944 91.254 40.788V43.284H93.834V44.832C93.834 45.072 93.798 45.12 93.558 45.12H92.418L92.622 45.984H93.918C94.29 45.984 94.806 45.96 94.806 45.216V43.284H97.446V40.704ZM96.57 41.172H92.13V40.452H96.57V41.172ZM92.622 39.756C93.402 39.048 93.738 38.52 93.882 38.292H94.902C95.166 38.676 95.466 39.132 96.162 39.756H92.622ZM96.57 42.588H92.13V41.832H96.57V42.588ZM89.13 39.912C89.13 40.248 89.118 40.476 89.118 40.668C88.518 40.968 88.242 41.1 87.414 41.424L87.618 42.408C87.978 42.228 88.434 42 89.034 41.604C88.77 43.836 88.11 44.7 87.57 45.372L88.302 46.02C88.782 45.444 90.078 43.896 90.078 39.948V36.684H98.718V35.844H94.254V34.872H93.27V35.844H89.13V39.912ZM88.878 38.88C88.758 38.268 88.506 37.428 88.158 36.744L87.414 37.104C87.69 37.788 87.906 38.556 88.038 39.276L88.878 38.88ZM90.15 45.804C90.954 45.504 91.698 45.108 92.718 44.112L92.022 43.536C91.17 44.352 90.582 44.676 89.622 45L90.15 45.804ZM95.778 44.124C96.426 44.856 97.446 45.492 98.37 45.816L98.898 45C97.782 44.604 97.278 44.316 96.414 43.488L95.778 44.124ZM101.532 35.532C101.148 37.332 101.028 39.252 101.028 41.232C101.028 43.524 101.232 44.724 101.34 45.42L102.504 45.324C102.408 44.892 102.132 43.74 102.132 41.064C102.132 38.04 102.492 36.468 102.672 35.628L101.532 35.532ZM104.496 36.504V37.56H110.136V36.504H104.496ZM104.76 40.476C104.34 41.184 104.124 41.868 104.124 42.492C104.124 44.556 106.344 44.724 108.12 44.724C109.14 44.724 109.98 44.652 110.388 44.616V43.488C109.284 43.608 108.3 43.632 107.64 43.632C106.356 43.632 105.132 43.488 105.132 42.396C105.132 42.288 105.144 41.604 105.732 40.776L104.76 40.476ZM116.478 44.724C117.93 44.712 119.274 44.544 120.294 44.124C122.85 43.092 123.15 41.064 123.15 40.14C123.15 38.34 122.01 36.54 119.202 36.54C118.206 36.54 117.054 36.732 115.914 36.936C115.422 37.02 113.094 37.428 112.818 37.464L113.082 38.676C115.11 38.172 117.69 37.596 119.13 37.596C121.47 37.596 121.998 39.024 121.998 40.152C121.998 41.34 121.374 42.204 120.726 42.672C119.55 43.512 118.17 43.68 116.19 43.692L116.478 44.724ZM125.856 35.892C125.784 36.708 125.664 38.016 125.664 39.324C125.664 42.444 126.204 45.132 128.148 45.132C128.76 45.132 129.204 44.844 129.492 44.556C130.164 43.884 130.716 42.876 131.112 41.76L130.224 41.256C129.396 43.416 128.772 43.908 128.232 43.908C126.888 43.908 126.744 41.28 126.744 39.42C126.744 37.8 126.9 36.708 126.996 35.988L125.856 35.892ZM135.528 43.944C135.696 39.144 134.46 37.452 133.032 36.252L132.204 36.888C133.452 37.908 134.388 39.636 134.388 42.768C134.388 43.32 134.364 43.68 134.34 43.992L135.528 43.944ZM147.858 35.976C144.906 36 143.802 36.024 141.114 36.168C140.502 36.204 138.582 36.288 137.862 36.312L137.958 37.488C139.266 37.332 143.418 37.08 143.766 37.068C142.35 37.896 140.25 39.468 140.25 41.748C140.25 45.108 144.234 45.276 146.598 45.372L146.814 44.208C145.782 44.244 144.63 44.172 143.79 43.992C142.518 43.728 141.366 43.236 141.366 41.676C141.366 39.612 143.718 37.752 145.446 37.176C145.806 37.056 146.058 37.032 146.658 37.032C147.126 37.032 147.474 37.044 147.882 37.08L147.858 35.976ZM155.7 45.372C157.032 45.24 158.232 44.832 159.012 44.184C160.104 43.272 160.62 41.856 160.62 40.428C160.62 38.4 159.576 35.712 155.688 35.712C152.52 35.712 150.144 37.8 150.144 41.064C150.144 43.044 151.128 44.436 152.304 44.436C152.844 44.436 153.612 44.16 154.32 43.044C155.556 41.064 155.796 38.112 155.904 36.72C159.204 36.828 159.492 39.468 159.492 40.416C159.492 43.848 156.576 44.196 155.34 44.328L155.7 45.372ZM154.836 36.768C154.716 38.148 154.524 40.584 153.516 42.312C153.204 42.84 152.844 43.284 152.34 43.284C151.488 43.284 151.188 41.904 151.188 41.088C151.188 39.696 151.74 38.352 152.856 37.536C153.468 37.08 154.128 36.9 154.836 36.768ZM168.066 37.74C168.282 37.392 168.522 36.996 168.87 36.276H173.382V35.292H162.294V36.276H167.802C166.89 38.22 165.114 40.284 162.162 41.64L162.762 42.588C163.614 42.156 165.426 41.184 167.286 38.832V46.008H168.33V37.74H168.066ZM173.55 41.688C171.726 40.572 170.502 39.312 169.482 38.04L168.75 38.616C170.214 40.464 171.006 41.268 172.83 42.588L173.55 41.688ZM185.268 45.072C184.572 44.664 183.396 43.992 181.872 43.356C182.34 42.876 183.132 41.976 183.708 40.14H185.832V39.192H179.328C179.76 38.316 179.916 37.92 180.048 37.596L178.944 37.392C178.8 37.812 178.596 38.376 178.176 39.192H174.768V40.14H177.66C177 41.28 176.412 41.976 176.052 42.396C177.924 42.912 178.992 43.272 179.964 43.656C178.464 44.484 176.664 44.784 175.056 44.928L175.404 45.984C178.524 45.66 180.372 44.568 181.032 44.088C183 44.94 184.068 45.648 184.608 46.008L185.268 45.072ZM182.652 40.14C182.52 40.536 182.064 41.916 180.912 42.972C179.712 42.516 178.512 42.168 177.648 41.916C177.888 41.604 178.236 41.148 178.812 40.14H182.652ZM175.056 35.952V38.568H176.076V36.876H184.536V38.568H185.556V35.952H180.792V34.872H179.76V35.952H175.056ZM192.75 39.204C192.078 39.204 191.514 39.744 191.514 40.44C191.514 41.112 192.054 41.676 192.75 41.676C193.446 41.676 193.986 41.1 193.986 40.44C193.986 39.768 193.434 39.204 192.75 39.204ZM200.232 40.824C200.496 39.84 200.604 38.28 200.616 37.452L199.848 37.38C199.848 37.98 199.776 39.36 199.44 40.44L200.232 40.824ZM201.108 34.872V46.008H202.08V34.872H201.108ZM203.544 38.88C203.484 38.676 203.22 37.752 202.92 37.068L202.2 37.356C202.452 37.98 202.644 38.688 202.74 39.192L203.544 38.88ZM210.396 39.096H209.448V44.892H204.36V39.096H203.412V45.756H210.396V39.096ZM207.864 38.748C207.588 39.66 207.336 40.152 207.024 40.74C206.424 40.128 206.064 39.792 205.524 39.384L204.9 39.996C205.62 40.584 206.016 40.98 206.544 41.532C206.004 42.336 205.536 42.924 204.684 43.608L205.344 44.292C206.4 43.38 206.82 42.804 207.192 42.264C207.564 42.684 207.852 43.044 208.38 43.836L209.088 43.2C208.752 42.684 208.452 42.264 207.708 41.46C208.056 40.848 208.368 40.26 208.716 39.12L207.864 38.748ZM207.528 37.344C207.24 36.228 206.712 35.184 206.568 34.896L205.68 35.148C205.752 35.292 206.364 36.564 206.604 37.632L207.528 37.344ZM209.292 38.4C209.88 37.584 210.468 36.372 210.744 35.484L209.844 35.088C209.7 35.508 209.268 36.816 208.464 37.98L209.292 38.4ZM205.272 37.812C204.972 37.02 204.456 36.084 203.952 35.4L203.124 35.748C203.652 36.504 204.108 37.44 204.384 38.148L205.272 37.812ZM217.854 45.588C220.41 44.676 221.022 42.672 221.31 41.496C221.91 41.76 222.114 41.868 222.654 42.192L223.014 41.112C222.27 40.704 221.574 40.44 221.538 40.428C221.718 39.468 221.814 38.424 221.898 37.56L220.758 37.476C220.734 38.028 220.674 38.88 220.494 40.056C219.402 39.696 218.61 39.504 217.602 39.42C217.998 37.056 218.034 36.792 218.19 35.592H213.222V36.636L216.978 36.6C216.906 37.452 216.75 38.52 216.582 39.384C212.658 39.54 212.442 42.12 212.442 42.708C212.442 43.992 213.282 44.76 214.434 44.76C216.246 44.76 216.774 43.044 217.422 40.368C218.502 40.464 219.522 40.776 220.302 41.076C219.882 42.816 219.258 44.016 217.194 44.76L217.854 45.588ZM216.402 40.308C215.766 42.912 215.442 43.812 214.362 43.812C213.45 43.812 213.39 42.876 213.39 42.648C213.39 41.832 213.882 41.052 214.662 40.668C215.19 40.404 215.694 40.332 216.402 40.308ZM230.1 39.204C229.428 39.204 228.864 39.744 228.864 40.44C228.864 41.112 229.404 41.676 230.1 41.676C230.796 41.676 231.336 41.1 231.336 40.44C231.336 39.768 230.784 39.204 230.1 39.204ZM236.97 35.904V36.84H239.646V38.064H240.618V36.84H244.458V38.064H245.418V36.84H248.13V35.904H245.418V34.86H244.458V35.904H240.618V34.86H239.646V35.904H236.97ZM248.13 38.832H243.018V37.512H242.022V38.832H236.97V39.756H242.022V41.304H238.182V45.78H246.894V41.304H243.018V39.756H248.13V38.832ZM245.898 44.904H239.178V42.192H245.898V44.904ZM257.34 39.756C257.256 39.696 257.148 39.612 257.076 39.564C257.352 39.432 258.588 38.856 259.668 37.98V37.344H252.756V38.064H258.048C257.4 38.544 257.064 38.736 256.344 39.096C256.164 38.976 255.516 38.592 254.856 38.292L254.28 38.94C255.072 39.264 255.516 39.492 255.876 39.756H252.972V46.02H253.908V44.028H256.02V45.984H256.944V44.028H259.188V44.784C259.188 45 259.08 45.036 258.912 45.036H257.916L258.096 46.02H259.284C260.112 46.02 260.112 45.42 260.112 45.06V39.756H257.34ZM256.02 41.496H253.908V40.524H256.02V41.496ZM256.02 43.272H253.908V42.24H256.02V43.272ZM259.188 41.496H256.944V40.524H259.188V41.496ZM259.188 43.272H256.944V42.24H259.188V43.272ZM251.292 40.044C251.292 40.32 251.28 40.488 251.268 40.656C251.16 40.728 250.284 41.208 249.336 41.568L249.576 42.552C249.996 42.336 250.404 42.132 251.196 41.652C250.98 43.452 250.632 44.388 249.78 45.384L250.572 46.056C251.112 45.408 252.228 44.076 252.228 39.852V36.672H260.52V35.82H256.128V34.848H255.12V35.82H251.292V40.044ZM251.016 38.916C250.86 38.292 250.536 37.404 250.188 36.756L249.396 37.188C249.672 37.728 250.02 38.64 250.188 39.324L251.016 38.916ZM266.622 36.468C266.79 35.868 266.85 35.592 266.922 35.172L265.77 35.124C265.686 35.808 265.602 36.156 265.518 36.468H262.758V37.428H265.23C264.462 39.672 263.502 40.944 262.446 41.94L263.19 42.744C263.574 42.348 264.366 41.292 264.918 40.536C265.758 39.684 266.634 39.312 267.294 39.312C267.846 39.312 268.182 39.552 268.314 40.26C267.126 40.788 264.978 41.868 264.978 43.5C264.978 45.432 267.69 45.432 269.046 45.432C270.186 45.432 271.23 45.36 271.914 45.312L271.878 44.28C270.798 44.4 269.67 44.448 268.71 44.448C267.39 44.448 266.058 44.448 266.058 43.392C266.058 42.408 267.51 41.64 268.434 41.208C268.458 41.52 268.458 41.724 268.458 41.928C268.458 42.36 268.422 42.804 268.398 43.08H269.442C269.478 42.696 269.478 42.336 269.478 42.168C269.478 41.736 269.466 41.22 269.43 40.8C270.75 40.296 271.602 40.032 272.574 39.756L272.286 38.712C271.206 39.084 269.562 39.744 269.286 39.852C269.046 38.712 268.278 38.448 267.462 38.448C266.862 38.448 266.382 38.652 265.542 39.156C265.89 38.556 266.058 38.16 266.334 37.428H271.626V36.468H266.622ZM277.584 36.132C278.292 36.012 278.676 35.916 279.324 35.748L278.964 34.872C277.404 35.292 276.072 35.472 274.32 35.52L274.524 36.42C275.496 36.384 275.988 36.336 276.612 36.264V38.028H274.296V38.916H276.492C276.12 39.768 275.376 41.328 274.14 42.54L274.572 43.68C275.688 42.468 276.288 41.34 276.612 40.62V46.008H277.584V40.392C278.028 41.208 278.484 41.844 279.048 42.396L279.54 41.448C278.556 40.608 277.896 39.552 277.584 38.952V38.916H279.516V38.028H277.584V36.132ZM285.06 35.64H279.948V45.684H285.06V35.64ZM284.076 44.748H280.908V36.552H284.076V44.748ZM295.35 36.024C293.514 35.424 291.462 35.316 290.43 35.268L290.238 36.3C291.858 36.36 293.622 36.588 295.05 37.164L295.35 36.024ZM288.774 36.984C288.618 37.608 288.51 38.268 288.462 39.384C288.45 39.744 288.414 41.544 288.414 41.952L289.482 41.988C289.494 41.928 289.506 41.892 289.542 41.772C290.334 40.728 291.942 40.044 293.55 40.044C295.134 40.044 295.77 40.908 295.77 41.844C295.77 42.336 295.638 42.9 295.302 43.26C294.582 44.052 293.142 44.376 291.486 44.376C290.682 44.376 289.95 44.304 289.146 44.16L289.266 45.216C289.758 45.288 290.466 45.384 291.57 45.384C294.138 45.384 296.91 44.736 296.91 41.856C296.91 40.86 296.394 39.072 293.61 39.072C292.05 39.072 290.706 39.576 289.482 40.548C289.482 38.784 289.578 38.088 289.854 37.176L288.774 36.984ZM303.708 45.6C306.252 45.108 307.728 44.232 307.728 40.368C307.728 40.164 307.704 39.348 307.692 39.024H309.828V38.016H307.632C307.608 37.644 307.512 35.904 307.476 35.436L306.444 35.46C306.48 36.096 306.54 37.476 306.564 38.016H302.52V39.024H306.6C306.612 39.396 306.624 39.96 306.624 40.212C306.624 43.488 305.616 44.184 303.312 44.628L303.708 45.6ZM307.668 34.944C308.052 35.82 308.256 36.552 308.4 37.428L309.264 37.116C309.036 36.156 308.892 35.58 308.472 34.668L307.668 34.944ZM309.3 34.632C309.684 35.508 309.852 36.096 310.032 37.104L310.896 36.792C310.62 35.652 310.524 35.256 310.104 34.344L309.3 34.632ZM300.444 35.46C300.204 37.248 300.084 39.048 300.084 40.848C300.084 42.336 300.144 43.836 300.456 45.3L301.572 45.156C301.248 43.644 301.164 42.132 301.164 40.74C301.164 38.244 301.44 36.468 301.596 35.532L300.444 35.46ZM318.09 36.636V35.376H317.034V36.636H312.474V37.56H317.034V39.048H312.654V39.96H317.034V41.376C316.782 41.328 316.374 41.256 315.834 41.256C314.046 41.256 312.81 42.168 312.81 43.428C312.81 44.196 313.314 45.444 315.654 45.444C316.662 45.444 318.09 45.12 318.09 43.404V42.72C318.75 43.02 319.806 43.572 320.97 44.856L321.678 43.824C320.418 42.768 319.362 42.108 318.09 41.64V39.96H321.69V39.048H318.09V37.56H321.918V36.636H318.09ZM317.034 43.188C317.034 44.136 316.566 44.508 315.522 44.508C313.938 44.508 313.818 43.62 313.818 43.392C313.818 42.6 314.718 42.144 315.834 42.144C316.446 42.144 316.794 42.24 317.034 42.312V43.188ZM331.584 36.6V35.256H330.48L330.504 36.6H324.6V37.596H330.516L330.528 38.892C330.276 38.676 329.988 38.412 329.184 38.412C327.696 38.412 326.7 39.444 326.7 40.848C326.7 42.012 327.444 43.2 328.932 43.2C330.312 43.2 330.708 42.3 330.828 42.048C330.672 43.476 329.784 44.58 326.58 44.544L326.916 45.552C329.004 45.468 331.812 44.892 331.812 41.724C331.812 41.412 331.788 41.1 331.74 40.8C331.704 40.512 331.644 40.236 331.584 40.008V37.596H334.728V36.6H331.584ZM330.552 40.932C330.552 41.724 329.928 42.324 329.076 42.324C327.96 42.324 327.708 41.304 327.708 40.8C327.708 39.696 328.548 39.312 329.208 39.312C330.264 39.312 330.456 40.02 330.552 40.404V40.932ZM338.802 42.036C337.818 42.036 337.014 42.828 337.014 43.824C337.014 44.808 337.806 45.612 338.802 45.612C339.786 45.612 340.59 44.808 340.59 43.824C340.59 42.816 339.774 42.036 338.802 42.036ZM338.802 42.636C339.438 42.636 339.978 43.152 339.978 43.824C339.978 44.472 339.45 45 338.802 45C338.142 45 337.614 44.472 337.614 43.824C337.614 43.164 338.154 42.636 338.802 42.636Z" fill="black"/>
</svg>
