<svg width="350" height="74" viewBox="0 0 350 74" fill="none" xmlns="http://www.w3.org/2000/svg">
<path d="M2.496 2.185V7.203C1.313 7.736 1.131 7.827 0.273 8.113L0.572 9.179C0.897 9.036 1.599 8.711 2.405 8.23C2.054 10.739 1.001 11.87 0.559 12.338L1.443 13.066C2.041 12.351 3.536 10.609 3.536 6.644V3.16H12.558V2.185H7.722V1.041H6.656V2.185H2.496ZM2.106 5.344C1.911 4.525 1.69 3.875 1.222 3.043L0.351 3.485C0.546 3.836 0.91 4.486 1.17 5.812L2.106 5.344ZM12.272 4.525H4.043V5.474H7.696V11.805H5.863V6.709H4.784V11.805H3.094V12.78H12.493V11.805H8.749V8.828H11.856V7.879H8.749V5.474H12.272V4.525ZM26.139 12C25.333 11.493 23.084 10.063 22.265 5.578H25.983V4.538H22.213V1.041H21.095V4.538H17.858V5.578H21.056C21.004 6.267 20.861 6.956 20.679 7.632C20.107 9.777 19.145 11.077 17.546 12.104L18.157 13.079C20.458 11.454 21.316 9.478 21.797 7.736C22.434 9.608 23.344 11.649 25.515 13.027L26.139 12ZM16.22 1.041V7.671C15.245 8.386 14.114 9.01 13.737 9.218L14.062 10.375C14.595 10.115 15.739 9.4 16.22 8.984V13.079H17.299V1.041H16.22ZM15.83 5.279C15.596 4.395 15.193 3.459 14.764 2.692L13.828 3.108C14.335 4.07 14.556 4.616 14.855 5.695L15.83 5.279ZM25.359 3.407C25.151 3.069 24.631 2.185 23.734 1.249L22.915 1.795C23.552 2.471 24.176 3.446 24.462 3.953L25.359 3.407ZM31.998 13.144C32.843 12.884 34.832 12.195 35.716 9.92C36.054 10.752 37.029 12.364 39.187 13.105L39.707 12.13C38.784 11.831 37.315 11.272 36.509 9.439H39.057V5.838H36.132V4.642H37.952V4.161C38.316 4.434 38.641 4.642 39.174 4.954L39.746 4.018C37.536 2.9 36.756 1.86 36.249 1.002H34.975C33.974 2.445 33.064 3.251 31.556 4.031L32.076 4.967C32.414 4.798 32.778 4.603 33.363 4.174V4.642H35.105V5.838H32.18V9.439H34.819C34.247 11.454 32.063 12.039 31.465 12.195L31.998 13.144ZM36.132 6.735H38.056V8.542H36.054C36.106 8.191 36.132 7.853 36.132 7.034V6.735ZM35.105 7.06C35.105 7.814 35.079 8.191 35.027 8.542H33.207V6.735H35.105V7.06ZM33.87 3.745C34.624 3.056 35.3 2.185 35.612 1.795C35.924 2.198 36.6 3.069 37.419 3.745H33.87ZM31.959 7.593C30.958 6.514 30.49 5.5 30.308 5.032V4.538H31.439V3.55H30.308V1.028H29.281V3.55H27.461V4.538H29.203C28.527 7.294 27.721 8.334 27.24 8.958L27.695 10.245C28.436 9.231 28.956 8.074 29.281 6.852V13.092H30.308V6.592C30.62 7.372 30.919 7.853 31.426 8.568L31.959 7.593ZM48.465 5.253C48.114 5.656 47.607 6.267 46.216 7.528C46.073 7.411 45.826 7.216 45.189 6.8C45.241 6.748 46.164 5.955 46.84 5.058H51.689V6.592H52.768V4.122H47.503V3.017H52.768V2.055H47.503V1.054H46.437V2.055H41.224V3.017H46.437V4.122H41.172V6.592H42.238V5.058H45.462C45.228 5.383 45.02 5.669 44.37 6.28C43.902 5.981 43.759 5.916 43.512 5.786L42.849 6.579C44.227 7.242 45.254 7.996 45.488 8.191C45.371 8.295 45.28 8.373 45.033 8.568C44.448 8.581 41.614 8.607 40.977 8.594L41.055 9.595C41.822 9.595 45.592 9.517 46.437 9.504V13.066H47.516V9.452L51.221 9.257C51.689 9.712 51.897 9.972 52.105 10.245L52.846 9.504C52.482 9.075 51.637 8.061 49.882 6.787L49.128 7.463C49.44 7.684 49.648 7.827 50.337 8.425C47.698 8.516 47.399 8.529 46.502 8.568C48.166 7.112 48.699 6.631 49.388 5.851L48.465 5.253ZM41.575 12.936C42.264 12.598 43.746 11.844 44.942 10.44L44.097 9.855C42.953 11.168 41.276 11.909 40.899 12.078L41.575 12.936ZM48.816 10.388C49.427 11.025 50.402 11.974 52.404 12.871L53.067 11.948C51.559 11.376 50.584 10.765 49.57 9.764L48.816 10.388ZM61.058 3.719H65.153V2.588H55.754V3.719H59.823V10.401H55.052V11.558H65.855V10.401H61.058V3.719ZM73.534 4.174C73.196 3.966 71.766 3.043 69.465 2.354L68.88 3.394C70.752 3.979 72.117 4.746 72.884 5.266L73.534 4.174ZM69.387 12.208C76.875 11.714 78.955 5.643 79.579 3.797L78.565 3.043C77.668 5.955 75.731 10.557 69.153 10.908L69.387 12.208ZM87.557 3.329C86.53 2.835 85.256 2.25 83.748 1.912L83.28 2.9C84.619 3.277 85.867 3.745 87.063 4.408L87.557 3.329ZM86.491 6.371C85.49 5.786 83.93 5.188 82.734 4.902L82.279 5.929C84.151 6.475 85.334 7.086 86.01 7.476L86.491 6.371ZM89.65 1.197C90.248 2.224 90.43 2.666 90.781 3.745L91.691 3.29C91.262 2.146 91.015 1.548 90.495 0.768L89.65 1.197ZM91.821 1.067C92.38 2.055 92.588 2.601 92.913 3.641L93.836 3.199C93.446 2.029 93.095 1.327 92.679 0.663999L91.821 1.067ZM83.241 12.286C88.545 11.597 91.067 9.595 92.757 4.772L91.743 4.031C90.313 8.542 88.129 10.505 82.955 11.012L83.241 12.286ZM100.514 4.174C100.176 3.966 98.746 3.043 96.445 2.354L95.86 3.394C97.732 3.979 99.097 4.746 99.864 5.266L100.514 4.174ZM96.367 12.208C103.855 11.714 105.935 5.643 106.559 3.797L105.545 3.043C104.648 5.955 102.711 10.557 96.133 10.908L96.367 12.208ZM118.099 13.053V1.912H120.595V0.871999H117.059V13.053H118.099ZM130.094 10.271C130.861 7.034 131.121 3.758 131.212 2.744H124.023V3.901H129.886C129.808 4.837 129.561 7.58 128.846 10.271H122.372V11.428H133.383V10.271H130.094ZM138.215 1.925H137.019V10.154C137.019 11.805 137.825 12.13 139.762 12.13H143.402C144.221 12.13 145.456 12.091 146.249 11.961L146.184 10.791C145.352 10.947 144.312 10.999 143.272 10.999H139.931C138.449 10.999 138.215 10.895 138.215 9.959V7.086C139.58 6.8 141.959 6.202 144.806 4.902L144.273 3.81C142.323 4.811 140.529 5.422 138.215 5.955V1.925ZM143.87 1.535C144.455 2.432 144.754 3.004 145.144 4.031L146.028 3.511C145.612 2.549 145.287 1.886 144.702 1.067L143.87 1.535ZM145.859 0.923999C146.509 1.912 146.73 2.38 147.12 3.42L148.004 2.913C147.627 1.99 147.263 1.236 146.691 0.455999L145.859 0.923999ZM149.3 6.436V7.671H160.48V6.436H149.3ZM164.701 1.067V12.208H162.205V13.248H165.741V1.067H164.701ZM184.73 3.849L184.704 1.652H183.521L183.56 3.849H179.66V4.967H183.586L183.638 8.035C183.274 7.931 182.949 7.84 182.299 7.84C180.648 7.84 179.452 8.763 179.452 10.115C179.452 11.168 180.206 12.351 182.234 12.351C184.717 12.351 184.73 10.882 184.73 10.141V9.66C185.445 10.115 186.095 10.661 186.615 11.35L187.382 10.297C186.784 9.66 185.822 8.919 184.769 8.399L184.73 4.967H187.161V3.849H184.73ZM183.638 9.907C183.638 10.609 183.586 11.376 182.169 11.376C181.48 11.376 180.492 11.129 180.492 10.128C180.492 9.153 181.441 8.815 182.312 8.815C182.975 8.815 183.339 8.971 183.638 9.101V9.907ZM177.177 1.626C176.826 3.654 176.696 5.539 176.696 7.593C176.696 9.192 176.748 10.804 177.06 12.377L178.23 12.221C177.892 10.739 177.827 9.205 177.827 7.684C177.827 4.772 178.139 3.017 178.386 1.717L177.177 1.626ZM199.039 13.053V1.912H201.535V0.871999H197.999V13.053H199.039ZM209.851 1.028V1.847H205.964V2.731H207.862C207.901 2.835 208.135 3.706 208.187 3.914H206.393V11.103H207.381V4.759H209.903V5.734H207.784V6.54H209.903V7.437H208.252V10.128H212.516V7.437H210.852V6.54H212.958V5.734H210.852V4.759H213.361V9.972C213.361 10.271 213.244 10.297 213.075 10.297L211.866 10.284L212.009 11.272H213.387C214.063 11.272 214.349 10.895 214.349 10.271V3.914H212.451C212.633 3.472 212.737 3.173 212.867 2.731H214.83V1.847H210.904V1.028H209.851ZM209.123 3.914C209.006 3.407 208.993 3.342 208.837 2.731H211.918C211.879 2.9 211.684 3.576 211.541 3.914H209.123ZM211.619 9.335H209.136V8.217H211.619V9.335ZM208.304 11.779C207.927 11.779 205.561 11.597 205.301 10.011V6.072H202.87V7.138H204.274V10.804C203.702 11.415 202.961 11.896 202.727 12.039L203.247 13.144C204.17 12.338 204.235 12.26 205.067 11.311C205.353 11.688 206.159 12.78 208.291 12.78H214.791L214.999 11.779H208.304ZM205.769 3.368C205.145 2.497 204.391 1.73 203.78 1.21L203.065 1.86C204.235 3.004 204.69 3.706 204.924 4.057L205.769 3.368ZM217.491 4.668L216.152 4.889L216.217 5.942L217.491 5.734V9.894C217.491 10.518 217.816 10.843 218.427 10.843H219.948C221.014 10.843 221.261 9.816 221.469 8.113L220.416 7.866C220.39 8.36 220.299 9.842 219.74 9.842H218.934C218.609 9.842 218.544 9.751 218.544 9.465V5.565L221.404 5.097L221.339 4.031L218.544 4.486V1.041H217.491V4.668ZM221.04 1.6V2.653H223.367C223.367 7.216 222.951 10.141 219.155 12.169L219.909 13.105C223.51 10.908 224.407 8.334 224.459 2.653H226.916C226.916 4.135 226.916 10.505 226.227 11.623C226.006 11.987 225.577 11.974 225.447 11.974L223.51 11.961L223.744 13.066H225.629C226.786 13.066 227.137 12.468 227.293 12.143C228.008 10.609 228.008 4.772 228.008 1.6H221.04ZM238.807 5.162H237.637L237.715 7.944C237.429 7.879 237.013 7.788 236.363 7.788C234.062 7.788 233.308 9.231 233.308 10.206C233.308 11.415 234.27 12.494 236.22 12.494C237.507 12.494 238.82 12.026 238.82 10.102V9.569C239.288 9.842 240.081 10.323 240.926 11.337L241.641 10.31C241.004 9.608 239.964 8.802 238.872 8.321L238.807 5.162ZM237.741 9.894C237.741 10.778 237.546 11.48 236.259 11.48C236.012 11.48 234.413 11.48 234.413 10.167C234.413 9.439 235.037 8.776 236.363 8.776C237.052 8.776 237.442 8.919 237.741 9.023V9.894ZM233.88 3.16C234.049 2.211 234.062 2.133 234.166 1.509L232.931 1.457C232.879 1.977 232.84 2.263 232.697 3.16H230.292V4.252H232.489C232.151 5.708 231.579 8.256 230.188 10.492L231.384 11.012C231.852 10.05 232.918 7.879 233.659 4.252H236.61V3.16H233.88ZM241.42 4.174C240.042 3.407 239.171 3.017 237.871 2.562L237.416 3.524C238.586 3.953 239.561 4.421 240.874 5.214L241.42 4.174ZM244.757 7.021C245.667 6.449 246.031 6.085 246.408 5.708C248.319 6.67 249.463 7.476 250.542 8.399C249.06 10.024 247.045 10.986 244.913 11.493L245.472 12.572C253.272 10.544 253.948 4.33 254.182 2.211H247.461C246.681 3.94 245.537 5.149 243.99 6.111L244.757 7.021ZM252.843 3.29C252.544 5.305 251.946 6.501 251.257 7.515C249.97 6.41 248.475 5.604 247.123 4.928C247.474 4.499 247.708 4.2 248.241 3.29H252.843ZM264.201 5.578C266.021 4.122 267.1 2.861 267.672 2.185L266.58 1.47C264.162 4.512 260.964 6.865 257.259 8.022L257.831 9.101C259.495 8.516 261.185 7.736 262.953 6.501V12.559H264.201V5.578ZM280.681 2.913C277.652 2.224 275.312 1.938 272.179 1.756L271.984 2.835C275.208 3.004 277.743 3.381 280.46 4.109L280.681 2.913ZM280.005 6.852C277.847 6.202 275.78 5.76 272.114 5.487L271.893 6.566C275.143 6.813 277.249 7.177 279.797 7.983L280.005 6.852ZM281.214 11.259C279.784 10.843 276.508 9.881 271.347 9.621L271.113 10.726C275.741 11.077 278.12 11.597 280.889 12.494L281.214 11.259ZM289.374 4.174C289.036 3.966 287.606 3.043 285.305 2.354L284.72 3.394C286.592 3.979 287.957 4.746 288.724 5.266L289.374 4.174ZM285.227 12.208C292.715 11.714 294.795 5.643 295.419 3.797L294.405 3.043C293.508 5.955 291.571 10.557 284.993 10.908L285.227 12.208ZM298.704 12.676C303.332 11.636 306.049 9.062 307.128 4.109L305.919 2.51H300.719C299.809 4.33 298.483 5.448 297.469 6.137L298.21 7.021C299.679 6.033 300.641 4.967 301.499 3.602H306.01C305.269 7.515 303.254 10.57 298.21 11.571L298.704 12.676ZM307.674 0.95C308.35 1.873 308.61 2.393 309.052 3.394L309.884 2.848C309.338 1.756 309.117 1.301 308.454 0.455999L307.674 0.95ZM305.945 1.457C306.582 2.302 306.907 2.861 307.362 3.875L308.181 3.316C307.635 2.237 307.375 1.769 306.712 0.95L305.945 1.457ZM318.577 5.5C319.188 6.358 319.513 6.969 319.942 8.009L320.852 7.437C320.397 6.449 320.02 5.747 319.422 4.98L318.577 5.5ZM320.501 4.668C321.125 5.565 321.424 6.124 321.866 7.177L322.776 6.605C322.308 5.591 321.97 4.954 321.346 4.148L320.501 4.668ZM322.087 2.224C319.11 2.237 317.888 2.263 314.807 2.432C314.144 2.471 311.895 2.575 311.258 2.588L311.362 3.862C312.779 3.693 317.277 3.42 317.654 3.407C316.12 4.304 313.845 6.007 313.845 8.477C313.845 12.117 318.161 12.299 320.722 12.403L320.956 11.142C319.799 11.181 318.512 11.077 317.68 10.908C316.302 10.622 315.054 10.089 315.054 8.399C315.054 6.163 317.602 4.148 319.474 3.524C319.864 3.394 320.15 3.368 320.787 3.368C321.151 3.368 321.554 3.381 322.113 3.42L322.087 2.224ZM330.585 12.403C332.028 12.26 333.328 11.818 334.173 11.116C335.356 10.128 335.915 8.594 335.915 7.047C335.915 4.85 334.784 1.938 330.572 1.938C327.14 1.938 324.566 4.2 324.566 7.736C324.566 9.881 325.632 11.389 326.906 11.389C327.491 11.389 328.323 11.09 329.09 9.881C330.429 7.736 330.689 4.538 330.806 3.03C334.381 3.147 334.693 6.007 334.693 7.034C334.693 10.752 331.534 11.129 330.195 11.272L330.585 12.403ZM329.649 3.082C329.519 4.577 329.311 7.216 328.219 9.088C327.881 9.66 327.491 10.141 326.945 10.141C326.022 10.141 325.697 8.646 325.697 7.762C325.697 6.254 326.295 4.798 327.504 3.914C328.167 3.42 328.882 3.225 329.649 3.082ZM344.751 1.028V1.847H340.864V2.731H342.762C342.801 2.835 343.035 3.706 343.087 3.914H341.293V11.103H342.281V4.759H344.803V5.734H342.684V6.54H344.803V7.437H343.152V10.128H347.416V7.437H345.752V6.54H347.858V5.734H345.752V4.759H348.261V9.972C348.261 10.271 348.144 10.297 347.975 10.297L346.766 10.284L346.909 11.272H348.287C348.963 11.272 349.249 10.895 349.249 10.271V3.914H347.351C347.533 3.472 347.637 3.173 347.767 2.731H349.73V1.847H345.804V1.028H344.751ZM344.023 3.914C343.906 3.407 343.893 3.342 343.737 2.731H346.818C346.779 2.9 346.584 3.576 346.441 3.914H344.023ZM346.519 9.335H344.036V8.217H346.519V9.335ZM343.204 11.779C342.827 11.779 340.461 11.597 340.201 10.011V6.072H337.77V7.138H339.174V10.804C338.602 11.415 337.861 11.896 337.627 12.039L338.147 13.144C339.07 12.338 339.135 12.26 339.967 11.311C340.253 11.688 341.059 12.78 343.191 12.78H349.691L349.899 11.779H343.204ZM340.669 3.368C340.045 2.497 339.291 1.73 338.68 1.21L337.965 1.86C339.135 3.004 339.59 3.706 339.824 4.057L340.669 3.368ZM1.651 24.668L0.312 24.889L0.377 25.942L1.651 25.734V29.894C1.651 30.518 1.976 30.843 2.587 30.843H4.108C5.174 30.843 5.421 29.816 5.629 28.113L4.576 27.866C4.55 28.36 4.459 29.842 3.9 29.842H3.094C2.769 29.842 2.704 29.751 2.704 29.465V25.565L5.564 25.097L5.499 24.031L2.704 24.486V21.041H1.651V24.668ZM5.2 21.6V22.653H7.527C7.527 27.216 7.111 30.141 3.315 32.169L4.069 33.105C7.67 30.908 8.567 28.334 8.619 22.653H11.076C11.076 24.135 11.076 30.505 10.387 31.623C10.166 31.987 9.737 31.974 9.607 31.974L7.67 31.961L7.904 33.066H9.789C10.946 33.066 11.297 32.468 11.453 32.143C12.168 30.609 12.168 24.772 12.168 21.6H5.2ZM22.967 25.162H21.797L21.875 27.944C21.589 27.879 21.173 27.788 20.523 27.788C18.222 27.788 17.468 29.231 17.468 30.206C17.468 31.415 18.43 32.494 20.38 32.494C21.667 32.494 22.98 32.026 22.98 30.102V29.569C23.448 29.842 24.241 30.323 25.086 31.337L25.801 30.31C25.164 29.608 24.124 28.802 23.032 28.321L22.967 25.162ZM21.901 29.894C21.901 30.778 21.706 31.48 20.419 31.48C20.172 31.48 18.573 31.48 18.573 30.167C18.573 29.439 19.197 28.776 20.523 28.776C21.212 28.776 21.602 28.919 21.901 29.023V29.894ZM18.04 23.16C18.209 22.211 18.222 22.133 18.326 21.509L17.091 21.457C17.039 21.977 17 22.263 16.857 23.16H14.452V24.252H16.649C16.311 25.708 15.739 28.256 14.348 30.492L15.544 31.012C16.012 30.05 17.078 27.879 17.819 24.252H20.77V23.16H18.04ZM25.58 24.174C24.202 23.407 23.331 23.017 22.031 22.562L21.576 23.524C22.746 23.953 23.721 24.421 25.034 25.214L25.58 24.174ZM34.468 26.8C34.559 26.241 34.598 25.812 34.598 25.058H38.173V24.109H32.245C32.427 23.758 32.531 23.537 32.739 23.017L31.699 22.796C31.296 24.057 30.529 25.006 29.606 25.747L30.425 26.449C30.932 25.994 31.231 25.669 31.673 25.058H33.584C33.584 25.994 33.519 26.397 33.454 26.8H29.671V27.762H33.142C32.219 29.673 30.152 30.18 29.502 30.336L30.126 31.285C31.608 30.791 33.272 29.946 34.13 27.97C34.455 28.711 35.495 30.362 38.433 31.272L39.005 30.271C36.899 29.803 35.521 28.594 35.079 27.762H38.719V26.8H34.468ZM27.89 21.457V32.819H39.434V31.831H28.995V22.458H39.161V21.457H27.89ZM51.624 27.346C52.027 27.593 52.274 27.71 52.625 27.879L53.119 27.008C52.755 26.878 52.404 26.748 51.819 26.423C51.845 26.384 52.3 25.942 52.703 25.422L51.975 24.98C51.832 25.175 51.52 25.565 51.143 25.968C50.519 25.487 50.194 25.058 49.934 24.733H52.963V23.914H48.231C48.322 23.732 48.374 23.602 48.504 23.277L47.477 23.16C47.373 23.459 47.308 23.628 47.178 23.914H44.058V24.733H46.684C46.32 25.214 45.995 25.552 45.592 25.877C45.475 25.747 45.111 25.344 44.695 25.032L44.097 25.578C44.461 25.864 44.5 25.903 44.929 26.358C44.487 26.657 44.149 26.826 43.694 27.047L44.266 27.827C44.552 27.658 44.643 27.606 44.916 27.437V30.141H47.711V31.818C47.711 32.078 47.672 32.13 47.412 32.13H46.177L46.398 33.066H47.802C48.205 33.066 48.764 33.04 48.764 32.234V30.141H51.624V27.346ZM50.675 27.853H45.865V27.073H50.675V27.853ZM46.398 26.319C47.243 25.552 47.607 24.98 47.763 24.733H48.868C49.154 25.149 49.479 25.643 50.233 26.319H46.398ZM50.675 29.387H45.865V28.568H50.675V29.387ZM42.615 26.488C42.615 26.852 42.602 27.099 42.602 27.307C41.952 27.632 41.653 27.775 40.756 28.126L40.977 29.192C41.367 28.997 41.861 28.75 42.511 28.321C42.225 30.739 41.51 31.675 40.925 32.403L41.718 33.105C42.238 32.481 43.642 30.804 43.642 26.527V22.991H53.002V22.081H48.166V21.028H47.1V22.081H42.615V26.488ZM42.342 25.37C42.212 24.707 41.939 23.797 41.562 23.056L40.756 23.446C41.055 24.187 41.289 25.019 41.432 25.799L42.342 25.37ZM43.72 32.871C44.591 32.546 45.397 32.117 46.502 31.038L45.748 30.414C44.825 31.298 44.188 31.649 43.148 32L43.72 32.871ZM49.817 31.051C50.519 31.844 51.624 32.533 52.625 32.884L53.197 32C51.988 31.571 51.442 31.259 50.506 30.362L49.817 31.051ZM64.776 24.538C62.761 24.863 61.695 25.071 60.291 25.5C60.018 24.941 59.953 24.252 59.953 22.874C59.953 22.237 59.966 21.873 59.979 21.522H58.705C58.744 24.291 58.77 25.045 59.199 25.89C58.289 26.28 55.611 27.398 55.611 29.621C55.611 32.39 59.212 32.39 61.461 32.39C63.333 32.39 64.477 32.312 65.322 32.26L65.296 31.038C64.555 31.116 63.346 31.233 61.201 31.233C58.406 31.233 56.82 31.09 56.82 29.582C56.82 26.696 63.84 25.903 64.893 25.786L64.776 24.538ZM74.275 32.403C75.718 32.26 77.018 31.818 77.863 31.116C79.046 30.128 79.605 28.594 79.605 27.047C79.605 24.85 78.474 21.938 74.262 21.938C70.83 21.938 68.256 24.2 68.256 27.736C68.256 29.881 69.322 31.389 70.596 31.389C71.181 31.389 72.013 31.09 72.78 29.881C74.119 27.736 74.379 24.538 74.496 23.03C78.071 23.147 78.383 26.007 78.383 27.034C78.383 30.752 75.224 31.129 73.885 31.272L74.275 32.403ZM73.339 23.082C73.209 24.577 73.001 27.216 71.909 29.088C71.571 29.66 71.181 30.141 70.635 30.141C69.712 30.141 69.387 28.646 69.387 27.762C69.387 26.254 69.985 24.798 71.194 23.914C71.857 23.42 72.572 23.225 73.339 23.082ZM82.331 21.99V26.761H86.881V31.831H82.981V27.762H81.889V32.832H92.978V27.762H91.873V31.831H87.973V26.761H92.549V21.99H91.444V25.76H87.973V21.028H86.881V25.76H83.436V21.99H82.331ZM102.373 29.27C103.387 30.297 104.037 31.116 104.167 31.285C103.205 31.376 101.866 31.493 100.28 31.558C100.007 31.571 98.551 31.61 98.226 31.623C99.071 30.128 99.591 28.997 99.903 28.282H106.689V27.281H95.08V28.282H98.642C98.356 29.036 97.862 30.245 97.043 31.649H95.249L95.366 32.715C97.368 32.715 102.672 32.481 104.843 32.169C105.116 32.572 105.272 32.819 105.48 33.17L106.416 32.546C105.415 30.96 104.622 30.05 103.231 28.685L102.373 29.27ZM104.375 24.889C105.298 25.513 106.026 25.851 106.598 26.111L107.17 25.071C104.908 24.265 102.841 22.692 101.489 20.885H100.332C99.981 21.405 98.525 23.511 94.651 25.032L95.184 26.085C95.626 25.903 96.341 25.591 97.498 24.876V25.604H104.375V24.889ZM97.901 24.616C98.993 23.862 100.098 22.952 100.917 21.808C101.372 22.38 102.126 23.316 103.959 24.616H97.901ZM109.389 22.133C109.311 23.017 109.181 24.434 109.181 25.851C109.181 29.231 109.766 32.143 111.872 32.143C112.535 32.143 113.016 31.831 113.328 31.519C114.056 30.791 114.654 29.699 115.083 28.49L114.121 27.944C113.224 30.284 112.548 30.817 111.963 30.817C110.507 30.817 110.351 27.97 110.351 25.955C110.351 24.2 110.52 23.017 110.624 22.237L109.389 22.133ZM119.867 30.856C120.049 25.656 118.71 23.823 117.163 22.523L116.266 23.212C117.618 24.317 118.632 26.189 118.632 29.582C118.632 30.18 118.606 30.57 118.58 30.908L119.867 30.856ZM124.231 21.067V32.208H121.735V33.248H125.271V21.067H124.231ZM141.725 32.403C143.168 32.26 144.468 31.818 145.313 31.116C146.496 30.128 147.055 28.594 147.055 27.047C147.055 24.85 145.924 21.938 141.712 21.938C138.28 21.938 135.706 24.2 135.706 27.736C135.706 29.881 136.772 31.389 138.046 31.389C138.631 31.389 139.463 31.09 140.23 29.881C141.569 27.736 141.829 24.538 141.946 23.03C145.521 23.147 145.833 26.007 145.833 27.034C145.833 30.752 142.674 31.129 141.335 31.272L141.725 32.403ZM140.789 23.082C140.659 24.577 140.451 27.216 139.359 29.088C139.021 29.66 138.631 30.141 138.085 30.141C137.162 30.141 136.837 28.646 136.837 27.762C136.837 26.254 137.435 24.798 138.644 23.914C139.307 23.42 140.022 23.225 140.789 23.082ZM152.914 26.41C153.239 26.241 153.629 26.046 154.266 25.565V27.073H159.31V25.617C159.765 25.968 160.168 26.202 160.753 26.462L161.169 25.617C159.752 24.98 159.258 24.551 158.621 23.641H160.883V22.835H156.528C156.58 22.731 156.671 22.562 156.879 22.068C157.477 22.029 159.167 21.899 160.142 21.704L159.7 20.924C158.621 21.145 156.879 21.418 153.083 21.405L153.291 22.185C153.785 22.185 154.253 22.185 155.839 22.12C155.774 22.25 155.696 22.419 155.475 22.835H152.771V23.641H154.955C154.071 24.824 152.927 25.357 152.433 25.591L152.914 26.41ZM157.594 23.641C157.763 23.927 157.958 24.252 158.335 24.707H155.215C155.553 24.343 155.774 24.083 156.06 23.641H157.594ZM158.478 26.358H155.085V25.422H158.478V26.358ZM160.532 27.71H153.031V33.092H154.006V28.503H159.531V31.662C159.531 32.13 159.492 32.208 159.05 32.195L158.205 32.182L158.387 33.092H159.44C160.025 33.092 160.532 33.027 160.532 32.195V27.71ZM157.919 31.129H155.644V29.946H157.919V31.129ZM152.927 27.398C152.095 26.41 151.718 25.565 151.536 25.097V24.551H152.706V23.563H151.536V21.028H150.535V23.563H148.884V24.551H150.496C150.158 26.267 149.339 27.788 148.715 28.659L149.183 29.907C149.508 29.426 150.028 28.62 150.535 26.982V33.092H151.536V26.696C151.744 27.216 151.796 27.346 152.355 28.204L152.927 27.398ZM158.79 29.218H154.76V31.883H158.79V29.218ZM165.819 22.003V26.852C165.819 30.141 164.753 31.571 164.259 32.234L165.104 33.053C165.39 32.637 166.144 31.558 166.508 29.92C166.703 29.023 166.859 27.762 166.859 26.865V25.097H168.354V27.138H172.54V25.097H174.282V24.2H172.54V23.29H171.578V24.2H169.316V23.29H168.354V24.2H166.859V22.965H174.386V22.003H170.642V21.028H169.589V22.003H165.819ZM162.738 21.99C163.232 22.224 164.22 22.783 164.714 23.303L165.377 22.341C164.467 21.678 163.895 21.379 163.336 21.145L162.738 21.99ZM171.578 25.097V26.293H169.316V25.097H171.578ZM174.542 32.078C174.022 31.987 172.943 31.779 171.552 31.207C172.878 30.245 173.372 29.244 173.593 28.789V27.892H167.236V28.815H172.462C172.202 29.218 171.695 29.985 170.499 30.687C169.355 29.998 168.861 29.374 168.601 29.062L167.756 29.517C168.003 29.842 168.484 30.44 169.498 31.181C167.977 31.818 166.846 31.987 166.222 32.078L166.69 33.118C168.289 32.767 169.446 32.377 170.512 31.818C172.124 32.702 173.437 32.962 174.113 33.092L174.542 32.078ZM162.153 25.435C162.855 25.773 163.57 26.228 164.168 26.748L164.818 25.851C164.376 25.487 163.518 24.902 162.751 24.564L162.153 25.435ZM163.986 27.944C163.713 28.945 163.089 30.635 162.114 32.078L162.933 32.988C164.207 30.973 164.714 29.114 164.87 28.477L163.986 27.944ZM178.165 21.626C178.152 22.51 178.074 26.826 178.074 27.801C178.074 30.063 178.308 32.442 181.87 32.442C185.822 32.442 186.667 29.764 187.083 27.411L185.991 27.008C185.627 28.984 185.198 31.324 181.831 31.324C179.387 31.324 179.309 29.582 179.309 27.918C179.309 26.683 179.361 25.136 179.478 21.626H178.165ZM190.953 21.743C190.537 23.693 190.407 25.773 190.407 27.918C190.407 30.401 190.628 31.701 190.745 32.455L192.006 32.351C191.902 31.883 191.603 30.635 191.603 27.736C191.603 24.46 191.993 22.757 192.188 21.847L190.953 21.743ZM194.164 22.796V23.94H200.274V22.796H194.164ZM194.45 27.099C193.995 27.866 193.761 28.607 193.761 29.283C193.761 31.519 196.166 31.701 198.09 31.701C199.195 31.701 200.105 31.623 200.547 31.584V30.362C199.351 30.492 198.285 30.518 197.57 30.518C196.179 30.518 194.853 30.362 194.853 29.179C194.853 29.062 194.866 28.321 195.503 27.424L194.45 27.099ZM209.513 24.811H213.907V23.641L209.513 23.68L209.5 21.522H208.278L208.33 27.645C208.005 27.606 207.758 27.567 207.329 27.567C205.47 27.567 203.637 28.334 203.637 30.115C203.637 31.389 204.599 32.455 206.744 32.455C209.448 32.455 209.539 30.791 209.526 30.024L209.513 29.127C211.099 29.738 212.607 30.908 213.4 31.792L214.245 30.674C213.608 30.011 212.087 28.763 209.526 27.892L209.513 24.811ZM208.343 29.946C208.343 30.479 208.213 31.376 206.731 31.376C206.445 31.376 204.794 31.376 204.794 30.128C204.794 29.075 206.029 28.633 207.147 28.633C207.693 28.633 208.083 28.711 208.356 28.763L208.343 29.946ZM220.858 32.039C221.898 32.026 223.016 31.935 224.03 31.61C226.513 30.83 226.799 28.789 226.799 28.009C226.799 26.189 225.525 24.811 223.302 24.811C222.613 24.811 221.703 24.941 220.897 25.071C220.455 25.149 218.297 25.539 217.803 25.617L217.998 26.761C220 26.254 222.21 25.825 223.25 25.825C224.524 25.825 225.655 26.475 225.655 28.048C225.655 31.064 221.651 31.038 220.572 31.025L220.858 32.039ZM241.147 22.224C237.949 22.25 236.753 22.276 233.841 22.432C233.178 22.471 231.098 22.562 230.318 22.588L230.422 23.862C231.839 23.693 236.337 23.42 236.714 23.407C235.18 24.304 232.905 26.007 232.905 28.477C232.905 32.117 237.221 32.299 239.782 32.403L240.016 31.142C238.898 31.181 237.65 31.103 236.74 30.908C235.362 30.622 234.114 30.089 234.114 28.399C234.114 26.163 236.662 24.148 238.534 23.524C238.924 23.394 239.197 23.368 239.847 23.368C240.354 23.368 240.731 23.381 241.173 23.42L241.147 22.224ZM247.019 31.883C246.473 31.142 245.55 30.05 244.705 29.27L243.717 29.998C244.146 30.453 244.952 31.298 245.875 32.689L247.019 31.883ZM263.031 32.637C265.8 31.649 266.463 29.478 266.775 28.204C267.425 28.49 267.646 28.607 268.231 28.958L268.621 27.788C267.815 27.346 267.061 27.06 267.022 27.047C267.217 26.007 267.321 24.876 267.412 23.94L266.177 23.849C266.151 24.447 266.086 25.37 265.891 26.644C264.708 26.254 263.85 26.046 262.758 25.955C263.187 23.394 263.226 23.108 263.395 21.808H258.013V22.939L262.082 22.9C262.004 23.823 261.835 24.98 261.653 25.916C257.402 26.085 257.168 28.88 257.168 29.517C257.168 30.908 258.078 31.74 259.326 31.74C261.289 31.74 261.861 29.881 262.563 26.982C263.733 27.086 264.838 27.424 265.683 27.749C265.228 29.634 264.552 30.934 262.316 31.74L263.031 32.637ZM261.458 26.917C260.769 29.738 260.418 30.713 259.248 30.713C258.26 30.713 258.195 29.699 258.195 29.452C258.195 28.568 258.728 27.723 259.573 27.307C260.145 27.021 260.691 26.943 261.458 26.917ZM279.277 25.162H278.107L278.185 27.944C277.899 27.879 277.483 27.788 276.833 27.788C274.532 27.788 273.778 29.231 273.778 30.206C273.778 31.415 274.74 32.494 276.69 32.494C277.977 32.494 279.29 32.026 279.29 30.102V29.569C279.758 29.842 280.551 30.323 281.396 31.337L282.111 30.31C281.474 29.608 280.434 28.802 279.342 28.321L279.277 25.162ZM278.211 29.894C278.211 30.778 278.016 31.48 276.729 31.48C276.482 31.48 274.883 31.48 274.883 30.167C274.883 29.439 275.507 28.776 276.833 28.776C277.522 28.776 277.912 28.919 278.211 29.023V29.894ZM274.35 23.16C274.519 22.211 274.532 22.133 274.636 21.509L273.401 21.457C273.349 21.977 273.31 22.263 273.167 23.16H270.762V24.252H272.959C272.621 25.708 272.049 28.256 270.658 30.492L271.854 31.012C272.322 30.05 273.388 27.879 274.129 24.252H277.08V23.16H274.35ZM281.89 24.174C280.512 23.407 279.641 23.017 278.341 22.562L277.886 23.524C279.056 23.953 280.031 24.421 281.344 25.214L281.89 24.174ZM293.508 28.1C292.728 27.268 291.974 26.007 291.428 24.694C292.572 24.642 293.69 24.59 295.107 24.291L294.899 23.173C293.599 23.446 292.377 23.602 291.051 23.641C290.882 23.121 290.7 22.276 290.583 21.483L289.348 21.574C289.4 21.886 289.595 22.835 289.855 23.68C289.53 23.693 288.828 23.706 288.282 23.693L284.486 23.628V24.759H288.23C288.425 24.759 289.426 24.746 290.219 24.733C290.921 26.514 291.74 27.918 292.507 28.776L293.508 28.1ZM286.956 27.034C285.63 27.684 285.071 28.62 285.071 29.569C285.071 30.219 285.318 30.856 285.838 31.324C286.748 32.143 288.035 32.403 290.31 32.403C292.091 32.403 293.235 32.299 293.703 32.247L293.69 31.09C292.884 31.194 291.896 31.311 290.206 31.311C288.347 31.311 286.241 31.142 286.241 29.556C286.241 29.309 286.306 28.503 287.58 27.879L286.956 27.034ZM301.187 21.444C300.875 22.289 300.121 24.369 299.926 24.915C299.627 25.76 299.406 26.384 297.56 32.026L298.782 32.403C299.133 31.09 299.341 30.31 299.796 29.101C300.615 27.424 301.681 27.151 302.201 27.151C303.124 27.151 303.358 27.918 303.358 28.88V29.608C303.358 30.622 303.371 32.455 305.581 32.455C308.558 32.455 308.87 28.971 308.948 27.255L307.817 26.995C307.817 27.749 307.752 28.724 307.388 29.777C306.959 31.012 306.296 31.311 305.659 31.311C304.606 31.311 304.502 30.596 304.502 29.66V28.789C304.502 27.892 304.398 26.046 302.396 26.046C301.681 26.046 301.174 26.293 300.472 26.865C300.823 25.851 301.603 23.719 302.474 21.795L301.187 21.444ZM317.095 32.403C318.538 32.26 319.838 31.818 320.683 31.116C321.866 30.128 322.425 28.594 322.425 27.047C322.425 24.85 321.294 21.938 317.082 21.938C313.65 21.938 311.076 24.2 311.076 27.736C311.076 29.881 312.142 31.389 313.416 31.389C314.001 31.389 314.833 31.09 315.6 29.881C316.939 27.736 317.199 24.538 317.316 23.03C320.891 23.147 321.203 26.007 321.203 27.034C321.203 30.752 318.044 31.129 316.705 31.272L317.095 32.403ZM316.159 23.082C316.029 24.577 315.821 27.216 314.729 29.088C314.391 29.66 314.001 30.141 313.455 30.141C312.532 30.141 312.207 28.646 312.207 27.762C312.207 26.254 312.805 24.798 314.014 23.914C314.677 23.42 315.392 23.225 316.159 23.082ZM332.197 21.028V21.873H330.507V22.731H332.197V23.745H329.818V24.59H332.197V25.63H330.507V26.462H332.197V27.398H330.325V28.243H332.197V29.218H329.974V30.089H332.197V31.246H333.133V30.089H336.227V29.218H333.133V28.243H335.811V27.398H333.133V26.462H335.642V24.59H336.266V23.745H335.642V21.873H333.133V21.028H332.197ZM334.68 23.745H333.133V22.731H334.68V23.745ZM334.68 25.63H333.133V24.59H334.68V25.63ZM332.821 31.714C330.286 31.714 329.129 30.57 329.051 30.479C329.194 30.102 329.792 28.373 329.844 25.552H328.18C328.752 24.551 329.376 23.472 329.818 22.497V21.522H327.218V22.458H328.765C328.453 23.212 327.608 24.811 327.088 25.539V26.488H328.895C328.869 27.45 328.778 28.464 328.414 29.556C327.985 28.659 327.868 27.827 327.79 27.294L326.906 27.424C326.984 27.905 327.205 29.426 327.959 30.583C327.452 31.415 327.01 31.753 326.646 32.039L327.231 33.001C327.608 32.65 328.076 32.221 328.596 31.376C328.96 31.727 330.247 32.728 332.743 32.728H336.214L336.383 31.714H332.821ZM326.347 24.148C326.802 22.9 326.984 21.925 327.114 21.171L326.074 21.002C325.814 22.848 325.125 25.097 324.02 26.436L324.527 27.502C324.8 27.216 325.008 26.995 325.346 26.384V33.066H326.347V24.148ZM11.219 48.347C10.556 49.166 9.516 49.972 9.36 50.089C8.489 49.439 8.021 48.828 7.696 48.373V48.256H11.505V46.462H12.532V45.604H11.505V43.875H7.696V43.264H6.682V43.875H3.029V44.72H6.682V45.604H2.457V42.939H12.454V41.977H7.176V41.028H6.097V41.977H1.404V47.385C1.404 48.685 1.3 49.114 1.157 49.868C0.923 51.09 0.533 51.805 0.312 52.182L1.196 53.105C2.34 50.947 2.457 48.438 2.457 47.476V46.462H6.682V47.424H3.029V48.256H6.682V51.74C6.682 51.909 6.656 52.039 6.357 52.039L4.966 52.026L5.174 53.092H6.747C7.41 53.092 7.696 52.702 7.696 52.13V49.712C8.944 51.259 10.647 52.221 12.038 52.741L12.649 51.74C12.181 51.571 11.297 51.259 10.205 50.635C11.076 49.998 11.505 49.608 12.09 48.984L11.219 48.347ZM10.478 44.72V45.604H7.696V44.72H10.478ZM10.478 46.462V47.424H7.696V46.462H10.478ZM3.042 49.114C3.887 49.504 4.29 49.764 4.862 50.297L5.551 49.504C4.888 48.984 4.459 48.75 3.627 48.36L3.042 49.114ZM6.071 50.037C5.629 50.245 3.679 51.142 2.184 51.61L2.587 52.546C5.356 51.389 5.668 51.259 6.24 50.947L6.071 50.037ZM19.99 45.721C19.262 45.721 18.651 46.306 18.651 47.06C18.651 47.788 19.236 48.399 19.99 48.399C20.744 48.399 21.329 47.775 21.329 47.06C21.329 46.332 20.731 45.721 19.99 45.721ZM38.862 52.078C38.108 51.636 36.834 50.908 35.183 50.219C35.69 49.699 36.548 48.724 37.172 46.735H39.473V45.708H32.427C32.895 44.759 33.064 44.33 33.207 43.979L32.011 43.758C31.855 44.213 31.634 44.824 31.179 45.708H27.487V46.735H30.62C29.905 47.97 29.268 48.724 28.878 49.179C30.906 49.738 32.063 50.128 33.116 50.544C31.491 51.441 29.541 51.766 27.799 51.922L28.176 53.066C31.556 52.715 33.558 51.532 34.273 51.012C36.405 51.935 37.562 52.702 38.147 53.092L38.862 52.078ZM36.028 46.735C35.885 47.164 35.391 48.659 34.143 49.803C32.843 49.309 31.543 48.932 30.607 48.659C30.867 48.321 31.244 47.827 31.868 46.735H36.028ZM27.799 42.198V45.032H28.904V43.199H38.069V45.032H39.174V42.198H34.013V41.028H32.895V42.198H27.799ZM50.805 45.331C51.611 45.838 52.196 46.098 52.651 46.306L53.197 45.24C50.805 44.369 48.881 42.809 47.568 41.041H46.385C44.942 43.056 42.81 44.46 40.743 45.253L41.289 46.319C41.757 46.098 42.303 45.851 43.187 45.318V46.306H46.424V48.282H42.29V49.257H46.424V51.714H41.016V52.754H52.924V51.714H47.529V49.257H51.689V48.282H47.529V46.306H50.805V45.331ZM43.2 45.305C44.643 44.434 45.917 43.29 46.97 41.964C48.361 43.693 49.96 44.785 50.766 45.305H43.2ZM59.563 42.757C59.745 42.107 59.81 41.808 59.888 41.353L58.64 41.301C58.549 42.042 58.458 42.419 58.367 42.757H55.377V43.797H58.055C57.223 46.228 56.183 47.606 55.039 48.685L55.845 49.556C56.261 49.127 57.119 47.983 57.717 47.164C58.627 46.241 59.576 45.838 60.291 45.838C60.889 45.838 61.253 46.098 61.396 46.865C60.109 47.437 57.782 48.607 57.782 50.375C57.782 52.468 60.72 52.468 62.189 52.468C63.424 52.468 64.555 52.39 65.296 52.338L65.257 51.22C64.087 51.35 62.865 51.402 61.825 51.402C60.395 51.402 58.952 51.402 58.952 50.258C58.952 49.192 60.525 48.36 61.526 47.892C61.552 48.23 61.552 48.451 61.552 48.672C61.552 49.14 61.513 49.621 61.487 49.92H62.618C62.657 49.504 62.657 49.114 62.657 48.932C62.657 48.464 62.644 47.905 62.605 47.45C64.035 46.904 64.958 46.618 66.011 46.319L65.699 45.188C64.529 45.591 62.748 46.306 62.449 46.423C62.189 45.188 61.357 44.902 60.473 44.902C59.823 44.902 59.303 45.123 58.393 45.669C58.77 45.019 58.952 44.59 59.251 43.797H64.984V42.757H59.563ZM77.434 44.005V41.535H76.264V44.005H71.727V41.587H70.544V44.005H68.347V45.123H70.544V48.62H71.727V45.123H76.264V46.722C76.264 49.582 74.561 51.077 70.882 51.428L71.311 52.559C73.261 52.325 77.434 51.558 77.434 46.774V45.123H79.683V44.005H77.434ZM88.012 43.771V41.6H86.816V43.771H82.318V44.876H86.816V52.598H88.012V44.876H92.523V44.408C93.303 44.187 93.836 43.485 93.836 42.679C93.836 41.678 93.03 40.872 92.029 40.872C91.041 40.872 90.222 41.678 90.222 42.666C90.222 43.082 90.352 43.459 90.599 43.771H88.012ZM92.029 41.678C92.575 41.678 93.03 42.12 93.03 42.679C93.03 43.225 92.588 43.68 92.029 43.68C91.483 43.68 91.028 43.225 91.028 42.679C91.028 42.12 91.483 41.678 92.029 41.678ZM82.968 51.818C84.528 50.076 84.931 47.957 85.113 46.241L84.008 46.124C83.865 47.723 83.397 49.582 82.019 50.96L82.968 51.818ZM89.767 46.241C90.209 48.906 90.716 50.336 91.886 51.766L92.861 51.012C91.795 49.725 91.249 48.373 90.859 46.111L89.767 46.241ZM95.34 46.436V47.671H106.52V46.436H95.34ZM119.542 47.593C117.67 46.579 115.655 45.578 113.198 44.798V41.47H111.937V52.585H113.198V46.02C115.915 46.956 118.047 48.256 118.931 48.802L119.542 47.593ZM124.205 41.626C124.192 42.51 124.114 46.826 124.114 47.801C124.114 50.063 124.348 52.442 127.91 52.442C131.862 52.442 132.707 49.764 133.123 47.411L132.031 47.008C131.667 48.984 131.238 51.324 127.871 51.324C125.427 51.324 125.349 49.582 125.349 47.918C125.349 46.683 125.401 45.136 125.518 41.626H124.205ZM139.099 51.883C138.553 51.142 137.63 50.05 136.785 49.27L135.797 49.998C136.226 50.453 137.032 51.298 137.955 52.689L139.099 51.883ZM155.878 46.8C155.969 46.241 156.008 45.812 156.008 45.058H159.583V44.109H153.655C153.837 43.758 153.941 43.537 154.149 43.017L153.109 42.796C152.706 44.057 151.939 45.006 151.016 45.747L151.835 46.449C152.342 45.994 152.641 45.669 153.083 45.058H154.994C154.994 45.994 154.929 46.397 154.864 46.8H151.081V47.762H154.552C153.629 49.673 151.562 50.18 150.912 50.336L151.536 51.285C153.018 50.791 154.682 49.946 155.54 47.97C155.865 48.711 156.905 50.362 159.843 51.272L160.415 50.271C158.309 49.803 156.931 48.594 156.489 47.762H160.129V46.8H155.878ZM149.3 41.457V52.819H160.844V51.831H150.405V42.458H160.571V41.457H149.3ZM173.034 47.346C173.437 47.593 173.684 47.71 174.035 47.879L174.529 47.008C174.165 46.878 173.814 46.748 173.229 46.423C173.255 46.384 173.71 45.942 174.113 45.422L173.385 44.98C173.242 45.175 172.93 45.565 172.553 45.968C171.929 45.487 171.604 45.058 171.344 44.733H174.373V43.914H169.641C169.732 43.732 169.784 43.602 169.914 43.277L168.887 43.16C168.783 43.459 168.718 43.628 168.588 43.914H165.468V44.733H168.094C167.73 45.214 167.405 45.552 167.002 45.877C166.885 45.747 166.521 45.344 166.105 45.032L165.507 45.578C165.871 45.864 165.91 45.903 166.339 46.358C165.897 46.657 165.559 46.826 165.104 47.047L165.676 47.827C165.962 47.658 166.053 47.606 166.326 47.437V50.141H169.121V51.818C169.121 52.078 169.082 52.13 168.822 52.13H167.587L167.808 53.066H169.212C169.615 53.066 170.174 53.04 170.174 52.234V50.141H173.034V47.346ZM172.085 47.853H167.275V47.073H172.085V47.853ZM167.808 46.319C168.653 45.552 169.017 44.98 169.173 44.733H170.278C170.564 45.149 170.889 45.643 171.643 46.319H167.808ZM172.085 49.387H167.275V48.568H172.085V49.387ZM164.025 46.488C164.025 46.852 164.012 47.099 164.012 47.307C163.362 47.632 163.063 47.775 162.166 48.126L162.387 49.192C162.777 48.997 163.271 48.75 163.921 48.321C163.635 50.739 162.92 51.675 162.335 52.403L163.128 53.105C163.648 52.481 165.052 50.804 165.052 46.527V42.991H174.412V42.081H169.576V41.028H168.51V42.081H164.025V46.488ZM163.752 45.37C163.622 44.707 163.349 43.797 162.972 43.056L162.166 43.446C162.465 44.187 162.699 45.019 162.842 45.799L163.752 45.37ZM165.13 52.871C166.001 52.546 166.807 52.117 167.912 51.038L167.158 50.414C166.235 51.298 165.598 51.649 164.558 52L165.13 52.871ZM171.227 51.051C171.929 51.844 173.034 52.533 174.035 52.884L174.607 52C173.398 51.571 172.852 51.259 171.916 50.362L171.227 51.051ZM177.463 41.743C177.047 43.693 176.917 45.773 176.917 47.918C176.917 50.401 177.138 51.701 177.255 52.455L178.516 52.351C178.412 51.883 178.113 50.635 178.113 47.736C178.113 44.46 178.503 42.757 178.698 41.847L177.463 41.743ZM180.674 42.796V43.94H186.784V42.796H180.674ZM180.96 47.099C180.505 47.866 180.271 48.607 180.271 49.283C180.271 51.519 182.676 51.701 184.6 51.701C185.705 51.701 186.615 51.623 187.057 51.584V50.362C185.861 50.492 184.795 50.518 184.08 50.518C182.689 50.518 181.363 50.362 181.363 49.179C181.363 49.062 181.376 48.321 182.013 47.424L180.96 47.099ZM193.657 51.701C195.23 51.688 196.686 51.506 197.791 51.051C200.56 49.933 200.885 47.736 200.885 46.735C200.885 44.785 199.65 42.835 196.608 42.835C195.529 42.835 194.281 43.043 193.046 43.264C192.513 43.355 189.991 43.797 189.692 43.836L189.978 45.149C192.175 44.603 194.97 43.979 196.53 43.979C199.065 43.979 199.637 45.526 199.637 46.748C199.637 48.035 198.961 48.971 198.259 49.478C196.985 50.388 195.49 50.57 193.345 50.583L193.657 51.701ZM203.819 42.133C203.741 43.017 203.611 44.434 203.611 45.851C203.611 49.231 204.196 52.143 206.302 52.143C206.965 52.143 207.446 51.831 207.758 51.519C208.486 50.791 209.084 49.699 209.513 48.49L208.551 47.944C207.654 50.284 206.978 50.817 206.393 50.817C204.937 50.817 204.781 47.97 204.781 45.955C204.781 44.2 204.95 43.017 205.054 42.237L203.819 42.133ZM214.297 50.856C214.479 45.656 213.14 43.823 211.593 42.523L210.696 43.212C212.048 44.317 213.062 46.189 213.062 49.582C213.062 50.18 213.036 50.57 213.01 50.908L214.297 50.856ZM227.657 42.224C224.459 42.25 223.263 42.276 220.351 42.432C219.688 42.471 217.608 42.562 216.828 42.588L216.932 43.862C218.349 43.693 222.847 43.42 223.224 43.407C221.69 44.304 219.415 46.007 219.415 48.477C219.415 52.117 223.731 52.299 226.292 52.403L226.526 51.142C225.408 51.181 224.16 51.103 223.25 50.908C221.872 50.622 220.624 50.089 220.624 48.399C220.624 46.163 223.172 44.148 225.044 43.524C225.434 43.394 225.707 43.368 226.357 43.368C226.864 43.368 227.241 43.381 227.683 43.42L227.657 42.224ZM236.155 52.403C237.598 52.26 238.898 51.818 239.743 51.116C240.926 50.128 241.485 48.594 241.485 47.047C241.485 44.85 240.354 41.938 236.142 41.938C232.71 41.938 230.136 44.2 230.136 47.736C230.136 49.881 231.202 51.389 232.476 51.389C233.061 51.389 233.893 51.09 234.66 49.881C235.999 47.736 236.259 44.538 236.376 43.03C239.951 43.147 240.263 46.007 240.263 47.034C240.263 50.752 237.104 51.129 235.765 51.272L236.155 52.403ZM235.219 43.082C235.089 44.577 234.881 47.216 233.789 49.088C233.451 49.66 233.061 50.141 232.515 50.141C231.592 50.141 231.267 48.646 231.267 47.762C231.267 46.254 231.865 44.798 233.074 43.914C233.737 43.42 234.452 43.225 235.219 43.082ZM249.554 44.135C249.788 43.758 250.048 43.329 250.425 42.549H255.313V41.483H243.301V42.549H249.268C248.28 44.655 246.356 46.891 243.158 48.36L243.808 49.387C244.731 48.919 246.694 47.866 248.709 45.318V53.092H249.84V44.135H249.554ZM255.495 48.412C253.519 47.203 252.193 45.838 251.088 44.46L250.295 45.084C251.881 47.086 252.739 47.957 254.715 49.387L255.495 48.412ZM268.192 52.078C267.438 51.636 266.164 50.908 264.513 50.219C265.02 49.699 265.878 48.724 266.502 46.735H268.803V45.708H261.757C262.225 44.759 262.394 44.33 262.537 43.979L261.341 43.758C261.185 44.213 260.964 44.824 260.509 45.708H256.817V46.735H259.95C259.235 47.97 258.598 48.724 258.208 49.179C260.236 49.738 261.393 50.128 262.446 50.544C260.821 51.441 258.871 51.766 257.129 51.922L257.506 53.066C260.886 52.715 262.888 51.532 263.603 51.012C265.735 51.935 266.892 52.702 267.477 53.092L268.192 52.078ZM265.358 46.735C265.215 47.164 264.721 48.659 263.473 49.803C262.173 49.309 260.873 48.932 259.937 48.659C260.197 48.321 260.574 47.827 261.198 46.735H265.358ZM257.129 42.198V45.032H258.234V43.199H267.399V45.032H268.504V42.198H263.343V41.028H262.225V42.198H257.129ZM276.3 45.721C275.572 45.721 274.961 46.306 274.961 47.06C274.961 47.788 275.546 48.399 276.3 48.399C277.054 48.399 277.639 47.775 277.639 47.06C277.639 46.332 277.041 45.721 276.3 45.721ZM284.408 47.476C284.694 46.41 284.811 44.72 284.824 43.823L283.992 43.745C283.992 44.395 283.914 45.89 283.55 47.06L284.408 47.476ZM285.357 41.028V53.092H286.41V41.028H285.357ZM287.996 45.37C287.931 45.149 287.645 44.148 287.32 43.407L286.54 43.719C286.813 44.395 287.021 45.162 287.125 45.708L287.996 45.37ZM295.419 45.604H294.392V51.883H288.88V45.604H287.853V52.819H295.419V45.604ZM292.676 45.227C292.377 46.215 292.104 46.748 291.766 47.385C291.116 46.722 290.726 46.358 290.141 45.916L289.465 46.579C290.245 47.216 290.674 47.645 291.246 48.243C290.661 49.114 290.154 49.751 289.231 50.492L289.946 51.233C291.09 50.245 291.545 49.621 291.948 49.036C292.351 49.491 292.663 49.881 293.235 50.739L294.002 50.05C293.638 49.491 293.313 49.036 292.507 48.165C292.884 47.502 293.222 46.865 293.599 45.63L292.676 45.227ZM292.312 43.706C292 42.497 291.428 41.366 291.272 41.054L290.31 41.327C290.388 41.483 291.051 42.861 291.311 44.018L292.312 43.706ZM294.223 44.85C294.86 43.966 295.497 42.653 295.796 41.691L294.821 41.262C294.665 41.717 294.197 43.134 293.326 44.395L294.223 44.85ZM289.868 44.213C289.543 43.355 288.984 42.341 288.438 41.6L287.541 41.977C288.113 42.796 288.607 43.81 288.906 44.577L289.868 44.213ZM303.501 52.637C306.27 51.649 306.933 49.478 307.245 48.204C307.895 48.49 308.116 48.607 308.701 48.958L309.091 47.788C308.285 47.346 307.531 47.06 307.492 47.047C307.687 46.007 307.791 44.876 307.882 43.94L306.647 43.849C306.621 44.447 306.556 45.37 306.361 46.644C305.178 46.254 304.32 46.046 303.228 45.955C303.657 43.394 303.696 43.108 303.865 41.808H298.483V42.939L302.552 42.9C302.474 43.823 302.305 44.98 302.123 45.916C297.872 46.085 297.638 48.88 297.638 49.517C297.638 50.908 298.548 51.74 299.796 51.74C301.759 51.74 302.331 49.881 303.033 46.982C304.203 47.086 305.308 47.424 306.153 47.749C305.698 49.634 305.022 50.934 302.786 51.74L303.501 52.637ZM301.928 46.917C301.239 49.738 300.888 50.713 299.718 50.713C298.73 50.713 298.665 49.699 298.665 49.452C298.665 48.568 299.198 47.723 300.043 47.307C300.615 47.021 301.161 46.943 301.928 46.917ZM316.77 45.721C316.042 45.721 315.431 46.306 315.431 47.06C315.431 47.788 316.016 48.399 316.77 48.399C317.524 48.399 318.109 47.775 318.109 47.06C318.109 46.332 317.511 45.721 316.77 45.721ZM324.215 42.146V43.16H327.114V44.486H328.167V43.16H332.327V44.486H333.367V43.16H336.305V42.146H333.367V41.015H332.327V42.146H328.167V41.015H327.114V42.146H324.215ZM336.305 45.318H330.767V43.888H329.688V45.318H324.215V46.319H329.688V47.996H325.528V52.845H334.966V47.996H330.767V46.319H336.305V45.318ZM333.887 51.896H326.607V48.958H333.887V51.896ZM346.285 46.319C346.194 46.254 346.077 46.163 345.999 46.111C346.298 45.968 347.637 45.344 348.807 44.395V43.706H341.319V44.486H347.052C346.35 45.006 345.986 45.214 345.206 45.604C345.011 45.474 344.309 45.058 343.594 44.733L342.97 45.435C343.828 45.786 344.309 46.033 344.699 46.319H341.553V53.105H342.567V50.947H344.855V53.066H345.856V50.947H348.287V51.766C348.287 52 348.17 52.039 347.988 52.039H346.909L347.104 53.105H348.391C349.288 53.105 349.288 52.455 349.288 52.065V46.319H346.285ZM344.855 48.204H342.567V47.151H344.855V48.204ZM344.855 50.128H342.567V49.01H344.855V50.128ZM348.287 48.204H345.856V47.151H348.287V48.204ZM348.287 50.128H345.856V49.01H348.287V50.128ZM339.733 46.631C339.733 46.93 339.72 47.112 339.707 47.294C339.59 47.372 338.641 47.892 337.614 48.282L337.874 49.348C338.329 49.114 338.771 48.893 339.629 48.373C339.395 50.323 339.018 51.337 338.095 52.416L338.953 53.144C339.538 52.442 340.747 50.999 340.747 46.423V42.978H349.73V42.055H344.972V41.002H343.88V42.055H339.733V46.631ZM339.434 45.409C339.265 44.733 338.914 43.771 338.537 43.069L337.679 43.537C337.978 44.122 338.355 45.11 338.537 45.851L339.434 45.409ZM5.603 62.757C5.785 62.107 5.85 61.808 5.928 61.353L4.68 61.301C4.589 62.042 4.498 62.419 4.407 62.757H1.417V63.797H4.095C3.263 66.228 2.223 67.606 1.079 68.685L1.885 69.556C2.301 69.127 3.159 67.983 3.757 67.164C4.667 66.241 5.616 65.838 6.331 65.838C6.929 65.838 7.293 66.098 7.436 66.865C6.149 67.437 3.822 68.607 3.822 70.375C3.822 72.468 6.76 72.468 8.229 72.468C9.464 72.468 10.595 72.39 11.336 72.338L11.297 71.22C10.127 71.35 8.905 71.402 7.865 71.402C6.435 71.402 4.992 71.402 4.992 70.258C4.992 69.192 6.565 68.36 7.566 67.892C7.592 68.23 7.592 68.451 7.592 68.672C7.592 69.14 7.553 69.621 7.527 69.92H8.658C8.697 69.504 8.697 69.114 8.697 68.932C8.697 68.464 8.684 67.905 8.645 67.45C10.075 66.904 10.998 66.618 12.051 66.319L11.739 65.188C10.569 65.591 8.788 66.306 8.489 66.423C8.229 65.188 7.397 64.902 6.513 64.902C5.863 64.902 5.343 65.123 4.433 65.669C4.81 65.019 4.992 64.59 5.291 63.797H11.024V62.757H5.603ZM17.481 62.393C18.248 62.263 18.664 62.159 19.366 61.977L18.976 61.028C17.286 61.483 15.843 61.678 13.945 61.73L14.166 62.705C15.219 62.666 15.752 62.614 16.428 62.536V64.447H13.919V65.409H16.298C15.895 66.332 15.089 68.022 13.75 69.335L14.218 70.57C15.427 69.257 16.077 68.035 16.428 67.255V73.092H17.481V67.008C17.962 67.892 18.456 68.581 19.067 69.179L19.6 68.152C18.534 67.242 17.819 66.098 17.481 65.448V65.409H19.574V64.447H17.481V62.393ZM25.58 61.86H20.042V72.741H25.58V61.86ZM24.514 71.727H21.082V62.848H24.514V71.727ZM36.73 62.276C34.741 61.626 32.518 61.509 31.4 61.457L31.192 62.575C32.947 62.64 34.858 62.887 36.405 63.511L36.73 62.276ZM29.606 63.316C29.437 63.992 29.32 64.707 29.268 65.916C29.255 66.306 29.216 68.256 29.216 68.698L30.373 68.737C30.386 68.672 30.399 68.633 30.438 68.503C31.296 67.372 33.038 66.631 34.78 66.631C36.496 66.631 37.185 67.567 37.185 68.581C37.185 69.114 37.042 69.725 36.678 70.115C35.898 70.973 34.338 71.324 32.544 71.324C31.673 71.324 30.88 71.246 30.009 71.09L30.139 72.234C30.672 72.312 31.439 72.416 32.635 72.416C35.417 72.416 38.42 71.714 38.42 68.594C38.42 67.515 37.861 65.578 34.845 65.578C33.155 65.578 31.699 66.124 30.373 67.177C30.373 65.266 30.477 64.512 30.776 63.524L29.606 63.316ZM45.787 72.65C48.543 72.117 50.142 71.168 50.142 66.982C50.142 66.761 50.116 65.877 50.103 65.526H52.417V64.434H50.038C50.012 64.031 49.908 62.146 49.869 61.639L48.751 61.665C48.79 62.354 48.855 63.849 48.881 64.434H44.5V65.526H48.92C48.933 65.929 48.946 66.54 48.946 66.813C48.946 70.362 47.854 71.116 45.358 71.597L45.787 72.65ZM50.077 61.106C50.493 62.055 50.714 62.848 50.87 63.797L51.806 63.459C51.559 62.419 51.403 61.795 50.948 60.807L50.077 61.106ZM51.845 60.768C52.261 61.717 52.443 62.354 52.638 63.446L53.574 63.108C53.275 61.873 53.171 61.444 52.716 60.456L51.845 60.768ZM42.251 61.665C41.991 63.602 41.861 65.552 41.861 67.502C41.861 69.114 41.926 70.739 42.264 72.325L43.473 72.169C43.122 70.531 43.031 68.893 43.031 67.385C43.031 64.681 43.33 62.757 43.499 61.743L42.251 61.665ZM61.37 62.939V61.574H60.226V62.939H55.286V63.94H60.226V65.552H55.481V66.54H60.226V68.074C59.953 68.022 59.511 67.944 58.926 67.944C56.989 67.944 55.65 68.932 55.65 70.297C55.65 71.129 56.196 72.481 58.731 72.481C59.823 72.481 61.37 72.13 61.37 70.271V69.53C62.085 69.855 63.229 70.453 64.49 71.844L65.257 70.726C63.892 69.582 62.748 68.867 61.37 68.36V66.54H65.27V65.552H61.37V63.94H65.517V62.939H61.37ZM60.226 70.037C60.226 71.064 59.719 71.467 58.588 71.467C56.872 71.467 56.742 70.505 56.742 70.258C56.742 69.4 57.717 68.906 58.926 68.906C59.589 68.906 59.966 69.01 60.226 69.088V70.037ZM75.991 62.9V61.444H74.795L74.821 62.9H68.425V63.979H74.834L74.847 65.383C74.574 65.149 74.262 64.863 73.391 64.863C71.779 64.863 70.7 65.981 70.7 67.502C70.7 68.763 71.506 70.05 73.118 70.05C74.613 70.05 75.042 69.075 75.172 68.802C75.003 70.349 74.041 71.545 70.57 71.506L70.934 72.598C73.196 72.507 76.238 71.883 76.238 68.451C76.238 68.113 76.212 67.775 76.16 67.45C76.121 67.138 76.056 66.839 75.991 66.592V63.979H79.397V62.9H75.991ZM74.873 67.593C74.873 68.451 74.197 69.101 73.274 69.101C72.065 69.101 71.792 67.996 71.792 67.45C71.792 66.254 72.702 65.838 73.417 65.838C74.561 65.838 74.769 66.605 74.873 67.021V67.593ZM83.813 68.789C82.747 68.789 81.876 69.647 81.876 70.726C81.876 71.792 82.734 72.663 83.813 72.663C84.879 72.663 85.75 71.792 85.75 70.726C85.75 69.634 84.866 68.789 83.813 68.789ZM83.813 69.439C84.502 69.439 85.087 69.998 85.087 70.726C85.087 71.428 84.515 72 83.813 72C83.098 72 82.526 71.428 82.526 70.726C82.526 70.011 83.111 69.439 83.813 69.439Z" fill="black"/>
</svg>
