<svg width="200" height="14" viewBox="0 0 200 14" fill="none" xmlns="http://www.w3.org/2000/svg">
<path d="M3.19 5.14L2.13 4.68C1.8 5.4 1 6.67 0.09 7.27L0.53 8.72C0.75 8.56 0.88 8.46 1.17 8.18V11.91H2.35V6.72C2.55 6.42 2.86 5.96 3.19 5.16V6.06C3.19 9.2 2.78 10.08 2.4 10.73L3.24 11.84C4.05 10.7 4.33 8.61 4.33 6.29V5.58H6.16V6.16H4.59V11.76H9.27V6.16H7.33V5.58H9.71V4.58H7.33V3.85C8.54 3.7 8.87 3.63 9.45 3.46L8.91 2.42C7.85 2.76 5.34 3.04 3.19 3.01V5.14ZM8.13 9.24H5.71V8.58H8.13V9.24ZM8.13 7.72H5.71V7.07H8.13V7.72ZM8.13 10.85H5.71V10.1H8.13V10.85ZM4.33 4.07C5.23 4.03 5.52 4.01 6.16 3.96V4.58H4.33V4.07ZM1.93 2.41C1.6 3.07 0.89 3.89 0.08 4.38L0.6 5.6C2.04 4.69 2.85 3.2 3.07 2.79L1.93 2.41ZM13.68 2.77V5.21H19.85V2.77H13.68ZM17.13 3.59V4.4H16.37V3.59H17.13ZM15.5 3.59V4.4H14.74V3.59H15.5ZM18.8 3.59V4.4H17.99V3.59H18.8ZM18.43 7.67V8.36H15.02V7.67H18.43ZM19.58 6.89H13.88V9.13H15.26C14.41 9.79 13.65 10.22 12.34 10.63L12.95 11.74C13.88 11.37 14.52 11.01 15.42 10.33V11.91H16.62V9.72C17.67 11.07 19.12 11.72 19.62 11.95L20.17 10.9C19.72 10.72 19.48 10.6 19.21 10.46C19.84 9.97 20.06 9.68 20.18 9.53L19.58 9.1V6.89ZM19.14 9.13C18.9 9.38 18.64 9.62 18.29 9.89C17.83 9.57 17.57 9.33 17.37 9.13H19.14ZM10.66 11.03C11.66 10.77 12.68 10.37 13.46 10.01L13.4 8.89C13.18 8.98 12.99 9.05 12.6 9.17V7.2H13.19V6.03H12.6V4.11H13.39V2.93H10.66V4.11H11.43V6.03H10.77V7.2H11.43V9.5C11.03 9.6 10.83 9.64 10.52 9.71L10.66 11.03ZM13.36 5.57V6.52H20.08V5.57H13.36ZM23.77 8.42C23.92 8.32 24.43 7.95 24.96 7.36H26.51C27.01 7.91 27.31 8.15 27.69 8.42H26.1V11.71H29.81V9.51C29.88 9.53 30.02 9.59 30.12 9.62L30.61 8.5C29.19 8.15 28.62 7.76 28.13 7.36H30.44V6.29H25.69C25.8 6.07 25.85 5.95 25.96 5.67L25.16 5.51H25.25V2.77H21.6V5.51H24.72C24.59 5.85 24.47 6.05 24.32 6.29H21.08V7.36H23.32C22.41 8.06 21.49 8.34 20.98 8.5L21.4 9.65C21.57 9.59 21.62 9.57 21.7 9.54V11.71H25.3V8.42H23.77ZM24.15 4.58H22.7V3.73H24.15V4.58ZM28.72 10.73H27.2V9.36H28.72V10.73ZM24.22 10.73H22.79V9.36H24.22V10.73ZM26.18 2.77V5.51H29.93V2.77H26.18ZM28.82 4.58H27.29V3.73H28.82V4.58ZM33.83 9.48C34.55 9.02 35.65 7.98 36.16 6.53C36.59 7.74 37.23 8.6 38.44 9.49L39.13 8.51V10.39C39.13 10.59 39.02 10.63 38.87 10.63H37.45L37.66 11.9H39.49C40.3 11.9 40.38 11.26 40.38 11V3.85H36.79V2.48H35.52V3.85H31.9V11.9H33.15V8.5L33.83 9.48ZM35.42 5.05C35.15 6.41 34.32 7.6 33.15 8.34V5.05H35.42ZM39.13 8.36C37.29 7.11 36.97 5.8 36.85 5.05H39.13V8.36ZM45.71 8.73L45.86 9.96L49.13 9.29V11.91H50.4V9.03L51.32 8.84L51.2 7.6L50.4 7.77V2.49H49.13V8.03L45.71 8.73ZM43.4 5.1H41.8V6.25H43.28C42.84 7.21 42.27 8.1 41.57 8.7L42.04 10.22C42.36 9.8 42.83 9.18 43.4 8.05V11.91H44.58V8C44.72 8.29 44.85 8.5 45.21 8.98L45.87 7.87C45.49 7.52 45.03 7.07 44.58 6.33V6.25H45.73V5.1H44.58V3.87C45.37 3.76 45.59 3.7 45.9 3.61L45.43 2.45C44.29 2.81 42.58 2.92 41.74 2.92L41.93 4.04C42.25 4.04 42.57 4.03 43.4 3.98V5.1ZM46.44 3.73C47.25 4.27 47.53 4.54 48.14 5.23L48.98 4.28C48.5 3.71 47.87 3.2 47.17 2.85L46.44 3.73ZM45.92 6.26C46.47 6.6 47.15 7.12 47.64 7.71L48.49 6.78C47.95 6.2 47.5 5.84 46.69 5.37L45.92 6.26Z" fill="black"/>
</svg>
