<svg width="247" height="40" viewBox="0 0 247 40" fill="none" xmlns="http://www.w3.org/2000/svg">
<path d="M1.888 1.824V3.84H9.808C9.248 5.36 8.4 7.072 6.672 8.944C4.96 10.8 3.328 11.92 1.008 12.912L2.224 14.688C4.656 13.616 6.944 11.744 8.448 10.064C10.832 12.144 12.192 13.632 13.168 14.72L14.96 12.992C13.056 11.104 12.192 10.4 9.76 8.48C10.784 7.056 11.968 5.072 12.624 1.824H1.888ZM19.672 8.192C20.76 9.008 23.784 11.28 26.12 14.544L27.992 13.008C27.176 12.016 26.632 11.424 25.512 10.304C30.216 7.072 31.144 3.968 31.528 2.416H17.8V4.464H28.376C27.384 6.16 26.216 7.44 24.024 8.928C22.68 7.76 21.832 7.152 21.288 6.768L19.672 8.192ZM34.336 6.8V9.024H48.064V6.8H34.336ZM64.312 8.224C62.904 7.456 60.344 6.032 56.744 4.896V1.056H54.44V14.72H56.744V7.12C59.32 8.128 60.888 8.96 63.192 10.448L64.312 8.224ZM68.24 2.08V4.176H78.256C77.76 7.808 76.336 11.328 69.456 12.624L70.384 14.624C79.68 12.736 80.432 6.208 80.688 2.08H68.24ZM90.952 7.584C89.448 9.568 87.48 11.168 85.192 12.176L86.264 13.76C87.56 13.104 89.752 11.728 91.576 9.296L91.608 12.592C91.608 13.056 91.496 13.12 91.08 13.12C90.68 13.12 89.544 13.04 89.128 13.008L89.416 14.816C89.704 14.832 90.504 14.88 90.952 14.88C91.784 14.88 93.48 14.88 93.464 12.848L93.416 7.584H96.392V5.76H93.4L93.368 3.68H91.512L91.528 5.76H85.656V7.584H90.952ZM107.328 4.176C105.152 2.864 103.36 2.272 102.192 1.92L101.216 3.76C103.824 4.608 105.472 5.664 106.176 6.144L107.328 4.176ZM102 14.464C109.44 13.648 112.736 9.888 114.64 3.984L112.768 2.672C110.72 10.176 106.272 11.76 101.52 12.144L102 14.464ZM127.624 8.448H120.712V13.952H126.92L127.144 15.488H129.88C130.424 15.488 131.256 15.424 131.256 13.952V0.976H124.824V7.328H129.352V13.072C129.352 13.344 129.304 13.504 128.936 13.504H127.624V8.448ZM129.352 2.528V3.536H126.728V2.528H129.352ZM129.352 4.752V5.824H126.728V4.752H129.352ZM125.8 10.08V12.256H122.536V10.08H125.8ZM117.144 15.488H119.08V7.328H123.464V0.976H117.144V15.488ZM121.56 2.528V3.536H119.096V2.528H121.56ZM121.56 4.752V5.824H119.096V4.752H121.56ZM137.152 13.6H135.472V11.808H137.152V13.6ZM133.664 7.856V9.472H138.736V7.856H133.664ZM133.664 5.424V7.072H138.736V5.424H133.664ZM133.664 10.24V15.216H138.736V10.24H133.664ZM142.528 0.4C141.472 2.08 140.208 3.232 139.12 3.936V3.072H133.216V4.72H138.768L139.632 5.968C140.848 5.216 142.704 3.552 143.52 2.128C143.984 2.944 145.216 4.992 147.552 6.48L148.608 4.624C146.272 3.12 145.184 1.6 144.496 0.4H142.528ZM133.664 0.751999V2.384H138.736V0.751999H133.664ZM143.616 4.384C142.208 5.744 141.248 6.4 139.36 7.184L140.32 8.688C142.288 7.824 143.6 6.88 144.928 5.616L143.616 4.384ZM147.216 9.536C145.168 11.856 141.984 13.28 139.152 13.616L140.08 15.456C144.8 14.448 147.328 12.096 148.512 10.896L147.216 9.536ZM145.456 6.944C143.808 8.624 141.6 9.776 139.344 10.384L140.384 12.08C141.632 11.664 144.432 10.672 146.784 8.208L145.456 6.944ZM156.792 2.368C156.936 1.792 157.016 1.488 157.128 0.879999L154.92 0.768C154.824 1.408 154.76 1.744 154.616 2.368H151.112V4.176H154.072C153.176 6.608 152.056 8.176 150.552 9.632L151.992 11.12C152.6 10.512 153.832 8.816 154.168 8.336C155.496 7.024 156.536 6.864 156.984 6.864C157.88 6.864 158.056 7.328 158.168 7.616C156.68 8.32 153.96 9.664 153.96 11.84C153.96 14.592 157.512 14.672 159.768 14.672C160.792 14.672 162.072 14.624 163.336 14.56L163.304 12.56C161.528 12.768 159.512 12.768 159.224 12.768C157.496 12.768 156.12 12.768 156.12 11.6C156.12 10.88 156.792 10.176 158.44 9.424C158.456 9.792 158.472 10.464 158.392 11.392H160.408C160.424 11.12 160.44 10.752 160.44 10.224C160.44 9.456 160.392 8.96 160.376 8.624C162.168 8 163.384 7.696 164.232 7.504L163.8 5.52C162.936 5.76 162.04 6.08 160.04 6.832C159.688 5.84 159.016 5.2 157.56 5.2C156.792 5.2 156.392 5.392 155.384 5.904C155.736 5.28 155.912 4.912 156.2 4.176H162.936V2.368H156.792ZM169.632 4.544H166.4V6.448H169.376C168.56 8.112 167.552 9.552 166.224 10.768L167.024 13.104C167.744 12.32 168.72 11.232 169.632 9.36V15.488H171.568V9.2C172.176 10.32 172.816 11.088 173.104 11.44L174.128 9.728C172.688 8.32 171.792 6.704 171.648 6.448H174.208V4.544H171.568V2.592C173.024 2.416 173.648 2.256 174.336 2.064L173.696 0.271999C171.376 0.976 166.8 1.104 166.48 1.104L166.736 2.928C167.36 2.896 168.96 2.8 169.632 2.768V4.544ZM175.104 1.568V12.048H177.104V1.568H175.104ZM178.992 0.351999V12.928C178.992 13.248 178.896 13.36 178.496 13.36H176.032L176.416 15.488H179.312C179.76 15.488 181.008 15.344 181.008 13.792V0.351999H178.992ZM197.32 1.024H184.488V8.736C184.488 11.024 183.848 12.592 183 13.824L184.648 15.424C185.48 14.272 186.024 12.944 186.264 10.72H189.816V15.344H191.688V10.72H195.304V13.072C195.304 13.44 195.112 13.472 194.904 13.472H193.32L193.592 15.488H195.576C196.44 15.488 197.32 15.216 197.32 13.92V1.024ZM189.816 4.992H186.424V2.928H189.816V4.992ZM195.304 4.992H191.688V2.928H195.304V4.992ZM189.816 8.88H186.424V6.816H189.816V8.88ZM195.304 8.88H191.688V6.816H195.304V8.88ZM209.376 6.304C210.128 7.312 210.544 8.08 211.088 9.36L212.4 8.592C211.824 7.392 211.328 6.48 210.608 5.584L209.376 6.304ZM211.632 5.248C212.416 6.288 212.816 7.008 213.376 8.288L214.688 7.552C214.08 6.32 213.616 5.488 212.864 4.56L211.632 5.248ZM213.824 1.728C210.576 1.792 207.52 1.872 203.632 2.128C201.92 2.24 201.376 2.272 200.32 2.272L200.464 4.576C201.904 4.4 205.68 4.112 207.296 4C205.872 4.912 203.392 6.848 203.392 9.696C203.392 14.464 209.168 14.544 212.192 14.608L212.528 12.304C212.24 12.32 211.968 12.336 211.488 12.336C206.64 12.336 205.6 11.168 205.6 9.584C205.6 7.104 208.448 4.688 210.656 4.032C211.216 3.856 211.824 3.824 212.448 3.824C212.816 3.824 213.264 3.84 213.888 3.872L213.824 1.728ZM230.2 5.584C228.904 5.904 227.528 6.048 225.816 6.144C225.64 5.68 225.496 5.04 225.416 4.624C226.6 4.56 228.072 4.432 229.24 4.208L229.048 2.336C227.704 2.608 226.472 2.72 225.112 2.8C225.048 2.304 224.984 1.712 224.968 1.04L222.744 1.088C222.776 1.696 222.824 2 222.92 2.88H217.752V4.72H222.632C222.84 4.72 222.888 4.72 223.24 4.704C223.416 5.52 223.592 6.128 223.624 6.208C223.384 6.224 223.144 6.208 222.904 6.208H217.176V8H223.368C223.48 8 223.864 8 224.232 7.984C224.536 8.736 225.064 10.016 226.12 11.2L227.992 10C227.608 9.568 227.08 8.928 226.552 7.888C228.12 7.776 229.224 7.664 230.456 7.424L230.2 5.584ZM219.592 9.216C218.68 10.208 218.456 10.928 218.456 11.616C218.456 12.768 219.352 13.632 220.216 14.032C220.872 14.32 221.768 14.704 225.304 14.688C227.368 14.688 228.136 14.624 228.888 14.576L228.808 12.496C228.008 12.576 226.76 12.688 224.776 12.688C222.52 12.688 220.616 12.48 220.616 11.28C220.616 10.96 220.776 10.608 221.272 10.048L219.592 9.216ZM244.144 1.344C240.352 1.504 238.8 1.52 235.296 1.504V3.568C237.328 3.536 238.96 3.456 240.672 3.344C237.008 6.56 234.208 8.704 233.552 9.184L234.752 10.976C237.184 8.672 239.008 7.328 241.488 7.328C243.632 7.328 244.624 8.4 244.624 9.872C244.624 10.688 244.272 11.632 243.344 12.208C242.704 10.304 240.944 9.44 239.488 9.44C237.792 9.44 236.528 10.528 236.528 11.936C236.528 13.36 237.856 14.736 240.816 14.736C244.24 14.736 246.72 12.88 246.72 9.808C246.72 6.656 244.256 5.6 242.352 5.6C241.808 5.6 241.072 5.712 240.32 5.92C241.584 4.928 243.28 3.6 244.144 3.008V1.344ZM241.648 12.96C241.504 12.992 241.168 13.072 240.624 13.072C239.28 13.072 238.384 12.592 238.384 11.84C238.384 11.504 238.784 11.088 239.44 11.088C240.544 11.088 241.248 11.792 241.648 12.96ZM0.768 26.064C1.936 26.736 3.232 27.856 3.984 28.72L5.376 26.976C4.192 25.744 2.992 24.992 2.032 24.448L0.768 26.064ZM0.496 32.336H2.528V35.6C1.888 36.272 0.448 37.184 0.32 37.264L1.2 39.376C1.584 39.072 2.752 38.176 3.616 37.024C4.432 39.04 6.832 39.056 8.64 39.056H15.312L15.76 37.12H8.96C7.088 37.12 4.848 37.12 4.496 35.136V30.448H0.496V32.336ZM14.096 24.192C12.032 24.96 8.944 25.264 6.496 25.264V30.56C6.496 33.344 5.6 34.56 5.2 35.088L6.864 36.384C8.256 34.448 8.464 32.224 8.464 30.784V30.496H10.88V36.608H12.864V30.496H15.488V28.64H8.464V26.928C9.744 26.864 12.576 26.656 15.168 25.984L14.096 24.192ZM30.136 37.344C28.6 36.032 25.48 34.144 23.624 33.136C21.768 32.144 21.56 32.032 21.56 31.776C21.56 31.536 22.04 31.184 22.424 30.912C25.096 28.976 26.776 27.776 28.696 25.952L26.392 24.736C25.176 25.952 24.552 26.576 20.808 29.584C19.512 30.624 18.92 31.168 18.92 31.936C18.92 32.592 19.368 33.04 20.36 33.664C25 36.608 25.992 37.248 28.024 38.96L30.136 37.344ZM41.728 38.624C43.344 38.464 44.96 37.984 46.08 37.04C47.68 35.696 48.288 33.712 48.288 31.824C48.288 28.544 46.368 25.44 41.6 25.44C37.552 25.44 34.096 28.048 34.096 32.656C34.096 35.056 35.232 37.344 37.264 37.344C40.56 37.344 41.904 31.824 42.176 27.456C44.688 27.632 46.032 29.232 46.032 31.728C46.032 35.616 43.056 36.384 41.04 36.576L41.728 38.624ZM40.112 27.568C39.616 33.36 38.208 35.04 37.36 35.04C36.4 35.04 36.16 33.456 36.16 32.704C36.16 30.064 37.664 28.096 40.112 27.568ZM59.64 31.216C59.72 30.672 59.736 30.368 59.736 29.808H63.848V28.096H56.952C57.128 27.76 57.256 27.456 57.432 27.056L55.48 26.784C55.16 27.712 54.44 28.768 53.096 29.808L54.584 31.136C55.112 30.656 55.384 30.368 55.832 29.808H57.864C57.864 30.16 57.864 30.608 57.768 31.216H53.4V32.928H57.208C56.776 33.632 55.96 34.624 53.288 35.088L54.36 36.864C56.696 36.128 58.008 35.088 58.808 33.712C59.368 34.736 60.456 36.048 63.72 36.928L64.728 35.104C63.192 34.864 61.192 34.272 60.28 32.928H64.36V31.216H59.64ZM50.824 24.848V39.056H65.272V37.2H52.808V26.72H64.92V24.848H50.824ZM71.84 36.112H75.168V37.472C75.168 37.68 75.152 37.744 74.88 37.744H73.504L73.888 39.424H75.888C76.24 39.424 77.072 39.424 77.072 38.368V36.112H80.432V32.944C80.816 33.152 80.912 33.2 81.248 33.36L82.048 31.76C81.616 31.632 81.264 31.52 80.752 31.232C81.264 30.72 81.52 30.416 81.68 30.224L80.464 29.504C80.128 29.984 79.968 30.192 79.664 30.512C79.024 30 78.816 29.728 78.528 29.376H81.856V28H76.432C76.528 27.792 76.592 27.648 76.736 27.28L75.104 27.056H81.888V25.456H76.208V24.32H74.176V25.456H68.912V28.816C68.56 27.632 68.208 26.96 67.984 26.528L66.624 27.536C67.008 28.4 67.28 29.152 67.584 30.544L68.912 29.648V30.576C68.912 31.168 68.912 31.616 68.88 32.16C68.192 32.416 68.048 32.464 66.688 32.848L67.008 34.88C67.536 34.672 67.936 34.512 68.704 34.112C68.448 35.936 67.92 37.04 66.976 38.224L68.56 39.488C70.48 36.896 70.656 33.76 70.72 32.192L71.376 33.376C71.6 33.216 71.728 33.168 71.84 33.088V36.112ZM78.672 32.16V32.944H73.616V32.16H78.672ZM74.448 30.944C74.736 30.608 75.2 30.112 75.664 29.376H76.656C76.928 29.808 77.264 30.32 77.872 30.944H74.448ZM78.672 34.08V34.896H73.616V34.08H78.672ZM71.008 30.4C71.312 30.656 71.424 30.752 71.76 31.12C71.536 31.264 71.264 31.44 70.736 31.696V27.056H74.912C74.784 27.536 74.656 27.808 74.576 28H71.104V29.376H73.712C73.52 29.616 73.248 29.936 72.8 30.336C72.416 29.92 72.176 29.728 71.952 29.552L71.008 30.4ZM72.8 36.128C72.304 36.592 71.568 37.232 69.76 37.728L70.736 39.312C71.552 38.992 72.928 38.32 74.08 37.184L72.8 36.128ZM82.128 37.776C80.912 37.424 80.064 36.992 79.056 36.144L77.856 37.312C79.216 38.496 80.688 39.152 81.12 39.344L82.128 37.776ZM92.408 35.648C92.072 35.424 91.384 34.944 90.072 34.528C90.088 34.24 90.088 34.064 90.088 33.712H92.568C92.888 35.296 93.208 36.176 93.368 36.576C92.04 37.376 91.048 37.664 90.44 37.84L91.16 39.44C91.784 39.264 92.744 38.976 94.072 38.16C94.568 38.88 95.24 39.504 96.408 39.504C97.752 39.504 98.296 38.368 98.712 37.312L97.56 35.872C97.272 36.688 96.92 37.216 96.792 37.408C96.712 37.52 96.568 37.664 96.392 37.664C95.992 37.664 95.704 37.232 95.576 37.04C96.856 35.888 97.384 34.992 97.656 34.512L96.088 33.856C95.8 34.32 95.48 34.8 94.84 35.424C94.696 34.944 94.52 34.24 94.408 33.712H98.552V32.016H96.472L97.208 31.536C96.712 31.008 96.616 30.912 96.28 30.64C96.568 30.608 97.112 30.544 97.368 30.512C97.4 30.704 97.432 30.8 97.496 31.152L98.728 30.736C98.472 29.824 98.232 28.944 97.864 28.208L96.744 28.56C96.872 28.816 96.904 28.896 97.048 29.328C96.872 29.344 95.8 29.408 95.56 29.424C96.648 28.24 97.16 27.568 98.104 26.176L96.904 25.648C96.648 26.064 96.568 26.16 95.912 27.056C95.736 26.848 95.608 26.704 95.432 26.528C95.656 26.24 96.216 25.504 96.68 24.688L95.352 24.304C95.224 24.56 95.144 24.736 94.552 25.632L94.296 25.408L93.592 26.368C93.56 25.664 93.56 25.024 93.56 24.384H91.752C91.752 25.376 91.752 25.792 91.768 26.272L90.696 25.68C90.488 26.032 90.328 26.32 89.736 27.088C89.56 26.864 89.4 26.704 89.24 26.512C89.88 25.792 90.232 25.2 90.52 24.736L89.176 24.32C89.016 24.656 88.904 24.88 88.312 25.696C88.216 25.616 88.072 25.504 87.992 25.44L87.176 26.624C87.528 26.944 88.056 27.392 88.808 28.256C88.408 28.752 87.864 29.424 87.56 29.744H87.32L87.496 31.12C88.264 31.056 89.88 30.928 90.68 30.832C90.712 31.056 90.744 31.152 90.776 31.456L92.008 31.088C91.928 30.656 91.72 29.616 91.24 28.56L90.104 28.896C90.216 29.136 90.264 29.264 90.392 29.68C90.184 29.696 89.416 29.728 89.16 29.728C90.04 28.8 91.416 26.992 91.784 26.48C91.848 28.448 92.024 30.304 92.28 32.016H87.976C87.464 31.36 87.032 30.72 86.696 30V29.024H87.656V27.184H86.696V24.384H84.904V27.184H83.416V29.024H84.824C84.536 30.608 84.056 32.16 83.224 33.536L83.976 36.24C84.264 35.696 84.584 35.12 84.904 33.936V39.456H86.696V32.784C87.048 33.504 87.128 33.632 87.336 33.968L87.848 32.624V33.712H88.312C88.264 35.824 88.088 36.768 87.24 38.176L88.616 39.472C89.112 38.832 89.656 38.016 89.928 36.096C90.84 36.528 91.304 36.928 91.624 37.2L92.408 35.648ZM94.792 31.104C94.968 31.248 95.352 31.552 95.816 32.016H94.104C94.072 31.84 93.976 30.992 93.944 30.8C94.152 30.8 95.144 30.72 95.384 30.704L94.792 31.104ZM93.8 29.488C93.72 28.752 93.64 27.856 93.608 26.72C94.2 27.216 94.76 27.856 95.016 28.192C94.424 28.928 94.104 29.296 93.944 29.488H93.8ZM111.024 37.984L111.44 39.456H113.008C114.48 39.456 114.608 38.896 114.608 37.76V24.88H108.256V30.416H112.72V37.04C112.72 37.44 112.688 37.568 112.24 37.568H111.28L111.504 37.2C110.944 36.976 110.208 36.688 109.248 35.76H111.888V34.352H108.272C108.352 33.984 108.368 33.744 108.4 33.392H111.68V32H110.224C110.272 31.888 110.592 31.28 110.704 30.864L108.816 30.672C108.736 30.992 108.576 31.584 108.416 32H106.768C106.672 31.632 106.464 31.072 106.272 30.672L104.448 30.96C104.56 31.152 104.912 31.904 104.976 32H103.632V33.392H106.64C106.64 33.696 106.64 33.936 106.528 34.352H103.312V35.76H105.808C104.752 36.96 103.568 37.328 102.992 37.488L104.016 39.056C106.512 38.128 107.424 36.448 107.648 36.032C107.824 36.336 108.672 37.84 110.56 38.72L111.024 37.984ZM112.72 26.24V27.12H110.096V26.24H112.72ZM112.72 28.224V29.104H110.096V28.224H112.72ZM100.592 39.456H102.48V30.416H106.928V24.88H100.592V39.456ZM105.104 26.24V27.12H102.48V26.24H105.104ZM105.104 28.224V29.104H102.48V28.224H105.104ZM119.16 38.656C120.504 36.048 121.464 32.208 121.912 29.712L123.128 29.696C124.712 29.68 125.128 30.144 125.128 31.968C125.128 33.104 124.936 34.384 124.712 35.216C124.472 36.08 124.248 36.56 123.192 36.56C122.536 36.56 121.88 36.432 121.592 36.368L121.72 38.512C121.96 38.544 122.616 38.624 123.48 38.624C124.888 38.624 125.896 38.192 126.44 36.976C127.048 35.6 127.208 33.376 127.208 32.208C127.208 28.8 126.088 27.712 123.72 27.712H122.28C122.504 26.304 122.552 25.904 122.664 25.04L120.424 24.928C120.344 26.08 120.28 26.688 120.136 27.712H117.496V29.744L119.8 29.728C119.464 31.568 118.52 35.184 117.096 37.696L119.16 38.656ZM131.416 33.424C131.24 30.896 130.6 28.368 128.968 26.416L127.16 27.312C128.552 29.168 129.112 31.488 129.192 33.808L131.416 33.424ZM145.008 25.856C143.248 25.328 141.36 24.96 138.096 24.848L137.728 26.832C141.952 27.056 144.032 27.904 144.48 28.08L145.008 25.856ZM135.84 27.52C135.504 29.536 135.472 30.368 135.424 34.112L137.52 34.192C137.536 34.048 137.552 33.984 137.568 33.792C138.56 32.592 140.464 31.824 142.304 31.824C143.856 31.824 144.752 32.624 144.752 33.776C144.752 35.392 143.616 36.64 139.472 36.64C138.128 36.64 137.024 36.496 136.288 36.4L136.544 38.464C137.104 38.528 138.048 38.624 139.52 38.624C143.92 38.624 146.976 37.44 146.976 33.856C146.976 32.448 146.224 29.936 142.544 29.936C140.704 29.936 139.104 30.48 137.568 31.52C137.616 29.568 137.712 28.8 138 27.728L135.84 27.52ZM154.936 38.544L156.168 39.504C157 37.888 157.48 36.144 157.48 31.968V26.624H162.68V37.104C162.68 37.488 162.648 37.648 162.168 37.648H160.472L160.792 39.456H163.08C164.424 39.456 164.424 38.464 164.424 37.904V24.896H155.752V31.888C155.752 32.96 155.752 35.808 154.936 37.664V34.256H150.296V39.184H154.936V38.544ZM153.352 37.632H152.04V35.792H153.352V37.632ZM150.296 24.896V26.4H154.936V24.896H150.296ZM150.296 29.504V31.088H154.936V29.504H150.296ZM150.296 31.84V33.424H154.936V31.84H150.296ZM157.992 32.848V37.328H162.04V32.848H157.992ZM160.712 35.776H159.352V34.384H160.712V35.776ZM149.864 27.168V28.784H155.304V27.168H149.864ZM160.904 27.008H159.336V27.776H157.88V29.264H159.336V30.432H157.864V31.952H162.28V30.432H160.904V29.264H162.264V27.776H160.904V27.008ZM175.84 27.04C176.768 28.016 177.248 28.688 177.968 29.92L179.152 28.992C178.416 27.824 177.808 26.992 176.976 26.176L175.84 27.04ZM177.968 25.664C178.944 26.72 179.36 27.264 180.128 28.528L181.328 27.632C180.656 26.592 180.016 25.696 179.104 24.832L177.968 25.664ZM181.44 34.736C181.088 34.512 180.464 34.096 179.376 33.2C178.4 32.4 176.352 30.608 175.536 29.824C173.92 28.304 173.296 27.744 172.16 27.744C171.44 27.744 170.944 28.016 170.288 28.56C169.728 29.04 167.232 31.648 166.624 32.176L168.08 34.128C168.976 33.088 169.872 32 170.768 30.928C171.552 30 171.824 29.904 172.08 29.904C172.32 29.904 172.528 30 172.88 30.288C173.312 30.64 173.936 31.28 174.464 31.792C176.736 34.048 178.544 35.824 180.032 36.928L181.44 34.736ZM194.344 25.344C190.552 25.504 189 25.52 185.496 25.504V27.568C187.528 27.536 189.16 27.456 190.872 27.344C187.208 30.56 184.408 32.704 183.752 33.184L184.952 34.976C187.384 32.672 189.208 31.328 191.688 31.328C193.832 31.328 194.824 32.4 194.824 33.872C194.824 34.688 194.472 35.632 193.544 36.208C192.904 34.304 191.144 33.44 189.688 33.44C187.992 33.44 186.728 34.528 186.728 35.936C186.728 37.36 188.056 38.736 191.016 38.736C194.44 38.736 196.92 36.88 196.92 33.808C196.92 30.656 194.456 29.6 192.552 29.6C192.008 29.6 191.272 29.712 190.52 29.92C191.784 28.928 193.48 27.6 194.344 27.008V25.344ZM191.848 36.96C191.704 36.992 191.368 37.072 190.824 37.072C189.48 37.072 188.584 36.592 188.584 35.84C188.584 35.504 188.984 35.088 189.64 35.088C190.744 35.088 191.448 35.792 191.848 36.96Z" fill="black"/>
</svg>
