<svg width="278" height="45" viewBox="0 0 278 45" fill="none" xmlns="http://www.w3.org/2000/svg">
<path d="M2.124 2.302V4.57H11.034C10.404 6.28 9.45 8.206 7.506 10.312C5.58 12.4 3.744 13.66 1.134 14.776L2.502 16.774C5.238 15.568 7.812 13.462 9.504 11.572C12.186 13.912 13.716 15.586 14.814 16.81L16.83 14.866C14.688 12.742 13.716 11.95 10.98 9.79C12.132 8.188 13.464 5.956 14.202 2.302H2.124ZM22.131 9.466C23.355 10.384 26.757 12.94 29.385 16.612L31.491 14.884C30.573 13.768 29.961 13.102 28.701 11.842C33.993 8.206 35.037 4.714 35.469 2.968H20.025V5.272H31.923C30.807 7.18 29.493 8.62 27.027 10.294C25.515 8.98 24.561 8.296 23.949 7.864L22.131 9.466ZM38.628 7.9V10.402H54.072V7.9H38.628ZM72.351 9.502C70.767 8.638 67.887 7.036 63.837 5.758V1.438H61.245V16.81H63.837V8.26C66.735 9.394 68.499 10.33 71.091 12.004L72.351 9.502ZM76.77 2.59V4.948H88.038C87.48 9.034 85.878 12.994 78.138 14.452L79.182 16.702C89.64 14.578 90.486 7.234 90.774 2.59H76.77ZM102.321 8.782C100.629 11.014 98.415 12.814 95.841 13.948L97.047 15.73C98.505 14.992 100.971 13.444 103.023 10.708L103.059 14.416C103.059 14.938 102.933 15.01 102.465 15.01C102.015 15.01 100.737 14.92 100.269 14.884L100.593 16.918C100.917 16.936 101.817 16.99 102.321 16.99C103.257 16.99 105.165 16.99 105.147 14.704L105.093 8.782H108.441V6.73H105.075L105.039 4.39H102.951L102.969 6.73H96.363V8.782H102.321ZM120.744 4.948C118.296 3.472 116.28 2.806 114.966 2.41L113.868 4.48C116.802 5.434 118.656 6.622 119.448 7.162L120.744 4.948ZM114.75 16.522C123.12 15.604 126.828 11.374 128.97 4.732L126.864 3.256C124.56 11.698 119.556 13.48 114.21 13.912L114.75 16.522ZM143.577 9.754H135.801V15.946H142.785L143.037 17.674H146.115C146.727 17.674 147.663 17.602 147.663 15.946V1.348H140.427V8.494H145.521V14.956C145.521 15.262 145.467 15.442 145.053 15.442H143.577V9.754ZM145.521 3.094V4.228H142.569V3.094H145.521ZM145.521 5.596V6.802H142.569V5.596H145.521ZM141.525 11.59V14.038H137.853V11.59H141.525ZM131.787 17.674H133.965V8.494H138.897V1.348H131.787V17.674ZM136.755 3.094V4.228H133.983V3.094H136.755ZM136.755 5.596V6.802H133.983V5.596H136.755ZM154.296 15.55H152.406V13.534H154.296V15.55ZM150.372 9.088V10.906H156.078V9.088H150.372ZM150.372 6.352V8.206H156.078V6.352H150.372ZM150.372 11.77V17.368H156.078V11.77H150.372ZM160.344 0.7C159.156 2.59 157.734 3.886 156.51 4.678V3.706H149.868V5.56H156.114L157.086 6.964C158.454 6.118 160.542 4.246 161.46 2.644C161.982 3.562 163.368 5.866 165.996 7.54L167.184 5.452C164.556 3.76 163.332 2.05 162.558 0.7H160.344ZM150.372 1.096V2.932H156.078V1.096H150.372ZM161.568 5.182C159.984 6.712 158.904 7.45 156.78 8.332L157.86 10.024C160.074 9.052 161.55 7.99 163.044 6.568L161.568 5.182ZM165.618 10.978C163.314 13.588 159.732 15.19 156.546 15.568L157.59 17.638C162.9 16.504 165.744 13.858 167.076 12.508L165.618 10.978ZM163.638 8.062C161.784 9.952 159.3 11.248 156.762 11.932L157.932 13.84C159.336 13.372 162.486 12.256 165.132 9.484L163.638 8.062ZM176.391 2.914C176.553 2.266 176.643 1.924 176.769 1.24L174.285 1.114C174.177 1.834 174.105 2.212 173.943 2.914H170.001V4.948H173.331C172.323 7.684 171.063 9.448 169.371 11.086L170.991 12.76C171.675 12.076 173.061 10.168 173.439 9.628C174.933 8.152 176.103 7.972 176.607 7.972C177.615 7.972 177.813 8.494 177.939 8.818C176.265 9.61 173.205 11.122 173.205 13.57C173.205 16.666 177.201 16.756 179.739 16.756C180.891 16.756 182.331 16.702 183.753 16.63L183.717 14.38C181.719 14.614 179.451 14.614 179.127 14.614C177.183 14.614 175.635 14.614 175.635 13.3C175.635 12.49 176.391 11.698 178.245 10.852C178.263 11.266 178.281 12.022 178.191 13.066H180.459C180.477 12.76 180.495 12.346 180.495 11.752C180.495 10.888 180.441 10.33 180.423 9.952C182.439 9.25 183.807 8.908 184.761 8.692L184.275 6.46C183.303 6.73 182.295 7.09 180.045 7.936C179.649 6.82 178.893 6.1 177.255 6.1C176.391 6.1 175.941 6.316 174.807 6.892C175.203 6.19 175.401 5.776 175.725 4.948H183.303V2.914H176.391ZM190.836 5.362H187.2V7.504H190.548C189.63 9.376 188.496 10.996 187.002 12.364L187.902 14.992C188.712 14.11 189.81 12.886 190.836 10.78V17.674H193.014V10.6C193.698 11.86 194.418 12.724 194.742 13.12L195.894 11.194C194.274 9.61 193.266 7.792 193.104 7.504H195.984V5.362H193.014V3.166C194.652 2.968 195.354 2.788 196.128 2.572L195.408 0.555999C192.798 1.348 187.65 1.492 187.29 1.492L187.578 3.544C188.28 3.508 190.08 3.4 190.836 3.364V5.362ZM196.992 2.014V13.804H199.242V2.014H196.992ZM201.366 0.645999V14.794C201.366 15.154 201.258 15.28 200.808 15.28H198.036L198.468 17.674H201.726C202.23 17.674 203.634 17.512 203.634 15.766V0.645999H201.366ZM221.985 1.402H207.549V10.078C207.549 12.652 206.829 14.416 205.875 15.802L207.729 17.602C208.665 16.306 209.277 14.812 209.547 12.31H213.543V17.512H215.649V12.31H219.717V14.956C219.717 15.37 219.501 15.406 219.267 15.406H217.485L217.791 17.674H220.023C220.995 17.674 221.985 17.368 221.985 15.91V1.402ZM213.543 5.866H209.727V3.544H213.543V5.866ZM219.717 5.866H215.649V3.544H219.717V5.866ZM213.543 10.24H209.727V7.918H213.543V10.24ZM219.717 10.24H215.649V7.918H219.717V10.24ZM235.548 7.342C236.394 8.476 236.862 9.34 237.474 10.78L238.95 9.916C238.302 8.566 237.744 7.54 236.934 6.532L235.548 7.342ZM238.086 6.154C238.968 7.324 239.418 8.134 240.048 9.574L241.524 8.746C240.84 7.36 240.318 6.424 239.472 5.38L238.086 6.154ZM240.552 2.194C236.898 2.266 233.46 2.356 229.086 2.644C227.16 2.77 226.548 2.806 225.36 2.806L225.522 5.398C227.142 5.2 231.39 4.876 233.208 4.75C231.606 5.776 228.816 7.954 228.816 11.158C228.816 16.522 235.314 16.612 238.716 16.684L239.094 14.092C238.77 14.11 238.464 14.128 237.924 14.128C232.47 14.128 231.3 12.814 231.3 11.032C231.3 8.242 234.504 5.524 236.988 4.786C237.618 4.588 238.302 4.552 239.004 4.552C239.418 4.552 239.922 4.57 240.624 4.606L240.552 2.194ZM258.975 6.532C257.517 6.892 255.969 7.054 254.043 7.162C253.845 6.64 253.683 5.92 253.593 5.452C254.925 5.38 256.581 5.236 257.895 4.984L257.679 2.878C256.167 3.184 254.781 3.31 253.251 3.4C253.179 2.842 253.107 2.176 253.089 1.42L250.587 1.474C250.623 2.158 250.677 2.5 250.785 3.49H244.971V5.56H250.461C250.695 5.56 250.749 5.56 251.145 5.542C251.343 6.46 251.541 7.144 251.577 7.234C251.307 7.252 251.037 7.234 250.767 7.234H244.323V9.25H251.289C251.415 9.25 251.847 9.25 252.261 9.232C252.603 10.078 253.197 11.518 254.385 12.85L256.491 11.5C256.059 11.014 255.465 10.294 254.871 9.124C256.635 8.998 257.877 8.872 259.263 8.602L258.975 6.532ZM247.041 10.618C246.015 11.734 245.763 12.544 245.763 13.318C245.763 14.614 246.771 15.586 247.743 16.036C248.481 16.36 249.489 16.792 253.467 16.774C255.789 16.774 256.653 16.702 257.499 16.648L257.409 14.308C256.509 14.398 255.105 14.524 252.873 14.524C250.335 14.524 248.193 14.29 248.193 12.94C248.193 12.58 248.373 12.184 248.931 11.554L247.041 10.618ZM274.662 1.762C270.396 1.942 268.65 1.96 264.708 1.942V4.264C266.994 4.228 268.83 4.138 270.756 4.012C266.634 7.63 263.484 10.042 262.746 10.582L264.096 12.598C266.832 10.006 268.884 8.494 271.674 8.494C274.086 8.494 275.202 9.7 275.202 11.356C275.202 12.274 274.806 13.336 273.762 13.984C273.042 11.842 271.062 10.87 269.424 10.87C267.516 10.87 266.094 12.094 266.094 13.678C266.094 15.28 267.588 16.828 270.918 16.828C274.77 16.828 277.56 14.74 277.56 11.284C277.56 7.738 274.788 6.55 272.646 6.55C272.034 6.55 271.206 6.676 270.36 6.91C271.782 5.794 273.69 4.3 274.662 3.634V1.762ZM271.854 14.83C271.692 14.866 271.314 14.956 270.702 14.956C269.19 14.956 268.182 14.416 268.182 13.57C268.182 13.192 268.632 12.724 269.37 12.724C270.612 12.724 271.404 13.516 271.854 14.83ZM0.864 29.572C2.178 30.328 3.636 31.588 4.482 32.56L6.048 30.598C4.716 29.212 3.366 28.366 2.286 27.754L0.864 29.572ZM0.558 36.628H2.844V40.3C2.124 41.056 0.504 42.082 0.36 42.172L1.35 44.548C1.782 44.206 3.096 43.198 4.068 41.902C4.986 44.17 7.686 44.188 9.72 44.188H17.226L17.73 42.01H10.08C7.974 42.01 5.454 42.01 5.058 39.778V34.504H0.558V36.628ZM15.858 27.466C13.536 28.33 10.062 28.672 7.308 28.672V34.63C7.308 37.762 6.3 39.13 5.85 39.724L7.722 41.182C9.288 39.004 9.522 36.502 9.522 34.882V34.558H12.24V41.434H14.472V34.558H17.424V32.47H9.522V30.544C10.962 30.472 14.148 30.238 17.064 29.482L15.858 27.466ZM33.903 42.262C32.175 40.786 28.665 38.662 26.577 37.528C24.489 36.412 24.255 36.286 24.255 35.998C24.255 35.728 24.795 35.332 25.227 35.026C28.233 32.848 30.123 31.498 32.283 29.446L29.691 28.078C28.323 29.446 27.621 30.148 23.409 33.532C21.951 34.702 21.285 35.314 21.285 36.178C21.285 36.916 21.789 37.42 22.905 38.122C28.125 41.434 29.241 42.154 31.527 44.08L33.903 42.262ZM46.944 43.702C48.762 43.522 50.58 42.982 51.84 41.92C53.64 40.408 54.324 38.176 54.324 36.052C54.324 32.362 52.164 28.87 46.8 28.87C42.246 28.87 38.358 31.804 38.358 36.988C38.358 39.688 39.636 42.262 41.922 42.262C45.63 42.262 47.142 36.052 47.448 31.138C50.274 31.336 51.786 33.136 51.786 35.944C51.786 40.318 48.438 41.182 46.17 41.398L46.944 43.702ZM45.126 31.264C44.568 37.78 42.984 39.67 42.03 39.67C40.95 39.67 40.68 37.888 40.68 37.042C40.68 34.072 42.372 31.858 45.126 31.264ZM67.095 35.368C67.185 34.756 67.203 34.414 67.203 33.784H71.829V31.858H64.071C64.269 31.48 64.413 31.138 64.611 30.688L62.415 30.382C62.055 31.426 61.245 32.614 59.733 33.784L61.407 35.278C62.001 34.738 62.307 34.414 62.811 33.784H65.097C65.097 34.18 65.097 34.684 64.989 35.368H60.075V37.294H64.359C63.873 38.086 62.955 39.202 59.949 39.724L61.155 41.722C63.783 40.894 65.259 39.724 66.159 38.176C66.789 39.328 68.013 40.804 71.685 41.794L72.819 39.742C71.091 39.472 68.841 38.806 67.815 37.294H72.405V35.368H67.095ZM57.177 28.204V44.188H73.431V42.1H59.409V30.31H73.035V28.204H57.177ZM80.82 40.876H84.564V42.406C84.564 42.64 84.546 42.712 84.24 42.712H82.692L83.124 44.602H85.374C85.77 44.602 86.706 44.602 86.706 43.414V40.876H90.486V37.312C90.918 37.546 91.026 37.6 91.404 37.78L92.304 35.98C91.818 35.836 91.422 35.71 90.846 35.386C91.422 34.81 91.71 34.468 91.89 34.252L90.522 33.442C90.144 33.982 89.964 34.216 89.622 34.576C88.902 34 88.668 33.694 88.344 33.298H92.088V31.75H85.986C86.094 31.516 86.166 31.354 86.328 30.94L84.492 30.688H92.124V28.888H85.734V27.61H83.448V28.888H77.526V32.668C77.13 31.336 76.734 30.58 76.482 30.094L74.952 31.228C75.384 32.2 75.69 33.046 76.032 34.612L77.526 33.604V34.648C77.526 35.314 77.526 35.818 77.49 36.43C76.716 36.718 76.554 36.772 75.024 37.204L75.384 39.49C75.978 39.256 76.428 39.076 77.292 38.626C77.004 40.678 76.41 41.92 75.348 43.252L77.13 44.674C79.29 41.758 79.488 38.23 79.56 36.466L80.298 37.798C80.55 37.618 80.694 37.564 80.82 37.474V40.876ZM88.506 36.43V37.312H82.818V36.43H88.506ZM83.754 35.062C84.078 34.684 84.6 34.126 85.122 33.298H86.238C86.544 33.784 86.922 34.36 87.606 35.062H83.754ZM88.506 38.59V39.508H82.818V38.59H88.506ZM79.884 34.45C80.226 34.738 80.352 34.846 80.73 35.26C80.478 35.422 80.172 35.62 79.578 35.908V30.688H84.276C84.132 31.228 83.988 31.534 83.898 31.75H79.992V33.298H82.926C82.71 33.568 82.404 33.928 81.9 34.378C81.468 33.91 81.198 33.694 80.946 33.496L79.884 34.45ZM81.9 40.894C81.342 41.416 80.514 42.136 78.48 42.694L79.578 44.476C80.496 44.116 82.044 43.36 83.34 42.082L81.9 40.894ZM92.394 42.748C91.026 42.352 90.072 41.866 88.938 40.912L87.588 42.226C89.118 43.558 90.774 44.296 91.26 44.512L92.394 42.748ZM103.959 40.354C103.581 40.102 102.807 39.562 101.331 39.094C101.349 38.77 101.349 38.572 101.349 38.176H104.139C104.499 39.958 104.859 40.948 105.039 41.398C103.545 42.298 102.429 42.622 101.745 42.82L102.555 44.62C103.257 44.422 104.337 44.098 105.831 43.18C106.389 43.99 107.145 44.692 108.459 44.692C109.971 44.692 110.583 43.414 111.051 42.226L109.755 40.606C109.431 41.524 109.035 42.118 108.891 42.334C108.801 42.46 108.639 42.622 108.441 42.622C107.991 42.622 107.667 42.136 107.523 41.92C108.963 40.624 109.557 39.616 109.863 39.076L108.099 38.338C107.775 38.86 107.415 39.4 106.695 40.102C106.533 39.562 106.335 38.77 106.209 38.176H110.871V36.268H108.531L109.359 35.728C108.801 35.134 108.693 35.026 108.315 34.72C108.639 34.684 109.251 34.612 109.539 34.576C109.575 34.792 109.611 34.9 109.683 35.296L111.069 34.828C110.781 33.802 110.511 32.812 110.097 31.984L108.837 32.38C108.981 32.668 109.017 32.758 109.179 33.244C108.981 33.262 107.775 33.334 107.505 33.352C108.729 32.02 109.305 31.264 110.367 29.698L109.017 29.104C108.729 29.572 108.639 29.68 107.901 30.688C107.703 30.454 107.559 30.292 107.361 30.094C107.613 29.77 108.243 28.942 108.765 28.024L107.271 27.592C107.127 27.88 107.037 28.078 106.371 29.086L106.083 28.834L105.291 29.914C105.255 29.122 105.255 28.402 105.255 27.682H103.221C103.221 28.798 103.221 29.266 103.239 29.806L102.033 29.14C101.799 29.536 101.619 29.86 100.953 30.724C100.755 30.472 100.575 30.292 100.395 30.076C101.115 29.266 101.511 28.6 101.835 28.078L100.323 27.61C100.143 27.988 100.017 28.24 99.351 29.158C99.243 29.068 99.081 28.942 98.991 28.87L98.073 30.202C98.469 30.562 99.063 31.066 99.909 32.038C99.459 32.596 98.847 33.352 98.505 33.712H98.235L98.433 35.26C99.297 35.188 101.115 35.044 102.015 34.936C102.051 35.188 102.087 35.296 102.123 35.638L103.509 35.224C103.419 34.738 103.185 33.568 102.645 32.38L101.367 32.758C101.493 33.028 101.547 33.172 101.691 33.64C101.457 33.658 100.593 33.694 100.305 33.694C101.295 32.65 102.843 30.616 103.257 30.04C103.329 32.254 103.527 34.342 103.815 36.268H98.973C98.397 35.53 97.911 34.81 97.533 34V32.902H98.613V30.832H97.533V27.682H95.517V30.832H93.843V32.902H95.427C95.103 34.684 94.563 36.43 93.627 37.978L94.473 41.02C94.797 40.408 95.157 39.76 95.517 38.428V44.638H97.533V37.132C97.929 37.942 98.019 38.086 98.253 38.464L98.829 36.952V38.176H99.351C99.297 40.552 99.099 41.614 98.145 43.198L99.693 44.656C100.251 43.936 100.863 43.018 101.169 40.858C102.195 41.344 102.717 41.794 103.077 42.1L103.959 40.354ZM106.641 35.242C106.839 35.404 107.271 35.746 107.793 36.268H105.867C105.831 36.07 105.723 35.116 105.687 34.9C105.921 34.9 107.037 34.81 107.307 34.792L106.641 35.242ZM105.525 33.424C105.435 32.596 105.345 31.588 105.309 30.31C105.975 30.868 106.605 31.588 106.893 31.966C106.227 32.794 105.867 33.208 105.687 33.424H105.525ZM124.902 42.982L125.37 44.638H127.134C128.79 44.638 128.934 44.008 128.934 42.73V28.24H121.788V34.468H126.81V41.92C126.81 42.37 126.774 42.514 126.27 42.514H125.19L125.442 42.1C124.812 41.848 123.984 41.524 122.904 40.48H125.874V38.896H121.806C121.896 38.482 121.914 38.212 121.95 37.816H125.64V36.25H124.002C124.056 36.124 124.416 35.44 124.542 34.972L122.418 34.756C122.328 35.116 122.148 35.782 121.968 36.25H120.114C120.006 35.836 119.772 35.206 119.556 34.756L117.504 35.08C117.63 35.296 118.026 36.142 118.098 36.25H116.586V37.816H119.97C119.97 38.158 119.97 38.428 119.844 38.896H116.226V40.48H119.034C117.846 41.83 116.514 42.244 115.866 42.424L117.018 44.188C119.826 43.144 120.852 41.254 121.104 40.786C121.302 41.128 122.256 42.82 124.38 43.81L124.902 42.982ZM126.81 29.77V30.76H123.858V29.77H126.81ZM126.81 32.002V32.992H123.858V32.002H126.81ZM113.166 44.638H115.29V34.468H120.294V28.24H113.166V44.638ZM118.242 29.77V30.76H115.29V29.77H118.242ZM118.242 32.002V32.992H115.29V32.002H118.242ZM134.055 43.738C135.567 40.804 136.647 36.484 137.151 33.676L138.519 33.658C140.301 33.64 140.769 34.162 140.769 36.214C140.769 37.492 140.553 38.932 140.301 39.868C140.031 40.84 139.779 41.38 138.591 41.38C137.853 41.38 137.115 41.236 136.791 41.164L136.935 43.576C137.205 43.612 137.943 43.702 138.915 43.702C140.499 43.702 141.633 43.216 142.245 41.848C142.929 40.3 143.109 37.798 143.109 36.484C143.109 32.65 141.849 31.426 139.185 31.426H137.565C137.817 29.842 137.871 29.392 137.997 28.42L135.477 28.294C135.387 29.59 135.315 30.274 135.153 31.426H132.183V33.712L134.775 33.694C134.397 35.764 133.335 39.832 131.733 42.658L134.055 43.738ZM147.843 37.852C147.645 35.008 146.925 32.164 145.089 29.968L143.055 30.976C144.621 33.064 145.251 35.674 145.341 38.284L147.843 37.852ZM163.134 29.338C161.154 28.744 159.03 28.33 155.358 28.204L154.944 30.436C159.696 30.688 162.036 31.642 162.54 31.84L163.134 29.338ZM152.82 31.21C152.442 33.478 152.406 34.414 152.352 38.626L154.71 38.716C154.728 38.554 154.746 38.482 154.764 38.266C155.88 36.916 158.022 36.052 160.092 36.052C161.838 36.052 162.846 36.952 162.846 38.248C162.846 40.066 161.568 41.47 156.906 41.47C155.394 41.47 154.152 41.308 153.324 41.2L153.612 43.522C154.242 43.594 155.304 43.702 156.96 43.702C161.91 43.702 165.348 42.37 165.348 38.338C165.348 36.754 164.502 33.928 160.362 33.928C158.292 33.928 156.492 34.54 154.764 35.71C154.818 33.514 154.926 32.65 155.25 31.444L152.82 31.21ZM174.303 43.612L175.689 44.692C176.625 42.874 177.165 40.912 177.165 36.214V30.202H183.015V41.992C183.015 42.424 182.979 42.604 182.439 42.604H180.531L180.891 44.638H183.465C184.977 44.638 184.977 43.522 184.977 42.892V28.258H175.221V36.124C175.221 37.33 175.221 40.534 174.303 42.622V38.788H169.083V44.332H174.303V43.612ZM172.521 42.586H171.045V40.516H172.521V42.586ZM169.083 28.258V29.95H174.303V28.258H169.083ZM169.083 33.442V35.224H174.303V33.442H169.083ZM169.083 36.07V37.852H174.303V36.07H169.083ZM177.741 37.204V42.244H182.295V37.204H177.741ZM180.801 40.498H179.271V38.932H180.801V40.498ZM168.597 30.814V32.632H174.717V30.814H168.597ZM181.017 30.634H179.253V31.498H177.615V33.172H179.253V34.486H177.597V36.196H182.565V34.486H181.017V33.172H182.547V31.498H181.017V30.634ZM197.82 30.67C198.864 31.768 199.404 32.524 200.214 33.91L201.546 32.866C200.718 31.552 200.034 30.616 199.098 29.698L197.82 30.67ZM200.214 29.122C201.312 30.31 201.78 30.922 202.644 32.344L203.994 31.336C203.238 30.166 202.518 29.158 201.492 28.186L200.214 29.122ZM204.12 39.328C203.724 39.076 203.022 38.608 201.798 37.6C200.7 36.7 198.396 34.684 197.478 33.802C195.66 32.092 194.958 31.462 193.68 31.462C192.87 31.462 192.312 31.768 191.574 32.38C190.944 32.92 188.136 35.854 187.452 36.448L189.09 38.644C190.098 37.474 191.106 36.25 192.114 35.044C192.996 34 193.302 33.892 193.59 33.892C193.86 33.892 194.094 34 194.49 34.324C194.976 34.72 195.678 35.44 196.272 36.016C198.828 38.554 200.862 40.552 202.536 41.794L204.12 39.328ZM218.637 28.762C214.371 28.942 212.625 28.96 208.683 28.942V31.264C210.969 31.228 212.805 31.138 214.731 31.012C210.609 34.63 207.459 37.042 206.721 37.582L208.071 39.598C210.807 37.006 212.859 35.494 215.649 35.494C218.061 35.494 219.177 36.7 219.177 38.356C219.177 39.274 218.781 40.336 217.737 40.984C217.017 38.842 215.037 37.87 213.399 37.87C211.491 37.87 210.069 39.094 210.069 40.678C210.069 42.28 211.563 43.828 214.893 43.828C218.745 43.828 221.535 41.74 221.535 38.284C221.535 34.738 218.763 33.55 216.621 33.55C216.009 33.55 215.181 33.676 214.335 33.91C215.757 32.794 217.665 31.3 218.637 30.634V28.762ZM215.829 41.83C215.667 41.866 215.289 41.956 214.677 41.956C213.165 41.956 212.157 41.416 212.157 40.57C212.157 40.192 212.607 39.724 213.345 39.724C214.587 39.724 215.379 40.516 215.829 41.83Z" fill="black"/>
</svg>
