<svg width="352" height="80" viewBox="0 0 352 80" fill="none" xmlns="http://www.w3.org/2000/svg">
<path d="M2.688 4.43V9.834C1.414 10.408 1.218 10.506 0.294 10.814L0.616 11.962C0.966 11.808 1.722 11.458 2.59 10.94C2.212 13.642 1.078 14.86 0.602 15.364L1.554 16.148C2.198 15.378 3.808 13.502 3.808 9.232V5.48H13.524V4.43H8.316V3.198H7.168V4.43H2.688ZM2.268 7.832C2.058 6.95 1.82 6.25 1.316 5.354L0.378 5.83C0.588 6.208 0.98 6.908 1.26 8.336L2.268 7.832ZM13.216 6.95H4.354V7.972H8.288V14.79H6.314V9.302H5.152V14.79H3.332V15.84H13.454V14.79H9.422V11.584H12.768V10.562H9.422V7.972H13.216V6.95ZM28.142 15C27.274 14.454 24.852 12.914 23.97 8.084H27.974V6.964H23.914V3.198H22.71V6.964H19.224V8.084H22.668C22.612 8.826 22.458 9.568 22.262 10.296C21.646 12.606 20.61 14.006 18.888 15.112L19.546 16.162C22.024 14.412 22.948 12.284 23.466 10.408C24.152 12.424 25.132 14.622 27.47 16.106L28.142 15ZM17.46 3.198V10.338C16.41 11.108 15.192 11.78 14.786 12.004L15.136 13.25C15.71 12.97 16.942 12.2 17.46 11.752V16.162H18.622V3.198H17.46ZM17.04 7.762C16.788 6.81 16.354 5.802 15.892 4.976L14.884 5.424C15.43 6.46 15.668 7.048 15.99 8.21L17.04 7.762ZM27.302 5.746C27.078 5.382 26.518 4.43 25.552 3.422L24.67 4.01C25.356 4.738 26.028 5.788 26.336 6.334L27.302 5.746ZM34.444 16.232C35.354 15.952 37.496 15.21 38.448 12.76C38.812 13.656 39.862 15.392 42.186 16.19L42.746 15.14C41.752 14.818 40.17 14.216 39.302 12.242H42.046V8.364H38.896V7.076H40.856V6.558C41.248 6.852 41.598 7.076 42.172 7.412L42.788 6.404C40.408 5.2 39.568 4.08 39.022 3.156H37.65C36.572 4.71 35.592 5.578 33.968 6.418L34.528 7.426C34.892 7.244 35.284 7.034 35.914 6.572V7.076H37.79V8.364H34.64V12.242H37.482C36.866 14.412 34.514 15.042 33.87 15.21L34.444 16.232ZM38.896 9.33H40.968V11.276H38.812C38.868 10.898 38.896 10.534 38.896 9.652V9.33ZM37.79 9.68C37.79 10.492 37.762 10.898 37.706 11.276H35.746V9.33H37.79V9.68ZM36.46 6.11C37.272 5.368 38 4.43 38.336 4.01C38.672 4.444 39.4 5.382 40.282 6.11H36.46ZM34.402 10.254C33.324 9.092 32.82 8 32.624 7.496V6.964H33.842V5.9H32.624V3.184H31.518V5.9H29.558V6.964H31.434C30.706 9.932 29.838 11.052 29.32 11.724L29.81 13.11C30.608 12.018 31.168 10.772 31.518 9.456V16.176H32.624V9.176C32.96 10.016 33.282 10.534 33.828 11.304L34.402 10.254ZM52.17 7.734C51.792 8.168 51.246 8.826 49.748 10.184C49.594 10.058 49.328 9.848 48.642 9.4C48.698 9.344 49.692 8.49 50.42 7.524H55.642V9.176H56.804V6.516H51.134V5.326H56.804V4.29H51.134V3.212H49.986V4.29H44.372V5.326H49.986V6.516H44.316V9.176H45.464V7.524H48.936C48.684 7.874 48.46 8.182 47.76 8.84C47.256 8.518 47.102 8.448 46.836 8.308L46.122 9.162C47.606 9.876 48.712 10.688 48.964 10.898C48.838 11.01 48.74 11.094 48.474 11.304C47.844 11.318 44.792 11.346 44.106 11.332L44.19 12.41C45.016 12.41 49.076 12.326 49.986 12.312V16.148H51.148V12.256L55.138 12.046C55.642 12.536 55.866 12.816 56.09 13.11L56.888 12.312C56.496 11.85 55.586 10.758 53.696 9.386L52.884 10.114C53.22 10.352 53.444 10.506 54.186 11.15C51.344 11.248 51.022 11.262 50.056 11.304C51.848 9.736 52.422 9.218 53.164 8.378L52.17 7.734ZM44.75 16.008C45.492 15.644 47.088 14.832 48.376 13.32L47.466 12.69C46.234 14.104 44.428 14.902 44.022 15.084L44.75 16.008ZM52.548 13.264C53.206 13.95 54.256 14.972 56.412 15.938L57.126 14.944C55.502 14.328 54.452 13.67 53.36 12.592L52.548 13.264ZM65.724 6.082H70.134V4.864H60.012V6.082H64.394V13.278H59.256V14.524H70.89V13.278H65.724V6.082ZM79.152 6.572C78.788 6.348 77.248 5.354 74.77 4.612L74.14 5.732C76.156 6.362 77.626 7.188 78.452 7.748L79.152 6.572ZM74.686 15.224C82.75 14.692 84.99 8.154 85.662 6.166L84.57 5.354C83.604 8.49 81.518 13.446 74.434 13.824L74.686 15.224ZM94.246 5.662C93.14 5.13 91.768 4.5 90.144 4.136L89.64 5.2C91.082 5.606 92.426 6.11 93.714 6.824L94.246 5.662ZM93.098 8.938C92.02 8.308 90.34 7.664 89.052 7.356L88.562 8.462C90.578 9.05 91.852 9.708 92.58 10.128L93.098 8.938ZM96.5 3.366C97.144 4.472 97.34 4.948 97.718 6.11L98.698 5.62C98.236 4.388 97.97 3.744 97.41 2.904L96.5 3.366ZM98.838 3.226C99.44 4.29 99.664 4.878 100.014 5.998L101.008 5.522C100.588 4.262 100.21 3.506 99.762 2.792L98.838 3.226ZM89.598 15.308C95.31 14.566 98.026 12.41 99.846 7.216L98.754 6.418C97.214 11.276 94.862 13.39 89.29 13.936L89.598 15.308ZM108.192 6.572C107.828 6.348 106.288 5.354 103.81 4.612L103.18 5.732C105.196 6.362 106.666 7.188 107.492 7.748L108.192 6.572ZM103.726 15.224C111.79 14.692 114.03 8.154 114.702 6.166L113.61 5.354C112.644 8.49 110.558 13.446 103.474 13.824L103.726 15.224ZM127.122 16.134V4.136H129.81V3.016H126.002V16.134H127.122ZM140.032 13.138C140.858 9.652 141.138 6.124 141.236 5.032H133.494V6.278H139.808C139.724 7.286 139.458 10.24 138.688 13.138H131.716V14.384H143.574V13.138H140.032ZM148.77 4.15H147.482V13.012C147.482 14.79 148.35 15.14 150.436 15.14H154.356C155.238 15.14 156.568 15.098 157.422 14.958L157.352 13.698C156.456 13.866 155.336 13.922 154.216 13.922H150.618C149.022 13.922 148.77 13.81 148.77 12.802V9.708C150.24 9.4 152.802 8.756 155.868 7.356L155.294 6.18C153.194 7.258 151.262 7.916 148.77 8.49V4.15ZM154.86 3.73C155.49 4.696 155.812 5.312 156.232 6.418L157.184 5.858C156.736 4.822 156.386 4.108 155.756 3.226L154.86 3.73ZM157.002 3.072C157.702 4.136 157.94 4.64 158.36 5.76L159.312 5.214C158.906 4.22 158.514 3.408 157.898 2.568L157.002 3.072ZM160.7 9.008V10.338H172.74V9.008H160.7ZM177.278 3.226V15.224H174.59V16.344H178.398V3.226H177.278ZM198.84 6.222L198.812 3.856H197.538L197.58 6.222H193.38V7.426H197.608L197.664 10.73C197.272 10.618 196.922 10.52 196.222 10.52C194.444 10.52 193.156 11.514 193.156 12.97C193.156 14.104 193.968 15.378 196.152 15.378C198.826 15.378 198.84 13.796 198.84 12.998V12.48C199.61 12.97 200.31 13.558 200.87 14.3L201.696 13.166C201.052 12.48 200.016 11.682 198.882 11.122L198.84 7.426H201.458V6.222H198.84ZM197.664 12.746C197.664 13.502 197.608 14.328 196.082 14.328C195.34 14.328 194.276 14.062 194.276 12.984C194.276 11.934 195.298 11.57 196.236 11.57C196.95 11.57 197.342 11.738 197.664 11.878V12.746ZM190.706 3.828C190.328 6.012 190.188 8.042 190.188 10.254C190.188 11.976 190.244 13.712 190.58 15.406L191.84 15.238C191.476 13.642 191.406 11.99 191.406 10.352C191.406 7.216 191.742 5.326 192.008 3.926L190.706 3.828ZM214.242 16.134V4.136H216.93V3.016H213.122V16.134H214.242ZM225.878 3.184V4.066H221.692V5.018H223.736C223.778 5.13 224.03 6.068 224.086 6.292H222.154V14.034H223.218V7.202H225.934V8.252H223.652V9.12H225.934V10.086H224.156V12.984H228.748V10.086H226.956V9.12H229.224V8.252H226.956V7.202H229.658V12.816C229.658 13.138 229.532 13.166 229.35 13.166L228.048 13.152L228.202 14.216H229.686C230.414 14.216 230.722 13.81 230.722 13.138V6.292H228.678C228.874 5.816 228.986 5.494 229.126 5.018H231.24V4.066H227.012V3.184H225.878ZM225.094 6.292C224.968 5.746 224.954 5.676 224.786 5.018H228.104C228.062 5.2 227.852 5.928 227.698 6.292H225.094ZM227.782 12.13H225.108V10.926H227.782V12.13ZM224.212 14.762C223.806 14.762 221.258 14.566 220.978 12.858V8.616H218.36V9.764H219.872V13.712C219.256 14.37 218.458 14.888 218.206 15.042L218.766 16.232C219.76 15.364 219.83 15.28 220.726 14.258C221.034 14.664 221.902 15.84 224.198 15.84H231.198L231.422 14.762H224.212ZM221.482 5.704C220.81 4.766 219.998 3.94 219.34 3.38L218.57 4.08C219.83 5.312 220.32 6.068 220.572 6.446L221.482 5.704ZM234.098 7.104L232.656 7.342L232.726 8.476L234.098 8.252V12.732C234.098 13.404 234.448 13.754 235.106 13.754H236.744C237.892 13.754 238.158 12.648 238.382 10.814L237.248 10.548C237.22 11.08 237.122 12.676 236.52 12.676H235.652C235.302 12.676 235.232 12.578 235.232 12.27V8.07L238.312 7.566L238.242 6.418L235.232 6.908V3.198H234.098V7.104ZM237.92 3.8V4.934H240.426C240.426 9.848 239.978 12.998 235.89 15.182L236.702 16.19C240.58 13.824 241.546 11.052 241.602 4.934H244.248C244.248 6.53 244.248 13.39 243.506 14.594C243.268 14.986 242.806 14.972 242.666 14.972L240.58 14.958L240.832 16.148H242.862C244.108 16.148 244.486 15.504 244.654 15.154C245.424 13.502 245.424 7.216 245.424 3.8H237.92ZM257.046 7.636H255.786L255.87 10.632C255.562 10.562 255.114 10.464 254.414 10.464C251.936 10.464 251.124 12.018 251.124 13.068C251.124 14.37 252.16 15.532 254.26 15.532C255.646 15.532 257.06 15.028 257.06 12.956V12.382C257.564 12.676 258.418 13.194 259.328 14.286L260.098 13.18C259.412 12.424 258.292 11.556 257.116 11.038L257.046 7.636ZM255.898 12.732C255.898 13.684 255.688 14.44 254.302 14.44C254.036 14.44 252.314 14.44 252.314 13.026C252.314 12.242 252.986 11.528 254.414 11.528C255.156 11.528 255.576 11.682 255.898 11.794V12.732ZM251.74 5.48C251.922 4.458 251.936 4.374 252.048 3.702L250.718 3.646C250.662 4.206 250.62 4.514 250.466 5.48H247.876V6.656H250.242C249.878 8.224 249.262 10.968 247.764 13.376L249.052 13.936C249.556 12.9 250.704 10.562 251.502 6.656H254.68V5.48H251.74ZM259.86 6.572C258.376 5.746 257.438 5.326 256.038 4.836L255.548 5.872C256.808 6.334 257.858 6.838 259.272 7.692L259.86 6.572ZM263.446 9.638C264.426 9.022 264.818 8.63 265.224 8.224C267.282 9.26 268.514 10.128 269.676 11.122C268.08 12.872 265.91 13.908 263.614 14.454L264.216 15.616C272.616 13.432 273.344 6.74 273.596 4.458H266.358C265.518 6.32 264.286 7.622 262.62 8.658L263.446 9.638ZM272.154 5.62C271.832 7.79 271.188 9.078 270.446 10.17C269.06 8.98 267.45 8.112 265.994 7.384C266.372 6.922 266.624 6.6 267.198 5.62H272.154ZM284.378 8.084C286.338 6.516 287.5 5.158 288.116 4.43L286.94 3.66C284.336 6.936 280.892 9.47 276.902 10.716L277.518 11.878C279.31 11.248 281.13 10.408 283.034 9.078V15.602H284.378V8.084ZM302.118 5.214C298.856 4.472 296.336 4.164 292.962 3.968L292.752 5.13C296.224 5.312 298.954 5.718 301.88 6.502L302.118 5.214ZM301.39 9.456C299.066 8.756 296.84 8.28 292.892 7.986L292.654 9.148C296.154 9.414 298.422 9.806 301.166 10.674L301.39 9.456ZM302.692 14.202C301.152 13.754 297.624 12.718 292.066 12.438L291.814 13.628C296.798 14.006 299.36 14.566 302.342 15.532L302.692 14.202ZM311.472 6.572C311.108 6.348 309.568 5.354 307.09 4.612L306.46 5.732C308.476 6.362 309.946 7.188 310.772 7.748L311.472 6.572ZM307.006 15.224C315.07 14.692 317.31 8.154 317.982 6.166L316.89 5.354C315.924 8.49 313.838 13.446 306.754 13.824L307.006 15.224ZM321.512 15.728C326.496 14.608 329.422 11.836 330.584 6.502L329.282 4.78H323.682C322.702 6.74 321.274 7.944 320.182 8.686L320.98 9.638C322.562 8.574 323.598 7.426 324.522 5.956H329.38C328.582 10.17 326.412 13.46 320.98 14.538L321.512 15.728ZM331.172 3.1C331.9 4.094 332.18 4.654 332.656 5.732L333.552 5.144C332.964 3.968 332.726 3.478 332.012 2.568L331.172 3.1ZM329.31 3.646C329.996 4.556 330.346 5.158 330.836 6.25L331.718 5.648C331.13 4.486 330.85 3.982 330.136 3.1L329.31 3.646ZM342.906 8C343.564 8.924 343.914 9.582 344.376 10.702L345.356 10.086C344.866 9.022 344.46 8.266 343.816 7.44L342.906 8ZM344.978 7.104C345.65 8.07 345.972 8.672 346.448 9.806L347.428 9.19C346.924 8.098 346.56 7.412 345.888 6.544L344.978 7.104ZM346.686 4.472C343.48 4.486 342.164 4.514 338.846 4.696C338.132 4.738 335.71 4.85 335.024 4.864L335.136 6.236C336.662 6.054 341.506 5.76 341.912 5.746C340.26 6.712 337.81 8.546 337.81 11.206C337.81 15.126 342.458 15.322 345.216 15.434L345.468 14.076C344.222 14.118 342.836 14.006 341.94 13.824C340.456 13.516 339.112 12.942 339.112 11.122C339.112 8.714 341.856 6.544 343.872 5.872C344.292 5.732 344.6 5.704 345.286 5.704C345.678 5.704 346.112 5.718 346.714 5.76L346.686 4.472ZM7.35 35.434C8.904 35.28 10.304 34.804 11.214 34.048C12.488 32.984 13.09 31.332 13.09 29.666C13.09 27.3 11.872 24.164 7.336 24.164C3.64 24.164 0.868 26.6 0.868 30.408C0.868 32.718 2.016 34.342 3.388 34.342C4.018 34.342 4.914 34.02 5.74 32.718C7.182 30.408 7.462 26.964 7.588 25.34C11.438 25.466 11.774 28.546 11.774 29.652C11.774 33.656 8.372 34.062 6.93 34.216L7.35 35.434ZM6.342 25.396C6.202 27.006 5.978 29.848 4.802 31.864C4.438 32.48 4.018 32.998 3.43 32.998C2.436 32.998 2.086 31.388 2.086 30.436C2.086 28.812 2.73 27.244 4.032 26.292C4.746 25.76 5.516 25.55 6.342 25.396ZM22.598 23.184V24.066H18.412V25.018H20.456C20.498 25.13 20.75 26.068 20.806 26.292H18.874V34.034H19.938V27.202H22.654V28.252H20.372V29.12H22.654V30.086H20.876V32.984H25.468V30.086H23.676V29.12H25.944V28.252H23.676V27.202H26.378V32.816C26.378 33.138 26.252 33.166 26.07 33.166L24.768 33.152L24.922 34.216H26.406C27.134 34.216 27.442 33.81 27.442 33.138V26.292H25.398C25.594 25.816 25.706 25.494 25.846 25.018H27.96V24.066H23.732V23.184H22.598ZM21.814 26.292C21.688 25.746 21.674 25.676 21.506 25.018H24.824C24.782 25.2 24.572 25.928 24.418 26.292H21.814ZM24.502 32.13H21.828V30.926H24.502V32.13ZM20.932 34.762C20.526 34.762 17.978 34.566 17.698 32.858V28.616H15.08V29.764H16.592V33.712C15.976 34.37 15.178 34.888 14.926 35.042L15.486 36.232C16.48 35.364 16.55 35.28 17.446 34.258C17.754 34.664 18.622 35.84 20.918 35.84H27.918L28.142 34.762H20.932ZM18.202 25.704C17.53 24.766 16.718 23.94 16.06 23.38L15.29 24.08C16.55 25.312 17.04 26.068 17.292 26.446L18.202 25.704ZM30.818 27.104L29.376 27.342L29.446 28.476L30.818 28.252V32.732C30.818 33.404 31.168 33.754 31.826 33.754H33.464C34.612 33.754 34.878 32.648 35.102 30.814L33.968 30.548C33.94 31.08 33.842 32.676 33.24 32.676H32.372C32.022 32.676 31.952 32.578 31.952 32.27V28.07L35.032 27.566L34.962 26.418L31.952 26.908V23.198H30.818V27.104ZM34.64 23.8V24.934H37.146C37.146 29.848 36.698 32.998 32.61 35.182L33.422 36.19C37.3 33.824 38.266 31.052 38.322 24.934H40.968C40.968 26.53 40.968 33.39 40.226 34.594C39.988 34.986 39.526 34.972 39.386 34.972L37.3 34.958L37.552 36.148H39.582C40.828 36.148 41.206 35.504 41.374 35.154C42.144 33.502 42.144 27.216 42.144 23.8H34.64ZM53.766 27.636H52.506L52.59 30.632C52.282 30.562 51.834 30.464 51.134 30.464C48.656 30.464 47.844 32.018 47.844 33.068C47.844 34.37 48.88 35.532 50.98 35.532C52.366 35.532 53.78 35.028 53.78 32.956V32.382C54.284 32.676 55.138 33.194 56.048 34.286L56.818 33.18C56.132 32.424 55.012 31.556 53.836 31.038L53.766 27.636ZM52.618 32.732C52.618 33.684 52.408 34.44 51.022 34.44C50.756 34.44 49.034 34.44 49.034 33.026C49.034 32.242 49.706 31.528 51.134 31.528C51.876 31.528 52.296 31.682 52.618 31.794V32.732ZM48.46 25.48C48.642 24.458 48.656 24.374 48.768 23.702L47.438 23.646C47.382 24.206 47.34 24.514 47.186 25.48H44.596V26.656H46.962C46.598 28.224 45.982 30.968 44.484 33.376L45.772 33.936C46.276 32.9 47.424 30.562 48.222 26.656H51.4V25.48H48.46ZM56.58 26.572C55.096 25.746 54.158 25.326 52.758 24.836L52.268 25.872C53.528 26.334 54.578 26.838 55.992 27.692L56.58 26.572ZM66.144 29.4C66.242 28.798 66.284 28.336 66.284 27.524H70.134V26.502H63.75C63.946 26.124 64.058 25.886 64.282 25.326L63.162 25.088C62.728 26.446 61.902 27.468 60.908 28.266L61.79 29.022C62.336 28.532 62.658 28.182 63.134 27.524H65.192C65.192 28.532 65.122 28.966 65.052 29.4H60.978V30.436H64.716C63.722 32.494 61.496 33.04 60.796 33.208L61.468 34.23C63.064 33.698 64.856 32.788 65.78 30.66C66.13 31.458 67.25 33.236 70.414 34.216L71.03 33.138C68.762 32.634 67.278 31.332 66.802 30.436H70.722V29.4H66.144ZM59.06 23.646V35.882H71.492V34.818H60.25V24.724H71.198V23.646H59.06ZM84.612 29.988C85.046 30.254 85.312 30.38 85.69 30.562L86.222 29.624C85.83 29.484 85.452 29.344 84.822 28.994C84.85 28.952 85.34 28.476 85.774 27.916L84.99 27.44C84.836 27.65 84.5 28.07 84.094 28.504C83.422 27.986 83.072 27.524 82.792 27.174H86.054V26.292H80.958C81.056 26.096 81.112 25.956 81.252 25.606L80.146 25.48C80.034 25.802 79.964 25.984 79.824 26.292H76.464V27.174H79.292C78.9 27.692 78.55 28.056 78.116 28.406C77.99 28.266 77.598 27.832 77.15 27.496L76.506 28.084C76.898 28.392 76.94 28.434 77.402 28.924C76.926 29.246 76.562 29.428 76.072 29.666L76.688 30.506C76.996 30.324 77.094 30.268 77.388 30.086V32.998H80.398V34.804C80.398 35.084 80.356 35.14 80.076 35.14H78.746L78.984 36.148H80.496C80.93 36.148 81.532 36.12 81.532 35.252V32.998H84.612V29.988ZM83.59 30.534H78.41V29.694H83.59V30.534ZM78.984 28.882C79.894 28.056 80.286 27.44 80.454 27.174H81.644C81.952 27.622 82.302 28.154 83.114 28.882H78.984ZM83.59 32.186H78.41V31.304H83.59V32.186ZM74.91 29.064C74.91 29.456 74.896 29.722 74.896 29.946C74.196 30.296 73.874 30.45 72.908 30.828L73.146 31.976C73.566 31.766 74.098 31.5 74.798 31.038C74.49 33.642 73.72 34.65 73.09 35.434L73.944 36.19C74.504 35.518 76.016 33.712 76.016 29.106V25.298H86.096V24.318H80.888V23.184H79.74V24.318H74.91V29.064ZM74.616 27.86C74.476 27.146 74.182 26.166 73.776 25.368L72.908 25.788C73.23 26.586 73.482 27.482 73.636 28.322L74.616 27.86ZM76.1 35.938C77.038 35.588 77.906 35.126 79.096 33.964L78.284 33.292C77.29 34.244 76.604 34.622 75.484 35L76.1 35.938ZM82.666 33.978C83.422 34.832 84.612 35.574 85.69 35.952L86.306 35C85.004 34.538 84.416 34.202 83.408 33.236L82.666 33.978ZM98.768 26.964C96.598 27.314 95.45 27.538 93.938 28C93.644 27.398 93.574 26.656 93.574 25.172C93.574 24.486 93.588 24.094 93.602 23.716H92.23C92.272 26.698 92.3 27.51 92.762 28.42C91.782 28.84 88.898 30.044 88.898 32.438C88.898 35.42 92.776 35.42 95.198 35.42C97.214 35.42 98.446 35.336 99.356 35.28L99.328 33.964C98.53 34.048 97.228 34.174 94.918 34.174C91.908 34.174 90.2 34.02 90.2 32.396C90.2 29.288 97.76 28.434 98.894 28.308L98.768 26.964ZM108.99 35.434C110.544 35.28 111.944 34.804 112.854 34.048C114.128 32.984 114.73 31.332 114.73 29.666C114.73 27.3 113.512 24.164 108.976 24.164C105.28 24.164 102.508 26.6 102.508 30.408C102.508 32.718 103.656 34.342 105.028 34.342C105.658 34.342 106.554 34.02 107.38 32.718C108.822 30.408 109.102 26.964 109.228 25.34C113.078 25.466 113.414 28.546 113.414 29.652C113.414 33.656 110.012 34.062 108.57 34.216L108.99 35.434ZM107.982 25.396C107.842 27.006 107.618 29.848 106.442 31.864C106.078 32.48 105.658 32.998 105.07 32.998C104.076 32.998 103.726 31.388 103.726 30.436C103.726 28.812 104.37 27.244 105.672 26.292C106.386 25.76 107.156 25.55 107.982 25.396ZM117.658 24.22V29.358H122.558V34.818H118.358V30.436H117.182V35.896H129.124V30.436H127.934V34.818H123.734V29.358H128.662V24.22H127.472V28.28H123.734V23.184H122.558V28.28H118.848V24.22H117.658ZM139.234 32.06C140.326 33.166 141.026 34.048 141.166 34.23C140.13 34.328 138.688 34.454 136.98 34.524C136.686 34.538 135.118 34.58 134.768 34.594C135.678 32.984 136.238 31.766 136.574 30.996H143.882V29.918H131.38V30.996H135.216C134.908 31.808 134.376 33.11 133.494 34.622H131.562L131.688 35.77C133.844 35.77 139.556 35.518 141.894 35.182C142.188 35.616 142.356 35.882 142.58 36.26L143.588 35.588C142.51 33.88 141.656 32.9 140.158 31.43L139.234 32.06ZM141.39 27.342C142.384 28.014 143.168 28.378 143.784 28.658L144.4 27.538C141.964 26.67 139.738 24.976 138.282 23.03H137.036C136.658 23.59 135.09 25.858 130.918 27.496L131.492 28.63C131.968 28.434 132.738 28.098 133.984 27.328V28.112H141.39V27.342ZM134.418 27.048C135.594 26.236 136.784 25.256 137.666 24.024C138.156 24.64 138.968 25.648 140.942 27.048H134.418ZM146.782 24.374C146.698 25.326 146.558 26.852 146.558 28.378C146.558 32.018 147.188 35.154 149.456 35.154C150.17 35.154 150.688 34.818 151.024 34.482C151.808 33.698 152.452 32.522 152.914 31.22L151.878 30.632C150.912 33.152 150.184 33.726 149.554 33.726C147.986 33.726 147.818 30.66 147.818 28.49C147.818 26.6 148 25.326 148.112 24.486L146.782 24.374ZM158.066 33.768C158.262 28.168 156.82 26.194 155.154 24.794L154.188 25.536C155.644 26.726 156.736 28.742 156.736 32.396C156.736 33.04 156.708 33.46 156.68 33.824L158.066 33.768ZM162.758 23.226V35.224H160.07V36.344H163.878V23.226H162.758ZM181.59 35.434C183.144 35.28 184.544 34.804 185.454 34.048C186.728 32.984 187.33 31.332 187.33 29.666C187.33 27.3 186.112 24.164 181.576 24.164C177.88 24.164 175.108 26.6 175.108 30.408C175.108 32.718 176.256 34.342 177.628 34.342C178.258 34.342 179.154 34.02 179.98 32.718C181.422 30.408 181.702 26.964 181.828 25.34C185.678 25.466 186.014 28.546 186.014 29.652C186.014 33.656 182.612 34.062 181.17 34.216L181.59 35.434ZM180.582 25.396C180.442 27.006 180.218 29.848 179.042 31.864C178.678 32.48 178.258 32.998 177.67 32.998C176.676 32.998 176.326 31.388 176.326 30.436C176.326 28.812 176.97 27.244 178.272 26.292C178.986 25.76 179.756 25.55 180.582 25.396ZM193.632 28.98C193.982 28.798 194.402 28.588 195.088 28.07V29.694H200.52V28.126C201.01 28.504 201.444 28.756 202.074 29.036L202.522 28.126C200.996 27.44 200.464 26.978 199.778 25.998H202.214V25.13H197.524C197.58 25.018 197.678 24.836 197.902 24.304C198.546 24.262 200.366 24.122 201.416 23.912L200.94 23.072C199.778 23.31 197.902 23.604 193.814 23.59L194.038 24.43C194.57 24.43 195.074 24.43 196.782 24.36C196.712 24.5 196.628 24.682 196.39 25.13H193.478V25.998H195.83C194.878 27.272 193.646 27.846 193.114 28.098L193.632 28.98ZM198.672 25.998C198.854 26.306 199.064 26.656 199.47 27.146H196.11C196.474 26.754 196.712 26.474 197.02 25.998H198.672ZM199.624 28.924H195.97V27.916H199.624V28.924ZM201.836 30.38H193.758V36.176H194.808V31.234H200.758V34.636C200.758 35.14 200.716 35.224 200.24 35.21L199.33 35.196L199.526 36.176H200.66C201.29 36.176 201.836 36.106 201.836 35.21V30.38ZM199.022 34.062H196.572V32.788H199.022V34.062ZM193.646 30.044C192.75 28.98 192.344 28.07 192.148 27.566V26.978H193.408V25.914H192.148V23.184H191.07V25.914H189.292V26.978H191.028C190.664 28.826 189.782 30.464 189.11 31.402L189.614 32.746C189.964 32.228 190.524 31.36 191.07 29.596V36.176H192.148V29.288C192.372 29.848 192.428 29.988 193.03 30.912L193.646 30.044ZM199.96 32.004H195.62V34.874H199.96V32.004ZM207.522 24.234V29.456C207.522 32.998 206.374 34.538 205.842 35.252L206.752 36.134C207.06 35.686 207.872 34.524 208.264 32.76C208.474 31.794 208.642 30.436 208.642 29.47V27.566H210.252V29.764H214.76V27.566H216.636V26.6H214.76V25.62H213.724V26.6H211.288V25.62H210.252V26.6H208.642V25.27H216.748V24.234H212.716V23.184H211.582V24.234H207.522ZM204.204 24.22C204.736 24.472 205.8 25.074 206.332 25.634L207.046 24.598C206.066 23.884 205.45 23.562 204.848 23.31L204.204 24.22ZM213.724 27.566V28.854H211.288V27.566H213.724ZM216.916 35.084C216.356 34.986 215.194 34.762 213.696 34.146C215.124 33.11 215.656 32.032 215.894 31.542V30.576H209.048V31.57H214.676C214.396 32.004 213.85 32.83 212.562 33.586C211.33 32.844 210.798 32.172 210.518 31.836L209.608 32.326C209.874 32.676 210.392 33.32 211.484 34.118C209.846 34.804 208.628 34.986 207.956 35.084L208.46 36.204C210.182 35.826 211.428 35.406 212.576 34.804C214.312 35.756 215.726 36.036 216.454 36.176L216.916 35.084ZM203.574 27.93C204.33 28.294 205.1 28.784 205.744 29.344L206.444 28.378C205.968 27.986 205.044 27.356 204.218 26.992L203.574 27.93ZM205.548 30.632C205.254 31.71 204.582 33.53 203.532 35.084L204.414 36.064C205.786 33.894 206.332 31.892 206.5 31.206L205.548 30.632ZM220.81 23.828C220.796 24.78 220.712 29.428 220.712 30.478C220.712 32.914 220.964 35.476 224.8 35.476C229.056 35.476 229.966 32.592 230.414 30.058L229.238 29.624C228.846 31.752 228.384 34.272 224.758 34.272C222.126 34.272 222.042 32.396 222.042 30.604C222.042 29.274 222.098 27.608 222.224 23.828H220.81ZM234.574 23.954C234.126 26.054 233.986 28.294 233.986 30.604C233.986 33.278 234.224 34.678 234.35 35.49L235.708 35.378C235.596 34.874 235.274 33.53 235.274 30.408C235.274 26.88 235.694 25.046 235.904 24.066L234.574 23.954ZM238.032 25.088V26.32H244.612V25.088H238.032ZM238.34 29.722C237.85 30.548 237.598 31.346 237.598 32.074C237.598 34.482 240.188 34.678 242.26 34.678C243.45 34.678 244.43 34.594 244.906 34.552V33.236C243.618 33.376 242.47 33.404 241.7 33.404C240.202 33.404 238.774 33.236 238.774 31.962C238.774 31.836 238.788 31.038 239.474 30.072L238.34 29.722ZM254.554 27.258H259.286V25.998L254.554 26.04L254.54 23.716H253.224L253.28 30.31C252.93 30.268 252.664 30.226 252.202 30.226C250.2 30.226 248.226 31.052 248.226 32.97C248.226 34.342 249.262 35.49 251.572 35.49C254.484 35.49 254.582 33.698 254.568 32.872L254.554 31.906C256.262 32.564 257.886 33.824 258.74 34.776L259.65 33.572C258.964 32.858 257.326 31.514 254.568 30.576L254.554 27.258ZM253.294 32.788C253.294 33.362 253.154 34.328 251.558 34.328C251.25 34.328 249.472 34.328 249.472 32.984C249.472 31.85 250.802 31.374 252.006 31.374C252.594 31.374 253.014 31.458 253.308 31.514L253.294 32.788ZM266.764 35.042C267.884 35.028 269.088 34.93 270.18 34.58C272.854 33.74 273.162 31.542 273.162 30.702C273.162 28.742 271.79 27.258 269.396 27.258C268.654 27.258 267.674 27.398 266.806 27.538C266.33 27.622 264.006 28.042 263.474 28.126L263.684 29.358C265.84 28.812 268.22 28.35 269.34 28.35C270.712 28.35 271.93 29.05 271.93 30.744C271.93 33.992 267.618 33.964 266.456 33.95L266.764 35.042ZM288.606 24.472C285.162 24.5 283.874 24.528 280.738 24.696C280.024 24.738 277.784 24.836 276.944 24.864L277.056 26.236C278.582 26.054 283.426 25.76 283.832 25.746C282.18 26.712 279.73 28.546 279.73 31.206C279.73 35.126 284.378 35.322 287.136 35.434L287.388 34.076C286.184 34.118 284.84 34.034 283.86 33.824C282.376 33.516 281.032 32.942 281.032 31.122C281.032 28.714 283.776 26.544 285.792 25.872C286.212 25.732 286.506 25.704 287.206 25.704C287.752 25.704 288.158 25.718 288.634 25.76L288.606 24.472ZM294.922 34.874C294.334 34.076 293.34 32.9 292.43 32.06L291.366 32.844C291.828 33.334 292.696 34.244 293.69 35.742L294.922 34.874ZM312.158 35.686C315.14 34.622 315.854 32.284 316.19 30.912C316.89 31.22 317.128 31.346 317.758 31.724L318.178 30.464C317.31 29.988 316.498 29.68 316.456 29.666C316.666 28.546 316.778 27.328 316.876 26.32L315.546 26.222C315.518 26.866 315.448 27.86 315.238 29.232C313.964 28.812 313.04 28.588 311.864 28.49C312.326 25.732 312.368 25.424 312.55 24.024H306.754V25.242L311.136 25.2C311.052 26.194 310.87 27.44 310.674 28.448C306.096 28.63 305.844 31.64 305.844 32.326C305.844 33.824 306.824 34.72 308.168 34.72C310.282 34.72 310.898 32.718 311.654 29.596C312.914 29.708 314.104 30.072 315.014 30.422C314.524 32.452 313.796 33.852 311.388 34.72L312.158 35.686ZM310.464 29.526C309.722 32.564 309.344 33.614 308.084 33.614C307.02 33.614 306.95 32.522 306.95 32.256C306.95 31.304 307.524 30.394 308.434 29.946C309.05 29.638 309.638 29.554 310.464 29.526ZM329.646 27.636H328.386L328.47 30.632C328.162 30.562 327.714 30.464 327.014 30.464C324.536 30.464 323.724 32.018 323.724 33.068C323.724 34.37 324.76 35.532 326.86 35.532C328.246 35.532 329.66 35.028 329.66 32.956V32.382C330.164 32.676 331.018 33.194 331.928 34.286L332.698 33.18C332.012 32.424 330.892 31.556 329.716 31.038L329.646 27.636ZM328.498 32.732C328.498 33.684 328.288 34.44 326.902 34.44C326.636 34.44 324.914 34.44 324.914 33.026C324.914 32.242 325.586 31.528 327.014 31.528C327.756 31.528 328.176 31.682 328.498 31.794V32.732ZM324.34 25.48C324.522 24.458 324.536 24.374 324.648 23.702L323.318 23.646C323.262 24.206 323.22 24.514 323.066 25.48H320.476V26.656H322.842C322.478 28.224 321.862 30.968 320.364 33.376L321.652 33.936C322.156 32.9 323.304 30.562 324.102 26.656H327.28V25.48H324.34ZM332.46 26.572C330.976 25.746 330.038 25.326 328.638 24.836L328.148 25.872C329.408 26.334 330.458 26.838 331.872 27.692L332.46 26.572ZM344.964 30.8C344.124 29.904 343.312 28.546 342.724 27.132C343.956 27.076 345.16 27.02 346.686 26.698L346.462 25.494C345.062 25.788 343.746 25.956 342.318 25.998C342.136 25.438 341.94 24.528 341.814 23.674L340.484 23.772C340.54 24.108 340.75 25.13 341.03 26.04C340.68 26.054 339.924 26.068 339.336 26.054L335.248 25.984V27.202H339.28C339.49 27.202 340.568 27.188 341.422 27.174C342.178 29.092 343.06 30.604 343.886 31.528L344.964 30.8ZM337.908 29.652C336.48 30.352 335.878 31.36 335.878 32.382C335.878 33.082 336.144 33.768 336.704 34.272C337.684 35.154 339.07 35.434 341.52 35.434C343.438 35.434 344.67 35.322 345.174 35.266L345.16 34.02C344.292 34.132 343.228 34.258 341.408 34.258C339.406 34.258 337.138 34.076 337.138 32.368C337.138 32.102 337.208 31.234 338.58 30.562L337.908 29.652ZM4.746 43.632C4.41 44.542 3.598 46.782 3.388 47.37C3.066 48.28 2.828 48.952 0.84 55.028L2.156 55.434C2.534 54.02 2.758 53.18 3.248 51.878C4.13 50.072 5.278 49.778 5.838 49.778C6.832 49.778 7.084 50.604 7.084 51.64V52.424C7.084 53.516 7.098 55.49 9.478 55.49C12.684 55.49 13.02 51.738 13.104 49.89L11.886 49.61C11.886 50.422 11.816 51.472 11.424 52.606C10.962 53.936 10.248 54.258 9.562 54.258C8.428 54.258 8.316 53.488 8.316 52.48V51.542C8.316 50.576 8.204 48.588 6.048 48.588C5.278 48.588 4.732 48.854 3.976 49.47C4.354 48.378 5.194 46.082 6.132 44.01L4.746 43.632ZM21.87 55.434C23.424 55.28 24.824 54.804 25.734 54.048C27.008 52.984 27.61 51.332 27.61 49.666C27.61 47.3 26.392 44.164 21.856 44.164C18.16 44.164 15.388 46.6 15.388 50.408C15.388 52.718 16.536 54.342 17.908 54.342C18.538 54.342 19.434 54.02 20.26 52.718C21.702 50.408 21.982 46.964 22.108 45.34C25.958 45.466 26.294 48.546 26.294 49.652C26.294 53.656 22.892 54.062 21.45 54.216L21.87 55.434ZM20.862 45.396C20.722 47.006 20.498 49.848 19.322 51.864C18.958 52.48 18.538 52.998 17.95 52.998C16.956 52.998 16.606 51.388 16.606 50.436C16.606 48.812 17.25 47.244 18.552 46.292C19.266 45.76 20.036 45.55 20.862 45.396ZM38.126 43.184V44.094H36.306V45.018H38.126V46.11H35.564V47.02H38.126V48.14H36.306V49.036H38.126V50.044H36.11V50.954H38.126V52.004H35.732V52.942H38.126V54.188H39.134V52.942H42.466V52.004H39.134V50.954H42.018V50.044H39.134V49.036H41.836V47.02H42.508V46.11H41.836V44.094H39.134V43.184H38.126ZM40.8 46.11H39.134V45.018H40.8V46.11ZM40.8 48.14H39.134V47.02H40.8V48.14ZM38.798 54.692C36.068 54.692 34.822 53.46 34.738 53.362C34.892 52.956 35.536 51.094 35.592 48.056H33.8C34.416 46.978 35.088 45.816 35.564 44.766V43.716H32.764V44.724H34.43C34.094 45.536 33.184 47.258 32.624 48.042V49.064H34.57C34.542 50.1 34.444 51.192 34.052 52.368C33.59 51.402 33.464 50.506 33.38 49.932L32.428 50.072C32.512 50.59 32.75 52.228 33.562 53.474C33.016 54.37 32.54 54.734 32.148 55.042L32.778 56.078C33.184 55.7 33.688 55.238 34.248 54.328C34.64 54.706 36.026 55.784 38.714 55.784H42.452L42.634 54.692H38.798ZM31.826 46.544C32.316 45.2 32.512 44.15 32.652 43.338L31.532 43.156C31.252 45.144 30.51 47.566 29.32 49.008L29.866 50.156C30.16 49.848 30.384 49.61 30.748 48.952V56.148H31.826V46.544ZM55.642 51.066C54.928 51.948 53.808 52.816 53.64 52.942C52.702 52.242 52.198 51.584 51.848 51.094V50.968H55.95V49.036H57.056V48.112H55.95V46.25H51.848V45.592H50.756V46.25H46.822V47.16H50.756V48.112H46.206V45.242H56.972V44.206H51.288V43.184H50.126V44.206H45.072V50.03C45.072 51.43 44.96 51.892 44.806 52.704C44.554 54.02 44.134 54.79 43.896 55.196L44.848 56.19C46.08 53.866 46.206 51.164 46.206 50.128V49.036H50.756V50.072H46.822V50.968H50.756V54.72C50.756 54.902 50.728 55.042 50.406 55.042L48.908 55.028L49.132 56.176H50.826C51.54 56.176 51.848 55.756 51.848 55.14V52.536C53.192 54.202 55.026 55.238 56.524 55.798L57.182 54.72C56.678 54.538 55.726 54.202 54.55 53.53C55.488 52.844 55.95 52.424 56.58 51.752L55.642 51.066ZM54.844 47.16V48.112H51.848V47.16H54.844ZM54.844 49.036V50.072H51.848V49.036H54.844ZM46.836 51.892C47.746 52.312 48.18 52.592 48.796 53.166L49.538 52.312C48.824 51.752 48.362 51.5 47.466 51.08L46.836 51.892ZM50.098 52.886C49.622 53.11 47.522 54.076 45.912 54.58L46.346 55.588C49.328 54.342 49.664 54.202 50.28 53.866L50.098 52.886ZM65.08 48.238C64.296 48.238 63.638 48.868 63.638 49.68C63.638 50.464 64.268 51.122 65.08 51.122C65.892 51.122 66.522 50.45 66.522 49.68C66.522 48.896 65.878 48.238 65.08 48.238ZM85.396 55.084C84.584 54.608 83.212 53.824 81.434 53.082C81.98 52.522 82.904 51.472 83.576 49.33H86.054V48.224H78.466C78.97 47.202 79.152 46.74 79.306 46.362L78.018 46.124C77.85 46.614 77.612 47.272 77.122 48.224H73.146V49.33H76.52C75.75 50.66 75.064 51.472 74.644 51.962C76.828 52.564 78.074 52.984 79.208 53.432C77.458 54.398 75.358 54.748 73.482 54.916L73.888 56.148C77.528 55.77 79.684 54.496 80.454 53.936C82.75 54.93 83.996 55.756 84.626 56.176L85.396 55.084ZM82.344 49.33C82.19 49.792 81.658 51.402 80.314 52.634C78.914 52.102 77.514 51.696 76.506 51.402C76.786 51.038 77.192 50.506 77.864 49.33H82.344ZM73.482 44.444V47.496H74.672V45.522H84.542V47.496H85.732V44.444H80.174V43.184H78.97V44.444H73.482ZM98.25 47.818C99.118 48.364 99.748 48.644 100.238 48.868L100.826 47.72C98.25 46.782 96.178 45.102 94.764 43.198H93.49C91.936 45.368 89.64 46.88 87.414 47.734L88.002 48.882C88.506 48.644 89.094 48.378 90.046 47.804V48.868H93.532V50.996H89.08V52.046H93.532V54.692H87.708V55.812H100.532V54.692H94.722V52.046H99.202V50.996H94.722V48.868H98.25V47.818ZM90.06 47.79C91.614 46.852 92.986 45.62 94.12 44.192C95.618 46.054 97.34 47.23 98.208 47.79H90.06ZM107.674 45.046C107.87 44.346 107.94 44.024 108.024 43.534L106.68 43.478C106.582 44.276 106.484 44.682 106.386 45.046H103.166V46.166H106.05C105.154 48.784 104.034 50.268 102.802 51.43L103.67 52.368C104.118 51.906 105.042 50.674 105.686 49.792C106.666 48.798 107.688 48.364 108.458 48.364C109.102 48.364 109.494 48.644 109.648 49.47C108.262 50.086 105.756 51.346 105.756 53.25C105.756 55.504 108.92 55.504 110.502 55.504C111.832 55.504 113.05 55.42 113.848 55.364L113.806 54.16C112.546 54.3 111.23 54.356 110.11 54.356C108.57 54.356 107.016 54.356 107.016 53.124C107.016 51.976 108.71 51.08 109.788 50.576C109.816 50.94 109.816 51.178 109.816 51.416C109.816 51.92 109.774 52.438 109.746 52.76H110.964C111.006 52.312 111.006 51.892 111.006 51.696C111.006 51.192 110.992 50.59 110.95 50.1C112.49 49.512 113.484 49.204 114.618 48.882L114.282 47.664C113.022 48.098 111.104 48.868 110.782 48.994C110.502 47.664 109.606 47.356 108.654 47.356C107.954 47.356 107.394 47.594 106.414 48.182C106.82 47.482 107.016 47.02 107.338 46.166H113.512V45.046H107.674ZM126.912 46.39V43.73H125.652V46.39H120.766V43.786H119.492V46.39H117.126V47.594H119.492V51.36H120.766V47.594H125.652V49.316C125.652 52.396 123.818 54.006 119.856 54.384L120.318 55.602C122.418 55.35 126.912 54.524 126.912 49.372V47.594H129.334V46.39H126.912ZM138.296 46.138V43.8H137.008V46.138H132.164V47.328H137.008V55.644H138.296V47.328H143.154V46.824C143.994 46.586 144.568 45.83 144.568 44.962C144.568 43.884 143.7 43.016 142.622 43.016C141.558 43.016 140.676 43.884 140.676 44.948C140.676 45.396 140.816 45.802 141.082 46.138H138.296ZM142.622 43.884C143.21 43.884 143.7 44.36 143.7 44.962C143.7 45.55 143.224 46.04 142.622 46.04C142.034 46.04 141.544 45.55 141.544 44.962C141.544 44.36 142.034 43.884 142.622 43.884ZM132.864 54.804C134.544 52.928 134.978 50.646 135.174 48.798L133.984 48.672C133.83 50.394 133.326 52.396 131.842 53.88L132.864 54.804ZM140.186 48.798C140.662 51.668 141.208 53.208 142.468 54.748L143.518 53.936C142.37 52.55 141.782 51.094 141.362 48.658L140.186 48.798ZM146.18 49.008V50.338H158.22V49.008H146.18ZM172.236 50.254C170.22 49.162 168.05 48.084 165.404 47.244V43.66H164.046V55.63H165.404V48.56C168.33 49.568 170.626 50.968 171.578 51.556L172.236 50.254ZM177.25 43.828C177.236 44.78 177.152 49.428 177.152 50.478C177.152 52.914 177.404 55.476 181.24 55.476C185.496 55.476 186.406 52.592 186.854 50.058L185.678 49.624C185.286 51.752 184.824 54.272 181.198 54.272C178.566 54.272 178.482 52.396 178.482 50.604C178.482 49.274 178.538 47.608 178.664 43.828H177.25ZM193.282 54.874C192.694 54.076 191.7 52.9 190.79 52.06L189.726 52.844C190.188 53.334 191.056 54.244 192.05 55.742L193.282 54.874ZM211.344 49.4C211.442 48.798 211.484 48.336 211.484 47.524H215.334V46.502H208.95C209.146 46.124 209.258 45.886 209.482 45.326L208.362 45.088C207.928 46.446 207.102 47.468 206.108 48.266L206.99 49.022C207.536 48.532 207.858 48.182 208.334 47.524H210.392C210.392 48.532 210.322 48.966 210.252 49.4H206.178V50.436H209.916C208.922 52.494 206.696 53.04 205.996 53.208L206.668 54.23C208.264 53.698 210.056 52.788 210.98 50.66C211.33 51.458 212.45 53.236 215.614 54.216L216.23 53.138C213.962 52.634 212.478 51.332 212.002 50.436H215.922V49.4H211.344ZM204.26 43.646V55.882H216.692V54.818H205.45V44.724H216.398V43.646H204.26ZM229.812 49.988C230.246 50.254 230.512 50.38 230.89 50.562L231.422 49.624C231.03 49.484 230.652 49.344 230.022 48.994C230.05 48.952 230.54 48.476 230.974 47.916L230.19 47.44C230.036 47.65 229.7 48.07 229.294 48.504C228.622 47.986 228.272 47.524 227.992 47.174H231.254V46.292H226.158C226.256 46.096 226.312 45.956 226.452 45.606L225.346 45.48C225.234 45.802 225.164 45.984 225.024 46.292H221.664V47.174H224.492C224.1 47.692 223.75 48.056 223.316 48.406C223.19 48.266 222.798 47.832 222.35 47.496L221.706 48.084C222.098 48.392 222.14 48.434 222.602 48.924C222.126 49.246 221.762 49.428 221.272 49.666L221.888 50.506C222.196 50.324 222.294 50.268 222.588 50.086V52.998H225.598V54.804C225.598 55.084 225.556 55.14 225.276 55.14H223.946L224.184 56.148H225.696C226.13 56.148 226.732 56.12 226.732 55.252V52.998H229.812V49.988ZM228.79 50.534H223.61V49.694H228.79V50.534ZM224.184 48.882C225.094 48.056 225.486 47.44 225.654 47.174H226.844C227.152 47.622 227.502 48.154 228.314 48.882H224.184ZM228.79 52.186H223.61V51.304H228.79V52.186ZM220.11 49.064C220.11 49.456 220.096 49.722 220.096 49.946C219.396 50.296 219.074 50.45 218.108 50.828L218.346 51.976C218.766 51.766 219.298 51.5 219.998 51.038C219.69 53.642 218.92 54.65 218.29 55.434L219.144 56.19C219.704 55.518 221.216 53.712 221.216 49.106V45.298H231.296V44.318H226.088V43.184H224.94V44.318H220.11V49.064ZM219.816 47.86C219.676 47.146 219.382 46.166 218.976 45.368L218.108 45.788C218.43 46.586 218.682 47.482 218.836 48.322L219.816 47.86ZM221.3 55.938C222.238 55.588 223.106 55.126 224.296 53.964L223.484 53.292C222.49 54.244 221.804 54.622 220.684 55L221.3 55.938ZM227.866 53.978C228.622 54.832 229.812 55.574 230.89 55.952L231.506 55C230.204 54.538 229.616 54.202 228.608 53.236L227.866 53.978ZM234.574 43.954C234.126 46.054 233.986 48.294 233.986 50.604C233.986 53.278 234.224 54.678 234.35 55.49L235.708 55.378C235.596 54.874 235.274 53.53 235.274 50.408C235.274 46.88 235.694 45.046 235.904 44.066L234.574 43.954ZM238.032 45.088V46.32H244.612V45.088H238.032ZM238.34 49.722C237.85 50.548 237.598 51.346 237.598 52.074C237.598 54.482 240.188 54.678 242.26 54.678C243.45 54.678 244.43 54.594 244.906 54.552V53.236C243.618 53.376 242.47 53.404 241.7 53.404C240.202 53.404 238.774 53.236 238.774 51.962C238.774 51.836 238.788 51.038 239.474 50.072L238.34 49.722ZM252.006 54.678C253.7 54.664 255.268 54.468 256.458 53.978C259.44 52.774 259.79 50.408 259.79 49.33C259.79 47.23 258.46 45.13 255.184 45.13C254.022 45.13 252.678 45.354 251.348 45.592C250.774 45.69 248.058 46.166 247.736 46.208L248.044 47.622C250.41 47.034 253.42 46.362 255.1 46.362C257.83 46.362 258.446 48.028 258.446 49.344C258.446 50.73 257.718 51.738 256.962 52.284C255.59 53.264 253.98 53.46 251.67 53.474L252.006 54.678ZM262.942 44.374C262.858 45.326 262.718 46.852 262.718 48.378C262.718 52.018 263.348 55.154 265.616 55.154C266.33 55.154 266.848 54.818 267.184 54.482C267.968 53.698 268.612 52.522 269.074 51.22L268.038 50.632C267.072 53.152 266.344 53.726 265.714 53.726C264.146 53.726 263.978 50.66 263.978 48.49C263.978 46.6 264.16 45.326 264.272 44.486L262.942 44.374ZM274.226 53.768C274.422 48.168 272.98 46.194 271.314 44.794L270.348 45.536C271.804 46.726 272.896 48.742 272.896 52.396C272.896 53.04 272.868 53.46 272.84 53.824L274.226 53.768ZM288.606 44.472C285.162 44.5 283.874 44.528 280.738 44.696C280.024 44.738 277.784 44.836 276.944 44.864L277.056 46.236C278.582 46.054 283.426 45.76 283.832 45.746C282.18 46.712 279.73 48.546 279.73 51.206C279.73 55.126 284.378 55.322 287.136 55.434L287.388 54.076C286.184 54.118 284.84 54.034 283.86 53.824C282.376 53.516 281.032 52.942 281.032 51.122C281.032 48.714 283.776 46.544 285.792 45.872C286.212 45.732 286.506 45.704 287.206 45.704C287.752 45.704 288.158 45.718 288.634 45.76L288.606 44.472ZM297.75 55.434C299.304 55.28 300.704 54.804 301.614 54.048C302.888 52.984 303.49 51.332 303.49 49.666C303.49 47.3 302.272 44.164 297.736 44.164C294.04 44.164 291.268 46.6 291.268 50.408C291.268 52.718 292.416 54.342 293.788 54.342C294.418 54.342 295.314 54.02 296.14 52.718C297.582 50.408 297.862 46.964 297.988 45.34C301.838 45.466 302.174 48.546 302.174 49.652C302.174 53.656 298.772 54.062 297.33 54.216L297.75 55.434ZM296.742 45.396C296.602 47.006 296.378 49.848 295.202 51.864C294.838 52.48 294.418 52.998 293.83 52.998C292.836 52.998 292.486 51.388 292.486 50.436C292.486 48.812 293.13 47.244 294.432 46.292C295.146 45.76 295.916 45.55 296.742 45.396ZM312.172 46.53C312.424 46.124 312.704 45.662 313.11 44.822H318.374V43.674H305.438V44.822H311.864C310.8 47.09 308.728 49.498 305.284 51.08L305.984 52.186C306.978 51.682 309.092 50.548 311.262 47.804V56.176H312.48V46.53H312.172ZM318.57 51.136C316.442 49.834 315.014 48.364 313.824 46.88L312.97 47.552C314.678 49.708 315.602 50.646 317.73 52.186L318.57 51.136ZM332.236 55.084C331.424 54.608 330.052 53.824 328.274 53.082C328.82 52.522 329.744 51.472 330.416 49.33H332.894V48.224H325.306C325.81 47.202 325.992 46.74 326.146 46.362L324.858 46.124C324.69 46.614 324.452 47.272 323.962 48.224H319.986V49.33H323.36C322.59 50.66 321.904 51.472 321.484 51.962C323.668 52.564 324.914 52.984 326.048 53.432C324.298 54.398 322.198 54.748 320.322 54.916L320.728 56.148C324.368 55.77 326.524 54.496 327.294 53.936C329.59 54.93 330.836 55.756 331.466 56.176L332.236 55.084ZM329.184 49.33C329.03 49.792 328.498 51.402 327.154 52.634C325.754 52.102 324.354 51.696 323.346 51.402C323.626 51.038 324.032 50.506 324.704 49.33H329.184ZM320.322 44.444V47.496H321.512V45.522H331.382V47.496H332.572V44.444H327.014V43.184H325.81V44.444H320.322ZM340.96 48.238C340.176 48.238 339.518 48.868 339.518 49.68C339.518 50.464 340.148 51.122 340.96 51.122C341.772 51.122 342.402 50.45 342.402 49.68C342.402 48.896 341.758 48.238 340.96 48.238ZM1.204 70.128C1.512 68.98 1.638 67.16 1.652 66.194L0.756 66.11C0.756 66.81 0.672 68.42 0.28 69.68L1.204 70.128ZM2.226 63.184V76.176H3.36V63.184H2.226ZM5.068 67.86C4.998 67.622 4.69 66.544 4.34 65.746L3.5 66.082C3.794 66.81 4.018 67.636 4.13 68.224L5.068 67.86ZM13.062 68.112H11.956V74.874H6.02V68.112H4.914V75.882H13.062V68.112ZM10.108 67.706C9.786 68.77 9.492 69.344 9.128 70.03C8.428 69.316 8.008 68.924 7.378 68.448L6.65 69.162C7.49 69.848 7.952 70.31 8.568 70.954C7.938 71.892 7.392 72.578 6.398 73.376L7.168 74.174C8.4 73.11 8.89 72.438 9.324 71.808C9.758 72.298 10.094 72.718 10.71 73.642L11.536 72.9C11.144 72.298 10.794 71.808 9.926 70.87C10.332 70.156 10.696 69.47 11.102 68.14L10.108 67.706ZM9.716 66.068C9.38 64.766 8.764 63.548 8.596 63.212L7.56 63.506C7.644 63.674 8.358 65.158 8.638 66.404L9.716 66.068ZM11.774 67.3C12.46 66.348 13.146 64.934 13.468 63.898L12.418 63.436C12.25 63.926 11.746 65.452 10.808 66.81L11.774 67.3ZM7.084 66.614C6.734 65.69 6.132 64.598 5.544 63.8L4.578 64.206C5.194 65.088 5.726 66.18 6.048 67.006L7.084 66.614ZM21.758 75.686C24.74 74.622 25.454 72.284 25.79 70.912C26.49 71.22 26.728 71.346 27.358 71.724L27.778 70.464C26.91 69.988 26.098 69.68 26.056 69.666C26.266 68.546 26.378 67.328 26.476 66.32L25.146 66.222C25.118 66.866 25.048 67.86 24.838 69.232C23.564 68.812 22.64 68.588 21.464 68.49C21.926 65.732 21.968 65.424 22.15 64.024H16.354V65.242L20.736 65.2C20.652 66.194 20.47 67.44 20.274 68.448C15.696 68.63 15.444 71.64 15.444 72.326C15.444 73.824 16.424 74.72 17.768 74.72C19.882 74.72 20.498 72.718 21.254 69.596C22.514 69.708 23.704 70.072 24.614 70.422C24.124 72.452 23.396 73.852 20.988 74.72L21.758 75.686ZM20.064 69.526C19.322 72.564 18.944 73.614 17.684 73.614C16.62 73.614 16.55 72.522 16.55 72.256C16.55 71.304 17.124 70.394 18.034 69.946C18.65 69.638 19.238 69.554 20.064 69.526ZM36.04 68.238C35.256 68.238 34.598 68.868 34.598 69.68C34.598 70.464 35.228 71.122 36.04 71.122C36.852 71.122 37.482 70.45 37.482 69.68C37.482 68.896 36.838 68.238 36.04 68.238ZM44.05 64.388V65.48H47.172V66.908H48.306V65.48H52.786V66.908H53.906V65.48H57.07V64.388H53.906V63.17H52.786V64.388H48.306V63.17H47.172V64.388H44.05ZM57.07 67.804H51.106V66.264H49.944V67.804H44.05V68.882H49.944V70.688H45.464V75.91H55.628V70.688H51.106V68.882H57.07V67.804ZM54.466 74.888H46.626V71.724H54.466V74.888ZM67.81 68.882C67.712 68.812 67.586 68.714 67.502 68.658C67.824 68.504 69.266 67.832 70.526 66.81V66.068H62.462V66.908H68.636C67.88 67.468 67.488 67.692 66.648 68.112C66.438 67.972 65.682 67.524 64.912 67.174L64.24 67.93C65.164 68.308 65.682 68.574 66.102 68.882H62.714V76.19H63.806V73.866H66.27V76.148H67.348V73.866H69.966V74.748C69.966 75 69.84 75.042 69.644 75.042H68.482L68.692 76.19H70.078C71.044 76.19 71.044 75.49 71.044 75.07V68.882H67.81ZM66.27 70.912H63.806V69.778H66.27V70.912ZM66.27 72.984H63.806V71.78H66.27V72.984ZM69.966 70.912H67.348V69.778H69.966V70.912ZM69.966 72.984H67.348V71.78H69.966V72.984ZM60.754 69.218C60.754 69.54 60.74 69.736 60.726 69.932C60.6 70.016 59.578 70.576 58.472 70.996L58.752 72.144C59.242 71.892 59.718 71.654 60.642 71.094C60.39 73.194 59.984 74.286 58.99 75.448L59.914 76.232C60.544 75.476 61.846 73.922 61.846 68.994V65.284H71.52V64.29H66.396V63.156H65.22V64.29H60.754V69.218ZM60.432 67.902C60.25 67.174 59.872 66.138 59.466 65.382L58.542 65.886C58.864 66.516 59.27 67.58 59.466 68.378L60.432 67.902ZM78.634 65.046C78.83 64.346 78.9 64.024 78.984 63.534L77.64 63.478C77.542 64.276 77.444 64.682 77.346 65.046H74.126V66.166H77.01C76.114 68.784 74.994 70.268 73.762 71.43L74.63 72.368C75.078 71.906 76.002 70.674 76.646 69.792C77.626 68.798 78.648 68.364 79.418 68.364C80.062 68.364 80.454 68.644 80.608 69.47C79.222 70.086 76.716 71.346 76.716 73.25C76.716 75.504 79.88 75.504 81.462 75.504C82.792 75.504 84.01 75.42 84.808 75.364L84.766 74.16C83.506 74.3 82.19 74.356 81.07 74.356C79.53 74.356 77.976 74.356 77.976 73.124C77.976 71.976 79.67 71.08 80.748 70.576C80.776 70.94 80.776 71.178 80.776 71.416C80.776 71.92 80.734 72.438 80.706 72.76H81.924C81.966 72.312 81.966 71.892 81.966 71.696C81.966 71.192 81.952 70.59 81.91 70.1C83.45 69.512 84.444 69.204 85.578 68.882L85.242 67.664C83.982 68.098 82.064 68.868 81.742 68.994C81.462 67.664 80.566 67.356 79.614 67.356C78.914 67.356 78.354 67.594 77.374 68.182C77.78 67.482 77.976 67.02 78.298 66.166H84.472V65.046H78.634ZM91.418 64.654C92.244 64.514 92.692 64.402 93.448 64.206L93.028 63.184C91.208 63.674 89.654 63.884 87.61 63.94L87.848 64.99C88.982 64.948 89.556 64.892 90.284 64.808V66.866H87.582V67.902H90.144C89.71 68.896 88.842 70.716 87.4 72.13L87.904 73.46C89.206 72.046 89.906 70.73 90.284 69.89V76.176H91.418V69.624C91.936 70.576 92.468 71.318 93.126 71.962L93.7 70.856C92.552 69.876 91.782 68.644 91.418 67.944V67.902H93.672V66.866H91.418V64.654ZM100.14 64.08H94.176V75.798H100.14V64.08ZM98.992 74.706H95.296V65.144H98.992V74.706ZM112.14 64.528C109.998 63.828 107.604 63.702 106.4 63.646L106.176 64.85C108.066 64.92 110.124 65.186 111.79 65.858L112.14 64.528ZM104.468 65.648C104.286 66.376 104.16 67.146 104.104 68.448C104.09 68.868 104.048 70.968 104.048 71.444L105.294 71.486C105.308 71.416 105.322 71.374 105.364 71.234C106.288 70.016 108.164 69.218 110.04 69.218C111.888 69.218 112.63 70.226 112.63 71.318C112.63 71.892 112.476 72.55 112.084 72.97C111.244 73.894 109.564 74.272 107.632 74.272C106.694 74.272 105.84 74.188 104.902 74.02L105.042 75.252C105.616 75.336 106.442 75.448 107.73 75.448C110.726 75.448 113.96 74.692 113.96 71.332C113.96 70.17 113.358 68.084 110.11 68.084C108.29 68.084 106.722 68.672 105.294 69.806C105.294 67.748 105.406 66.936 105.728 65.872L104.468 65.648ZM121.886 75.7C124.854 75.126 126.576 74.104 126.576 69.596C126.576 69.358 126.548 68.406 126.534 68.028H129.026V66.852H126.464C126.436 66.418 126.324 64.388 126.282 63.842L125.078 63.87C125.12 64.612 125.19 66.222 125.218 66.852H120.5V68.028H125.26C125.274 68.462 125.288 69.12 125.288 69.414C125.288 73.236 124.112 74.048 121.424 74.566L121.886 75.7ZM126.506 63.268C126.954 64.29 127.192 65.144 127.36 66.166L128.368 65.802C128.102 64.682 127.934 64.01 127.444 62.946L126.506 63.268ZM128.41 62.904C128.858 63.926 129.054 64.612 129.264 65.788L130.272 65.424C129.95 64.094 129.838 63.632 129.348 62.568L128.41 62.904ZM118.078 63.87C117.798 65.956 117.658 68.056 117.658 70.156C117.658 71.892 117.728 73.642 118.092 75.35L119.394 75.182C119.016 73.418 118.918 71.654 118.918 70.03C118.918 67.118 119.24 65.046 119.422 63.954L118.078 63.87ZM138.66 65.242V63.772H137.428V65.242H132.108V66.32H137.428V68.056H132.318V69.12H137.428V70.772C137.134 70.716 136.658 70.632 136.028 70.632C133.942 70.632 132.5 71.696 132.5 73.166C132.5 74.062 133.088 75.518 135.818 75.518C136.994 75.518 138.66 75.14 138.66 73.138V72.34C139.43 72.69 140.662 73.334 142.02 74.832L142.846 73.628C141.376 72.396 140.144 71.626 138.66 71.08V69.12H142.86V68.056H138.66V66.32H143.126V65.242H138.66ZM137.428 72.886C137.428 73.992 136.882 74.426 135.664 74.426C133.816 74.426 133.676 73.39 133.676 73.124C133.676 72.2 134.726 71.668 136.028 71.668C136.742 71.668 137.148 71.78 137.428 71.864V72.886ZM154.398 65.2V63.632H153.11L153.138 65.2H146.25V66.362H153.152L153.166 67.874C152.872 67.622 152.536 67.314 151.598 67.314C149.862 67.314 148.7 68.518 148.7 70.156C148.7 71.514 149.568 72.9 151.304 72.9C152.914 72.9 153.376 71.85 153.516 71.556C153.334 73.222 152.298 74.51 148.56 74.468L148.952 75.644C151.388 75.546 154.664 74.874 154.664 71.178C154.664 70.814 154.636 70.45 154.58 70.1C154.538 69.764 154.468 69.442 154.398 69.176V66.362H158.066V65.2H154.398ZM153.194 70.254C153.194 71.178 152.466 71.878 151.472 71.878C150.17 71.878 149.876 70.688 149.876 70.1C149.876 68.812 150.856 68.364 151.626 68.364C152.858 68.364 153.082 69.19 153.194 69.638V70.254ZM162.814 71.542C161.666 71.542 160.728 72.466 160.728 73.628C160.728 74.776 161.652 75.714 162.814 75.714C163.962 75.714 164.9 74.776 164.9 73.628C164.9 72.452 163.948 71.542 162.814 71.542ZM162.814 72.242C163.556 72.242 164.186 72.844 164.186 73.628C164.186 74.384 163.57 75 162.814 75C162.044 75 161.428 74.384 161.428 73.628C161.428 72.858 162.058 72.242 162.814 72.242Z" fill="black"/>
</svg>
