<svg width="200" height="18" viewBox="0 0 200 18" fill="none" xmlns="http://www.w3.org/2000/svg">
<path d="M4.147 6.382L2.769 5.784C2.34 6.72 1.3 8.371 0.117 9.151L0.689 11.036C0.975 10.828 1.144 10.698 1.521 10.334V15.183H3.055V8.436C3.315 8.046 3.718 7.448 4.147 6.408V7.578C4.147 11.66 3.614 12.804 3.12 13.649L4.212 15.092C5.265 13.61 5.629 10.893 5.629 7.877V6.954H8.008V7.708H5.967V14.988H12.051V7.708H9.529V6.954H12.623V5.654H9.529V4.705C11.102 4.51 11.531 4.419 12.285 4.198L11.583 2.846C10.205 3.288 6.942 3.652 4.147 3.613V6.382ZM10.569 11.712H7.423V10.854H10.569V11.712ZM10.569 9.736H7.423V8.891H10.569V9.736ZM10.569 13.805H7.423V12.83H10.569V13.805ZM5.629 4.991C6.799 4.939 7.176 4.913 8.008 4.848V5.654H5.629V4.991ZM2.509 2.833C2.08 3.691 1.157 4.757 0.104 5.394L0.78 6.98C2.652 5.797 3.705 3.86 3.991 3.327L2.509 2.833ZM17.78 3.301V6.473H25.801V3.301H17.78ZM22.265 4.367V5.42H21.277V4.367H22.265ZM20.146 4.367V5.42H19.158V4.367H20.146ZM24.436 4.367V5.42H23.383V4.367H24.436ZM23.955 9.671V10.568H19.522V9.671H23.955ZM25.45 8.657H18.04V11.569H19.834C18.729 12.427 17.741 12.986 16.038 13.519L16.831 14.962C18.04 14.481 18.872 14.013 20.042 13.129V15.183H21.602V12.336C22.967 14.091 24.852 14.936 25.502 15.235L26.217 13.87C25.632 13.636 25.32 13.48 24.969 13.298C25.788 12.661 26.074 12.284 26.23 12.089L25.45 11.53V8.657ZM24.878 11.569C24.566 11.894 24.228 12.206 23.773 12.557C23.175 12.141 22.837 11.829 22.577 11.569H24.878ZM13.854 14.039C15.154 13.701 16.48 13.181 17.494 12.713L17.416 11.257C17.13 11.374 16.883 11.465 16.376 11.621V9.06H17.143V7.539H16.376V5.043H17.403V3.509H13.854V5.043H14.855V7.539H13.997V9.06H14.855V12.05C14.335 12.18 14.075 12.232 13.672 12.323L13.854 14.039ZM17.364 6.941V8.176H26.1V6.941H17.364ZM30.893 10.646C31.088 10.516 31.751 10.035 32.44 9.268H34.455C35.105 9.983 35.495 10.295 35.989 10.646H33.922V14.923H38.745V12.063C38.836 12.089 39.018 12.167 39.148 12.206L39.785 10.75C37.939 10.295 37.198 9.788 36.561 9.268H39.564V7.877H33.389C33.532 7.591 33.597 7.435 33.74 7.071L32.7 6.863H32.817V3.301H28.072V6.863H32.128C31.959 7.305 31.803 7.565 31.608 7.877H27.396V9.268H30.308C29.125 10.178 27.929 10.542 27.266 10.75L27.812 12.245C28.033 12.167 28.098 12.141 28.202 12.102V14.923H32.882V10.646H30.893ZM31.387 5.654H29.502V4.549H31.387V5.654ZM37.328 13.649H35.352V11.868H37.328V13.649ZM31.478 13.649H29.619V11.868H31.478V13.649ZM34.026 3.301V6.863H38.901V3.301H34.026ZM37.458 5.654H35.469V4.549H37.458V5.654ZM43.967 12.024C44.903 11.426 46.333 10.074 46.996 8.189C47.555 9.762 48.387 10.88 49.96 12.037L50.857 10.763V13.207C50.857 13.467 50.714 13.519 50.519 13.519H48.673L48.946 15.17H51.325C52.378 15.17 52.482 14.338 52.482 14V4.705H47.815V2.924H46.164V4.705H41.458V15.17H43.083V10.75L43.967 12.024ZM46.034 6.265C45.683 8.033 44.604 9.58 43.083 10.542V6.265H46.034ZM50.857 10.568C48.465 8.943 48.049 7.24 47.893 6.265H50.857V10.568ZM59.407 11.049L59.602 12.648L63.853 11.777V15.183H65.504V11.439L66.7 11.192L66.544 9.58L65.504 9.801V2.937H63.853V10.139L59.407 11.049ZM56.404 6.33H54.324V7.825H56.248C55.676 9.073 54.935 10.23 54.025 11.01L54.636 12.986C55.052 12.44 55.663 11.634 56.404 10.165V15.183H57.938V10.1C58.12 10.477 58.289 10.75 58.757 11.374L59.615 9.931C59.121 9.476 58.523 8.891 57.938 7.929V7.825H59.433V6.33H57.938V4.731C58.965 4.588 59.251 4.51 59.654 4.393L59.043 2.885C57.561 3.353 55.338 3.496 54.246 3.496L54.493 4.952C54.909 4.952 55.325 4.939 56.404 4.874V6.33ZM60.356 4.549C61.409 5.251 61.773 5.602 62.566 6.499L63.658 5.264C63.034 4.523 62.215 3.86 61.305 3.405L60.356 4.549ZM59.68 7.838C60.395 8.28 61.279 8.956 61.916 9.723L63.021 8.514C62.319 7.76 61.734 7.292 60.681 6.681L59.68 7.838Z" fill="black"/>
</svg>
