<svg width="342" height="40" viewBox="0 0 342 40" fill="none" xmlns="http://www.w3.org/2000/svg">
<path d="M1.92 1.45V5.31C1.01 5.72 0.87 5.79 0.21 6.01L0.44 6.83C0.69 6.72 1.23 6.47 1.85 6.1C1.58 8.03 0.77 8.9 0.43 9.26L1.11 9.82C1.57 9.27 2.72 7.93 2.72 4.88V2.2H9.66V1.45H5.94V0.569999H5.12V1.45H1.92ZM1.62 3.88C1.47 3.25 1.3 2.75 0.94 2.11L0.27 2.45C0.42 2.72 0.7 3.22 0.9 4.24L1.62 3.88ZM9.44 3.25H3.11V3.98H5.92V8.85H4.51V4.93H3.68V8.85H2.38V9.6H9.61V8.85H6.73V6.56H9.12V5.83H6.73V3.98H9.44V3.25ZM20.11 9C19.49 8.61 17.76 7.51 17.13 4.06H19.99V3.26H17.09V0.569999H16.23V3.26H13.74V4.06H16.2C16.16 4.59 16.05 5.12 15.91 5.64C15.47 7.29 14.73 8.29 13.5 9.08L13.97 9.83C15.74 8.58 16.4 7.06 16.77 5.72C17.26 7.16 17.96 8.73 19.63 9.79L20.11 9ZM12.48 0.569999V5.67C11.73 6.22 10.86 6.7 10.57 6.86L10.82 7.75C11.23 7.55 12.11 7 12.48 6.68V9.83H13.31V0.569999H12.48ZM12.18 3.83C12 3.15 11.69 2.43 11.36 1.84L10.64 2.16C11.03 2.9 11.2 3.32 11.43 4.15L12.18 3.83ZM19.51 2.39C19.35 2.13 18.95 1.45 18.26 0.73L17.63 1.15C18.12 1.67 18.6 2.42 18.82 2.81L19.51 2.39ZM24.62 9.88C25.27 9.68 26.8 9.15 27.48 7.4C27.74 8.04 28.49 9.28 30.15 9.85L30.55 9.1C29.84 8.87 28.71 8.44 28.09 7.03H30.05V4.26H27.8V3.34H29.2V2.97C29.48 3.18 29.73 3.34 30.14 3.58L30.58 2.86C28.88 2 28.28 1.2 27.89 0.54H26.91C26.14 1.65 25.44 2.27 24.28 2.87L24.68 3.59C24.94 3.46 25.22 3.31 25.67 2.98V3.34H27.01V4.26H24.76V7.03H26.79C26.35 8.58 24.67 9.03 24.21 9.15L24.62 9.88ZM27.8 4.95H29.28V6.34H27.74C27.78 6.07 27.8 5.81 27.8 5.18V4.95ZM27.01 5.2C27.01 5.78 26.99 6.07 26.95 6.34H25.55V4.95H27.01V5.2ZM26.06 2.65C26.64 2.12 27.16 1.45 27.4 1.15C27.64 1.46 28.16 2.13 28.79 2.65H26.06ZM24.59 5.61C23.82 4.78 23.46 4 23.32 3.64V3.26H24.19V2.5H23.32V0.56H22.53V2.5H21.13V3.26H22.47C21.95 5.38 21.33 6.18 20.96 6.66L21.31 7.65C21.88 6.87 22.28 5.98 22.53 5.04V9.84H23.32V4.84C23.56 5.44 23.79 5.81 24.18 6.36L24.59 5.61ZM37.29 3.81C37.02 4.12 36.63 4.59 35.56 5.56C35.45 5.47 35.26 5.32 34.77 5C34.81 4.96 35.52 4.35 36.04 3.66H39.77V4.84H40.6V2.94H36.55V2.09H40.6V1.35H36.55V0.579999H35.73V1.35H31.72V2.09H35.73V2.94H31.68V4.84H32.5V3.66H34.98C34.8 3.91 34.64 4.13 34.14 4.6C33.78 4.37 33.67 4.32 33.48 4.22L32.97 4.83C34.03 5.34 34.82 5.92 35 6.07C34.91 6.15 34.84 6.21 34.65 6.36C34.2 6.37 32.02 6.39 31.53 6.38L31.59 7.15C32.18 7.15 35.08 7.09 35.73 7.08V9.82H36.56V7.04L39.41 6.89C39.77 7.24 39.93 7.44 40.09 7.65L40.66 7.08C40.38 6.75 39.73 5.97 38.38 4.99L37.8 5.51C38.04 5.68 38.2 5.79 38.73 6.25C36.7 6.32 36.47 6.33 35.78 6.36C37.06 5.24 37.47 4.87 38 4.27L37.29 3.81ZM31.99 9.72C32.52 9.46 33.66 8.88 34.58 7.8L33.93 7.35C33.05 8.36 31.76 8.93 31.47 9.06L31.99 9.72ZM37.56 7.76C38.03 8.25 38.78 8.98 40.32 9.67L40.83 8.96C39.67 8.52 38.92 8.05 38.14 7.28L37.56 7.76ZM46.98 2.63H50.13V1.76H42.9V2.63H46.03V7.77H42.36V8.66H50.67V7.77H46.98V2.63ZM56.58 2.98C56.32 2.82 55.22 2.11 53.45 1.58L53 2.38C54.44 2.83 55.49 3.42 56.08 3.82L56.58 2.98ZM53.39 9.16C59.15 8.78 60.75 4.11 61.23 2.69L60.45 2.11C59.76 4.35 58.27 7.89 53.21 8.16L53.39 9.16ZM67.37 2.33C66.58 1.95 65.6 1.5 64.44 1.24L64.08 2C65.11 2.29 66.07 2.65 66.99 3.16L67.37 2.33ZM66.55 4.67C65.78 4.22 64.58 3.76 63.66 3.54L63.31 4.33C64.75 4.75 65.66 5.22 66.18 5.52L66.55 4.67ZM68.98 0.69C69.44 1.48 69.58 1.82 69.85 2.65L70.55 2.3C70.22 1.42 70.03 0.96 69.63 0.36L68.98 0.69ZM70.65 0.59C71.08 1.35 71.24 1.77 71.49 2.57L72.2 2.23C71.9 1.33 71.63 0.79 71.31 0.28L70.65 0.59ZM64.05 9.22C68.13 8.69 70.07 7.15 71.37 3.44L70.59 2.87C69.49 6.34 67.81 7.85 63.83 8.24L64.05 9.22ZM77.34 2.98C77.08 2.82 75.98 2.11 74.21 1.58L73.76 2.38C75.2 2.83 76.25 3.42 76.84 3.82L77.34 2.98ZM74.15 9.16C79.91 8.78 81.51 4.11 81.99 2.69L81.21 2.11C80.52 4.35 79.03 7.89 73.97 8.16L74.15 9.16ZM90.87 9.81V1.24H92.79V0.439999H90.07V9.81H90.87ZM100.1 7.67C100.69 5.18 100.89 2.66 100.96 1.88H95.43V2.77H99.94C99.88 3.49 99.69 5.6 99.14 7.67H94.16V8.56H102.63V7.67H100.1ZM106.35 1.25H105.43V7.58C105.43 8.85 106.05 9.1 107.54 9.1H110.34C110.97 9.1 111.92 9.07 112.53 8.97L112.48 8.07C111.84 8.19 111.04 8.23 110.24 8.23H107.67C106.53 8.23 106.35 8.15 106.35 7.43V5.22C107.4 5 109.23 4.54 111.42 3.54L111.01 2.7C109.51 3.47 108.13 3.94 106.35 4.35V1.25ZM110.7 0.949999C111.15 1.64 111.38 2.08 111.68 2.87L112.36 2.47C112.04 1.73 111.79 1.22 111.34 0.59L110.7 0.949999ZM112.23 0.479999C112.73 1.24 112.9 1.6 113.2 2.4L113.88 2.01C113.59 1.3 113.31 0.719999 112.87 0.119999L112.23 0.479999ZM114.88 4.72V5.67H123.48V4.72H114.88ZM126.73 0.59V9.16H124.81V9.96H127.53V0.59H126.73ZM142.14 2.73L142.12 1.04H141.21L141.24 2.73H138.24V3.59H141.26L141.3 5.95C141.02 5.87 140.77 5.8 140.27 5.8C139 5.8 138.08 6.51 138.08 7.55C138.08 8.36 138.66 9.27 140.22 9.27C142.13 9.27 142.14 8.14 142.14 7.57V7.2C142.69 7.55 143.19 7.97 143.59 8.5L144.18 7.69C143.72 7.2 142.98 6.63 142.17 6.23L142.14 3.59H144.01V2.73H142.14ZM141.3 7.39C141.3 7.93 141.26 8.52 140.17 8.52C139.64 8.52 138.88 8.33 138.88 7.56C138.88 6.81 139.61 6.55 140.28 6.55C140.79 6.55 141.07 6.67 141.3 6.77V7.39ZM136.33 1.02C136.06 2.58 135.96 4.03 135.96 5.61C135.96 6.84 136 8.08 136.24 9.29L137.14 9.17C136.88 8.03 136.83 6.85 136.83 5.68C136.83 3.44 137.07 2.09 137.26 1.09L136.33 1.02ZM153.15 9.81V1.24H155.07V0.439999H152.35V9.81H153.15ZM161.47 0.56V1.19H158.48V1.87H159.94C159.97 1.95 160.15 2.62 160.19 2.78H158.81V8.31H159.57V3.43H161.51V4.18H159.88V4.8H161.51V5.49H160.24V7.56H163.52V5.49H162.24V4.8H163.86V4.18H162.24V3.43H164.17V7.44C164.17 7.67 164.08 7.69 163.95 7.69L163.02 7.68L163.13 8.44H164.19C164.71 8.44 164.93 8.15 164.93 7.67V2.78H163.47C163.61 2.44 163.69 2.21 163.79 1.87H165.3V1.19H162.28V0.56H161.47ZM160.91 2.78C160.82 2.39 160.81 2.34 160.69 1.87H163.06C163.03 2 162.88 2.52 162.77 2.78H160.91ZM162.83 6.95H160.92V6.09H162.83V6.95ZM160.28 8.83C159.99 8.83 158.17 8.69 157.97 7.47V4.44H156.1V5.26H157.18V8.08C156.74 8.55 156.17 8.92 155.99 9.03L156.39 9.88C157.1 9.26 157.15 9.2 157.79 8.47C158.01 8.76 158.63 9.6 160.27 9.6H165.27L165.43 8.83H160.28ZM158.33 2.36C157.85 1.69 157.27 1.1 156.8 0.7L156.25 1.2C157.15 2.08 157.5 2.62 157.68 2.89L158.33 2.36ZM167.35 3.36L166.32 3.53L166.37 4.34L167.35 4.18V7.38C167.35 7.86 167.6 8.11 168.07 8.11H169.24C170.06 8.11 170.25 7.32 170.41 6.01L169.6 5.82C169.58 6.2 169.51 7.34 169.08 7.34H168.46C168.21 7.34 168.16 7.27 168.16 7.05V4.05L170.36 3.69L170.31 2.87L168.16 3.22V0.569999H167.35V3.36ZM170.08 1V1.81H171.87C171.87 5.32 171.55 7.57 168.63 9.13L169.21 9.85C171.98 8.16 172.67 6.18 172.71 1.81H174.6C174.6 2.95 174.6 7.85 174.07 8.71C173.9 8.99 173.57 8.98 173.47 8.98L171.98 8.97L172.16 9.82H173.61C174.5 9.82 174.77 9.36 174.89 9.11C175.44 7.93 175.44 3.44 175.44 1H170.08ZM183.75 3.74H182.85L182.91 5.88C182.69 5.83 182.37 5.76 181.87 5.76C180.1 5.76 179.52 6.87 179.52 7.62C179.52 8.55 180.26 9.38 181.76 9.38C182.75 9.38 183.76 9.02 183.76 7.54V7.13C184.12 7.34 184.73 7.71 185.38 8.49L185.93 7.7C185.44 7.16 184.64 6.54 183.8 6.17L183.75 3.74ZM182.93 7.38C182.93 8.06 182.78 8.6 181.79 8.6C181.6 8.6 180.37 8.6 180.37 7.59C180.37 7.03 180.85 6.52 181.87 6.52C182.4 6.52 182.7 6.63 182.93 6.71V7.38ZM179.96 2.2C180.09 1.47 180.1 1.41 180.18 0.93L179.23 0.89C179.19 1.29 179.16 1.51 179.05 2.2H177.2V3.04H178.89C178.63 4.16 178.19 6.12 177.12 7.84L178.04 8.24C178.4 7.5 179.22 5.83 179.79 3.04H182.06V2.2H179.96ZM185.76 2.98C184.7 2.39 184.03 2.09 183.03 1.74L182.68 2.48C183.58 2.81 184.33 3.17 185.34 3.78L185.76 2.98ZM188.33 5.17C189.03 4.73 189.31 4.45 189.6 4.16C191.07 4.9 191.95 5.52 192.78 6.23C191.64 7.48 190.09 8.22 188.45 8.61L188.88 9.44C194.88 7.88 195.4 3.1 195.58 1.47H190.41C189.81 2.8 188.93 3.73 187.74 4.47L188.33 5.17ZM194.55 2.3C194.32 3.85 193.86 4.77 193.33 5.55C192.34 4.7 191.19 4.08 190.15 3.56C190.42 3.23 190.6 3 191.01 2.3H194.55ZM203.29 4.06C204.69 2.94 205.52 1.97 205.96 1.45L205.12 0.899999C203.26 3.24 200.8 5.05 197.95 5.94L198.39 6.77C199.67 6.32 200.97 5.72 202.33 4.77V9.43H203.29V4.06ZM215.97 2.01C213.64 1.48 211.84 1.26 209.43 1.12L209.28 1.95C211.76 2.08 213.71 2.37 215.8 2.93L215.97 2.01ZM215.45 5.04C213.79 4.54 212.2 4.2 209.38 3.99L209.21 4.82C211.71 5.01 213.33 5.29 215.29 5.91L215.45 5.04ZM216.38 8.43C215.28 8.11 212.76 7.37 208.79 7.17L208.61 8.02C212.17 8.29 214 8.69 216.13 9.38L216.38 8.43ZM222.66 2.98C222.4 2.82 221.3 2.11 219.53 1.58L219.08 2.38C220.52 2.83 221.57 3.42 222.16 3.82L222.66 2.98ZM219.47 9.16C225.23 8.78 226.83 4.11 227.31 2.69L226.53 2.11C225.84 4.35 224.35 7.89 219.29 8.16L219.47 9.16ZM229.84 9.52C233.4 8.72 235.49 6.74 236.32 2.93L235.39 1.7H231.39C230.69 3.1 229.67 3.96 228.89 4.49L229.46 5.17C230.59 4.41 231.33 3.59 231.99 2.54H235.46C234.89 5.55 233.34 7.9 229.46 8.67L229.84 9.52ZM236.74 0.5C237.26 1.21 237.46 1.61 237.8 2.38L238.44 1.96C238.02 1.12 237.85 0.77 237.34 0.119999L236.74 0.5ZM235.41 0.89C235.9 1.54 236.15 1.97 236.5 2.75L237.13 2.32C236.71 1.49 236.51 1.13 236 0.5L235.41 0.89ZM245.13 4C245.6 4.66 245.85 5.13 246.18 5.93L246.88 5.49C246.53 4.73 246.24 4.19 245.78 3.6L245.13 4ZM246.61 3.36C247.09 4.05 247.32 4.48 247.66 5.29L248.36 4.85C248 4.07 247.74 3.58 247.26 2.96L246.61 3.36ZM247.83 1.48C245.54 1.49 244.6 1.51 242.23 1.64C241.72 1.67 239.99 1.75 239.5 1.76L239.58 2.74C240.67 2.61 244.13 2.4 244.42 2.39C243.24 3.08 241.49 4.39 241.49 6.29C241.49 9.09 244.81 9.23 246.78 9.31L246.96 8.34C246.07 8.37 245.08 8.29 244.44 8.16C243.38 7.94 242.42 7.53 242.42 6.23C242.42 4.51 244.38 2.96 245.82 2.48C246.12 2.38 246.34 2.36 246.83 2.36C247.11 2.36 247.42 2.37 247.85 2.4L247.83 1.48ZM254.37 9.31C255.48 9.2 256.48 8.86 257.13 8.32C258.04 7.56 258.47 6.38 258.47 5.19C258.47 3.5 257.6 1.26 254.36 1.26C251.72 1.26 249.74 3 249.74 5.72C249.74 7.37 250.56 8.53 251.54 8.53C251.99 8.53 252.63 8.3 253.22 7.37C254.25 5.72 254.45 3.26 254.54 2.1C257.29 2.19 257.53 4.39 257.53 5.18C257.53 8.04 255.1 8.33 254.07 8.44L254.37 9.31ZM253.65 2.14C253.55 3.29 253.39 5.32 252.55 6.76C252.29 7.2 251.99 7.57 251.57 7.57C250.86 7.57 250.61 6.42 250.61 5.74C250.61 4.58 251.07 3.46 252 2.78C252.51 2.4 253.06 2.25 253.65 2.14ZM265.27 0.56V1.19H262.28V1.87H263.74C263.77 1.95 263.95 2.62 263.99 2.78H262.61V8.31H263.37V3.43H265.31V4.18H263.68V4.8H265.31V5.49H264.04V7.56H267.32V5.49H266.04V4.8H267.66V4.18H266.04V3.43H267.97V7.44C267.97 7.67 267.88 7.69 267.75 7.69L266.82 7.68L266.93 8.44H267.99C268.51 8.44 268.73 8.15 268.73 7.67V2.78H267.27C267.41 2.44 267.49 2.21 267.59 1.87H269.1V1.19H266.08V0.56H265.27ZM264.71 2.78C264.62 2.39 264.61 2.34 264.49 1.87H266.86C266.83 2 266.68 2.52 266.57 2.78H264.71ZM266.63 6.95H264.72V6.09H266.63V6.95ZM264.08 8.83C263.79 8.83 261.97 8.69 261.77 7.47V4.44H259.9V5.26H260.98V8.08C260.54 8.55 259.97 8.92 259.79 9.03L260.19 9.88C260.9 9.26 260.95 9.2 261.59 8.47C261.81 8.76 262.43 9.6 264.07 9.6H269.07L269.23 8.83H264.08ZM262.13 2.36C261.65 1.69 261.07 1.1 260.6 0.7L260.05 1.2C260.95 2.08 261.3 2.62 261.48 2.89L262.13 2.36ZM271.15 3.36L270.12 3.53L270.17 4.34L271.15 4.18V7.38C271.15 7.86 271.4 8.11 271.87 8.11H273.04C273.86 8.11 274.05 7.32 274.21 6.01L273.4 5.82C273.38 6.2 273.31 7.34 272.88 7.34H272.26C272.01 7.34 271.96 7.27 271.96 7.05V4.05L274.16 3.69L274.11 2.87L271.96 3.22V0.569999H271.15V3.36ZM273.88 1V1.81H275.67C275.67 5.32 275.35 7.57 272.43 9.13L273.01 9.85C275.78 8.16 276.47 6.18 276.51 1.81H278.4C278.4 2.95 278.4 7.85 277.87 8.71C277.7 8.99 277.37 8.98 277.27 8.98L275.78 8.97L275.96 9.82H277.41C278.3 9.82 278.57 9.36 278.69 9.11C279.24 7.93 279.24 3.44 279.24 1H273.88ZM287.55 3.74H286.65L286.71 5.88C286.49 5.83 286.17 5.76 285.67 5.76C283.9 5.76 283.32 6.87 283.32 7.62C283.32 8.55 284.06 9.38 285.56 9.38C286.55 9.38 287.56 9.02 287.56 7.54V7.13C287.92 7.34 288.53 7.71 289.18 8.49L289.73 7.7C289.24 7.16 288.44 6.54 287.6 6.17L287.55 3.74ZM286.73 7.38C286.73 8.06 286.58 8.6 285.59 8.6C285.4 8.6 284.17 8.6 284.17 7.59C284.17 7.03 284.65 6.52 285.67 6.52C286.2 6.52 286.5 6.63 286.73 6.71V7.38ZM283.76 2.2C283.89 1.47 283.9 1.41 283.98 0.93L283.03 0.89C282.99 1.29 282.96 1.51 282.85 2.2H281V3.04H282.69C282.43 4.16 281.99 6.12 280.92 7.84L281.84 8.24C282.2 7.5 283.02 5.83 283.59 3.04H285.86V2.2H283.76ZM289.56 2.98C288.5 2.39 287.83 2.09 286.83 1.74L286.48 2.48C287.38 2.81 288.13 3.17 289.14 3.78L289.56 2.98ZM296.4 5C296.47 4.57 296.5 4.24 296.5 3.66H299.25V2.93H294.69C294.83 2.66 294.91 2.49 295.07 2.09L294.27 1.92C293.96 2.89 293.37 3.62 292.66 4.19L293.29 4.73C293.68 4.38 293.91 4.13 294.25 3.66H295.72C295.72 4.38 295.67 4.69 295.62 5H292.71V5.74H295.38C294.67 7.21 293.08 7.6 292.58 7.72L293.06 8.45C294.2 8.07 295.48 7.42 296.14 5.9C296.39 6.47 297.19 7.74 299.45 8.44L299.89 7.67C298.27 7.31 297.21 6.38 296.87 5.74H299.67V5H296.4ZM291.34 0.89V9.63H300.22V8.87H292.19V1.66H300.01V0.89H291.34ZM309.6 5.42C309.91 5.61 310.1 5.7 310.37 5.83L310.75 5.16C310.47 5.06 310.2 4.96 309.75 4.71C309.77 4.68 310.12 4.34 310.43 3.94L309.87 3.6C309.76 3.75 309.52 4.05 309.23 4.36C308.75 3.99 308.5 3.66 308.3 3.41H310.63V2.78H306.99C307.06 2.64 307.1 2.54 307.2 2.29L306.41 2.2C306.33 2.43 306.28 2.56 306.18 2.78H303.78V3.41H305.8C305.52 3.78 305.27 4.04 304.96 4.29C304.87 4.19 304.59 3.88 304.27 3.64L303.81 4.06C304.09 4.28 304.12 4.31 304.45 4.66C304.11 4.89 303.85 5.02 303.5 5.19L303.94 5.79C304.16 5.66 304.23 5.62 304.44 5.49V7.57H306.59V8.86C306.59 9.06 306.56 9.1 306.36 9.1H305.41L305.58 9.82H306.66C306.97 9.82 307.4 9.8 307.4 9.18V7.57H309.6V5.42ZM308.87 5.81H305.17V5.21H308.87V5.81ZM305.58 4.63C306.23 4.04 306.51 3.6 306.63 3.41H307.48C307.7 3.73 307.95 4.11 308.53 4.63H305.58ZM308.87 6.99H305.17V6.36H308.87V6.99ZM302.67 4.76C302.67 5.04 302.66 5.23 302.66 5.39C302.16 5.64 301.93 5.75 301.24 6.02L301.41 6.84C301.71 6.69 302.09 6.5 302.59 6.17C302.37 8.03 301.82 8.75 301.37 9.31L301.98 9.85C302.38 9.37 303.46 8.08 303.46 4.79V2.07H310.66V1.37H306.94V0.56H306.12V1.37H302.67V4.76ZM302.46 3.9C302.36 3.39 302.15 2.69 301.86 2.12L301.24 2.42C301.47 2.99 301.65 3.63 301.76 4.23L302.46 3.9ZM303.52 9.67C304.19 9.42 304.81 9.09 305.66 8.26L305.08 7.78C304.37 8.46 303.88 8.73 303.08 9L303.52 9.67ZM308.21 8.27C308.75 8.88 309.6 9.41 310.37 9.68L310.81 9C309.88 8.67 309.46 8.43 308.74 7.74L308.21 8.27ZM319.72 3.26C318.17 3.51 317.35 3.67 316.27 4C316.06 3.57 316.01 3.04 316.01 1.98C316.01 1.49 316.02 1.21 316.03 0.939999H315.05C315.08 3.07 315.1 3.65 315.43 4.3C314.73 4.6 312.67 5.46 312.67 7.17C312.67 9.3 315.44 9.3 317.17 9.3C318.61 9.3 319.49 9.24 320.14 9.2L320.12 8.26C319.55 8.32 318.62 8.41 316.97 8.41C314.82 8.41 313.6 8.3 313.6 7.14C313.6 4.92 319 4.31 319.81 4.22L319.72 3.26ZM327.03 9.31C328.14 9.2 329.14 8.86 329.79 8.32C330.7 7.56 331.13 6.38 331.13 5.19C331.13 3.5 330.26 1.26 327.02 1.26C324.38 1.26 322.4 3 322.4 5.72C322.4 7.37 323.22 8.53 324.2 8.53C324.65 8.53 325.29 8.3 325.88 7.37C326.91 5.72 327.11 3.26 327.2 2.1C329.95 2.19 330.19 4.39 330.19 5.18C330.19 8.04 327.76 8.33 326.73 8.44L327.03 9.31ZM326.31 2.14C326.21 3.29 326.05 5.32 325.21 6.76C324.95 7.2 324.65 7.57 324.23 7.57C323.52 7.57 323.27 6.42 323.27 5.74C323.27 4.58 323.73 3.46 324.66 2.78C325.17 2.4 325.72 2.25 326.31 2.14ZM333.23 1.3V4.97H336.73V8.87H333.73V5.74H332.89V9.64H341.42V5.74H340.57V8.87H337.57V4.97H341.09V1.3H340.24V4.2H337.57V0.56H336.73V4.2H334.08V1.3H333.23ZM6.11 21.9C6.89 22.69 7.39 23.32 7.49 23.45C6.75 23.52 5.72 23.61 4.5 23.66C4.29 23.67 3.17 23.7 2.92 23.71C3.57 22.56 3.97 21.69 4.21 21.14H9.43V20.37H0.5V21.14H3.24C3.02 21.72 2.64 22.65 2.01 23.73H0.63L0.72 24.55C2.26 24.55 6.34 24.37 8.01 24.13C8.22 24.44 8.34 24.63 8.5 24.9L9.22 24.42C8.45 23.2 7.84 22.5 6.77 21.45L6.11 21.9ZM7.65 18.53C8.36 19.01 8.92 19.27 9.36 19.47L9.8 18.67C8.06 18.05 6.47 16.84 5.43 15.45H4.54C4.27 15.85 3.15 17.47 0.17 18.64L0.58 19.45C0.92 19.31 1.47 19.07 2.36 18.52V19.08H7.65V18.53ZM2.67 18.32C3.51 17.74 4.36 17.04 4.99 16.16C5.34 16.6 5.92 17.32 7.33 18.32H2.67ZM11.51 16.41C11.45 17.09 11.35 18.18 11.35 19.27C11.35 21.87 11.8 24.11 13.42 24.11C13.93 24.11 14.3 23.87 14.54 23.63C15.1 23.07 15.56 22.23 15.89 21.3L15.15 20.88C14.46 22.68 13.94 23.09 13.49 23.09C12.37 23.09 12.25 20.9 12.25 19.35C12.25 18 12.38 17.09 12.46 16.49L11.51 16.41ZM19.57 23.12C19.71 19.12 18.68 17.71 17.49 16.71L16.8 17.24C17.84 18.09 18.62 19.53 18.62 22.14C18.62 22.6 18.6 22.9 18.58 23.16L19.57 23.12ZM22.93 15.59V24.16H21.01V24.96H23.73V15.59H22.93ZM36.39 24.31C37.5 24.2 38.5 23.86 39.15 23.32C40.06 22.56 40.49 21.38 40.49 20.19C40.49 18.5 39.62 16.26 36.38 16.26C33.74 16.26 31.76 18 31.76 20.72C31.76 22.37 32.58 23.53 33.56 23.53C34.01 23.53 34.65 23.3 35.24 22.37C36.27 20.72 36.47 18.26 36.56 17.1C39.31 17.19 39.55 19.39 39.55 20.18C39.55 23.04 37.12 23.33 36.09 23.44L36.39 24.31ZM35.67 17.14C35.57 18.29 35.41 20.32 34.57 21.76C34.31 22.2 34.01 22.57 33.59 22.57C32.88 22.57 32.63 21.42 32.63 20.74C32.63 19.58 33.09 18.46 34.02 17.78C34.53 17.4 35.08 17.25 35.67 17.14ZM45 19.7C45.25 19.57 45.55 19.42 46.04 19.05V20.21H49.92V19.09C50.27 19.36 50.58 19.54 51.03 19.74L51.35 19.09C50.26 18.6 49.88 18.27 49.39 17.57H51.13V16.95H47.78C47.82 16.87 47.89 16.74 48.05 16.36C48.51 16.33 49.81 16.23 50.56 16.08L50.22 15.48C49.39 15.65 48.05 15.86 45.13 15.85L45.29 16.45C45.67 16.45 46.03 16.45 47.25 16.4C47.2 16.5 47.14 16.63 46.97 16.95H44.89V17.57H46.57C45.89 18.48 45.01 18.89 44.63 19.07L45 19.7ZM48.6 17.57C48.73 17.79 48.88 18.04 49.17 18.39H46.77C47.03 18.11 47.2 17.91 47.42 17.57H48.6ZM49.28 19.66H46.67V18.94H49.28V19.66ZM50.86 20.7H45.09V24.84H45.84V21.31H50.09V23.74C50.09 24.1 50.06 24.16 49.72 24.15L49.07 24.14L49.21 24.84H50.02C50.47 24.84 50.86 24.79 50.86 24.15V20.7ZM48.85 23.33H47.1V22.42H48.85V23.33ZM45.01 20.46C44.37 19.7 44.08 19.05 43.94 18.69V18.27H44.84V17.51H43.94V15.56H43.17V17.51H41.9V18.27H43.14C42.88 19.59 42.25 20.76 41.77 21.43L42.13 22.39C42.38 22.02 42.78 21.4 43.17 20.14V24.84H43.94V19.92C44.1 20.32 44.14 20.42 44.57 21.08L45.01 20.46ZM49.52 21.86H46.42V23.91H49.52V21.86ZM54.93 16.31V20.04C54.93 22.57 54.11 23.67 53.73 24.18L54.38 24.81C54.6 24.49 55.18 23.66 55.46 22.4C55.61 21.71 55.73 20.74 55.73 20.05V18.69H56.88V20.26H60.1V18.69H61.44V18H60.1V17.3H59.36V18H57.62V17.3H56.88V18H55.73V17.05H61.52V16.31H58.64V15.56H57.83V16.31H54.93ZM52.56 16.3C52.94 16.48 53.7 16.91 54.08 17.31L54.59 16.57C53.89 16.06 53.45 15.83 53.02 15.65L52.56 16.3ZM59.36 18.69V19.61H57.62V18.69H59.36ZM61.64 24.06C61.24 23.99 60.41 23.83 59.34 23.39C60.36 22.65 60.74 21.88 60.91 21.53V20.84H56.02V21.55H60.04C59.84 21.86 59.45 22.45 58.53 22.99C57.65 22.46 57.27 21.98 57.07 21.74L56.42 22.09C56.61 22.34 56.98 22.8 57.76 23.37C56.59 23.86 55.72 23.99 55.24 24.06L55.6 24.86C56.83 24.59 57.72 24.29 58.54 23.86C59.78 24.54 60.79 24.74 61.31 24.84L61.64 24.06ZM52.11 18.95C52.65 19.21 53.2 19.56 53.66 19.96L54.16 19.27C53.82 18.99 53.16 18.54 52.57 18.28L52.11 18.95ZM53.52 20.88C53.31 21.65 52.83 22.95 52.08 24.06L52.71 24.76C53.69 23.21 54.08 21.78 54.2 21.29L53.52 20.88ZM64.43 16.02C64.42 16.7 64.36 20.02 64.36 20.77C64.36 22.51 64.54 24.34 67.28 24.34C70.32 24.34 70.97 22.28 71.29 20.47L70.45 20.16C70.17 21.68 69.84 23.48 67.25 23.48C65.37 23.48 65.31 22.14 65.31 20.86C65.31 19.91 65.35 18.72 65.44 16.02H64.43ZM74.27 16.11C73.95 17.61 73.85 19.21 73.85 20.86C73.85 22.77 74.02 23.77 74.11 24.35L75.08 24.27C75 23.91 74.77 22.95 74.77 20.72C74.77 18.2 75.07 16.89 75.22 16.19L74.27 16.11ZM76.74 16.92V17.8H81.44V16.92H76.74ZM76.96 20.23C76.61 20.82 76.43 21.39 76.43 21.91C76.43 23.63 78.28 23.77 79.76 23.77C80.61 23.77 81.31 23.71 81.65 23.68V22.74C80.73 22.84 79.91 22.86 79.36 22.86C78.29 22.86 77.27 22.74 77.27 21.83C77.27 21.74 77.28 21.17 77.77 20.48L76.96 20.23ZM88.55 18.47H91.93V17.57L88.55 17.6L88.54 15.94H87.6L87.64 20.65C87.39 20.62 87.2 20.59 86.87 20.59C85.44 20.59 84.03 21.18 84.03 22.55C84.03 23.53 84.77 24.35 86.42 24.35C88.5 24.35 88.57 23.07 88.56 22.48L88.55 21.79C89.77 22.26 90.93 23.16 91.54 23.84L92.19 22.98C91.7 22.47 90.53 21.51 88.56 20.84L88.55 18.47ZM87.65 22.42C87.65 22.83 87.55 23.52 86.41 23.52C86.19 23.52 84.92 23.52 84.92 22.56C84.92 21.75 85.87 21.41 86.73 21.41C87.15 21.41 87.45 21.47 87.66 21.51L87.65 22.42ZM97.28 24.03C98.08 24.02 98.94 23.95 99.72 23.7C101.63 23.1 101.85 21.53 101.85 20.93C101.85 19.53 100.87 18.47 99.16 18.47C98.63 18.47 97.93 18.57 97.31 18.67C96.97 18.73 95.31 19.03 94.93 19.09L95.08 19.97C96.62 19.58 98.32 19.25 99.12 19.25C100.1 19.25 100.97 19.75 100.97 20.96C100.97 23.28 97.89 23.26 97.06 23.25L97.28 24.03ZM112.89 16.48C110.43 16.5 109.51 16.52 107.27 16.64C106.76 16.67 105.16 16.74 104.56 16.76L104.64 17.74C105.73 17.61 109.19 17.4 109.48 17.39C108.3 18.08 106.55 19.39 106.55 21.29C106.55 24.09 109.87 24.23 111.84 24.31L112.02 23.34C111.16 23.37 110.2 23.31 109.5 23.16C108.44 22.94 107.48 22.53 107.48 21.23C107.48 19.51 109.44 17.96 110.88 17.48C111.18 17.38 111.39 17.36 111.89 17.36C112.28 17.36 112.57 17.37 112.91 17.4L112.89 16.48ZM117.41 23.91C116.99 23.34 116.28 22.5 115.63 21.9L114.87 22.46C115.2 22.81 115.82 23.46 116.53 24.53L117.41 23.91ZM129.73 24.49C131.86 23.73 132.37 22.06 132.61 21.08C133.11 21.3 133.28 21.39 133.73 21.66L134.03 20.76C133.41 20.42 132.83 20.2 132.8 20.19C132.95 19.39 133.03 18.52 133.1 17.8L132.15 17.73C132.13 18.19 132.08 18.9 131.93 19.88C131.02 19.58 130.36 19.42 129.52 19.35C129.85 17.38 129.88 17.16 130.01 16.16H125.87V17.03L129 17C128.94 17.71 128.81 18.6 128.67 19.32C125.4 19.45 125.22 21.6 125.22 22.09C125.22 23.16 125.92 23.8 126.88 23.8C128.39 23.8 128.83 22.37 129.37 20.14C130.27 20.22 131.12 20.48 131.77 20.73C131.42 22.18 130.9 23.18 129.18 23.8L129.73 24.49ZM128.52 20.09C127.99 22.26 127.72 23.01 126.82 23.01C126.06 23.01 126.01 22.23 126.01 22.04C126.01 21.36 126.42 20.71 127.07 20.39C127.51 20.17 127.93 20.11 128.52 20.09ZM142.23 18.74H141.33L141.39 20.88C141.17 20.83 140.85 20.76 140.35 20.76C138.58 20.76 138 21.87 138 22.62C138 23.55 138.74 24.38 140.24 24.38C141.23 24.38 142.24 24.02 142.24 22.54V22.13C142.6 22.34 143.21 22.71 143.86 23.49L144.41 22.7C143.92 22.16 143.12 21.54 142.28 21.17L142.23 18.74ZM141.41 22.38C141.41 23.06 141.26 23.6 140.27 23.6C140.08 23.6 138.85 23.6 138.85 22.59C138.85 22.03 139.33 21.52 140.35 21.52C140.88 21.52 141.18 21.63 141.41 21.71V22.38ZM138.44 17.2C138.57 16.47 138.58 16.41 138.66 15.93L137.71 15.89C137.67 16.29 137.64 16.51 137.53 17.2H135.68V18.04H137.37C137.11 19.16 136.67 21.12 135.6 22.84L136.52 23.24C136.88 22.5 137.7 20.83 138.27 18.04H140.54V17.2H138.44ZM144.24 17.98C143.18 17.39 142.51 17.09 141.51 16.74L141.16 17.48C142.06 17.81 142.81 18.17 143.82 18.78L144.24 17.98ZM153.18 21C152.58 20.36 152 19.39 151.58 18.38C152.46 18.34 153.32 18.3 154.41 18.07L154.25 17.21C153.25 17.42 152.31 17.54 151.29 17.57C151.16 17.17 151.02 16.52 150.93 15.91L149.98 15.98C150.02 16.22 150.17 16.95 150.37 17.6C150.12 17.61 149.58 17.62 149.16 17.61L146.24 17.56V18.43H149.12C149.27 18.43 150.04 18.42 150.65 18.41C151.19 19.78 151.82 20.86 152.41 21.52L153.18 21ZM148.14 20.18C147.12 20.68 146.69 21.4 146.69 22.13C146.69 22.63 146.88 23.12 147.28 23.48C147.98 24.11 148.97 24.31 150.72 24.31C152.09 24.31 152.97 24.23 153.33 24.19L153.32 23.3C152.7 23.38 151.94 23.47 150.64 23.47C149.21 23.47 147.59 23.34 147.59 22.12C147.59 21.93 147.64 21.31 148.62 20.83L148.14 20.18ZM159.09 15.88C158.85 16.53 158.27 18.13 158.12 18.55C157.89 19.2 157.72 19.68 156.3 24.02L157.24 24.31C157.51 23.3 157.67 22.7 158.02 21.77C158.65 20.48 159.47 20.27 159.87 20.27C160.58 20.27 160.76 20.86 160.76 21.6V22.16C160.76 22.94 160.77 24.35 162.47 24.35C164.76 24.35 165 21.67 165.06 20.35L164.19 20.15C164.19 20.73 164.14 21.48 163.86 22.29C163.53 23.24 163.02 23.47 162.53 23.47C161.72 23.47 161.64 22.92 161.64 22.2V21.53C161.64 20.84 161.56 19.42 160.02 19.42C159.47 19.42 159.08 19.61 158.54 20.05C158.81 19.27 159.41 17.63 160.08 16.15L159.09 15.88ZM171.33 24.31C172.44 24.2 173.44 23.86 174.09 23.32C175 22.56 175.43 21.38 175.43 20.19C175.43 18.5 174.56 16.26 171.32 16.26C168.68 16.26 166.7 18 166.7 20.72C166.7 22.37 167.52 23.53 168.5 23.53C168.95 23.53 169.59 23.3 170.18 22.37C171.21 20.72 171.41 18.26 171.5 17.1C174.25 17.19 174.49 19.39 174.49 20.18C174.49 23.04 172.06 23.33 171.03 23.44L171.33 24.31ZM170.61 17.14C170.51 18.29 170.35 20.32 169.51 21.76C169.25 22.2 168.95 22.57 168.53 22.57C167.82 22.57 167.57 21.42 167.57 20.74C167.57 19.58 168.03 18.46 168.96 17.78C169.47 17.4 170.02 17.25 170.61 17.14ZM182.95 15.56V16.21H181.65V16.87H182.95V17.65H181.12V18.3H182.95V19.1H181.65V19.74H182.95V20.46H181.51V21.11H182.95V21.86H181.24V22.53H182.95V23.42H183.67V22.53H186.05V21.86H183.67V21.11H185.73V20.46H183.67V19.74H185.6V18.3H186.08V17.65H185.6V16.21H183.67V15.56H182.95ZM184.86 17.65H183.67V16.87H184.86V17.65ZM184.86 19.1H183.67V18.3H184.86V19.1ZM183.43 23.78C181.48 23.78 180.59 22.9 180.53 22.83C180.64 22.54 181.1 21.21 181.14 19.04H179.86C180.3 18.27 180.78 17.44 181.12 16.69V15.94H179.12V16.66H180.31C180.07 17.24 179.42 18.47 179.02 19.03V19.76H180.41C180.39 20.5 180.32 21.28 180.04 22.12C179.71 21.43 179.62 20.79 179.56 20.38L178.88 20.48C178.94 20.85 179.11 22.02 179.69 22.91C179.3 23.55 178.96 23.81 178.68 24.03L179.13 24.77C179.42 24.5 179.78 24.17 180.18 23.52C180.46 23.79 181.45 24.56 183.37 24.56H186.04L186.17 23.78H183.43ZM178.45 17.96C178.8 17 178.94 16.25 179.04 15.67L178.24 15.54C178.04 16.96 177.51 18.69 176.66 19.72L177.05 20.54C177.26 20.32 177.42 20.15 177.68 19.68V24.82H178.45V17.96ZM195.47 21.19C194.96 21.82 194.16 22.44 194.04 22.53C193.37 22.03 193.01 21.56 192.76 21.21V21.12H195.69V19.74H196.48V19.08H195.69V17.75H192.76V17.28H191.98V17.75H189.17V18.4H191.98V19.08H188.73V17.03H196.42V16.29H192.36V15.56H191.53V16.29H187.92V20.45C187.92 21.45 187.84 21.78 187.73 22.36C187.55 23.3 187.25 23.85 187.08 24.14L187.76 24.85C188.64 23.19 188.73 21.26 188.73 20.52V19.74H191.98V20.48H189.17V21.12H191.98V23.8C191.98 23.93 191.96 24.03 191.73 24.03L190.66 24.02L190.82 24.84H192.03C192.54 24.84 192.76 24.54 192.76 24.1V22.24C193.72 23.43 195.03 24.17 196.1 24.57L196.57 23.8C196.21 23.67 195.53 23.43 194.69 22.95C195.36 22.46 195.69 22.16 196.14 21.68L195.47 21.19ZM194.9 18.4V19.08H192.76V18.4H194.9ZM194.9 19.74V20.48H192.76V19.74H194.9ZM189.18 21.78C189.83 22.08 190.14 22.28 190.58 22.69L191.11 22.08C190.6 21.68 190.27 21.5 189.63 21.2L189.18 21.78ZM191.51 22.49C191.17 22.65 189.67 23.34 188.52 23.7L188.83 24.42C190.96 23.53 191.2 23.43 191.64 23.19L191.51 22.49ZM202.22 19.17C201.66 19.17 201.19 19.62 201.19 20.2C201.19 20.76 201.64 21.23 202.22 21.23C202.8 21.23 203.25 20.75 203.25 20.2C203.25 19.64 202.79 19.17 202.22 19.17ZM216.74 24.06C216.16 23.72 215.18 23.16 213.91 22.63C214.3 22.23 214.96 21.48 215.44 19.95H217.21V19.16H211.79C212.15 18.43 212.28 18.1 212.39 17.83L211.47 17.66C211.35 18.01 211.18 18.48 210.83 19.16H207.99V19.95H210.4C209.85 20.9 209.36 21.48 209.06 21.83C210.62 22.26 211.51 22.56 212.32 22.88C211.07 23.57 209.57 23.82 208.23 23.94L208.52 24.82C211.12 24.55 212.66 23.64 213.21 23.24C214.85 23.95 215.74 24.54 216.19 24.84L216.74 24.06ZM214.56 19.95C214.45 20.28 214.07 21.43 213.11 22.31C212.11 21.93 211.11 21.64 210.39 21.43C210.59 21.17 210.88 20.79 211.36 19.95H214.56ZM208.23 16.46V18.64H209.08V17.23H216.13V18.64H216.98V16.46H213.01V15.56H212.15V16.46H208.23ZM225.93 18.87C226.55 19.26 227 19.46 227.35 19.62L227.77 18.8C225.93 18.13 224.45 16.93 223.44 15.57H222.53C221.42 17.12 219.78 18.2 218.19 18.81L218.61 19.63C218.97 19.46 219.39 19.27 220.07 18.86V19.62H222.56V21.14H219.38V21.89H222.56V23.78H218.4V24.58H227.56V23.78H223.41V21.89H226.61V21.14H223.41V19.62H225.93V18.87ZM220.08 18.85C221.19 18.18 222.17 17.3 222.98 16.28C224.05 17.61 225.28 18.45 225.9 18.85H220.08ZM232.67 16.89C232.81 16.39 232.86 16.16 232.92 15.81L231.96 15.77C231.89 16.34 231.82 16.63 231.75 16.89H229.45V17.69H231.51C230.87 19.56 230.07 20.62 229.19 21.45L229.81 22.12C230.13 21.79 230.79 20.91 231.25 20.28C231.95 19.57 232.68 19.26 233.23 19.26C233.69 19.26 233.97 19.46 234.08 20.05C233.09 20.49 231.3 21.39 231.3 22.75C231.3 24.36 233.56 24.36 234.69 24.36C235.64 24.36 236.51 24.3 237.08 24.26L237.05 23.4C236.15 23.5 235.21 23.54 234.41 23.54C233.31 23.54 232.2 23.54 232.2 22.66C232.2 21.84 233.41 21.2 234.18 20.84C234.2 21.1 234.2 21.27 234.2 21.44C234.2 21.8 234.17 22.17 234.15 22.4H235.02C235.05 22.08 235.05 21.78 235.05 21.64C235.05 21.28 235.04 20.85 235.01 20.5C236.11 20.08 236.82 19.86 237.63 19.63L237.39 18.76C236.49 19.07 235.12 19.62 234.89 19.71C234.69 18.76 234.05 18.54 233.37 18.54C232.87 18.54 232.47 18.71 231.77 19.13C232.06 18.63 232.2 18.3 232.43 17.69H236.84V16.89H232.67ZM246.42 17.85V15.95H245.52V17.85H242.03V15.99H241.12V17.85H239.43V18.71H241.12V21.4H242.03V18.71H245.52V19.94C245.52 22.14 244.21 23.29 241.38 23.56L241.71 24.43C243.21 24.25 246.42 23.66 246.42 19.98V18.71H248.15V17.85H246.42ZM254.56 17.67V16H253.64V17.67H250.18V18.52H253.64V24.46H254.56V18.52H258.03V18.16C258.63 17.99 259.04 17.45 259.04 16.83C259.04 16.06 258.42 15.44 257.65 15.44C256.89 15.44 256.26 16.06 256.26 16.82C256.26 17.14 256.36 17.43 256.55 17.67H254.56ZM257.65 16.06C258.07 16.06 258.42 16.4 258.42 16.83C258.42 17.25 258.08 17.6 257.65 17.6C257.23 17.6 256.88 17.25 256.88 16.83C256.88 16.4 257.23 16.06 257.65 16.06ZM250.68 23.86C251.88 22.52 252.19 20.89 252.33 19.57L251.48 19.48C251.37 20.71 251.01 22.14 249.95 23.2L250.68 23.86ZM255.91 19.57C256.25 21.62 256.64 22.72 257.54 23.82L258.29 23.24C257.47 22.25 257.05 21.21 256.75 19.47L255.91 19.57ZM260.2 19.72V20.67H268.8V19.72H260.2ZM278.82 20.61C277.38 19.83 275.83 19.06 273.94 18.46V15.9H272.97V24.45H273.94V19.4C276.03 20.12 277.67 21.12 278.35 21.54L278.82 20.61ZM282.41 16.02C282.4 16.7 282.34 20.02 282.34 20.77C282.34 22.51 282.52 24.34 285.26 24.34C288.3 24.34 288.95 22.28 289.27 20.47L288.43 20.16C288.15 21.68 287.82 23.48 285.23 23.48C283.35 23.48 283.29 22.14 283.29 20.86C283.29 19.91 283.33 18.72 283.42 16.02H282.41ZM293.87 23.91C293.45 23.34 292.74 22.5 292.09 21.9L291.33 22.46C291.66 22.81 292.28 23.46 292.99 24.53L293.87 23.91ZM306.78 20C306.85 19.57 306.88 19.24 306.88 18.66H309.63V17.93H305.07C305.21 17.66 305.29 17.49 305.45 17.09L304.65 16.92C304.34 17.89 303.75 18.62 303.04 19.19L303.67 19.73C304.06 19.38 304.29 19.13 304.63 18.66H306.1C306.1 19.38 306.05 19.69 306 20H303.09V20.74H305.76C305.05 22.21 303.46 22.6 302.96 22.72L303.44 23.45C304.58 23.07 305.86 22.42 306.52 20.9C306.77 21.47 307.57 22.74 309.83 23.44L310.27 22.67C308.65 22.31 307.59 21.38 307.25 20.74H310.05V20H306.78ZM301.72 15.89V24.63H310.6V23.87H302.57V16.66H310.39V15.89H301.72ZM319.98 20.42C320.29 20.61 320.48 20.7 320.75 20.83L321.13 20.16C320.85 20.06 320.58 19.96 320.13 19.71C320.15 19.68 320.5 19.34 320.81 18.94L320.25 18.6C320.14 18.75 319.9 19.05 319.61 19.36C319.13 18.99 318.88 18.66 318.68 18.41H321.01V17.78H317.37C317.44 17.64 317.48 17.54 317.58 17.29L316.79 17.2C316.71 17.43 316.66 17.56 316.56 17.78H314.16V18.41H316.18C315.9 18.78 315.65 19.04 315.34 19.29C315.25 19.19 314.97 18.88 314.65 18.64L314.19 19.06C314.47 19.28 314.5 19.31 314.83 19.66C314.49 19.89 314.23 20.02 313.88 20.19L314.32 20.79C314.54 20.66 314.61 20.62 314.82 20.49V22.57H316.97V23.86C316.97 24.06 316.94 24.1 316.74 24.1H315.79L315.96 24.82H317.04C317.35 24.82 317.78 24.8 317.78 24.18V22.57H319.98V20.42ZM319.25 20.81H315.55V20.21H319.25V20.81ZM315.96 19.63C316.61 19.04 316.89 18.6 317.01 18.41H317.86C318.08 18.73 318.33 19.11 318.91 19.63H315.96ZM319.25 21.99H315.55V21.36H319.25V21.99ZM313.05 19.76C313.05 20.04 313.04 20.23 313.04 20.39C312.54 20.64 312.31 20.75 311.62 21.02L311.79 21.84C312.09 21.69 312.47 21.5 312.97 21.17C312.75 23.03 312.2 23.75 311.75 24.31L312.36 24.85C312.76 24.37 313.84 23.08 313.84 19.79V17.07H321.04V16.37H317.32V15.56H316.5V16.37H313.05V19.76ZM312.84 18.9C312.74 18.39 312.53 17.69 312.24 17.12L311.62 17.42C311.85 17.99 312.03 18.63 312.14 19.23L312.84 18.9ZM313.9 24.67C314.57 24.42 315.19 24.09 316.04 23.26L315.46 22.78C314.75 23.46 314.26 23.73 313.46 24L313.9 24.67ZM318.59 23.27C319.13 23.88 319.98 24.41 320.75 24.68L321.19 24C320.26 23.67 319.84 23.43 319.12 22.74L318.59 23.27ZM323.39 16.11C323.07 17.61 322.97 19.21 322.97 20.86C322.97 22.77 323.14 23.77 323.23 24.35L324.2 24.27C324.12 23.91 323.89 22.95 323.89 20.72C323.89 18.2 324.19 16.89 324.34 16.19L323.39 16.11ZM325.86 16.92V17.8H330.56V16.92H325.86ZM326.08 20.23C325.73 20.82 325.55 21.39 325.55 21.91C325.55 23.63 327.4 23.77 328.88 23.77C329.73 23.77 330.43 23.71 330.77 23.68V22.74C329.85 22.84 329.03 22.86 328.48 22.86C327.41 22.86 326.39 22.74 326.39 21.83C326.39 21.74 326.4 21.17 326.89 20.48L326.08 20.23ZM335.85 23.77C337.06 23.76 338.18 23.62 339.03 23.27C341.16 22.41 341.41 20.72 341.41 19.95C341.41 18.45 340.46 16.95 338.12 16.95C337.29 16.95 336.33 17.11 335.38 17.28C334.97 17.35 333.03 17.69 332.8 17.72L333.02 18.73C334.71 18.31 336.86 17.83 338.06 17.83C340.01 17.83 340.45 19.02 340.45 19.96C340.45 20.95 339.93 21.67 339.39 22.06C338.41 22.76 337.26 22.9 335.61 22.91L335.85 23.77ZM1.13 31.41C1.07 32.09 0.97 33.18 0.97 34.27C0.97 36.87 1.42 39.11 3.04 39.11C3.55 39.11 3.92 38.87 4.16 38.63C4.72 38.07 5.18 37.23 5.51 36.3L4.77 35.88C4.08 37.68 3.56 38.09 3.11 38.09C1.99 38.09 1.87 35.9 1.87 34.35C1.87 33 2 32.09 2.08 31.49L1.13 31.41ZM9.19 38.12C9.33 34.12 8.3 32.71 7.11 31.71L6.42 32.24C7.46 33.09 8.24 34.53 8.24 37.14C8.24 37.6 8.22 37.9 8.2 38.16L9.19 38.12ZM19.47 31.48C17.01 31.5 16.09 31.52 13.85 31.64C13.34 31.67 11.74 31.74 11.14 31.76L11.22 32.74C12.31 32.61 15.77 32.4 16.06 32.39C14.88 33.08 13.13 34.39 13.13 36.29C13.13 39.09 16.45 39.23 18.42 39.31L18.6 38.34C17.74 38.37 16.78 38.31 16.08 38.16C15.02 37.94 14.06 37.53 14.06 36.23C14.06 34.51 16.02 32.96 17.46 32.48C17.76 32.38 17.97 32.36 18.47 32.36C18.86 32.36 19.15 32.37 19.49 32.4L19.47 31.48ZM26.01 39.31C27.12 39.2 28.12 38.86 28.77 38.32C29.68 37.56 30.11 36.38 30.11 35.19C30.11 33.5 29.24 31.26 26 31.26C23.36 31.26 21.38 33 21.38 35.72C21.38 37.37 22.2 38.53 23.18 38.53C23.63 38.53 24.27 38.3 24.86 37.37C25.89 35.72 26.09 33.26 26.18 32.1C28.93 32.19 29.17 34.39 29.17 35.18C29.17 38.04 26.74 38.33 25.71 38.44L26.01 39.31ZM25.29 32.14C25.19 33.29 25.03 35.32 24.19 36.76C23.93 37.2 23.63 37.57 23.21 37.57C22.5 37.57 22.25 36.42 22.25 35.74C22.25 34.58 22.71 33.46 23.64 32.78C24.15 32.4 24.7 32.25 25.29 32.14ZM36.32 32.95C36.5 32.66 36.7 32.33 36.99 31.73H40.75V30.91H31.51V31.73H36.1C35.34 33.35 33.86 35.07 31.4 36.2L31.9 36.99C32.61 36.63 34.12 35.82 35.67 33.86V39.84H36.54V32.95H36.32ZM40.89 36.24C39.37 35.31 38.35 34.26 37.5 33.2L36.89 33.68C38.11 35.22 38.77 35.89 40.29 36.99L40.89 36.24ZM50.66 39.06C50.08 38.72 49.1 38.16 47.83 37.63C48.22 37.23 48.88 36.48 49.36 34.95H51.13V34.16H45.71C46.07 33.43 46.2 33.1 46.31 32.83L45.39 32.66C45.27 33.01 45.1 33.48 44.75 34.16H41.91V34.95H44.32C43.77 35.9 43.28 36.48 42.98 36.83C44.54 37.26 45.43 37.56 46.24 37.88C44.99 38.57 43.49 38.82 42.15 38.94L42.44 39.82C45.04 39.55 46.58 38.64 47.13 38.24C48.77 38.95 49.66 39.54 50.11 39.84L50.66 39.06ZM48.48 34.95C48.37 35.28 47.99 36.43 47.03 37.31C46.03 36.93 45.03 36.64 44.31 36.43C44.51 36.17 44.8 35.79 45.28 34.95H48.48ZM42.15 31.46V33.64H43V32.23H50.05V33.64H50.9V31.46H46.93V30.56H46.07V31.46H42.15ZM56.9 34.17C56.34 34.17 55.87 34.62 55.87 35.2C55.87 35.76 56.32 36.23 56.9 36.23C57.48 36.23 57.93 35.75 57.93 35.2C57.93 34.64 57.47 34.17 56.9 34.17ZM63.14 35.52C63.36 34.7 63.45 33.4 63.46 32.71L62.82 32.65C62.82 33.15 62.76 34.3 62.48 35.2L63.14 35.52ZM63.87 30.56V39.84H64.68V30.56H63.87ZM65.9 33.9C65.85 33.73 65.63 32.96 65.38 32.39L64.78 32.63C64.99 33.15 65.15 33.74 65.23 34.16L65.9 33.9ZM71.61 34.08H70.82V38.91H66.58V34.08H65.79V39.63H71.61V34.08ZM69.5 33.79C69.27 34.55 69.06 34.96 68.8 35.45C68.3 34.94 68 34.66 67.55 34.32L67.03 34.83C67.63 35.32 67.96 35.65 68.4 36.11C67.95 36.78 67.56 37.27 66.85 37.84L67.4 38.41C68.28 37.65 68.63 37.17 68.94 36.72C69.25 37.07 69.49 37.37 69.93 38.03L70.52 37.5C70.24 37.07 69.99 36.72 69.37 36.05C69.66 35.54 69.92 35.05 70.21 34.1L69.5 33.79ZM69.22 32.62C68.98 31.69 68.54 30.82 68.42 30.58L67.68 30.79C67.74 30.91 68.25 31.97 68.45 32.86L69.22 32.62ZM70.69 33.5C71.18 32.82 71.67 31.81 71.9 31.07L71.15 30.74C71.03 31.09 70.67 32.18 70 33.15L70.69 33.5ZM67.34 33.01C67.09 32.35 66.66 31.57 66.24 31L65.55 31.29C65.99 31.92 66.37 32.7 66.6 33.29L67.34 33.01ZM77.83 39.49C79.96 38.73 80.47 37.06 80.71 36.08C81.21 36.3 81.38 36.39 81.83 36.66L82.13 35.76C81.51 35.42 80.93 35.2 80.9 35.19C81.05 34.39 81.13 33.52 81.2 32.8L80.25 32.73C80.23 33.19 80.18 33.9 80.03 34.88C79.12 34.58 78.46 34.42 77.62 34.35C77.95 32.38 77.98 32.16 78.11 31.16H73.97V32.03L77.1 32C77.04 32.71 76.91 33.6 76.77 34.32C73.5 34.45 73.32 36.6 73.32 37.09C73.32 38.16 74.02 38.8 74.98 38.8C76.49 38.8 76.93 37.37 77.47 35.14C78.37 35.22 79.22 35.48 79.87 35.73C79.52 37.18 79 38.18 77.28 38.8L77.83 39.49ZM76.62 35.09C76.09 37.26 75.82 38.01 74.92 38.01C74.16 38.01 74.11 37.23 74.11 37.04C74.11 36.36 74.52 35.71 75.17 35.39C75.61 35.17 76.03 35.11 76.62 35.09ZM88.04 34.17C87.48 34.17 87.01 34.62 87.01 35.2C87.01 35.76 87.46 36.23 88.04 36.23C88.62 36.23 89.07 35.75 89.07 35.2C89.07 34.64 88.61 34.17 88.04 34.17ZM93.77 31.42V32.2H96V33.22H96.81V32.2H100.01V33.22H100.81V32.2H103.07V31.42H100.81V30.55H100.01V31.42H96.81V30.55H96V31.42H93.77ZM103.07 33.86H98.81V32.76H97.98V33.86H93.77V34.63H97.98V35.92H94.78V39.65H102.04V35.92H98.81V34.63H103.07V33.86ZM101.21 38.92H95.61V36.66H101.21V38.92ZM110.75 34.63C110.68 34.58 110.59 34.51 110.53 34.47C110.76 34.36 111.79 33.88 112.69 33.15V32.62H106.93V33.22H111.34C110.8 33.62 110.52 33.78 109.92 34.08C109.77 33.98 109.23 33.66 108.68 33.41L108.2 33.95C108.86 34.22 109.23 34.41 109.53 34.63H107.11V39.85H107.89V38.19H109.65V39.82H110.42V38.19H112.29V38.82C112.29 39 112.2 39.03 112.06 39.03H111.23L111.38 39.85H112.37C113.06 39.85 113.06 39.35 113.06 39.05V34.63H110.75ZM109.65 36.08H107.89V35.27H109.65V36.08ZM109.65 37.56H107.89V36.7H109.65V37.56ZM112.29 36.08H110.42V35.27H112.29V36.08ZM112.29 37.56H110.42V36.7H112.29V37.56ZM105.71 34.87C105.71 35.1 105.7 35.24 105.69 35.38C105.6 35.44 104.87 35.84 104.08 36.14L104.28 36.96C104.63 36.78 104.97 36.61 105.63 36.21C105.45 37.71 105.16 38.49 104.45 39.32L105.11 39.88C105.56 39.34 106.49 38.23 106.49 34.71V32.06H113.4V31.35H109.74V30.54H108.9V31.35H105.71V34.87ZM105.48 33.93C105.35 33.41 105.08 32.67 104.79 32.13L104.13 32.49C104.36 32.94 104.65 33.7 104.79 34.27L105.48 33.93ZM118.49 31.89C118.63 31.39 118.68 31.16 118.74 30.81L117.78 30.77C117.71 31.34 117.64 31.63 117.57 31.89H115.27V32.69H117.33C116.69 34.56 115.89 35.62 115.01 36.45L115.63 37.12C115.95 36.79 116.61 35.91 117.07 35.28C117.77 34.57 118.5 34.26 119.05 34.26C119.51 34.26 119.79 34.46 119.9 35.05C118.91 35.49 117.12 36.39 117.12 37.75C117.12 39.36 119.38 39.36 120.51 39.36C121.46 39.36 122.33 39.3 122.9 39.26L122.87 38.4C121.97 38.5 121.03 38.54 120.23 38.54C119.13 38.54 118.02 38.54 118.02 37.66C118.02 36.84 119.23 36.2 120 35.84C120.02 36.1 120.02 36.27 120.02 36.44C120.02 36.8 119.99 37.17 119.97 37.4H120.84C120.87 37.08 120.87 36.78 120.87 36.64C120.87 36.28 120.86 35.85 120.83 35.5C121.93 35.08 122.64 34.86 123.45 34.63L123.21 33.76C122.31 34.07 120.94 34.62 120.71 34.71C120.51 33.76 119.87 33.54 119.19 33.54C118.69 33.54 118.29 33.71 117.59 34.13C117.88 33.63 118.02 33.3 118.25 32.69H122.66V31.89H118.49ZM127.63 31.61C128.22 31.51 128.54 31.43 129.08 31.29L128.78 30.56C127.48 30.91 126.37 31.06 124.91 31.1L125.08 31.85C125.89 31.82 126.3 31.78 126.82 31.72V33.19H124.89V33.93H126.72C126.41 34.64 125.79 35.94 124.76 36.95L125.12 37.9C126.05 36.89 126.55 35.95 126.82 35.35V39.84H127.63V35.16C128 35.84 128.38 36.37 128.85 36.83L129.26 36.04C128.44 35.34 127.89 34.46 127.63 33.96V33.93H129.24V33.19H127.63V31.61ZM133.86 31.2H129.6V39.57H133.86V31.2ZM133.04 38.79H130.4V31.96H133.04V38.79ZM142.44 31.52C140.91 31.02 139.2 30.93 138.34 30.89L138.18 31.75C139.53 31.8 141 31.99 142.19 32.47L142.44 31.52ZM136.96 32.32C136.83 32.84 136.74 33.39 136.7 34.32C136.69 34.62 136.66 36.12 136.66 36.46L137.55 36.49C137.56 36.44 137.57 36.41 137.6 36.31C138.26 35.44 139.6 34.87 140.94 34.87C142.26 34.87 142.79 35.59 142.79 36.37C142.79 36.78 142.68 37.25 142.4 37.55C141.8 38.21 140.6 38.48 139.22 38.48C138.55 38.48 137.94 38.42 137.27 38.3L137.37 39.18C137.78 39.24 138.37 39.32 139.29 39.32C141.43 39.32 143.74 38.78 143.74 36.38C143.74 35.55 143.31 34.06 140.99 34.06C139.69 34.06 138.57 34.48 137.55 35.29C137.55 33.82 137.63 33.24 137.86 32.48L136.96 32.32ZM149.41 39.5C151.53 39.09 152.76 38.36 152.76 35.14C152.76 34.97 152.74 34.29 152.73 34.02H154.51V33.18H152.68C152.66 32.87 152.58 31.42 152.55 31.03L151.69 31.05C151.72 31.58 151.77 32.73 151.79 33.18H148.42V34.02H151.82C151.83 34.33 151.84 34.8 151.84 35.01C151.84 37.74 151 38.32 149.08 38.69L149.41 39.5ZM152.71 30.62C153.03 31.35 153.2 31.96 153.32 32.69L154.04 32.43C153.85 31.63 153.73 31.15 153.38 30.39L152.71 30.62ZM154.07 30.36C154.39 31.09 154.53 31.58 154.68 32.42L155.4 32.16C155.17 31.21 155.09 30.88 154.74 30.12L154.07 30.36ZM146.69 31.05C146.49 32.54 146.39 34.04 146.39 35.54C146.39 36.78 146.44 38.03 146.7 39.25L147.63 39.13C147.36 37.87 147.29 36.61 147.29 35.45C147.29 33.37 147.52 31.89 147.65 31.11L146.69 31.05ZM161.4 32.03V30.98H160.52V32.03H156.72V32.8H160.52V34.04H156.87V34.8H160.52V35.98C160.31 35.94 159.97 35.88 159.52 35.88C158.03 35.88 157 36.64 157 37.69C157 38.33 157.42 39.37 159.37 39.37C160.21 39.37 161.4 39.1 161.4 37.67V37.1C161.95 37.35 162.83 37.81 163.8 38.88L164.39 38.02C163.34 37.14 162.46 36.59 161.4 36.2V34.8H164.4V34.04H161.4V32.8H164.59V32.03H161.4ZM160.52 37.49C160.52 38.28 160.13 38.59 159.26 38.59C157.94 38.59 157.84 37.85 157.84 37.66C157.84 37 158.59 36.62 159.52 36.62C160.03 36.62 160.32 36.7 160.52 36.76V37.49ZM172.65 32V30.88H171.73L171.75 32H166.83V32.83H171.76L171.77 33.91C171.56 33.73 171.32 33.51 170.65 33.51C169.41 33.51 168.58 34.37 168.58 35.54C168.58 36.51 169.2 37.5 170.44 37.5C171.59 37.5 171.92 36.75 172.02 36.54C171.89 37.73 171.15 38.65 168.48 38.62L168.76 39.46C170.5 39.39 172.84 38.91 172.84 36.27C172.84 36.01 172.82 35.75 172.78 35.5C172.75 35.26 172.7 35.03 172.65 34.84V32.83H175.27V32H172.65ZM171.79 35.61C171.79 36.27 171.27 36.77 170.56 36.77C169.63 36.77 169.42 35.92 169.42 35.5C169.42 34.58 170.12 34.26 170.67 34.26C171.55 34.26 171.71 34.85 171.79 35.17V35.61ZM178.67 36.53C177.85 36.53 177.18 37.19 177.18 38.02C177.18 38.84 177.84 39.51 178.67 39.51C179.49 39.51 180.16 38.84 180.16 38.02C180.16 37.18 179.48 36.53 178.67 36.53ZM178.67 37.03C179.2 37.03 179.65 37.46 179.65 38.02C179.65 38.56 179.21 39 178.67 39C178.12 39 177.68 38.56 177.68 38.02C177.68 37.47 178.13 37.03 178.67 37.03Z" fill="black"/>
</svg>
