<svg width="432" height="67" viewBox="0 0 432 67" fill="none" xmlns="http://www.w3.org/2000/svg">
<path d="M3.304 3.692V7.22H17.164C16.184 9.88 14.7 12.876 11.676 16.152C8.68 19.4 5.824 21.36 1.764 23.096L3.892 26.204C8.148 24.328 12.152 21.052 14.784 18.112C18.956 21.752 21.336 24.356 23.044 26.26L26.18 23.236C22.848 19.932 21.336 18.7 17.08 15.34C18.872 12.848 20.944 9.376 22.092 3.692H3.304ZM34.426 14.836C36.33 16.264 41.622 20.24 45.71 25.952L48.986 23.264C47.558 21.528 46.606 20.492 44.646 18.532C52.878 12.876 54.502 7.444 55.174 4.728H31.15V8.312H49.658C47.922 11.28 45.878 13.52 42.042 16.124C39.69 14.08 38.206 13.016 37.254 12.344L34.426 14.836ZM60.088 12.4V16.292H84.112V12.4H60.088ZM112.546 14.892C110.082 13.548 105.602 11.056 99.302 9.068V2.348H95.27V26.26H99.302V12.96C103.81 14.724 106.554 16.18 110.586 18.784L112.546 14.892ZM119.42 4.14V7.808H136.948C136.08 14.164 133.588 20.324 121.548 22.592L123.172 26.092C139.44 22.788 140.756 11.364 141.204 4.14H119.42ZM159.166 13.772C156.534 17.244 153.09 20.044 149.086 21.808L150.962 24.58C153.23 23.432 157.066 21.024 160.258 16.768L160.314 22.536C160.314 23.348 160.118 23.46 159.39 23.46C158.69 23.46 156.702 23.32 155.974 23.264L156.478 26.428C156.982 26.456 158.382 26.54 159.166 26.54C160.622 26.54 163.59 26.54 163.562 22.984L163.478 13.772H168.686V10.58H163.45L163.394 6.94H160.146L160.174 10.58H149.898V13.772H159.166ZM187.824 7.808C184.016 5.512 180.88 4.476 178.836 3.86L177.128 7.08C181.692 8.564 184.576 10.412 185.808 11.252L187.824 7.808ZM178.5 25.812C191.52 24.384 197.288 17.804 200.62 7.472L197.344 5.176C193.76 18.308 185.976 21.08 177.66 21.752L178.5 25.812ZM223.342 15.284H211.246V24.916H222.11L222.502 27.604H227.29C228.242 27.604 229.698 27.492 229.698 24.916V2.208H218.442V13.324H226.366V23.376C226.366 23.852 226.282 24.132 225.638 24.132H223.342V15.284ZM226.366 4.924V6.688H221.774V4.924H226.366ZM226.366 8.816V10.692H221.774V8.816H226.366ZM220.15 18.14V21.948H214.438V18.14H220.15ZM205.002 27.604H208.39V13.324H216.062V2.208H205.002V27.604ZM212.73 4.924V6.688H208.418V4.924H212.73ZM212.73 8.816V10.692H208.418V8.816H212.73ZM240.016 24.3H237.076V21.164H240.016V24.3ZM233.912 14.248V17.076H242.788V14.248H233.912ZM233.912 9.992V12.876H242.788V9.992H233.912ZM233.912 18.42V27.128H242.788V18.42H233.912ZM249.424 1.2C247.576 4.14 245.364 6.156 243.46 7.388V5.876H233.128V8.76H242.844L244.356 10.944C246.484 9.628 249.732 6.716 251.16 4.224C251.972 5.652 254.128 9.236 258.216 11.84L260.064 8.592C255.976 5.96 254.072 3.3 252.868 1.2H249.424ZM233.912 1.816V4.672H242.788V1.816H233.912ZM251.328 8.172C248.864 10.552 247.184 11.7 243.88 13.072L245.56 15.704C249.004 14.192 251.3 12.54 253.624 10.328L251.328 8.172ZM257.628 17.188C254.044 21.248 248.472 23.74 243.516 24.328L245.14 27.548C253.4 25.784 257.824 21.668 259.896 19.568L257.628 17.188ZM254.548 12.652C251.664 15.592 247.8 17.608 243.852 18.672L245.672 21.64C247.856 20.912 252.756 19.176 256.872 14.864L254.548 12.652ZM274.386 4.644C274.638 3.636 274.778 3.104 274.974 2.04L271.11 1.844C270.942 2.964 270.83 3.552 270.578 4.644H264.446V7.808H269.626C268.058 12.064 266.098 14.808 263.466 17.356L265.986 19.96C267.05 18.896 269.206 15.928 269.794 15.088C272.118 12.792 273.938 12.512 274.722 12.512C276.29 12.512 276.598 13.324 276.794 13.828C274.19 15.06 269.43 17.412 269.43 21.22C269.43 26.036 275.646 26.176 279.594 26.176C281.386 26.176 283.626 26.092 285.838 25.98L285.782 22.48C282.674 22.844 279.146 22.844 278.642 22.844C275.618 22.844 273.21 22.844 273.21 20.8C273.21 19.54 274.386 18.308 277.27 16.992C277.298 17.636 277.326 18.812 277.186 20.436H280.714C280.742 19.96 280.77 19.316 280.77 18.392C280.77 17.048 280.686 16.18 280.658 15.592C283.794 14.5 285.922 13.968 287.406 13.632L286.65 10.16C285.138 10.58 283.57 11.14 280.07 12.456C279.454 10.72 278.278 9.6 275.73 9.6C274.386 9.6 273.686 9.936 271.922 10.832C272.538 9.74 272.846 9.096 273.35 7.808H285.138V4.644H274.386ZM296.856 8.452H291.2V11.784H296.408C294.98 14.696 293.216 17.216 290.892 19.344L292.292 23.432C293.552 22.06 295.26 20.156 296.856 16.88V27.604H300.244V16.6C301.308 18.56 302.428 19.904 302.932 20.52L304.724 17.524C302.204 15.06 300.636 12.232 300.384 11.784H304.864V8.452H300.244V5.036C302.792 4.728 303.884 4.448 305.088 4.112L303.968 0.975999C299.908 2.208 291.9 2.432 291.34 2.432L291.788 5.624C292.88 5.568 295.68 5.4 296.856 5.344V8.452ZM306.432 3.244V21.584H309.932V3.244H306.432ZM313.236 1.116V23.124C313.236 23.684 313.068 23.88 312.368 23.88H308.056L308.728 27.604H313.796C314.58 27.604 316.764 27.352 316.764 24.636V1.116H313.236ZM345.31 2.292H322.854V15.788C322.854 19.792 321.734 22.536 320.25 24.692L323.134 27.492C324.59 25.476 325.542 23.152 325.962 19.26H332.178V27.352H335.454V19.26H341.782V23.376C341.782 24.02 341.446 24.076 341.082 24.076H338.31L338.786 27.604H342.258C343.77 27.604 345.31 27.128 345.31 24.86V2.292ZM332.178 9.236H326.242V5.624H332.178V9.236ZM341.782 9.236H335.454V5.624H341.782V9.236ZM332.178 16.04H326.242V12.428H332.178V16.04ZM341.782 16.04H335.454V12.428H341.782V16.04ZM366.408 11.532C367.724 13.296 368.452 14.64 369.404 16.88L371.7 15.536C370.692 13.436 369.824 11.84 368.564 10.272L366.408 11.532ZM370.356 9.684C371.728 11.504 372.428 12.764 373.408 15.004L375.704 13.716C374.64 11.56 373.828 10.104 372.512 8.48L370.356 9.684ZM374.192 3.524C368.508 3.636 363.16 3.776 356.356 4.224C353.36 4.42 352.408 4.476 350.56 4.476L350.812 8.508C353.332 8.2 359.94 7.696 362.768 7.5C360.276 9.096 355.936 12.484 355.936 17.468C355.936 25.812 366.044 25.952 371.336 26.064L371.924 22.032C371.42 22.06 370.944 22.088 370.104 22.088C361.62 22.088 359.8 20.044 359.8 17.272C359.8 12.932 364.784 8.704 368.648 7.556C369.628 7.248 370.692 7.192 371.784 7.192C372.428 7.192 373.212 7.22 374.304 7.276L374.192 3.524ZM402.85 10.272C400.582 10.832 398.174 11.084 395.178 11.252C394.87 10.44 394.618 9.32 394.478 8.592C396.55 8.48 399.126 8.256 401.17 7.864L400.834 4.588C398.482 5.064 396.326 5.26 393.946 5.4C393.834 4.532 393.722 3.496 393.694 2.32L389.802 2.404C389.858 3.468 389.942 4 390.11 5.54H381.066V8.76H389.606C389.97 8.76 390.054 8.76 390.67 8.732C390.978 10.16 391.286 11.224 391.342 11.364C390.922 11.392 390.502 11.364 390.082 11.364H380.058V14.5H390.894C391.09 14.5 391.762 14.5 392.406 14.472C392.938 15.788 393.862 18.028 395.71 20.1L398.986 18C398.314 17.244 397.39 16.124 396.466 14.304C399.21 14.108 401.142 13.912 403.298 13.492L402.85 10.272ZM384.286 16.628C382.69 18.364 382.298 19.624 382.298 20.828C382.298 22.844 383.866 24.356 385.378 25.056C386.526 25.56 388.094 26.232 394.282 26.204C397.894 26.204 399.238 26.092 400.554 26.008L400.414 22.368C399.014 22.508 396.83 22.704 393.358 22.704C389.41 22.704 386.078 22.34 386.078 20.24C386.078 19.68 386.358 19.064 387.226 18.084L384.286 16.628ZM427.252 2.852C420.616 3.132 417.9 3.16 411.768 3.132V6.744C415.324 6.688 418.18 6.548 421.176 6.352C414.764 11.98 409.864 15.732 408.716 16.572L410.816 19.708C415.072 15.676 418.264 13.324 422.604 13.324C426.356 13.324 428.092 15.2 428.092 17.776C428.092 19.204 427.476 20.856 425.852 21.864C424.732 18.532 421.652 17.02 419.104 17.02C416.136 17.02 413.924 18.924 413.924 21.388C413.924 23.88 416.248 26.288 421.428 26.288C427.42 26.288 431.76 23.04 431.76 17.664C431.76 12.148 427.448 10.3 424.116 10.3C423.164 10.3 421.876 10.496 420.56 10.86C422.772 9.124 425.74 6.8 427.252 5.764V2.852ZM422.884 23.18C422.632 23.236 422.044 23.376 421.092 23.376C418.74 23.376 417.172 22.536 417.172 21.22C417.172 20.632 417.872 19.904 419.02 19.904C420.952 19.904 422.184 21.136 422.884 23.18ZM1.344 43.112C3.388 44.288 5.656 46.248 6.972 47.76L9.408 44.708C7.336 42.552 5.236 41.236 3.556 40.284L1.344 43.112ZM0.868 54.088H4.424V59.8C3.304 60.976 0.784 62.572 0.56 62.712L2.1 66.408C2.772 65.876 4.816 64.308 6.328 62.292C7.756 65.82 11.956 65.848 15.12 65.848H26.796L27.58 62.46H15.68C12.404 62.46 8.484 62.46 7.868 58.988V50.784H0.868V54.088ZM24.668 39.836C21.056 41.18 15.652 41.712 11.368 41.712V50.98C11.368 55.852 9.8 57.98 9.1 58.904L12.012 61.172C14.448 57.784 14.812 53.892 14.812 51.372V50.868H19.04V61.564H22.512V50.868H27.104V47.62H14.812V44.624C17.052 44.512 22.008 44.148 26.544 42.972L24.668 39.836ZM52.738 62.852C50.05 60.556 44.59 57.252 41.342 55.488C38.094 53.752 37.73 53.556 37.73 53.108C37.73 52.688 38.57 52.072 39.242 51.596C43.918 48.208 46.858 46.108 50.218 42.916L46.186 40.788C44.058 42.916 42.966 44.008 36.414 49.272C34.146 51.092 33.11 52.044 33.11 53.388C33.11 54.536 33.894 55.32 35.63 56.412C43.75 61.564 45.486 62.684 49.042 65.68L52.738 62.852ZM73.024 65.092C75.852 64.812 78.68 63.972 80.64 62.32C83.44 59.968 84.504 56.496 84.504 53.192C84.504 47.452 81.144 42.02 72.8 42.02C65.716 42.02 59.668 46.584 59.668 54.648C59.668 58.848 61.656 62.852 65.212 62.852C70.98 62.852 73.332 53.192 73.808 45.548C78.204 45.856 80.556 48.656 80.556 53.024C80.556 59.828 75.348 61.172 71.82 61.508L73.024 65.092ZM70.196 45.744C69.328 55.88 66.864 58.82 65.38 58.82C63.7 58.82 63.28 56.048 63.28 54.732C63.28 50.112 65.912 46.668 70.196 45.744ZM104.37 52.128C104.51 51.176 104.538 50.644 104.538 49.664H111.734V46.668H99.666C99.974 46.08 100.198 45.548 100.506 44.848L97.09 44.372C96.53 45.996 95.27 47.844 92.918 49.664L95.522 51.988C96.446 51.148 96.922 50.644 97.706 49.664H101.262C101.262 50.28 101.262 51.064 101.094 52.128H93.45V55.124H100.114C99.358 56.356 97.93 58.092 93.254 58.904L95.13 62.012C99.218 60.724 101.514 58.904 102.914 56.496C103.894 58.288 105.798 60.584 111.51 62.124L113.274 58.932C110.586 58.512 107.086 57.476 105.49 55.124H112.63V52.128H104.37ZM88.942 40.984V65.848H114.226V62.6H92.414V44.26H113.61V40.984H88.942ZM125.72 60.696H131.544V63.076C131.544 63.44 131.516 63.552 131.04 63.552H128.632L129.304 66.492H132.804C133.42 66.492 134.876 66.492 134.876 64.644V60.696H140.756V55.152C141.428 55.516 141.596 55.6 142.184 55.88L143.584 53.08C142.828 52.856 142.212 52.66 141.316 52.156C142.212 51.26 142.66 50.728 142.94 50.392L140.812 49.132C140.224 49.972 139.944 50.336 139.412 50.896C138.292 50 137.928 49.524 137.424 48.908H143.248V46.5H133.756C133.924 46.136 134.036 45.884 134.288 45.24L131.432 44.848H143.304V42.048H133.364V40.06H129.808V42.048H120.596V47.928C119.98 45.856 119.364 44.68 118.972 43.924L116.592 45.688C117.264 47.2 117.74 48.516 118.272 50.952L120.596 49.384V51.008C120.596 52.044 120.596 52.828 120.54 53.78C119.336 54.228 119.084 54.312 116.704 54.984L117.264 58.54C118.188 58.176 118.888 57.896 120.232 57.196C119.784 60.388 118.86 62.32 117.208 64.392L119.98 66.604C123.34 62.068 123.648 56.58 123.76 53.836L124.908 55.908C125.3 55.628 125.524 55.544 125.72 55.404V60.696ZM137.676 53.78V55.152H128.828V53.78H137.676ZM130.284 51.652C130.788 51.064 131.6 50.196 132.412 48.908H134.148C134.624 49.664 135.212 50.56 136.276 51.652H130.284ZM137.676 57.14V58.568H128.828V57.14H137.676ZM124.264 50.7C124.796 51.148 124.992 51.316 125.58 51.96C125.188 52.212 124.712 52.52 123.788 52.968V44.848H131.096C130.872 45.688 130.648 46.164 130.508 46.5H124.432V48.908H128.996C128.66 49.328 128.184 49.888 127.4 50.588C126.728 49.86 126.308 49.524 125.916 49.216L124.264 50.7ZM127.4 60.724C126.532 61.536 125.244 62.656 122.08 63.524L123.788 66.296C125.216 65.736 127.624 64.56 129.64 62.572L127.4 60.724ZM143.724 63.608C141.596 62.992 140.112 62.236 138.348 60.752L136.248 62.796C138.628 64.868 141.204 66.016 141.96 66.352L143.724 63.608ZM161.714 59.884C161.126 59.492 159.922 58.652 157.626 57.924C157.654 57.42 157.654 57.112 157.654 56.496H161.994C162.554 59.268 163.114 60.808 163.394 61.508C161.07 62.908 159.334 63.412 158.27 63.72L159.53 66.52C160.622 66.212 162.302 65.708 164.626 64.28C165.494 65.54 166.67 66.632 168.714 66.632C171.066 66.632 172.018 64.644 172.746 62.796L170.73 60.276C170.226 61.704 169.61 62.628 169.386 62.964C169.246 63.16 168.994 63.412 168.686 63.412C167.986 63.412 167.482 62.656 167.258 62.32C169.498 60.304 170.422 58.736 170.898 57.896L168.154 56.748C167.65 57.56 167.09 58.4 165.97 59.492C165.718 58.652 165.41 57.42 165.214 56.496H172.466V53.528H168.826L170.114 52.688C169.246 51.764 169.078 51.596 168.49 51.12C168.994 51.064 169.946 50.952 170.394 50.896C170.45 51.232 170.506 51.4 170.618 52.016L172.774 51.288C172.326 49.692 171.906 48.152 171.262 46.864L169.302 47.48C169.526 47.928 169.582 48.068 169.834 48.824C169.526 48.852 167.65 48.964 167.23 48.992C169.134 46.92 170.03 45.744 171.682 43.308L169.582 42.384C169.134 43.112 168.994 43.28 167.846 44.848C167.538 44.484 167.314 44.232 167.006 43.924C167.398 43.42 168.378 42.132 169.19 40.704L166.866 40.032C166.642 40.48 166.502 40.788 165.466 42.356L165.018 41.964L163.786 43.644C163.73 42.412 163.73 41.292 163.73 40.172H160.566C160.566 41.908 160.566 42.636 160.594 43.476L158.718 42.44C158.354 43.056 158.074 43.56 157.038 44.904C156.73 44.512 156.45 44.232 156.17 43.896C157.29 42.636 157.906 41.6 158.41 40.788L156.058 40.06C155.778 40.648 155.582 41.04 154.546 42.468C154.378 42.328 154.126 42.132 153.986 42.02L152.558 44.092C153.174 44.652 154.098 45.436 155.414 46.948C154.714 47.816 153.762 48.992 153.23 49.552H152.81L153.118 51.96C154.462 51.848 157.29 51.624 158.69 51.456C158.746 51.848 158.802 52.016 158.858 52.548L161.014 51.904C160.874 51.148 160.51 49.328 159.67 47.48L157.682 48.068C157.878 48.488 157.962 48.712 158.186 49.44C157.822 49.468 156.478 49.524 156.03 49.524C157.57 47.9 159.978 44.736 160.622 43.84C160.734 47.284 161.042 50.532 161.49 53.528H153.958C153.062 52.38 152.306 51.26 151.718 50V48.292H153.398V45.072H151.718V40.172H148.582V45.072H145.978V48.292H148.442C147.938 51.064 147.098 53.78 145.642 56.188L146.958 60.92C147.462 59.968 148.022 58.96 148.582 56.888V66.548H151.718V54.872C152.334 56.132 152.474 56.356 152.838 56.944L153.734 54.592V56.496H154.546C154.462 60.192 154.154 61.844 152.67 64.308L155.078 66.576C155.946 65.456 156.898 64.028 157.374 60.668C158.97 61.424 159.782 62.124 160.342 62.6L161.714 59.884ZM165.886 51.932C166.194 52.184 166.866 52.716 167.678 53.528H164.682C164.626 53.22 164.458 51.736 164.402 51.4C164.766 51.4 166.502 51.26 166.922 51.232L165.886 51.932ZM164.15 49.104C164.01 47.816 163.87 46.248 163.814 44.26C164.85 45.128 165.83 46.248 166.278 46.836C165.242 48.124 164.682 48.768 164.402 49.104H164.15ZM194.292 63.972L195.02 66.548H197.764C200.34 66.548 200.564 65.568 200.564 63.58V41.04H189.448V50.728H197.26V62.32C197.26 63.02 197.204 63.244 196.42 63.244H194.74L195.132 62.6C194.152 62.208 192.864 61.704 191.184 60.08H195.804V57.616H189.476C189.616 56.972 189.644 56.552 189.7 55.936H195.44V53.5H192.892C192.976 53.304 193.536 52.24 193.732 51.512L190.428 51.176C190.288 51.736 190.008 52.772 189.728 53.5H186.844C186.676 52.856 186.312 51.876 185.976 51.176L182.784 51.68C182.98 52.016 183.596 53.332 183.708 53.5H181.356V55.936H186.62C186.62 56.468 186.62 56.888 186.424 57.616H180.796V60.08H185.164C183.316 62.18 181.244 62.824 180.236 63.104L182.028 65.848C186.396 64.224 187.992 61.284 188.384 60.556C188.692 61.088 190.176 63.72 193.48 65.26L194.292 63.972ZM197.26 43.42V44.96H192.668V43.42H197.26ZM197.26 46.892V48.432H192.668V46.892H197.26ZM176.036 66.548H179.34V50.728H187.124V41.04H176.036V66.548ZM183.932 43.42V44.96H179.34V43.42H183.932ZM183.932 46.892V48.432H179.34V46.892H183.932ZM208.53 65.148C210.882 60.584 212.562 53.864 213.346 49.496L215.474 49.468C218.246 49.44 218.974 50.252 218.974 53.444C218.974 55.432 218.638 57.672 218.246 59.128C217.826 60.64 217.434 61.48 215.586 61.48C214.438 61.48 213.29 61.256 212.786 61.144L213.01 64.896C213.43 64.952 214.578 65.092 216.09 65.092C218.554 65.092 220.318 64.336 221.27 62.208C222.334 59.8 222.614 55.908 222.614 53.864C222.614 47.9 220.654 45.996 216.51 45.996H213.99C214.382 43.532 214.466 42.832 214.662 41.32L210.742 41.124C210.602 43.14 210.49 44.204 210.238 45.996H205.618V49.552L209.65 49.524C209.062 52.744 207.41 59.072 204.918 63.468L208.53 65.148ZM229.978 55.992C229.67 51.568 228.55 47.144 225.694 43.728L222.53 45.296C224.966 48.544 225.946 52.604 226.086 56.664L229.978 55.992ZM253.764 42.748C250.684 41.824 247.38 41.18 241.668 40.984L241.024 44.456C248.416 44.848 252.056 46.332 252.84 46.64L253.764 42.748ZM237.72 45.66C237.132 49.188 237.076 50.644 236.992 57.196L240.66 57.336C240.688 57.084 240.716 56.972 240.744 56.636C242.48 54.536 245.812 53.192 249.032 53.192C251.748 53.192 253.316 54.592 253.316 56.608C253.316 59.436 251.328 61.62 244.076 61.62C241.724 61.62 239.792 61.368 238.504 61.2L238.952 64.812C239.932 64.924 241.584 65.092 244.16 65.092C251.86 65.092 257.208 63.02 257.208 56.748C257.208 54.284 255.892 49.888 249.452 49.888C246.232 49.888 243.432 50.84 240.744 52.66C240.828 49.244 240.996 47.9 241.5 46.024L237.72 45.66ZM271.138 64.952L273.294 66.632C274.75 63.804 275.59 60.752 275.59 53.444V44.092H284.69V62.432C284.69 63.104 284.634 63.384 283.794 63.384H280.826L281.386 66.548H285.39C287.742 66.548 287.742 64.812 287.742 63.832V41.068H272.566V53.304C272.566 55.18 272.566 60.164 271.138 63.412V57.448H263.018V66.072H271.138V64.952ZM268.366 63.356H266.07V60.136H268.366V63.356ZM263.018 41.068V43.7H271.138V41.068H263.018ZM263.018 49.132V51.904H271.138V49.132H263.018ZM263.018 53.22V55.992H271.138V53.22H263.018ZM276.486 54.984V62.824H283.57V54.984H276.486ZM281.246 60.108H278.866V57.672H281.246V60.108ZM262.262 45.044V47.872H271.782V45.044H262.262ZM281.582 44.764H278.838V46.108H276.29V48.712H278.838V50.756H276.262V53.416H283.99V50.756H281.582V48.712H283.962V46.108H281.582V44.764ZM307.72 44.82C309.344 46.528 310.184 47.704 311.444 49.86L313.516 48.236C312.228 46.192 311.164 44.736 309.708 43.308L307.72 44.82ZM311.444 42.412C313.152 44.26 313.88 45.212 315.224 47.424L317.324 45.856C316.148 44.036 315.028 42.468 313.432 40.956L311.444 42.412ZM317.52 58.288C316.904 57.896 315.812 57.168 313.908 55.6C312.2 54.2 308.616 51.064 307.188 49.692C304.36 47.032 303.268 46.052 301.28 46.052C300.02 46.052 299.152 46.528 298.004 47.48C297.024 48.32 292.656 52.884 291.592 53.808L294.14 57.224C295.708 55.404 297.276 53.5 298.844 51.624C300.216 50 300.692 49.832 301.14 49.832C301.56 49.832 301.924 50 302.54 50.504C303.296 51.12 304.388 52.24 305.312 53.136C309.288 57.084 312.452 60.192 315.056 62.124L317.52 58.288ZM340.102 41.852C333.466 42.132 330.75 42.16 324.618 42.132V45.744C328.174 45.688 331.03 45.548 334.026 45.352C327.614 50.98 322.714 54.732 321.566 55.572L323.666 58.708C327.922 54.676 331.114 52.324 335.454 52.324C339.206 52.324 340.942 54.2 340.942 56.776C340.942 58.204 340.326 59.856 338.702 60.864C337.582 57.532 334.502 56.02 331.954 56.02C328.986 56.02 326.774 57.924 326.774 60.388C326.774 62.88 329.098 65.288 334.278 65.288C340.27 65.288 344.61 62.04 344.61 56.664C344.61 51.148 340.298 49.3 336.966 49.3C336.014 49.3 334.726 49.496 333.41 49.86C335.622 48.124 338.59 45.8 340.102 44.764V41.852ZM335.734 62.18C335.482 62.236 334.894 62.376 333.942 62.376C331.59 62.376 330.022 61.536 330.022 60.22C330.022 59.632 330.722 58.904 331.87 58.904C333.802 58.904 335.034 60.136 335.734 62.18Z" fill="black"/>
</svg>
