<svg width="352" height="135" viewBox="0 0 352 135" fill="none" xmlns="http://www.w3.org/2000/svg">
<path d="M3.072 7.92V14.096C1.616 14.752 1.392 14.864 0.336 15.216L0.704 16.528C1.104 16.352 1.968 15.952 2.96 15.36C2.528 18.448 1.232 19.84 0.688 20.416L1.776 21.312C2.512 20.432 4.352 18.288 4.352 13.408V9.12H15.456V7.92H9.504V6.512H8.192V7.92H3.072ZM2.592 11.808C2.352 10.8 2.08 10 1.504 8.976L0.432 9.52C0.672 9.952 1.12 10.752 1.44 12.384L2.592 11.808ZM15.104 10.8H4.976V11.968H9.472V19.76H7.216V13.488H5.888V19.76H3.808V20.96H15.376V19.76H10.768V16.096H14.592V14.928H10.768V11.968H15.104V10.8ZM32.168 20C31.176 19.376 28.408 17.616 27.4 12.096H31.976V10.816H27.336V6.512H25.96V10.816H21.976V12.096H25.912C25.848 12.944 25.672 13.792 25.448 14.624C24.744 17.264 23.56 18.864 21.592 20.128L22.344 21.328C25.176 19.328 26.232 16.896 26.824 14.752C27.608 17.056 28.728 19.568 31.4 21.264L32.168 20ZM19.96 6.512V14.672C18.76 15.552 17.368 16.32 16.904 16.576L17.304 18C17.96 17.68 19.368 16.8 19.96 16.288V21.328H21.288V6.512H19.96ZM19.48 11.728C19.192 10.64 18.696 9.488 18.168 8.544L17.016 9.056C17.64 10.24 17.912 10.912 18.28 12.24L19.48 11.728ZM31.208 9.424C30.952 9.008 30.312 7.92 29.208 6.768L28.2 7.44C28.984 8.272 29.752 9.472 30.104 10.096L31.208 9.424ZM39.376 21.408C40.416 21.088 42.864 20.24 43.952 17.44C44.368 18.464 45.568 20.448 48.224 21.36L48.864 20.16C47.728 19.792 45.92 19.104 44.928 16.848H48.064V12.416H44.464V10.944H46.704V10.352C47.152 10.688 47.552 10.944 48.208 11.328L48.912 10.176C46.192 8.8 45.232 7.52 44.608 6.464H43.04C41.808 8.24 40.688 9.232 38.832 10.192L39.472 11.344C39.888 11.136 40.336 10.896 41.056 10.368V10.944H43.2V12.416H39.6V16.848H42.848C42.144 19.328 39.456 20.048 38.72 20.24L39.376 21.408ZM44.464 13.52H46.832V15.744H44.368C44.432 15.312 44.464 14.896 44.464 13.888V13.52ZM43.2 13.92C43.2 14.848 43.168 15.312 43.104 15.744H40.864V13.52H43.2V13.92ZM41.68 9.84C42.608 8.992 43.44 7.92 43.824 7.44C44.208 7.936 45.04 9.008 46.048 9.84H41.68ZM39.328 14.576C38.096 13.248 37.52 12 37.296 11.424V10.816H38.688V9.6H37.296V6.496H36.032V9.6H33.792V10.816H35.936C35.104 14.208 34.112 15.488 33.52 16.256L34.08 17.84C34.992 16.592 35.632 15.168 36.032 13.664V21.344H37.296V13.344C37.68 14.304 38.048 14.896 38.672 15.776L39.328 14.576ZM59.64 11.696C59.208 12.192 58.584 12.944 56.872 14.496C56.696 14.352 56.392 14.112 55.608 13.6C55.672 13.536 56.808 12.56 57.64 11.456H63.608V13.344H64.936V10.304H58.456V8.944H64.936V7.76H58.456V6.528H57.144V7.76H50.728V8.944H57.144V10.304H50.664V13.344H51.976V11.456H55.944C55.656 11.856 55.4 12.208 54.6 12.96C54.024 12.592 53.848 12.512 53.544 12.352L52.728 13.328C54.424 14.144 55.688 15.072 55.976 15.312C55.832 15.44 55.72 15.536 55.416 15.776C54.696 15.792 51.208 15.824 50.424 15.808L50.52 17.04C51.464 17.04 56.104 16.944 57.144 16.928V21.312H58.472V16.864L63.032 16.624C63.608 17.184 63.864 17.504 64.12 17.84L65.032 16.928C64.584 16.4 63.544 15.152 61.384 13.584L60.456 14.416C60.84 14.688 61.096 14.864 61.944 15.6C58.696 15.712 58.328 15.728 57.224 15.776C59.272 13.984 59.928 13.392 60.776 12.432L59.64 11.696ZM51.16 21.152C52.008 20.736 53.832 19.808 55.304 18.08L54.264 17.36C52.856 18.976 50.792 19.888 50.328 20.096L51.16 21.152ZM60.072 18.016C60.824 18.8 62.024 19.968 64.488 21.072L65.304 19.936C63.448 19.232 62.248 18.48 61 17.248L60.072 18.016ZM75.136 9.808H80.176V8.416H68.608V9.808H73.616V18.032H67.744V19.456H81.04V18.032H75.136V9.808ZM90.488 10.368C90.072 10.112 88.312 8.976 85.48 8.128L84.76 9.408C87.064 10.128 88.744 11.072 89.688 11.712L90.488 10.368ZM85.384 20.256C94.6 19.648 97.16 12.176 97.928 9.904L96.68 8.976C95.576 12.56 93.192 18.224 85.096 18.656L85.384 20.256ZM107.744 9.328C106.48 8.72 104.912 8 103.056 7.584L102.48 8.8C104.128 9.264 105.664 9.84 107.136 10.656L107.744 9.328ZM106.432 13.072C105.2 12.352 103.28 11.616 101.808 11.264L101.248 12.528C103.552 13.2 105.008 13.952 105.84 14.432L106.432 13.072ZM110.32 6.704C111.056 7.968 111.28 8.512 111.712 9.84L112.832 9.28C112.304 7.872 112 7.136 111.36 6.176L110.32 6.704ZM112.992 6.544C113.68 7.76 113.936 8.432 114.336 9.712L115.472 9.168C114.992 7.728 114.56 6.864 114.048 6.048L112.992 6.544ZM102.432 20.352C108.96 19.504 112.064 17.04 114.144 11.104L112.896 10.192C111.136 15.744 108.448 18.16 102.08 18.784L102.432 20.352ZM123.688 10.368C123.272 10.112 121.512 8.976 118.68 8.128L117.96 9.408C120.264 10.128 121.944 11.072 122.888 11.712L123.688 10.368ZM118.584 20.256C127.8 19.648 130.36 12.176 131.128 9.904L129.88 8.976C128.776 12.56 126.392 18.224 118.296 18.656L118.584 20.256ZM145.328 21.296V7.584H148.4V6.304H144.048V21.296H145.328ZM160.088 17.872C161.032 13.888 161.352 9.856 161.464 8.608H152.616V10.032H159.832C159.736 11.184 159.432 14.56 158.552 17.872H150.584V19.296H164.136V17.872H160.088ZM170.08 7.6H168.608V17.728C168.608 19.76 169.6 20.16 171.984 20.16H176.464C177.472 20.16 178.992 20.112 179.968 19.952L179.888 18.512C178.864 18.704 177.584 18.768 176.304 18.768H172.192C170.368 18.768 170.08 18.64 170.08 17.488V13.952C171.76 13.6 174.688 12.864 178.192 11.264L177.536 9.92C175.136 11.152 172.928 11.904 170.08 12.56V7.6ZM177.04 7.12C177.76 8.224 178.128 8.928 178.608 10.192L179.696 9.552C179.184 8.368 178.784 7.552 178.064 6.544L177.04 7.12ZM179.488 6.368C180.288 7.584 180.56 8.16 181.04 9.44L182.128 8.816C181.664 7.68 181.216 6.752 180.512 5.792L179.488 6.368ZM183.72 13.152V14.672H197.48V13.152H183.72ZM202.672 6.544V20.256H199.6V21.536H203.952V6.544H202.672ZM227.32 9.968L227.288 7.264H225.832L225.88 9.968H221.08V11.344H225.912L225.976 15.12C225.528 14.992 225.128 14.88 224.328 14.88C222.296 14.88 220.824 16.016 220.824 17.68C220.824 18.976 221.752 20.432 224.248 20.432C227.304 20.432 227.32 18.624 227.32 17.712V17.12C228.2 17.68 229 18.352 229.64 19.2L230.584 17.904C229.848 17.12 228.664 16.208 227.368 15.568L227.32 11.344H230.312V9.968H227.32ZM225.976 17.424C225.976 18.288 225.912 19.232 224.168 19.232C223.32 19.232 222.104 18.928 222.104 17.696C222.104 16.496 223.272 16.08 224.344 16.08C225.16 16.08 225.608 16.272 225.976 16.432V17.424ZM218.024 7.232C217.592 9.728 217.432 12.048 217.432 14.576C217.432 16.544 217.496 18.528 217.88 20.464L219.32 20.272C218.904 18.448 218.824 16.56 218.824 14.688C218.824 11.104 219.208 8.944 219.512 7.344L218.024 7.232ZM244.928 21.296V7.584H248V6.304H243.648V21.296H244.928ZM258.232 6.496V7.504H253.448V8.592H255.784C255.832 8.72 256.12 9.792 256.184 10.048H253.976V18.896H255.192V11.088H258.296V12.288H255.688V13.28H258.296V14.384H256.264V17.696H261.512V14.384H259.464V13.28H262.056V12.288H259.464V11.088H262.552V17.504C262.552 17.872 262.408 17.904 262.2 17.904L260.712 17.888L260.888 19.104H262.584C263.416 19.104 263.768 18.64 263.768 17.872V10.048H261.432C261.656 9.504 261.784 9.136 261.944 8.592H264.36V7.504H259.528V6.496H258.232ZM257.336 10.048C257.192 9.424 257.176 9.344 256.984 8.592H260.776C260.728 8.8 260.488 9.632 260.312 10.048H257.336ZM260.408 16.72H257.352V15.344H260.408V16.72ZM256.328 19.728C255.864 19.728 252.952 19.504 252.632 17.552V12.704H249.64V14.016H251.368V18.528C250.664 19.28 249.752 19.872 249.464 20.048L250.104 21.408C251.24 20.416 251.32 20.32 252.344 19.152C252.696 19.616 253.688 20.96 256.312 20.96H264.312L264.568 19.728H256.328ZM253.208 9.376C252.44 8.304 251.512 7.36 250.76 6.72L249.88 7.52C251.32 8.928 251.88 9.792 252.168 10.224L253.208 9.376ZM267.632 10.976L265.984 11.248L266.064 12.544L267.632 12.288V17.408C267.632 18.176 268.032 18.576 268.784 18.576H270.656C271.968 18.576 272.272 17.312 272.528 15.216L271.232 14.912C271.2 15.52 271.088 17.344 270.4 17.344H269.408C269.008 17.344 268.928 17.232 268.928 16.88V12.08L272.448 11.504L272.368 10.192L268.928 10.752V6.512H267.632V10.976ZM272 7.2V8.496H274.864C274.864 14.112 274.352 17.712 269.68 20.208L270.608 21.36C275.04 18.656 276.144 15.488 276.208 8.496H279.232C279.232 10.32 279.232 18.16 278.384 19.536C278.112 19.984 277.584 19.968 277.424 19.968L275.04 19.952L275.328 21.312H277.648C279.072 21.312 279.504 20.576 279.696 20.176C280.576 18.288 280.576 11.104 280.576 7.2H272ZM293.864 11.584H292.424L292.52 15.008C292.168 14.928 291.656 14.816 290.856 14.816C288.024 14.816 287.096 16.592 287.096 17.792C287.096 19.28 288.28 20.608 290.68 20.608C292.264 20.608 293.88 20.032 293.88 17.664V17.008C294.456 17.344 295.432 17.936 296.472 19.184L297.352 17.92C296.568 17.056 295.288 16.064 293.944 15.472L293.864 11.584ZM292.552 17.408C292.552 18.496 292.312 19.36 290.728 19.36C290.424 19.36 288.456 19.36 288.456 17.744C288.456 16.848 289.224 16.032 290.856 16.032C291.704 16.032 292.184 16.208 292.552 16.336V17.408ZM287.8 9.12C288.008 7.952 288.024 7.856 288.152 7.088L286.632 7.024C286.568 7.664 286.52 8.016 286.344 9.12H283.384V10.464H286.088C285.672 12.256 284.968 15.392 283.256 18.144L284.728 18.784C285.304 17.6 286.616 14.928 287.528 10.464H291.16V9.12H287.8ZM297.08 10.368C295.384 9.424 294.312 8.944 292.712 8.384L292.152 9.568C293.592 10.096 294.792 10.672 296.408 11.648L297.08 10.368ZM301.184 13.872C302.304 13.168 302.752 12.72 303.216 12.256C305.568 13.44 306.976 14.432 308.304 15.568C306.48 17.568 304 18.752 301.376 19.376L302.064 20.704C311.664 18.208 312.496 10.56 312.784 7.952H304.512C303.552 10.08 302.144 11.568 300.24 12.752L301.184 13.872ZM311.136 9.28C310.768 11.76 310.032 13.232 309.184 14.48C307.6 13.12 305.76 12.128 304.096 11.296C304.528 10.768 304.816 10.4 305.472 9.28H311.136ZM325.112 12.096C327.352 10.304 328.68 8.752 329.384 7.92L328.04 7.04C325.064 10.784 321.128 13.68 316.568 15.104L317.272 16.432C319.32 15.712 321.4 14.752 323.576 13.232V20.688H325.112V12.096ZM345.392 8.816C341.664 7.968 338.784 7.616 334.928 7.392L334.688 8.72C338.656 8.928 341.776 9.392 345.12 10.288L345.392 8.816ZM344.56 13.664C341.904 12.864 339.36 12.32 334.848 11.984L334.576 13.312C338.576 13.616 341.168 14.064 344.304 15.056L344.56 13.664ZM346.048 19.088C344.288 18.576 340.256 17.392 333.904 17.072L333.616 18.432C339.312 18.864 342.24 19.504 345.648 20.608L346.048 19.088ZM7.488 37.368C7.072 37.112 5.312 35.976 2.48 35.128L1.76 36.408C4.064 37.128 5.744 38.072 6.688 38.712L7.488 37.368ZM2.384 47.256C11.6 46.648 14.16 39.176 14.928 36.904L13.68 35.976C12.576 39.56 10.192 45.224 2.096 45.656L2.384 47.256ZM18.968 47.832C24.664 46.552 28.008 43.384 29.336 37.288L27.848 35.32H21.448C20.328 37.56 18.696 38.936 17.448 39.784L18.36 40.872C20.168 39.656 21.352 38.344 22.408 36.664H27.96C27.048 41.48 24.568 45.24 18.36 46.472L18.968 47.832ZM30.008 33.4C30.84 34.536 31.16 35.176 31.704 36.408L32.728 35.736C32.056 34.392 31.784 33.832 30.968 32.792L30.008 33.4ZM27.88 34.024C28.664 35.064 29.064 35.752 29.624 37L30.632 36.312C29.96 34.984 29.64 34.408 28.824 33.4L27.88 34.024ZM43.424 39C44.176 40.056 44.576 40.808 45.104 42.088L46.224 41.384C45.664 40.168 45.2 39.304 44.464 38.36L43.424 39ZM45.792 37.976C46.56 39.08 46.928 39.768 47.472 41.064L48.592 40.36C48.016 39.112 47.6 38.328 46.832 37.336L45.792 37.976ZM47.744 34.968C44.08 34.984 42.576 35.016 38.784 35.224C37.968 35.272 35.2 35.4 34.416 35.416L34.544 36.984C36.288 36.776 41.824 36.44 42.288 36.424C40.4 37.528 37.6 39.624 37.6 42.664C37.6 47.144 42.912 47.368 46.064 47.496L46.352 45.944C44.928 45.992 43.344 45.864 42.32 45.656C40.624 45.304 39.088 44.648 39.088 42.568C39.088 39.816 42.224 37.336 44.528 36.568C45.008 36.408 45.36 36.376 46.144 36.376C46.592 36.376 47.088 36.392 47.776 36.44L47.744 34.968ZM58.2 47.496C59.976 47.32 61.576 46.776 62.616 45.912C64.072 44.696 64.76 42.808 64.76 40.904C64.76 38.2 63.368 34.616 58.184 34.616C53.96 34.616 50.792 37.4 50.792 41.752C50.792 44.392 52.104 46.248 53.672 46.248C54.392 46.248 55.416 45.88 56.36 44.392C58.008 41.752 58.328 37.816 58.472 35.96C62.872 36.104 63.256 39.624 63.256 40.888C63.256 45.464 59.368 45.928 57.72 46.104L58.2 47.496ZM57.048 36.024C56.888 37.864 56.632 41.112 55.288 43.416C54.872 44.12 54.392 44.712 53.72 44.712C52.584 44.712 52.184 42.872 52.184 41.784C52.184 39.928 52.92 38.136 54.408 37.048C55.224 36.44 56.104 36.2 57.048 36.024ZM75.632 33.496V34.504H70.848V35.592H73.184C73.232 35.72 73.52 36.792 73.584 37.048H71.376V45.896H72.592V38.088H75.696V39.288H73.088V40.28H75.696V41.384H73.664V44.696H78.912V41.384H76.864V40.28H79.456V39.288H76.864V38.088H79.952V44.504C79.952 44.872 79.808 44.904 79.6 44.904L78.112 44.888L78.288 46.104H79.984C80.816 46.104 81.168 45.64 81.168 44.872V37.048H78.832C79.056 36.504 79.184 36.136 79.344 35.592H81.76V34.504H76.928V33.496H75.632ZM74.736 37.048C74.592 36.424 74.576 36.344 74.384 35.592H78.176C78.128 35.8 77.888 36.632 77.712 37.048H74.736ZM77.808 43.72H74.752V42.344H77.808V43.72ZM73.728 46.728C73.264 46.728 70.352 46.504 70.032 44.552V39.704H67.04V41.016H68.768V45.528C68.064 46.28 67.152 46.872 66.864 47.048L67.504 48.408C68.64 47.416 68.72 47.32 69.744 46.152C70.096 46.616 71.088 47.96 73.712 47.96H81.712L81.968 46.728H73.728ZM70.608 36.376C69.84 35.304 68.912 34.36 68.16 33.72L67.28 34.52C68.72 35.928 69.28 36.792 69.568 37.224L70.608 36.376ZM85.032 37.976L83.384 38.248L83.464 39.544L85.032 39.288V44.408C85.032 45.176 85.432 45.576 86.184 45.576H88.056C89.368 45.576 89.672 44.312 89.928 42.216L88.632 41.912C88.6 42.52 88.488 44.344 87.8 44.344H86.808C86.408 44.344 86.328 44.232 86.328 43.88V39.08L89.848 38.504L89.768 37.192L86.328 37.752V33.512H85.032V37.976ZM89.4 34.2V35.496H92.264C92.264 41.112 91.752 44.712 87.08 47.208L88.008 48.36C92.44 45.656 93.544 42.488 93.608 35.496H96.632C96.632 37.32 96.632 45.16 95.784 46.536C95.512 46.984 94.984 46.968 94.824 46.968L92.44 46.952L92.728 48.312H95.048C96.472 48.312 96.904 47.576 97.096 47.176C97.976 45.288 97.976 38.104 97.976 34.2H89.4ZM111.264 38.584H109.824L109.92 42.008C109.568 41.928 109.056 41.816 108.256 41.816C105.424 41.816 104.496 43.592 104.496 44.792C104.496 46.28 105.68 47.608 108.08 47.608C109.664 47.608 111.28 47.032 111.28 44.664V44.008C111.856 44.344 112.832 44.936 113.872 46.184L114.752 44.92C113.968 44.056 112.688 43.064 111.344 42.472L111.264 38.584ZM109.952 44.408C109.952 45.496 109.712 46.36 108.128 46.36C107.824 46.36 105.856 46.36 105.856 44.744C105.856 43.848 106.624 43.032 108.256 43.032C109.104 43.032 109.584 43.208 109.952 43.336V44.408ZM105.2 36.12C105.408 34.952 105.424 34.856 105.552 34.088L104.032 34.024C103.968 34.664 103.92 35.016 103.744 36.12H100.784V37.464H103.488C103.072 39.256 102.368 42.392 100.656 45.144L102.128 45.784C102.704 44.6 104.016 41.928 104.928 37.464H108.56V36.12H105.2ZM114.48 37.368C112.784 36.424 111.712 35.944 110.112 35.384L109.552 36.568C110.992 37.096 112.192 37.672 113.808 38.648L114.48 37.368ZM125.416 40.6C125.528 39.912 125.576 39.384 125.576 38.456H129.976V37.288H122.68C122.904 36.856 123.032 36.584 123.288 35.944L122.008 35.672C121.512 37.224 120.568 38.392 119.432 39.304L120.44 40.168C121.064 39.608 121.432 39.208 121.976 38.456H124.328C124.328 39.608 124.248 40.104 124.168 40.6H119.512V41.784H123.784C122.648 44.136 120.104 44.76 119.304 44.952L120.072 46.12C121.896 45.512 123.944 44.472 125 42.04C125.4 42.952 126.68 44.984 130.296 46.104L131 44.872C128.408 44.296 126.712 42.808 126.168 41.784H130.648V40.6H125.416ZM117.32 34.024V48.008H131.528V46.792H118.68V35.256H131.192V34.024H117.32ZM146.528 41.272C147.024 41.576 147.328 41.72 147.76 41.928L148.368 40.856C147.92 40.696 147.488 40.536 146.768 40.136C146.8 40.088 147.36 39.544 147.856 38.904L146.96 38.36C146.784 38.6 146.4 39.08 145.936 39.576C145.168 38.984 144.768 38.456 144.448 38.056H148.176V37.048H142.352C142.464 36.824 142.528 36.664 142.688 36.264L141.424 36.12C141.296 36.488 141.216 36.696 141.056 37.048H137.216V38.056H140.448C140 38.648 139.6 39.064 139.104 39.464C138.96 39.304 138.512 38.808 138 38.424L137.264 39.096C137.712 39.448 137.76 39.496 138.288 40.056C137.744 40.424 137.328 40.632 136.768 40.904L137.472 41.864C137.824 41.656 137.936 41.592 138.272 41.384V44.712H141.712V46.776C141.712 47.096 141.664 47.16 141.344 47.16H139.824L140.096 48.312H141.824C142.32 48.312 143.008 48.28 143.008 47.288V44.712H146.528V41.272ZM145.36 41.896H139.44V40.936H145.36V41.896ZM140.096 40.008C141.136 39.064 141.584 38.36 141.776 38.056H143.136C143.488 38.568 143.888 39.176 144.816 40.008H140.096ZM145.36 43.784H139.44V42.776H145.36V43.784ZM135.44 40.216C135.44 40.664 135.424 40.968 135.424 41.224C134.624 41.624 134.256 41.8 133.152 42.232L133.424 43.544C133.904 43.304 134.512 43 135.312 42.472C134.96 45.448 134.08 46.6 133.36 47.496L134.336 48.36C134.976 47.592 136.704 45.528 136.704 40.264V35.912H148.224V34.792H142.272V33.496H140.96V34.792H135.44V40.216ZM135.104 38.84C134.944 38.024 134.608 36.904 134.144 35.992L133.152 36.472C133.52 37.384 133.808 38.408 133.984 39.368L135.104 38.84ZM136.8 48.072C137.872 47.672 138.864 47.144 140.224 45.816L139.296 45.048C138.16 46.136 137.376 46.568 136.096 47L136.8 48.072ZM144.304 45.832C145.168 46.808 146.528 47.656 147.76 48.088L148.464 47C146.976 46.472 146.304 46.088 145.152 44.984L144.304 45.832ZM162.712 37.816C160.232 38.216 158.92 38.472 157.192 39C156.856 38.312 156.776 37.464 156.776 35.768C156.776 34.984 156.792 34.536 156.808 34.104H155.24C155.288 37.512 155.32 38.44 155.848 39.48C154.728 39.96 151.432 41.336 151.432 44.072C151.432 47.48 155.864 47.48 158.632 47.48C160.936 47.48 162.344 47.384 163.384 47.32L163.352 45.816C162.44 45.912 160.952 46.056 158.312 46.056C154.872 46.056 152.92 45.88 152.92 44.024C152.92 40.472 161.56 39.496 162.856 39.352L162.712 37.816ZM174.4 47.496C176.176 47.32 177.776 46.776 178.816 45.912C180.272 44.696 180.96 42.808 180.96 40.904C180.96 38.2 179.568 34.616 174.384 34.616C170.16 34.616 166.992 37.4 166.992 41.752C166.992 44.392 168.304 46.248 169.872 46.248C170.592 46.248 171.616 45.88 172.56 44.392C174.208 41.752 174.528 37.816 174.672 35.96C179.072 36.104 179.456 39.624 179.456 40.888C179.456 45.464 175.568 45.928 173.92 46.104L174.4 47.496ZM173.248 36.024C173.088 37.864 172.832 41.112 171.488 43.416C171.072 44.12 170.592 44.712 169.92 44.712C168.784 44.712 168.384 42.872 168.384 41.784C168.384 39.928 169.12 38.136 170.608 37.048C171.424 36.44 172.304 36.2 173.248 36.024ZM184.312 34.68V40.552H189.912V46.792H185.112V41.784H183.768V48.024H197.416V41.784H196.056V46.792H191.256V40.552H196.888V34.68H195.528V39.32H191.256V33.496H189.912V39.32H185.672V34.68H184.312ZM208.976 43.64C210.224 44.904 211.024 45.912 211.184 46.12C210 46.232 208.352 46.376 206.4 46.456C206.064 46.472 204.272 46.52 203.872 46.536C204.912 44.696 205.552 43.304 205.936 42.424H214.288V41.192H200V42.424H204.384C204.032 43.352 203.424 44.84 202.416 46.568H200.208L200.352 47.88C202.816 47.88 209.344 47.592 212.016 47.208C212.352 47.704 212.544 48.008 212.8 48.44L213.952 47.672C212.72 45.72 211.744 44.6 210.032 42.92L208.976 43.64ZM211.44 38.248C212.576 39.016 213.472 39.432 214.176 39.752L214.88 38.472C212.096 37.48 209.552 35.544 207.888 33.32H206.464C206.032 33.96 204.24 36.552 199.472 38.424L200.128 39.72C200.672 39.496 201.552 39.112 202.976 38.232V39.128H211.44V38.248ZM203.472 37.912C204.816 36.984 206.176 35.864 207.184 34.456C207.744 35.16 208.672 36.312 210.928 37.912H203.472ZM217.608 34.856C217.512 35.944 217.352 37.688 217.352 39.432C217.352 43.592 218.072 47.176 220.664 47.176C221.48 47.176 222.072 46.792 222.456 46.408C223.352 45.512 224.088 44.168 224.616 42.68L223.432 42.008C222.328 44.888 221.496 45.544 220.776 45.544C218.984 45.544 218.792 42.04 218.792 39.56C218.792 37.4 219 35.944 219.128 34.984L217.608 34.856ZM230.504 45.592C230.728 39.192 229.08 36.936 227.176 35.336L226.072 36.184C227.736 37.544 228.984 39.848 228.984 44.024C228.984 44.76 228.952 45.24 228.92 45.656L230.504 45.592ZM235.872 33.544V47.256H232.8V48.536H237.152V33.544H235.872ZM257.4 47.496C259.176 47.32 260.776 46.776 261.816 45.912C263.272 44.696 263.96 42.808 263.96 40.904C263.96 38.2 262.568 34.616 257.384 34.616C253.16 34.616 249.992 37.4 249.992 41.752C249.992 44.392 251.304 46.248 252.872 46.248C253.592 46.248 254.616 45.88 255.56 44.392C257.208 41.752 257.528 37.816 257.672 35.96C262.072 36.104 262.456 39.624 262.456 40.888C262.456 45.464 258.568 45.928 256.92 46.104L257.4 47.496ZM256.248 36.024C256.088 37.864 255.832 41.112 254.488 43.416C254.072 44.12 253.592 44.712 252.92 44.712C251.784 44.712 251.384 42.872 251.384 41.784C251.384 39.928 252.12 38.136 253.608 37.048C254.424 36.44 255.304 36.2 256.248 36.024ZM271.168 40.12C271.568 39.912 272.048 39.672 272.832 39.08V40.936H279.04V39.144C279.6 39.576 280.096 39.864 280.816 40.184L281.328 39.144C279.584 38.36 278.976 37.832 278.192 36.712H280.976V35.72H275.616C275.68 35.592 275.792 35.384 276.048 34.776C276.784 34.728 278.864 34.568 280.064 34.328L279.52 33.368C278.192 33.64 276.048 33.976 271.376 33.96L271.632 34.92C272.24 34.92 272.816 34.92 274.768 34.84C274.688 35 274.592 35.208 274.32 35.72H270.992V36.712H273.68C272.592 38.168 271.184 38.824 270.576 39.112L271.168 40.12ZM276.928 36.712C277.136 37.064 277.376 37.464 277.84 38.024H274C274.416 37.576 274.688 37.256 275.04 36.712H276.928ZM278.016 40.056H273.84V38.904H278.016V40.056ZM280.544 41.72H271.312V48.344H272.512V42.696H279.312V46.584C279.312 47.16 279.264 47.256 278.72 47.24L277.68 47.224L277.904 48.344H279.2C279.92 48.344 280.544 48.264 280.544 47.24V41.72ZM277.328 45.928H274.528V44.472H277.328V45.928ZM271.184 41.336C270.16 40.12 269.696 39.08 269.472 38.504V37.832H270.912V36.616H269.472V33.496H268.24V36.616H266.208V37.832H268.192C267.776 39.944 266.768 41.816 266 42.888L266.576 44.424C266.976 43.832 267.616 42.84 268.24 40.824V48.344H269.472V40.472C269.728 41.112 269.792 41.272 270.48 42.328L271.184 41.336ZM278.4 43.576H273.44V46.856H278.4V43.576ZM287.048 34.696V40.664C287.048 44.712 285.736 46.472 285.128 47.288L286.168 48.296C286.52 47.784 287.448 46.456 287.896 44.44C288.136 43.336 288.328 41.784 288.328 40.68V38.504H290.168V41.016H295.32V38.504H297.464V37.4H295.32V36.28H294.136V37.4H291.352V36.28H290.168V37.4H288.328V35.88H297.592V34.696H292.984V33.496H291.688V34.696H287.048ZM283.256 34.68C283.864 34.968 285.08 35.656 285.688 36.296L286.504 35.112C285.384 34.296 284.68 33.928 283.992 33.64L283.256 34.68ZM294.136 38.504V39.976H291.352V38.504H294.136ZM297.784 47.096C297.144 46.984 295.816 46.728 294.104 46.024C295.736 44.84 296.344 43.608 296.616 43.048V41.944H288.792V43.08H295.224C294.904 43.576 294.28 44.52 292.808 45.384C291.4 44.536 290.792 43.768 290.472 43.384L289.432 43.944C289.736 44.344 290.328 45.08 291.576 45.992C289.704 46.776 288.312 46.984 287.544 47.096L288.12 48.376C290.088 47.944 291.512 47.464 292.824 46.776C294.808 47.864 296.424 48.184 297.256 48.344L297.784 47.096ZM282.536 38.92C283.4 39.336 284.28 39.896 285.016 40.536L285.816 39.432C285.272 38.984 284.216 38.264 283.272 37.848L282.536 38.92ZM284.792 42.008C284.456 43.24 283.688 45.32 282.488 47.096L283.496 48.216C285.064 45.736 285.688 43.448 285.88 42.664L284.792 42.008ZM302.24 34.232C302.224 35.32 302.128 40.632 302.128 41.832C302.128 44.616 302.416 47.544 306.8 47.544C311.664 47.544 312.704 44.248 313.216 41.352L311.872 40.856C311.424 43.288 310.896 46.168 306.752 46.168C303.744 46.168 303.648 44.024 303.648 41.976C303.648 40.456 303.712 38.552 303.856 34.232H302.24ZM317.976 34.376C317.464 36.776 317.304 39.336 317.304 41.976C317.304 45.032 317.576 46.632 317.72 47.56L319.272 47.432C319.144 46.856 318.776 45.32 318.776 41.752C318.776 37.72 319.256 35.624 319.496 34.504L317.976 34.376ZM321.928 35.672V37.08H329.448V35.672H321.928ZM322.28 40.968C321.72 41.912 321.432 42.824 321.432 43.656C321.432 46.408 324.392 46.632 326.76 46.632C328.12 46.632 329.24 46.536 329.784 46.488V44.984C328.312 45.144 327 45.176 326.12 45.176C324.408 45.176 322.776 44.984 322.776 43.528C322.776 43.384 322.792 42.472 323.576 41.368L322.28 40.968ZM8.816 65.152H14.224V63.712L8.816 63.76L8.8 61.104H7.296L7.36 68.64C6.96 68.592 6.656 68.544 6.128 68.544C3.84 68.544 1.584 69.488 1.584 71.68C1.584 73.248 2.768 74.56 5.408 74.56C8.736 74.56 8.848 72.512 8.832 71.568L8.816 70.464C10.768 71.216 12.624 72.656 13.6 73.744L14.64 72.368C13.856 71.552 11.984 70.016 8.832 68.944L8.816 65.152ZM7.376 71.472C7.376 72.128 7.216 73.232 5.392 73.232C5.04 73.232 3.008 73.232 3.008 71.696C3.008 70.4 4.528 69.856 5.904 69.856C6.576 69.856 7.056 69.952 7.392 70.016L7.376 71.472ZM22.776 74.048C24.056 74.032 25.432 73.92 26.68 73.52C29.736 72.56 30.088 70.048 30.088 69.088C30.088 66.848 28.52 65.152 25.784 65.152C24.936 65.152 23.816 65.312 22.824 65.472C22.28 65.568 19.624 66.048 19.016 66.144L19.256 67.552C21.72 66.928 24.44 66.4 25.72 66.4C27.288 66.4 28.68 67.2 28.68 69.136C28.68 72.848 23.752 72.816 22.424 72.8L22.776 74.048ZM47.744 61.968C43.808 62 42.336 62.032 38.752 62.224C37.936 62.272 35.376 62.384 34.416 62.416L34.544 63.984C36.288 63.776 41.824 63.44 42.288 63.424C40.4 64.528 37.6 66.624 37.6 69.664C37.6 74.144 42.912 74.368 46.064 74.496L46.352 72.944C44.976 72.992 43.44 72.896 42.32 72.656C40.624 72.304 39.088 71.648 39.088 69.568C39.088 66.816 42.224 64.336 44.528 63.568C45.008 63.408 45.344 63.376 46.144 63.376C46.768 63.376 47.232 63.392 47.776 63.44L47.744 61.968ZM54.968 73.856C54.296 72.944 53.16 71.6 52.12 70.64L50.904 71.536C51.432 72.096 52.424 73.136 53.56 74.848L54.968 73.856ZM74.672 74.784C78.08 73.568 78.896 70.896 79.28 69.328C80.08 69.68 80.352 69.824 81.072 70.256L81.552 68.816C80.56 68.272 79.632 67.92 79.584 67.904C79.824 66.624 79.952 65.232 80.064 64.08L78.544 63.968C78.512 64.704 78.432 65.84 78.192 67.408C76.736 66.928 75.68 66.672 74.336 66.56C74.864 63.408 74.912 63.056 75.12 61.456H68.496V62.848L73.504 62.8C73.408 63.936 73.2 65.36 72.976 66.512C67.744 66.72 67.456 70.16 67.456 70.944C67.456 72.656 68.576 73.68 70.112 73.68C72.528 73.68 73.232 71.392 74.096 67.824C75.536 67.952 76.896 68.368 77.936 68.768C77.376 71.088 76.544 72.688 73.792 73.68L74.672 74.784ZM72.736 67.744C71.888 71.216 71.456 72.416 70.016 72.416C68.8 72.416 68.72 71.168 68.72 70.864C68.72 69.776 69.376 68.736 70.416 68.224C71.12 67.872 71.792 67.776 72.736 67.744ZM94.664 65.584H93.224L93.32 69.008C92.968 68.928 92.456 68.816 91.656 68.816C88.824 68.816 87.896 70.592 87.896 71.792C87.896 73.28 89.08 74.608 91.48 74.608C93.064 74.608 94.68 74.032 94.68 71.664V71.008C95.256 71.344 96.232 71.936 97.272 73.184L98.152 71.92C97.368 71.056 96.088 70.064 94.744 69.472L94.664 65.584ZM93.352 71.408C93.352 72.496 93.112 73.36 91.528 73.36C91.224 73.36 89.256 73.36 89.256 71.744C89.256 70.848 90.024 70.032 91.656 70.032C92.504 70.032 92.984 70.208 93.352 70.336V71.408ZM88.6 63.12C88.808 61.952 88.824 61.856 88.952 61.088L87.432 61.024C87.368 61.664 87.32 62.016 87.144 63.12H84.184V64.464H86.888C86.472 66.256 85.768 69.392 84.056 72.144L85.528 72.784C86.104 71.6 87.416 68.928 88.328 64.464H91.96V63.12H88.6ZM97.88 64.368C96.184 63.424 95.112 62.944 93.512 62.384L92.952 63.568C94.392 64.096 95.592 64.672 97.208 65.648L97.88 64.368ZM112.176 69.2C111.216 68.176 110.288 66.624 109.616 65.008C111.024 64.944 112.4 64.88 114.144 64.512L113.888 63.136C112.288 63.472 110.784 63.664 109.152 63.712C108.944 63.072 108.72 62.032 108.576 61.056L107.056 61.168C107.12 61.552 107.36 62.72 107.68 63.76C107.28 63.776 106.416 63.792 105.744 63.776L101.072 63.696V65.088H105.68C105.92 65.088 107.152 65.072 108.128 65.056C108.992 67.248 110 68.976 110.944 70.032L112.176 69.2ZM104.112 67.888C102.48 68.688 101.792 69.84 101.792 71.008C101.792 71.808 102.096 72.592 102.736 73.168C103.856 74.176 105.44 74.496 108.24 74.496C110.432 74.496 111.84 74.368 112.416 74.304L112.4 72.88C111.408 73.008 110.192 73.152 108.112 73.152C105.824 73.152 103.232 72.944 103.232 70.992C103.232 70.688 103.312 69.696 104.88 68.928L104.112 67.888ZM121.624 61.008C121.24 62.048 120.312 64.608 120.072 65.28C119.704 66.32 119.432 67.088 117.16 74.032L118.664 74.496C119.096 72.88 119.352 71.92 119.912 70.432C120.92 68.368 122.232 68.032 122.872 68.032C124.008 68.032 124.296 68.976 124.296 70.16V71.056C124.296 72.304 124.312 74.56 127.032 74.56C130.696 74.56 131.08 70.272 131.176 68.16L129.784 67.84C129.784 68.768 129.704 69.968 129.256 71.264C128.728 72.784 127.912 73.152 127.128 73.152C125.832 73.152 125.704 72.272 125.704 71.12V70.048C125.704 68.944 125.576 66.672 123.112 66.672C122.232 66.672 121.608 66.976 120.744 67.68C121.176 66.432 122.136 63.808 123.208 61.44L121.624 61.008ZM141.2 74.496C142.976 74.32 144.576 73.776 145.616 72.912C147.072 71.696 147.76 69.808 147.76 67.904C147.76 65.2 146.368 61.616 141.184 61.616C136.96 61.616 133.792 64.4 133.792 68.752C133.792 71.392 135.104 73.248 136.672 73.248C137.392 73.248 138.416 72.88 139.36 71.392C141.008 68.752 141.328 64.816 141.472 62.96C145.872 63.104 146.256 66.624 146.256 67.888C146.256 72.464 142.368 72.928 140.72 73.104L141.2 74.496ZM140.048 63.024C139.888 64.864 139.632 68.112 138.288 70.416C137.872 71.12 137.392 71.712 136.72 71.712C135.584 71.712 135.184 69.872 135.184 68.784C135.184 66.928 135.92 65.136 137.408 64.048C138.224 63.44 139.104 63.2 140.048 63.024ZM159.784 60.496V61.536H157.704V62.592H159.784V63.84H156.856V64.88H159.784V66.16H157.704V67.184H159.784V68.336H157.48V69.376H159.784V70.576H157.048V71.648H159.784V73.072H160.936V71.648H164.744V70.576H160.936V69.376H164.232V68.336H160.936V67.184H164.024V64.88H164.792V63.84H164.024V61.536H160.936V60.496H159.784ZM162.84 63.84H160.936V62.592H162.84V63.84ZM162.84 66.16H160.936V64.88H162.84V66.16ZM160.552 73.648C157.432 73.648 156.008 72.24 155.912 72.128C156.088 71.664 156.824 69.536 156.888 66.064H154.84C155.544 64.832 156.312 63.504 156.856 62.304V61.104H153.656V62.256H155.56C155.176 63.184 154.136 65.152 153.496 66.048V67.216H155.72C155.688 68.4 155.576 69.648 155.128 70.992C154.6 69.888 154.456 68.864 154.36 68.208L153.272 68.368C153.368 68.96 153.64 70.832 154.568 72.256C153.944 73.28 153.4 73.696 152.952 74.048L153.672 75.232C154.136 74.8 154.712 74.272 155.352 73.232C155.8 73.664 157.384 74.896 160.456 74.896H164.728L164.936 73.648H160.552ZM152.584 64.336C153.144 62.8 153.368 61.6 153.528 60.672L152.248 60.464C151.928 62.736 151.08 65.504 149.72 67.152L150.344 68.464C150.68 68.112 150.936 67.84 151.352 67.088V75.312H152.584V64.336ZM179.808 69.504C178.992 70.512 177.712 71.504 177.52 71.648C176.448 70.848 175.872 70.096 175.472 69.536V69.392H180.16V67.184H181.424V66.128H180.16V64H175.472V63.248H174.224V64H169.728V65.04H174.224V66.128H169.024V62.848H181.328V61.664H174.832V60.496H173.504V61.664H167.728V68.32C167.728 69.92 167.6 70.448 167.424 71.376C167.136 72.88 166.656 73.76 166.384 74.224L167.472 75.36C168.88 72.704 169.024 69.616 169.024 68.432V67.184H174.224V68.368H169.728V69.392H174.224V73.68C174.224 73.888 174.192 74.048 173.824 74.048L172.112 74.032L172.368 75.344H174.304C175.12 75.344 175.472 74.864 175.472 74.16V71.184C177.008 73.088 179.104 74.272 180.816 74.912L181.568 73.68C180.992 73.472 179.904 73.088 178.56 72.32C179.632 71.536 180.16 71.056 180.88 70.288L179.808 69.504ZM178.896 65.04V66.128H175.472V65.04H178.896ZM178.896 67.184V68.368H175.472V67.184H178.896ZM169.744 70.448C170.784 70.928 171.28 71.248 171.984 71.904L172.832 70.928C172.016 70.288 171.488 70 170.464 69.52L169.744 70.448ZM173.472 71.584C172.928 71.84 170.528 72.944 168.688 73.52L169.184 74.672C172.592 73.248 172.976 73.088 173.68 72.704L173.472 71.584ZM190.6 66.272C189.704 66.272 188.952 66.992 188.952 67.92C188.952 68.816 189.672 69.568 190.6 69.568C191.528 69.568 192.248 68.8 192.248 67.92C192.248 67.024 191.512 66.272 190.6 66.272ZM213.824 74.096C212.896 73.552 211.328 72.656 209.296 71.808C209.92 71.168 210.976 69.968 211.744 67.52H214.576V66.256H205.904C206.48 65.088 206.688 64.56 206.864 64.128L205.392 63.856C205.2 64.416 204.928 65.168 204.368 66.256H199.824V67.52H203.68C202.8 69.04 202.016 69.968 201.536 70.528C204.032 71.216 205.456 71.696 206.752 72.208C204.752 73.312 202.352 73.712 200.208 73.904L200.672 75.312C204.832 74.88 207.296 73.424 208.176 72.784C210.8 73.92 212.224 74.864 212.944 75.344L213.824 74.096ZM210.336 67.52C210.16 68.048 209.552 69.888 208.016 71.296C206.416 70.688 204.816 70.224 203.664 69.888C203.984 69.472 204.448 68.864 205.216 67.52H210.336ZM200.208 61.936V65.424H201.568V63.168H212.848V65.424H214.208V61.936H207.856V60.496H206.48V61.936H200.208ZM228.52 65.792C229.512 66.416 230.232 66.736 230.792 66.992L231.464 65.68C228.52 64.608 226.152 62.688 224.536 60.512H223.08C221.304 62.992 218.68 64.72 216.136 65.696L216.808 67.008C217.384 66.736 218.056 66.432 219.144 65.776V66.992H223.128V69.424H218.04V70.624H223.128V73.648H216.472V74.928H231.128V73.648H224.488V70.624H229.608V69.424H224.488V66.992H228.52V65.792ZM219.16 65.76C220.936 64.688 222.504 63.28 223.8 61.648C225.512 63.776 227.48 65.12 228.472 65.76H219.16ZM239.296 62.624C239.52 61.824 239.6 61.456 239.696 60.896L238.16 60.832C238.048 61.744 237.936 62.208 237.824 62.624H234.144V63.904H237.44C236.416 66.896 235.136 68.592 233.728 69.92L234.72 70.992C235.232 70.464 236.288 69.056 237.024 68.048C238.144 66.912 239.312 66.416 240.192 66.416C240.928 66.416 241.376 66.736 241.552 67.68C239.968 68.384 237.104 69.824 237.104 72C237.104 74.576 240.72 74.576 242.528 74.576C244.048 74.576 245.44 74.48 246.352 74.416L246.304 73.04C244.864 73.2 243.36 73.264 242.08 73.264C240.32 73.264 238.544 73.264 238.544 71.856C238.544 70.544 240.48 69.52 241.712 68.944C241.744 69.36 241.744 69.632 241.744 69.904C241.744 70.48 241.696 71.072 241.664 71.44H243.056C243.104 70.928 243.104 70.448 243.104 70.224C243.104 69.648 243.088 68.96 243.04 68.4C244.8 67.728 245.936 67.376 247.232 67.008L246.848 65.616C245.408 66.112 243.216 66.992 242.848 67.136C242.528 65.616 241.504 65.264 240.416 65.264C239.616 65.264 238.976 65.536 237.856 66.208C238.32 65.408 238.544 64.88 238.912 63.904H245.968V62.624H239.296ZM261.288 64.16V61.12H259.848V64.16H254.264V61.184H252.808V64.16H250.104V65.536H252.808V69.84H254.264V65.536H259.848V67.504C259.848 71.024 257.752 72.864 253.224 73.296L253.752 74.688C256.152 74.4 261.288 73.456 261.288 67.568V65.536H264.056V64.16H261.288ZM274.304 63.872V61.2H272.832V63.872H267.296V65.232H272.832V74.736H274.304V65.232H279.856V64.656C280.816 64.384 281.472 63.52 281.472 62.528C281.472 61.296 280.48 60.304 279.248 60.304C278.032 60.304 277.024 61.296 277.024 62.512C277.024 63.024 277.184 63.488 277.488 63.872H274.304ZM279.248 61.296C279.92 61.296 280.48 61.84 280.48 62.528C280.48 63.2 279.936 63.76 279.248 63.76C278.576 63.76 278.016 63.2 278.016 62.528C278.016 61.84 278.576 61.296 279.248 61.296ZM268.096 73.776C270.016 71.632 270.512 69.024 270.736 66.912L269.376 66.768C269.2 68.736 268.624 71.024 266.928 72.72L268.096 73.776ZM276.464 66.912C277.008 70.192 277.632 71.952 279.072 73.712L280.272 72.784C278.96 71.2 278.288 69.536 277.808 66.752L276.464 66.912ZM283.32 67.152V68.672H297.08V67.152H283.32ZM313.104 68.576C310.8 67.328 308.32 66.096 305.296 65.136V61.04H303.744V74.72H305.296V66.64C308.64 67.792 311.264 69.392 312.352 70.064L313.104 68.576ZM318.84 61.232C318.824 62.32 318.728 67.632 318.728 68.832C318.728 71.616 319.016 74.544 323.4 74.544C328.264 74.544 329.304 71.248 329.816 68.352L328.472 67.856C328.024 70.288 327.496 73.168 323.352 73.168C320.344 73.168 320.248 71.024 320.248 68.976C320.248 67.456 320.312 65.552 320.456 61.232H318.84ZM337.168 73.856C336.496 72.944 335.36 71.6 334.32 70.64L333.104 71.536C333.632 72.096 334.624 73.136 335.76 74.848L337.168 73.856ZM9.216 94.6C9.328 93.912 9.376 93.384 9.376 92.456H13.776V91.288H6.48C6.704 90.856 6.832 90.584 7.088 89.944L5.808 89.672C5.312 91.224 4.368 92.392 3.232 93.304L4.24 94.168C4.864 93.608 5.232 93.208 5.776 92.456H8.128C8.128 93.608 8.048 94.104 7.968 94.6H3.312V95.784H7.584C6.448 98.136 3.904 98.76 3.104 98.952L3.872 100.12C5.696 99.512 7.744 98.472 8.8 96.04C9.2 96.952 10.48 98.984 14.096 100.104L14.8 98.872C12.208 98.296 10.512 96.808 9.968 95.784H14.448V94.6H9.216ZM1.12 88.024V102.008H15.328V100.792H2.48V89.256H14.992V88.024H1.12ZM30.328 95.272C30.824 95.576 31.128 95.72 31.56 95.928L32.168 94.856C31.72 94.696 31.288 94.536 30.568 94.136C30.6 94.088 31.16 93.544 31.656 92.904L30.76 92.36C30.584 92.6 30.2 93.08 29.736 93.576C28.968 92.984 28.568 92.456 28.248 92.056H31.976V91.048H26.152C26.264 90.824 26.328 90.664 26.488 90.264L25.224 90.12C25.096 90.488 25.016 90.696 24.856 91.048H21.016V92.056H24.248C23.8 92.648 23.4 93.064 22.904 93.464C22.76 93.304 22.312 92.808 21.8 92.424L21.064 93.096C21.512 93.448 21.56 93.496 22.088 94.056C21.544 94.424 21.128 94.632 20.568 94.904L21.272 95.864C21.624 95.656 21.736 95.592 22.072 95.384V98.712H25.512V100.776C25.512 101.096 25.464 101.16 25.144 101.16H23.624L23.896 102.312H25.624C26.12 102.312 26.808 102.28 26.808 101.288V98.712H30.328V95.272ZM29.16 95.896H23.24V94.936H29.16V95.896ZM23.896 94.008C24.936 93.064 25.384 92.36 25.576 92.056H26.936C27.288 92.568 27.688 93.176 28.616 94.008H23.896ZM29.16 97.784H23.24V96.776H29.16V97.784ZM19.24 94.216C19.24 94.664 19.224 94.968 19.224 95.224C18.424 95.624 18.056 95.8 16.952 96.232L17.224 97.544C17.704 97.304 18.312 97 19.112 96.472C18.76 99.448 17.88 100.6 17.16 101.496L18.136 102.36C18.776 101.592 20.504 99.528 20.504 94.264V89.912H32.024V88.792H26.072V87.496H24.76V88.792H19.24V94.216ZM18.904 92.84C18.744 92.024 18.408 90.904 17.944 89.992L16.952 90.472C17.32 91.384 17.608 92.408 17.784 93.368L18.904 92.84ZM20.6 102.072C21.672 101.672 22.664 101.144 24.024 99.816L23.096 99.048C21.96 100.136 21.176 100.568 19.896 101L20.6 102.072ZM28.104 99.832C28.968 100.808 30.328 101.656 31.56 102.088L32.264 101C30.776 100.472 30.104 100.088 28.952 98.984L28.104 99.832ZM35.776 88.376C35.264 90.776 35.104 93.336 35.104 95.976C35.104 99.032 35.376 100.632 35.52 101.56L37.072 101.432C36.944 100.856 36.576 99.32 36.576 95.752C36.576 91.72 37.056 89.624 37.296 88.504L35.776 88.376ZM39.728 89.672V91.08H47.248V89.672H39.728ZM40.08 94.968C39.52 95.912 39.232 96.824 39.232 97.656C39.232 100.408 42.192 100.632 44.56 100.632C45.92 100.632 47.04 100.536 47.584 100.488V98.984C46.112 99.144 44.8 99.176 43.92 99.176C42.208 99.176 40.576 98.984 40.576 97.528C40.576 97.384 40.592 96.472 41.376 95.368L40.08 94.968ZM55.704 100.632C57.64 100.616 59.432 100.392 60.792 99.832C64.2 98.456 64.6 95.752 64.6 94.52C64.6 92.12 63.08 89.72 59.336 89.72C58.008 89.72 56.472 89.976 54.952 90.248C54.296 90.36 51.192 90.904 50.824 90.952L51.176 92.568C53.88 91.896 57.32 91.128 59.24 91.128C62.36 91.128 63.064 93.032 63.064 94.536C63.064 96.12 62.232 97.272 61.368 97.896C59.8 99.016 57.96 99.24 55.32 99.256L55.704 100.632ZM68.208 88.856C68.112 89.944 67.952 91.688 67.952 93.432C67.952 97.592 68.672 101.176 71.264 101.176C72.08 101.176 72.672 100.792 73.056 100.408C73.952 99.512 74.688 98.168 75.216 96.68L74.032 96.008C72.928 98.888 72.096 99.544 71.376 99.544C69.584 99.544 69.392 96.04 69.392 93.56C69.392 91.4 69.6 89.944 69.728 88.984L68.208 88.856ZM81.104 99.592C81.328 93.192 79.68 90.936 77.776 89.336L76.672 90.184C78.336 91.544 79.584 93.848 79.584 98.024C79.584 98.76 79.552 99.24 79.52 99.656L81.104 99.592ZM97.544 88.968C93.608 89 92.136 89.032 88.552 89.224C87.736 89.272 85.176 89.384 84.216 89.416L84.344 90.984C86.088 90.776 91.624 90.44 92.088 90.424C90.2 91.528 87.4 93.624 87.4 96.664C87.4 101.144 92.712 101.368 95.864 101.496L96.152 99.944C94.776 99.992 93.24 99.896 92.12 99.656C90.424 99.304 88.888 98.648 88.888 96.568C88.888 93.816 92.024 91.336 94.328 90.568C94.808 90.408 95.144 90.376 95.944 90.376C96.568 90.376 97.032 90.392 97.576 90.44L97.544 88.968ZM108 101.496C109.776 101.32 111.376 100.776 112.416 99.912C113.872 98.696 114.56 96.808 114.56 94.904C114.56 92.2 113.168 88.616 107.984 88.616C103.76 88.616 100.592 91.4 100.592 95.752C100.592 98.392 101.904 100.248 103.472 100.248C104.192 100.248 105.216 99.88 106.16 98.392C107.808 95.752 108.128 91.816 108.272 89.96C112.672 90.104 113.056 93.624 113.056 94.888C113.056 99.464 109.168 99.928 107.52 100.104L108 101.496ZM106.848 90.024C106.688 91.864 106.432 95.112 105.088 97.416C104.672 98.12 104.192 98.712 103.52 98.712C102.384 98.712 101.984 96.872 101.984 95.784C101.984 93.928 102.72 92.136 104.208 91.048C105.024 90.44 105.904 90.2 106.848 90.024ZM124.488 91.32C124.776 90.856 125.096 90.328 125.56 89.368H131.576V88.056H116.792V89.368H124.136C122.92 91.96 120.552 94.712 116.616 96.52L117.416 97.784C118.552 97.208 120.968 95.912 123.448 92.776V102.344H124.84V91.32H124.488ZM131.8 96.584C129.368 95.096 127.736 93.416 126.376 91.72L125.4 92.488C127.352 94.952 128.408 96.024 130.84 97.784L131.8 96.584ZM147.424 101.096C146.496 100.552 144.928 99.656 142.896 98.808C143.52 98.168 144.576 96.968 145.344 94.52H148.176V93.256H139.504C140.08 92.088 140.288 91.56 140.464 91.128L138.992 90.856C138.8 91.416 138.528 92.168 137.968 93.256H133.424V94.52H137.28C136.4 96.04 135.616 96.968 135.136 97.528C137.632 98.216 139.056 98.696 140.352 99.208C138.352 100.312 135.952 100.712 133.808 100.904L134.272 102.312C138.432 101.88 140.896 100.424 141.776 99.784C144.4 100.92 145.824 101.864 146.544 102.344L147.424 101.096ZM143.936 94.52C143.76 95.048 143.152 96.888 141.616 98.296C140.016 97.688 138.416 97.224 137.264 96.888C137.584 96.472 138.048 95.864 138.816 94.52H143.936ZM133.808 88.936V92.424H135.168V90.168H146.448V92.424H147.808V88.936H141.456V87.496H140.08V88.936H133.808ZM157.4 93.272C156.504 93.272 155.752 93.992 155.752 94.92C155.752 95.816 156.472 96.568 157.4 96.568C158.328 96.568 159.048 95.8 159.048 94.92C159.048 94.024 158.312 93.272 157.4 93.272ZM167.376 95.432C167.728 94.12 167.872 92.04 167.888 90.936L166.864 90.84C166.864 91.64 166.768 93.48 166.32 94.92L167.376 95.432ZM168.544 87.496V102.344H169.84V87.496H168.544ZM171.792 92.84C171.712 92.568 171.36 91.336 170.96 90.424L170 90.808C170.336 91.64 170.592 92.584 170.72 93.256L171.792 92.84ZM180.928 93.128H179.664V100.856H172.88V93.128H171.616V102.008H180.928V93.128ZM177.552 92.664C177.184 93.88 176.848 94.536 176.432 95.32C175.632 94.504 175.152 94.056 174.432 93.512L173.6 94.328C174.56 95.112 175.088 95.64 175.792 96.376C175.072 97.448 174.448 98.232 173.312 99.144L174.192 100.056C175.6 98.84 176.16 98.072 176.656 97.352C177.152 97.912 177.536 98.392 178.24 99.448L179.184 98.6C178.736 97.912 178.336 97.352 177.344 96.28C177.808 95.464 178.224 94.68 178.688 93.16L177.552 92.664ZM177.104 90.792C176.72 89.304 176.016 87.912 175.824 87.528L174.64 87.864C174.736 88.056 175.552 89.752 175.872 91.176L177.104 90.792ZM179.456 92.2C180.24 91.112 181.024 89.496 181.392 88.312L180.192 87.784C180 88.344 179.424 90.088 178.352 91.64L179.456 92.2ZM174.096 91.416C173.696 90.36 173.008 89.112 172.336 88.2L171.232 88.664C171.936 89.672 172.544 90.92 172.912 91.864L174.096 91.416ZM190.872 101.784C194.28 100.568 195.096 97.896 195.48 96.328C196.28 96.68 196.552 96.824 197.272 97.256L197.752 95.816C196.76 95.272 195.832 94.92 195.784 94.904C196.024 93.624 196.152 92.232 196.264 91.08L194.744 90.968C194.712 91.704 194.632 92.84 194.392 94.408C192.936 93.928 191.88 93.672 190.536 93.56C191.064 90.408 191.112 90.056 191.32 88.456H184.696V89.848L189.704 89.8C189.608 90.936 189.4 92.36 189.176 93.512C183.944 93.72 183.656 97.16 183.656 97.944C183.656 99.656 184.776 100.68 186.312 100.68C188.728 100.68 189.432 98.392 190.296 94.824C191.736 94.952 193.096 95.368 194.136 95.768C193.576 98.088 192.744 99.688 189.992 100.68L190.872 101.784ZM188.936 94.744C188.088 98.216 187.656 99.416 186.216 99.416C185 99.416 184.92 98.168 184.92 97.864C184.92 96.776 185.576 95.736 186.616 95.224C187.32 94.872 187.992 94.776 188.936 94.744ZM207.2 93.272C206.304 93.272 205.552 93.992 205.552 94.92C205.552 95.816 206.272 96.568 207.2 96.568C208.128 96.568 208.848 95.8 208.848 94.92C208.848 94.024 208.112 93.272 207.2 93.272ZM216.36 88.872V90.12H219.928V91.752H221.224V90.12H226.344V91.752H227.624V90.12H231.24V88.872H227.624V87.48H226.344V88.872H221.224V87.48H219.928V88.872H216.36ZM231.24 92.776H224.424V91.016H223.096V92.776H216.36V94.008H223.096V96.072H217.976V102.04H229.592V96.072H224.424V94.008H231.24V92.776ZM228.264 100.872H219.304V97.256H228.264V100.872ZM243.52 94.008C243.408 93.928 243.264 93.816 243.168 93.752C243.536 93.576 245.184 92.808 246.624 91.64V90.792H237.408V91.752H244.464C243.6 92.392 243.152 92.648 242.192 93.128C241.952 92.968 241.088 92.456 240.208 92.056L239.44 92.92C240.496 93.352 241.088 93.656 241.568 94.008H237.696V102.36H238.944V99.704H241.76V102.312H242.992V99.704H245.984V100.712C245.984 101 245.84 101.048 245.616 101.048H244.288L244.528 102.36H246.112C247.216 102.36 247.216 101.56 247.216 101.08V94.008H243.52ZM241.76 96.328H238.944V95.032H241.76V96.328ZM241.76 98.696H238.944V97.32H241.76V98.696ZM245.984 96.328H242.992V95.032H245.984V96.328ZM245.984 98.696H242.992V97.32H245.984V98.696ZM235.456 94.392C235.456 94.76 235.44 94.984 235.424 95.208C235.28 95.304 234.112 95.944 232.848 96.424L233.168 97.736C233.728 97.448 234.272 97.176 235.328 96.536C235.04 98.936 234.576 100.184 233.44 101.512L234.496 102.408C235.216 101.544 236.704 99.768 236.704 94.136V89.896H247.76V88.76H241.904V87.464H240.56V88.76H235.456V94.392ZM235.088 92.888C234.88 92.056 234.448 90.872 233.984 90.008L232.928 90.584C233.296 91.304 233.76 92.52 233.984 93.432L235.088 92.888ZM255.896 89.624C256.12 88.824 256.2 88.456 256.296 87.896L254.76 87.832C254.648 88.744 254.536 89.208 254.424 89.624H250.744V90.904H254.04C253.016 93.896 251.736 95.592 250.328 96.92L251.32 97.992C251.832 97.464 252.888 96.056 253.624 95.048C254.744 93.912 255.912 93.416 256.792 93.416C257.528 93.416 257.976 93.736 258.152 94.68C256.568 95.384 253.704 96.824 253.704 99C253.704 101.576 257.32 101.576 259.128 101.576C260.648 101.576 262.04 101.48 262.952 101.416L262.904 100.04C261.464 100.2 259.96 100.264 258.68 100.264C256.92 100.264 255.144 100.264 255.144 98.856C255.144 97.544 257.08 96.52 258.312 95.944C258.344 96.36 258.344 96.632 258.344 96.904C258.344 97.48 258.296 98.072 258.264 98.44H259.656C259.704 97.928 259.704 97.448 259.704 97.224C259.704 96.648 259.688 95.96 259.64 95.4C261.4 94.728 262.536 94.376 263.832 94.008L263.448 92.616C262.008 93.112 259.816 93.992 259.448 94.136C259.128 92.616 258.104 92.264 257.016 92.264C256.216 92.264 255.576 92.536 254.456 93.208C254.92 92.408 255.144 91.88 255.512 90.904H262.568V89.624H255.896ZM270.512 89.176C271.456 89.016 271.968 88.888 272.832 88.664L272.352 87.496C270.272 88.056 268.496 88.296 266.16 88.36L266.432 89.56C267.728 89.512 268.384 89.448 269.216 89.352V91.704H266.128V92.888H269.056C268.56 94.024 267.568 96.104 265.92 97.72L266.496 99.24C267.984 97.624 268.784 96.12 269.216 95.16V102.344H270.512V94.856C271.104 95.944 271.712 96.792 272.464 97.528L273.12 96.264C271.808 95.144 270.928 93.736 270.512 92.936V92.888H273.088V91.704H270.512V89.176ZM280.48 88.52H273.664V101.912H280.48V88.52ZM279.168 100.664H274.944V89.736H279.168V100.664ZM294.2 89.032C291.752 88.232 289.016 88.088 287.64 88.024L287.384 89.4C289.544 89.48 291.896 89.784 293.8 90.552L294.2 89.032ZM285.432 90.312C285.224 91.144 285.08 92.024 285.016 93.512C285 93.992 284.952 96.392 284.952 96.936L286.376 96.984C286.392 96.904 286.408 96.856 286.456 96.696C287.512 95.304 289.656 94.392 291.8 94.392C293.912 94.392 294.76 95.544 294.76 96.792C294.76 97.448 294.584 98.2 294.136 98.68C293.176 99.736 291.256 100.168 289.048 100.168C287.976 100.168 287 100.072 285.928 99.88L286.088 101.288C286.744 101.384 287.688 101.512 289.16 101.512C292.584 101.512 296.28 100.648 296.28 96.808C296.28 95.48 295.592 93.096 291.88 93.096C289.8 93.096 288.008 93.768 286.376 95.064C286.376 92.712 286.504 91.784 286.872 90.568L285.432 90.312ZM305.344 101.8C308.736 101.144 310.704 99.976 310.704 94.824C310.704 94.552 310.672 93.464 310.656 93.032H313.504V91.688H310.576C310.544 91.192 310.416 88.872 310.368 88.248L308.992 88.28C309.04 89.128 309.12 90.968 309.152 91.688H303.76V93.032H309.2C309.216 93.528 309.232 94.28 309.232 94.616C309.232 98.984 307.888 99.912 304.816 100.504L305.344 101.8ZM310.624 87.592C311.136 88.76 311.408 89.736 311.6 90.904L312.752 90.488C312.448 89.208 312.256 88.44 311.696 87.224L310.624 87.592ZM312.8 87.176C313.312 88.344 313.536 89.128 313.776 90.472L314.928 90.056C314.56 88.536 314.432 88.008 313.872 86.792L312.8 87.176ZM300.992 88.28C300.672 90.664 300.512 93.064 300.512 95.464C300.512 97.448 300.592 99.448 301.008 101.4L302.496 101.208C302.064 99.192 301.952 97.176 301.952 95.32C301.952 91.992 302.32 89.624 302.528 88.376L300.992 88.28ZM324.52 89.848V88.168H323.112V89.848H317.032V91.08H323.112V93.064H317.272V94.28H323.112V96.168C322.776 96.104 322.232 96.008 321.512 96.008C319.128 96.008 317.48 97.224 317.48 98.904C317.48 99.928 318.152 101.592 321.272 101.592C322.616 101.592 324.52 101.16 324.52 98.872V97.96C325.4 98.36 326.808 99.096 328.36 100.808L329.304 99.432C327.624 98.024 326.216 97.144 324.52 96.52V94.28H329.32V93.064H324.52V91.08H329.624V89.848H324.52ZM323.112 98.584C323.112 99.848 322.488 100.344 321.096 100.344C318.984 100.344 318.824 99.16 318.824 98.856C318.824 97.8 320.024 97.192 321.512 97.192C322.328 97.192 322.792 97.32 323.112 97.416V98.584ZM10.512 116.8V115.008H9.04L9.072 116.8H1.2V118.128H9.088L9.104 119.856C8.768 119.568 8.384 119.216 7.312 119.216C5.328 119.216 4 120.592 4 122.464C4 124.016 4.992 125.6 6.976 125.6C8.816 125.6 9.344 124.4 9.504 124.064C9.296 125.968 8.112 127.44 3.84 127.392L4.288 128.736C7.072 128.624 10.816 127.856 10.816 123.632C10.816 123.216 10.784 122.8 10.72 122.4C10.672 122.016 10.592 121.648 10.512 121.344V118.128H14.704V116.8H10.512ZM9.136 122.576C9.136 123.632 8.304 124.432 7.168 124.432C5.68 124.432 5.344 123.072 5.344 122.4C5.344 120.928 6.464 120.416 7.344 120.416C8.752 120.416 9.008 121.36 9.136 121.872V122.576ZM20.136 124.048C18.824 124.048 17.752 125.104 17.752 126.432C17.752 127.744 18.808 128.816 20.136 128.816C21.448 128.816 22.52 127.744 22.52 126.432C22.52 125.088 21.432 124.048 20.136 124.048ZM20.136 124.848C20.984 124.848 21.704 125.536 21.704 126.432C21.704 127.296 21 128 20.136 128C19.256 128 18.552 127.296 18.552 126.432C18.552 125.552 19.272 124.848 20.136 124.848Z" fill="black"/>
</svg>
