<svg width="348" height="53" viewBox="0 0 348 53" fill="none" xmlns="http://www.w3.org/2000/svg">
<path d="M2.304 1.94V6.572C1.212 7.064 1.044 7.148 0.252 7.412L0.528 8.396C0.828 8.264 1.476 7.964 2.22 7.52C1.896 9.836 0.924 10.88 0.516 11.312L1.332 11.984C1.884 11.324 3.264 9.716 3.264 6.056V2.84H11.592V1.94H7.128V0.883999H6.144V1.94H2.304ZM1.944 4.856C1.764 4.1 1.56 3.5 1.128 2.732L0.324 3.14C0.504 3.464 0.84 4.064 1.08 5.288L1.944 4.856ZM11.328 4.1H3.732V4.976H7.104V10.82H5.412V6.116H4.416V10.82H2.856V11.72H11.532V10.82H8.076V8.072H10.944V7.196H8.076V4.976H11.328V4.1ZM24.126 11C23.382 10.532 21.306 9.212 20.55 5.072H23.982V4.112H20.502V0.883999H19.47V4.112H16.482V5.072H19.434C19.386 5.708 19.254 6.344 19.086 6.968C18.558 8.948 17.67 10.148 16.194 11.096L16.758 11.996C18.882 10.496 19.674 8.672 20.118 7.064C20.706 8.792 21.546 10.676 23.55 11.948L24.126 11ZM14.97 0.883999V7.004C14.07 7.664 13.026 8.24 12.678 8.432L12.978 9.5C13.47 9.26 14.526 8.6 14.97 8.216V11.996H15.966V0.883999H14.97ZM14.61 4.796C14.394 3.98 14.022 3.116 13.626 2.408L12.762 2.792C13.23 3.68 13.434 4.184 13.71 5.18L14.61 4.796ZM23.406 3.068C23.214 2.756 22.734 1.94 21.906 1.076L21.15 1.58C21.738 2.204 22.314 3.104 22.578 3.572L23.406 3.068ZM29.532 12.056C30.312 11.816 32.148 11.18 32.964 9.08C33.276 9.848 34.176 11.336 36.168 12.02L36.648 11.12C35.796 10.844 34.44 10.328 33.696 8.636H36.048V5.312H33.348V4.208H35.028V3.764C35.364 4.016 35.664 4.208 36.156 4.496L36.684 3.632C34.644 2.6 33.924 1.64 33.456 0.848H32.28C31.356 2.18 30.516 2.924 29.124 3.644L29.604 4.508C29.916 4.352 30.252 4.172 30.792 3.776V4.208H32.4V5.312H29.7V8.636H32.136C31.608 10.496 29.592 11.036 29.04 11.18L29.532 12.056ZM33.348 6.14H35.124V7.808H33.276C33.324 7.484 33.348 7.172 33.348 6.416V6.14ZM32.4 6.44C32.4 7.136 32.376 7.484 32.328 7.808H30.648V6.14H32.4V6.44ZM31.26 3.38C31.956 2.744 32.58 1.94 32.868 1.58C33.156 1.952 33.78 2.756 34.536 3.38H31.26ZM29.496 6.932C28.572 5.936 28.14 5 27.972 4.568V4.112H29.016V3.2H27.972V0.872H27.024V3.2H25.344V4.112H26.952C26.328 6.656 25.584 7.616 25.14 8.192L25.56 9.38C26.244 8.444 26.724 7.376 27.024 6.248V12.008H27.972V6.008C28.26 6.728 28.536 7.172 29.004 7.832L29.496 6.932ZM44.73 4.772C44.406 5.144 43.938 5.708 42.654 6.872C42.522 6.764 42.294 6.584 41.706 6.2C41.754 6.152 42.606 5.42 43.23 4.592H47.706V6.008H48.702V3.728H43.842V2.708H48.702V1.82H43.842V0.895999H42.858V1.82H38.046V2.708H42.858V3.728H37.998V6.008H38.982V4.592H41.958C41.742 4.892 41.55 5.156 40.95 5.72C40.518 5.444 40.386 5.384 40.158 5.264L39.546 5.996C40.818 6.608 41.766 7.304 41.982 7.484C41.874 7.58 41.79 7.652 41.562 7.832C41.022 7.844 38.406 7.868 37.818 7.856L37.89 8.78C38.598 8.78 42.078 8.708 42.858 8.696V11.984H43.854V8.648L47.274 8.468C47.706 8.888 47.898 9.128 48.09 9.38L48.774 8.696C48.438 8.3 47.658 7.364 46.038 6.188L45.342 6.812C45.63 7.016 45.822 7.148 46.458 7.7C44.022 7.784 43.746 7.796 42.918 7.832C44.454 6.488 44.946 6.044 45.582 5.324L44.73 4.772ZM38.37 11.864C39.006 11.552 40.374 10.856 41.478 9.56L40.698 9.02C39.642 10.232 38.094 10.916 37.746 11.072L38.37 11.864ZM45.054 9.512C45.618 10.1 46.518 10.976 48.366 11.804L48.978 10.952C47.586 10.424 46.686 9.86 45.75 8.936L45.054 9.512ZM56.352 3.356H60.132V2.312H51.456V3.356H55.212V9.524H50.808V10.592H60.78V9.524H56.352V3.356ZM67.866 3.776C67.554 3.584 66.234 2.732 64.11 2.096L63.57 3.056C65.298 3.596 66.558 4.304 67.266 4.784L67.866 3.776ZM64.038 11.192C70.95 10.736 72.87 5.132 73.446 3.428L72.51 2.732C71.682 5.42 69.894 9.668 63.822 9.992L64.038 11.192ZM80.808 2.996C79.86 2.54 78.684 2 77.292 1.688L76.86 2.6C78.096 2.948 79.248 3.38 80.352 3.992L80.808 2.996ZM79.824 5.804C78.9 5.264 77.46 4.712 76.356 4.448L75.936 5.396C77.664 5.9 78.756 6.464 79.38 6.824L79.824 5.804ZM82.74 1.028C83.292 1.976 83.46 2.384 83.784 3.38L84.624 2.96C84.228 1.904 84 1.352 83.52 0.632L82.74 1.028ZM84.744 0.908C85.26 1.82 85.452 2.324 85.752 3.284L86.604 2.876C86.244 1.796 85.92 1.148 85.536 0.536L84.744 0.908ZM76.824 11.264C81.72 10.628 84.048 8.78 85.608 4.328L84.672 3.644C83.352 7.808 81.336 9.62 76.56 10.088L76.824 11.264ZM92.766 3.776C92.454 3.584 91.134 2.732 89.01 2.096L88.47 3.056C90.198 3.596 91.458 4.304 92.166 4.784L92.766 3.776ZM88.938 11.192C95.85 10.736 97.77 5.132 98.346 3.428L97.41 2.732C96.582 5.42 94.794 9.668 88.722 9.992L88.938 11.192ZM108.996 11.972V1.688H111.3V0.727999H108.036V11.972H108.996ZM120.066 9.404C120.774 6.416 121.014 3.392 121.098 2.456H114.462V3.524H119.874C119.802 4.388 119.574 6.92 118.914 9.404H112.938V10.472H123.102V9.404H120.066ZM127.56 1.7H126.456V9.296C126.456 10.82 127.2 11.12 128.988 11.12H132.348C133.104 11.12 134.244 11.084 134.976 10.964L134.916 9.884C134.148 10.028 133.188 10.076 132.228 10.076H129.144C127.776 10.076 127.56 9.98 127.56 9.116V6.464C128.82 6.2 131.016 5.648 133.644 4.448L133.152 3.44C131.352 4.364 129.696 4.928 127.56 5.42V1.7ZM132.78 1.34C133.32 2.168 133.596 2.696 133.956 3.644L134.772 3.164C134.388 2.276 134.088 1.664 133.548 0.908L132.78 1.34ZM134.616 0.775999C135.216 1.688 135.42 2.12 135.78 3.08L136.596 2.612C136.248 1.76 135.912 1.064 135.384 0.343999L134.616 0.775999ZM137.79 5.864V7.004H148.11V5.864H137.79ZM152.004 0.908V11.192H149.7V12.152H152.964V0.908H152.004ZM170.49 3.476L170.466 1.448H169.374L169.41 3.476H165.81V4.508H169.434L169.482 7.34C169.146 7.244 168.846 7.16 168.246 7.16C166.722 7.16 165.618 8.012 165.618 9.26C165.618 10.232 166.314 11.324 168.186 11.324C170.478 11.324 170.49 9.968 170.49 9.284V8.84C171.15 9.26 171.75 9.764 172.23 10.4L172.938 9.428C172.386 8.84 171.498 8.156 170.526 7.676L170.49 4.508H172.734V3.476H170.49ZM169.482 9.068C169.482 9.716 169.434 10.424 168.126 10.424C167.49 10.424 166.578 10.196 166.578 9.272C166.578 8.372 167.454 8.06 168.258 8.06C168.87 8.06 169.206 8.204 169.482 8.324V9.068ZM163.518 1.424C163.194 3.296 163.074 5.036 163.074 6.932C163.074 8.408 163.122 9.896 163.41 11.348L164.49 11.204C164.178 9.836 164.118 8.42 164.118 7.016C164.118 4.328 164.406 2.708 164.634 1.508L163.518 1.424ZM183.696 11.972V1.688H186V0.727999H182.736V11.972H183.696ZM193.674 0.872V1.628H190.086V2.444H191.838C191.874 2.54 192.09 3.344 192.138 3.536H190.482V10.172H191.394V4.316H193.722V5.216H191.766V5.96H193.722V6.788H192.198V9.272H196.134V6.788H194.598V5.96H196.542V5.216H194.598V4.316H196.914V9.128C196.914 9.404 196.806 9.428 196.65 9.428L195.534 9.416L195.666 10.328H196.938C197.562 10.328 197.826 9.98 197.826 9.404V3.536H196.074C196.242 3.128 196.338 2.852 196.458 2.444H198.27V1.628H194.646V0.872H193.674ZM193.002 3.536C192.894 3.068 192.882 3.008 192.738 2.444H195.582C195.546 2.6 195.366 3.224 195.234 3.536H193.002ZM195.306 8.54H193.014V7.508H195.306V8.54ZM192.246 10.796C191.898 10.796 189.714 10.628 189.474 9.164V5.528H187.23V6.512H188.526V9.896C187.998 10.46 187.314 10.904 187.098 11.036L187.578 12.056C188.43 11.312 188.49 11.24 189.258 10.364C189.522 10.712 190.266 11.72 192.234 11.72H198.234L198.426 10.796H192.246ZM189.906 3.032C189.33 2.228 188.634 1.52 188.07 1.04L187.41 1.64C188.49 2.696 188.91 3.344 189.126 3.668L189.906 3.032ZM200.724 4.232L199.488 4.436L199.548 5.408L200.724 5.216V9.056C200.724 9.632 201.024 9.932 201.588 9.932H202.992C203.976 9.932 204.204 8.984 204.396 7.412L203.424 7.184C203.4 7.64 203.316 9.008 202.8 9.008H202.056C201.756 9.008 201.696 8.924 201.696 8.66V5.06L204.336 4.628L204.276 3.644L201.696 4.064V0.883999H200.724V4.232ZM204 1.4V2.372H206.148C206.148 6.584 205.764 9.284 202.26 11.156L202.956 12.02C206.28 9.992 207.108 7.616 207.156 2.372H209.424C209.424 3.74 209.424 9.62 208.788 10.652C208.584 10.988 208.188 10.976 208.068 10.976L206.28 10.964L206.496 11.984H208.236C209.304 11.984 209.628 11.432 209.772 11.132C210.432 9.716 210.432 4.328 210.432 1.4H204ZM220.398 4.688H219.318L219.39 7.256C219.126 7.196 218.742 7.112 218.142 7.112C216.018 7.112 215.322 8.444 215.322 9.344C215.322 10.46 216.21 11.456 218.01 11.456C219.198 11.456 220.41 11.024 220.41 9.248V8.756C220.842 9.008 221.574 9.452 222.354 10.388L223.014 9.44C222.426 8.792 221.466 8.048 220.458 7.604L220.398 4.688ZM219.414 9.056C219.414 9.872 219.234 10.52 218.046 10.52C217.818 10.52 216.342 10.52 216.342 9.308C216.342 8.636 216.918 8.024 218.142 8.024C218.778 8.024 219.138 8.156 219.414 8.252V9.056ZM215.85 2.84C216.006 1.964 216.018 1.892 216.114 1.316L214.974 1.268C214.926 1.748 214.89 2.012 214.758 2.84H212.538V3.848H214.566C214.254 5.192 213.726 7.544 212.442 9.608L213.546 10.088C213.978 9.2 214.962 7.196 215.646 3.848H218.37V2.84H215.85ZM222.81 3.776C221.538 3.068 220.734 2.708 219.534 2.288L219.114 3.176C220.194 3.572 221.094 4.004 222.306 4.736L222.81 3.776ZM225.888 6.404C226.728 5.876 227.064 5.54 227.412 5.192C229.176 6.08 230.232 6.824 231.228 7.676C229.86 9.176 228 10.064 226.032 10.532L226.548 11.528C233.748 9.656 234.372 3.92 234.588 1.964H228.384C227.664 3.56 226.608 4.676 225.18 5.564L225.888 6.404ZM233.352 2.96C233.076 4.82 232.524 5.924 231.888 6.86C230.7 5.84 229.32 5.096 228.072 4.472C228.396 4.076 228.612 3.8 229.104 2.96H233.352ZM243.834 5.072C245.514 3.728 246.51 2.564 247.038 1.94L246.03 1.28C243.798 4.088 240.846 6.26 237.426 7.328L237.954 8.324C239.49 7.784 241.05 7.064 242.682 5.924V11.516H243.834V5.072ZM259.044 2.612C256.248 1.976 254.088 1.712 251.196 1.544L251.016 2.54C253.992 2.696 256.332 3.044 258.84 3.716L259.044 2.612ZM258.42 6.248C256.428 5.648 254.52 5.24 251.136 4.988L250.932 5.984C253.932 6.212 255.876 6.548 258.228 7.292L258.42 6.248ZM259.536 10.316C258.216 9.932 255.192 9.044 250.428 8.804L250.212 9.824C254.484 10.148 256.68 10.628 259.236 11.456L259.536 10.316ZM267.066 3.776C266.754 3.584 265.434 2.732 263.31 2.096L262.77 3.056C264.498 3.596 265.758 4.304 266.466 4.784L267.066 3.776ZM263.238 11.192C270.15 10.736 272.07 5.132 272.646 3.428L271.71 2.732C270.882 5.42 269.094 9.668 263.022 9.992L263.238 11.192ZM275.676 11.624C279.948 10.664 282.456 8.288 283.452 3.716L282.336 2.24H277.536C276.696 3.92 275.472 4.952 274.536 5.588L275.22 6.404C276.576 5.492 277.464 4.508 278.256 3.248H282.42C281.736 6.86 279.876 9.68 275.22 10.604L275.676 11.624ZM283.956 0.8C284.58 1.652 284.82 2.132 285.228 3.056L285.996 2.552C285.492 1.544 285.288 1.124 284.676 0.343999L283.956 0.8ZM282.36 1.268C282.948 2.048 283.248 2.564 283.668 3.5L284.424 2.984C283.92 1.988 283.68 1.556 283.068 0.8L282.36 1.268ZM294.018 5C294.582 5.792 294.882 6.356 295.278 7.316L296.118 6.788C295.698 5.876 295.35 5.228 294.798 4.52L294.018 5ZM295.794 4.232C296.37 5.06 296.646 5.576 297.054 6.548L297.894 6.02C297.462 5.084 297.15 4.496 296.574 3.752L295.794 4.232ZM297.258 1.976C294.51 1.988 293.382 2.012 290.538 2.168C289.926 2.204 287.85 2.3 287.262 2.312L287.358 3.488C288.666 3.332 292.818 3.08 293.166 3.068C291.75 3.896 289.65 5.468 289.65 7.748C289.65 11.108 293.634 11.276 295.998 11.372L296.214 10.208C295.146 10.244 293.958 10.148 293.19 9.992C291.918 9.728 290.766 9.236 290.766 7.676C290.766 5.612 293.118 3.752 294.846 3.176C295.206 3.056 295.47 3.032 296.058 3.032C296.394 3.032 296.766 3.044 297.282 3.08L297.258 1.976ZM305.1 11.372C306.432 11.24 307.632 10.832 308.412 10.184C309.504 9.272 310.02 7.856 310.02 6.428C310.02 4.4 308.976 1.712 305.088 1.712C301.92 1.712 299.544 3.8 299.544 7.064C299.544 9.044 300.528 10.436 301.704 10.436C302.244 10.436 303.012 10.16 303.72 9.044C304.956 7.064 305.196 4.112 305.304 2.72C308.604 2.828 308.892 5.468 308.892 6.416C308.892 9.848 305.976 10.196 304.74 10.328L305.1 11.372ZM304.236 2.768C304.116 4.148 303.924 6.584 302.916 8.312C302.604 8.84 302.244 9.284 301.74 9.284C300.888 9.284 300.588 7.904 300.588 7.088C300.588 5.696 301.14 4.352 302.256 3.536C302.868 3.08 303.528 2.9 304.236 2.768ZM318.174 0.872V1.628H314.586V2.444H316.338C316.374 2.54 316.59 3.344 316.638 3.536H314.982V10.172H315.894V4.316H318.222V5.216H316.266V5.96H318.222V6.788H316.698V9.272H320.634V6.788H319.098V5.96H321.042V5.216H319.098V4.316H321.414V9.128C321.414 9.404 321.306 9.428 321.15 9.428L320.034 9.416L320.166 10.328H321.438C322.062 10.328 322.326 9.98 322.326 9.404V3.536H320.574C320.742 3.128 320.838 2.852 320.958 2.444H322.77V1.628H319.146V0.872H318.174ZM317.502 3.536C317.394 3.068 317.382 3.008 317.238 2.444H320.082C320.046 2.6 319.866 3.224 319.734 3.536H317.502ZM319.806 8.54H317.514V7.508H319.806V8.54ZM316.746 10.796C316.398 10.796 314.214 10.628 313.974 9.164V5.528H311.73V6.512H313.026V9.896C312.498 10.46 311.814 10.904 311.598 11.036L312.078 12.056C312.93 11.312 312.99 11.24 313.758 10.364C314.022 10.712 314.766 11.72 316.734 11.72H322.734L322.926 10.796H316.746ZM314.406 3.032C313.83 2.228 313.134 1.52 312.57 1.04L311.91 1.64C312.99 2.696 313.41 3.344 313.626 3.668L314.406 3.032ZM325.224 4.232L323.988 4.436L324.048 5.408L325.224 5.216V9.056C325.224 9.632 325.524 9.932 326.088 9.932H327.492C328.476 9.932 328.704 8.984 328.896 7.412L327.924 7.184C327.9 7.64 327.816 9.008 327.3 9.008H326.556C326.256 9.008 326.196 8.924 326.196 8.66V5.06L328.836 4.628L328.776 3.644L326.196 4.064V0.883999H325.224V4.232ZM328.5 1.4V2.372H330.648C330.648 6.584 330.264 9.284 326.76 11.156L327.456 12.02C330.78 9.992 331.608 7.616 331.656 2.372H333.924C333.924 3.74 333.924 9.62 333.288 10.652C333.084 10.988 332.688 10.976 332.568 10.976L330.78 10.964L330.996 11.984H332.736C333.804 11.984 334.128 11.432 334.272 11.132C334.932 9.716 334.932 4.328 334.932 1.4H328.5ZM344.898 4.688H343.818L343.89 7.256C343.626 7.196 343.242 7.112 342.642 7.112C340.518 7.112 339.822 8.444 339.822 9.344C339.822 10.46 340.71 11.456 342.51 11.456C343.698 11.456 344.91 11.024 344.91 9.248V8.756C345.342 9.008 346.074 9.452 346.854 10.388L347.514 9.44C346.926 8.792 345.966 8.048 344.958 7.604L344.898 4.688ZM343.914 9.056C343.914 9.872 343.734 10.52 342.546 10.52C342.318 10.52 340.842 10.52 340.842 9.308C340.842 8.636 341.418 8.024 342.642 8.024C343.278 8.024 343.638 8.156 343.914 8.252V9.056ZM340.35 2.84C340.506 1.964 340.518 1.892 340.614 1.316L339.474 1.268C339.426 1.748 339.39 2.012 339.258 2.84H337.038V3.848H339.066C338.754 5.192 338.226 7.544 336.942 9.608L338.046 10.088C338.478 9.2 339.462 7.196 340.146 3.848H342.87V2.84H340.35ZM347.31 3.776C346.038 3.068 345.234 2.708 344.034 2.288L343.614 3.176C344.694 3.572 345.594 4.004 346.806 4.736L347.31 3.776ZM6.912 26.2C6.996 25.684 7.032 25.288 7.032 24.592H10.332V23.716H4.86C5.028 23.392 5.124 23.188 5.316 22.708L4.356 22.504C3.984 23.668 3.276 24.544 2.424 25.228L3.18 25.876C3.648 25.456 3.924 25.156 4.332 24.592H6.096C6.096 25.456 6.036 25.828 5.976 26.2H2.484V27.088H5.688C4.836 28.852 2.928 29.32 2.328 29.464L2.904 30.34C4.272 29.884 5.808 29.104 6.6 27.28C6.9 27.964 7.86 29.488 10.572 30.328L11.1 29.404C9.156 28.972 7.884 27.856 7.476 27.088H10.836V26.2H6.912ZM0.84 21.268V31.756H11.496V30.844H1.86V22.192H11.244V21.268H0.84ZM22.746 26.704C23.118 26.932 23.346 27.04 23.67 27.196L24.126 26.392C23.79 26.272 23.466 26.152 22.926 25.852C22.95 25.816 23.37 25.408 23.742 24.928L23.07 24.52C22.938 24.7 22.65 25.06 22.302 25.432C21.726 24.988 21.426 24.592 21.186 24.292H23.982V23.536H19.614C19.698 23.368 19.746 23.248 19.866 22.948L18.918 22.84C18.822 23.116 18.762 23.272 18.642 23.536H15.762V24.292H18.186C17.85 24.736 17.55 25.048 17.178 25.348C17.07 25.228 16.734 24.856 16.35 24.568L15.798 25.072C16.134 25.336 16.17 25.372 16.566 25.792C16.158 26.068 15.846 26.224 15.426 26.428L15.954 27.148C16.218 26.992 16.302 26.944 16.554 26.788V29.284H19.134V30.832C19.134 31.072 19.098 31.12 18.858 31.12H17.718L17.922 31.984H19.218C19.59 31.984 20.106 31.96 20.106 31.216V29.284H22.746V26.704ZM21.87 27.172H17.43V26.452H21.87V27.172ZM17.922 25.756C18.702 25.048 19.038 24.52 19.182 24.292H20.202C20.466 24.676 20.766 25.132 21.462 25.756H17.922ZM21.87 28.588H17.43V27.832H21.87V28.588ZM14.43 25.912C14.43 26.248 14.418 26.476 14.418 26.668C13.818 26.968 13.542 27.1 12.714 27.424L12.918 28.408C13.278 28.228 13.734 28 14.334 27.604C14.07 29.836 13.41 30.7 12.87 31.372L13.602 32.02C14.082 31.444 15.378 29.896 15.378 25.948V22.684H24.018V21.844H19.554V20.872H18.57V21.844H14.43V25.912ZM14.178 24.88C14.058 24.268 13.806 23.428 13.458 22.744L12.714 23.104C12.99 23.788 13.206 24.556 13.338 25.276L14.178 24.88ZM15.45 31.804C16.254 31.504 16.998 31.108 18.018 30.112L17.322 29.536C16.47 30.352 15.882 30.676 14.922 31L15.45 31.804ZM21.078 30.124C21.726 30.856 22.746 31.492 23.67 31.816L24.198 31C23.082 30.604 22.578 30.316 21.714 29.488L21.078 30.124ZM34.884 24.112C33.024 24.412 32.04 24.604 30.744 25C30.492 24.484 30.432 23.848 30.432 22.576C30.432 21.988 30.444 21.652 30.456 21.328H29.28C29.316 23.884 29.34 24.58 29.736 25.36C28.896 25.72 26.424 26.752 26.424 28.804C26.424 31.36 29.748 31.36 31.824 31.36C33.552 31.36 34.608 31.288 35.388 31.24L35.364 30.112C34.68 30.184 33.564 30.292 31.584 30.292C29.004 30.292 27.54 30.16 27.54 28.768C27.54 26.104 34.02 25.372 34.992 25.264L34.884 24.112ZM43.65 31.372C44.982 31.24 46.182 30.832 46.962 30.184C48.054 29.272 48.57 27.856 48.57 26.428C48.57 24.4 47.526 21.712 43.638 21.712C40.47 21.712 38.094 23.8 38.094 27.064C38.094 29.044 39.078 30.436 40.254 30.436C40.794 30.436 41.562 30.16 42.27 29.044C43.506 27.064 43.746 24.112 43.854 22.72C47.154 22.828 47.442 25.468 47.442 26.416C47.442 29.848 44.526 30.196 43.29 30.328L43.65 31.372ZM42.786 22.768C42.666 24.148 42.474 26.584 41.466 28.312C41.154 28.84 40.794 29.284 40.29 29.284C39.438 29.284 39.138 27.904 39.138 27.088C39.138 25.696 39.69 24.352 40.806 23.536C41.418 23.08 42.078 22.9 42.786 22.768ZM51.084 21.76V26.164H55.284V30.844H51.684V27.088H50.676V31.768H60.912V27.088H59.892V30.844H56.292V26.164H60.516V21.76H59.496V25.24H56.292V20.872H55.284V25.24H52.104V21.76H51.084ZM69.582 28.48C70.518 29.428 71.118 30.184 71.238 30.34C70.35 30.424 69.114 30.532 67.65 30.592C67.398 30.604 66.054 30.64 65.754 30.652C66.534 29.272 67.014 28.228 67.302 27.568H73.566V26.644H62.85V27.568H66.138C65.874 28.264 65.418 29.38 64.662 30.676H63.006L63.114 31.66C64.962 31.66 69.858 31.444 71.862 31.156C72.114 31.528 72.258 31.756 72.45 32.08L73.314 31.504C72.39 30.04 71.658 29.2 70.374 27.94L69.582 28.48ZM71.43 24.436C72.282 25.012 72.954 25.324 73.482 25.564L74.01 24.604C71.922 23.86 70.014 22.408 68.766 20.74H67.698C67.374 21.22 66.03 23.164 62.454 24.568L62.946 25.54C63.354 25.372 64.014 25.084 65.082 24.424V25.096H71.43V24.436ZM65.454 24.184C66.462 23.488 67.482 22.648 68.238 21.592C68.658 22.12 69.354 22.984 71.046 24.184H65.454ZM76.056 21.892C75.984 22.708 75.864 24.016 75.864 25.324C75.864 28.444 76.404 31.132 78.348 31.132C78.96 31.132 79.404 30.844 79.692 30.556C80.364 29.884 80.916 28.876 81.312 27.76L80.424 27.256C79.596 29.416 78.972 29.908 78.432 29.908C77.088 29.908 76.944 27.28 76.944 25.42C76.944 23.8 77.1 22.708 77.196 21.988L76.056 21.892ZM85.728 29.944C85.896 25.144 84.66 23.452 83.232 22.252L82.404 22.888C83.652 23.908 84.588 25.636 84.588 28.768C84.588 29.32 84.564 29.68 84.54 29.992L85.728 29.944ZM89.754 20.908V31.192H87.45V32.152H90.714V20.908H89.754ZM105.9 31.372C107.232 31.24 108.432 30.832 109.212 30.184C110.304 29.272 110.82 27.856 110.82 26.428C110.82 24.4 109.776 21.712 105.888 21.712C102.72 21.712 100.344 23.8 100.344 27.064C100.344 29.044 101.328 30.436 102.504 30.436C103.044 30.436 103.812 30.16 104.52 29.044C105.756 27.064 105.996 24.112 106.104 22.72C109.404 22.828 109.692 25.468 109.692 26.416C109.692 29.848 106.776 30.196 105.54 30.328L105.9 31.372ZM105.036 22.768C104.916 24.148 104.724 26.584 103.716 28.312C103.404 28.84 103.044 29.284 102.54 29.284C101.688 29.284 101.388 27.904 101.388 27.088C101.388 25.696 101.94 24.352 103.056 23.536C103.668 23.08 104.328 22.9 105.036 22.768ZM116.226 25.84C116.526 25.684 116.886 25.504 117.474 25.06V26.452H122.13V25.108C122.55 25.432 122.922 25.648 123.462 25.888L123.846 25.108C122.538 24.52 122.082 24.124 121.494 23.284H123.582V22.54H119.562C119.61 22.444 119.694 22.288 119.886 21.832C120.438 21.796 121.998 21.676 122.898 21.496L122.49 20.776C121.494 20.98 119.886 21.232 116.382 21.22L116.574 21.94C117.03 21.94 117.462 21.94 118.926 21.88C118.866 22 118.794 22.156 118.59 22.54H116.094V23.284H118.11C117.294 24.376 116.238 24.868 115.782 25.084L116.226 25.84ZM120.546 23.284C120.702 23.548 120.882 23.848 121.23 24.268H118.35C118.662 23.932 118.866 23.692 119.13 23.284H120.546ZM121.362 25.792H118.23V24.928H121.362V25.792ZM123.258 27.04H116.334V32.008H117.234V27.772H122.334V30.688C122.334 31.12 122.298 31.192 121.89 31.18L121.11 31.168L121.278 32.008H122.25C122.79 32.008 123.258 31.948 123.258 31.18V27.04ZM120.846 30.196H118.746V29.104H120.846V30.196ZM116.238 26.752C115.47 25.84 115.122 25.06 114.954 24.628V24.124H116.034V23.212H114.954V20.872H114.03V23.212H112.506V24.124H113.994C113.682 25.708 112.926 27.112 112.35 27.916L112.782 29.068C113.082 28.624 113.562 27.88 114.03 26.368V32.008H114.954V26.104C115.146 26.584 115.194 26.704 115.71 27.496L116.238 26.752ZM121.65 28.432H117.93V30.892H121.65V28.432ZM128.136 21.772V26.248C128.136 29.284 127.152 30.604 126.696 31.216L127.476 31.972C127.74 31.588 128.436 30.592 128.772 29.08C128.952 28.252 129.096 27.088 129.096 26.26V24.628H130.476V26.512H134.34V24.628H135.948V23.8H134.34V22.96H133.452V23.8H131.364V22.96H130.476V23.8H129.096V22.66H136.044V21.772H132.588V20.872H131.616V21.772H128.136ZM125.292 21.76C125.748 21.976 126.66 22.492 127.116 22.972L127.728 22.084C126.888 21.472 126.36 21.196 125.844 20.98L125.292 21.76ZM133.452 24.628V25.732H131.364V24.628H133.452ZM136.188 31.072C135.708 30.988 134.712 30.796 133.428 30.268C134.652 29.38 135.108 28.456 135.312 28.036V27.208H129.444V28.06H134.268C134.028 28.432 133.56 29.14 132.456 29.788C131.4 29.152 130.944 28.576 130.704 28.288L129.924 28.708C130.152 29.008 130.596 29.56 131.532 30.244C130.128 30.832 129.084 30.988 128.508 31.072L128.94 32.032C130.416 31.708 131.484 31.348 132.468 30.832C133.956 31.648 135.168 31.888 135.792 32.008L136.188 31.072ZM124.752 24.94C125.4 25.252 126.06 25.672 126.612 26.152L127.212 25.324C126.804 24.988 126.012 24.448 125.304 24.136L124.752 24.94ZM126.444 27.256C126.192 28.18 125.616 29.74 124.716 31.072L125.472 31.912C126.648 30.052 127.116 28.336 127.26 27.748L126.444 27.256ZM139.53 21.424C139.518 22.24 139.446 26.224 139.446 27.124C139.446 29.212 139.662 31.408 142.95 31.408C146.598 31.408 147.378 28.936 147.762 26.764L146.754 26.392C146.418 28.216 146.022 30.376 142.914 30.376C140.658 30.376 140.586 28.768 140.586 27.232C140.586 26.092 140.634 24.664 140.742 21.424H139.53ZM151.332 21.532C150.948 23.332 150.828 25.252 150.828 27.232C150.828 29.524 151.032 30.724 151.14 31.42L152.304 31.324C152.208 30.892 151.932 29.74 151.932 27.064C151.932 24.04 152.292 22.468 152.472 21.628L151.332 21.532ZM154.296 22.504V23.56H159.936V22.504H154.296ZM154.56 26.476C154.14 27.184 153.924 27.868 153.924 28.492C153.924 30.556 156.144 30.724 157.92 30.724C158.94 30.724 159.78 30.652 160.188 30.616V29.488C159.084 29.608 158.1 29.632 157.44 29.632C156.156 29.632 154.932 29.488 154.932 28.396C154.932 28.288 154.944 27.604 155.532 26.776L154.56 26.476ZM168.462 24.364H172.518V23.284L168.462 23.32L168.45 21.328H167.322L167.37 26.98C167.07 26.944 166.842 26.908 166.446 26.908C164.73 26.908 163.038 27.616 163.038 29.26C163.038 30.436 163.926 31.42 165.906 31.42C168.402 31.42 168.486 29.884 168.474 29.176L168.462 28.348C169.926 28.912 171.318 29.992 172.05 30.808L172.83 29.776C172.242 29.164 170.838 28.012 168.474 27.208L168.462 24.364ZM167.382 29.104C167.382 29.596 167.262 30.424 165.894 30.424C165.63 30.424 164.106 30.424 164.106 29.272C164.106 28.3 165.246 27.892 166.278 27.892C166.782 27.892 167.142 27.964 167.394 28.012L167.382 29.104ZM178.932 31.036C179.892 31.024 180.924 30.94 181.86 30.64C184.152 29.92 184.416 28.036 184.416 27.316C184.416 25.636 183.24 24.364 181.188 24.364C180.552 24.364 179.712 24.484 178.968 24.604C178.56 24.676 176.568 25.036 176.112 25.108L176.292 26.164C178.14 25.696 180.18 25.3 181.14 25.3C182.316 25.3 183.36 25.9 183.36 27.352C183.36 30.136 179.664 30.112 178.668 30.1L178.932 31.036ZM197.658 21.976C194.706 22 193.602 22.024 190.914 22.168C190.302 22.204 188.382 22.288 187.662 22.312L187.758 23.488C189.066 23.332 193.218 23.08 193.566 23.068C192.15 23.896 190.05 25.468 190.05 27.748C190.05 31.108 194.034 31.276 196.398 31.372L196.614 30.208C195.582 30.244 194.43 30.172 193.59 29.992C192.318 29.728 191.166 29.236 191.166 27.676C191.166 25.612 193.518 23.752 195.246 23.176C195.606 23.056 195.858 23.032 196.458 23.032C196.926 23.032 197.274 23.044 197.682 23.08L197.658 21.976ZM203.076 30.892C202.572 30.208 201.72 29.2 200.94 28.48L200.028 29.152C200.424 29.572 201.168 30.352 202.02 31.636L203.076 30.892ZM217.854 31.588C220.41 30.676 221.022 28.672 221.31 27.496C221.91 27.76 222.114 27.868 222.654 28.192L223.014 27.112C222.27 26.704 221.574 26.44 221.538 26.428C221.718 25.468 221.814 24.424 221.898 23.56L220.758 23.476C220.734 24.028 220.674 24.88 220.494 26.056C219.402 25.696 218.61 25.504 217.602 25.42C217.998 23.056 218.034 22.792 218.19 21.592H213.222V22.636L216.978 22.6C216.906 23.452 216.75 24.52 216.582 25.384C212.658 25.54 212.442 28.12 212.442 28.708C212.442 29.992 213.282 30.76 214.434 30.76C216.246 30.76 216.774 29.044 217.422 26.368C218.502 26.464 219.522 26.776 220.302 27.076C219.882 28.816 219.258 30.016 217.194 30.76L217.854 31.588ZM216.402 26.308C215.766 28.912 215.442 29.812 214.362 29.812C213.45 29.812 213.39 28.876 213.39 28.648C213.39 27.832 213.882 27.052 214.662 26.668C215.19 26.404 215.694 26.332 216.402 26.308ZM232.848 24.688H231.768L231.84 27.256C231.576 27.196 231.192 27.112 230.592 27.112C228.468 27.112 227.772 28.444 227.772 29.344C227.772 30.46 228.66 31.456 230.46 31.456C231.648 31.456 232.86 31.024 232.86 29.248V28.756C233.292 29.008 234.024 29.452 234.804 30.388L235.464 29.44C234.876 28.792 233.916 28.048 232.908 27.604L232.848 24.688ZM231.864 29.056C231.864 29.872 231.684 30.52 230.496 30.52C230.268 30.52 228.792 30.52 228.792 29.308C228.792 28.636 229.368 28.024 230.592 28.024C231.228 28.024 231.588 28.156 231.864 28.252V29.056ZM228.3 22.84C228.456 21.964 228.468 21.892 228.564 21.316L227.424 21.268C227.376 21.748 227.34 22.012 227.208 22.84H224.988V23.848H227.016C226.704 25.192 226.176 27.544 224.892 29.608L225.996 30.088C226.428 29.2 227.412 27.196 228.096 23.848H230.82V22.84H228.3ZM235.26 23.776C233.988 23.068 233.184 22.708 231.984 22.288L231.564 23.176C232.644 23.572 233.544 24.004 234.756 24.736L235.26 23.776ZM245.982 27.4C245.262 26.632 244.566 25.468 244.062 24.256C245.118 24.208 246.15 24.16 247.458 23.884L247.266 22.852C246.066 23.104 244.938 23.248 243.714 23.284C243.558 22.804 243.39 22.024 243.282 21.292L242.142 21.376C242.19 21.664 242.37 22.54 242.61 23.32C242.31 23.332 241.662 23.344 241.158 23.332L237.654 23.272V24.316H241.11C241.29 24.316 242.214 24.304 242.946 24.292C243.594 25.936 244.35 27.232 245.058 28.024L245.982 27.4ZM239.934 26.416C238.71 27.016 238.194 27.88 238.194 28.756C238.194 29.356 238.422 29.944 238.902 30.376C239.742 31.132 240.93 31.372 243.03 31.372C244.674 31.372 245.73 31.276 246.162 31.228L246.15 30.16C245.406 30.256 244.494 30.364 242.934 30.364C241.218 30.364 239.274 30.208 239.274 28.744C239.274 28.516 239.334 27.772 240.51 27.196L239.934 26.416ZM253.068 21.256C252.78 22.036 252.084 23.956 251.904 24.46C251.628 25.24 251.424 25.816 249.72 31.024L250.848 31.372C251.172 30.16 251.364 29.44 251.784 28.324C252.54 26.776 253.524 26.524 254.004 26.524C254.856 26.524 255.072 27.232 255.072 28.12V28.792C255.072 29.728 255.084 31.42 257.124 31.42C259.872 31.42 260.16 28.204 260.232 26.62L259.188 26.38C259.188 27.076 259.128 27.976 258.792 28.948C258.396 30.088 257.784 30.364 257.196 30.364C256.224 30.364 256.128 29.704 256.128 28.84V28.036C256.128 27.208 256.032 25.504 254.184 25.504C253.524 25.504 253.056 25.732 252.408 26.26C252.732 25.324 253.452 23.356 254.256 21.58L253.068 21.256ZM267.75 31.372C269.082 31.24 270.282 30.832 271.062 30.184C272.154 29.272 272.67 27.856 272.67 26.428C272.67 24.4 271.626 21.712 267.738 21.712C264.57 21.712 262.194 23.8 262.194 27.064C262.194 29.044 263.178 30.436 264.354 30.436C264.894 30.436 265.662 30.16 266.37 29.044C267.606 27.064 267.846 24.112 267.954 22.72C271.254 22.828 271.542 25.468 271.542 26.416C271.542 29.848 268.626 30.196 267.39 30.328L267.75 31.372ZM266.886 22.768C266.766 24.148 266.574 26.584 265.566 28.312C265.254 28.84 264.894 29.284 264.39 29.284C263.538 29.284 263.238 27.904 263.238 27.088C263.238 25.696 263.79 24.352 264.906 23.536C265.518 23.08 266.178 22.9 266.886 22.768ZM281.688 20.872V21.652H280.128V22.444H281.688V23.38H279.492V24.16H281.688V25.12H280.128V25.888H281.688V26.752H279.96V27.532H281.688V28.432H279.636V29.236H281.688V30.304H282.552V29.236H285.408V28.432H282.552V27.532H285.024V26.752H282.552V25.888H284.868V24.16H285.444V23.38H284.868V21.652H282.552V20.872H281.688ZM283.98 23.38H282.552V22.444H283.98V23.38ZM283.98 25.12H282.552V24.16H283.98V25.12ZM282.264 30.736C279.924 30.736 278.856 29.68 278.784 29.596C278.916 29.248 279.468 27.652 279.516 25.048H277.98C278.508 24.124 279.084 23.128 279.492 22.228V21.328H277.092V22.192H278.52C278.232 22.888 277.452 24.364 276.972 25.036V25.912H278.64C278.616 26.8 278.532 27.736 278.196 28.744C277.8 27.916 277.692 27.148 277.62 26.656L276.804 26.776C276.876 27.22 277.08 28.624 277.776 29.692C277.308 30.46 276.9 30.772 276.564 31.036L277.104 31.924C277.452 31.6 277.884 31.204 278.364 30.424C278.7 30.748 279.888 31.672 282.192 31.672H285.396L285.552 30.736H282.264ZM276.288 23.752C276.708 22.6 276.876 21.7 276.996 21.004L276.036 20.848C275.796 22.552 275.16 24.628 274.14 25.864L274.608 26.848C274.86 26.584 275.052 26.38 275.364 25.816V31.984H276.288V23.752ZM296.706 27.628C296.094 28.384 295.134 29.128 294.99 29.236C294.186 28.636 293.754 28.072 293.454 27.652V27.544H296.97V25.888H297.918V25.096H296.97V23.5H293.454V22.936H292.518V23.5H289.146V24.28H292.518V25.096H288.618V22.636H297.846V21.748H292.974V20.872H291.978V21.748H287.646V26.74C287.646 27.94 287.55 28.336 287.418 29.032C287.202 30.16 286.842 30.82 286.638 31.168L287.454 32.02C288.51 30.028 288.618 27.712 288.618 26.824V25.888H292.518V26.776H289.146V27.544H292.518V30.76C292.518 30.916 292.494 31.036 292.218 31.036L290.934 31.024L291.126 32.008H292.578C293.19 32.008 293.454 31.648 293.454 31.12V28.888C294.606 30.316 296.178 31.204 297.462 31.684L298.026 30.76C297.594 30.604 296.778 30.316 295.77 29.74C296.574 29.152 296.97 28.792 297.51 28.216L296.706 27.628ZM296.022 24.28V25.096H293.454V24.28H296.022ZM296.022 25.888V26.776H293.454V25.888H296.022ZM289.158 28.336C289.938 28.696 290.31 28.936 290.838 29.428L291.474 28.696C290.862 28.216 290.466 28 289.698 27.64L289.158 28.336ZM291.954 29.188C291.546 29.38 289.746 30.208 288.366 30.64L288.738 31.504C291.294 30.436 291.582 30.316 292.11 30.028L291.954 29.188ZM304.8 25.204C304.128 25.204 303.564 25.744 303.564 26.44C303.564 27.112 304.104 27.676 304.8 27.676C305.496 27.676 306.036 27.1 306.036 26.44C306.036 25.768 305.484 25.204 304.8 25.204ZM322.218 31.072C321.522 30.664 320.346 29.992 318.822 29.356C319.29 28.876 320.082 27.976 320.658 26.14H322.782V25.192H316.278C316.71 24.316 316.866 23.92 316.998 23.596L315.894 23.392C315.75 23.812 315.546 24.376 315.126 25.192H311.718V26.14H314.61C313.95 27.28 313.362 27.976 313.002 28.396C314.874 28.912 315.942 29.272 316.914 29.656C315.414 30.484 313.614 30.784 312.006 30.928L312.354 31.984C315.474 31.66 317.322 30.568 317.982 30.088C319.95 30.94 321.018 31.648 321.558 32.008L322.218 31.072ZM319.602 26.14C319.47 26.536 319.014 27.916 317.862 28.972C316.662 28.516 315.462 28.168 314.598 27.916C314.838 27.604 315.186 27.148 315.762 26.14H319.602ZM312.006 21.952V24.568H313.026V22.876H321.486V24.568H322.506V21.952H317.742V20.872H316.71V21.952H312.006ZM333.24 24.844C333.984 25.312 334.524 25.552 334.944 25.744L335.448 24.76C333.24 23.956 331.464 22.516 330.252 20.884H329.16C327.828 22.744 325.86 24.04 323.952 24.772L324.456 25.756C324.888 25.552 325.392 25.324 326.208 24.832V25.744H329.196V27.568H325.38V28.468H329.196V30.736H324.204V31.696H335.196V30.736H330.216V28.468H334.056V27.568H330.216V25.744H333.24V24.844ZM326.22 24.82C327.552 24.016 328.728 22.96 329.7 21.736C330.984 23.332 332.46 24.34 333.204 24.82H326.22ZM341.322 22.468C341.49 21.868 341.55 21.592 341.622 21.172L340.47 21.124C340.386 21.808 340.302 22.156 340.218 22.468H337.458V23.428H339.93C339.162 25.672 338.202 26.944 337.146 27.94L337.89 28.744C338.274 28.348 339.066 27.292 339.618 26.536C340.458 25.684 341.334 25.312 341.994 25.312C342.546 25.312 342.882 25.552 343.014 26.26C341.826 26.788 339.678 27.868 339.678 29.5C339.678 31.432 342.39 31.432 343.746 31.432C344.886 31.432 345.93 31.36 346.614 31.312L346.578 30.28C345.498 30.4 344.37 30.448 343.41 30.448C342.09 30.448 340.758 30.448 340.758 29.392C340.758 28.408 342.21 27.64 343.134 27.208C343.158 27.52 343.158 27.724 343.158 27.928C343.158 28.36 343.122 28.804 343.098 29.08H344.142C344.178 28.696 344.178 28.336 344.178 28.168C344.178 27.736 344.166 27.22 344.13 26.8C345.45 26.296 346.302 26.032 347.274 25.756L346.986 24.712C345.906 25.084 344.262 25.744 343.986 25.852C343.746 24.712 342.978 24.448 342.162 24.448C341.562 24.448 341.082 24.652 340.242 25.156C340.59 24.556 340.758 24.16 341.034 23.428H346.326V22.468H341.322ZM9.216 43.62V41.34H8.136V43.62H3.948V41.388H2.856V43.62H0.828V44.652H2.856V47.88H3.948V44.652H8.136V46.128C8.136 48.768 6.564 50.148 3.168 50.472L3.564 51.516C5.364 51.3 9.216 50.592 9.216 46.176V44.652H11.292V43.62H9.216ZM18.978 43.404V41.4H17.874V43.404H13.722V44.424H17.874V51.552H18.978V44.424H23.142V43.992C23.862 43.788 24.354 43.14 24.354 42.396C24.354 41.472 23.61 40.728 22.686 40.728C21.774 40.728 21.018 41.472 21.018 42.384C21.018 42.768 21.138 43.116 21.366 43.404H18.978ZM22.686 41.472C23.19 41.472 23.61 41.88 23.61 42.396C23.61 42.9 23.202 43.32 22.686 43.32C22.182 43.32 21.762 42.9 21.762 42.396C21.762 41.88 22.182 41.472 22.686 41.472ZM14.322 50.832C15.762 49.224 16.134 47.268 16.302 45.684L15.282 45.576C15.15 47.052 14.718 48.768 13.446 50.04L14.322 50.832ZM20.598 45.684C21.006 48.144 21.474 49.464 22.554 50.784L23.454 50.088C22.47 48.9 21.966 47.652 21.606 45.564L20.598 45.684ZM25.74 45.864V47.004H36.06V45.864H25.74ZM48.078 46.932C46.35 45.996 44.49 45.072 42.222 44.352V41.28H41.058V51.54H42.222V45.48C44.73 46.344 46.698 47.544 47.514 48.048L48.078 46.932ZM52.38 41.424C52.368 42.24 52.296 46.224 52.296 47.124C52.296 49.212 52.512 51.408 55.8 51.408C59.448 51.408 60.228 48.936 60.612 46.764L59.604 46.392C59.268 48.216 58.872 50.376 55.764 50.376C53.508 50.376 53.436 48.768 53.436 47.232C53.436 46.092 53.484 44.664 53.592 41.424H52.38ZM66.126 50.892C65.622 50.208 64.77 49.2 63.99 48.48L63.078 49.152C63.474 49.572 64.218 50.352 65.07 51.636L66.126 50.892ZM81.612 46.2C81.696 45.684 81.732 45.288 81.732 44.592H85.032V43.716H79.56C79.728 43.392 79.824 43.188 80.016 42.708L79.056 42.504C78.684 43.668 77.976 44.544 77.124 45.228L77.88 45.876C78.348 45.456 78.624 45.156 79.032 44.592H80.796C80.796 45.456 80.736 45.828 80.676 46.2H77.184V47.088H80.388C79.536 48.852 77.628 49.32 77.028 49.464L77.604 50.34C78.972 49.884 80.508 49.104 81.3 47.28C81.6 47.964 82.56 49.488 85.272 50.328L85.8 49.404C83.856 48.972 82.584 47.856 82.176 47.088H85.536V46.2H81.612ZM75.54 41.268V51.756H86.196V50.844H76.56V42.192H85.944V41.268H75.54ZM97.446 46.704C97.818 46.932 98.046 47.04 98.37 47.196L98.826 46.392C98.49 46.272 98.166 46.152 97.626 45.852C97.65 45.816 98.07 45.408 98.442 44.928L97.77 44.52C97.638 44.7 97.35 45.06 97.002 45.432C96.426 44.988 96.126 44.592 95.886 44.292H98.682V43.536H94.314C94.398 43.368 94.446 43.248 94.566 42.948L93.618 42.84C93.522 43.116 93.462 43.272 93.342 43.536H90.462V44.292H92.886C92.55 44.736 92.25 45.048 91.878 45.348C91.77 45.228 91.434 44.856 91.05 44.568L90.498 45.072C90.834 45.336 90.87 45.372 91.266 45.792C90.858 46.068 90.546 46.224 90.126 46.428L90.654 47.148C90.918 46.992 91.002 46.944 91.254 46.788V49.284H93.834V50.832C93.834 51.072 93.798 51.12 93.558 51.12H92.418L92.622 51.984H93.918C94.29 51.984 94.806 51.96 94.806 51.216V49.284H97.446V46.704ZM96.57 47.172H92.13V46.452H96.57V47.172ZM92.622 45.756C93.402 45.048 93.738 44.52 93.882 44.292H94.902C95.166 44.676 95.466 45.132 96.162 45.756H92.622ZM96.57 48.588H92.13V47.832H96.57V48.588ZM89.13 45.912C89.13 46.248 89.118 46.476 89.118 46.668C88.518 46.968 88.242 47.1 87.414 47.424L87.618 48.408C87.978 48.228 88.434 48 89.034 47.604C88.77 49.836 88.11 50.7 87.57 51.372L88.302 52.02C88.782 51.444 90.078 49.896 90.078 45.948V42.684H98.718V41.844H94.254V40.872H93.27V41.844H89.13V45.912ZM88.878 44.88C88.758 44.268 88.506 43.428 88.158 42.744L87.414 43.104C87.69 43.788 87.906 44.556 88.038 45.276L88.878 44.88ZM90.15 51.804C90.954 51.504 91.698 51.108 92.718 50.112L92.022 49.536C91.17 50.352 90.582 50.676 89.622 51L90.15 51.804ZM95.778 50.124C96.426 50.856 97.446 51.492 98.37 51.816L98.898 51C97.782 50.604 97.278 50.316 96.414 49.488L95.778 50.124ZM101.532 41.532C101.148 43.332 101.028 45.252 101.028 47.232C101.028 49.524 101.232 50.724 101.34 51.42L102.504 51.324C102.408 50.892 102.132 49.74 102.132 47.064C102.132 44.04 102.492 42.468 102.672 41.628L101.532 41.532ZM104.496 42.504V43.56H110.136V42.504H104.496ZM104.76 46.476C104.34 47.184 104.124 47.868 104.124 48.492C104.124 50.556 106.344 50.724 108.12 50.724C109.14 50.724 109.98 50.652 110.388 50.616V49.488C109.284 49.608 108.3 49.632 107.64 49.632C106.356 49.632 105.132 49.488 105.132 48.396C105.132 48.288 105.144 47.604 105.732 46.776L104.76 46.476ZM116.478 50.724C117.93 50.712 119.274 50.544 120.294 50.124C122.85 49.092 123.15 47.064 123.15 46.14C123.15 44.34 122.01 42.54 119.202 42.54C118.206 42.54 117.054 42.732 115.914 42.936C115.422 43.02 113.094 43.428 112.818 43.464L113.082 44.676C115.11 44.172 117.69 43.596 119.13 43.596C121.47 43.596 121.998 45.024 121.998 46.152C121.998 47.34 121.374 48.204 120.726 48.672C119.55 49.512 118.17 49.68 116.19 49.692L116.478 50.724ZM125.856 41.892C125.784 42.708 125.664 44.016 125.664 45.324C125.664 48.444 126.204 51.132 128.148 51.132C128.76 51.132 129.204 50.844 129.492 50.556C130.164 49.884 130.716 48.876 131.112 47.76L130.224 47.256C129.396 49.416 128.772 49.908 128.232 49.908C126.888 49.908 126.744 47.28 126.744 45.42C126.744 43.8 126.9 42.708 126.996 41.988L125.856 41.892ZM135.528 49.944C135.696 45.144 134.46 43.452 133.032 42.252L132.204 42.888C133.452 43.908 134.388 45.636 134.388 48.768C134.388 49.32 134.364 49.68 134.34 49.992L135.528 49.944ZM147.858 41.976C144.906 42 143.802 42.024 141.114 42.168C140.502 42.204 138.582 42.288 137.862 42.312L137.958 43.488C139.266 43.332 143.418 43.08 143.766 43.068C142.35 43.896 140.25 45.468 140.25 47.748C140.25 51.108 144.234 51.276 146.598 51.372L146.814 50.208C145.782 50.244 144.63 50.172 143.79 49.992C142.518 49.728 141.366 49.236 141.366 47.676C141.366 45.612 143.718 43.752 145.446 43.176C145.806 43.056 146.058 43.032 146.658 43.032C147.126 43.032 147.474 43.044 147.882 43.08L147.858 41.976ZM155.7 51.372C157.032 51.24 158.232 50.832 159.012 50.184C160.104 49.272 160.62 47.856 160.62 46.428C160.62 44.4 159.576 41.712 155.688 41.712C152.52 41.712 150.144 43.8 150.144 47.064C150.144 49.044 151.128 50.436 152.304 50.436C152.844 50.436 153.612 50.16 154.32 49.044C155.556 47.064 155.796 44.112 155.904 42.72C159.204 42.828 159.492 45.468 159.492 46.416C159.492 49.848 156.576 50.196 155.34 50.328L155.7 51.372ZM154.836 42.768C154.716 44.148 154.524 46.584 153.516 48.312C153.204 48.84 152.844 49.284 152.34 49.284C151.488 49.284 151.188 47.904 151.188 47.088C151.188 45.696 151.74 44.352 152.856 43.536C153.468 43.08 154.128 42.9 154.836 42.768ZM168.066 43.74C168.282 43.392 168.522 42.996 168.87 42.276H173.382V41.292H162.294V42.276H167.802C166.89 44.22 165.114 46.284 162.162 47.64L162.762 48.588C163.614 48.156 165.426 47.184 167.286 44.832V52.008H168.33V43.74H168.066ZM173.55 47.688C171.726 46.572 170.502 45.312 169.482 44.04L168.75 44.616C170.214 46.464 171.006 47.268 172.83 48.588L173.55 47.688ZM185.268 51.072C184.572 50.664 183.396 49.992 181.872 49.356C182.34 48.876 183.132 47.976 183.708 46.14H185.832V45.192H179.328C179.76 44.316 179.916 43.92 180.048 43.596L178.944 43.392C178.8 43.812 178.596 44.376 178.176 45.192H174.768V46.14H177.66C177 47.28 176.412 47.976 176.052 48.396C177.924 48.912 178.992 49.272 179.964 49.656C178.464 50.484 176.664 50.784 175.056 50.928L175.404 51.984C178.524 51.66 180.372 50.568 181.032 50.088C183 50.94 184.068 51.648 184.608 52.008L185.268 51.072ZM182.652 46.14C182.52 46.536 182.064 47.916 180.912 48.972C179.712 48.516 178.512 48.168 177.648 47.916C177.888 47.604 178.236 47.148 178.812 46.14H182.652ZM175.056 41.952V44.568H176.076V42.876H184.536V44.568H185.556V41.952H180.792V40.872H179.76V41.952H175.056ZM192.75 45.204C192.078 45.204 191.514 45.744 191.514 46.44C191.514 47.112 192.054 47.676 192.75 47.676C193.446 47.676 193.986 47.1 193.986 46.44C193.986 45.768 193.434 45.204 192.75 45.204ZM200.232 46.824C200.496 45.84 200.604 44.28 200.616 43.452L199.848 43.38C199.848 43.98 199.776 45.36 199.44 46.44L200.232 46.824ZM201.108 40.872V52.008H202.08V40.872H201.108ZM203.544 44.88C203.484 44.676 203.22 43.752 202.92 43.068L202.2 43.356C202.452 43.98 202.644 44.688 202.74 45.192L203.544 44.88ZM210.396 45.096H209.448V50.892H204.36V45.096H203.412V51.756H210.396V45.096ZM207.864 44.748C207.588 45.66 207.336 46.152 207.024 46.74C206.424 46.128 206.064 45.792 205.524 45.384L204.9 45.996C205.62 46.584 206.016 46.98 206.544 47.532C206.004 48.336 205.536 48.924 204.684 49.608L205.344 50.292C206.4 49.38 206.82 48.804 207.192 48.264C207.564 48.684 207.852 49.044 208.38 49.836L209.088 49.2C208.752 48.684 208.452 48.264 207.708 47.46C208.056 46.848 208.368 46.26 208.716 45.12L207.864 44.748ZM207.528 43.344C207.24 42.228 206.712 41.184 206.568 40.896L205.68 41.148C205.752 41.292 206.364 42.564 206.604 43.632L207.528 43.344ZM209.292 44.4C209.88 43.584 210.468 42.372 210.744 41.484L209.844 41.088C209.7 41.508 209.268 42.816 208.464 43.98L209.292 44.4ZM205.272 43.812C204.972 43.02 204.456 42.084 203.952 41.4L203.124 41.748C203.652 42.504 204.108 43.44 204.384 44.148L205.272 43.812ZM217.854 51.588C220.41 50.676 221.022 48.672 221.31 47.496C221.91 47.76 222.114 47.868 222.654 48.192L223.014 47.112C222.27 46.704 221.574 46.44 221.538 46.428C221.718 45.468 221.814 44.424 221.898 43.56L220.758 43.476C220.734 44.028 220.674 44.88 220.494 46.056C219.402 45.696 218.61 45.504 217.602 45.42C217.998 43.056 218.034 42.792 218.19 41.592H213.222V42.636L216.978 42.6C216.906 43.452 216.75 44.52 216.582 45.384C212.658 45.54 212.442 48.12 212.442 48.708C212.442 49.992 213.282 50.76 214.434 50.76C216.246 50.76 216.774 49.044 217.422 46.368C218.502 46.464 219.522 46.776 220.302 47.076C219.882 48.816 219.258 50.016 217.194 50.76L217.854 51.588ZM216.402 46.308C215.766 48.912 215.442 49.812 214.362 49.812C213.45 49.812 213.39 48.876 213.39 48.648C213.39 47.832 213.882 47.052 214.662 46.668C215.19 46.404 215.694 46.332 216.402 46.308ZM230.1 45.204C229.428 45.204 228.864 45.744 228.864 46.44C228.864 47.112 229.404 47.676 230.1 47.676C230.796 47.676 231.336 47.1 231.336 46.44C231.336 45.768 230.784 45.204 230.1 45.204ZM236.97 41.904V42.84H239.646V44.064H240.618V42.84H244.458V44.064H245.418V42.84H248.13V41.904H245.418V40.86H244.458V41.904H240.618V40.86H239.646V41.904H236.97ZM248.13 44.832H243.018V43.512H242.022V44.832H236.97V45.756H242.022V47.304H238.182V51.78H246.894V47.304H243.018V45.756H248.13V44.832ZM245.898 50.904H239.178V48.192H245.898V50.904ZM257.34 45.756C257.256 45.696 257.148 45.612 257.076 45.564C257.352 45.432 258.588 44.856 259.668 43.98V43.344H252.756V44.064H258.048C257.4 44.544 257.064 44.736 256.344 45.096C256.164 44.976 255.516 44.592 254.856 44.292L254.28 44.94C255.072 45.264 255.516 45.492 255.876 45.756H252.972V52.02H253.908V50.028H256.02V51.984H256.944V50.028H259.188V50.784C259.188 51 259.08 51.036 258.912 51.036H257.916L258.096 52.02H259.284C260.112 52.02 260.112 51.42 260.112 51.06V45.756H257.34ZM256.02 47.496H253.908V46.524H256.02V47.496ZM256.02 49.272H253.908V48.24H256.02V49.272ZM259.188 47.496H256.944V46.524H259.188V47.496ZM259.188 49.272H256.944V48.24H259.188V49.272ZM251.292 46.044C251.292 46.32 251.28 46.488 251.268 46.656C251.16 46.728 250.284 47.208 249.336 47.568L249.576 48.552C249.996 48.336 250.404 48.132 251.196 47.652C250.98 49.452 250.632 50.388 249.78 51.384L250.572 52.056C251.112 51.408 252.228 50.076 252.228 45.852V42.672H260.52V41.82H256.128V40.848H255.12V41.82H251.292V46.044ZM251.016 44.916C250.86 44.292 250.536 43.404 250.188 42.756L249.396 43.188C249.672 43.728 250.02 44.64 250.188 45.324L251.016 44.916ZM266.622 42.468C266.79 41.868 266.85 41.592 266.922 41.172L265.77 41.124C265.686 41.808 265.602 42.156 265.518 42.468H262.758V43.428H265.23C264.462 45.672 263.502 46.944 262.446 47.94L263.19 48.744C263.574 48.348 264.366 47.292 264.918 46.536C265.758 45.684 266.634 45.312 267.294 45.312C267.846 45.312 268.182 45.552 268.314 46.26C267.126 46.788 264.978 47.868 264.978 49.5C264.978 51.432 267.69 51.432 269.046 51.432C270.186 51.432 271.23 51.36 271.914 51.312L271.878 50.28C270.798 50.4 269.67 50.448 268.71 50.448C267.39 50.448 266.058 50.448 266.058 49.392C266.058 48.408 267.51 47.64 268.434 47.208C268.458 47.52 268.458 47.724 268.458 47.928C268.458 48.36 268.422 48.804 268.398 49.08H269.442C269.478 48.696 269.478 48.336 269.478 48.168C269.478 47.736 269.466 47.22 269.43 46.8C270.75 46.296 271.602 46.032 272.574 45.756L272.286 44.712C271.206 45.084 269.562 45.744 269.286 45.852C269.046 44.712 268.278 44.448 267.462 44.448C266.862 44.448 266.382 44.652 265.542 45.156C265.89 44.556 266.058 44.16 266.334 43.428H271.626V42.468H266.622ZM277.584 42.132C278.292 42.012 278.676 41.916 279.324 41.748L278.964 40.872C277.404 41.292 276.072 41.472 274.32 41.52L274.524 42.42C275.496 42.384 275.988 42.336 276.612 42.264V44.028H274.296V44.916H276.492C276.12 45.768 275.376 47.328 274.14 48.54L274.572 49.68C275.688 48.468 276.288 47.34 276.612 46.62V52.008H277.584V46.392C278.028 47.208 278.484 47.844 279.048 48.396L279.54 47.448C278.556 46.608 277.896 45.552 277.584 44.952V44.916H279.516V44.028H277.584V42.132ZM285.06 41.64H279.948V51.684H285.06V41.64ZM284.076 50.748H280.908V42.552H284.076V50.748ZM295.35 42.024C293.514 41.424 291.462 41.316 290.43 41.268L290.238 42.3C291.858 42.36 293.622 42.588 295.05 43.164L295.35 42.024ZM288.774 42.984C288.618 43.608 288.51 44.268 288.462 45.384C288.45 45.744 288.414 47.544 288.414 47.952L289.482 47.988C289.494 47.928 289.506 47.892 289.542 47.772C290.334 46.728 291.942 46.044 293.55 46.044C295.134 46.044 295.77 46.908 295.77 47.844C295.77 48.336 295.638 48.9 295.302 49.26C294.582 50.052 293.142 50.376 291.486 50.376C290.682 50.376 289.95 50.304 289.146 50.16L289.266 51.216C289.758 51.288 290.466 51.384 291.57 51.384C294.138 51.384 296.91 50.736 296.91 47.856C296.91 46.86 296.394 45.072 293.61 45.072C292.05 45.072 290.706 45.576 289.482 46.548C289.482 44.784 289.578 44.088 289.854 43.176L288.774 42.984ZM303.708 51.6C306.252 51.108 307.728 50.232 307.728 46.368C307.728 46.164 307.704 45.348 307.692 45.024H309.828V44.016H307.632C307.608 43.644 307.512 41.904 307.476 41.436L306.444 41.46C306.48 42.096 306.54 43.476 306.564 44.016H302.52V45.024H306.6C306.612 45.396 306.624 45.96 306.624 46.212C306.624 49.488 305.616 50.184 303.312 50.628L303.708 51.6ZM307.668 40.944C308.052 41.82 308.256 42.552 308.4 43.428L309.264 43.116C309.036 42.156 308.892 41.58 308.472 40.668L307.668 40.944ZM309.3 40.632C309.684 41.508 309.852 42.096 310.032 43.104L310.896 42.792C310.62 41.652 310.524 41.256 310.104 40.344L309.3 40.632ZM300.444 41.46C300.204 43.248 300.084 45.048 300.084 46.848C300.084 48.336 300.144 49.836 300.456 51.3L301.572 51.156C301.248 49.644 301.164 48.132 301.164 46.74C301.164 44.244 301.44 42.468 301.596 41.532L300.444 41.46ZM318.09 42.636V41.376H317.034V42.636H312.474V43.56H317.034V45.048H312.654V45.96H317.034V47.376C316.782 47.328 316.374 47.256 315.834 47.256C314.046 47.256 312.81 48.168 312.81 49.428C312.81 50.196 313.314 51.444 315.654 51.444C316.662 51.444 318.09 51.12 318.09 49.404V48.72C318.75 49.02 319.806 49.572 320.97 50.856L321.678 49.824C320.418 48.768 319.362 48.108 318.09 47.64V45.96H321.69V45.048H318.09V43.56H321.918V42.636H318.09ZM317.034 49.188C317.034 50.136 316.566 50.508 315.522 50.508C313.938 50.508 313.818 49.62 313.818 49.392C313.818 48.6 314.718 48.144 315.834 48.144C316.446 48.144 316.794 48.24 317.034 48.312V49.188ZM331.584 42.6V41.256H330.48L330.504 42.6H324.6V43.596H330.516L330.528 44.892C330.276 44.676 329.988 44.412 329.184 44.412C327.696 44.412 326.7 45.444 326.7 46.848C326.7 48.012 327.444 49.2 328.932 49.2C330.312 49.2 330.708 48.3 330.828 48.048C330.672 49.476 329.784 50.58 326.58 50.544L326.916 51.552C329.004 51.468 331.812 50.892 331.812 47.724C331.812 47.412 331.788 47.1 331.74 46.8C331.704 46.512 331.644 46.236 331.584 46.008V43.596H334.728V42.6H331.584ZM330.552 46.932C330.552 47.724 329.928 48.324 329.076 48.324C327.96 48.324 327.708 47.304 327.708 46.8C327.708 45.696 328.548 45.312 329.208 45.312C330.264 45.312 330.456 46.02 330.552 46.404V46.932ZM338.802 48.036C337.818 48.036 337.014 48.828 337.014 49.824C337.014 50.808 337.806 51.612 338.802 51.612C339.786 51.612 340.59 50.808 340.59 49.824C340.59 48.816 339.774 48.036 338.802 48.036ZM338.802 48.636C339.438 48.636 339.978 49.152 339.978 49.824C339.978 50.472 339.45 51 338.802 51C338.142 51 337.614 50.472 337.614 49.824C337.614 49.164 338.154 48.636 338.802 48.636Z" fill="black"/>
</svg>
