<svg width="350" height="80" viewBox="0 0 350 80" fill="none" xmlns="http://www.w3.org/2000/svg">
<path d="M2.496 2.185V7.203C1.313 7.736 1.131 7.827 0.273 8.113L0.572 9.179C0.897 9.036 1.599 8.711 2.405 8.23C2.054 10.739 1.001 11.87 0.559 12.338L1.443 13.066C2.041 12.351 3.536 10.609 3.536 6.644V3.16H12.558V2.185H7.722V1.041H6.656V2.185H2.496ZM2.106 5.344C1.911 4.525 1.69 3.875 1.222 3.043L0.351 3.485C0.546 3.836 0.91 4.486 1.17 5.812L2.106 5.344ZM12.272 4.525H4.043V5.474H7.696V11.805H5.863V6.709H4.784V11.805H3.094V12.78H12.493V11.805H8.749V8.828H11.856V7.879H8.749V5.474H12.272V4.525ZM26.139 12C25.333 11.493 23.084 10.063 22.265 5.578H25.983V4.538H22.213V1.041H21.095V4.538H17.858V5.578H21.056C21.004 6.267 20.861 6.956 20.679 7.632C20.107 9.777 19.145 11.077 17.546 12.104L18.157 13.079C20.458 11.454 21.316 9.478 21.797 7.736C22.434 9.608 23.344 11.649 25.515 13.027L26.139 12ZM16.22 1.041V7.671C15.245 8.386 14.114 9.01 13.737 9.218L14.062 10.375C14.595 10.115 15.739 9.4 16.22 8.984V13.079H17.299V1.041H16.22ZM15.83 5.279C15.596 4.395 15.193 3.459 14.764 2.692L13.828 3.108C14.335 4.07 14.556 4.616 14.855 5.695L15.83 5.279ZM25.359 3.407C25.151 3.069 24.631 2.185 23.734 1.249L22.915 1.795C23.552 2.471 24.176 3.446 24.462 3.953L25.359 3.407ZM31.998 13.144C32.843 12.884 34.832 12.195 35.716 9.92C36.054 10.752 37.029 12.364 39.187 13.105L39.707 12.13C38.784 11.831 37.315 11.272 36.509 9.439H39.057V5.838H36.132V4.642H37.952V4.161C38.316 4.434 38.641 4.642 39.174 4.954L39.746 4.018C37.536 2.9 36.756 1.86 36.249 1.002H34.975C33.974 2.445 33.064 3.251 31.556 4.031L32.076 4.967C32.414 4.798 32.778 4.603 33.363 4.174V4.642H35.105V5.838H32.18V9.439H34.819C34.247 11.454 32.063 12.039 31.465 12.195L31.998 13.144ZM36.132 6.735H38.056V8.542H36.054C36.106 8.191 36.132 7.853 36.132 7.034V6.735ZM35.105 7.06C35.105 7.814 35.079 8.191 35.027 8.542H33.207V6.735H35.105V7.06ZM33.87 3.745C34.624 3.056 35.3 2.185 35.612 1.795C35.924 2.198 36.6 3.069 37.419 3.745H33.87ZM31.959 7.593C30.958 6.514 30.49 5.5 30.308 5.032V4.538H31.439V3.55H30.308V1.028H29.281V3.55H27.461V4.538H29.203C28.527 7.294 27.721 8.334 27.24 8.958L27.695 10.245C28.436 9.231 28.956 8.074 29.281 6.852V13.092H30.308V6.592C30.62 7.372 30.919 7.853 31.426 8.568L31.959 7.593ZM48.465 5.253C48.114 5.656 47.607 6.267 46.216 7.528C46.073 7.411 45.826 7.216 45.189 6.8C45.241 6.748 46.164 5.955 46.84 5.058H51.689V6.592H52.768V4.122H47.503V3.017H52.768V2.055H47.503V1.054H46.437V2.055H41.224V3.017H46.437V4.122H41.172V6.592H42.238V5.058H45.462C45.228 5.383 45.02 5.669 44.37 6.28C43.902 5.981 43.759 5.916 43.512 5.786L42.849 6.579C44.227 7.242 45.254 7.996 45.488 8.191C45.371 8.295 45.28 8.373 45.033 8.568C44.448 8.581 41.614 8.607 40.977 8.594L41.055 9.595C41.822 9.595 45.592 9.517 46.437 9.504V13.066H47.516V9.452L51.221 9.257C51.689 9.712 51.897 9.972 52.105 10.245L52.846 9.504C52.482 9.075 51.637 8.061 49.882 6.787L49.128 7.463C49.44 7.684 49.648 7.827 50.337 8.425C47.698 8.516 47.399 8.529 46.502 8.568C48.166 7.112 48.699 6.631 49.388 5.851L48.465 5.253ZM41.575 12.936C42.264 12.598 43.746 11.844 44.942 10.44L44.097 9.855C42.953 11.168 41.276 11.909 40.899 12.078L41.575 12.936ZM48.816 10.388C49.427 11.025 50.402 11.974 52.404 12.871L53.067 11.948C51.559 11.376 50.584 10.765 49.57 9.764L48.816 10.388ZM61.058 3.719H65.153V2.588H55.754V3.719H59.823V10.401H55.052V11.558H65.855V10.401H61.058V3.719ZM73.534 4.174C73.196 3.966 71.766 3.043 69.465 2.354L68.88 3.394C70.752 3.979 72.117 4.746 72.884 5.266L73.534 4.174ZM69.387 12.208C76.875 11.714 78.955 5.643 79.579 3.797L78.565 3.043C77.668 5.955 75.731 10.557 69.153 10.908L69.387 12.208ZM87.557 3.329C86.53 2.835 85.256 2.25 83.748 1.912L83.28 2.9C84.619 3.277 85.867 3.745 87.063 4.408L87.557 3.329ZM86.491 6.371C85.49 5.786 83.93 5.188 82.734 4.902L82.279 5.929C84.151 6.475 85.334 7.086 86.01 7.476L86.491 6.371ZM89.65 1.197C90.248 2.224 90.43 2.666 90.781 3.745L91.691 3.29C91.262 2.146 91.015 1.548 90.495 0.768L89.65 1.197ZM91.821 1.067C92.38 2.055 92.588 2.601 92.913 3.641L93.836 3.199C93.446 2.029 93.095 1.327 92.679 0.663999L91.821 1.067ZM83.241 12.286C88.545 11.597 91.067 9.595 92.757 4.772L91.743 4.031C90.313 8.542 88.129 10.505 82.955 11.012L83.241 12.286ZM100.514 4.174C100.176 3.966 98.746 3.043 96.445 2.354L95.86 3.394C97.732 3.979 99.097 4.746 99.864 5.266L100.514 4.174ZM96.367 12.208C103.855 11.714 105.935 5.643 106.559 3.797L105.545 3.043C104.648 5.955 102.711 10.557 96.133 10.908L96.367 12.208ZM118.099 13.053V1.912H120.595V0.871999H117.059V13.053H118.099ZM130.094 10.271C130.861 7.034 131.121 3.758 131.212 2.744H124.023V3.901H129.886C129.808 4.837 129.561 7.58 128.846 10.271H122.372V11.428H133.383V10.271H130.094ZM138.215 1.925H137.019V10.154C137.019 11.805 137.825 12.13 139.762 12.13H143.402C144.221 12.13 145.456 12.091 146.249 11.961L146.184 10.791C145.352 10.947 144.312 10.999 143.272 10.999H139.931C138.449 10.999 138.215 10.895 138.215 9.959V7.086C139.58 6.8 141.959 6.202 144.806 4.902L144.273 3.81C142.323 4.811 140.529 5.422 138.215 5.955V1.925ZM143.87 1.535C144.455 2.432 144.754 3.004 145.144 4.031L146.028 3.511C145.612 2.549 145.287 1.886 144.702 1.067L143.87 1.535ZM145.859 0.923999C146.509 1.912 146.73 2.38 147.12 3.42L148.004 2.913C147.627 1.99 147.263 1.236 146.691 0.455999L145.859 0.923999ZM149.3 6.436V7.671H160.48V6.436H149.3ZM164.701 1.067V12.208H162.205V13.248H165.741V1.067H164.701ZM184.73 3.849L184.704 1.652H183.521L183.56 3.849H179.66V4.967H183.586L183.638 8.035C183.274 7.931 182.949 7.84 182.299 7.84C180.648 7.84 179.452 8.763 179.452 10.115C179.452 11.168 180.206 12.351 182.234 12.351C184.717 12.351 184.73 10.882 184.73 10.141V9.66C185.445 10.115 186.095 10.661 186.615 11.35L187.382 10.297C186.784 9.66 185.822 8.919 184.769 8.399L184.73 4.967H187.161V3.849H184.73ZM183.638 9.907C183.638 10.609 183.586 11.376 182.169 11.376C181.48 11.376 180.492 11.129 180.492 10.128C180.492 9.153 181.441 8.815 182.312 8.815C182.975 8.815 183.339 8.971 183.638 9.101V9.907ZM177.177 1.626C176.826 3.654 176.696 5.539 176.696 7.593C176.696 9.192 176.748 10.804 177.06 12.377L178.23 12.221C177.892 10.739 177.827 9.205 177.827 7.684C177.827 4.772 178.139 3.017 178.386 1.717L177.177 1.626ZM199.039 13.053V1.912H201.535V0.871999H197.999V13.053H199.039ZM209.851 1.028V1.847H205.964V2.731H207.862C207.901 2.835 208.135 3.706 208.187 3.914H206.393V11.103H207.381V4.759H209.903V5.734H207.784V6.54H209.903V7.437H208.252V10.128H212.516V7.437H210.852V6.54H212.958V5.734H210.852V4.759H213.361V9.972C213.361 10.271 213.244 10.297 213.075 10.297L211.866 10.284L212.009 11.272H213.387C214.063 11.272 214.349 10.895 214.349 10.271V3.914H212.451C212.633 3.472 212.737 3.173 212.867 2.731H214.83V1.847H210.904V1.028H209.851ZM209.123 3.914C209.006 3.407 208.993 3.342 208.837 2.731H211.918C211.879 2.9 211.684 3.576 211.541 3.914H209.123ZM211.619 9.335H209.136V8.217H211.619V9.335ZM208.304 11.779C207.927 11.779 205.561 11.597 205.301 10.011V6.072H202.87V7.138H204.274V10.804C203.702 11.415 202.961 11.896 202.727 12.039L203.247 13.144C204.17 12.338 204.235 12.26 205.067 11.311C205.353 11.688 206.159 12.78 208.291 12.78H214.791L214.999 11.779H208.304ZM205.769 3.368C205.145 2.497 204.391 1.73 203.78 1.21L203.065 1.86C204.235 3.004 204.69 3.706 204.924 4.057L205.769 3.368ZM217.491 4.668L216.152 4.889L216.217 5.942L217.491 5.734V9.894C217.491 10.518 217.816 10.843 218.427 10.843H219.948C221.014 10.843 221.261 9.816 221.469 8.113L220.416 7.866C220.39 8.36 220.299 9.842 219.74 9.842H218.934C218.609 9.842 218.544 9.751 218.544 9.465V5.565L221.404 5.097L221.339 4.031L218.544 4.486V1.041H217.491V4.668ZM221.04 1.6V2.653H223.367C223.367 7.216 222.951 10.141 219.155 12.169L219.909 13.105C223.51 10.908 224.407 8.334 224.459 2.653H226.916C226.916 4.135 226.916 10.505 226.227 11.623C226.006 11.987 225.577 11.974 225.447 11.974L223.51 11.961L223.744 13.066H225.629C226.786 13.066 227.137 12.468 227.293 12.143C228.008 10.609 228.008 4.772 228.008 1.6H221.04ZM238.807 5.162H237.637L237.715 7.944C237.429 7.879 237.013 7.788 236.363 7.788C234.062 7.788 233.308 9.231 233.308 10.206C233.308 11.415 234.27 12.494 236.22 12.494C237.507 12.494 238.82 12.026 238.82 10.102V9.569C239.288 9.842 240.081 10.323 240.926 11.337L241.641 10.31C241.004 9.608 239.964 8.802 238.872 8.321L238.807 5.162ZM237.741 9.894C237.741 10.778 237.546 11.48 236.259 11.48C236.012 11.48 234.413 11.48 234.413 10.167C234.413 9.439 235.037 8.776 236.363 8.776C237.052 8.776 237.442 8.919 237.741 9.023V9.894ZM233.88 3.16C234.049 2.211 234.062 2.133 234.166 1.509L232.931 1.457C232.879 1.977 232.84 2.263 232.697 3.16H230.292V4.252H232.489C232.151 5.708 231.579 8.256 230.188 10.492L231.384 11.012C231.852 10.05 232.918 7.879 233.659 4.252H236.61V3.16H233.88ZM241.42 4.174C240.042 3.407 239.171 3.017 237.871 2.562L237.416 3.524C238.586 3.953 239.561 4.421 240.874 5.214L241.42 4.174ZM244.757 7.021C245.667 6.449 246.031 6.085 246.408 5.708C248.319 6.67 249.463 7.476 250.542 8.399C249.06 10.024 247.045 10.986 244.913 11.493L245.472 12.572C253.272 10.544 253.948 4.33 254.182 2.211H247.461C246.681 3.94 245.537 5.149 243.99 6.111L244.757 7.021ZM252.843 3.29C252.544 5.305 251.946 6.501 251.257 7.515C249.97 6.41 248.475 5.604 247.123 4.928C247.474 4.499 247.708 4.2 248.241 3.29H252.843ZM264.201 5.578C266.021 4.122 267.1 2.861 267.672 2.185L266.58 1.47C264.162 4.512 260.964 6.865 257.259 8.022L257.831 9.101C259.495 8.516 261.185 7.736 262.953 6.501V12.559H264.201V5.578ZM280.681 2.913C277.652 2.224 275.312 1.938 272.179 1.756L271.984 2.835C275.208 3.004 277.743 3.381 280.46 4.109L280.681 2.913ZM280.005 6.852C277.847 6.202 275.78 5.76 272.114 5.487L271.893 6.566C275.143 6.813 277.249 7.177 279.797 7.983L280.005 6.852ZM281.214 11.259C279.784 10.843 276.508 9.881 271.347 9.621L271.113 10.726C275.741 11.077 278.12 11.597 280.889 12.494L281.214 11.259ZM289.374 4.174C289.036 3.966 287.606 3.043 285.305 2.354L284.72 3.394C286.592 3.979 287.957 4.746 288.724 5.266L289.374 4.174ZM285.227 12.208C292.715 11.714 294.795 5.643 295.419 3.797L294.405 3.043C293.508 5.955 291.571 10.557 284.993 10.908L285.227 12.208ZM298.704 12.676C303.332 11.636 306.049 9.062 307.128 4.109L305.919 2.51H300.719C299.809 4.33 298.483 5.448 297.469 6.137L298.21 7.021C299.679 6.033 300.641 4.967 301.499 3.602H306.01C305.269 7.515 303.254 10.57 298.21 11.571L298.704 12.676ZM307.674 0.95C308.35 1.873 308.61 2.393 309.052 3.394L309.884 2.848C309.338 1.756 309.117 1.301 308.454 0.455999L307.674 0.95ZM305.945 1.457C306.582 2.302 306.907 2.861 307.362 3.875L308.181 3.316C307.635 2.237 307.375 1.769 306.712 0.95L305.945 1.457ZM318.577 5.5C319.188 6.358 319.513 6.969 319.942 8.009L320.852 7.437C320.397 6.449 320.02 5.747 319.422 4.98L318.577 5.5ZM320.501 4.668C321.125 5.565 321.424 6.124 321.866 7.177L322.776 6.605C322.308 5.591 321.97 4.954 321.346 4.148L320.501 4.668ZM322.087 2.224C319.11 2.237 317.888 2.263 314.807 2.432C314.144 2.471 311.895 2.575 311.258 2.588L311.362 3.862C312.779 3.693 317.277 3.42 317.654 3.407C316.12 4.304 313.845 6.007 313.845 8.477C313.845 12.117 318.161 12.299 320.722 12.403L320.956 11.142C319.799 11.181 318.512 11.077 317.68 10.908C316.302 10.622 315.054 10.089 315.054 8.399C315.054 6.163 317.602 4.148 319.474 3.524C319.864 3.394 320.15 3.368 320.787 3.368C321.151 3.368 321.554 3.381 322.113 3.42L322.087 2.224ZM330.585 12.403C332.028 12.26 333.328 11.818 334.173 11.116C335.356 10.128 335.915 8.594 335.915 7.047C335.915 4.85 334.784 1.938 330.572 1.938C327.14 1.938 324.566 4.2 324.566 7.736C324.566 9.881 325.632 11.389 326.906 11.389C327.491 11.389 328.323 11.09 329.09 9.881C330.429 7.736 330.689 4.538 330.806 3.03C334.381 3.147 334.693 6.007 334.693 7.034C334.693 10.752 331.534 11.129 330.195 11.272L330.585 12.403ZM329.649 3.082C329.519 4.577 329.311 7.216 328.219 9.088C327.881 9.66 327.491 10.141 326.945 10.141C326.022 10.141 325.697 8.646 325.697 7.762C325.697 6.254 326.295 4.798 327.504 3.914C328.167 3.42 328.882 3.225 329.649 3.082ZM344.751 1.028V1.847H340.864V2.731H342.762C342.801 2.835 343.035 3.706 343.087 3.914H341.293V11.103H342.281V4.759H344.803V5.734H342.684V6.54H344.803V7.437H343.152V10.128H347.416V7.437H345.752V6.54H347.858V5.734H345.752V4.759H348.261V9.972C348.261 10.271 348.144 10.297 347.975 10.297L346.766 10.284L346.909 11.272H348.287C348.963 11.272 349.249 10.895 349.249 10.271V3.914H347.351C347.533 3.472 347.637 3.173 347.767 2.731H349.73V1.847H345.804V1.028H344.751ZM344.023 3.914C343.906 3.407 343.893 3.342 343.737 2.731H346.818C346.779 2.9 346.584 3.576 346.441 3.914H344.023ZM346.519 9.335H344.036V8.217H346.519V9.335ZM343.204 11.779C342.827 11.779 340.461 11.597 340.201 10.011V6.072H337.77V7.138H339.174V10.804C338.602 11.415 337.861 11.896 337.627 12.039L338.147 13.144C339.07 12.338 339.135 12.26 339.967 11.311C340.253 11.688 341.059 12.78 343.191 12.78H349.691L349.899 11.779H343.204ZM340.669 3.368C340.045 2.497 339.291 1.73 338.68 1.21L337.965 1.86C339.135 3.004 339.59 3.706 339.824 4.057L340.669 3.368ZM1.651 26.668L0.312 26.889L0.377 27.942L1.651 27.734V31.894C1.651 32.518 1.976 32.843 2.587 32.843H4.108C5.174 32.843 5.421 31.816 5.629 30.113L4.576 29.866C4.55 30.36 4.459 31.842 3.9 31.842H3.094C2.769 31.842 2.704 31.751 2.704 31.465V27.565L5.564 27.097L5.499 26.031L2.704 26.486V23.041H1.651V26.668ZM5.2 23.6V24.653H7.527C7.527 29.216 7.111 32.141 3.315 34.169L4.069 35.105C7.67 32.908 8.567 30.334 8.619 24.653H11.076C11.076 26.135 11.076 32.505 10.387 33.623C10.166 33.987 9.737 33.974 9.607 33.974L7.67 33.961L7.904 35.066H9.789C10.946 35.066 11.297 34.468 11.453 34.143C12.168 32.609 12.168 26.772 12.168 23.6H5.2ZM22.967 27.162H21.797L21.875 29.944C21.589 29.879 21.173 29.788 20.523 29.788C18.222 29.788 17.468 31.231 17.468 32.206C17.468 33.415 18.43 34.494 20.38 34.494C21.667 34.494 22.98 34.026 22.98 32.102V31.569C23.448 31.842 24.241 32.323 25.086 33.337L25.801 32.31C25.164 31.608 24.124 30.802 23.032 30.321L22.967 27.162ZM21.901 31.894C21.901 32.778 21.706 33.48 20.419 33.48C20.172 33.48 18.573 33.48 18.573 32.167C18.573 31.439 19.197 30.776 20.523 30.776C21.212 30.776 21.602 30.919 21.901 31.023V31.894ZM18.04 25.16C18.209 24.211 18.222 24.133 18.326 23.509L17.091 23.457C17.039 23.977 17 24.263 16.857 25.16H14.452V26.252H16.649C16.311 27.708 15.739 30.256 14.348 32.492L15.544 33.012C16.012 32.05 17.078 29.879 17.819 26.252H20.77V25.16H18.04ZM25.58 26.174C24.202 25.407 23.331 25.017 22.031 24.562L21.576 25.524C22.746 25.953 23.721 26.421 25.034 27.214L25.58 26.174ZM34.468 28.8C34.559 28.241 34.598 27.812 34.598 27.058H38.173V26.109H32.245C32.427 25.758 32.531 25.537 32.739 25.017L31.699 24.796C31.296 26.057 30.529 27.006 29.606 27.747L30.425 28.449C30.932 27.994 31.231 27.669 31.673 27.058H33.584C33.584 27.994 33.519 28.397 33.454 28.8H29.671V29.762H33.142C32.219 31.673 30.152 32.18 29.502 32.336L30.126 33.285C31.608 32.791 33.272 31.946 34.13 29.97C34.455 30.711 35.495 32.362 38.433 33.272L39.005 32.271C36.899 31.803 35.521 30.594 35.079 29.762H38.719V28.8H34.468ZM27.89 23.457V34.819H39.434V33.831H28.995V24.458H39.161V23.457H27.89ZM51.624 29.346C52.027 29.593 52.274 29.71 52.625 29.879L53.119 29.008C52.755 28.878 52.404 28.748 51.819 28.423C51.845 28.384 52.3 27.942 52.703 27.422L51.975 26.98C51.832 27.175 51.52 27.565 51.143 27.968C50.519 27.487 50.194 27.058 49.934 26.733H52.963V25.914H48.231C48.322 25.732 48.374 25.602 48.504 25.277L47.477 25.16C47.373 25.459 47.308 25.628 47.178 25.914H44.058V26.733H46.684C46.32 27.214 45.995 27.552 45.592 27.877C45.475 27.747 45.111 27.344 44.695 27.032L44.097 27.578C44.461 27.864 44.5 27.903 44.929 28.358C44.487 28.657 44.149 28.826 43.694 29.047L44.266 29.827C44.552 29.658 44.643 29.606 44.916 29.437V32.141H47.711V33.818C47.711 34.078 47.672 34.13 47.412 34.13H46.177L46.398 35.066H47.802C48.205 35.066 48.764 35.04 48.764 34.234V32.141H51.624V29.346ZM50.675 29.853H45.865V29.073H50.675V29.853ZM46.398 28.319C47.243 27.552 47.607 26.98 47.763 26.733H48.868C49.154 27.149 49.479 27.643 50.233 28.319H46.398ZM50.675 31.387H45.865V30.568H50.675V31.387ZM42.615 28.488C42.615 28.852 42.602 29.099 42.602 29.307C41.952 29.632 41.653 29.775 40.756 30.126L40.977 31.192C41.367 30.997 41.861 30.75 42.511 30.321C42.225 32.739 41.51 33.675 40.925 34.403L41.718 35.105C42.238 34.481 43.642 32.804 43.642 28.527V24.991H53.002V24.081H48.166V23.028H47.1V24.081H42.615V28.488ZM42.342 27.37C42.212 26.707 41.939 25.797 41.562 25.056L40.756 25.446C41.055 26.187 41.289 27.019 41.432 27.799L42.342 27.37ZM43.72 34.871C44.591 34.546 45.397 34.117 46.502 33.038L45.748 32.414C44.825 33.298 44.188 33.649 43.148 34L43.72 34.871ZM49.817 33.051C50.519 33.844 51.624 34.533 52.625 34.884L53.197 34C51.988 33.571 51.442 33.259 50.506 32.362L49.817 33.051ZM64.776 26.538C62.761 26.863 61.695 27.071 60.291 27.5C60.018 26.941 59.953 26.252 59.953 24.874C59.953 24.237 59.966 23.873 59.979 23.522H58.705C58.744 26.291 58.77 27.045 59.199 27.89C58.289 28.28 55.611 29.398 55.611 31.621C55.611 34.39 59.212 34.39 61.461 34.39C63.333 34.39 64.477 34.312 65.322 34.26L65.296 33.038C64.555 33.116 63.346 33.233 61.201 33.233C58.406 33.233 56.82 33.09 56.82 31.582C56.82 28.696 63.84 27.903 64.893 27.786L64.776 26.538ZM74.275 34.403C75.718 34.26 77.018 33.818 77.863 33.116C79.046 32.128 79.605 30.594 79.605 29.047C79.605 26.85 78.474 23.938 74.262 23.938C70.83 23.938 68.256 26.2 68.256 29.736C68.256 31.881 69.322 33.389 70.596 33.389C71.181 33.389 72.013 33.09 72.78 31.881C74.119 29.736 74.379 26.538 74.496 25.03C78.071 25.147 78.383 28.007 78.383 29.034C78.383 32.752 75.224 33.129 73.885 33.272L74.275 34.403ZM73.339 25.082C73.209 26.577 73.001 29.216 71.909 31.088C71.571 31.66 71.181 32.141 70.635 32.141C69.712 32.141 69.387 30.646 69.387 29.762C69.387 28.254 69.985 26.798 71.194 25.914C71.857 25.42 72.572 25.225 73.339 25.082ZM82.331 23.99V28.761H86.881V33.831H82.981V29.762H81.889V34.832H92.978V29.762H91.873V33.831H87.973V28.761H92.549V23.99H91.444V27.76H87.973V23.028H86.881V27.76H83.436V23.99H82.331ZM102.373 31.27C103.387 32.297 104.037 33.116 104.167 33.285C103.205 33.376 101.866 33.493 100.28 33.558C100.007 33.571 98.551 33.61 98.226 33.623C99.071 32.128 99.591 30.997 99.903 30.282H106.689V29.281H95.08V30.282H98.642C98.356 31.036 97.862 32.245 97.043 33.649H95.249L95.366 34.715C97.368 34.715 102.672 34.481 104.843 34.169C105.116 34.572 105.272 34.819 105.48 35.17L106.416 34.546C105.415 32.96 104.622 32.05 103.231 30.685L102.373 31.27ZM104.375 26.889C105.298 27.513 106.026 27.851 106.598 28.111L107.17 27.071C104.908 26.265 102.841 24.692 101.489 22.885H100.332C99.981 23.405 98.525 25.511 94.651 27.032L95.184 28.085C95.626 27.903 96.341 27.591 97.498 26.876V27.604H104.375V26.889ZM97.901 26.616C98.993 25.862 100.098 24.952 100.917 23.808C101.372 24.38 102.126 25.316 103.959 26.616H97.901ZM109.389 24.133C109.311 25.017 109.181 26.434 109.181 27.851C109.181 31.231 109.766 34.143 111.872 34.143C112.535 34.143 113.016 33.831 113.328 33.519C114.056 32.791 114.654 31.699 115.083 30.49L114.121 29.944C113.224 32.284 112.548 32.817 111.963 32.817C110.507 32.817 110.351 29.97 110.351 27.955C110.351 26.2 110.52 25.017 110.624 24.237L109.389 24.133ZM119.867 32.856C120.049 27.656 118.71 25.823 117.163 24.523L116.266 25.212C117.618 26.317 118.632 28.189 118.632 31.582C118.632 32.18 118.606 32.57 118.58 32.908L119.867 32.856ZM124.231 23.067V34.208H121.735V35.248H125.271V23.067H124.231ZM141.725 34.403C143.168 34.26 144.468 33.818 145.313 33.116C146.496 32.128 147.055 30.594 147.055 29.047C147.055 26.85 145.924 23.938 141.712 23.938C138.28 23.938 135.706 26.2 135.706 29.736C135.706 31.881 136.772 33.389 138.046 33.389C138.631 33.389 139.463 33.09 140.23 31.881C141.569 29.736 141.829 26.538 141.946 25.03C145.521 25.147 145.833 28.007 145.833 29.034C145.833 32.752 142.674 33.129 141.335 33.272L141.725 34.403ZM140.789 25.082C140.659 26.577 140.451 29.216 139.359 31.088C139.021 31.66 138.631 32.141 138.085 32.141C137.162 32.141 136.837 30.646 136.837 29.762C136.837 28.254 137.435 26.798 138.644 25.914C139.307 25.42 140.022 25.225 140.789 25.082ZM152.914 28.41C153.239 28.241 153.629 28.046 154.266 27.565V29.073H159.31V27.617C159.765 27.968 160.168 28.202 160.753 28.462L161.169 27.617C159.752 26.98 159.258 26.551 158.621 25.641H160.883V24.835H156.528C156.58 24.731 156.671 24.562 156.879 24.068C157.477 24.029 159.167 23.899 160.142 23.704L159.7 22.924C158.621 23.145 156.879 23.418 153.083 23.405L153.291 24.185C153.785 24.185 154.253 24.185 155.839 24.12C155.774 24.25 155.696 24.419 155.475 24.835H152.771V25.641H154.955C154.071 26.824 152.927 27.357 152.433 27.591L152.914 28.41ZM157.594 25.641C157.763 25.927 157.958 26.252 158.335 26.707H155.215C155.553 26.343 155.774 26.083 156.06 25.641H157.594ZM158.478 28.358H155.085V27.422H158.478V28.358ZM160.532 29.71H153.031V35.092H154.006V30.503H159.531V33.662C159.531 34.13 159.492 34.208 159.05 34.195L158.205 34.182L158.387 35.092H159.44C160.025 35.092 160.532 35.027 160.532 34.195V29.71ZM157.919 33.129H155.644V31.946H157.919V33.129ZM152.927 29.398C152.095 28.41 151.718 27.565 151.536 27.097V26.551H152.706V25.563H151.536V23.028H150.535V25.563H148.884V26.551H150.496C150.158 28.267 149.339 29.788 148.715 30.659L149.183 31.907C149.508 31.426 150.028 30.62 150.535 28.982V35.092H151.536V28.696C151.744 29.216 151.796 29.346 152.355 30.204L152.927 29.398ZM158.79 31.218H154.76V33.883H158.79V31.218ZM165.819 24.003V28.852C165.819 32.141 164.753 33.571 164.259 34.234L165.104 35.053C165.39 34.637 166.144 33.558 166.508 31.92C166.703 31.023 166.859 29.762 166.859 28.865V27.097H168.354V29.138H172.54V27.097H174.282V26.2H172.54V25.29H171.578V26.2H169.316V25.29H168.354V26.2H166.859V24.965H174.386V24.003H170.642V23.028H169.589V24.003H165.819ZM162.738 23.99C163.232 24.224 164.22 24.783 164.714 25.303L165.377 24.341C164.467 23.678 163.895 23.379 163.336 23.145L162.738 23.99ZM171.578 27.097V28.293H169.316V27.097H171.578ZM174.542 34.078C174.022 33.987 172.943 33.779 171.552 33.207C172.878 32.245 173.372 31.244 173.593 30.789V29.892H167.236V30.815H172.462C172.202 31.218 171.695 31.985 170.499 32.687C169.355 31.998 168.861 31.374 168.601 31.062L167.756 31.517C168.003 31.842 168.484 32.44 169.498 33.181C167.977 33.818 166.846 33.987 166.222 34.078L166.69 35.118C168.289 34.767 169.446 34.377 170.512 33.818C172.124 34.702 173.437 34.962 174.113 35.092L174.542 34.078ZM162.153 27.435C162.855 27.773 163.57 28.228 164.168 28.748L164.818 27.851C164.376 27.487 163.518 26.902 162.751 26.564L162.153 27.435ZM163.986 29.944C163.713 30.945 163.089 32.635 162.114 34.078L162.933 34.988C164.207 32.973 164.714 31.114 164.87 30.477L163.986 29.944ZM178.165 23.626C178.152 24.51 178.074 28.826 178.074 29.801C178.074 32.063 178.308 34.442 181.87 34.442C185.822 34.442 186.667 31.764 187.083 29.411L185.991 29.008C185.627 30.984 185.198 33.324 181.831 33.324C179.387 33.324 179.309 31.582 179.309 29.918C179.309 28.683 179.361 27.136 179.478 23.626H178.165ZM190.953 23.743C190.537 25.693 190.407 27.773 190.407 29.918C190.407 32.401 190.628 33.701 190.745 34.455L192.006 34.351C191.902 33.883 191.603 32.635 191.603 29.736C191.603 26.46 191.993 24.757 192.188 23.847L190.953 23.743ZM194.164 24.796V25.94H200.274V24.796H194.164ZM194.45 29.099C193.995 29.866 193.761 30.607 193.761 31.283C193.761 33.519 196.166 33.701 198.09 33.701C199.195 33.701 200.105 33.623 200.547 33.584V32.362C199.351 32.492 198.285 32.518 197.57 32.518C196.179 32.518 194.853 32.362 194.853 31.179C194.853 31.062 194.866 30.321 195.503 29.424L194.45 29.099ZM209.513 26.811H213.907V25.641L209.513 25.68L209.5 23.522H208.278L208.33 29.645C208.005 29.606 207.758 29.567 207.329 29.567C205.47 29.567 203.637 30.334 203.637 32.115C203.637 33.389 204.599 34.455 206.744 34.455C209.448 34.455 209.539 32.791 209.526 32.024L209.513 31.127C211.099 31.738 212.607 32.908 213.4 33.792L214.245 32.674C213.608 32.011 212.087 30.763 209.526 29.892L209.513 26.811ZM208.343 31.946C208.343 32.479 208.213 33.376 206.731 33.376C206.445 33.376 204.794 33.376 204.794 32.128C204.794 31.075 206.029 30.633 207.147 30.633C207.693 30.633 208.083 30.711 208.356 30.763L208.343 31.946ZM220.858 34.039C221.898 34.026 223.016 33.935 224.03 33.61C226.513 32.83 226.799 30.789 226.799 30.009C226.799 28.189 225.525 26.811 223.302 26.811C222.613 26.811 221.703 26.941 220.897 27.071C220.455 27.149 218.297 27.539 217.803 27.617L217.998 28.761C220 28.254 222.21 27.825 223.25 27.825C224.524 27.825 225.655 28.475 225.655 30.048C225.655 33.064 221.651 33.038 220.572 33.025L220.858 34.039ZM241.147 24.224C237.949 24.25 236.753 24.276 233.841 24.432C233.178 24.471 231.098 24.562 230.318 24.588L230.422 25.862C231.839 25.693 236.337 25.42 236.714 25.407C235.18 26.304 232.905 28.007 232.905 30.477C232.905 34.117 237.221 34.299 239.782 34.403L240.016 33.142C238.898 33.181 237.65 33.103 236.74 32.908C235.362 32.622 234.114 32.089 234.114 30.399C234.114 28.163 236.662 26.148 238.534 25.524C238.924 25.394 239.197 25.368 239.847 25.368C240.354 25.368 240.731 25.381 241.173 25.42L241.147 24.224ZM247.019 33.883C246.473 33.142 245.55 32.05 244.705 31.27L243.717 31.998C244.146 32.453 244.952 33.298 245.875 34.689L247.019 33.883ZM263.031 34.637C265.8 33.649 266.463 31.478 266.775 30.204C267.425 30.49 267.646 30.607 268.231 30.958L268.621 29.788C267.815 29.346 267.061 29.06 267.022 29.047C267.217 28.007 267.321 26.876 267.412 25.94L266.177 25.849C266.151 26.447 266.086 27.37 265.891 28.644C264.708 28.254 263.85 28.046 262.758 27.955C263.187 25.394 263.226 25.108 263.395 23.808H258.013V24.939L262.082 24.9C262.004 25.823 261.835 26.98 261.653 27.916C257.402 28.085 257.168 30.88 257.168 31.517C257.168 32.908 258.078 33.74 259.326 33.74C261.289 33.74 261.861 31.881 262.563 28.982C263.733 29.086 264.838 29.424 265.683 29.749C265.228 31.634 264.552 32.934 262.316 33.74L263.031 34.637ZM261.458 28.917C260.769 31.738 260.418 32.713 259.248 32.713C258.26 32.713 258.195 31.699 258.195 31.452C258.195 30.568 258.728 29.723 259.573 29.307C260.145 29.021 260.691 28.943 261.458 28.917ZM279.277 27.162H278.107L278.185 29.944C277.899 29.879 277.483 29.788 276.833 29.788C274.532 29.788 273.778 31.231 273.778 32.206C273.778 33.415 274.74 34.494 276.69 34.494C277.977 34.494 279.29 34.026 279.29 32.102V31.569C279.758 31.842 280.551 32.323 281.396 33.337L282.111 32.31C281.474 31.608 280.434 30.802 279.342 30.321L279.277 27.162ZM278.211 31.894C278.211 32.778 278.016 33.48 276.729 33.48C276.482 33.48 274.883 33.48 274.883 32.167C274.883 31.439 275.507 30.776 276.833 30.776C277.522 30.776 277.912 30.919 278.211 31.023V31.894ZM274.35 25.16C274.519 24.211 274.532 24.133 274.636 23.509L273.401 23.457C273.349 23.977 273.31 24.263 273.167 25.16H270.762V26.252H272.959C272.621 27.708 272.049 30.256 270.658 32.492L271.854 33.012C272.322 32.05 273.388 29.879 274.129 26.252H277.08V25.16H274.35ZM281.89 26.174C280.512 25.407 279.641 25.017 278.341 24.562L277.886 25.524C279.056 25.953 280.031 26.421 281.344 27.214L281.89 26.174ZM293.508 30.1C292.728 29.268 291.974 28.007 291.428 26.694C292.572 26.642 293.69 26.59 295.107 26.291L294.899 25.173C293.599 25.446 292.377 25.602 291.051 25.641C290.882 25.121 290.7 24.276 290.583 23.483L289.348 23.574C289.4 23.886 289.595 24.835 289.855 25.68C289.53 25.693 288.828 25.706 288.282 25.693L284.486 25.628V26.759H288.23C288.425 26.759 289.426 26.746 290.219 26.733C290.921 28.514 291.74 29.918 292.507 30.776L293.508 30.1ZM286.956 29.034C285.63 29.684 285.071 30.62 285.071 31.569C285.071 32.219 285.318 32.856 285.838 33.324C286.748 34.143 288.035 34.403 290.31 34.403C292.091 34.403 293.235 34.299 293.703 34.247L293.69 33.09C292.884 33.194 291.896 33.311 290.206 33.311C288.347 33.311 286.241 33.142 286.241 31.556C286.241 31.309 286.306 30.503 287.58 29.879L286.956 29.034ZM301.187 23.444C300.875 24.289 300.121 26.369 299.926 26.915C299.627 27.76 299.406 28.384 297.56 34.026L298.782 34.403C299.133 33.09 299.341 32.31 299.796 31.101C300.615 29.424 301.681 29.151 302.201 29.151C303.124 29.151 303.358 29.918 303.358 30.88V31.608C303.358 32.622 303.371 34.455 305.581 34.455C308.558 34.455 308.87 30.971 308.948 29.255L307.817 28.995C307.817 29.749 307.752 30.724 307.388 31.777C306.959 33.012 306.296 33.311 305.659 33.311C304.606 33.311 304.502 32.596 304.502 31.66V30.789C304.502 29.892 304.398 28.046 302.396 28.046C301.681 28.046 301.174 28.293 300.472 28.865C300.823 27.851 301.603 25.719 302.474 23.795L301.187 23.444ZM317.095 34.403C318.538 34.26 319.838 33.818 320.683 33.116C321.866 32.128 322.425 30.594 322.425 29.047C322.425 26.85 321.294 23.938 317.082 23.938C313.65 23.938 311.076 26.2 311.076 29.736C311.076 31.881 312.142 33.389 313.416 33.389C314.001 33.389 314.833 33.09 315.6 31.881C316.939 29.736 317.199 26.538 317.316 25.03C320.891 25.147 321.203 28.007 321.203 29.034C321.203 32.752 318.044 33.129 316.705 33.272L317.095 34.403ZM316.159 25.082C316.029 26.577 315.821 29.216 314.729 31.088C314.391 31.66 314.001 32.141 313.455 32.141C312.532 32.141 312.207 30.646 312.207 29.762C312.207 28.254 312.805 26.798 314.014 25.914C314.677 25.42 315.392 25.225 316.159 25.082ZM332.197 23.028V23.873H330.507V24.731H332.197V25.745H329.818V26.59H332.197V27.63H330.507V28.462H332.197V29.398H330.325V30.243H332.197V31.218H329.974V32.089H332.197V33.246H333.133V32.089H336.227V31.218H333.133V30.243H335.811V29.398H333.133V28.462H335.642V26.59H336.266V25.745H335.642V23.873H333.133V23.028H332.197ZM334.68 25.745H333.133V24.731H334.68V25.745ZM334.68 27.63H333.133V26.59H334.68V27.63ZM332.821 33.714C330.286 33.714 329.129 32.57 329.051 32.479C329.194 32.102 329.792 30.373 329.844 27.552H328.18C328.752 26.551 329.376 25.472 329.818 24.497V23.522H327.218V24.458H328.765C328.453 25.212 327.608 26.811 327.088 27.539V28.488H328.895C328.869 29.45 328.778 30.464 328.414 31.556C327.985 30.659 327.868 29.827 327.79 29.294L326.906 29.424C326.984 29.905 327.205 31.426 327.959 32.583C327.452 33.415 327.01 33.753 326.646 34.039L327.231 35.001C327.608 34.65 328.076 34.221 328.596 33.376C328.96 33.727 330.247 34.728 332.743 34.728H336.214L336.383 33.714H332.821ZM326.347 26.148C326.802 24.9 326.984 23.925 327.114 23.171L326.074 23.002C325.814 24.848 325.125 27.097 324.02 28.436L324.527 29.502C324.8 29.216 325.008 28.995 325.346 28.384V35.066H326.347V26.148ZM11.219 52.347C10.556 53.166 9.516 53.972 9.36 54.089C8.489 53.439 8.021 52.828 7.696 52.373V52.256H11.505V50.462H12.532V49.604H11.505V47.875H7.696V47.264H6.682V47.875H3.029V48.72H6.682V49.604H2.457V46.939H12.454V45.977H7.176V45.028H6.097V45.977H1.404V51.385C1.404 52.685 1.3 53.114 1.157 53.868C0.923 55.09 0.533 55.805 0.312 56.182L1.196 57.105C2.34 54.947 2.457 52.438 2.457 51.476V50.462H6.682V51.424H3.029V52.256H6.682V55.74C6.682 55.909 6.656 56.039 6.357 56.039L4.966 56.026L5.174 57.092H6.747C7.41 57.092 7.696 56.702 7.696 56.13V53.712C8.944 55.259 10.647 56.221 12.038 56.741L12.649 55.74C12.181 55.571 11.297 55.259 10.205 54.635C11.076 53.998 11.505 53.608 12.09 52.984L11.219 52.347ZM10.478 48.72V49.604H7.696V48.72H10.478ZM10.478 50.462V51.424H7.696V50.462H10.478ZM3.042 53.114C3.887 53.504 4.29 53.764 4.862 54.297L5.551 53.504C4.888 52.984 4.459 52.75 3.627 52.36L3.042 53.114ZM6.071 54.037C5.629 54.245 3.679 55.142 2.184 55.61L2.587 56.546C5.356 55.389 5.668 55.259 6.24 54.947L6.071 54.037ZM19.99 49.721C19.262 49.721 18.651 50.306 18.651 51.06C18.651 51.788 19.236 52.399 19.99 52.399C20.744 52.399 21.329 51.775 21.329 51.06C21.329 50.332 20.731 49.721 19.99 49.721ZM38.862 56.078C38.108 55.636 36.834 54.908 35.183 54.219C35.69 53.699 36.548 52.724 37.172 50.735H39.473V49.708H32.427C32.895 48.759 33.064 48.33 33.207 47.979L32.011 47.758C31.855 48.213 31.634 48.824 31.179 49.708H27.487V50.735H30.62C29.905 51.97 29.268 52.724 28.878 53.179C30.906 53.738 32.063 54.128 33.116 54.544C31.491 55.441 29.541 55.766 27.799 55.922L28.176 57.066C31.556 56.715 33.558 55.532 34.273 55.012C36.405 55.935 37.562 56.702 38.147 57.092L38.862 56.078ZM36.028 50.735C35.885 51.164 35.391 52.659 34.143 53.803C32.843 53.309 31.543 52.932 30.607 52.659C30.867 52.321 31.244 51.827 31.868 50.735H36.028ZM27.799 46.198V49.032H28.904V47.199H38.069V49.032H39.174V46.198H34.013V45.028H32.895V46.198H27.799ZM50.805 49.331C51.611 49.838 52.196 50.098 52.651 50.306L53.197 49.24C50.805 48.369 48.881 46.809 47.568 45.041H46.385C44.942 47.056 42.81 48.46 40.743 49.253L41.289 50.319C41.757 50.098 42.303 49.851 43.187 49.318V50.306H46.424V52.282H42.29V53.257H46.424V55.714H41.016V56.754H52.924V55.714H47.529V53.257H51.689V52.282H47.529V50.306H50.805V49.331ZM43.2 49.305C44.643 48.434 45.917 47.29 46.97 45.964C48.361 47.693 49.96 48.785 50.766 49.305H43.2ZM59.563 46.757C59.745 46.107 59.81 45.808 59.888 45.353L58.64 45.301C58.549 46.042 58.458 46.419 58.367 46.757H55.377V47.797H58.055C57.223 50.228 56.183 51.606 55.039 52.685L55.845 53.556C56.261 53.127 57.119 51.983 57.717 51.164C58.627 50.241 59.576 49.838 60.291 49.838C60.889 49.838 61.253 50.098 61.396 50.865C60.109 51.437 57.782 52.607 57.782 54.375C57.782 56.468 60.72 56.468 62.189 56.468C63.424 56.468 64.555 56.39 65.296 56.338L65.257 55.22C64.087 55.35 62.865 55.402 61.825 55.402C60.395 55.402 58.952 55.402 58.952 54.258C58.952 53.192 60.525 52.36 61.526 51.892C61.552 52.23 61.552 52.451 61.552 52.672C61.552 53.14 61.513 53.621 61.487 53.92H62.618C62.657 53.504 62.657 53.114 62.657 52.932C62.657 52.464 62.644 51.905 62.605 51.45C64.035 50.904 64.958 50.618 66.011 50.319L65.699 49.188C64.529 49.591 62.748 50.306 62.449 50.423C62.189 49.188 61.357 48.902 60.473 48.902C59.823 48.902 59.303 49.123 58.393 49.669C58.77 49.019 58.952 48.59 59.251 47.797H64.984V46.757H59.563ZM77.434 48.005V45.535H76.264V48.005H71.727V45.587H70.544V48.005H68.347V49.123H70.544V52.62H71.727V49.123H76.264V50.722C76.264 53.582 74.561 55.077 70.882 55.428L71.311 56.559C73.261 56.325 77.434 55.558 77.434 50.774V49.123H79.683V48.005H77.434ZM88.012 47.771V45.6H86.816V47.771H82.318V48.876H86.816V56.598H88.012V48.876H92.523V48.408C93.303 48.187 93.836 47.485 93.836 46.679C93.836 45.678 93.03 44.872 92.029 44.872C91.041 44.872 90.222 45.678 90.222 46.666C90.222 47.082 90.352 47.459 90.599 47.771H88.012ZM92.029 45.678C92.575 45.678 93.03 46.12 93.03 46.679C93.03 47.225 92.588 47.68 92.029 47.68C91.483 47.68 91.028 47.225 91.028 46.679C91.028 46.12 91.483 45.678 92.029 45.678ZM82.968 55.818C84.528 54.076 84.931 51.957 85.113 50.241L84.008 50.124C83.865 51.723 83.397 53.582 82.019 54.96L82.968 55.818ZM89.767 50.241C90.209 52.906 90.716 54.336 91.886 55.766L92.861 55.012C91.795 53.725 91.249 52.373 90.859 50.111L89.767 50.241ZM95.34 50.436V51.671H106.52V50.436H95.34ZM119.542 51.593C117.67 50.579 115.655 49.578 113.198 48.798V45.47H111.937V56.585H113.198V50.02C115.915 50.956 118.047 52.256 118.931 52.802L119.542 51.593ZM124.205 45.626C124.192 46.51 124.114 50.826 124.114 51.801C124.114 54.063 124.348 56.442 127.91 56.442C131.862 56.442 132.707 53.764 133.123 51.411L132.031 51.008C131.667 52.984 131.238 55.324 127.871 55.324C125.427 55.324 125.349 53.582 125.349 51.918C125.349 50.683 125.401 49.136 125.518 45.626H124.205ZM139.099 55.883C138.553 55.142 137.63 54.05 136.785 53.27L135.797 53.998C136.226 54.453 137.032 55.298 137.955 56.689L139.099 55.883ZM155.878 50.8C155.969 50.241 156.008 49.812 156.008 49.058H159.583V48.109H153.655C153.837 47.758 153.941 47.537 154.149 47.017L153.109 46.796C152.706 48.057 151.939 49.006 151.016 49.747L151.835 50.449C152.342 49.994 152.641 49.669 153.083 49.058H154.994C154.994 49.994 154.929 50.397 154.864 50.8H151.081V51.762H154.552C153.629 53.673 151.562 54.18 150.912 54.336L151.536 55.285C153.018 54.791 154.682 53.946 155.54 51.97C155.865 52.711 156.905 54.362 159.843 55.272L160.415 54.271C158.309 53.803 156.931 52.594 156.489 51.762H160.129V50.8H155.878ZM149.3 45.457V56.819H160.844V55.831H150.405V46.458H160.571V45.457H149.3ZM173.034 51.346C173.437 51.593 173.684 51.71 174.035 51.879L174.529 51.008C174.165 50.878 173.814 50.748 173.229 50.423C173.255 50.384 173.71 49.942 174.113 49.422L173.385 48.98C173.242 49.175 172.93 49.565 172.553 49.968C171.929 49.487 171.604 49.058 171.344 48.733H174.373V47.914H169.641C169.732 47.732 169.784 47.602 169.914 47.277L168.887 47.16C168.783 47.459 168.718 47.628 168.588 47.914H165.468V48.733H168.094C167.73 49.214 167.405 49.552 167.002 49.877C166.885 49.747 166.521 49.344 166.105 49.032L165.507 49.578C165.871 49.864 165.91 49.903 166.339 50.358C165.897 50.657 165.559 50.826 165.104 51.047L165.676 51.827C165.962 51.658 166.053 51.606 166.326 51.437V54.141H169.121V55.818C169.121 56.078 169.082 56.13 168.822 56.13H167.587L167.808 57.066H169.212C169.615 57.066 170.174 57.04 170.174 56.234V54.141H173.034V51.346ZM172.085 51.853H167.275V51.073H172.085V51.853ZM167.808 50.319C168.653 49.552 169.017 48.98 169.173 48.733H170.278C170.564 49.149 170.889 49.643 171.643 50.319H167.808ZM172.085 53.387H167.275V52.568H172.085V53.387ZM164.025 50.488C164.025 50.852 164.012 51.099 164.012 51.307C163.362 51.632 163.063 51.775 162.166 52.126L162.387 53.192C162.777 52.997 163.271 52.75 163.921 52.321C163.635 54.739 162.92 55.675 162.335 56.403L163.128 57.105C163.648 56.481 165.052 54.804 165.052 50.527V46.991H174.412V46.081H169.576V45.028H168.51V46.081H164.025V50.488ZM163.752 49.37C163.622 48.707 163.349 47.797 162.972 47.056L162.166 47.446C162.465 48.187 162.699 49.019 162.842 49.799L163.752 49.37ZM165.13 56.871C166.001 56.546 166.807 56.117 167.912 55.038L167.158 54.414C166.235 55.298 165.598 55.649 164.558 56L165.13 56.871ZM171.227 55.051C171.929 55.844 173.034 56.533 174.035 56.884L174.607 56C173.398 55.571 172.852 55.259 171.916 54.362L171.227 55.051ZM177.463 45.743C177.047 47.693 176.917 49.773 176.917 51.918C176.917 54.401 177.138 55.701 177.255 56.455L178.516 56.351C178.412 55.883 178.113 54.635 178.113 51.736C178.113 48.46 178.503 46.757 178.698 45.847L177.463 45.743ZM180.674 46.796V47.94H186.784V46.796H180.674ZM180.96 51.099C180.505 51.866 180.271 52.607 180.271 53.283C180.271 55.519 182.676 55.701 184.6 55.701C185.705 55.701 186.615 55.623 187.057 55.584V54.362C185.861 54.492 184.795 54.518 184.08 54.518C182.689 54.518 181.363 54.362 181.363 53.179C181.363 53.062 181.376 52.321 182.013 51.424L180.96 51.099ZM193.657 55.701C195.23 55.688 196.686 55.506 197.791 55.051C200.56 53.933 200.885 51.736 200.885 50.735C200.885 48.785 199.65 46.835 196.608 46.835C195.529 46.835 194.281 47.043 193.046 47.264C192.513 47.355 189.991 47.797 189.692 47.836L189.978 49.149C192.175 48.603 194.97 47.979 196.53 47.979C199.065 47.979 199.637 49.526 199.637 50.748C199.637 52.035 198.961 52.971 198.259 53.478C196.985 54.388 195.49 54.57 193.345 54.583L193.657 55.701ZM203.819 46.133C203.741 47.017 203.611 48.434 203.611 49.851C203.611 53.231 204.196 56.143 206.302 56.143C206.965 56.143 207.446 55.831 207.758 55.519C208.486 54.791 209.084 53.699 209.513 52.49L208.551 51.944C207.654 54.284 206.978 54.817 206.393 54.817C204.937 54.817 204.781 51.97 204.781 49.955C204.781 48.2 204.95 47.017 205.054 46.237L203.819 46.133ZM214.297 54.856C214.479 49.656 213.14 47.823 211.593 46.523L210.696 47.212C212.048 48.317 213.062 50.189 213.062 53.582C213.062 54.18 213.036 54.57 213.01 54.908L214.297 54.856ZM227.657 46.224C224.459 46.25 223.263 46.276 220.351 46.432C219.688 46.471 217.608 46.562 216.828 46.588L216.932 47.862C218.349 47.693 222.847 47.42 223.224 47.407C221.69 48.304 219.415 50.007 219.415 52.477C219.415 56.117 223.731 56.299 226.292 56.403L226.526 55.142C225.408 55.181 224.16 55.103 223.25 54.908C221.872 54.622 220.624 54.089 220.624 52.399C220.624 50.163 223.172 48.148 225.044 47.524C225.434 47.394 225.707 47.368 226.357 47.368C226.864 47.368 227.241 47.381 227.683 47.42L227.657 46.224ZM236.155 56.403C237.598 56.26 238.898 55.818 239.743 55.116C240.926 54.128 241.485 52.594 241.485 51.047C241.485 48.85 240.354 45.938 236.142 45.938C232.71 45.938 230.136 48.2 230.136 51.736C230.136 53.881 231.202 55.389 232.476 55.389C233.061 55.389 233.893 55.09 234.66 53.881C235.999 51.736 236.259 48.538 236.376 47.03C239.951 47.147 240.263 50.007 240.263 51.034C240.263 54.752 237.104 55.129 235.765 55.272L236.155 56.403ZM235.219 47.082C235.089 48.577 234.881 51.216 233.789 53.088C233.451 53.66 233.061 54.141 232.515 54.141C231.592 54.141 231.267 52.646 231.267 51.762C231.267 50.254 231.865 48.798 233.074 47.914C233.737 47.42 234.452 47.225 235.219 47.082ZM249.554 48.135C249.788 47.758 250.048 47.329 250.425 46.549H255.313V45.483H243.301V46.549H249.268C248.28 48.655 246.356 50.891 243.158 52.36L243.808 53.387C244.731 52.919 246.694 51.866 248.709 49.318V57.092H249.84V48.135H249.554ZM255.495 52.412C253.519 51.203 252.193 49.838 251.088 48.46L250.295 49.084C251.881 51.086 252.739 51.957 254.715 53.387L255.495 52.412ZM268.192 56.078C267.438 55.636 266.164 54.908 264.513 54.219C265.02 53.699 265.878 52.724 266.502 50.735H268.803V49.708H261.757C262.225 48.759 262.394 48.33 262.537 47.979L261.341 47.758C261.185 48.213 260.964 48.824 260.509 49.708H256.817V50.735H259.95C259.235 51.97 258.598 52.724 258.208 53.179C260.236 53.738 261.393 54.128 262.446 54.544C260.821 55.441 258.871 55.766 257.129 55.922L257.506 57.066C260.886 56.715 262.888 55.532 263.603 55.012C265.735 55.935 266.892 56.702 267.477 57.092L268.192 56.078ZM265.358 50.735C265.215 51.164 264.721 52.659 263.473 53.803C262.173 53.309 260.873 52.932 259.937 52.659C260.197 52.321 260.574 51.827 261.198 50.735H265.358ZM257.129 46.198V49.032H258.234V47.199H267.399V49.032H268.504V46.198H263.343V45.028H262.225V46.198H257.129ZM276.3 49.721C275.572 49.721 274.961 50.306 274.961 51.06C274.961 51.788 275.546 52.399 276.3 52.399C277.054 52.399 277.639 51.775 277.639 51.06C277.639 50.332 277.041 49.721 276.3 49.721ZM284.408 51.476C284.694 50.41 284.811 48.72 284.824 47.823L283.992 47.745C283.992 48.395 283.914 49.89 283.55 51.06L284.408 51.476ZM285.357 45.028V57.092H286.41V45.028H285.357ZM287.996 49.37C287.931 49.149 287.645 48.148 287.32 47.407L286.54 47.719C286.813 48.395 287.021 49.162 287.125 49.708L287.996 49.37ZM295.419 49.604H294.392V55.883H288.88V49.604H287.853V56.819H295.419V49.604ZM292.676 49.227C292.377 50.215 292.104 50.748 291.766 51.385C291.116 50.722 290.726 50.358 290.141 49.916L289.465 50.579C290.245 51.216 290.674 51.645 291.246 52.243C290.661 53.114 290.154 53.751 289.231 54.492L289.946 55.233C291.09 54.245 291.545 53.621 291.948 53.036C292.351 53.491 292.663 53.881 293.235 54.739L294.002 54.05C293.638 53.491 293.313 53.036 292.507 52.165C292.884 51.502 293.222 50.865 293.599 49.63L292.676 49.227ZM292.312 47.706C292 46.497 291.428 45.366 291.272 45.054L290.31 45.327C290.388 45.483 291.051 46.861 291.311 48.018L292.312 47.706ZM294.223 48.85C294.86 47.966 295.497 46.653 295.796 45.691L294.821 45.262C294.665 45.717 294.197 47.134 293.326 48.395L294.223 48.85ZM289.868 48.213C289.543 47.355 288.984 46.341 288.438 45.6L287.541 45.977C288.113 46.796 288.607 47.81 288.906 48.577L289.868 48.213ZM303.501 56.637C306.27 55.649 306.933 53.478 307.245 52.204C307.895 52.49 308.116 52.607 308.701 52.958L309.091 51.788C308.285 51.346 307.531 51.06 307.492 51.047C307.687 50.007 307.791 48.876 307.882 47.94L306.647 47.849C306.621 48.447 306.556 49.37 306.361 50.644C305.178 50.254 304.32 50.046 303.228 49.955C303.657 47.394 303.696 47.108 303.865 45.808H298.483V46.939L302.552 46.9C302.474 47.823 302.305 48.98 302.123 49.916C297.872 50.085 297.638 52.88 297.638 53.517C297.638 54.908 298.548 55.74 299.796 55.74C301.759 55.74 302.331 53.881 303.033 50.982C304.203 51.086 305.308 51.424 306.153 51.749C305.698 53.634 305.022 54.934 302.786 55.74L303.501 56.637ZM301.928 50.917C301.239 53.738 300.888 54.713 299.718 54.713C298.73 54.713 298.665 53.699 298.665 53.452C298.665 52.568 299.198 51.723 300.043 51.307C300.615 51.021 301.161 50.943 301.928 50.917ZM316.77 49.721C316.042 49.721 315.431 50.306 315.431 51.06C315.431 51.788 316.016 52.399 316.77 52.399C317.524 52.399 318.109 51.775 318.109 51.06C318.109 50.332 317.511 49.721 316.77 49.721ZM324.215 46.146V47.16H327.114V48.486H328.167V47.16H332.327V48.486H333.367V47.16H336.305V46.146H333.367V45.015H332.327V46.146H328.167V45.015H327.114V46.146H324.215ZM336.305 49.318H330.767V47.888H329.688V49.318H324.215V50.319H329.688V51.996H325.528V56.845H334.966V51.996H330.767V50.319H336.305V49.318ZM333.887 55.896H326.607V52.958H333.887V55.896ZM346.285 50.319C346.194 50.254 346.077 50.163 345.999 50.111C346.298 49.968 347.637 49.344 348.807 48.395V47.706H341.319V48.486H347.052C346.35 49.006 345.986 49.214 345.206 49.604C345.011 49.474 344.309 49.058 343.594 48.733L342.97 49.435C343.828 49.786 344.309 50.033 344.699 50.319H341.553V57.105H342.567V54.947H344.855V57.066H345.856V54.947H348.287V55.766C348.287 56 348.17 56.039 347.988 56.039H346.909L347.104 57.105H348.391C349.288 57.105 349.288 56.455 349.288 56.065V50.319H346.285ZM344.855 52.204H342.567V51.151H344.855V52.204ZM344.855 54.128H342.567V53.01H344.855V54.128ZM348.287 52.204H345.856V51.151H348.287V52.204ZM348.287 54.128H345.856V53.01H348.287V54.128ZM339.733 50.631C339.733 50.93 339.72 51.112 339.707 51.294C339.59 51.372 338.641 51.892 337.614 52.282L337.874 53.348C338.329 53.114 338.771 52.893 339.629 52.373C339.395 54.323 339.018 55.337 338.095 56.416L338.953 57.144C339.538 56.442 340.747 54.999 340.747 50.423V46.978H349.73V46.055H344.972V45.002H343.88V46.055H339.733V50.631ZM339.434 49.409C339.265 48.733 338.914 47.771 338.537 47.069L337.679 47.537C337.978 48.122 338.355 49.11 338.537 49.851L339.434 49.409ZM5.603 68.757C5.785 68.107 5.85 67.808 5.928 67.353L4.68 67.301C4.589 68.042 4.498 68.419 4.407 68.757H1.417V69.797H4.095C3.263 72.228 2.223 73.606 1.079 74.685L1.885 75.556C2.301 75.127 3.159 73.983 3.757 73.164C4.667 72.241 5.616 71.838 6.331 71.838C6.929 71.838 7.293 72.098 7.436 72.865C6.149 73.437 3.822 74.607 3.822 76.375C3.822 78.468 6.76 78.468 8.229 78.468C9.464 78.468 10.595 78.39 11.336 78.338L11.297 77.22C10.127 77.35 8.905 77.402 7.865 77.402C6.435 77.402 4.992 77.402 4.992 76.258C4.992 75.192 6.565 74.36 7.566 73.892C7.592 74.23 7.592 74.451 7.592 74.672C7.592 75.14 7.553 75.621 7.527 75.92H8.658C8.697 75.504 8.697 75.114 8.697 74.932C8.697 74.464 8.684 73.905 8.645 73.45C10.075 72.904 10.998 72.618 12.051 72.319L11.739 71.188C10.569 71.591 8.788 72.306 8.489 72.423C8.229 71.188 7.397 70.902 6.513 70.902C5.863 70.902 5.343 71.123 4.433 71.669C4.81 71.019 4.992 70.59 5.291 69.797H11.024V68.757H5.603ZM17.481 68.393C18.248 68.263 18.664 68.159 19.366 67.977L18.976 67.028C17.286 67.483 15.843 67.678 13.945 67.73L14.166 68.705C15.219 68.666 15.752 68.614 16.428 68.536V70.447H13.919V71.409H16.298C15.895 72.332 15.089 74.022 13.75 75.335L14.218 76.57C15.427 75.257 16.077 74.035 16.428 73.255V79.092H17.481V73.008C17.962 73.892 18.456 74.581 19.067 75.179L19.6 74.152C18.534 73.242 17.819 72.098 17.481 71.448V71.409H19.574V70.447H17.481V68.393ZM25.58 67.86H20.042V78.741H25.58V67.86ZM24.514 77.727H21.082V68.848H24.514V77.727ZM36.73 68.276C34.741 67.626 32.518 67.509 31.4 67.457L31.192 68.575C32.947 68.64 34.858 68.887 36.405 69.511L36.73 68.276ZM29.606 69.316C29.437 69.992 29.32 70.707 29.268 71.916C29.255 72.306 29.216 74.256 29.216 74.698L30.373 74.737C30.386 74.672 30.399 74.633 30.438 74.503C31.296 73.372 33.038 72.631 34.78 72.631C36.496 72.631 37.185 73.567 37.185 74.581C37.185 75.114 37.042 75.725 36.678 76.115C35.898 76.973 34.338 77.324 32.544 77.324C31.673 77.324 30.88 77.246 30.009 77.09L30.139 78.234C30.672 78.312 31.439 78.416 32.635 78.416C35.417 78.416 38.42 77.714 38.42 74.594C38.42 73.515 37.861 71.578 34.845 71.578C33.155 71.578 31.699 72.124 30.373 73.177C30.373 71.266 30.477 70.512 30.776 69.524L29.606 69.316ZM45.787 78.65C48.543 78.117 50.142 77.168 50.142 72.982C50.142 72.761 50.116 71.877 50.103 71.526H52.417V70.434H50.038C50.012 70.031 49.908 68.146 49.869 67.639L48.751 67.665C48.79 68.354 48.855 69.849 48.881 70.434H44.5V71.526H48.92C48.933 71.929 48.946 72.54 48.946 72.813C48.946 76.362 47.854 77.116 45.358 77.597L45.787 78.65ZM50.077 67.106C50.493 68.055 50.714 68.848 50.87 69.797L51.806 69.459C51.559 68.419 51.403 67.795 50.948 66.807L50.077 67.106ZM51.845 66.768C52.261 67.717 52.443 68.354 52.638 69.446L53.574 69.108C53.275 67.873 53.171 67.444 52.716 66.456L51.845 66.768ZM42.251 67.665C41.991 69.602 41.861 71.552 41.861 73.502C41.861 75.114 41.926 76.739 42.264 78.325L43.473 78.169C43.122 76.531 43.031 74.893 43.031 73.385C43.031 70.681 43.33 68.757 43.499 67.743L42.251 67.665ZM61.37 68.939V67.574H60.226V68.939H55.286V69.94H60.226V71.552H55.481V72.54H60.226V74.074C59.953 74.022 59.511 73.944 58.926 73.944C56.989 73.944 55.65 74.932 55.65 76.297C55.65 77.129 56.196 78.481 58.731 78.481C59.823 78.481 61.37 78.13 61.37 76.271V75.53C62.085 75.855 63.229 76.453 64.49 77.844L65.257 76.726C63.892 75.582 62.748 74.867 61.37 74.36V72.54H65.27V71.552H61.37V69.94H65.517V68.939H61.37ZM60.226 76.037C60.226 77.064 59.719 77.467 58.588 77.467C56.872 77.467 56.742 76.505 56.742 76.258C56.742 75.4 57.717 74.906 58.926 74.906C59.589 74.906 59.966 75.01 60.226 75.088V76.037ZM75.991 68.9V67.444H74.795L74.821 68.9H68.425V69.979H74.834L74.847 71.383C74.574 71.149 74.262 70.863 73.391 70.863C71.779 70.863 70.7 71.981 70.7 73.502C70.7 74.763 71.506 76.05 73.118 76.05C74.613 76.05 75.042 75.075 75.172 74.802C75.003 76.349 74.041 77.545 70.57 77.506L70.934 78.598C73.196 78.507 76.238 77.883 76.238 74.451C76.238 74.113 76.212 73.775 76.16 73.45C76.121 73.138 76.056 72.839 75.991 72.592V69.979H79.397V68.9H75.991ZM74.873 73.593C74.873 74.451 74.197 75.101 73.274 75.101C72.065 75.101 71.792 73.996 71.792 73.45C71.792 72.254 72.702 71.838 73.417 71.838C74.561 71.838 74.769 72.605 74.873 73.021V73.593ZM83.813 74.789C82.747 74.789 81.876 75.647 81.876 76.726C81.876 77.792 82.734 78.663 83.813 78.663C84.879 78.663 85.75 77.792 85.75 76.726C85.75 75.634 84.866 74.789 83.813 74.789ZM83.813 75.439C84.502 75.439 85.087 75.998 85.087 76.726C85.087 77.428 84.515 78 83.813 78C83.098 78 82.526 77.428 82.526 76.726C82.526 76.011 83.111 75.439 83.813 75.439Z" fill="black"/>
</svg>
