<svg width="200" height="17" viewBox="0 0 200 17" fill="none" xmlns="http://www.w3.org/2000/svg">
<path d="M3.828 5.968L2.556 5.416C2.16 6.28 1.2 7.804 0.108 8.524L0.636 10.264C0.9 10.072 1.056 9.952 1.404 9.616V14.092H2.82V7.864C3.06 7.504 3.432 6.952 3.828 5.992V7.072C3.828 10.84 3.336 11.896 2.88 12.676L3.888 14.008C4.86 12.64 5.196 10.132 5.196 7.348V6.496H7.392V7.192H5.508V13.912H11.124V7.192H8.796V6.496H11.652V5.296H8.796V4.42C10.248 4.24 10.644 4.156 11.34 3.952L10.692 2.704C9.42 3.112 6.408 3.448 3.828 3.412V5.968ZM9.756 10.888H6.852V10.096H9.756V10.888ZM9.756 9.064H6.852V8.284H9.756V9.064ZM9.756 12.82H6.852V11.92H9.756V12.82ZM5.196 4.684C6.276 4.636 6.624 4.612 7.392 4.552V5.296H5.196V4.684ZM2.316 2.692C1.92 3.484 1.068 4.468 0.096 5.056L0.72 6.52C2.448 5.428 3.42 3.64 3.684 3.148L2.316 2.692ZM16.41 3.124V6.052H23.814V3.124H16.41ZM20.55 4.108V5.08H19.638V4.108H20.55ZM18.594 4.108V5.08H17.682V4.108H18.594ZM22.554 4.108V5.08H21.582V4.108H22.554ZM22.11 9.004V9.832H18.018V9.004H22.11ZM23.49 8.068H16.65V10.756H18.306C17.286 11.548 16.374 12.064 14.802 12.556L15.534 13.888C16.65 13.444 17.418 13.012 18.498 12.196V14.092H19.938V11.464C21.198 13.084 22.938 13.864 23.538 14.14L24.198 12.88C23.658 12.664 23.37 12.52 23.046 12.352C23.802 11.764 24.066 11.416 24.21 11.236L23.49 10.72V8.068ZM22.962 10.756C22.674 11.056 22.362 11.344 21.942 11.668C21.39 11.284 21.078 10.996 20.838 10.756H22.962ZM12.786 13.036C13.986 12.724 15.21 12.244 16.146 11.812L16.074 10.468C15.81 10.576 15.582 10.66 15.114 10.804V8.44H15.822V7.036H15.114V4.732H16.062V3.316H12.786V4.732H13.71V7.036H12.918V8.44H13.71V11.2C13.23 11.32 12.99 11.368 12.618 11.452L12.786 13.036ZM16.026 6.484V7.624H24.09V6.484H16.026ZM28.512 9.904C28.692 9.784 29.304 9.34 29.94 8.632H31.8C32.4 9.292 32.76 9.58 33.216 9.904H31.308V13.852H35.76V11.212C35.844 11.236 36.012 11.308 36.132 11.344L36.72 10C35.016 9.58 34.332 9.112 33.744 8.632H36.516V7.348H30.816C30.948 7.084 31.008 6.94 31.14 6.604L30.18 6.412H30.288V3.124H25.908V6.412H29.652C29.496 6.82 29.352 7.06 29.172 7.348H25.284V8.632H27.972C26.88 9.472 25.776 9.808 25.164 10L25.668 11.38C25.872 11.308 25.932 11.284 26.028 11.248V13.852H30.348V9.904H28.512ZM28.968 5.296H27.228V4.276H28.968V5.296ZM34.452 12.676H32.628V11.032H34.452V12.676ZM29.052 12.676H27.336V11.032H29.052V12.676ZM31.404 3.124V6.412H35.904V3.124H31.404ZM34.572 5.296H32.736V4.276H34.572V5.296ZM40.578 11.176C41.442 10.624 42.762 9.376 43.374 7.636C43.89 9.088 44.658 10.12 46.11 11.188L46.938 10.012V12.268C46.938 12.508 46.806 12.556 46.626 12.556H44.922L45.174 14.08H47.37C48.342 14.08 48.438 13.312 48.438 13V4.42H44.13V2.776H42.606V4.42H38.262V14.08H39.762V10L40.578 11.176ZM42.486 5.86C42.162 7.492 41.166 8.92 39.762 9.808V5.86H42.486ZM46.938 9.832C44.73 8.332 44.346 6.76 44.202 5.86H46.938V9.832ZM54.828 10.276L55.008 11.752L58.932 10.948V14.092H60.456V10.636L61.56 10.408L61.416 8.92L60.456 9.124V2.788H58.932V9.436L54.828 10.276ZM52.056 5.92H50.136V7.3H51.912C51.384 8.452 50.7 9.52 49.86 10.24L50.424 12.064C50.808 11.56 51.372 10.816 52.056 9.46V14.092H53.472V9.4C53.64 9.748 53.796 10 54.228 10.576L55.02 9.244C54.564 8.824 54.012 8.284 53.472 7.396V7.3H54.852V5.92H53.472V4.444C54.42 4.312 54.684 4.24 55.056 4.132L54.492 2.74C53.124 3.172 51.072 3.304 50.064 3.304L50.292 4.648C50.676 4.648 51.06 4.636 52.056 4.576V5.92ZM55.704 4.276C56.676 4.924 57.012 5.248 57.744 6.076L58.752 4.936C58.176 4.252 57.42 3.64 56.58 3.22L55.704 4.276ZM55.08 7.312C55.74 7.72 56.556 8.344 57.144 9.052L58.164 7.936C57.516 7.24 56.976 6.808 56.004 6.244L55.08 7.312Z" fill="black"/>
</svg>
