<svg width="158" height="14" viewBox="0 0 158 14" fill="none" xmlns="http://www.w3.org/2000/svg">
<path d="M3.78 10.838H10.234V5.504H3.78V10.838ZM8.61 6.988V9.382H5.404V6.988H8.61ZM2.66 13.288V2.172H11.354V11.132C11.354 11.51 11.102 11.51 10.934 11.51H9.044L9.338 13.288H11.69C12.026 13.288 13.104 13.288 13.104 11.958V0.519999H0.896V13.288H2.66ZM3.108 4.58H10.892V3.068H3.108V4.58ZM22.892 10.054C22.318 9.704 22.038 9.564 21.366 9.298H26.742V4.958H16.298V9.298H20.246L19.714 10.026C20.61 10.376 21.254 10.726 22.066 11.3L22.892 10.054ZM25.006 6.652H17.992V6.036H25.006V6.652ZM25.006 8.206H17.992V7.576H25.006V8.206ZM28.072 3.11H25.146C25.202 2.942 25.286 2.662 25.412 2.144H27.33V0.855999H22.36V0.0999997H20.61V0.855999H15.738V2.144H17.726C17.81 2.396 17.824 2.466 17.964 3.11H14.954V4.412H28.072V3.11ZM19.728 3.11C19.7 2.998 19.616 2.55 19.476 2.144H23.592C23.578 2.214 23.48 2.732 23.34 3.11H19.728ZM16.018 13.218C16.998 12.21 17.46 11.216 17.768 9.984L16.27 9.606C16.004 10.544 15.542 11.244 14.786 11.944L16.018 13.218ZM18.16 10.138V12.196C18.16 13.036 18.846 13.162 19.406 13.162H23.41C24.194 13.162 24.544 12.7 24.796 10.992L23.2 10.614C23.074 11.734 22.906 11.734 22.612 11.734H20.148C19.938 11.734 19.798 11.692 19.798 11.384V10.138H18.16ZM28.17 12.238C27.736 11.398 26.896 10.166 26.154 9.396L24.754 10.208C25.566 11.104 25.972 11.916 26.588 13.19L28.17 12.238ZM31.77 0.785999C31.77 1.766 31.7 6.568 31.7 7.646C31.7 10.222 32.134 12.602 35.984 12.602C39.358 12.602 41.094 10.81 41.808 7.156L40.058 6.386C39.722 8.262 39.26 10.796 35.97 10.796C33.758 10.796 33.618 9.34 33.618 7.73C33.618 7.394 33.674 3.908 33.814 0.814L31.77 0.785999ZM56.356 1.262C53.066 1.318 50.672 1.402 47.438 1.612C45.94 1.71 45.184 1.738 44.54 1.738L44.666 3.754C45.926 3.6 49.23 3.348 50.644 3.25C49.398 4.048 47.228 5.742 47.228 8.234C47.228 12.406 52.282 12.476 54.928 12.532L55.222 10.516C54.97 10.53 54.732 10.544 54.312 10.544C50.07 10.544 49.16 9.522 49.16 8.136C49.16 5.966 51.652 3.852 53.584 3.278C54.074 3.124 54.606 3.096 55.152 3.096C55.474 3.096 55.866 3.11 56.412 3.138L56.356 1.262ZM60.614 6.638C59.578 7.044 58.948 7.226 58.332 7.408L58.71 9.172C59.102 9.004 59.69 8.738 60.432 8.332C60.166 9.704 59.606 10.95 58.668 11.972L60.138 13.134C61.482 11.356 62.252 9.466 62.252 6.036V2.676H71.632V1.108H66.62V0.0299997H64.856V1.108H60.614V4.328C60.404 3.488 59.9 2.382 59.662 1.892L58.36 2.844C58.542 3.208 59.074 4.356 59.27 5.462L60.614 4.51V6.638ZM62.518 3.838V5.364H66.34V11.244H64.94V6.288H63.26V11.244H61.776V12.84H71.632V11.244H68.02V8.822H70.96V7.31H68.02V5.364H71.366V3.838H62.518ZM86.39 11.51C85.298 10.796 83.464 9.438 82.61 5.266H86.166V3.544H82.568V0.0859998H80.762V3.544H77.57V5.266H80.664C80.342 7.996 79.46 9.858 77.234 11.65L78.256 13.274C79.572 12.252 80.818 10.894 81.784 8.178C82.33 9.956 83.576 12.112 85.396 13.232L86.39 11.51ZM75.372 6.974C74.952 7.366 73.72 8.052 72.74 8.57L73.132 10.502C73.678 10.208 74.938 9.396 75.372 8.99V13.274H77.136V0.0859998H75.372V6.974ZM83.03 0.926C83.492 1.514 84.066 2.382 84.458 3.236L85.83 2.494C85.424 1.626 84.822 0.841999 84.304 0.226L83.03 0.926ZM72.726 2.438C73.104 3.236 73.496 4.23 73.748 5.308L75.232 4.566C74.98 3.502 74.406 2.2 74.168 1.668L72.726 2.438ZM89.71 12.574C90.886 10.292 91.726 6.932 92.118 4.748L93.182 4.734C94.568 4.72 94.932 5.126 94.932 6.722C94.932 7.716 94.764 8.836 94.568 9.564C94.358 10.32 94.162 10.74 93.238 10.74C92.664 10.74 92.09 10.628 91.838 10.572L91.95 12.448C92.16 12.476 92.734 12.546 93.49 12.546C94.722 12.546 95.604 12.168 96.08 11.104C96.612 9.9 96.752 7.954 96.752 6.932C96.752 3.95 95.772 2.998 93.7 2.998H92.44C92.636 1.766 92.678 1.416 92.776 0.659999L90.816 0.562C90.746 1.57 90.69 2.102 90.564 2.998H88.254V4.776L90.27 4.762C89.976 6.372 89.15 9.536 87.904 11.734L89.71 12.574ZM100.434 7.996C100.28 5.784 99.72 3.572 98.292 1.864L96.71 2.648C97.928 4.272 98.418 6.302 98.488 8.332L100.434 7.996ZM112.322 1.374C110.782 0.911999 109.13 0.589999 106.274 0.492L105.952 2.228C109.648 2.424 111.468 3.166 111.86 3.32L112.322 1.374ZM104.3 2.83C104.006 4.594 103.978 5.322 103.936 8.598L105.77 8.668C105.784 8.542 105.798 8.486 105.812 8.318C106.68 7.268 108.346 6.596 109.956 6.596C111.314 6.596 112.098 7.296 112.098 8.304C112.098 9.718 111.104 10.81 107.478 10.81C106.302 10.81 105.336 10.684 104.692 10.6L104.916 12.406C105.406 12.462 106.232 12.546 107.52 12.546C111.37 12.546 114.044 11.51 114.044 8.374C114.044 7.142 113.386 4.944 110.166 4.944C108.556 4.944 107.156 5.42 105.812 6.33C105.854 4.622 105.938 3.95 106.19 3.012L104.3 2.83ZM121.004 12.476L122.082 13.316C122.81 11.902 123.23 10.376 123.23 6.722V2.046H127.78V11.216C127.78 11.552 127.752 11.692 127.332 11.692H125.848L126.128 13.274H128.13C129.306 13.274 129.306 12.406 129.306 11.916V0.533999H121.718V6.652C121.718 7.59 121.718 10.082 121.004 11.706V8.724H116.944V13.036H121.004V12.476ZM119.618 11.678H118.47V10.068H119.618V11.678ZM116.944 0.533999V1.85H121.004V0.533999H116.944ZM116.944 4.566V5.952H121.004V4.566H116.944ZM116.944 6.61V7.996H121.004V6.61H116.944ZM123.678 7.492V11.412H127.22V7.492H123.678ZM126.058 10.054H124.868V8.836H126.058V10.054ZM116.566 2.522V3.936H121.326V2.522H116.566ZM126.226 2.382H124.854V3.054H123.58V4.356H124.854V5.378H123.566V6.708H127.43V5.378H126.226V4.356H127.416V3.054H126.226V2.382ZM139.29 2.41C140.102 3.264 140.522 3.852 141.152 4.93L142.188 4.118C141.544 3.096 141.012 2.368 140.284 1.654L139.29 2.41ZM141.152 1.206C142.006 2.13 142.37 2.606 143.042 3.712L144.092 2.928C143.504 2.018 142.944 1.234 142.146 0.478L141.152 1.206ZM144.19 9.144C143.882 8.948 143.336 8.584 142.384 7.8C141.53 7.1 139.738 5.532 139.024 4.846C137.61 3.516 137.064 3.026 136.07 3.026C135.44 3.026 135.006 3.264 134.432 3.74C133.942 4.16 131.758 6.442 131.226 6.904L132.5 8.612C133.284 7.702 134.068 6.75 134.852 5.812C135.538 5 135.776 4.916 136 4.916C136.21 4.916 136.392 5 136.7 5.252C137.078 5.56 137.624 6.12 138.086 6.568C140.074 8.542 141.656 10.096 142.958 11.062L144.19 9.144ZM155.476 0.926C152.158 1.066 150.8 1.08 147.734 1.066V2.872C149.512 2.844 150.94 2.774 152.438 2.676C149.232 5.49 146.782 7.366 146.208 7.786L147.258 9.354C149.386 7.338 150.982 6.162 153.152 6.162C155.028 6.162 155.896 7.1 155.896 8.388C155.896 9.102 155.588 9.928 154.776 10.432C154.216 8.766 152.676 8.01 151.402 8.01C149.918 8.01 148.812 8.962 148.812 10.194C148.812 11.44 149.974 12.644 152.564 12.644C155.56 12.644 157.73 11.02 157.73 8.332C157.73 5.574 155.574 4.65 153.908 4.65C153.432 4.65 152.788 4.748 152.13 4.93C153.236 4.062 154.72 2.9 155.476 2.382V0.926ZM153.292 11.09C153.166 11.118 152.872 11.188 152.396 11.188C151.22 11.188 150.436 10.768 150.436 10.11C150.436 9.816 150.786 9.452 151.36 9.452C152.326 9.452 152.942 10.068 153.292 11.09Z" fill="black"/>
</svg>
