<svg width="352" height="51" viewBox="0 0 352 51" fill="none" xmlns="http://www.w3.org/2000/svg">
<path d="M1.92 4.45V8.31C1.01 8.72 0.87 8.79 0.21 9.01L0.44 9.83C0.69 9.72 1.23 9.47 1.85 9.1C1.58 11.03 0.77 11.9 0.43 12.26L1.11 12.82C1.57 12.27 2.72 10.93 2.72 7.88V5.2H9.66V4.45H5.94V3.57H5.12V4.45H1.92ZM1.62 6.88C1.47 6.25 1.3 5.75 0.94 5.11L0.27 5.45C0.42 5.72 0.7 6.22 0.9 7.24L1.62 6.88ZM9.44 6.25H3.11V6.98H5.92V11.85H4.51V7.93H3.68V11.85H2.38V12.6H9.61V11.85H6.73V9.56H9.12V8.83H6.73V6.98H9.44V6.25ZM20.105 12C19.485 11.61 17.755 10.51 17.125 7.06H19.985V6.26H17.085V3.57H16.225V6.26H13.735V7.06H16.195C16.155 7.59 16.045 8.12 15.905 8.64C15.465 10.29 14.725 11.29 13.495 12.08L13.965 12.83C15.735 11.58 16.395 10.06 16.765 8.72C17.255 10.16 17.955 11.73 19.625 12.79L20.105 12ZM12.475 3.57V8.67C11.725 9.22 10.855 9.7 10.565 9.86L10.815 10.75C11.225 10.55 12.105 10 12.475 9.68V12.83H13.305V3.57H12.475ZM12.175 6.83C11.995 6.15 11.685 5.43 11.355 4.84L10.635 5.16C11.025 5.9 11.195 6.32 11.425 7.15L12.175 6.83ZM19.505 5.39C19.345 5.13 18.945 4.45 18.255 3.73L17.625 4.15C18.115 4.67 18.595 5.42 18.815 5.81L19.505 5.39ZM24.61 12.88C25.26 12.68 26.79 12.15 27.47 10.4C27.73 11.04 28.48 12.28 30.14 12.85L30.54 12.1C29.83 11.87 28.7 11.44 28.08 10.03H30.04V7.26H27.79V6.34H29.19V5.97C29.47 6.18 29.72 6.34 30.13 6.58L30.57 5.86C28.87 5 28.27 4.2 27.88 3.54H26.9C26.13 4.65 25.43 5.27 24.27 5.87L24.67 6.59C24.93 6.46 25.21 6.31 25.66 5.98V6.34H27V7.26H24.75V10.03H26.78C26.34 11.58 24.66 12.03 24.2 12.15L24.61 12.88ZM27.79 7.95H29.27V9.34H27.73C27.77 9.07 27.79 8.81 27.79 8.18V7.95ZM27 8.2C27 8.78 26.98 9.07 26.94 9.34H25.54V7.95H27V8.2ZM26.05 5.65C26.63 5.12 27.15 4.45 27.39 4.15C27.63 4.46 28.15 5.13 28.78 5.65H26.05ZM24.58 8.61C23.81 7.78 23.45 7 23.31 6.64V6.26H24.18V5.5H23.31V3.56H22.52V5.5H21.12V6.26H22.46C21.94 8.38 21.32 9.18 20.95 9.66L21.3 10.65C21.87 9.87 22.27 8.98 22.52 8.04V12.84H23.31V7.84C23.55 8.44 23.78 8.81 24.17 9.36L24.58 8.61ZM37.275 6.81C37.005 7.12 36.615 7.59 35.545 8.56C35.435 8.47 35.245 8.32 34.755 8C34.795 7.96 35.505 7.35 36.025 6.66H39.755V7.84H40.585V5.94H36.535V5.09H40.585V4.35H36.535V3.58H35.715V4.35H31.705V5.09H35.715V5.94H31.665V7.84H32.485V6.66H34.965C34.785 6.91 34.625 7.13 34.125 7.6C33.765 7.37 33.655 7.32 33.465 7.22L32.955 7.83C34.015 8.34 34.805 8.92 34.985 9.07C34.895 9.15 34.825 9.21 34.635 9.36C34.185 9.37 32.005 9.39 31.515 9.38L31.575 10.15C32.165 10.15 35.065 10.09 35.715 10.08V12.82H36.545V10.04L39.395 9.89C39.755 10.24 39.915 10.44 40.075 10.65L40.645 10.08C40.365 9.75 39.715 8.97 38.365 7.99L37.785 8.51C38.025 8.68 38.185 8.79 38.715 9.25C36.685 9.32 36.455 9.33 35.765 9.36C37.045 8.24 37.455 7.87 37.985 7.27L37.275 6.81ZM31.975 12.72C32.505 12.46 33.645 11.88 34.565 10.8L33.915 10.35C33.035 11.36 31.745 11.93 31.455 12.06L31.975 12.72ZM37.545 10.76C38.015 11.25 38.765 11.98 40.305 12.67L40.815 11.96C39.655 11.52 38.905 11.05 38.125 10.28L37.545 10.76ZM46.96 5.63H50.11V4.76H42.88V5.63H46.01V10.77H42.34V11.66H50.65V10.77H46.96V5.63ZM56.555 5.98C56.295 5.82 55.195 5.11 53.425 4.58L52.975 5.38C54.415 5.83 55.465 6.42 56.055 6.82L56.555 5.98ZM53.365 12.16C59.125 11.78 60.725 7.11 61.205 5.69L60.425 5.11C59.735 7.35 58.245 10.89 53.185 11.16L53.365 12.16ZM67.34 5.33C66.55 4.95 65.57 4.5 64.41 4.24L64.05 5C65.08 5.29 66.04 5.65 66.96 6.16L67.34 5.33ZM66.52 7.67C65.75 7.22 64.55 6.76 63.63 6.54L63.28 7.33C64.72 7.75 65.63 8.22 66.15 8.52L66.52 7.67ZM68.95 3.69C69.41 4.48 69.55 4.82 69.82 5.65L70.52 5.3C70.19 4.42 70 3.96 69.6 3.36L68.95 3.69ZM70.62 3.59C71.05 4.35 71.21 4.77 71.46 5.57L72.17 5.23C71.87 4.33 71.6 3.79 71.28 3.28L70.62 3.59ZM64.02 12.22C68.1 11.69 70.04 10.15 71.34 6.44L70.56 5.87C69.46 9.34 67.78 10.85 63.8 11.24L64.02 12.22ZM77.305 5.98C77.045 5.82 75.945 5.11 74.175 4.58L73.725 5.38C75.165 5.83 76.215 6.42 76.805 6.82L77.305 5.98ZM74.115 12.16C79.875 11.78 81.475 7.11 81.955 5.69L81.175 5.11C80.485 7.35 78.995 10.89 73.935 11.16L74.115 12.16ZM90.83 12.81V4.24H92.75V3.44H90.03V12.81H90.83ZM100.055 10.67C100.645 8.18 100.845 5.66 100.915 4.88H95.385V5.77H99.895C99.835 6.49 99.645 8.6 99.095 10.67H94.115V11.56H102.585V10.67H100.055ZM106.3 4.25H105.38V10.58C105.38 11.85 106 12.1 107.49 12.1H110.29C110.92 12.1 111.87 12.07 112.48 11.97L112.43 11.07C111.79 11.19 110.99 11.23 110.19 11.23H107.62C106.48 11.23 106.3 11.15 106.3 10.43V8.22C107.35 8 109.18 7.54 111.37 6.54L110.96 5.7C109.46 6.47 108.08 6.94 106.3 7.35V4.25ZM110.65 3.95C111.1 4.64 111.33 5.08 111.63 5.87L112.31 5.47C111.99 4.73 111.74 4.22 111.29 3.59L110.65 3.95ZM112.18 3.48C112.68 4.24 112.85 4.6 113.15 5.4L113.83 5.01C113.54 4.3 113.26 3.72 112.82 3.12L112.18 3.48ZM114.825 7.72V8.67H123.425V7.72H114.825ZM126.67 3.59V12.16H124.75V12.96H127.47V3.59H126.67ZM142.075 5.73L142.055 4.04H141.145L141.175 5.73H138.175V6.59H141.195L141.235 8.95C140.955 8.87 140.705 8.8 140.205 8.8C138.935 8.8 138.015 9.51 138.015 10.55C138.015 11.36 138.595 12.27 140.155 12.27C142.065 12.27 142.075 11.14 142.075 10.57V10.2C142.625 10.55 143.125 10.97 143.525 11.5L144.115 10.69C143.655 10.2 142.915 9.63 142.105 9.23L142.075 6.59H143.945V5.73H142.075ZM141.235 10.39C141.235 10.93 141.195 11.52 140.105 11.52C139.575 11.52 138.815 11.33 138.815 10.56C138.815 9.81 139.545 9.55 140.215 9.55C140.725 9.55 141.005 9.67 141.235 9.77V10.39ZM136.265 4.02C135.995 5.58 135.895 7.03 135.895 8.61C135.895 9.84 135.935 11.08 136.175 12.29L137.075 12.17C136.815 11.03 136.765 9.85 136.765 8.68C136.765 6.44 137.005 5.09 137.195 4.09L136.265 4.02ZM153.08 12.81V4.24H155V3.44H152.28V12.81H153.08ZM161.395 3.56V4.19H158.405V4.87H159.865C159.895 4.95 160.075 5.62 160.115 5.78H158.735V11.31H159.495V6.43H161.435V7.18H159.805V7.8H161.435V8.49H160.165V10.56H163.445V8.49H162.165V7.8H163.785V7.18H162.165V6.43H164.095V10.44C164.095 10.67 164.005 10.69 163.875 10.69L162.945 10.68L163.055 11.44H164.115C164.635 11.44 164.855 11.15 164.855 10.67V5.78H163.395C163.535 5.44 163.615 5.21 163.715 4.87H165.225V4.19H162.205V3.56H161.395ZM160.835 5.78C160.745 5.39 160.735 5.34 160.615 4.87H162.985C162.955 5 162.805 5.52 162.695 5.78H160.835ZM162.755 9.95H160.845V9.09H162.755V9.95ZM160.205 11.83C159.915 11.83 158.095 11.69 157.895 10.47V7.44H156.025V8.26H157.105V11.08C156.665 11.55 156.095 11.92 155.915 12.03L156.315 12.88C157.025 12.26 157.075 12.2 157.715 11.47C157.935 11.76 158.555 12.6 160.195 12.6H165.195L165.355 11.83H160.205ZM158.255 5.36C157.775 4.69 157.195 4.1 156.725 3.7L156.175 4.2C157.075 5.08 157.425 5.62 157.605 5.89L158.255 5.36ZM167.27 6.36L166.24 6.53L166.29 7.34L167.27 7.18V10.38C167.27 10.86 167.52 11.11 167.99 11.11H169.16C169.98 11.11 170.17 10.32 170.33 9.01L169.52 8.82C169.5 9.2 169.43 10.34 169 10.34H168.38C168.13 10.34 168.08 10.27 168.08 10.05V7.05L170.28 6.69L170.23 5.87L168.08 6.22V3.57H167.27V6.36ZM170 4V4.81H171.79C171.79 8.32 171.47 10.57 168.55 12.13L169.13 12.85C171.9 11.16 172.59 9.18 172.63 4.81H174.52C174.52 5.95 174.52 10.85 173.99 11.71C173.82 11.99 173.49 11.98 173.39 11.98L171.9 11.97L172.08 12.82H173.53C174.42 12.82 174.69 12.36 174.81 12.11C175.36 10.93 175.36 6.44 175.36 4H170ZM183.665 6.74H182.765L182.825 8.88C182.605 8.83 182.285 8.76 181.785 8.76C180.015 8.76 179.435 9.87 179.435 10.62C179.435 11.55 180.175 12.38 181.675 12.38C182.665 12.38 183.675 12.02 183.675 10.54V10.13C184.035 10.34 184.645 10.71 185.295 11.49L185.845 10.7C185.355 10.16 184.555 9.54 183.715 9.17L183.665 6.74ZM182.845 10.38C182.845 11.06 182.695 11.6 181.705 11.6C181.515 11.6 180.285 11.6 180.285 10.59C180.285 10.03 180.765 9.52 181.785 9.52C182.315 9.52 182.615 9.63 182.845 9.71V10.38ZM179.875 5.2C180.005 4.47 180.015 4.41 180.095 3.93L179.145 3.89C179.105 4.29 179.075 4.51 178.965 5.2H177.115V6.04H178.805C178.545 7.16 178.105 9.12 177.035 10.84L177.955 11.24C178.315 10.5 179.135 8.83 179.705 6.04H181.975V5.2H179.875ZM185.675 5.98C184.615 5.39 183.945 5.09 182.945 4.74L182.595 5.48C183.495 5.81 184.245 6.17 185.255 6.78L185.675 5.98ZM188.24 8.17C188.94 7.73 189.22 7.45 189.51 7.16C190.98 7.9 191.86 8.52 192.69 9.23C191.55 10.48 190 11.22 188.36 11.61L188.79 12.44C194.79 10.88 195.31 6.1 195.49 4.47H190.32C189.72 5.8 188.84 6.73 187.65 7.47L188.24 8.17ZM194.46 5.3C194.23 6.85 193.77 7.77 193.24 8.55C192.25 7.7 191.1 7.08 190.06 6.56C190.33 6.23 190.51 6 190.92 5.3H194.46ZM203.195 7.06C204.595 5.94 205.425 4.97 205.865 4.45L205.025 3.9C203.165 6.24 200.705 8.05 197.855 8.94L198.295 9.77C199.575 9.32 200.875 8.72 202.235 7.77V12.43H203.195V7.06ZM215.87 5.01C213.54 4.48 211.74 4.26 209.33 4.12L209.18 4.95C211.66 5.08 213.61 5.37 215.7 5.93L215.87 5.01ZM215.35 8.04C213.69 7.54 212.1 7.2 209.28 6.99L209.11 7.82C211.61 8.01 213.23 8.29 215.19 8.91L215.35 8.04ZM216.28 11.43C215.18 11.11 212.66 10.37 208.69 10.17L208.51 11.02C212.07 11.29 213.9 11.69 216.03 12.38L216.28 11.43ZM222.555 5.98C222.295 5.82 221.195 5.11 219.425 4.58L218.975 5.38C220.415 5.83 221.465 6.42 222.055 6.82L222.555 5.98ZM219.365 12.16C225.125 11.78 226.725 7.11 227.205 5.69L226.425 5.11C225.735 7.35 224.245 10.89 219.185 11.16L219.365 12.16ZM229.73 12.52C233.29 11.72 235.38 9.74 236.21 5.93L235.28 4.7H231.28C230.58 6.1 229.56 6.96 228.78 7.49L229.35 8.17C230.48 7.41 231.22 6.59 231.88 5.54H235.35C234.78 8.55 233.23 10.9 229.35 11.67L229.73 12.52ZM236.63 3.5C237.15 4.21 237.35 4.61 237.69 5.38L238.33 4.96C237.91 4.12 237.74 3.77 237.23 3.12L236.63 3.5ZM235.3 3.89C235.79 4.54 236.04 4.97 236.39 5.75L237.02 5.32C236.6 4.49 236.4 4.13 235.89 3.5L235.3 3.89ZM245.015 7C245.485 7.66 245.735 8.13 246.065 8.93L246.765 8.49C246.415 7.73 246.125 7.19 245.665 6.6L245.015 7ZM246.495 6.36C246.975 7.05 247.205 7.48 247.545 8.29L248.245 7.85C247.885 7.07 247.625 6.58 247.145 5.96L246.495 6.36ZM247.715 4.48C245.425 4.49 244.485 4.51 242.115 4.64C241.605 4.67 239.875 4.75 239.385 4.76L239.465 5.74C240.555 5.61 244.015 5.4 244.305 5.39C243.125 6.08 241.375 7.39 241.375 9.29C241.375 12.09 244.695 12.23 246.665 12.31L246.845 11.34C245.955 11.37 244.965 11.29 244.325 11.16C243.265 10.94 242.305 10.53 242.305 9.23C242.305 7.51 244.265 5.96 245.705 5.48C246.005 5.38 246.225 5.36 246.715 5.36C246.995 5.36 247.305 5.37 247.735 5.4L247.715 4.48ZM254.25 12.31C255.36 12.2 256.36 11.86 257.01 11.32C257.92 10.56 258.35 9.38 258.35 8.19C258.35 6.5 257.48 4.26 254.24 4.26C251.6 4.26 249.62 6 249.62 8.72C249.62 10.37 250.44 11.53 251.42 11.53C251.87 11.53 252.51 11.3 253.1 10.37C254.13 8.72 254.33 6.26 254.42 5.1C257.17 5.19 257.41 7.39 257.41 8.18C257.41 11.04 254.98 11.33 253.95 11.44L254.25 12.31ZM253.53 5.14C253.43 6.29 253.27 8.32 252.43 9.76C252.17 10.2 251.87 10.57 251.45 10.57C250.74 10.57 250.49 9.42 250.49 8.74C250.49 7.58 250.95 6.46 251.88 5.78C252.39 5.4 252.94 5.25 253.53 5.14ZM265.145 3.56V4.19H262.155V4.87H263.615C263.645 4.95 263.825 5.62 263.865 5.78H262.485V11.31H263.245V6.43H265.185V7.18H263.555V7.8H265.185V8.49H263.915V10.56H267.195V8.49H265.915V7.8H267.535V7.18H265.915V6.43H267.845V10.44C267.845 10.67 267.755 10.69 267.625 10.69L266.695 10.68L266.805 11.44H267.865C268.385 11.44 268.605 11.15 268.605 10.67V5.78H267.145C267.285 5.44 267.365 5.21 267.465 4.87H268.975V4.19H265.955V3.56H265.145ZM264.585 5.78C264.495 5.39 264.485 5.34 264.365 4.87H266.735C266.705 5 266.555 5.52 266.445 5.78H264.585ZM266.505 9.95H264.595V9.09H266.505V9.95ZM263.955 11.83C263.665 11.83 261.845 11.69 261.645 10.47V7.44H259.775V8.26H260.855V11.08C260.415 11.55 259.845 11.92 259.665 12.03L260.065 12.88C260.775 12.26 260.825 12.2 261.465 11.47C261.685 11.76 262.305 12.6 263.945 12.6H268.945L269.105 11.83H263.955ZM262.005 5.36C261.525 4.69 260.945 4.1 260.475 3.7L259.925 4.2C260.825 5.08 261.175 5.62 261.355 5.89L262.005 5.36ZM271.02 6.36L269.99 6.53L270.04 7.34L271.02 7.18V10.38C271.02 10.86 271.27 11.11 271.74 11.11H272.91C273.73 11.11 273.92 10.32 274.08 9.01L273.27 8.82C273.25 9.2 273.18 10.34 272.75 10.34H272.13C271.88 10.34 271.83 10.27 271.83 10.05V7.05L274.03 6.69L273.98 5.87L271.83 6.22V3.57H271.02V6.36ZM273.75 4V4.81H275.54C275.54 8.32 275.22 10.57 272.3 12.13L272.88 12.85C275.65 11.16 276.34 9.18 276.38 4.81H278.27C278.27 5.95 278.27 10.85 277.74 11.71C277.57 11.99 277.24 11.98 277.14 11.98L275.65 11.97L275.83 12.82H277.28C278.17 12.82 278.44 12.36 278.56 12.11C279.11 10.93 279.11 6.44 279.11 4H273.75ZM287.415 6.74H286.515L286.575 8.88C286.355 8.83 286.035 8.76 285.535 8.76C283.765 8.76 283.185 9.87 283.185 10.62C283.185 11.55 283.925 12.38 285.425 12.38C286.415 12.38 287.425 12.02 287.425 10.54V10.13C287.785 10.34 288.395 10.71 289.045 11.49L289.595 10.7C289.105 10.16 288.305 9.54 287.465 9.17L287.415 6.74ZM286.595 10.38C286.595 11.06 286.445 11.6 285.455 11.6C285.265 11.6 284.035 11.6 284.035 10.59C284.035 10.03 284.515 9.52 285.535 9.52C286.065 9.52 286.365 9.63 286.595 9.71V10.38ZM283.625 5.2C283.755 4.47 283.765 4.41 283.845 3.93L282.895 3.89C282.855 4.29 282.825 4.51 282.715 5.2H280.865V6.04H282.555C282.295 7.16 281.855 9.12 280.785 10.84L281.705 11.24C282.065 10.5 282.885 8.83 283.455 6.04H285.725V5.2H283.625ZM289.425 5.98C288.365 5.39 287.695 5.09 286.695 4.74L286.345 5.48C287.245 5.81 287.995 6.17 289.005 6.78L289.425 5.98ZM296.26 8C296.33 7.57 296.36 7.24 296.36 6.66H299.11V5.93H294.55C294.69 5.66 294.77 5.49 294.93 5.09L294.13 4.92C293.82 5.89 293.23 6.62 292.52 7.19L293.15 7.73C293.54 7.38 293.77 7.13 294.11 6.66H295.58C295.58 7.38 295.53 7.69 295.48 8H292.57V8.74H295.24C294.53 10.21 292.94 10.6 292.44 10.72L292.92 11.45C294.06 11.07 295.34 10.42 296 8.9C296.25 9.47 297.05 10.74 299.31 11.44L299.75 10.67C298.13 10.31 297.07 9.38 296.73 8.74H299.53V8H296.26ZM291.2 3.89V12.63H300.08V11.87H292.05V4.66H299.87V3.89H291.2ZM309.455 8.42C309.765 8.61 309.955 8.7 310.225 8.83L310.605 8.16C310.325 8.06 310.055 7.96 309.605 7.71C309.625 7.68 309.975 7.34 310.285 6.94L309.725 6.6C309.615 6.75 309.375 7.05 309.085 7.36C308.605 6.99 308.355 6.66 308.155 6.41H310.485V5.78H306.845C306.915 5.64 306.955 5.54 307.055 5.29L306.265 5.2C306.185 5.43 306.135 5.56 306.035 5.78H303.635V6.41H305.655C305.375 6.78 305.125 7.04 304.815 7.29C304.725 7.19 304.445 6.88 304.125 6.64L303.665 7.06C303.945 7.28 303.975 7.31 304.305 7.66C303.965 7.89 303.705 8.02 303.355 8.19L303.795 8.79C304.015 8.66 304.085 8.62 304.295 8.49V10.57H306.445V11.86C306.445 12.06 306.415 12.1 306.215 12.1H305.265L305.435 12.82H306.515C306.825 12.82 307.255 12.8 307.255 12.18V10.57H309.455V8.42ZM308.725 8.81H305.025V8.21H308.725V8.81ZM305.435 7.63C306.085 7.04 306.365 6.6 306.485 6.41H307.335C307.555 6.73 307.805 7.11 308.385 7.63H305.435ZM308.725 9.99H305.025V9.36H308.725V9.99ZM302.525 7.76C302.525 8.04 302.515 8.23 302.515 8.39C302.015 8.64 301.785 8.75 301.095 9.02L301.265 9.84C301.565 9.69 301.945 9.5 302.445 9.17C302.225 11.03 301.675 11.75 301.225 12.31L301.835 12.85C302.235 12.37 303.315 11.08 303.315 7.79V5.07H310.515V4.37H306.795V3.56H305.975V4.37H302.525V7.76ZM302.315 6.9C302.215 6.39 302.005 5.69 301.715 5.12L301.095 5.42C301.325 5.99 301.505 6.63 301.615 7.23L302.315 6.9ZM303.375 12.67C304.045 12.42 304.665 12.09 305.515 11.26L304.935 10.78C304.225 11.46 303.735 11.73 302.935 12L303.375 12.67ZM308.065 11.27C308.605 11.88 309.455 12.41 310.225 12.68L310.665 12C309.735 11.67 309.315 11.43 308.595 10.74L308.065 11.27ZM319.57 6.26C318.02 6.51 317.2 6.67 316.12 7C315.91 6.57 315.86 6.04 315.86 4.98C315.86 4.49 315.87 4.21 315.88 3.94H314.9C314.93 6.07 314.95 6.65 315.28 7.3C314.58 7.6 312.52 8.46 312.52 10.17C312.52 12.3 315.29 12.3 317.02 12.3C318.46 12.3 319.34 12.24 319.99 12.2L319.97 11.26C319.4 11.32 318.47 11.41 316.82 11.41C314.67 11.41 313.45 11.3 313.45 10.14C313.45 7.92 318.85 7.31 319.66 7.22L319.57 6.26ZM326.875 12.31C327.985 12.2 328.985 11.86 329.635 11.32C330.545 10.56 330.975 9.38 330.975 8.19C330.975 6.5 330.105 4.26 326.865 4.26C324.225 4.26 322.245 6 322.245 8.72C322.245 10.37 323.065 11.53 324.045 11.53C324.495 11.53 325.135 11.3 325.725 10.37C326.755 8.72 326.955 6.26 327.045 5.1C329.795 5.19 330.035 7.39 330.035 8.18C330.035 11.04 327.605 11.33 326.575 11.44L326.875 12.31ZM326.155 5.14C326.055 6.29 325.895 8.32 325.055 9.76C324.795 10.2 324.495 10.57 324.075 10.57C323.365 10.57 323.115 9.42 323.115 8.74C323.115 7.58 323.575 6.46 324.505 5.78C325.015 5.4 325.565 5.25 326.155 5.14ZM333.07 4.3V7.97H336.57V11.87H333.57V8.74H332.73V12.64H341.26V8.74H340.41V11.87H337.41V7.97H340.93V4.3H340.08V7.2H337.41V3.56H336.57V7.2H333.92V4.3H333.07ZM6.11 26.9C6.89 27.69 7.39 28.32 7.49 28.45C6.75 28.52 5.72 28.61 4.5 28.66C4.29 28.67 3.17 28.7 2.92 28.71C3.57 27.56 3.97 26.69 4.21 26.14H9.43V25.37H0.5V26.14H3.24C3.02 26.72 2.64 27.65 2.01 28.73H0.63L0.72 29.55C2.26 29.55 6.34 29.37 8.01 29.13C8.22 29.44 8.34 29.63 8.5 29.9L9.22 29.42C8.45 28.2 7.84 27.5 6.77 26.45L6.11 26.9ZM7.65 23.53C8.36 24.01 8.92 24.27 9.36 24.47L9.8 23.67C8.06 23.05 6.47 21.84 5.43 20.45H4.54C4.27 20.85 3.15 22.47 0.17 23.64L0.58 24.45C0.92 24.31 1.47 24.07 2.36 23.52V24.08H7.65V23.53ZM2.67 23.32C3.51 22.74 4.36 22.04 4.99 21.16C5.34 21.6 5.92 22.32 7.33 23.32H2.67ZM11.505 21.41C11.445 22.09 11.345 23.18 11.345 24.27C11.345 26.87 11.795 29.11 13.415 29.11C13.925 29.11 14.295 28.87 14.535 28.63C15.095 28.07 15.555 27.23 15.885 26.3L15.145 25.88C14.455 27.68 13.935 28.09 13.485 28.09C12.365 28.09 12.245 25.9 12.245 24.35C12.245 23 12.375 22.09 12.455 21.49L11.505 21.41ZM19.565 28.12C19.705 24.12 18.675 22.71 17.485 21.71L16.795 22.24C17.835 23.09 18.615 24.53 18.615 27.14C18.615 27.6 18.595 27.9 18.575 28.16L19.565 28.12ZM22.92 20.59V29.16H21V29.96H23.72V20.59H22.92ZM36.375 29.31C37.485 29.2 38.485 28.86 39.135 28.32C40.045 27.56 40.475 26.38 40.475 25.19C40.475 23.5 39.605 21.26 36.365 21.26C33.725 21.26 31.745 23 31.745 25.72C31.745 27.37 32.565 28.53 33.545 28.53C33.995 28.53 34.635 28.3 35.225 27.37C36.255 25.72 36.455 23.26 36.545 22.1C39.295 22.19 39.535 24.39 39.535 25.18C39.535 28.04 37.105 28.33 36.075 28.44L36.375 29.31ZM35.655 22.14C35.555 23.29 35.395 25.32 34.555 26.76C34.295 27.2 33.995 27.57 33.575 27.57C32.865 27.57 32.615 26.42 32.615 25.74C32.615 24.58 33.075 23.46 34.005 22.78C34.515 22.4 35.065 22.25 35.655 22.14ZM44.98 24.7C45.23 24.57 45.53 24.42 46.02 24.05V25.21H49.9V24.09C50.25 24.36 50.56 24.54 51.01 24.74L51.33 24.09C50.24 23.6 49.86 23.27 49.37 22.57H51.11V21.95H47.76C47.8 21.87 47.87 21.74 48.03 21.36C48.49 21.33 49.79 21.23 50.54 21.08L50.2 20.48C49.37 20.65 48.03 20.86 45.11 20.85L45.27 21.45C45.65 21.45 46.01 21.45 47.23 21.4C47.18 21.5 47.12 21.63 46.95 21.95H44.87V22.57H46.55C45.87 23.48 44.99 23.89 44.61 24.07L44.98 24.7ZM48.58 22.57C48.71 22.79 48.86 23.04 49.15 23.39H46.75C47.01 23.11 47.18 22.91 47.4 22.57H48.58ZM49.26 24.66H46.65V23.94H49.26V24.66ZM50.84 25.7H45.07V29.84H45.82V26.31H50.07V28.74C50.07 29.1 50.04 29.16 49.7 29.15L49.05 29.14L49.19 29.84H50C50.45 29.84 50.84 29.79 50.84 29.15V25.7ZM48.83 28.33H47.08V27.42H48.83V28.33ZM44.99 25.46C44.35 24.7 44.06 24.05 43.92 23.69V23.27H44.82V22.51H43.92V20.56H43.15V22.51H41.88V23.27H43.12C42.86 24.59 42.23 25.76 41.75 26.43L42.11 27.39C42.36 27.02 42.76 26.4 43.15 25.14V29.84H43.92V24.92C44.08 25.32 44.12 25.42 44.55 26.08L44.99 25.46ZM49.5 26.86H46.4V28.91H49.5V26.86ZM54.905 21.31V25.04C54.905 27.57 54.085 28.67 53.705 29.18L54.355 29.81C54.575 29.49 55.155 28.66 55.435 27.4C55.585 26.71 55.705 25.74 55.705 25.05V23.69H56.855V25.26H60.075V23.69H61.415V23H60.075V22.3H59.335V23H57.595V22.3H56.855V23H55.705V22.05H61.495V21.31H58.615V20.56H57.805V21.31H54.905ZM52.535 21.3C52.915 21.48 53.675 21.91 54.055 22.31L54.565 21.57C53.865 21.06 53.425 20.83 52.995 20.65L52.535 21.3ZM59.335 23.69V24.61H57.595V23.69H59.335ZM61.615 29.06C61.215 28.99 60.385 28.83 59.315 28.39C60.335 27.65 60.715 26.88 60.885 26.53V25.84H55.995V26.55H60.015C59.815 26.86 59.425 27.45 58.505 27.99C57.625 27.46 57.245 26.98 57.045 26.74L56.395 27.09C56.585 27.34 56.955 27.8 57.735 28.37C56.565 28.86 55.695 28.99 55.215 29.06L55.575 29.86C56.805 29.59 57.695 29.29 58.515 28.86C59.755 29.54 60.765 29.74 61.285 29.84L61.615 29.06ZM52.085 23.95C52.625 24.21 53.175 24.56 53.635 24.96L54.135 24.27C53.795 23.99 53.135 23.54 52.545 23.28L52.085 23.95ZM53.495 25.88C53.285 26.65 52.805 27.95 52.055 29.06L52.685 29.76C53.665 28.21 54.055 26.78 54.175 26.29L53.495 25.88ZM64.4 21.02C64.39 21.7 64.33 25.02 64.33 25.77C64.33 27.51 64.51 29.34 67.25 29.34C70.29 29.34 70.94 27.28 71.26 25.47L70.42 25.16C70.14 26.68 69.81 28.48 67.22 28.48C65.34 28.48 65.28 27.14 65.28 25.86C65.28 24.91 65.32 23.72 65.41 21.02H64.4ZM74.235 21.11C73.915 22.61 73.815 24.21 73.815 25.86C73.815 27.77 73.985 28.77 74.075 29.35L75.045 29.27C74.965 28.91 74.735 27.95 74.735 25.72C74.735 23.2 75.035 21.89 75.185 21.19L74.235 21.11ZM76.705 21.92V22.8H81.405V21.92H76.705ZM76.925 25.23C76.575 25.82 76.395 26.39 76.395 26.91C76.395 28.63 78.245 28.77 79.725 28.77C80.575 28.77 81.275 28.71 81.615 28.68V27.74C80.695 27.84 79.875 27.86 79.325 27.86C78.255 27.86 77.235 27.74 77.235 26.83C77.235 26.74 77.245 26.17 77.735 25.48L76.925 25.23ZM88.51 23.47H91.89V22.57L88.51 22.6L88.5 20.94H87.56L87.6 25.65C87.35 25.62 87.16 25.59 86.83 25.59C85.4 25.59 83.99 26.18 83.99 27.55C83.99 28.53 84.73 29.35 86.38 29.35C88.46 29.35 88.53 28.07 88.52 27.48L88.51 26.79C89.73 27.26 90.89 28.16 91.5 28.84L92.15 27.98C91.66 27.47 90.49 26.51 88.52 25.84L88.51 23.47ZM87.61 27.42C87.61 27.83 87.51 28.52 86.37 28.52C86.15 28.52 84.88 28.52 84.88 27.56C84.88 26.75 85.83 26.41 86.69 26.41C87.11 26.41 87.41 26.47 87.62 26.51L87.61 27.42ZM97.235 29.03C98.035 29.02 98.895 28.95 99.675 28.7C101.585 28.1 101.805 26.53 101.805 25.93C101.805 24.53 100.825 23.47 99.115 23.47C98.585 23.47 97.885 23.57 97.265 23.67C96.925 23.73 95.265 24.03 94.885 24.09L95.035 24.97C96.575 24.58 98.275 24.25 99.075 24.25C100.055 24.25 100.925 24.75 100.925 25.96C100.925 28.28 97.845 28.26 97.015 28.25L97.235 29.03ZM112.84 21.48C110.38 21.5 109.46 21.52 107.22 21.64C106.71 21.67 105.11 21.74 104.51 21.76L104.59 22.74C105.68 22.61 109.14 22.4 109.43 22.39C108.25 23.08 106.5 24.39 106.5 26.29C106.5 29.09 109.82 29.23 111.79 29.31L111.97 28.34C111.11 28.37 110.15 28.31 109.45 28.16C108.39 27.94 107.43 27.53 107.43 26.23C107.43 24.51 109.39 22.96 110.83 22.48C111.13 22.38 111.34 22.36 111.84 22.36C112.23 22.36 112.52 22.37 112.86 22.4L112.84 21.48ZM117.355 28.91C116.935 28.34 116.225 27.5 115.575 26.9L114.815 27.46C115.145 27.81 115.765 28.46 116.475 29.53L117.355 28.91ZM129.67 29.49C131.8 28.73 132.31 27.06 132.55 26.08C133.05 26.3 133.22 26.39 133.67 26.66L133.97 25.76C133.35 25.42 132.77 25.2 132.74 25.19C132.89 24.39 132.97 23.52 133.04 22.8L132.09 22.73C132.07 23.19 132.02 23.9 131.87 24.88C130.96 24.58 130.3 24.42 129.46 24.35C129.79 22.38 129.82 22.16 129.95 21.16H125.81V22.03L128.94 22C128.88 22.71 128.75 23.6 128.61 24.32C125.34 24.45 125.16 26.6 125.16 27.09C125.16 28.16 125.86 28.8 126.82 28.8C128.33 28.8 128.77 27.37 129.31 25.14C130.21 25.22 131.06 25.48 131.71 25.73C131.36 27.18 130.84 28.18 129.12 28.8L129.67 29.49ZM128.46 25.09C127.93 27.26 127.66 28.01 126.76 28.01C126 28.01 125.95 27.23 125.95 27.04C125.95 26.36 126.36 25.71 127.01 25.39C127.45 25.17 127.87 25.11 128.46 25.09ZM142.165 23.74H141.265L141.325 25.88C141.105 25.83 140.785 25.76 140.285 25.76C138.515 25.76 137.935 26.87 137.935 27.62C137.935 28.55 138.675 29.38 140.175 29.38C141.165 29.38 142.175 29.02 142.175 27.54V27.13C142.535 27.34 143.145 27.71 143.795 28.49L144.345 27.7C143.855 27.16 143.055 26.54 142.215 26.17L142.165 23.74ZM141.345 27.38C141.345 28.06 141.195 28.6 140.205 28.6C140.015 28.6 138.785 28.6 138.785 27.59C138.785 27.03 139.265 26.52 140.285 26.52C140.815 26.52 141.115 26.63 141.345 26.71V27.38ZM138.375 22.2C138.505 21.47 138.515 21.41 138.595 20.93L137.645 20.89C137.605 21.29 137.575 21.51 137.465 22.2H135.615V23.04H137.305C137.045 24.16 136.605 26.12 135.535 27.84L136.455 28.24C136.815 27.5 137.635 25.83 138.205 23.04H140.475V22.2H138.375ZM144.175 22.98C143.115 22.39 142.445 22.09 141.445 21.74L141.095 22.48C141.995 22.81 142.745 23.17 143.755 23.78L144.175 22.98ZM153.11 26C152.51 25.36 151.93 24.39 151.51 23.38C152.39 23.34 153.25 23.3 154.34 23.07L154.18 22.21C153.18 22.42 152.24 22.54 151.22 22.57C151.09 22.17 150.95 21.52 150.86 20.91L149.91 20.98C149.95 21.22 150.1 21.95 150.3 22.6C150.05 22.61 149.51 22.62 149.09 22.61L146.17 22.56V23.43H149.05C149.2 23.43 149.97 23.42 150.58 23.41C151.12 24.78 151.75 25.86 152.34 26.52L153.11 26ZM148.07 25.18C147.05 25.68 146.62 26.4 146.62 27.13C146.62 27.63 146.81 28.12 147.21 28.48C147.91 29.11 148.9 29.31 150.65 29.31C152.02 29.31 152.9 29.23 153.26 29.19L153.25 28.3C152.63 28.38 151.87 28.47 150.57 28.47C149.14 28.47 147.52 28.34 147.52 27.12C147.52 26.93 147.57 26.31 148.55 25.83L148.07 25.18ZM159.015 20.88C158.775 21.53 158.195 23.13 158.045 23.55C157.815 24.2 157.645 24.68 156.225 29.02L157.165 29.31C157.435 28.3 157.595 27.7 157.945 26.77C158.575 25.48 159.395 25.27 159.795 25.27C160.505 25.27 160.685 25.86 160.685 26.6V27.16C160.685 27.94 160.695 29.35 162.395 29.35C164.685 29.35 164.925 26.67 164.985 25.35L164.115 25.15C164.115 25.73 164.065 26.48 163.785 27.29C163.455 28.24 162.945 28.47 162.455 28.47C161.645 28.47 161.565 27.92 161.565 27.2V26.53C161.565 25.84 161.485 24.42 159.945 24.42C159.395 24.42 159.005 24.61 158.465 25.05C158.735 24.27 159.335 22.63 160.005 21.15L159.015 20.88ZM171.25 29.31C172.36 29.2 173.36 28.86 174.01 28.32C174.92 27.56 175.35 26.38 175.35 25.19C175.35 23.5 174.48 21.26 171.24 21.26C168.6 21.26 166.62 23 166.62 25.72C166.62 27.37 167.44 28.53 168.42 28.53C168.87 28.53 169.51 28.3 170.1 27.37C171.13 25.72 171.33 23.26 171.42 22.1C174.17 22.19 174.41 24.39 174.41 25.18C174.41 28.04 171.98 28.33 170.95 28.44L171.25 29.31ZM170.53 22.14C170.43 23.29 170.27 25.32 169.43 26.76C169.17 27.2 168.87 27.57 168.45 27.57C167.74 27.57 167.49 26.42 167.49 25.74C167.49 24.58 167.95 23.46 168.88 22.78C169.39 22.4 169.94 22.25 170.53 22.14ZM182.865 20.56V21.21H181.565V21.87H182.865V22.65H181.035V23.3H182.865V24.1H181.565V24.74H182.865V25.46H181.425V26.11H182.865V26.86H181.155V27.53H182.865V28.42H183.585V27.53H185.965V26.86H183.585V26.11H185.645V25.46H183.585V24.74H185.515V23.3H185.995V22.65H185.515V21.21H183.585V20.56H182.865ZM184.775 22.65H183.585V21.87H184.775V22.65ZM184.775 24.1H183.585V23.3H184.775V24.1ZM183.345 28.78C181.395 28.78 180.505 27.9 180.445 27.83C180.555 27.54 181.015 26.21 181.055 24.04H179.775C180.215 23.27 180.695 22.44 181.035 21.69V20.94H179.035V21.66H180.225C179.985 22.24 179.335 23.47 178.935 24.03V24.76H180.325C180.305 25.5 180.235 26.28 179.955 27.12C179.625 26.43 179.535 25.79 179.475 25.38L178.795 25.48C178.855 25.85 179.025 27.02 179.605 27.91C179.215 28.55 178.875 28.81 178.595 29.03L179.045 29.77C179.335 29.5 179.695 29.17 180.095 28.52C180.375 28.79 181.365 29.56 183.285 29.56H185.955L186.085 28.78H183.345ZM178.365 22.96C178.715 22 178.855 21.25 178.955 20.67L178.155 20.54C177.955 21.96 177.425 23.69 176.575 24.72L176.965 25.54C177.175 25.32 177.335 25.15 177.595 24.68V29.82H178.365V22.96ZM195.38 26.19C194.87 26.82 194.07 27.44 193.95 27.53C193.28 27.03 192.92 26.56 192.67 26.21V26.12H195.6V24.74H196.39V24.08H195.6V22.75H192.67V22.28H191.89V22.75H189.08V23.4H191.89V24.08H188.64V22.03H196.33V21.29H192.27V20.56H191.44V21.29H187.83V25.45C187.83 26.45 187.75 26.78 187.64 27.36C187.46 28.3 187.16 28.85 186.99 29.14L187.67 29.85C188.55 28.19 188.64 26.26 188.64 25.52V24.74H191.89V25.48H189.08V26.12H191.89V28.8C191.89 28.93 191.87 29.03 191.64 29.03L190.57 29.02L190.73 29.84H191.94C192.45 29.84 192.67 29.54 192.67 29.1V27.24C193.63 28.43 194.94 29.17 196.01 29.57L196.48 28.8C196.12 28.67 195.44 28.43 194.6 27.95C195.27 27.46 195.6 27.16 196.05 26.68L195.38 26.19ZM194.81 23.4V24.08H192.67V23.4H194.81ZM194.81 24.74V25.48H192.67V24.74H194.81ZM189.09 26.78C189.74 27.08 190.05 27.28 190.49 27.69L191.02 27.08C190.51 26.68 190.18 26.5 189.54 26.2L189.09 26.78ZM191.42 27.49C191.08 27.65 189.58 28.34 188.43 28.7L188.74 29.42C190.87 28.53 191.11 28.43 191.55 28.19L191.42 27.49ZM202.125 24.17C201.565 24.17 201.095 24.62 201.095 25.2C201.095 25.76 201.545 26.23 202.125 26.23C202.705 26.23 203.155 25.75 203.155 25.2C203.155 24.64 202.695 24.17 202.125 24.17ZM216.64 29.06C216.06 28.72 215.08 28.16 213.81 27.63C214.2 27.23 214.86 26.48 215.34 24.95H217.11V24.16H211.69C212.05 23.43 212.18 23.1 212.29 22.83L211.37 22.66C211.25 23.01 211.08 23.48 210.73 24.16H207.89V24.95H210.3C209.75 25.9 209.26 26.48 208.96 26.83C210.52 27.26 211.41 27.56 212.22 27.88C210.97 28.57 209.47 28.82 208.13 28.94L208.42 29.82C211.02 29.55 212.56 28.64 213.11 28.24C214.75 28.95 215.64 29.54 216.09 29.84L216.64 29.06ZM214.46 24.95C214.35 25.28 213.97 26.43 213.01 27.31C212.01 26.93 211.01 26.64 210.29 26.43C210.49 26.17 210.78 25.79 211.26 24.95H214.46ZM208.13 21.46V23.64H208.98V22.23H216.03V23.64H216.88V21.46H212.91V20.56H212.05V21.46H208.13ZM225.825 23.87C226.445 24.26 226.895 24.46 227.245 24.62L227.665 23.8C225.825 23.13 224.345 21.93 223.335 20.57H222.425C221.315 22.12 219.675 23.2 218.085 23.81L218.505 24.63C218.865 24.46 219.285 24.27 219.965 23.86V24.62H222.455V26.14H219.275V26.89H222.455V28.78H218.295V29.58H227.455V28.78H223.305V26.89H226.505V26.14H223.305V24.62H225.825V23.87ZM219.975 23.85C221.085 23.18 222.065 22.3 222.875 21.28C223.945 22.61 225.175 23.45 225.795 23.85H219.975ZM232.56 21.89C232.7 21.39 232.75 21.16 232.81 20.81L231.85 20.77C231.78 21.34 231.71 21.63 231.64 21.89H229.34V22.69H231.4C230.76 24.56 229.96 25.62 229.08 26.45L229.7 27.12C230.02 26.79 230.68 25.91 231.14 25.28C231.84 24.57 232.57 24.26 233.12 24.26C233.58 24.26 233.86 24.46 233.97 25.05C232.98 25.49 231.19 26.39 231.19 27.75C231.19 29.36 233.45 29.36 234.58 29.36C235.53 29.36 236.4 29.3 236.97 29.26L236.94 28.4C236.04 28.5 235.1 28.54 234.3 28.54C233.2 28.54 232.09 28.54 232.09 27.66C232.09 26.84 233.3 26.2 234.07 25.84C234.09 26.1 234.09 26.27 234.09 26.44C234.09 26.8 234.06 27.17 234.04 27.4H234.91C234.94 27.08 234.94 26.78 234.94 26.64C234.94 26.28 234.93 25.85 234.9 25.5C236 25.08 236.71 24.86 237.52 24.63L237.28 23.76C236.38 24.07 235.01 24.62 234.78 24.71C234.58 23.76 233.94 23.54 233.26 23.54C232.76 23.54 232.36 23.71 231.66 24.13C231.95 23.63 232.09 23.3 232.32 22.69H236.73V21.89H232.56ZM246.305 22.85V20.95H245.405V22.85H241.915V20.99H241.005V22.85H239.315V23.71H241.005V26.4H241.915V23.71H245.405V24.94C245.405 27.14 244.095 28.29 241.265 28.56L241.595 29.43C243.095 29.25 246.305 28.66 246.305 24.98V23.71H248.035V22.85H246.305ZM254.44 22.67V21H253.52V22.67H250.06V23.52H253.52V29.46H254.44V23.52H257.91V23.16C258.51 22.99 258.92 22.45 258.92 21.83C258.92 21.06 258.3 20.44 257.53 20.44C256.77 20.44 256.14 21.06 256.14 21.82C256.14 22.14 256.24 22.43 256.43 22.67H254.44ZM257.53 21.06C257.95 21.06 258.3 21.4 258.3 21.83C258.3 22.25 257.96 22.6 257.53 22.6C257.11 22.6 256.76 22.25 256.76 21.83C256.76 21.4 257.11 21.06 257.53 21.06ZM250.56 28.86C251.76 27.52 252.07 25.89 252.21 24.57L251.36 24.48C251.25 25.71 250.89 27.14 249.83 28.2L250.56 28.86ZM255.79 24.57C256.13 26.62 256.52 27.72 257.42 28.82L258.17 28.24C257.35 27.25 256.93 26.21 256.63 24.47L255.79 24.57ZM260.075 24.72V25.67H268.675V24.72H260.075ZM278.69 25.61C277.25 24.83 275.7 24.06 273.81 23.46V20.9H272.84V29.45H273.81V24.4C275.9 25.12 277.54 26.12 278.22 26.54L278.69 25.61ZM282.275 21.02C282.265 21.7 282.205 25.02 282.205 25.77C282.205 27.51 282.385 29.34 285.125 29.34C288.165 29.34 288.815 27.28 289.135 25.47L288.295 25.16C288.015 26.68 287.685 28.48 285.095 28.48C283.215 28.48 283.155 27.14 283.155 25.86C283.155 24.91 283.195 23.72 283.285 21.02H282.275ZM293.73 28.91C293.31 28.34 292.6 27.5 291.95 26.9L291.19 27.46C291.52 27.81 292.14 28.46 292.85 29.53L293.73 28.91ZM306.635 25C306.705 24.57 306.735 24.24 306.735 23.66H309.485V22.93H304.925C305.065 22.66 305.145 22.49 305.305 22.09L304.505 21.92C304.195 22.89 303.605 23.62 302.895 24.19L303.525 24.73C303.915 24.38 304.145 24.13 304.485 23.66H305.955C305.955 24.38 305.905 24.69 305.855 25H302.945V25.74H305.615C304.905 27.21 303.315 27.6 302.815 27.72L303.295 28.45C304.435 28.07 305.715 27.42 306.375 25.9C306.625 26.47 307.425 27.74 309.685 28.44L310.125 27.67C308.505 27.31 307.445 26.38 307.105 25.74H309.905V25H306.635ZM301.575 20.89V29.63H310.455V28.87H302.425V21.66H310.245V20.89H301.575ZM319.83 25.42C320.14 25.61 320.33 25.7 320.6 25.83L320.98 25.16C320.7 25.06 320.43 24.96 319.98 24.71C320 24.68 320.35 24.34 320.66 23.94L320.1 23.6C319.99 23.75 319.75 24.05 319.46 24.36C318.98 23.99 318.73 23.66 318.53 23.41H320.86V22.78H317.22C317.29 22.64 317.33 22.54 317.43 22.29L316.64 22.2C316.56 22.43 316.51 22.56 316.41 22.78H314.01V23.41H316.03C315.75 23.78 315.5 24.04 315.19 24.29C315.1 24.19 314.82 23.88 314.5 23.64L314.04 24.06C314.32 24.28 314.35 24.31 314.68 24.66C314.34 24.89 314.08 25.02 313.73 25.19L314.17 25.79C314.39 25.66 314.46 25.62 314.67 25.49V27.57H316.82V28.86C316.82 29.06 316.79 29.1 316.59 29.1H315.64L315.81 29.82H316.89C317.2 29.82 317.63 29.8 317.63 29.18V27.57H319.83V25.42ZM319.1 25.81H315.4V25.21H319.1V25.81ZM315.81 24.63C316.46 24.04 316.74 23.6 316.86 23.41H317.71C317.93 23.73 318.18 24.11 318.76 24.63H315.81ZM319.1 26.99H315.4V26.36H319.1V26.99ZM312.9 24.76C312.9 25.04 312.89 25.23 312.89 25.39C312.39 25.64 312.16 25.75 311.47 26.02L311.64 26.84C311.94 26.69 312.32 26.5 312.82 26.17C312.6 28.03 312.05 28.75 311.6 29.31L312.21 29.85C312.61 29.37 313.69 28.08 313.69 24.79V22.07H320.89V21.37H317.17V20.56H316.35V21.37H312.9V24.76ZM312.69 23.9C312.59 23.39 312.38 22.69 312.09 22.12L311.47 22.42C311.7 22.99 311.88 23.63 311.99 24.23L312.69 23.9ZM313.75 29.67C314.42 29.42 315.04 29.09 315.89 28.26L315.31 27.78C314.6 28.46 314.11 28.73 313.31 29L313.75 29.67ZM318.44 28.27C318.98 28.88 319.83 29.41 320.6 29.68L321.04 29C320.11 28.67 319.69 28.43 318.97 27.74L318.44 28.27ZM323.235 21.11C322.915 22.61 322.815 24.21 322.815 25.86C322.815 27.77 322.985 28.77 323.075 29.35L324.045 29.27C323.965 28.91 323.735 27.95 323.735 25.72C323.735 23.2 324.035 21.89 324.185 21.19L323.235 21.11ZM325.705 21.92V22.8H330.405V21.92H325.705ZM325.925 25.23C325.575 25.82 325.395 26.39 325.395 26.91C325.395 28.63 327.245 28.77 328.725 28.77C329.575 28.77 330.275 28.71 330.615 28.68V27.74C329.695 27.84 328.875 27.86 328.325 27.86C327.255 27.86 326.235 27.74 326.235 26.83C326.235 26.74 326.245 26.17 326.735 25.48L325.925 25.23ZM335.69 28.77C336.9 28.76 338.02 28.62 338.87 28.27C341 27.41 341.25 25.72 341.25 24.95C341.25 23.45 340.3 21.95 337.96 21.95C337.13 21.95 336.17 22.11 335.22 22.28C334.81 22.35 332.87 22.69 332.64 22.72L332.86 23.73C334.55 23.31 336.7 22.83 337.9 22.83C339.85 22.83 340.29 24.02 340.29 24.96C340.29 25.95 339.77 26.67 339.23 27.06C338.25 27.76 337.1 27.9 335.45 27.91L335.69 28.77ZM1.13 38.41C1.07 39.09 0.97 40.18 0.97 41.27C0.97 43.87 1.42 46.11 3.04 46.11C3.55 46.11 3.92 45.87 4.16 45.63C4.72 45.07 5.18 44.23 5.51 43.3L4.77 42.88C4.08 44.68 3.56 45.09 3.11 45.09C1.99 45.09 1.87 42.9 1.87 41.35C1.87 40 2 39.09 2.08 38.49L1.13 38.41ZM9.19 45.12C9.33 41.12 8.3 39.71 7.11 38.71L6.42 39.24C7.46 40.09 8.24 41.53 8.24 44.14C8.24 44.6 8.22 44.9 8.2 45.16L9.19 45.12ZM19.465 38.48C17.005 38.5 16.085 38.52 13.845 38.64C13.335 38.67 11.735 38.74 11.135 38.76L11.215 39.74C12.305 39.61 15.765 39.4 16.055 39.39C14.875 40.08 13.125 41.39 13.125 43.29C13.125 46.09 16.445 46.23 18.415 46.31L18.595 45.34C17.735 45.37 16.775 45.31 16.075 45.16C15.015 44.94 14.055 44.53 14.055 43.23C14.055 41.51 16.015 39.96 17.455 39.48C17.755 39.38 17.965 39.36 18.465 39.36C18.855 39.36 19.145 39.37 19.485 39.4L19.465 38.48ZM26 46.31C27.11 46.2 28.11 45.86 28.76 45.32C29.67 44.56 30.1 43.38 30.1 42.19C30.1 40.5 29.23 38.26 25.99 38.26C23.35 38.26 21.37 40 21.37 42.72C21.37 44.37 22.19 45.53 23.17 45.53C23.62 45.53 24.26 45.3 24.85 44.37C25.88 42.72 26.08 40.26 26.17 39.1C28.92 39.19 29.16 41.39 29.16 42.18C29.16 45.04 26.73 45.33 25.7 45.44L26 46.31ZM25.28 39.14C25.18 40.29 25.02 42.32 24.18 43.76C23.92 44.2 23.62 44.57 23.2 44.57C22.49 44.57 22.24 43.42 22.24 42.74C22.24 41.58 22.7 40.46 23.63 39.78C24.14 39.4 24.69 39.25 25.28 39.14ZM36.305 39.95C36.485 39.66 36.685 39.33 36.975 38.73H40.735V37.91H31.495V38.73H36.085C35.325 40.35 33.845 42.07 31.385 43.2L31.885 43.99C32.595 43.63 34.105 42.82 35.655 40.86V46.84H36.525V39.95H36.305ZM40.875 43.24C39.355 42.31 38.335 41.26 37.485 40.2L36.875 40.68C38.095 42.22 38.755 42.89 40.275 43.99L40.875 43.24ZM50.64 46.06C50.06 45.72 49.08 45.16 47.81 44.63C48.2 44.23 48.86 43.48 49.34 41.95H51.11V41.16H45.69C46.05 40.43 46.18 40.1 46.29 39.83L45.37 39.66C45.25 40.01 45.08 40.48 44.73 41.16H41.89V41.95H44.3C43.75 42.9 43.26 43.48 42.96 43.83C44.52 44.26 45.41 44.56 46.22 44.88C44.97 45.57 43.47 45.82 42.13 45.94L42.42 46.82C45.02 46.55 46.56 45.64 47.11 45.24C48.75 45.95 49.64 46.54 50.09 46.84L50.64 46.06ZM48.46 41.95C48.35 42.28 47.97 43.43 47.01 44.31C46.01 43.93 45.01 43.64 44.29 43.43C44.49 43.17 44.78 42.79 45.26 41.95H48.46ZM42.13 38.46V40.64H42.98V39.23H50.03V40.64H50.88V38.46H46.91V37.56H46.05V38.46H42.13ZM56.875 41.17C56.315 41.17 55.845 41.62 55.845 42.2C55.845 42.76 56.295 43.23 56.875 43.23C57.455 43.23 57.905 42.75 57.905 42.2C57.905 41.64 57.445 41.17 56.875 41.17ZM63.11 42.52C63.33 41.7 63.42 40.4 63.43 39.71L62.79 39.65C62.79 40.15 62.73 41.3 62.45 42.2L63.11 42.52ZM63.84 37.56V46.84H64.65V37.56H63.84ZM65.87 40.9C65.82 40.73 65.6 39.96 65.35 39.39L64.75 39.63C64.96 40.15 65.12 40.74 65.2 41.16L65.87 40.9ZM71.58 41.08H70.79V45.91H66.55V41.08H65.76V46.63H71.58V41.08ZM69.47 40.79C69.24 41.55 69.03 41.96 68.77 42.45C68.27 41.94 67.97 41.66 67.52 41.32L67 41.83C67.6 42.32 67.93 42.65 68.37 43.11C67.92 43.78 67.53 44.27 66.82 44.84L67.37 45.41C68.25 44.65 68.6 44.17 68.91 43.72C69.22 44.07 69.46 44.37 69.9 45.03L70.49 44.5C70.21 44.07 69.96 43.72 69.34 43.05C69.63 42.54 69.89 42.05 70.18 41.1L69.47 40.79ZM69.19 39.62C68.95 38.69 68.51 37.82 68.39 37.58L67.65 37.79C67.71 37.91 68.22 38.97 68.42 39.86L69.19 39.62ZM70.66 40.5C71.15 39.82 71.64 38.81 71.87 38.07L71.12 37.74C71 38.09 70.64 39.18 69.97 40.15L70.66 40.5ZM67.31 40.01C67.06 39.35 66.63 38.57 66.21 38L65.52 38.29C65.96 38.92 66.34 39.7 66.57 40.29L67.31 40.01ZM77.795 46.49C79.925 45.73 80.435 44.06 80.675 43.08C81.175 43.3 81.345 43.39 81.795 43.66L82.095 42.76C81.475 42.42 80.895 42.2 80.865 42.19C81.015 41.39 81.095 40.52 81.165 39.8L80.215 39.73C80.195 40.19 80.145 40.9 79.995 41.88C79.085 41.58 78.425 41.42 77.585 41.35C77.915 39.38 77.945 39.16 78.075 38.16H73.935V39.03L77.065 39C77.005 39.71 76.875 40.6 76.735 41.32C73.465 41.45 73.285 43.6 73.285 44.09C73.285 45.16 73.985 45.8 74.945 45.8C76.455 45.8 76.895 44.37 77.435 42.14C78.335 42.22 79.185 42.48 79.835 42.73C79.485 44.18 78.965 45.18 77.245 45.8L77.795 46.49ZM76.585 42.09C76.055 44.26 75.785 45.01 74.885 45.01C74.125 45.01 74.075 44.23 74.075 44.04C74.075 43.36 74.485 42.71 75.135 42.39C75.575 42.17 75.995 42.11 76.585 42.09ZM88 41.17C87.44 41.17 86.97 41.62 86.97 42.2C86.97 42.76 87.42 43.23 88 43.23C88.58 43.23 89.03 42.75 89.03 42.2C89.03 41.64 88.57 41.17 88 41.17ZM93.725 38.42V39.2H95.955V40.22H96.765V39.2H99.965V40.22H100.765V39.2H103.025V38.42H100.765V37.55H99.965V38.42H96.765V37.55H95.955V38.42H93.725ZM103.025 40.86H98.765V39.76H97.935V40.86H93.725V41.63H97.935V42.92H94.735V46.65H101.995V42.92H98.765V41.63H103.025V40.86ZM101.165 45.92H95.565V43.66H101.165V45.92ZM110.7 41.63C110.63 41.58 110.54 41.51 110.48 41.47C110.71 41.36 111.74 40.88 112.64 40.15V39.62H106.88V40.22H111.29C110.75 40.62 110.47 40.78 109.87 41.08C109.72 40.98 109.18 40.66 108.63 40.41L108.15 40.95C108.81 41.22 109.18 41.41 109.48 41.63H107.06V46.85H107.84V45.19H109.6V46.82H110.37V45.19H112.24V45.82C112.24 46 112.15 46.03 112.01 46.03H111.18L111.33 46.85H112.32C113.01 46.85 113.01 46.35 113.01 46.05V41.63H110.7ZM109.6 43.08H107.84V42.27H109.6V43.08ZM109.6 44.56H107.84V43.7H109.6V44.56ZM112.24 43.08H110.37V42.27H112.24V43.08ZM112.24 44.56H110.37V43.7H112.24V44.56ZM105.66 41.87C105.66 42.1 105.65 42.24 105.64 42.38C105.55 42.44 104.82 42.84 104.03 43.14L104.23 43.96C104.58 43.78 104.92 43.61 105.58 43.21C105.4 44.71 105.11 45.49 104.4 46.32L105.06 46.88C105.51 46.34 106.44 45.23 106.44 41.71V39.06H113.35V38.35H109.69V37.54H108.85V38.35H105.66V41.87ZM105.43 40.93C105.3 40.41 105.03 39.67 104.74 39.13L104.08 39.49C104.31 39.94 104.6 40.7 104.74 41.27L105.43 40.93ZM118.435 38.89C118.575 38.39 118.625 38.16 118.685 37.81L117.725 37.77C117.655 38.34 117.585 38.63 117.515 38.89H115.215V39.69H117.275C116.635 41.56 115.835 42.62 114.955 43.45L115.575 44.12C115.895 43.79 116.555 42.91 117.015 42.28C117.715 41.57 118.445 41.26 118.995 41.26C119.455 41.26 119.735 41.46 119.845 42.05C118.855 42.49 117.065 43.39 117.065 44.75C117.065 46.36 119.325 46.36 120.455 46.36C121.405 46.36 122.275 46.3 122.845 46.26L122.815 45.4C121.915 45.5 120.975 45.54 120.175 45.54C119.075 45.54 117.965 45.54 117.965 44.66C117.965 43.84 119.175 43.2 119.945 42.84C119.965 43.1 119.965 43.27 119.965 43.44C119.965 43.8 119.935 44.17 119.915 44.4H120.785C120.815 44.08 120.815 43.78 120.815 43.64C120.815 43.28 120.805 42.85 120.775 42.5C121.875 42.08 122.585 41.86 123.395 41.63L123.155 40.76C122.255 41.07 120.885 41.62 120.655 41.71C120.455 40.76 119.815 40.54 119.135 40.54C118.635 40.54 118.235 40.71 117.535 41.13C117.825 40.63 117.965 40.3 118.195 39.69H122.605V38.89H118.435ZM127.57 38.61C128.16 38.51 128.48 38.43 129.02 38.29L128.72 37.56C127.42 37.91 126.31 38.06 124.85 38.1L125.02 38.85C125.83 38.82 126.24 38.78 126.76 38.72V40.19H124.83V40.93H126.66C126.35 41.64 125.73 42.94 124.7 43.95L125.06 44.9C125.99 43.89 126.49 42.95 126.76 42.35V46.84H127.57V42.16C127.94 42.84 128.32 43.37 128.79 43.83L129.2 43.04C128.38 42.34 127.83 41.46 127.57 40.96V40.93H129.18V40.19H127.57V38.61ZM133.8 38.2H129.54V46.57H133.8V38.2ZM132.98 45.79H130.34V38.96H132.98V45.79ZM142.375 38.52C140.845 38.02 139.135 37.93 138.275 37.89L138.115 38.75C139.465 38.8 140.935 38.99 142.125 39.47L142.375 38.52ZM136.895 39.32C136.765 39.84 136.675 40.39 136.635 41.32C136.625 41.62 136.595 43.12 136.595 43.46L137.485 43.49C137.495 43.44 137.505 43.41 137.535 43.31C138.195 42.44 139.535 41.87 140.875 41.87C142.195 41.87 142.725 42.59 142.725 43.37C142.725 43.78 142.615 44.25 142.335 44.55C141.735 45.21 140.535 45.48 139.155 45.48C138.485 45.48 137.875 45.42 137.205 45.3L137.305 46.18C137.715 46.24 138.305 46.32 139.225 46.32C141.365 46.32 143.675 45.78 143.675 43.38C143.675 42.55 143.245 41.06 140.925 41.06C139.625 41.06 138.505 41.48 137.485 42.29C137.485 40.82 137.565 40.24 137.795 39.48L136.895 39.32ZM149.34 46.5C151.46 46.09 152.69 45.36 152.69 42.14C152.69 41.97 152.67 41.29 152.66 41.02H154.44V40.18H152.61C152.59 39.87 152.51 38.42 152.48 38.03L151.62 38.05C151.65 38.58 151.7 39.73 151.72 40.18H148.35V41.02H151.75C151.76 41.33 151.77 41.8 151.77 42.01C151.77 44.74 150.93 45.32 149.01 45.69L149.34 46.5ZM152.64 37.62C152.96 38.35 153.13 38.96 153.25 39.69L153.97 39.43C153.78 38.63 153.66 38.15 153.31 37.39L152.64 37.62ZM154 37.36C154.32 38.09 154.46 38.58 154.61 39.42L155.33 39.16C155.1 38.21 155.02 37.88 154.67 37.12L154 37.36ZM146.62 38.05C146.42 39.54 146.32 41.04 146.32 42.54C146.32 43.78 146.37 45.03 146.63 46.25L147.56 46.13C147.29 44.87 147.22 43.61 147.22 42.45C147.22 40.37 147.45 38.89 147.58 38.11L146.62 38.05ZM161.325 39.03V37.98H160.445V39.03H156.645V39.8H160.445V41.04H156.795V41.8H160.445V42.98C160.235 42.94 159.895 42.88 159.445 42.88C157.955 42.88 156.925 43.64 156.925 44.69C156.925 45.33 157.345 46.37 159.295 46.37C160.135 46.37 161.325 46.1 161.325 44.67V44.1C161.875 44.35 162.755 44.81 163.725 45.88L164.315 45.02C163.265 44.14 162.385 43.59 161.325 43.2V41.8H164.325V41.04H161.325V39.8H164.515V39.03H161.325ZM160.445 44.49C160.445 45.28 160.055 45.59 159.185 45.59C157.865 45.59 157.765 44.85 157.765 44.66C157.765 44 158.515 43.62 159.445 43.62C159.955 43.62 160.245 43.7 160.445 43.76V44.49ZM172.57 39V37.88H171.65L171.67 39H166.75V39.83H171.68L171.69 40.91C171.48 40.73 171.24 40.51 170.57 40.51C169.33 40.51 168.5 41.37 168.5 42.54C168.5 43.51 169.12 44.5 170.36 44.5C171.51 44.5 171.84 43.75 171.94 43.54C171.81 44.73 171.07 45.65 168.4 45.62L168.68 46.46C170.42 46.39 172.76 45.91 172.76 43.27C172.76 43.01 172.74 42.75 172.7 42.5C172.67 42.26 172.62 42.03 172.57 41.84V39.83H175.19V39H172.57ZM171.71 42.61C171.71 43.27 171.19 43.77 170.48 43.77C169.55 43.77 169.34 42.92 169.34 42.5C169.34 41.58 170.04 41.26 170.59 41.26C171.47 41.26 171.63 41.85 171.71 42.17V42.61ZM178.585 43.53C177.765 43.53 177.095 44.19 177.095 45.02C177.095 45.84 177.755 46.51 178.585 46.51C179.405 46.51 180.075 45.84 180.075 45.02C180.075 44.18 179.395 43.53 178.585 43.53ZM178.585 44.03C179.115 44.03 179.565 44.46 179.565 45.02C179.565 45.56 179.125 46 178.585 46C178.035 46 177.595 45.56 177.595 45.02C177.595 44.47 178.045 44.03 178.585 44.03Z" fill="black"/>
</svg>
