<svg width="371" height="58" viewBox="0 0 371 58" fill="none" xmlns="http://www.w3.org/2000/svg">
<path d="M2.832 2.736V5.76H14.712C13.872 8.04 12.6 10.608 10.008 13.416C7.44 16.2 4.992 17.88 1.512 19.368L3.336 22.032C6.984 20.424 10.416 17.616 12.672 15.096C16.248 18.216 18.288 20.448 19.752 22.08L22.44 19.488C19.584 16.656 18.288 15.6 14.64 12.72C16.176 10.584 17.952 7.608 18.936 2.736H2.832ZM29.508 12.288C31.14 13.512 35.676 16.92 39.18 21.816L41.988 19.512C40.764 18.024 39.948 17.136 38.268 15.456C45.324 10.608 46.716 5.952 47.292 3.624H26.7V6.696H42.564C41.076 9.24 39.324 11.16 36.036 13.392C34.02 11.64 32.748 10.728 31.932 10.152L29.508 12.288ZM51.504 10.2V13.536H72.096V10.2H51.504ZM96.468 12.336C94.356 11.184 90.516 9.048 85.116 7.344V1.584H81.66V22.08H85.116V10.68C88.98 12.192 91.332 13.44 94.788 15.672L96.468 12.336ZM102.36 3.12V6.264H117.384C116.64 11.712 114.504 16.992 104.184 18.936L105.576 21.936C119.52 19.104 120.648 9.312 121.032 3.12H102.36ZM136.428 11.376C134.172 14.352 131.22 16.752 127.788 18.264L129.396 20.64C131.34 19.656 134.628 17.592 137.364 13.944L137.412 18.888C137.412 19.584 137.244 19.68 136.62 19.68C136.02 19.68 134.316 19.56 133.692 19.512L134.124 22.224C134.556 22.248 135.756 22.32 136.428 22.32C137.676 22.32 140.22 22.32 140.196 19.272L140.124 11.376H144.588V8.64H140.1L140.052 5.52H137.268L137.292 8.64H128.484V11.376H136.428ZM160.992 6.264C157.728 4.296 155.04 3.408 153.288 2.88L151.824 5.64C155.736 6.912 158.208 8.496 159.264 9.216L160.992 6.264ZM153 21.696C164.16 20.472 169.104 14.832 171.96 5.976L169.152 4.008C166.08 15.264 159.408 17.64 152.28 18.216L153 21.696ZM191.436 12.672H181.068V20.928H190.38L190.716 23.232H194.82C195.636 23.232 196.884 23.136 196.884 20.928V1.464H187.236V10.992H194.028V19.608C194.028 20.016 193.956 20.256 193.404 20.256H191.436V12.672ZM194.028 3.792V5.304H190.092V3.792H194.028ZM194.028 7.128V8.736H190.092V7.128H194.028ZM188.7 15.12V18.384H183.804V15.12H188.7ZM175.716 23.232H178.62V10.992H185.196V1.464H175.716V23.232ZM182.34 3.792V5.304H178.644V3.792H182.34ZM182.34 7.128V8.736H178.644V7.128H182.34ZM205.728 20.4H203.208V17.712H205.728V20.4ZM200.496 11.784V14.208H208.104V11.784H200.496ZM200.496 8.136V10.608H208.104V8.136H200.496ZM200.496 15.36V22.824H208.104V15.36H200.496ZM213.792 0.599999C212.208 3.12 210.312 4.848 208.68 5.904V4.608H199.824V7.08H208.152L209.448 8.952C211.272 7.824 214.056 5.328 215.28 3.192C215.976 4.416 217.824 7.488 221.328 9.72L222.912 6.936C219.408 4.68 217.776 2.4 216.744 0.599999H213.792ZM200.496 1.128V3.576H208.104V1.128H200.496ZM215.424 6.576C213.312 8.616 211.872 9.6 209.04 10.776L210.48 13.032C213.432 11.736 215.4 10.32 217.392 8.424L215.424 6.576ZM220.824 14.304C217.752 17.784 212.976 19.92 208.728 20.424L210.12 23.184C217.2 21.672 220.992 18.144 222.768 16.344L220.824 14.304ZM218.184 10.416C215.712 12.936 212.4 14.664 209.016 15.576L210.576 18.12C212.448 17.496 216.648 16.008 220.176 12.312L218.184 10.416ZM235.188 3.552C235.404 2.688 235.524 2.232 235.692 1.32L232.38 1.152C232.236 2.112 232.14 2.616 231.924 3.552H226.668V6.264H231.108C229.764 9.912 228.084 12.264 225.828 14.448L227.988 16.68C228.9 15.768 230.748 13.224 231.252 12.504C233.244 10.536 234.804 10.296 235.476 10.296C236.82 10.296 237.084 10.992 237.252 11.424C235.02 12.48 230.94 14.496 230.94 17.76C230.94 21.888 236.268 22.008 239.652 22.008C241.188 22.008 243.108 21.936 245.004 21.84L244.956 18.84C242.292 19.152 239.268 19.152 238.836 19.152C236.244 19.152 234.18 19.152 234.18 17.4C234.18 16.32 235.188 15.264 237.66 14.136C237.684 14.688 237.708 15.696 237.588 17.088H240.612C240.636 16.68 240.66 16.128 240.66 15.336C240.66 14.184 240.588 13.44 240.564 12.936C243.252 12 245.076 11.544 246.348 11.256L245.7 8.28C244.404 8.64 243.06 9.12 240.06 10.248C239.532 8.76 238.524 7.8 236.34 7.8C235.188 7.8 234.588 8.088 233.076 8.856C233.604 7.92 233.868 7.368 234.3 6.264H244.404V3.552H235.188ZM254.448 6.816H249.6V9.672H254.064C252.84 12.168 251.328 14.328 249.336 16.152L250.536 19.656C251.616 18.48 253.08 16.848 254.448 14.04V23.232H257.352V13.8C258.264 15.48 259.224 16.632 259.656 17.16L261.192 14.592C259.032 12.48 257.688 10.056 257.472 9.672H261.312V6.816H257.352V3.888C259.536 3.624 260.472 3.384 261.504 3.096L260.544 0.407999C257.064 1.464 250.2 1.656 249.72 1.656L250.104 4.392C251.04 4.344 253.44 4.2 254.448 4.152V6.816ZM262.656 2.352V18.072H265.656V2.352H262.656ZM268.488 0.527999V19.392C268.488 19.872 268.344 20.04 267.744 20.04H264.048L264.624 23.232H268.968C269.64 23.232 271.512 23.016 271.512 20.688V0.527999H268.488ZM295.98 1.536H276.732V13.104C276.732 16.536 275.772 18.888 274.5 20.736L276.972 23.136C278.22 21.408 279.036 19.416 279.396 16.08H284.724V23.016H287.532V16.08H292.956V19.608C292.956 20.16 292.668 20.208 292.356 20.208H289.98L290.388 23.232H293.364C294.66 23.232 295.98 22.824 295.98 20.88V1.536ZM284.724 7.488H279.636V4.392H284.724V7.488ZM292.956 7.488H287.532V4.392H292.956V7.488ZM284.724 13.32H279.636V10.224H284.724V13.32ZM292.956 13.32H287.532V10.224H292.956V13.32ZM314.064 9.456C315.192 10.968 315.816 12.12 316.632 14.04L318.6 12.888C317.736 11.088 316.992 9.72 315.912 8.376L314.064 9.456ZM317.448 7.872C318.624 9.432 319.224 10.512 320.064 12.432L322.032 11.328C321.12 9.48 320.424 8.232 319.296 6.84L317.448 7.872ZM320.736 2.592C315.864 2.688 311.28 2.808 305.448 3.192C302.88 3.36 302.064 3.408 300.48 3.408L300.696 6.864C302.856 6.6 308.52 6.168 310.944 6C308.808 7.368 305.088 10.272 305.088 14.544C305.088 21.696 313.752 21.816 318.288 21.912L318.792 18.456C318.36 18.48 317.952 18.504 317.232 18.504C309.96 18.504 308.4 16.752 308.4 14.376C308.4 10.656 312.672 7.032 315.984 6.048C316.824 5.784 317.736 5.736 318.672 5.736C319.224 5.736 319.896 5.76 320.832 5.808L320.736 2.592ZM345.3 8.376C343.356 8.856 341.292 9.072 338.724 9.216C338.46 8.52 338.244 7.56 338.124 6.936C339.9 6.84 342.108 6.648 343.86 6.312L343.572 3.504C341.556 3.912 339.708 4.08 337.668 4.2C337.572 3.456 337.476 2.568 337.452 1.56L334.116 1.632C334.164 2.544 334.236 3 334.38 4.32H326.628V7.08H333.948C334.26 7.08 334.332 7.08 334.86 7.056C335.124 8.28 335.388 9.192 335.436 9.312C335.076 9.336 334.716 9.312 334.356 9.312H325.764V12H335.052C335.22 12 335.796 12 336.348 11.976C336.804 13.104 337.596 15.024 339.18 16.8L341.988 15C341.412 14.352 340.62 13.392 339.828 11.832C342.18 11.664 343.836 11.496 345.684 11.136L345.3 8.376ZM329.388 13.824C328.02 15.312 327.684 16.392 327.684 17.424C327.684 19.152 329.028 20.448 330.324 21.048C331.308 21.48 332.652 22.056 337.956 22.032C341.052 22.032 342.204 21.936 343.332 21.864L343.212 18.744C342.012 18.864 340.14 19.032 337.164 19.032C333.78 19.032 330.924 18.72 330.924 16.92C330.924 16.44 331.164 15.912 331.908 15.072L329.388 13.824ZM366.216 2.016C360.528 2.256 358.2 2.28 352.944 2.256V5.352C355.992 5.304 358.44 5.184 361.008 5.016C355.512 9.84 351.312 13.056 350.328 13.776L352.128 16.464C355.776 13.008 358.512 10.992 362.232 10.992C365.448 10.992 366.936 12.6 366.936 14.808C366.936 16.032 366.408 17.448 365.016 18.312C364.056 15.456 361.416 14.16 359.232 14.16C356.688 14.16 354.792 15.792 354.792 17.904C354.792 20.04 356.784 22.104 361.224 22.104C366.36 22.104 370.08 19.32 370.08 14.712C370.08 9.984 366.384 8.4 363.528 8.4C362.712 8.4 361.608 8.568 360.48 8.88C362.376 7.392 364.92 5.4 366.216 4.512V2.016ZM362.472 19.44C362.256 19.488 361.752 19.608 360.936 19.608C358.92 19.608 357.576 18.888 357.576 17.76C357.576 17.256 358.176 16.632 359.16 16.632C360.816 16.632 361.872 17.688 362.472 19.44ZM1.152 37.096C2.904 38.104 4.848 39.784 5.976 41.08L8.064 38.464C6.288 36.616 4.488 35.488 3.048 34.672L1.152 37.096ZM0.744 46.504H3.792V51.4C2.832 52.408 0.672 53.776 0.48 53.896L1.8 57.064C2.376 56.608 4.128 55.264 5.424 53.536C6.648 56.56 10.248 56.584 12.96 56.584H22.968L23.64 53.68H13.44C10.632 53.68 7.272 53.68 6.744 50.704V43.672H0.744V46.504ZM21.144 34.288C18.048 35.44 13.416 35.896 9.744 35.896V43.84C9.744 48.016 8.4 49.84 7.8 50.632L10.296 52.576C12.384 49.672 12.696 46.336 12.696 44.176V43.744H16.32V52.912H19.296V43.744H23.232V40.96H12.696V38.392C14.616 38.296 18.864 37.984 22.752 36.976L21.144 34.288ZM45.204 54.016C42.9 52.048 38.22 49.216 35.436 47.704C32.652 46.216 32.34 46.048 32.34 45.664C32.34 45.304 33.06 44.776 33.636 44.368C37.644 41.464 40.164 39.664 43.044 36.928L39.588 35.104C37.764 36.928 36.828 37.864 31.212 42.376C29.268 43.936 28.38 44.752 28.38 45.904C28.38 46.888 29.052 47.56 30.54 48.496C37.5 52.912 38.988 53.872 42.036 56.44L45.204 54.016ZM62.592 55.936C65.016 55.696 67.44 54.976 69.12 53.56C71.52 51.544 72.432 48.568 72.432 45.736C72.432 40.816 69.552 36.16 62.4 36.16C56.328 36.16 51.144 40.072 51.144 46.984C51.144 50.584 52.848 54.016 55.896 54.016C60.84 54.016 62.856 45.736 63.264 39.184C67.032 39.448 69.048 41.848 69.048 45.592C69.048 51.424 64.584 52.576 61.56 52.864L62.592 55.936ZM60.168 39.352C59.424 48.04 57.312 50.56 56.04 50.56C54.6 50.56 54.24 48.184 54.24 47.056C54.24 43.096 56.496 40.144 60.168 39.352ZM89.46 44.824C89.58 44.008 89.604 43.552 89.604 42.712H95.772V40.144H85.428C85.692 39.64 85.884 39.184 86.148 38.584L83.22 38.176C82.74 39.568 81.66 41.152 79.644 42.712L81.876 44.704C82.668 43.984 83.076 43.552 83.748 42.712H86.796C86.796 43.24 86.796 43.912 86.652 44.824H80.1V47.392H85.812C85.164 48.448 83.94 49.936 79.932 50.632L81.54 53.296C85.044 52.192 87.012 50.632 88.212 48.568C89.052 50.104 90.684 52.072 95.58 53.392L97.092 50.656C94.788 50.296 91.788 49.408 90.42 47.392H96.54V44.824H89.46ZM76.236 35.272V56.584H97.908V53.8H79.212V38.08H97.38V35.272H76.236ZM107.76 52.168H112.752V54.208C112.752 54.52 112.728 54.616 112.32 54.616H110.256L110.832 57.136H113.832C114.36 57.136 115.608 57.136 115.608 55.552V52.168H120.648V47.416C121.224 47.728 121.368 47.8 121.872 48.04L123.072 45.64C122.424 45.448 121.896 45.28 121.128 44.848C121.896 44.08 122.28 43.624 122.52 43.336L120.696 42.256C120.192 42.976 119.952 43.288 119.496 43.768C118.536 43 118.224 42.592 117.792 42.064H122.784V40H114.648C114.792 39.688 114.888 39.472 115.104 38.92L112.656 38.584H122.832V36.184H114.312V34.48H111.264V36.184H103.368V41.224C102.84 39.448 102.312 38.44 101.976 37.792L99.936 39.304C100.512 40.6 100.92 41.728 101.376 43.816L103.368 42.472V43.864C103.368 44.752 103.368 45.424 103.32 46.24C102.288 46.624 102.072 46.696 100.032 47.272L100.512 50.32C101.304 50.008 101.904 49.768 103.056 49.168C102.672 51.904 101.88 53.56 100.464 55.336L102.84 57.232C105.72 53.344 105.984 48.64 106.08 46.288L107.064 48.064C107.4 47.824 107.592 47.752 107.76 47.632V52.168ZM118.008 46.24V47.416H110.424V46.24H118.008ZM111.672 44.416C112.104 43.912 112.8 43.168 113.496 42.064H114.984C115.392 42.712 115.896 43.48 116.808 44.416H111.672ZM118.008 49.12V50.344H110.424V49.12H118.008ZM106.512 43.6C106.968 43.984 107.136 44.128 107.64 44.68C107.304 44.896 106.896 45.16 106.104 45.544V38.584H112.368C112.176 39.304 111.984 39.712 111.864 40H106.656V42.064H110.568C110.28 42.424 109.872 42.904 109.2 43.504C108.624 42.88 108.264 42.592 107.928 42.328L106.512 43.6ZM109.2 52.192C108.456 52.888 107.352 53.848 104.64 54.592L106.104 56.968C107.328 56.488 109.392 55.48 111.12 53.776L109.2 52.192ZM123.192 54.664C121.368 54.136 120.096 53.488 118.584 52.216L116.784 53.968C118.824 55.744 121.032 56.728 121.68 57.016L123.192 54.664ZM138.612 51.472C138.108 51.136 137.076 50.416 135.108 49.792C135.132 49.36 135.132 49.096 135.132 48.568H138.852C139.332 50.944 139.812 52.264 140.052 52.864C138.06 54.064 136.572 54.496 135.66 54.76L136.74 57.16C137.676 56.896 139.116 56.464 141.108 55.24C141.852 56.32 142.86 57.256 144.612 57.256C146.628 57.256 147.444 55.552 148.068 53.968L146.34 51.808C145.908 53.032 145.38 53.824 145.188 54.112C145.068 54.28 144.852 54.496 144.588 54.496C143.988 54.496 143.556 53.848 143.364 53.56C145.284 51.832 146.076 50.488 146.484 49.768L144.132 48.784C143.7 49.48 143.22 50.2 142.26 51.136C142.044 50.416 141.78 49.36 141.612 48.568H147.828V46.024H144.708L145.812 45.304C145.068 44.512 144.924 44.368 144.42 43.96C144.852 43.912 145.668 43.816 146.052 43.768C146.1 44.056 146.148 44.2 146.244 44.728L148.092 44.104C147.708 42.736 147.348 41.416 146.796 40.312L145.116 40.84C145.308 41.224 145.356 41.344 145.572 41.992C145.308 42.016 143.7 42.112 143.34 42.136C144.972 40.36 145.74 39.352 147.156 37.264L145.356 36.472C144.972 37.096 144.852 37.24 143.868 38.584C143.604 38.272 143.412 38.056 143.148 37.792C143.484 37.36 144.324 36.256 145.02 35.032L143.028 34.456C142.836 34.84 142.716 35.104 141.828 36.448L141.444 36.112L140.388 37.552C140.34 36.496 140.34 35.536 140.34 34.576H137.628C137.628 36.064 137.628 36.688 137.652 37.408L136.044 36.52C135.732 37.048 135.492 37.48 134.604 38.632C134.34 38.296 134.1 38.056 133.86 37.768C134.82 36.688 135.348 35.8 135.78 35.104L133.764 34.48C133.524 34.984 133.356 35.32 132.468 36.544C132.324 36.424 132.108 36.256 131.988 36.16L130.764 37.936C131.292 38.416 132.084 39.088 133.212 40.384C132.612 41.128 131.796 42.136 131.34 42.616H130.98L131.244 44.68C132.396 44.584 134.82 44.392 136.02 44.248C136.068 44.584 136.116 44.728 136.164 45.184L138.012 44.632C137.892 43.984 137.58 42.424 136.86 40.84L135.156 41.344C135.324 41.704 135.396 41.896 135.588 42.52C135.276 42.544 134.124 42.592 133.74 42.592C135.06 41.2 137.124 38.488 137.676 37.72C137.772 40.672 138.036 43.456 138.42 46.024H131.964C131.196 45.04 130.548 44.08 130.044 43V41.536H131.484V38.776H130.044V34.576H127.356V38.776H125.124V41.536H127.236C126.804 43.912 126.084 46.24 124.836 48.304L125.964 52.36C126.396 51.544 126.876 50.68 127.356 48.904V57.184H130.044V47.176C130.572 48.256 130.692 48.448 131.004 48.952L131.772 46.936V48.568H132.468C132.396 51.736 132.132 53.152 130.86 55.264L132.924 57.208C133.668 56.248 134.484 55.024 134.892 52.144C136.26 52.792 136.956 53.392 137.436 53.8L138.612 51.472ZM142.188 44.656C142.452 44.872 143.028 45.328 143.724 46.024H141.156C141.108 45.76 140.964 44.488 140.916 44.2C141.228 44.2 142.716 44.08 143.076 44.056L142.188 44.656ZM140.7 42.232C140.58 41.128 140.46 39.784 140.412 38.08C141.3 38.824 142.14 39.784 142.524 40.288C141.636 41.392 141.156 41.944 140.916 42.232H140.7ZM166.536 54.976L167.16 57.184H169.512C171.72 57.184 171.912 56.344 171.912 54.64V35.32H162.384V43.624H169.08V53.56C169.08 54.16 169.032 54.352 168.36 54.352H166.92L167.256 53.8C166.416 53.464 165.312 53.032 163.872 51.64H167.832V49.528H162.408C162.528 48.976 162.552 48.616 162.6 48.088H167.52V46H165.336C165.408 45.832 165.888 44.92 166.056 44.296L163.224 44.008C163.104 44.488 162.864 45.376 162.624 46H160.152C160.008 45.448 159.696 44.608 159.408 44.008L156.672 44.44C156.84 44.728 157.368 45.856 157.464 46H155.448V48.088H159.96C159.96 48.544 159.96 48.904 159.792 49.528H154.968V51.64H158.712C157.128 53.44 155.352 53.992 154.488 54.232L156.024 56.584C159.768 55.192 161.136 52.672 161.472 52.048C161.736 52.504 163.008 54.76 165.84 56.08L166.536 54.976ZM169.08 37.36V38.68H165.144V37.36H169.08ZM169.08 40.336V41.656H165.144V40.336H169.08ZM150.888 57.184H153.72V43.624H160.392V35.32H150.888V57.184ZM157.656 37.36V38.68H153.72V37.36H157.656ZM157.656 40.336V41.656H153.72V40.336H157.656ZM178.74 55.984C180.756 52.072 182.196 46.312 182.868 42.568L184.692 42.544C187.068 42.52 187.692 43.216 187.692 45.952C187.692 47.656 187.404 49.576 187.068 50.824C186.708 52.12 186.372 52.84 184.788 52.84C183.804 52.84 182.82 52.648 182.388 52.552L182.58 55.768C182.94 55.816 183.924 55.936 185.22 55.936C187.332 55.936 188.844 55.288 189.66 53.464C190.572 51.4 190.812 48.064 190.812 46.312C190.812 41.2 189.132 39.568 185.58 39.568H183.42C183.756 37.456 183.828 36.856 183.996 35.56L180.636 35.392C180.516 37.12 180.42 38.032 180.204 39.568H176.244V42.616L179.7 42.592C179.196 45.352 177.78 50.776 175.644 54.544L178.74 55.984ZM197.124 48.136C196.86 44.344 195.9 40.552 193.452 37.624L190.74 38.968C192.828 41.752 193.668 45.232 193.788 48.712L197.124 48.136ZM217.512 36.784C214.872 35.992 212.04 35.44 207.144 35.272L206.592 38.248C212.928 38.584 216.048 39.856 216.72 40.12L217.512 36.784ZM203.76 39.28C203.256 42.304 203.208 43.552 203.136 49.168L206.28 49.288C206.304 49.072 206.328 48.976 206.352 48.688C207.84 46.888 210.696 45.736 213.456 45.736C215.784 45.736 217.128 46.936 217.128 48.664C217.128 51.088 215.424 52.96 209.208 52.96C207.192 52.96 205.536 52.744 204.432 52.6L204.816 55.696C205.656 55.792 207.072 55.936 209.28 55.936C215.88 55.936 220.464 54.16 220.464 48.784C220.464 46.672 219.336 42.904 213.816 42.904C211.056 42.904 208.656 43.72 206.352 45.28C206.424 42.352 206.568 41.2 207 39.592L203.76 39.28ZM232.404 55.816L234.252 57.256C235.5 54.832 236.22 52.216 236.22 45.952V37.936H244.02V53.656C244.02 54.232 243.972 54.472 243.252 54.472H240.708L241.188 57.184H244.62C246.636 57.184 246.636 55.696 246.636 54.856V35.344H233.628V45.832C233.628 47.44 233.628 51.712 232.404 54.496V49.384H225.444V56.776H232.404V55.816ZM230.028 54.448H228.06V51.688H230.028V54.448ZM225.444 35.344V37.6H232.404V35.344H225.444ZM225.444 42.256V44.632H232.404V42.256H225.444ZM225.444 45.76V48.136H232.404V45.76H225.444ZM236.988 47.272V53.992H243.06V47.272H236.988ZM241.068 51.664H239.028V49.576H241.068V51.664ZM224.796 38.752V41.176H232.956V38.752H224.796ZM241.356 38.512H239.004V39.664H236.82V41.896H239.004V43.648H236.796V45.928H243.42V43.648H241.356V41.896H243.396V39.664H241.356V38.512ZM263.76 38.56C265.152 40.024 265.872 41.032 266.952 42.88L268.728 41.488C267.624 39.736 266.712 38.488 265.464 37.264L263.76 38.56ZM266.952 36.496C268.416 38.08 269.04 38.896 270.192 40.792L271.992 39.448C270.984 37.888 270.024 36.544 268.656 35.248L266.952 36.496ZM272.16 50.104C271.632 49.768 270.696 49.144 269.064 47.8C267.6 46.6 264.528 43.912 263.304 42.736C260.88 40.456 259.944 39.616 258.24 39.616C257.16 39.616 256.416 40.024 255.432 40.84C254.592 41.56 250.848 45.472 249.936 46.264L252.12 49.192C253.464 47.632 254.808 46 256.152 44.392C257.328 43 257.736 42.856 258.12 42.856C258.48 42.856 258.792 43 259.32 43.432C259.968 43.96 260.904 44.92 261.696 45.688C265.104 49.072 267.816 51.736 270.048 53.392L272.16 50.104ZM291.516 36.016C285.828 36.256 283.5 36.28 278.244 36.256V39.352C281.292 39.304 283.74 39.184 286.308 39.016C280.812 43.84 276.612 47.056 275.628 47.776L277.428 50.464C281.076 47.008 283.812 44.992 287.532 44.992C290.748 44.992 292.236 46.6 292.236 48.808C292.236 50.032 291.708 51.448 290.316 52.312C289.356 49.456 286.716 48.16 284.532 48.16C281.988 48.16 280.092 49.792 280.092 51.904C280.092 54.04 282.084 56.104 286.524 56.104C291.66 56.104 295.38 53.32 295.38 48.712C295.38 43.984 291.684 42.4 288.828 42.4C288.012 42.4 286.908 42.568 285.78 42.88C287.676 41.392 290.22 39.4 291.516 38.512V36.016ZM287.772 53.44C287.556 53.488 287.052 53.608 286.236 53.608C284.22 53.608 282.876 52.888 282.876 51.76C282.876 51.256 283.476 50.632 284.46 50.632C286.116 50.632 287.172 51.688 287.772 53.44Z" fill="black"/>
</svg>
