<svg width="352" height="84" viewBox="0 0 352 84" fill="none" xmlns="http://www.w3.org/2000/svg">
<path d="M2.688 5.43V10.834C1.414 11.408 1.218 11.506 0.294 11.814L0.616 12.962C0.966 12.808 1.722 12.458 2.59 11.94C2.212 14.642 1.078 15.86 0.602 16.364L1.554 17.148C2.198 16.378 3.808 14.502 3.808 10.232V6.48H13.524V5.43H8.316V4.198H7.168V5.43H2.688ZM2.268 8.832C2.058 7.95 1.82 7.25 1.316 6.354L0.378 6.83C0.588 7.208 0.98 7.908 1.26 9.336L2.268 8.832ZM13.216 7.95H4.354V8.972H8.288V15.79H6.314V10.302H5.152V15.79H3.332V16.84H13.454V15.79H9.422V12.584H12.768V11.562H9.422V8.972H13.216V7.95ZM28.142 16C27.274 15.454 24.852 13.914 23.97 9.084H27.974V7.964H23.914V4.198H22.71V7.964H19.224V9.084H22.668C22.612 9.826 22.458 10.568 22.262 11.296C21.646 13.606 20.61 15.006 18.888 16.112L19.546 17.162C22.024 15.412 22.948 13.284 23.466 11.408C24.152 13.424 25.132 15.622 27.47 17.106L28.142 16ZM17.46 4.198V11.338C16.41 12.108 15.192 12.78 14.786 13.004L15.136 14.25C15.71 13.97 16.942 13.2 17.46 12.752V17.162H18.622V4.198H17.46ZM17.04 8.762C16.788 7.81 16.354 6.802 15.892 5.976L14.884 6.424C15.43 7.46 15.668 8.048 15.99 9.21L17.04 8.762ZM27.302 6.746C27.078 6.382 26.518 5.43 25.552 4.422L24.67 5.01C25.356 5.738 26.028 6.788 26.336 7.334L27.302 6.746ZM34.444 17.232C35.354 16.952 37.496 16.21 38.448 13.76C38.812 14.656 39.862 16.392 42.186 17.19L42.746 16.14C41.752 15.818 40.17 15.216 39.302 13.242H42.046V9.364H38.896V8.076H40.856V7.558C41.248 7.852 41.598 8.076 42.172 8.412L42.788 7.404C40.408 6.2 39.568 5.08 39.022 4.156H37.65C36.572 5.71 35.592 6.578 33.968 7.418L34.528 8.426C34.892 8.244 35.284 8.034 35.914 7.572V8.076H37.79V9.364H34.64V13.242H37.482C36.866 15.412 34.514 16.042 33.87 16.21L34.444 17.232ZM38.896 10.33H40.968V12.276H38.812C38.868 11.898 38.896 11.534 38.896 10.652V10.33ZM37.79 10.68C37.79 11.492 37.762 11.898 37.706 12.276H35.746V10.33H37.79V10.68ZM36.46 7.11C37.272 6.368 38 5.43 38.336 5.01C38.672 5.444 39.4 6.382 40.282 7.11H36.46ZM34.402 11.254C33.324 10.092 32.82 9 32.624 8.496V7.964H33.842V6.9H32.624V4.184H31.518V6.9H29.558V7.964H31.434C30.706 10.932 29.838 12.052 29.32 12.724L29.81 14.11C30.608 13.018 31.168 11.772 31.518 10.456V17.176H32.624V10.176C32.96 11.016 33.282 11.534 33.828 12.304L34.402 11.254ZM52.17 8.734C51.792 9.168 51.246 9.826 49.748 11.184C49.594 11.058 49.328 10.848 48.642 10.4C48.698 10.344 49.692 9.49 50.42 8.524H55.642V10.176H56.804V7.516H51.134V6.326H56.804V5.29H51.134V4.212H49.986V5.29H44.372V6.326H49.986V7.516H44.316V10.176H45.464V8.524H48.936C48.684 8.874 48.46 9.182 47.76 9.84C47.256 9.518 47.102 9.448 46.836 9.308L46.122 10.162C47.606 10.876 48.712 11.688 48.964 11.898C48.838 12.01 48.74 12.094 48.474 12.304C47.844 12.318 44.792 12.346 44.106 12.332L44.19 13.41C45.016 13.41 49.076 13.326 49.986 13.312V17.148H51.148V13.256L55.138 13.046C55.642 13.536 55.866 13.816 56.09 14.11L56.888 13.312C56.496 12.85 55.586 11.758 53.696 10.386L52.884 11.114C53.22 11.352 53.444 11.506 54.186 12.15C51.344 12.248 51.022 12.262 50.056 12.304C51.848 10.736 52.422 10.218 53.164 9.378L52.17 8.734ZM44.75 17.008C45.492 16.644 47.088 15.832 48.376 14.32L47.466 13.69C46.234 15.104 44.428 15.902 44.022 16.084L44.75 17.008ZM52.548 14.264C53.206 14.95 54.256 15.972 56.412 16.938L57.126 15.944C55.502 15.328 54.452 14.67 53.36 13.592L52.548 14.264ZM65.724 7.082H70.134V5.864H60.012V7.082H64.394V14.278H59.256V15.524H70.89V14.278H65.724V7.082ZM79.152 7.572C78.788 7.348 77.248 6.354 74.77 5.612L74.14 6.732C76.156 7.362 77.626 8.188 78.452 8.748L79.152 7.572ZM74.686 16.224C82.75 15.692 84.99 9.154 85.662 7.166L84.57 6.354C83.604 9.49 81.518 14.446 74.434 14.824L74.686 16.224ZM94.246 6.662C93.14 6.13 91.768 5.5 90.144 5.136L89.64 6.2C91.082 6.606 92.426 7.11 93.714 7.824L94.246 6.662ZM93.098 9.938C92.02 9.308 90.34 8.664 89.052 8.356L88.562 9.462C90.578 10.05 91.852 10.708 92.58 11.128L93.098 9.938ZM96.5 4.366C97.144 5.472 97.34 5.948 97.718 7.11L98.698 6.62C98.236 5.388 97.97 4.744 97.41 3.904L96.5 4.366ZM98.838 4.226C99.44 5.29 99.664 5.878 100.014 6.998L101.008 6.522C100.588 5.262 100.21 4.506 99.762 3.792L98.838 4.226ZM89.598 16.308C95.31 15.566 98.026 13.41 99.846 8.216L98.754 7.418C97.214 12.276 94.862 14.39 89.29 14.936L89.598 16.308ZM108.192 7.572C107.828 7.348 106.288 6.354 103.81 5.612L103.18 6.732C105.196 7.362 106.666 8.188 107.492 8.748L108.192 7.572ZM103.726 16.224C111.79 15.692 114.03 9.154 114.702 7.166L113.61 6.354C112.644 9.49 110.558 14.446 103.474 14.824L103.726 16.224ZM127.122 17.134V5.136H129.81V4.016H126.002V17.134H127.122ZM140.032 14.138C140.858 10.652 141.138 7.124 141.236 6.032H133.494V7.278H139.808C139.724 8.286 139.458 11.24 138.688 14.138H131.716V15.384H143.574V14.138H140.032ZM148.77 5.15H147.482V14.012C147.482 15.79 148.35 16.14 150.436 16.14H154.356C155.238 16.14 156.568 16.098 157.422 15.958L157.352 14.698C156.456 14.866 155.336 14.922 154.216 14.922H150.618C149.022 14.922 148.77 14.81 148.77 13.802V10.708C150.24 10.4 152.802 9.756 155.868 8.356L155.294 7.18C153.194 8.258 151.262 8.916 148.77 9.49V5.15ZM154.86 4.73C155.49 5.696 155.812 6.312 156.232 7.418L157.184 6.858C156.736 5.822 156.386 5.108 155.756 4.226L154.86 4.73ZM157.002 4.072C157.702 5.136 157.94 5.64 158.36 6.76L159.312 6.214C158.906 5.22 158.514 4.408 157.898 3.568L157.002 4.072ZM160.7 10.008V11.338H172.74V10.008H160.7ZM177.278 4.226V16.224H174.59V17.344H178.398V4.226H177.278ZM198.84 7.222L198.812 4.856H197.538L197.58 7.222H193.38V8.426H197.608L197.664 11.73C197.272 11.618 196.922 11.52 196.222 11.52C194.444 11.52 193.156 12.514 193.156 13.97C193.156 15.104 193.968 16.378 196.152 16.378C198.826 16.378 198.84 14.796 198.84 13.998V13.48C199.61 13.97 200.31 14.558 200.87 15.3L201.696 14.166C201.052 13.48 200.016 12.682 198.882 12.122L198.84 8.426H201.458V7.222H198.84ZM197.664 13.746C197.664 14.502 197.608 15.328 196.082 15.328C195.34 15.328 194.276 15.062 194.276 13.984C194.276 12.934 195.298 12.57 196.236 12.57C196.95 12.57 197.342 12.738 197.664 12.878V13.746ZM190.706 4.828C190.328 7.012 190.188 9.042 190.188 11.254C190.188 12.976 190.244 14.712 190.58 16.406L191.84 16.238C191.476 14.642 191.406 12.99 191.406 11.352C191.406 8.216 191.742 6.326 192.008 4.926L190.706 4.828ZM214.242 17.134V5.136H216.93V4.016H213.122V17.134H214.242ZM225.878 4.184V5.066H221.692V6.018H223.736C223.778 6.13 224.03 7.068 224.086 7.292H222.154V15.034H223.218V8.202H225.934V9.252H223.652V10.12H225.934V11.086H224.156V13.984H228.748V11.086H226.956V10.12H229.224V9.252H226.956V8.202H229.658V13.816C229.658 14.138 229.532 14.166 229.35 14.166L228.048 14.152L228.202 15.216H229.686C230.414 15.216 230.722 14.81 230.722 14.138V7.292H228.678C228.874 6.816 228.986 6.494 229.126 6.018H231.24V5.066H227.012V4.184H225.878ZM225.094 7.292C224.968 6.746 224.954 6.676 224.786 6.018H228.104C228.062 6.2 227.852 6.928 227.698 7.292H225.094ZM227.782 13.13H225.108V11.926H227.782V13.13ZM224.212 15.762C223.806 15.762 221.258 15.566 220.978 13.858V9.616H218.36V10.764H219.872V14.712C219.256 15.37 218.458 15.888 218.206 16.042L218.766 17.232C219.76 16.364 219.83 16.28 220.726 15.258C221.034 15.664 221.902 16.84 224.198 16.84H231.198L231.422 15.762H224.212ZM221.482 6.704C220.81 5.766 219.998 4.94 219.34 4.38L218.57 5.08C219.83 6.312 220.32 7.068 220.572 7.446L221.482 6.704ZM234.098 8.104L232.656 8.342L232.726 9.476L234.098 9.252V13.732C234.098 14.404 234.448 14.754 235.106 14.754H236.744C237.892 14.754 238.158 13.648 238.382 11.814L237.248 11.548C237.22 12.08 237.122 13.676 236.52 13.676H235.652C235.302 13.676 235.232 13.578 235.232 13.27V9.07L238.312 8.566L238.242 7.418L235.232 7.908V4.198H234.098V8.104ZM237.92 4.8V5.934H240.426C240.426 10.848 239.978 13.998 235.89 16.182L236.702 17.19C240.58 14.824 241.546 12.052 241.602 5.934H244.248C244.248 7.53 244.248 14.39 243.506 15.594C243.268 15.986 242.806 15.972 242.666 15.972L240.58 15.958L240.832 17.148H242.862C244.108 17.148 244.486 16.504 244.654 16.154C245.424 14.502 245.424 8.216 245.424 4.8H237.92ZM257.046 8.636H255.786L255.87 11.632C255.562 11.562 255.114 11.464 254.414 11.464C251.936 11.464 251.124 13.018 251.124 14.068C251.124 15.37 252.16 16.532 254.26 16.532C255.646 16.532 257.06 16.028 257.06 13.956V13.382C257.564 13.676 258.418 14.194 259.328 15.286L260.098 14.18C259.412 13.424 258.292 12.556 257.116 12.038L257.046 8.636ZM255.898 13.732C255.898 14.684 255.688 15.44 254.302 15.44C254.036 15.44 252.314 15.44 252.314 14.026C252.314 13.242 252.986 12.528 254.414 12.528C255.156 12.528 255.576 12.682 255.898 12.794V13.732ZM251.74 6.48C251.922 5.458 251.936 5.374 252.048 4.702L250.718 4.646C250.662 5.206 250.62 5.514 250.466 6.48H247.876V7.656H250.242C249.878 9.224 249.262 11.968 247.764 14.376L249.052 14.936C249.556 13.9 250.704 11.562 251.502 7.656H254.68V6.48H251.74ZM259.86 7.572C258.376 6.746 257.438 6.326 256.038 5.836L255.548 6.872C256.808 7.334 257.858 7.838 259.272 8.692L259.86 7.572ZM263.446 10.638C264.426 10.022 264.818 9.63 265.224 9.224C267.282 10.26 268.514 11.128 269.676 12.122C268.08 13.872 265.91 14.908 263.614 15.454L264.216 16.616C272.616 14.432 273.344 7.74 273.596 5.458H266.358C265.518 7.32 264.286 8.622 262.62 9.658L263.446 10.638ZM272.154 6.62C271.832 8.79 271.188 10.078 270.446 11.17C269.06 9.98 267.45 9.112 265.994 8.384C266.372 7.922 266.624 7.6 267.198 6.62H272.154ZM284.378 9.084C286.338 7.516 287.5 6.158 288.116 5.43L286.94 4.66C284.336 7.936 280.892 10.47 276.902 11.716L277.518 12.878C279.31 12.248 281.13 11.408 283.034 10.078V16.602H284.378V9.084ZM302.118 6.214C298.856 5.472 296.336 5.164 292.962 4.968L292.752 6.13C296.224 6.312 298.954 6.718 301.88 7.502L302.118 6.214ZM301.39 10.456C299.066 9.756 296.84 9.28 292.892 8.986L292.654 10.148C296.154 10.414 298.422 10.806 301.166 11.674L301.39 10.456ZM302.692 15.202C301.152 14.754 297.624 13.718 292.066 13.438L291.814 14.628C296.798 15.006 299.36 15.566 302.342 16.532L302.692 15.202ZM311.472 7.572C311.108 7.348 309.568 6.354 307.09 5.612L306.46 6.732C308.476 7.362 309.946 8.188 310.772 8.748L311.472 7.572ZM307.006 16.224C315.07 15.692 317.31 9.154 317.982 7.166L316.89 6.354C315.924 9.49 313.838 14.446 306.754 14.824L307.006 16.224ZM321.512 16.728C326.496 15.608 329.422 12.836 330.584 7.502L329.282 5.78H323.682C322.702 7.74 321.274 8.944 320.182 9.686L320.98 10.638C322.562 9.574 323.598 8.426 324.522 6.956H329.38C328.582 11.17 326.412 14.46 320.98 15.538L321.512 16.728ZM331.172 4.1C331.9 5.094 332.18 5.654 332.656 6.732L333.552 6.144C332.964 4.968 332.726 4.478 332.012 3.568L331.172 4.1ZM329.31 4.646C329.996 5.556 330.346 6.158 330.836 7.25L331.718 6.648C331.13 5.486 330.85 4.982 330.136 4.1L329.31 4.646ZM342.906 9C343.564 9.924 343.914 10.582 344.376 11.702L345.356 11.086C344.866 10.022 344.46 9.266 343.816 8.44L342.906 9ZM344.978 8.104C345.65 9.07 345.972 9.672 346.448 10.806L347.428 10.19C346.924 9.098 346.56 8.412 345.888 7.544L344.978 8.104ZM346.686 5.472C343.48 5.486 342.164 5.514 338.846 5.696C338.132 5.738 335.71 5.85 335.024 5.864L335.136 7.236C336.662 7.054 341.506 6.76 341.912 6.746C340.26 7.712 337.81 9.546 337.81 12.206C337.81 16.126 342.458 16.322 345.216 16.434L345.468 15.076C344.222 15.118 342.836 15.006 341.94 14.824C340.456 14.516 339.112 13.942 339.112 12.122C339.112 9.714 341.856 7.544 343.872 6.872C344.292 6.732 344.6 6.704 345.286 6.704C345.678 6.704 346.112 6.718 346.714 6.76L346.686 5.472ZM7.35 37.434C8.904 37.28 10.304 36.804 11.214 36.048C12.488 34.984 13.09 33.332 13.09 31.666C13.09 29.3 11.872 26.164 7.336 26.164C3.64 26.164 0.868 28.6 0.868 32.408C0.868 34.718 2.016 36.342 3.388 36.342C4.018 36.342 4.914 36.02 5.74 34.718C7.182 32.408 7.462 28.964 7.588 27.34C11.438 27.466 11.774 30.546 11.774 31.652C11.774 35.656 8.372 36.062 6.93 36.216L7.35 37.434ZM6.342 27.396C6.202 29.006 5.978 31.848 4.802 33.864C4.438 34.48 4.018 34.998 3.43 34.998C2.436 34.998 2.086 33.388 2.086 32.436C2.086 30.812 2.73 29.244 4.032 28.292C4.746 27.76 5.516 27.55 6.342 27.396ZM22.598 25.184V26.066H18.412V27.018H20.456C20.498 27.13 20.75 28.068 20.806 28.292H18.874V36.034H19.938V29.202H22.654V30.252H20.372V31.12H22.654V32.086H20.876V34.984H25.468V32.086H23.676V31.12H25.944V30.252H23.676V29.202H26.378V34.816C26.378 35.138 26.252 35.166 26.07 35.166L24.768 35.152L24.922 36.216H26.406C27.134 36.216 27.442 35.81 27.442 35.138V28.292H25.398C25.594 27.816 25.706 27.494 25.846 27.018H27.96V26.066H23.732V25.184H22.598ZM21.814 28.292C21.688 27.746 21.674 27.676 21.506 27.018H24.824C24.782 27.2 24.572 27.928 24.418 28.292H21.814ZM24.502 34.13H21.828V32.926H24.502V34.13ZM20.932 36.762C20.526 36.762 17.978 36.566 17.698 34.858V30.616H15.08V31.764H16.592V35.712C15.976 36.37 15.178 36.888 14.926 37.042L15.486 38.232C16.48 37.364 16.55 37.28 17.446 36.258C17.754 36.664 18.622 37.84 20.918 37.84H27.918L28.142 36.762H20.932ZM18.202 27.704C17.53 26.766 16.718 25.94 16.06 25.38L15.29 26.08C16.55 27.312 17.04 28.068 17.292 28.446L18.202 27.704ZM30.818 29.104L29.376 29.342L29.446 30.476L30.818 30.252V34.732C30.818 35.404 31.168 35.754 31.826 35.754H33.464C34.612 35.754 34.878 34.648 35.102 32.814L33.968 32.548C33.94 33.08 33.842 34.676 33.24 34.676H32.372C32.022 34.676 31.952 34.578 31.952 34.27V30.07L35.032 29.566L34.962 28.418L31.952 28.908V25.198H30.818V29.104ZM34.64 25.8V26.934H37.146C37.146 31.848 36.698 34.998 32.61 37.182L33.422 38.19C37.3 35.824 38.266 33.052 38.322 26.934H40.968C40.968 28.53 40.968 35.39 40.226 36.594C39.988 36.986 39.526 36.972 39.386 36.972L37.3 36.958L37.552 38.148H39.582C40.828 38.148 41.206 37.504 41.374 37.154C42.144 35.502 42.144 29.216 42.144 25.8H34.64ZM53.766 29.636H52.506L52.59 32.632C52.282 32.562 51.834 32.464 51.134 32.464C48.656 32.464 47.844 34.018 47.844 35.068C47.844 36.37 48.88 37.532 50.98 37.532C52.366 37.532 53.78 37.028 53.78 34.956V34.382C54.284 34.676 55.138 35.194 56.048 36.286L56.818 35.18C56.132 34.424 55.012 33.556 53.836 33.038L53.766 29.636ZM52.618 34.732C52.618 35.684 52.408 36.44 51.022 36.44C50.756 36.44 49.034 36.44 49.034 35.026C49.034 34.242 49.706 33.528 51.134 33.528C51.876 33.528 52.296 33.682 52.618 33.794V34.732ZM48.46 27.48C48.642 26.458 48.656 26.374 48.768 25.702L47.438 25.646C47.382 26.206 47.34 26.514 47.186 27.48H44.596V28.656H46.962C46.598 30.224 45.982 32.968 44.484 35.376L45.772 35.936C46.276 34.9 47.424 32.562 48.222 28.656H51.4V27.48H48.46ZM56.58 28.572C55.096 27.746 54.158 27.326 52.758 26.836L52.268 27.872C53.528 28.334 54.578 28.838 55.992 29.692L56.58 28.572ZM66.144 31.4C66.242 30.798 66.284 30.336 66.284 29.524H70.134V28.502H63.75C63.946 28.124 64.058 27.886 64.282 27.326L63.162 27.088C62.728 28.446 61.902 29.468 60.908 30.266L61.79 31.022C62.336 30.532 62.658 30.182 63.134 29.524H65.192C65.192 30.532 65.122 30.966 65.052 31.4H60.978V32.436H64.716C63.722 34.494 61.496 35.04 60.796 35.208L61.468 36.23C63.064 35.698 64.856 34.788 65.78 32.66C66.13 33.458 67.25 35.236 70.414 36.216L71.03 35.138C68.762 34.634 67.278 33.332 66.802 32.436H70.722V31.4H66.144ZM59.06 25.646V37.882H71.492V36.818H60.25V26.724H71.198V25.646H59.06ZM84.612 31.988C85.046 32.254 85.312 32.38 85.69 32.562L86.222 31.624C85.83 31.484 85.452 31.344 84.822 30.994C84.85 30.952 85.34 30.476 85.774 29.916L84.99 29.44C84.836 29.65 84.5 30.07 84.094 30.504C83.422 29.986 83.072 29.524 82.792 29.174H86.054V28.292H80.958C81.056 28.096 81.112 27.956 81.252 27.606L80.146 27.48C80.034 27.802 79.964 27.984 79.824 28.292H76.464V29.174H79.292C78.9 29.692 78.55 30.056 78.116 30.406C77.99 30.266 77.598 29.832 77.15 29.496L76.506 30.084C76.898 30.392 76.94 30.434 77.402 30.924C76.926 31.246 76.562 31.428 76.072 31.666L76.688 32.506C76.996 32.324 77.094 32.268 77.388 32.086V34.998H80.398V36.804C80.398 37.084 80.356 37.14 80.076 37.14H78.746L78.984 38.148H80.496C80.93 38.148 81.532 38.12 81.532 37.252V34.998H84.612V31.988ZM83.59 32.534H78.41V31.694H83.59V32.534ZM78.984 30.882C79.894 30.056 80.286 29.44 80.454 29.174H81.644C81.952 29.622 82.302 30.154 83.114 30.882H78.984ZM83.59 34.186H78.41V33.304H83.59V34.186ZM74.91 31.064C74.91 31.456 74.896 31.722 74.896 31.946C74.196 32.296 73.874 32.45 72.908 32.828L73.146 33.976C73.566 33.766 74.098 33.5 74.798 33.038C74.49 35.642 73.72 36.65 73.09 37.434L73.944 38.19C74.504 37.518 76.016 35.712 76.016 31.106V27.298H86.096V26.318H80.888V25.184H79.74V26.318H74.91V31.064ZM74.616 29.86C74.476 29.146 74.182 28.166 73.776 27.368L72.908 27.788C73.23 28.586 73.482 29.482 73.636 30.322L74.616 29.86ZM76.1 37.938C77.038 37.588 77.906 37.126 79.096 35.964L78.284 35.292C77.29 36.244 76.604 36.622 75.484 37L76.1 37.938ZM82.666 35.978C83.422 36.832 84.612 37.574 85.69 37.952L86.306 37C85.004 36.538 84.416 36.202 83.408 35.236L82.666 35.978ZM98.768 28.964C96.598 29.314 95.45 29.538 93.938 30C93.644 29.398 93.574 28.656 93.574 27.172C93.574 26.486 93.588 26.094 93.602 25.716H92.23C92.272 28.698 92.3 29.51 92.762 30.42C91.782 30.84 88.898 32.044 88.898 34.438C88.898 37.42 92.776 37.42 95.198 37.42C97.214 37.42 98.446 37.336 99.356 37.28L99.328 35.964C98.53 36.048 97.228 36.174 94.918 36.174C91.908 36.174 90.2 36.02 90.2 34.396C90.2 31.288 97.76 30.434 98.894 30.308L98.768 28.964ZM108.99 37.434C110.544 37.28 111.944 36.804 112.854 36.048C114.128 34.984 114.73 33.332 114.73 31.666C114.73 29.3 113.512 26.164 108.976 26.164C105.28 26.164 102.508 28.6 102.508 32.408C102.508 34.718 103.656 36.342 105.028 36.342C105.658 36.342 106.554 36.02 107.38 34.718C108.822 32.408 109.102 28.964 109.228 27.34C113.078 27.466 113.414 30.546 113.414 31.652C113.414 35.656 110.012 36.062 108.57 36.216L108.99 37.434ZM107.982 27.396C107.842 29.006 107.618 31.848 106.442 33.864C106.078 34.48 105.658 34.998 105.07 34.998C104.076 34.998 103.726 33.388 103.726 32.436C103.726 30.812 104.37 29.244 105.672 28.292C106.386 27.76 107.156 27.55 107.982 27.396ZM117.658 26.22V31.358H122.558V36.818H118.358V32.436H117.182V37.896H129.124V32.436H127.934V36.818H123.734V31.358H128.662V26.22H127.472V30.28H123.734V25.184H122.558V30.28H118.848V26.22H117.658ZM139.234 34.06C140.326 35.166 141.026 36.048 141.166 36.23C140.13 36.328 138.688 36.454 136.98 36.524C136.686 36.538 135.118 36.58 134.768 36.594C135.678 34.984 136.238 33.766 136.574 32.996H143.882V31.918H131.38V32.996H135.216C134.908 33.808 134.376 35.11 133.494 36.622H131.562L131.688 37.77C133.844 37.77 139.556 37.518 141.894 37.182C142.188 37.616 142.356 37.882 142.58 38.26L143.588 37.588C142.51 35.88 141.656 34.9 140.158 33.43L139.234 34.06ZM141.39 29.342C142.384 30.014 143.168 30.378 143.784 30.658L144.4 29.538C141.964 28.67 139.738 26.976 138.282 25.03H137.036C136.658 25.59 135.09 27.858 130.918 29.496L131.492 30.63C131.968 30.434 132.738 30.098 133.984 29.328V30.112H141.39V29.342ZM134.418 29.048C135.594 28.236 136.784 27.256 137.666 26.024C138.156 26.64 138.968 27.648 140.942 29.048H134.418ZM146.782 26.374C146.698 27.326 146.558 28.852 146.558 30.378C146.558 34.018 147.188 37.154 149.456 37.154C150.17 37.154 150.688 36.818 151.024 36.482C151.808 35.698 152.452 34.522 152.914 33.22L151.878 32.632C150.912 35.152 150.184 35.726 149.554 35.726C147.986 35.726 147.818 32.66 147.818 30.49C147.818 28.6 148 27.326 148.112 26.486L146.782 26.374ZM158.066 35.768C158.262 30.168 156.82 28.194 155.154 26.794L154.188 27.536C155.644 28.726 156.736 30.742 156.736 34.396C156.736 35.04 156.708 35.46 156.68 35.824L158.066 35.768ZM162.758 25.226V37.224H160.07V38.344H163.878V25.226H162.758ZM181.59 37.434C183.144 37.28 184.544 36.804 185.454 36.048C186.728 34.984 187.33 33.332 187.33 31.666C187.33 29.3 186.112 26.164 181.576 26.164C177.88 26.164 175.108 28.6 175.108 32.408C175.108 34.718 176.256 36.342 177.628 36.342C178.258 36.342 179.154 36.02 179.98 34.718C181.422 32.408 181.702 28.964 181.828 27.34C185.678 27.466 186.014 30.546 186.014 31.652C186.014 35.656 182.612 36.062 181.17 36.216L181.59 37.434ZM180.582 27.396C180.442 29.006 180.218 31.848 179.042 33.864C178.678 34.48 178.258 34.998 177.67 34.998C176.676 34.998 176.326 33.388 176.326 32.436C176.326 30.812 176.97 29.244 178.272 28.292C178.986 27.76 179.756 27.55 180.582 27.396ZM193.632 30.98C193.982 30.798 194.402 30.588 195.088 30.07V31.694H200.52V30.126C201.01 30.504 201.444 30.756 202.074 31.036L202.522 30.126C200.996 29.44 200.464 28.978 199.778 27.998H202.214V27.13H197.524C197.58 27.018 197.678 26.836 197.902 26.304C198.546 26.262 200.366 26.122 201.416 25.912L200.94 25.072C199.778 25.31 197.902 25.604 193.814 25.59L194.038 26.43C194.57 26.43 195.074 26.43 196.782 26.36C196.712 26.5 196.628 26.682 196.39 27.13H193.478V27.998H195.83C194.878 29.272 193.646 29.846 193.114 30.098L193.632 30.98ZM198.672 27.998C198.854 28.306 199.064 28.656 199.47 29.146H196.11C196.474 28.754 196.712 28.474 197.02 27.998H198.672ZM199.624 30.924H195.97V29.916H199.624V30.924ZM201.836 32.38H193.758V38.176H194.808V33.234H200.758V36.636C200.758 37.14 200.716 37.224 200.24 37.21L199.33 37.196L199.526 38.176H200.66C201.29 38.176 201.836 38.106 201.836 37.21V32.38ZM199.022 36.062H196.572V34.788H199.022V36.062ZM193.646 32.044C192.75 30.98 192.344 30.07 192.148 29.566V28.978H193.408V27.914H192.148V25.184H191.07V27.914H189.292V28.978H191.028C190.664 30.826 189.782 32.464 189.11 33.402L189.614 34.746C189.964 34.228 190.524 33.36 191.07 31.596V38.176H192.148V31.288C192.372 31.848 192.428 31.988 193.03 32.912L193.646 32.044ZM199.96 34.004H195.62V36.874H199.96V34.004ZM207.522 26.234V31.456C207.522 34.998 206.374 36.538 205.842 37.252L206.752 38.134C207.06 37.686 207.872 36.524 208.264 34.76C208.474 33.794 208.642 32.436 208.642 31.47V29.566H210.252V31.764H214.76V29.566H216.636V28.6H214.76V27.62H213.724V28.6H211.288V27.62H210.252V28.6H208.642V27.27H216.748V26.234H212.716V25.184H211.582V26.234H207.522ZM204.204 26.22C204.736 26.472 205.8 27.074 206.332 27.634L207.046 26.598C206.066 25.884 205.45 25.562 204.848 25.31L204.204 26.22ZM213.724 29.566V30.854H211.288V29.566H213.724ZM216.916 37.084C216.356 36.986 215.194 36.762 213.696 36.146C215.124 35.11 215.656 34.032 215.894 33.542V32.576H209.048V33.57H214.676C214.396 34.004 213.85 34.83 212.562 35.586C211.33 34.844 210.798 34.172 210.518 33.836L209.608 34.326C209.874 34.676 210.392 35.32 211.484 36.118C209.846 36.804 208.628 36.986 207.956 37.084L208.46 38.204C210.182 37.826 211.428 37.406 212.576 36.804C214.312 37.756 215.726 38.036 216.454 38.176L216.916 37.084ZM203.574 29.93C204.33 30.294 205.1 30.784 205.744 31.344L206.444 30.378C205.968 29.986 205.044 29.356 204.218 28.992L203.574 29.93ZM205.548 32.632C205.254 33.71 204.582 35.53 203.532 37.084L204.414 38.064C205.786 35.894 206.332 33.892 206.5 33.206L205.548 32.632ZM220.81 25.828C220.796 26.78 220.712 31.428 220.712 32.478C220.712 34.914 220.964 37.476 224.8 37.476C229.056 37.476 229.966 34.592 230.414 32.058L229.238 31.624C228.846 33.752 228.384 36.272 224.758 36.272C222.126 36.272 222.042 34.396 222.042 32.604C222.042 31.274 222.098 29.608 222.224 25.828H220.81ZM234.574 25.954C234.126 28.054 233.986 30.294 233.986 32.604C233.986 35.278 234.224 36.678 234.35 37.49L235.708 37.378C235.596 36.874 235.274 35.53 235.274 32.408C235.274 28.88 235.694 27.046 235.904 26.066L234.574 25.954ZM238.032 27.088V28.32H244.612V27.088H238.032ZM238.34 31.722C237.85 32.548 237.598 33.346 237.598 34.074C237.598 36.482 240.188 36.678 242.26 36.678C243.45 36.678 244.43 36.594 244.906 36.552V35.236C243.618 35.376 242.47 35.404 241.7 35.404C240.202 35.404 238.774 35.236 238.774 33.962C238.774 33.836 238.788 33.038 239.474 32.072L238.34 31.722ZM254.554 29.258H259.286V27.998L254.554 28.04L254.54 25.716H253.224L253.28 32.31C252.93 32.268 252.664 32.226 252.202 32.226C250.2 32.226 248.226 33.052 248.226 34.97C248.226 36.342 249.262 37.49 251.572 37.49C254.484 37.49 254.582 35.698 254.568 34.872L254.554 33.906C256.262 34.564 257.886 35.824 258.74 36.776L259.65 35.572C258.964 34.858 257.326 33.514 254.568 32.576L254.554 29.258ZM253.294 34.788C253.294 35.362 253.154 36.328 251.558 36.328C251.25 36.328 249.472 36.328 249.472 34.984C249.472 33.85 250.802 33.374 252.006 33.374C252.594 33.374 253.014 33.458 253.308 33.514L253.294 34.788ZM266.764 37.042C267.884 37.028 269.088 36.93 270.18 36.58C272.854 35.74 273.162 33.542 273.162 32.702C273.162 30.742 271.79 29.258 269.396 29.258C268.654 29.258 267.674 29.398 266.806 29.538C266.33 29.622 264.006 30.042 263.474 30.126L263.684 31.358C265.84 30.812 268.22 30.35 269.34 30.35C270.712 30.35 271.93 31.05 271.93 32.744C271.93 35.992 267.618 35.964 266.456 35.95L266.764 37.042ZM288.606 26.472C285.162 26.5 283.874 26.528 280.738 26.696C280.024 26.738 277.784 26.836 276.944 26.864L277.056 28.236C278.582 28.054 283.426 27.76 283.832 27.746C282.18 28.712 279.73 30.546 279.73 33.206C279.73 37.126 284.378 37.322 287.136 37.434L287.388 36.076C286.184 36.118 284.84 36.034 283.86 35.824C282.376 35.516 281.032 34.942 281.032 33.122C281.032 30.714 283.776 28.544 285.792 27.872C286.212 27.732 286.506 27.704 287.206 27.704C287.752 27.704 288.158 27.718 288.634 27.76L288.606 26.472ZM294.922 36.874C294.334 36.076 293.34 34.9 292.43 34.06L291.366 34.844C291.828 35.334 292.696 36.244 293.69 37.742L294.922 36.874ZM312.158 37.686C315.14 36.622 315.854 34.284 316.19 32.912C316.89 33.22 317.128 33.346 317.758 33.724L318.178 32.464C317.31 31.988 316.498 31.68 316.456 31.666C316.666 30.546 316.778 29.328 316.876 28.32L315.546 28.222C315.518 28.866 315.448 29.86 315.238 31.232C313.964 30.812 313.04 30.588 311.864 30.49C312.326 27.732 312.368 27.424 312.55 26.024H306.754V27.242L311.136 27.2C311.052 28.194 310.87 29.44 310.674 30.448C306.096 30.63 305.844 33.64 305.844 34.326C305.844 35.824 306.824 36.72 308.168 36.72C310.282 36.72 310.898 34.718 311.654 31.596C312.914 31.708 314.104 32.072 315.014 32.422C314.524 34.452 313.796 35.852 311.388 36.72L312.158 37.686ZM310.464 31.526C309.722 34.564 309.344 35.614 308.084 35.614C307.02 35.614 306.95 34.522 306.95 34.256C306.95 33.304 307.524 32.394 308.434 31.946C309.05 31.638 309.638 31.554 310.464 31.526ZM329.646 29.636H328.386L328.47 32.632C328.162 32.562 327.714 32.464 327.014 32.464C324.536 32.464 323.724 34.018 323.724 35.068C323.724 36.37 324.76 37.532 326.86 37.532C328.246 37.532 329.66 37.028 329.66 34.956V34.382C330.164 34.676 331.018 35.194 331.928 36.286L332.698 35.18C332.012 34.424 330.892 33.556 329.716 33.038L329.646 29.636ZM328.498 34.732C328.498 35.684 328.288 36.44 326.902 36.44C326.636 36.44 324.914 36.44 324.914 35.026C324.914 34.242 325.586 33.528 327.014 33.528C327.756 33.528 328.176 33.682 328.498 33.794V34.732ZM324.34 27.48C324.522 26.458 324.536 26.374 324.648 25.702L323.318 25.646C323.262 26.206 323.22 26.514 323.066 27.48H320.476V28.656H322.842C322.478 30.224 321.862 32.968 320.364 35.376L321.652 35.936C322.156 34.9 323.304 32.562 324.102 28.656H327.28V27.48H324.34ZM332.46 28.572C330.976 27.746 330.038 27.326 328.638 26.836L328.148 27.872C329.408 28.334 330.458 28.838 331.872 29.692L332.46 28.572ZM344.964 32.8C344.124 31.904 343.312 30.546 342.724 29.132C343.956 29.076 345.16 29.02 346.686 28.698L346.462 27.494C345.062 27.788 343.746 27.956 342.318 27.998C342.136 27.438 341.94 26.528 341.814 25.674L340.484 25.772C340.54 26.108 340.75 27.13 341.03 28.04C340.68 28.054 339.924 28.068 339.336 28.054L335.248 27.984V29.202H339.28C339.49 29.202 340.568 29.188 341.422 29.174C342.178 31.092 343.06 32.604 343.886 33.528L344.964 32.8ZM337.908 31.652C336.48 32.352 335.878 33.36 335.878 34.382C335.878 35.082 336.144 35.768 336.704 36.272C337.684 37.154 339.07 37.434 341.52 37.434C343.438 37.434 344.67 37.322 345.174 37.266L345.16 36.02C344.292 36.132 343.228 36.258 341.408 36.258C339.406 36.258 337.138 36.076 337.138 34.368C337.138 34.102 337.208 33.234 338.58 32.562L337.908 31.652ZM4.746 46.632C4.41 47.542 3.598 49.782 3.388 50.37C3.066 51.28 2.828 51.952 0.84 58.028L2.156 58.434C2.534 57.02 2.758 56.18 3.248 54.878C4.13 53.072 5.278 52.778 5.838 52.778C6.832 52.778 7.084 53.604 7.084 54.64V55.424C7.084 56.516 7.098 58.49 9.478 58.49C12.684 58.49 13.02 54.738 13.104 52.89L11.886 52.61C11.886 53.422 11.816 54.472 11.424 55.606C10.962 56.936 10.248 57.258 9.562 57.258C8.428 57.258 8.316 56.488 8.316 55.48V54.542C8.316 53.576 8.204 51.588 6.048 51.588C5.278 51.588 4.732 51.854 3.976 52.47C4.354 51.378 5.194 49.082 6.132 47.01L4.746 46.632ZM21.87 58.434C23.424 58.28 24.824 57.804 25.734 57.048C27.008 55.984 27.61 54.332 27.61 52.666C27.61 50.3 26.392 47.164 21.856 47.164C18.16 47.164 15.388 49.6 15.388 53.408C15.388 55.718 16.536 57.342 17.908 57.342C18.538 57.342 19.434 57.02 20.26 55.718C21.702 53.408 21.982 49.964 22.108 48.34C25.958 48.466 26.294 51.546 26.294 52.652C26.294 56.656 22.892 57.062 21.45 57.216L21.87 58.434ZM20.862 48.396C20.722 50.006 20.498 52.848 19.322 54.864C18.958 55.48 18.538 55.998 17.95 55.998C16.956 55.998 16.606 54.388 16.606 53.436C16.606 51.812 17.25 50.244 18.552 49.292C19.266 48.76 20.036 48.55 20.862 48.396ZM38.126 46.184V47.094H36.306V48.018H38.126V49.11H35.564V50.02H38.126V51.14H36.306V52.036H38.126V53.044H36.11V53.954H38.126V55.004H35.732V55.942H38.126V57.188H39.134V55.942H42.466V55.004H39.134V53.954H42.018V53.044H39.134V52.036H41.836V50.02H42.508V49.11H41.836V47.094H39.134V46.184H38.126ZM40.8 49.11H39.134V48.018H40.8V49.11ZM40.8 51.14H39.134V50.02H40.8V51.14ZM38.798 57.692C36.068 57.692 34.822 56.46 34.738 56.362C34.892 55.956 35.536 54.094 35.592 51.056H33.8C34.416 49.978 35.088 48.816 35.564 47.766V46.716H32.764V47.724H34.43C34.094 48.536 33.184 50.258 32.624 51.042V52.064H34.57C34.542 53.1 34.444 54.192 34.052 55.368C33.59 54.402 33.464 53.506 33.38 52.932L32.428 53.072C32.512 53.59 32.75 55.228 33.562 56.474C33.016 57.37 32.54 57.734 32.148 58.042L32.778 59.078C33.184 58.7 33.688 58.238 34.248 57.328C34.64 57.706 36.026 58.784 38.714 58.784H42.452L42.634 57.692H38.798ZM31.826 49.544C32.316 48.2 32.512 47.15 32.652 46.338L31.532 46.156C31.252 48.144 30.51 50.566 29.32 52.008L29.866 53.156C30.16 52.848 30.384 52.61 30.748 51.952V59.148H31.826V49.544ZM55.642 54.066C54.928 54.948 53.808 55.816 53.64 55.942C52.702 55.242 52.198 54.584 51.848 54.094V53.968H55.95V52.036H57.056V51.112H55.95V49.25H51.848V48.592H50.756V49.25H46.822V50.16H50.756V51.112H46.206V48.242H56.972V47.206H51.288V46.184H50.126V47.206H45.072V53.03C45.072 54.43 44.96 54.892 44.806 55.704C44.554 57.02 44.134 57.79 43.896 58.196L44.848 59.19C46.08 56.866 46.206 54.164 46.206 53.128V52.036H50.756V53.072H46.822V53.968H50.756V57.72C50.756 57.902 50.728 58.042 50.406 58.042L48.908 58.028L49.132 59.176H50.826C51.54 59.176 51.848 58.756 51.848 58.14V55.536C53.192 57.202 55.026 58.238 56.524 58.798L57.182 57.72C56.678 57.538 55.726 57.202 54.55 56.53C55.488 55.844 55.95 55.424 56.58 54.752L55.642 54.066ZM54.844 50.16V51.112H51.848V50.16H54.844ZM54.844 52.036V53.072H51.848V52.036H54.844ZM46.836 54.892C47.746 55.312 48.18 55.592 48.796 56.166L49.538 55.312C48.824 54.752 48.362 54.5 47.466 54.08L46.836 54.892ZM50.098 55.886C49.622 56.11 47.522 57.076 45.912 57.58L46.346 58.588C49.328 57.342 49.664 57.202 50.28 56.866L50.098 55.886ZM65.08 51.238C64.296 51.238 63.638 51.868 63.638 52.68C63.638 53.464 64.268 54.122 65.08 54.122C65.892 54.122 66.522 53.45 66.522 52.68C66.522 51.896 65.878 51.238 65.08 51.238ZM85.396 58.084C84.584 57.608 83.212 56.824 81.434 56.082C81.98 55.522 82.904 54.472 83.576 52.33H86.054V51.224H78.466C78.97 50.202 79.152 49.74 79.306 49.362L78.018 49.124C77.85 49.614 77.612 50.272 77.122 51.224H73.146V52.33H76.52C75.75 53.66 75.064 54.472 74.644 54.962C76.828 55.564 78.074 55.984 79.208 56.432C77.458 57.398 75.358 57.748 73.482 57.916L73.888 59.148C77.528 58.77 79.684 57.496 80.454 56.936C82.75 57.93 83.996 58.756 84.626 59.176L85.396 58.084ZM82.344 52.33C82.19 52.792 81.658 54.402 80.314 55.634C78.914 55.102 77.514 54.696 76.506 54.402C76.786 54.038 77.192 53.506 77.864 52.33H82.344ZM73.482 47.444V50.496H74.672V48.522H84.542V50.496H85.732V47.444H80.174V46.184H78.97V47.444H73.482ZM98.25 50.818C99.118 51.364 99.748 51.644 100.238 51.868L100.826 50.72C98.25 49.782 96.178 48.102 94.764 46.198H93.49C91.936 48.368 89.64 49.88 87.414 50.734L88.002 51.882C88.506 51.644 89.094 51.378 90.046 50.804V51.868H93.532V53.996H89.08V55.046H93.532V57.692H87.708V58.812H100.532V57.692H94.722V55.046H99.202V53.996H94.722V51.868H98.25V50.818ZM90.06 50.79C91.614 49.852 92.986 48.62 94.12 47.192C95.618 49.054 97.34 50.23 98.208 50.79H90.06ZM107.674 48.046C107.87 47.346 107.94 47.024 108.024 46.534L106.68 46.478C106.582 47.276 106.484 47.682 106.386 48.046H103.166V49.166H106.05C105.154 51.784 104.034 53.268 102.802 54.43L103.67 55.368C104.118 54.906 105.042 53.674 105.686 52.792C106.666 51.798 107.688 51.364 108.458 51.364C109.102 51.364 109.494 51.644 109.648 52.47C108.262 53.086 105.756 54.346 105.756 56.25C105.756 58.504 108.92 58.504 110.502 58.504C111.832 58.504 113.05 58.42 113.848 58.364L113.806 57.16C112.546 57.3 111.23 57.356 110.11 57.356C108.57 57.356 107.016 57.356 107.016 56.124C107.016 54.976 108.71 54.08 109.788 53.576C109.816 53.94 109.816 54.178 109.816 54.416C109.816 54.92 109.774 55.438 109.746 55.76H110.964C111.006 55.312 111.006 54.892 111.006 54.696C111.006 54.192 110.992 53.59 110.95 53.1C112.49 52.512 113.484 52.204 114.618 51.882L114.282 50.664C113.022 51.098 111.104 51.868 110.782 51.994C110.502 50.664 109.606 50.356 108.654 50.356C107.954 50.356 107.394 50.594 106.414 51.182C106.82 50.482 107.016 50.02 107.338 49.166H113.512V48.046H107.674ZM126.912 49.39V46.73H125.652V49.39H120.766V46.786H119.492V49.39H117.126V50.594H119.492V54.36H120.766V50.594H125.652V52.316C125.652 55.396 123.818 57.006 119.856 57.384L120.318 58.602C122.418 58.35 126.912 57.524 126.912 52.372V50.594H129.334V49.39H126.912ZM138.296 49.138V46.8H137.008V49.138H132.164V50.328H137.008V58.644H138.296V50.328H143.154V49.824C143.994 49.586 144.568 48.83 144.568 47.962C144.568 46.884 143.7 46.016 142.622 46.016C141.558 46.016 140.676 46.884 140.676 47.948C140.676 48.396 140.816 48.802 141.082 49.138H138.296ZM142.622 46.884C143.21 46.884 143.7 47.36 143.7 47.962C143.7 48.55 143.224 49.04 142.622 49.04C142.034 49.04 141.544 48.55 141.544 47.962C141.544 47.36 142.034 46.884 142.622 46.884ZM132.864 57.804C134.544 55.928 134.978 53.646 135.174 51.798L133.984 51.672C133.83 53.394 133.326 55.396 131.842 56.88L132.864 57.804ZM140.186 51.798C140.662 54.668 141.208 56.208 142.468 57.748L143.518 56.936C142.37 55.55 141.782 54.094 141.362 51.658L140.186 51.798ZM146.18 52.008V53.338H158.22V52.008H146.18ZM172.236 53.254C170.22 52.162 168.05 51.084 165.404 50.244V46.66H164.046V58.63H165.404V51.56C168.33 52.568 170.626 53.968 171.578 54.556L172.236 53.254ZM177.25 46.828C177.236 47.78 177.152 52.428 177.152 53.478C177.152 55.914 177.404 58.476 181.24 58.476C185.496 58.476 186.406 55.592 186.854 53.058L185.678 52.624C185.286 54.752 184.824 57.272 181.198 57.272C178.566 57.272 178.482 55.396 178.482 53.604C178.482 52.274 178.538 50.608 178.664 46.828H177.25ZM193.282 57.874C192.694 57.076 191.7 55.9 190.79 55.06L189.726 55.844C190.188 56.334 191.056 57.244 192.05 58.742L193.282 57.874ZM211.344 52.4C211.442 51.798 211.484 51.336 211.484 50.524H215.334V49.502H208.95C209.146 49.124 209.258 48.886 209.482 48.326L208.362 48.088C207.928 49.446 207.102 50.468 206.108 51.266L206.99 52.022C207.536 51.532 207.858 51.182 208.334 50.524H210.392C210.392 51.532 210.322 51.966 210.252 52.4H206.178V53.436H209.916C208.922 55.494 206.696 56.04 205.996 56.208L206.668 57.23C208.264 56.698 210.056 55.788 210.98 53.66C211.33 54.458 212.45 56.236 215.614 57.216L216.23 56.138C213.962 55.634 212.478 54.332 212.002 53.436H215.922V52.4H211.344ZM204.26 46.646V58.882H216.692V57.818H205.45V47.724H216.398V46.646H204.26ZM229.812 52.988C230.246 53.254 230.512 53.38 230.89 53.562L231.422 52.624C231.03 52.484 230.652 52.344 230.022 51.994C230.05 51.952 230.54 51.476 230.974 50.916L230.19 50.44C230.036 50.65 229.7 51.07 229.294 51.504C228.622 50.986 228.272 50.524 227.992 50.174H231.254V49.292H226.158C226.256 49.096 226.312 48.956 226.452 48.606L225.346 48.48C225.234 48.802 225.164 48.984 225.024 49.292H221.664V50.174H224.492C224.1 50.692 223.75 51.056 223.316 51.406C223.19 51.266 222.798 50.832 222.35 50.496L221.706 51.084C222.098 51.392 222.14 51.434 222.602 51.924C222.126 52.246 221.762 52.428 221.272 52.666L221.888 53.506C222.196 53.324 222.294 53.268 222.588 53.086V55.998H225.598V57.804C225.598 58.084 225.556 58.14 225.276 58.14H223.946L224.184 59.148H225.696C226.13 59.148 226.732 59.12 226.732 58.252V55.998H229.812V52.988ZM228.79 53.534H223.61V52.694H228.79V53.534ZM224.184 51.882C225.094 51.056 225.486 50.44 225.654 50.174H226.844C227.152 50.622 227.502 51.154 228.314 51.882H224.184ZM228.79 55.186H223.61V54.304H228.79V55.186ZM220.11 52.064C220.11 52.456 220.096 52.722 220.096 52.946C219.396 53.296 219.074 53.45 218.108 53.828L218.346 54.976C218.766 54.766 219.298 54.5 219.998 54.038C219.69 56.642 218.92 57.65 218.29 58.434L219.144 59.19C219.704 58.518 221.216 56.712 221.216 52.106V48.298H231.296V47.318H226.088V46.184H224.94V47.318H220.11V52.064ZM219.816 50.86C219.676 50.146 219.382 49.166 218.976 48.368L218.108 48.788C218.43 49.586 218.682 50.482 218.836 51.322L219.816 50.86ZM221.3 58.938C222.238 58.588 223.106 58.126 224.296 56.964L223.484 56.292C222.49 57.244 221.804 57.622 220.684 58L221.3 58.938ZM227.866 56.978C228.622 57.832 229.812 58.574 230.89 58.952L231.506 58C230.204 57.538 229.616 57.202 228.608 56.236L227.866 56.978ZM234.574 46.954C234.126 49.054 233.986 51.294 233.986 53.604C233.986 56.278 234.224 57.678 234.35 58.49L235.708 58.378C235.596 57.874 235.274 56.53 235.274 53.408C235.274 49.88 235.694 48.046 235.904 47.066L234.574 46.954ZM238.032 48.088V49.32H244.612V48.088H238.032ZM238.34 52.722C237.85 53.548 237.598 54.346 237.598 55.074C237.598 57.482 240.188 57.678 242.26 57.678C243.45 57.678 244.43 57.594 244.906 57.552V56.236C243.618 56.376 242.47 56.404 241.7 56.404C240.202 56.404 238.774 56.236 238.774 54.962C238.774 54.836 238.788 54.038 239.474 53.072L238.34 52.722ZM252.006 57.678C253.7 57.664 255.268 57.468 256.458 56.978C259.44 55.774 259.79 53.408 259.79 52.33C259.79 50.23 258.46 48.13 255.184 48.13C254.022 48.13 252.678 48.354 251.348 48.592C250.774 48.69 248.058 49.166 247.736 49.208L248.044 50.622C250.41 50.034 253.42 49.362 255.1 49.362C257.83 49.362 258.446 51.028 258.446 52.344C258.446 53.73 257.718 54.738 256.962 55.284C255.59 56.264 253.98 56.46 251.67 56.474L252.006 57.678ZM262.942 47.374C262.858 48.326 262.718 49.852 262.718 51.378C262.718 55.018 263.348 58.154 265.616 58.154C266.33 58.154 266.848 57.818 267.184 57.482C267.968 56.698 268.612 55.522 269.074 54.22L268.038 53.632C267.072 56.152 266.344 56.726 265.714 56.726C264.146 56.726 263.978 53.66 263.978 51.49C263.978 49.6 264.16 48.326 264.272 47.486L262.942 47.374ZM274.226 56.768C274.422 51.168 272.98 49.194 271.314 47.794L270.348 48.536C271.804 49.726 272.896 51.742 272.896 55.396C272.896 56.04 272.868 56.46 272.84 56.824L274.226 56.768ZM288.606 47.472C285.162 47.5 283.874 47.528 280.738 47.696C280.024 47.738 277.784 47.836 276.944 47.864L277.056 49.236C278.582 49.054 283.426 48.76 283.832 48.746C282.18 49.712 279.73 51.546 279.73 54.206C279.73 58.126 284.378 58.322 287.136 58.434L287.388 57.076C286.184 57.118 284.84 57.034 283.86 56.824C282.376 56.516 281.032 55.942 281.032 54.122C281.032 51.714 283.776 49.544 285.792 48.872C286.212 48.732 286.506 48.704 287.206 48.704C287.752 48.704 288.158 48.718 288.634 48.76L288.606 47.472ZM297.75 58.434C299.304 58.28 300.704 57.804 301.614 57.048C302.888 55.984 303.49 54.332 303.49 52.666C303.49 50.3 302.272 47.164 297.736 47.164C294.04 47.164 291.268 49.6 291.268 53.408C291.268 55.718 292.416 57.342 293.788 57.342C294.418 57.342 295.314 57.02 296.14 55.718C297.582 53.408 297.862 49.964 297.988 48.34C301.838 48.466 302.174 51.546 302.174 52.652C302.174 56.656 298.772 57.062 297.33 57.216L297.75 58.434ZM296.742 48.396C296.602 50.006 296.378 52.848 295.202 54.864C294.838 55.48 294.418 55.998 293.83 55.998C292.836 55.998 292.486 54.388 292.486 53.436C292.486 51.812 293.13 50.244 294.432 49.292C295.146 48.76 295.916 48.55 296.742 48.396ZM312.172 49.53C312.424 49.124 312.704 48.662 313.11 47.822H318.374V46.674H305.438V47.822H311.864C310.8 50.09 308.728 52.498 305.284 54.08L305.984 55.186C306.978 54.682 309.092 53.548 311.262 50.804V59.176H312.48V49.53H312.172ZM318.57 54.136C316.442 52.834 315.014 51.364 313.824 49.88L312.97 50.552C314.678 52.708 315.602 53.646 317.73 55.186L318.57 54.136ZM332.236 58.084C331.424 57.608 330.052 56.824 328.274 56.082C328.82 55.522 329.744 54.472 330.416 52.33H332.894V51.224H325.306C325.81 50.202 325.992 49.74 326.146 49.362L324.858 49.124C324.69 49.614 324.452 50.272 323.962 51.224H319.986V52.33H323.36C322.59 53.66 321.904 54.472 321.484 54.962C323.668 55.564 324.914 55.984 326.048 56.432C324.298 57.398 322.198 57.748 320.322 57.916L320.728 59.148C324.368 58.77 326.524 57.496 327.294 56.936C329.59 57.93 330.836 58.756 331.466 59.176L332.236 58.084ZM329.184 52.33C329.03 52.792 328.498 54.402 327.154 55.634C325.754 55.102 324.354 54.696 323.346 54.402C323.626 54.038 324.032 53.506 324.704 52.33H329.184ZM320.322 47.444V50.496H321.512V48.522H331.382V50.496H332.572V47.444H327.014V46.184H325.81V47.444H320.322ZM340.96 51.238C340.176 51.238 339.518 51.868 339.518 52.68C339.518 53.464 340.148 54.122 340.96 54.122C341.772 54.122 342.402 53.45 342.402 52.68C342.402 51.896 341.758 51.238 340.96 51.238ZM1.204 74.128C1.512 72.98 1.638 71.16 1.652 70.194L0.756 70.11C0.756 70.81 0.672 72.42 0.28 73.68L1.204 74.128ZM2.226 67.184V80.176H3.36V67.184H2.226ZM5.068 71.86C4.998 71.622 4.69 70.544 4.34 69.746L3.5 70.082C3.794 70.81 4.018 71.636 4.13 72.224L5.068 71.86ZM13.062 72.112H11.956V78.874H6.02V72.112H4.914V79.882H13.062V72.112ZM10.108 71.706C9.786 72.77 9.492 73.344 9.128 74.03C8.428 73.316 8.008 72.924 7.378 72.448L6.65 73.162C7.49 73.848 7.952 74.31 8.568 74.954C7.938 75.892 7.392 76.578 6.398 77.376L7.168 78.174C8.4 77.11 8.89 76.438 9.324 75.808C9.758 76.298 10.094 76.718 10.71 77.642L11.536 76.9C11.144 76.298 10.794 75.808 9.926 74.87C10.332 74.156 10.696 73.47 11.102 72.14L10.108 71.706ZM9.716 70.068C9.38 68.766 8.764 67.548 8.596 67.212L7.56 67.506C7.644 67.674 8.358 69.158 8.638 70.404L9.716 70.068ZM11.774 71.3C12.46 70.348 13.146 68.934 13.468 67.898L12.418 67.436C12.25 67.926 11.746 69.452 10.808 70.81L11.774 71.3ZM7.084 70.614C6.734 69.69 6.132 68.598 5.544 67.8L4.578 68.206C5.194 69.088 5.726 70.18 6.048 71.006L7.084 70.614ZM21.758 79.686C24.74 78.622 25.454 76.284 25.79 74.912C26.49 75.22 26.728 75.346 27.358 75.724L27.778 74.464C26.91 73.988 26.098 73.68 26.056 73.666C26.266 72.546 26.378 71.328 26.476 70.32L25.146 70.222C25.118 70.866 25.048 71.86 24.838 73.232C23.564 72.812 22.64 72.588 21.464 72.49C21.926 69.732 21.968 69.424 22.15 68.024H16.354V69.242L20.736 69.2C20.652 70.194 20.47 71.44 20.274 72.448C15.696 72.63 15.444 75.64 15.444 76.326C15.444 77.824 16.424 78.72 17.768 78.72C19.882 78.72 20.498 76.718 21.254 73.596C22.514 73.708 23.704 74.072 24.614 74.422C24.124 76.452 23.396 77.852 20.988 78.72L21.758 79.686ZM20.064 73.526C19.322 76.564 18.944 77.614 17.684 77.614C16.62 77.614 16.55 76.522 16.55 76.256C16.55 75.304 17.124 74.394 18.034 73.946C18.65 73.638 19.238 73.554 20.064 73.526ZM36.04 72.238C35.256 72.238 34.598 72.868 34.598 73.68C34.598 74.464 35.228 75.122 36.04 75.122C36.852 75.122 37.482 74.45 37.482 73.68C37.482 72.896 36.838 72.238 36.04 72.238ZM44.05 68.388V69.48H47.172V70.908H48.306V69.48H52.786V70.908H53.906V69.48H57.07V68.388H53.906V67.17H52.786V68.388H48.306V67.17H47.172V68.388H44.05ZM57.07 71.804H51.106V70.264H49.944V71.804H44.05V72.882H49.944V74.688H45.464V79.91H55.628V74.688H51.106V72.882H57.07V71.804ZM54.466 78.888H46.626V75.724H54.466V78.888ZM67.81 72.882C67.712 72.812 67.586 72.714 67.502 72.658C67.824 72.504 69.266 71.832 70.526 70.81V70.068H62.462V70.908H68.636C67.88 71.468 67.488 71.692 66.648 72.112C66.438 71.972 65.682 71.524 64.912 71.174L64.24 71.93C65.164 72.308 65.682 72.574 66.102 72.882H62.714V80.19H63.806V77.866H66.27V80.148H67.348V77.866H69.966V78.748C69.966 79 69.84 79.042 69.644 79.042H68.482L68.692 80.19H70.078C71.044 80.19 71.044 79.49 71.044 79.07V72.882H67.81ZM66.27 74.912H63.806V73.778H66.27V74.912ZM66.27 76.984H63.806V75.78H66.27V76.984ZM69.966 74.912H67.348V73.778H69.966V74.912ZM69.966 76.984H67.348V75.78H69.966V76.984ZM60.754 73.218C60.754 73.54 60.74 73.736 60.726 73.932C60.6 74.016 59.578 74.576 58.472 74.996L58.752 76.144C59.242 75.892 59.718 75.654 60.642 75.094C60.39 77.194 59.984 78.286 58.99 79.448L59.914 80.232C60.544 79.476 61.846 77.922 61.846 72.994V69.284H71.52V68.29H66.396V67.156H65.22V68.29H60.754V73.218ZM60.432 71.902C60.25 71.174 59.872 70.138 59.466 69.382L58.542 69.886C58.864 70.516 59.27 71.58 59.466 72.378L60.432 71.902ZM78.634 69.046C78.83 68.346 78.9 68.024 78.984 67.534L77.64 67.478C77.542 68.276 77.444 68.682 77.346 69.046H74.126V70.166H77.01C76.114 72.784 74.994 74.268 73.762 75.43L74.63 76.368C75.078 75.906 76.002 74.674 76.646 73.792C77.626 72.798 78.648 72.364 79.418 72.364C80.062 72.364 80.454 72.644 80.608 73.47C79.222 74.086 76.716 75.346 76.716 77.25C76.716 79.504 79.88 79.504 81.462 79.504C82.792 79.504 84.01 79.42 84.808 79.364L84.766 78.16C83.506 78.3 82.19 78.356 81.07 78.356C79.53 78.356 77.976 78.356 77.976 77.124C77.976 75.976 79.67 75.08 80.748 74.576C80.776 74.94 80.776 75.178 80.776 75.416C80.776 75.92 80.734 76.438 80.706 76.76H81.924C81.966 76.312 81.966 75.892 81.966 75.696C81.966 75.192 81.952 74.59 81.91 74.1C83.45 73.512 84.444 73.204 85.578 72.882L85.242 71.664C83.982 72.098 82.064 72.868 81.742 72.994C81.462 71.664 80.566 71.356 79.614 71.356C78.914 71.356 78.354 71.594 77.374 72.182C77.78 71.482 77.976 71.02 78.298 70.166H84.472V69.046H78.634ZM91.418 68.654C92.244 68.514 92.692 68.402 93.448 68.206L93.028 67.184C91.208 67.674 89.654 67.884 87.61 67.94L87.848 68.99C88.982 68.948 89.556 68.892 90.284 68.808V70.866H87.582V71.902H90.144C89.71 72.896 88.842 74.716 87.4 76.13L87.904 77.46C89.206 76.046 89.906 74.73 90.284 73.89V80.176H91.418V73.624C91.936 74.576 92.468 75.318 93.126 75.962L93.7 74.856C92.552 73.876 91.782 72.644 91.418 71.944V71.902H93.672V70.866H91.418V68.654ZM100.14 68.08H94.176V79.798H100.14V68.08ZM98.992 78.706H95.296V69.144H98.992V78.706ZM112.14 68.528C109.998 67.828 107.604 67.702 106.4 67.646L106.176 68.85C108.066 68.92 110.124 69.186 111.79 69.858L112.14 68.528ZM104.468 69.648C104.286 70.376 104.16 71.146 104.104 72.448C104.09 72.868 104.048 74.968 104.048 75.444L105.294 75.486C105.308 75.416 105.322 75.374 105.364 75.234C106.288 74.016 108.164 73.218 110.04 73.218C111.888 73.218 112.63 74.226 112.63 75.318C112.63 75.892 112.476 76.55 112.084 76.97C111.244 77.894 109.564 78.272 107.632 78.272C106.694 78.272 105.84 78.188 104.902 78.02L105.042 79.252C105.616 79.336 106.442 79.448 107.73 79.448C110.726 79.448 113.96 78.692 113.96 75.332C113.96 74.17 113.358 72.084 110.11 72.084C108.29 72.084 106.722 72.672 105.294 73.806C105.294 71.748 105.406 70.936 105.728 69.872L104.468 69.648ZM121.886 79.7C124.854 79.126 126.576 78.104 126.576 73.596C126.576 73.358 126.548 72.406 126.534 72.028H129.026V70.852H126.464C126.436 70.418 126.324 68.388 126.282 67.842L125.078 67.87C125.12 68.612 125.19 70.222 125.218 70.852H120.5V72.028H125.26C125.274 72.462 125.288 73.12 125.288 73.414C125.288 77.236 124.112 78.048 121.424 78.566L121.886 79.7ZM126.506 67.268C126.954 68.29 127.192 69.144 127.36 70.166L128.368 69.802C128.102 68.682 127.934 68.01 127.444 66.946L126.506 67.268ZM128.41 66.904C128.858 67.926 129.054 68.612 129.264 69.788L130.272 69.424C129.95 68.094 129.838 67.632 129.348 66.568L128.41 66.904ZM118.078 67.87C117.798 69.956 117.658 72.056 117.658 74.156C117.658 75.892 117.728 77.642 118.092 79.35L119.394 79.182C119.016 77.418 118.918 75.654 118.918 74.03C118.918 71.118 119.24 69.046 119.422 67.954L118.078 67.87ZM138.66 69.242V67.772H137.428V69.242H132.108V70.32H137.428V72.056H132.318V73.12H137.428V74.772C137.134 74.716 136.658 74.632 136.028 74.632C133.942 74.632 132.5 75.696 132.5 77.166C132.5 78.062 133.088 79.518 135.818 79.518C136.994 79.518 138.66 79.14 138.66 77.138V76.34C139.43 76.69 140.662 77.334 142.02 78.832L142.846 77.628C141.376 76.396 140.144 75.626 138.66 75.08V73.12H142.86V72.056H138.66V70.32H143.126V69.242H138.66ZM137.428 76.886C137.428 77.992 136.882 78.426 135.664 78.426C133.816 78.426 133.676 77.39 133.676 77.124C133.676 76.2 134.726 75.668 136.028 75.668C136.742 75.668 137.148 75.78 137.428 75.864V76.886ZM154.398 69.2V67.632H153.11L153.138 69.2H146.25V70.362H153.152L153.166 71.874C152.872 71.622 152.536 71.314 151.598 71.314C149.862 71.314 148.7 72.518 148.7 74.156C148.7 75.514 149.568 76.9 151.304 76.9C152.914 76.9 153.376 75.85 153.516 75.556C153.334 77.222 152.298 78.51 148.56 78.468L148.952 79.644C151.388 79.546 154.664 78.874 154.664 75.178C154.664 74.814 154.636 74.45 154.58 74.1C154.538 73.764 154.468 73.442 154.398 73.176V70.362H158.066V69.2H154.398ZM153.194 74.254C153.194 75.178 152.466 75.878 151.472 75.878C150.17 75.878 149.876 74.688 149.876 74.1C149.876 72.812 150.856 72.364 151.626 72.364C152.858 72.364 153.082 73.19 153.194 73.638V74.254ZM162.814 75.542C161.666 75.542 160.728 76.466 160.728 77.628C160.728 78.776 161.652 79.714 162.814 79.714C163.962 79.714 164.9 78.776 164.9 77.628C164.9 76.452 163.948 75.542 162.814 75.542ZM162.814 76.242C163.556 76.242 164.186 76.844 164.186 77.628C164.186 78.384 163.57 79 162.814 79C162.044 79 161.428 78.384 161.428 77.628C161.428 76.858 162.058 76.242 162.814 76.242Z" fill="black"/>
</svg>
