<svg width="200" height="18" viewBox="0 0 200 18" fill="none" xmlns="http://www.w3.org/2000/svg">
<path d="M3.24 13.004V8.432H8.772V13.004H3.24ZM7.38 9.704H4.632V11.756H7.38V9.704ZM2.28 15.104H0.768V4.16H11.232V13.964C11.232 15.104 10.308 15.104 10.02 15.104H8.004L7.752 13.58H9.372C9.516 13.58 9.732 13.58 9.732 13.256V5.576H2.28V15.104ZM2.664 7.64V6.344H9.336V7.64H2.664ZM19.666 12.332L18.958 13.4C18.262 12.908 17.71 12.608 16.942 12.308L17.398 11.684H14.014V7.964H22.966V11.684H18.358C18.934 11.912 19.174 12.032 19.666 12.332ZM21.478 9.416V8.888H15.466V9.416H21.478ZM21.478 10.748V10.208H15.466V10.748H21.478ZM24.106 6.38V7.496H12.862V6.38H15.442C15.322 5.828 15.31 5.768 15.238 5.552H13.534V4.448H17.71V3.8H19.21V4.448H23.47V5.552H21.826C21.718 5.996 21.646 6.236 21.598 6.38H24.106ZM16.954 6.38H20.05C20.17 6.056 20.254 5.612 20.266 5.552H16.738C16.858 5.9 16.93 6.284 16.954 6.38ZM13.774 15.044L12.718 13.952C13.366 13.352 13.762 12.752 13.99 11.948L15.274 12.272C15.01 13.328 14.614 14.18 13.774 15.044ZM15.61 12.404H17.014V13.472C17.014 13.736 17.134 13.772 17.314 13.772H19.426C19.678 13.772 19.822 13.772 19.93 12.812L21.298 13.136C21.082 14.6 20.782 14.996 20.11 14.996H16.678C16.198 14.996 15.61 14.888 15.61 14.168V12.404ZM24.19 14.204L22.834 15.02C22.306 13.928 21.958 13.232 21.262 12.464L22.462 11.768C23.098 12.428 23.818 13.484 24.19 14.204ZM27.32 4.388L29.072 4.412C28.952 7.064 28.904 10.052 28.904 10.34C28.904 11.72 29.024 12.968 30.92 12.968C33.74 12.968 34.136 10.796 34.424 9.188L35.924 9.848C35.312 12.98 33.824 14.516 30.932 14.516C27.632 14.516 27.26 12.476 27.26 10.268C27.26 9.344 27.32 5.228 27.32 4.388ZM48.438 4.796L48.486 6.404C48.018 6.38 47.682 6.368 47.406 6.368C46.938 6.368 46.482 6.392 46.062 6.524C44.406 7.016 42.27 8.828 42.27 10.688C42.27 11.876 43.05 12.752 46.686 12.752C47.046 12.752 47.25 12.74 47.466 12.728L47.214 14.456C44.946 14.408 40.614 14.348 40.614 10.772C40.614 8.636 42.474 7.184 43.542 6.5C42.33 6.584 39.498 6.8 38.418 6.932L38.31 5.204C38.862 5.204 39.51 5.18 40.794 5.096C43.566 4.916 45.618 4.844 48.438 4.796ZM52.132 9.404V7.58L50.98 8.396C50.812 7.448 50.356 6.464 50.2 6.152L51.316 5.336C51.52 5.756 51.952 6.704 52.132 7.424V4.664H55.768V3.74H57.28V4.664H61.576V6.008H53.536V8.888C53.536 11.828 52.876 13.448 51.724 14.972L50.464 13.976C51.268 13.1 51.748 12.032 51.976 10.856C51.34 11.204 50.836 11.432 50.5 11.576L50.176 10.064C50.704 9.908 51.244 9.752 52.132 9.404ZM53.764 7.004H61.348V8.312H58.48V9.98H61V11.276H58.48V13.352H61.576V14.72H53.128V13.352H54.4V9.104H55.84V13.352H57.04V8.312H53.764V7.004ZM74.27 13.58L73.418 15.056C71.858 14.096 70.79 12.248 70.322 10.724C69.494 13.052 68.426 14.216 67.298 15.092L66.422 13.7C68.33 12.164 69.086 10.568 69.362 8.228H66.71V6.752H69.446V3.788H70.994V6.752H74.078V8.228H71.03C71.762 11.804 73.334 12.968 74.27 13.58ZM64.826 9.692V3.788H66.338V15.092H64.826V11.42C64.454 11.768 63.374 12.464 62.906 12.716L62.57 11.06C63.41 10.616 64.466 10.028 64.826 9.692ZM71.39 4.508L72.482 3.908C72.926 4.436 73.442 5.108 73.79 5.852L72.614 6.488C72.278 5.756 71.786 5.012 71.39 4.508ZM62.558 5.804L63.794 5.144C63.998 5.6 64.49 6.716 64.706 7.628L63.434 8.264C63.218 7.34 62.882 6.488 62.558 5.804ZM77.16 14.492L75.612 13.772C76.68 11.888 77.388 9.176 77.64 7.796L75.912 7.808V6.284H77.892C78 5.516 78.048 5.06 78.108 4.196L79.788 4.28C79.704 4.928 79.668 5.228 79.5 6.284H80.58C82.356 6.284 83.196 7.1 83.196 9.656C83.196 10.532 83.076 12.2 82.62 13.232C82.212 14.144 81.456 14.468 80.4 14.468C79.752 14.468 79.26 14.408 79.08 14.384L78.984 12.776C79.2 12.824 79.692 12.92 80.184 12.92C80.976 12.92 81.144 12.56 81.324 11.912C81.492 11.288 81.636 10.328 81.636 9.476C81.636 8.108 81.324 7.76 80.136 7.772L79.224 7.784C78.888 9.656 78.168 12.536 77.16 14.492ZM86.352 10.568L84.684 10.856C84.624 9.116 84.204 7.376 83.16 5.984L84.516 5.312C85.74 6.776 86.22 8.672 86.352 10.568ZM96.586 4.892L96.19 6.56C95.854 6.428 94.294 5.792 91.126 5.624L91.402 4.136C93.85 4.22 95.266 4.496 96.586 4.892ZM89.71 6.14L91.33 6.296C91.114 7.1 91.042 7.676 91.006 9.14C92.158 8.36 93.358 7.952 94.738 7.952C97.498 7.952 98.062 9.836 98.062 10.892C98.062 13.58 95.77 14.468 92.47 14.468C91.366 14.468 90.658 14.396 90.238 14.348L90.046 12.8C90.598 12.872 91.426 12.98 92.434 12.98C95.542 12.98 96.394 12.044 96.394 10.832C96.394 9.968 95.722 9.368 94.558 9.368C93.178 9.368 91.75 9.944 91.006 10.844C90.994 10.988 90.982 11.036 90.97 11.144L89.398 11.084C89.434 8.276 89.458 7.652 89.71 6.14ZM104.072 14.408V14.888H100.592V11.192H104.072V13.748C104.684 12.356 104.684 10.22 104.684 9.416V4.172H111.188V13.928C111.188 14.348 111.188 15.092 110.18 15.092H108.464L108.224 13.736H109.496C109.856 13.736 109.88 13.616 109.88 13.328V5.468H105.98V9.476C105.98 12.608 105.62 13.916 104.996 15.128L104.072 14.408ZM102.884 13.724V12.344H101.9V13.724H102.884ZM100.592 4.172H104.072V5.3H100.592V4.172ZM100.592 7.628H104.072V8.816H100.592V7.628ZM100.592 9.38H104.072V10.568H100.592V9.38ZM106.364 10.136H109.4V13.496H106.364V10.136ZM108.404 12.332V11.288H107.384V12.332H108.404ZM100.268 5.876H104.348V7.088H100.268V5.876ZM108.548 5.756V6.332H109.568V7.448H108.548V8.324H109.58V9.464H106.268V8.324H107.372V7.448H106.28V6.332H107.372V5.756H108.548ZM119.79 5.78L120.642 5.132C121.266 5.744 121.722 6.368 122.274 7.244L121.386 7.94C120.846 7.016 120.486 6.512 119.79 5.78ZM121.386 4.748L122.238 4.124C122.922 4.772 123.402 5.444 123.906 6.224L123.006 6.896C122.43 5.948 122.118 5.54 121.386 4.748ZM123.99 11.552L122.934 13.196C121.818 12.368 120.462 11.036 118.758 9.344C118.362 8.96 117.894 8.48 117.57 8.216C117.306 8 117.15 7.928 116.97 7.928C116.778 7.928 116.574 8 115.986 8.696C115.314 9.5 114.642 10.316 113.97 11.096L112.878 9.632C113.334 9.236 115.206 7.28 115.626 6.92C116.118 6.512 116.49 6.308 117.03 6.308C117.882 6.308 118.35 6.728 119.562 7.868C120.174 8.456 121.71 9.8 122.442 10.4C123.258 11.072 123.726 11.384 123.99 11.552ZM133.708 4.508V5.756C133.06 6.2 131.788 7.196 130.84 7.94C131.404 7.784 131.956 7.7 132.364 7.7C133.792 7.7 135.64 8.492 135.64 10.856C135.64 13.16 133.78 14.552 131.212 14.552C128.992 14.552 127.996 13.52 127.996 12.452C127.996 11.396 128.944 10.58 130.216 10.58C131.308 10.58 132.628 11.228 133.108 12.656C133.804 12.224 134.068 11.516 134.068 10.904C134.068 9.8 133.324 8.996 131.716 8.996C129.856 8.996 128.488 10.004 126.664 11.732L125.764 10.388C126.256 10.028 128.356 8.42 131.104 6.008C129.82 6.092 128.596 6.152 127.072 6.176V4.628C129.7 4.64 130.864 4.628 133.708 4.508ZM131.836 13.22C131.536 12.344 131.008 11.816 130.18 11.816C129.688 11.816 129.388 12.128 129.388 12.38C129.388 12.944 130.06 13.304 131.068 13.304C131.476 13.304 131.728 13.244 131.836 13.22Z" fill="black"/>
</svg>
