<svg width="352" height="110" viewBox="0 0 352 110" fill="none" xmlns="http://www.w3.org/2000/svg">
<path d="M3.072 4.92V11.096C1.616 11.752 1.392 11.864 0.336 12.216L0.704 13.528C1.104 13.352 1.968 12.952 2.96 12.36C2.528 15.448 1.232 16.84 0.688 17.416L1.776 18.312C2.512 17.432 4.352 15.288 4.352 10.408V6.12H15.456V4.92H9.504V3.512H8.192V4.92H3.072ZM2.592 8.808C2.352 7.8 2.08 7 1.504 5.976L0.432 6.52C0.672 6.952 1.12 7.752 1.44 9.384L2.592 8.808ZM15.104 7.8H4.976V8.968H9.472V16.76H7.216V10.488H5.888V16.76H3.808V17.96H15.376V16.76H10.768V13.096H14.592V11.928H10.768V8.968H15.104V7.8ZM32.168 17C31.176 16.376 28.408 14.616 27.4 9.096H31.976V7.816H27.336V3.512H25.96V7.816H21.976V9.096H25.912C25.848 9.944 25.672 10.792 25.448 11.624C24.744 14.264 23.56 15.864 21.592 17.128L22.344 18.328C25.176 16.328 26.232 13.896 26.824 11.752C27.608 14.056 28.728 16.568 31.4 18.264L32.168 17ZM19.96 3.512V11.672C18.76 12.552 17.368 13.32 16.904 13.576L17.304 15C17.96 14.68 19.368 13.8 19.96 13.288V18.328H21.288V3.512H19.96ZM19.48 8.728C19.192 7.64 18.696 6.488 18.168 5.544L17.016 6.056C17.64 7.24 17.912 7.912 18.28 9.24L19.48 8.728ZM31.208 6.424C30.952 6.008 30.312 4.92 29.208 3.768L28.2 4.44C28.984 5.272 29.752 6.472 30.104 7.096L31.208 6.424ZM39.376 18.408C40.416 18.088 42.864 17.24 43.952 14.44C44.368 15.464 45.568 17.448 48.224 18.36L48.864 17.16C47.728 16.792 45.92 16.104 44.928 13.848H48.064V9.416H44.464V7.944H46.704V7.352C47.152 7.688 47.552 7.944 48.208 8.328L48.912 7.176C46.192 5.8 45.232 4.52 44.608 3.464H43.04C41.808 5.24 40.688 6.232 38.832 7.192L39.472 8.344C39.888 8.136 40.336 7.896 41.056 7.368V7.944H43.2V9.416H39.6V13.848H42.848C42.144 16.328 39.456 17.048 38.72 17.24L39.376 18.408ZM44.464 10.52H46.832V12.744H44.368C44.432 12.312 44.464 11.896 44.464 10.888V10.52ZM43.2 10.92C43.2 11.848 43.168 12.312 43.104 12.744H40.864V10.52H43.2V10.92ZM41.68 6.84C42.608 5.992 43.44 4.92 43.824 4.44C44.208 4.936 45.04 6.008 46.048 6.84H41.68ZM39.328 11.576C38.096 10.248 37.52 9 37.296 8.424V7.816H38.688V6.6H37.296V3.496H36.032V6.6H33.792V7.816H35.936C35.104 11.208 34.112 12.488 33.52 13.256L34.08 14.84C34.992 13.592 35.632 12.168 36.032 10.664V18.344H37.296V10.344C37.68 11.304 38.048 11.896 38.672 12.776L39.328 11.576ZM59.64 8.696C59.208 9.192 58.584 9.944 56.872 11.496C56.696 11.352 56.392 11.112 55.608 10.6C55.672 10.536 56.808 9.56 57.64 8.456H63.608V10.344H64.936V7.304H58.456V5.944H64.936V4.76H58.456V3.528H57.144V4.76H50.728V5.944H57.144V7.304H50.664V10.344H51.976V8.456H55.944C55.656 8.856 55.4 9.208 54.6 9.96C54.024 9.592 53.848 9.512 53.544 9.352L52.728 10.328C54.424 11.144 55.688 12.072 55.976 12.312C55.832 12.44 55.72 12.536 55.416 12.776C54.696 12.792 51.208 12.824 50.424 12.808L50.52 14.04C51.464 14.04 56.104 13.944 57.144 13.928V18.312H58.472V13.864L63.032 13.624C63.608 14.184 63.864 14.504 64.12 14.84L65.032 13.928C64.584 13.4 63.544 12.152 61.384 10.584L60.456 11.416C60.84 11.688 61.096 11.864 61.944 12.6C58.696 12.712 58.328 12.728 57.224 12.776C59.272 10.984 59.928 10.392 60.776 9.432L59.64 8.696ZM51.16 18.152C52.008 17.736 53.832 16.808 55.304 15.08L54.264 14.36C52.856 15.976 50.792 16.888 50.328 17.096L51.16 18.152ZM60.072 15.016C60.824 15.8 62.024 16.968 64.488 18.072L65.304 16.936C63.448 16.232 62.248 15.48 61 14.248L60.072 15.016ZM75.136 6.808H80.176V5.416H68.608V6.808H73.616V15.032H67.744V16.456H81.04V15.032H75.136V6.808ZM90.488 7.368C90.072 7.112 88.312 5.976 85.48 5.128L84.76 6.408C87.064 7.128 88.744 8.072 89.688 8.712L90.488 7.368ZM85.384 17.256C94.6 16.648 97.16 9.176 97.928 6.904L96.68 5.976C95.576 9.56 93.192 15.224 85.096 15.656L85.384 17.256ZM107.744 6.328C106.48 5.72 104.912 5 103.056 4.584L102.48 5.8C104.128 6.264 105.664 6.84 107.136 7.656L107.744 6.328ZM106.432 10.072C105.2 9.352 103.28 8.616 101.808 8.264L101.248 9.528C103.552 10.2 105.008 10.952 105.84 11.432L106.432 10.072ZM110.32 3.704C111.056 4.968 111.28 5.512 111.712 6.84L112.832 6.28C112.304 4.872 112 4.136 111.36 3.176L110.32 3.704ZM112.992 3.544C113.68 4.76 113.936 5.432 114.336 6.712L115.472 6.168C114.992 4.728 114.56 3.864 114.048 3.048L112.992 3.544ZM102.432 17.352C108.96 16.504 112.064 14.04 114.144 8.104L112.896 7.192C111.136 12.744 108.448 15.16 102.08 15.784L102.432 17.352ZM123.688 7.368C123.272 7.112 121.512 5.976 118.68 5.128L117.96 6.408C120.264 7.128 121.944 8.072 122.888 8.712L123.688 7.368ZM118.584 17.256C127.8 16.648 130.36 9.176 131.128 6.904L129.88 5.976C128.776 9.56 126.392 15.224 118.296 15.656L118.584 17.256ZM145.328 18.296V4.584H148.4V3.304H144.048V18.296H145.328ZM160.088 14.872C161.032 10.888 161.352 6.856 161.464 5.608H152.616V7.032H159.832C159.736 8.184 159.432 11.56 158.552 14.872H150.584V16.296H164.136V14.872H160.088ZM170.08 4.6H168.608V14.728C168.608 16.76 169.6 17.16 171.984 17.16H176.464C177.472 17.16 178.992 17.112 179.968 16.952L179.888 15.512C178.864 15.704 177.584 15.768 176.304 15.768H172.192C170.368 15.768 170.08 15.64 170.08 14.488V10.952C171.76 10.6 174.688 9.864 178.192 8.264L177.536 6.92C175.136 8.152 172.928 8.904 170.08 9.56V4.6ZM177.04 4.12C177.76 5.224 178.128 5.928 178.608 7.192L179.696 6.552C179.184 5.368 178.784 4.552 178.064 3.544L177.04 4.12ZM179.488 3.368C180.288 4.584 180.56 5.16 181.04 6.44L182.128 5.816C181.664 4.68 181.216 3.752 180.512 2.792L179.488 3.368ZM183.72 10.152V11.672H197.48V10.152H183.72ZM202.672 3.544V17.256H199.6V18.536H203.952V3.544H202.672ZM227.32 6.968L227.288 4.264H225.832L225.88 6.968H221.08V8.344H225.912L225.976 12.12C225.528 11.992 225.128 11.88 224.328 11.88C222.296 11.88 220.824 13.016 220.824 14.68C220.824 15.976 221.752 17.432 224.248 17.432C227.304 17.432 227.32 15.624 227.32 14.712V14.12C228.2 14.68 229 15.352 229.64 16.2L230.584 14.904C229.848 14.12 228.664 13.208 227.368 12.568L227.32 8.344H230.312V6.968H227.32ZM225.976 14.424C225.976 15.288 225.912 16.232 224.168 16.232C223.32 16.232 222.104 15.928 222.104 14.696C222.104 13.496 223.272 13.08 224.344 13.08C225.16 13.08 225.608 13.272 225.976 13.432V14.424ZM218.024 4.232C217.592 6.728 217.432 9.048 217.432 11.576C217.432 13.544 217.496 15.528 217.88 17.464L219.32 17.272C218.904 15.448 218.824 13.56 218.824 11.688C218.824 8.104 219.208 5.944 219.512 4.344L218.024 4.232ZM244.928 18.296V4.584H248V3.304H243.648V18.296H244.928ZM258.232 3.496V4.504H253.448V5.592H255.784C255.832 5.72 256.12 6.792 256.184 7.048H253.976V15.896H255.192V8.088H258.296V9.288H255.688V10.28H258.296V11.384H256.264V14.696H261.512V11.384H259.464V10.28H262.056V9.288H259.464V8.088H262.552V14.504C262.552 14.872 262.408 14.904 262.2 14.904L260.712 14.888L260.888 16.104H262.584C263.416 16.104 263.768 15.64 263.768 14.872V7.048H261.432C261.656 6.504 261.784 6.136 261.944 5.592H264.36V4.504H259.528V3.496H258.232ZM257.336 7.048C257.192 6.424 257.176 6.344 256.984 5.592H260.776C260.728 5.8 260.488 6.632 260.312 7.048H257.336ZM260.408 13.72H257.352V12.344H260.408V13.72ZM256.328 16.728C255.864 16.728 252.952 16.504 252.632 14.552V9.704H249.64V11.016H251.368V15.528C250.664 16.28 249.752 16.872 249.464 17.048L250.104 18.408C251.24 17.416 251.32 17.32 252.344 16.152C252.696 16.616 253.688 17.96 256.312 17.96H264.312L264.568 16.728H256.328ZM253.208 6.376C252.44 5.304 251.512 4.36 250.76 3.72L249.88 4.52C251.32 5.928 251.88 6.792 252.168 7.224L253.208 6.376ZM267.632 7.976L265.984 8.248L266.064 9.544L267.632 9.288V14.408C267.632 15.176 268.032 15.576 268.784 15.576H270.656C271.968 15.576 272.272 14.312 272.528 12.216L271.232 11.912C271.2 12.52 271.088 14.344 270.4 14.344H269.408C269.008 14.344 268.928 14.232 268.928 13.88V9.08L272.448 8.504L272.368 7.192L268.928 7.752V3.512H267.632V7.976ZM272 4.2V5.496H274.864C274.864 11.112 274.352 14.712 269.68 17.208L270.608 18.36C275.04 15.656 276.144 12.488 276.208 5.496H279.232C279.232 7.32 279.232 15.16 278.384 16.536C278.112 16.984 277.584 16.968 277.424 16.968L275.04 16.952L275.328 18.312H277.648C279.072 18.312 279.504 17.576 279.696 17.176C280.576 15.288 280.576 8.104 280.576 4.2H272ZM293.864 8.584H292.424L292.52 12.008C292.168 11.928 291.656 11.816 290.856 11.816C288.024 11.816 287.096 13.592 287.096 14.792C287.096 16.28 288.28 17.608 290.68 17.608C292.264 17.608 293.88 17.032 293.88 14.664V14.008C294.456 14.344 295.432 14.936 296.472 16.184L297.352 14.92C296.568 14.056 295.288 13.064 293.944 12.472L293.864 8.584ZM292.552 14.408C292.552 15.496 292.312 16.36 290.728 16.36C290.424 16.36 288.456 16.36 288.456 14.744C288.456 13.848 289.224 13.032 290.856 13.032C291.704 13.032 292.184 13.208 292.552 13.336V14.408ZM287.8 6.12C288.008 4.952 288.024 4.856 288.152 4.088L286.632 4.024C286.568 4.664 286.52 5.016 286.344 6.12H283.384V7.464H286.088C285.672 9.256 284.968 12.392 283.256 15.144L284.728 15.784C285.304 14.6 286.616 11.928 287.528 7.464H291.16V6.12H287.8ZM297.08 7.368C295.384 6.424 294.312 5.944 292.712 5.384L292.152 6.568C293.592 7.096 294.792 7.672 296.408 8.648L297.08 7.368ZM301.184 10.872C302.304 10.168 302.752 9.72 303.216 9.256C305.568 10.44 306.976 11.432 308.304 12.568C306.48 14.568 304 15.752 301.376 16.376L302.064 17.704C311.664 15.208 312.496 7.56 312.784 4.952H304.512C303.552 7.08 302.144 8.568 300.24 9.752L301.184 10.872ZM311.136 6.28C310.768 8.76 310.032 10.232 309.184 11.48C307.6 10.12 305.76 9.128 304.096 8.296C304.528 7.768 304.816 7.4 305.472 6.28H311.136ZM325.112 9.096C327.352 7.304 328.68 5.752 329.384 4.92L328.04 4.04C325.064 7.784 321.128 10.68 316.568 12.104L317.272 13.432C319.32 12.712 321.4 11.752 323.576 10.232V17.688H325.112V9.096ZM345.392 5.816C341.664 4.968 338.784 4.616 334.928 4.392L334.688 5.72C338.656 5.928 341.776 6.392 345.12 7.288L345.392 5.816ZM344.56 10.664C341.904 9.864 339.36 9.32 334.848 8.984L334.576 10.312C338.576 10.616 341.168 11.064 344.304 12.056L344.56 10.664ZM346.048 16.088C344.288 15.576 340.256 14.392 333.904 14.072L333.616 15.432C339.312 15.864 342.24 16.504 345.648 17.608L346.048 16.088ZM7.488 29.368C7.072 29.112 5.312 27.976 2.48 27.128L1.76 28.408C4.064 29.128 5.744 30.072 6.688 30.712L7.488 29.368ZM2.384 39.256C11.6 38.648 14.16 31.176 14.928 28.904L13.68 27.976C12.576 31.56 10.192 37.224 2.096 37.656L2.384 39.256ZM18.968 39.832C24.664 38.552 28.008 35.384 29.336 29.288L27.848 27.32H21.448C20.328 29.56 18.696 30.936 17.448 31.784L18.36 32.872C20.168 31.656 21.352 30.344 22.408 28.664H27.96C27.048 33.48 24.568 37.24 18.36 38.472L18.968 39.832ZM30.008 25.4C30.84 26.536 31.16 27.176 31.704 28.408L32.728 27.736C32.056 26.392 31.784 25.832 30.968 24.792L30.008 25.4ZM27.88 26.024C28.664 27.064 29.064 27.752 29.624 29L30.632 28.312C29.96 26.984 29.64 26.408 28.824 25.4L27.88 26.024ZM43.424 31C44.176 32.056 44.576 32.808 45.104 34.088L46.224 33.384C45.664 32.168 45.2 31.304 44.464 30.36L43.424 31ZM45.792 29.976C46.56 31.08 46.928 31.768 47.472 33.064L48.592 32.36C48.016 31.112 47.6 30.328 46.832 29.336L45.792 29.976ZM47.744 26.968C44.08 26.984 42.576 27.016 38.784 27.224C37.968 27.272 35.2 27.4 34.416 27.416L34.544 28.984C36.288 28.776 41.824 28.44 42.288 28.424C40.4 29.528 37.6 31.624 37.6 34.664C37.6 39.144 42.912 39.368 46.064 39.496L46.352 37.944C44.928 37.992 43.344 37.864 42.32 37.656C40.624 37.304 39.088 36.648 39.088 34.568C39.088 31.816 42.224 29.336 44.528 28.568C45.008 28.408 45.36 28.376 46.144 28.376C46.592 28.376 47.088 28.392 47.776 28.44L47.744 26.968ZM58.2 39.496C59.976 39.32 61.576 38.776 62.616 37.912C64.072 36.696 64.76 34.808 64.76 32.904C64.76 30.2 63.368 26.616 58.184 26.616C53.96 26.616 50.792 29.4 50.792 33.752C50.792 36.392 52.104 38.248 53.672 38.248C54.392 38.248 55.416 37.88 56.36 36.392C58.008 33.752 58.328 29.816 58.472 27.96C62.872 28.104 63.256 31.624 63.256 32.888C63.256 37.464 59.368 37.928 57.72 38.104L58.2 39.496ZM57.048 28.024C56.888 29.864 56.632 33.112 55.288 35.416C54.872 36.12 54.392 36.712 53.72 36.712C52.584 36.712 52.184 34.872 52.184 33.784C52.184 31.928 52.92 30.136 54.408 29.048C55.224 28.44 56.104 28.2 57.048 28.024ZM75.632 25.496V26.504H70.848V27.592H73.184C73.232 27.72 73.52 28.792 73.584 29.048H71.376V37.896H72.592V30.088H75.696V31.288H73.088V32.28H75.696V33.384H73.664V36.696H78.912V33.384H76.864V32.28H79.456V31.288H76.864V30.088H79.952V36.504C79.952 36.872 79.808 36.904 79.6 36.904L78.112 36.888L78.288 38.104H79.984C80.816 38.104 81.168 37.64 81.168 36.872V29.048H78.832C79.056 28.504 79.184 28.136 79.344 27.592H81.76V26.504H76.928V25.496H75.632ZM74.736 29.048C74.592 28.424 74.576 28.344 74.384 27.592H78.176C78.128 27.8 77.888 28.632 77.712 29.048H74.736ZM77.808 35.72H74.752V34.344H77.808V35.72ZM73.728 38.728C73.264 38.728 70.352 38.504 70.032 36.552V31.704H67.04V33.016H68.768V37.528C68.064 38.28 67.152 38.872 66.864 39.048L67.504 40.408C68.64 39.416 68.72 39.32 69.744 38.152C70.096 38.616 71.088 39.96 73.712 39.96H81.712L81.968 38.728H73.728ZM70.608 28.376C69.84 27.304 68.912 26.36 68.16 25.72L67.28 26.52C68.72 27.928 69.28 28.792 69.568 29.224L70.608 28.376ZM85.032 29.976L83.384 30.248L83.464 31.544L85.032 31.288V36.408C85.032 37.176 85.432 37.576 86.184 37.576H88.056C89.368 37.576 89.672 36.312 89.928 34.216L88.632 33.912C88.6 34.52 88.488 36.344 87.8 36.344H86.808C86.408 36.344 86.328 36.232 86.328 35.88V31.08L89.848 30.504L89.768 29.192L86.328 29.752V25.512H85.032V29.976ZM89.4 26.2V27.496H92.264C92.264 33.112 91.752 36.712 87.08 39.208L88.008 40.36C92.44 37.656 93.544 34.488 93.608 27.496H96.632C96.632 29.32 96.632 37.16 95.784 38.536C95.512 38.984 94.984 38.968 94.824 38.968L92.44 38.952L92.728 40.312H95.048C96.472 40.312 96.904 39.576 97.096 39.176C97.976 37.288 97.976 30.104 97.976 26.2H89.4ZM111.264 30.584H109.824L109.92 34.008C109.568 33.928 109.056 33.816 108.256 33.816C105.424 33.816 104.496 35.592 104.496 36.792C104.496 38.28 105.68 39.608 108.08 39.608C109.664 39.608 111.28 39.032 111.28 36.664V36.008C111.856 36.344 112.832 36.936 113.872 38.184L114.752 36.92C113.968 36.056 112.688 35.064 111.344 34.472L111.264 30.584ZM109.952 36.408C109.952 37.496 109.712 38.36 108.128 38.36C107.824 38.36 105.856 38.36 105.856 36.744C105.856 35.848 106.624 35.032 108.256 35.032C109.104 35.032 109.584 35.208 109.952 35.336V36.408ZM105.2 28.12C105.408 26.952 105.424 26.856 105.552 26.088L104.032 26.024C103.968 26.664 103.92 27.016 103.744 28.12H100.784V29.464H103.488C103.072 31.256 102.368 34.392 100.656 37.144L102.128 37.784C102.704 36.6 104.016 33.928 104.928 29.464H108.56V28.12H105.2ZM114.48 29.368C112.784 28.424 111.712 27.944 110.112 27.384L109.552 28.568C110.992 29.096 112.192 29.672 113.808 30.648L114.48 29.368ZM125.416 32.6C125.528 31.912 125.576 31.384 125.576 30.456H129.976V29.288H122.68C122.904 28.856 123.032 28.584 123.288 27.944L122.008 27.672C121.512 29.224 120.568 30.392 119.432 31.304L120.44 32.168C121.064 31.608 121.432 31.208 121.976 30.456H124.328C124.328 31.608 124.248 32.104 124.168 32.6H119.512V33.784H123.784C122.648 36.136 120.104 36.76 119.304 36.952L120.072 38.12C121.896 37.512 123.944 36.472 125 34.04C125.4 34.952 126.68 36.984 130.296 38.104L131 36.872C128.408 36.296 126.712 34.808 126.168 33.784H130.648V32.6H125.416ZM117.32 26.024V40.008H131.528V38.792H118.68V27.256H131.192V26.024H117.32ZM146.528 33.272C147.024 33.576 147.328 33.72 147.76 33.928L148.368 32.856C147.92 32.696 147.488 32.536 146.768 32.136C146.8 32.088 147.36 31.544 147.856 30.904L146.96 30.36C146.784 30.6 146.4 31.08 145.936 31.576C145.168 30.984 144.768 30.456 144.448 30.056H148.176V29.048H142.352C142.464 28.824 142.528 28.664 142.688 28.264L141.424 28.12C141.296 28.488 141.216 28.696 141.056 29.048H137.216V30.056H140.448C140 30.648 139.6 31.064 139.104 31.464C138.96 31.304 138.512 30.808 138 30.424L137.264 31.096C137.712 31.448 137.76 31.496 138.288 32.056C137.744 32.424 137.328 32.632 136.768 32.904L137.472 33.864C137.824 33.656 137.936 33.592 138.272 33.384V36.712H141.712V38.776C141.712 39.096 141.664 39.16 141.344 39.16H139.824L140.096 40.312H141.824C142.32 40.312 143.008 40.28 143.008 39.288V36.712H146.528V33.272ZM145.36 33.896H139.44V32.936H145.36V33.896ZM140.096 32.008C141.136 31.064 141.584 30.36 141.776 30.056H143.136C143.488 30.568 143.888 31.176 144.816 32.008H140.096ZM145.36 35.784H139.44V34.776H145.36V35.784ZM135.44 32.216C135.44 32.664 135.424 32.968 135.424 33.224C134.624 33.624 134.256 33.8 133.152 34.232L133.424 35.544C133.904 35.304 134.512 35 135.312 34.472C134.96 37.448 134.08 38.6 133.36 39.496L134.336 40.36C134.976 39.592 136.704 37.528 136.704 32.264V27.912H148.224V26.792H142.272V25.496H140.96V26.792H135.44V32.216ZM135.104 30.84C134.944 30.024 134.608 28.904 134.144 27.992L133.152 28.472C133.52 29.384 133.808 30.408 133.984 31.368L135.104 30.84ZM136.8 40.072C137.872 39.672 138.864 39.144 140.224 37.816L139.296 37.048C138.16 38.136 137.376 38.568 136.096 39L136.8 40.072ZM144.304 37.832C145.168 38.808 146.528 39.656 147.76 40.088L148.464 39C146.976 38.472 146.304 38.088 145.152 36.984L144.304 37.832ZM162.712 29.816C160.232 30.216 158.92 30.472 157.192 31C156.856 30.312 156.776 29.464 156.776 27.768C156.776 26.984 156.792 26.536 156.808 26.104H155.24C155.288 29.512 155.32 30.44 155.848 31.48C154.728 31.96 151.432 33.336 151.432 36.072C151.432 39.48 155.864 39.48 158.632 39.48C160.936 39.48 162.344 39.384 163.384 39.32L163.352 37.816C162.44 37.912 160.952 38.056 158.312 38.056C154.872 38.056 152.92 37.88 152.92 36.024C152.92 32.472 161.56 31.496 162.856 31.352L162.712 29.816ZM174.4 39.496C176.176 39.32 177.776 38.776 178.816 37.912C180.272 36.696 180.96 34.808 180.96 32.904C180.96 30.2 179.568 26.616 174.384 26.616C170.16 26.616 166.992 29.4 166.992 33.752C166.992 36.392 168.304 38.248 169.872 38.248C170.592 38.248 171.616 37.88 172.56 36.392C174.208 33.752 174.528 29.816 174.672 27.96C179.072 28.104 179.456 31.624 179.456 32.888C179.456 37.464 175.568 37.928 173.92 38.104L174.4 39.496ZM173.248 28.024C173.088 29.864 172.832 33.112 171.488 35.416C171.072 36.12 170.592 36.712 169.92 36.712C168.784 36.712 168.384 34.872 168.384 33.784C168.384 31.928 169.12 30.136 170.608 29.048C171.424 28.44 172.304 28.2 173.248 28.024ZM184.312 26.68V32.552H189.912V38.792H185.112V33.784H183.768V40.024H197.416V33.784H196.056V38.792H191.256V32.552H196.888V26.68H195.528V31.32H191.256V25.496H189.912V31.32H185.672V26.68H184.312ZM208.976 35.64C210.224 36.904 211.024 37.912 211.184 38.12C210 38.232 208.352 38.376 206.4 38.456C206.064 38.472 204.272 38.52 203.872 38.536C204.912 36.696 205.552 35.304 205.936 34.424H214.288V33.192H200V34.424H204.384C204.032 35.352 203.424 36.84 202.416 38.568H200.208L200.352 39.88C202.816 39.88 209.344 39.592 212.016 39.208C212.352 39.704 212.544 40.008 212.8 40.44L213.952 39.672C212.72 37.72 211.744 36.6 210.032 34.92L208.976 35.64ZM211.44 30.248C212.576 31.016 213.472 31.432 214.176 31.752L214.88 30.472C212.096 29.48 209.552 27.544 207.888 25.32H206.464C206.032 25.96 204.24 28.552 199.472 30.424L200.128 31.72C200.672 31.496 201.552 31.112 202.976 30.232V31.128H211.44V30.248ZM203.472 29.912C204.816 28.984 206.176 27.864 207.184 26.456C207.744 27.16 208.672 28.312 210.928 29.912H203.472ZM217.608 26.856C217.512 27.944 217.352 29.688 217.352 31.432C217.352 35.592 218.072 39.176 220.664 39.176C221.48 39.176 222.072 38.792 222.456 38.408C223.352 37.512 224.088 36.168 224.616 34.68L223.432 34.008C222.328 36.888 221.496 37.544 220.776 37.544C218.984 37.544 218.792 34.04 218.792 31.56C218.792 29.4 219 27.944 219.128 26.984L217.608 26.856ZM230.504 37.592C230.728 31.192 229.08 28.936 227.176 27.336L226.072 28.184C227.736 29.544 228.984 31.848 228.984 36.024C228.984 36.76 228.952 37.24 228.92 37.656L230.504 37.592ZM235.872 25.544V39.256H232.8V40.536H237.152V25.544H235.872ZM257.4 39.496C259.176 39.32 260.776 38.776 261.816 37.912C263.272 36.696 263.96 34.808 263.96 32.904C263.96 30.2 262.568 26.616 257.384 26.616C253.16 26.616 249.992 29.4 249.992 33.752C249.992 36.392 251.304 38.248 252.872 38.248C253.592 38.248 254.616 37.88 255.56 36.392C257.208 33.752 257.528 29.816 257.672 27.96C262.072 28.104 262.456 31.624 262.456 32.888C262.456 37.464 258.568 37.928 256.92 38.104L257.4 39.496ZM256.248 28.024C256.088 29.864 255.832 33.112 254.488 35.416C254.072 36.12 253.592 36.712 252.92 36.712C251.784 36.712 251.384 34.872 251.384 33.784C251.384 31.928 252.12 30.136 253.608 29.048C254.424 28.44 255.304 28.2 256.248 28.024ZM271.168 32.12C271.568 31.912 272.048 31.672 272.832 31.08V32.936H279.04V31.144C279.6 31.576 280.096 31.864 280.816 32.184L281.328 31.144C279.584 30.36 278.976 29.832 278.192 28.712H280.976V27.72H275.616C275.68 27.592 275.792 27.384 276.048 26.776C276.784 26.728 278.864 26.568 280.064 26.328L279.52 25.368C278.192 25.64 276.048 25.976 271.376 25.96L271.632 26.92C272.24 26.92 272.816 26.92 274.768 26.84C274.688 27 274.592 27.208 274.32 27.72H270.992V28.712H273.68C272.592 30.168 271.184 30.824 270.576 31.112L271.168 32.12ZM276.928 28.712C277.136 29.064 277.376 29.464 277.84 30.024H274C274.416 29.576 274.688 29.256 275.04 28.712H276.928ZM278.016 32.056H273.84V30.904H278.016V32.056ZM280.544 33.72H271.312V40.344H272.512V34.696H279.312V38.584C279.312 39.16 279.264 39.256 278.72 39.24L277.68 39.224L277.904 40.344H279.2C279.92 40.344 280.544 40.264 280.544 39.24V33.72ZM277.328 37.928H274.528V36.472H277.328V37.928ZM271.184 33.336C270.16 32.12 269.696 31.08 269.472 30.504V29.832H270.912V28.616H269.472V25.496H268.24V28.616H266.208V29.832H268.192C267.776 31.944 266.768 33.816 266 34.888L266.576 36.424C266.976 35.832 267.616 34.84 268.24 32.824V40.344H269.472V32.472C269.728 33.112 269.792 33.272 270.48 34.328L271.184 33.336ZM278.4 35.576H273.44V38.856H278.4V35.576ZM287.048 26.696V32.664C287.048 36.712 285.736 38.472 285.128 39.288L286.168 40.296C286.52 39.784 287.448 38.456 287.896 36.44C288.136 35.336 288.328 33.784 288.328 32.68V30.504H290.168V33.016H295.32V30.504H297.464V29.4H295.32V28.28H294.136V29.4H291.352V28.28H290.168V29.4H288.328V27.88H297.592V26.696H292.984V25.496H291.688V26.696H287.048ZM283.256 26.68C283.864 26.968 285.08 27.656 285.688 28.296L286.504 27.112C285.384 26.296 284.68 25.928 283.992 25.64L283.256 26.68ZM294.136 30.504V31.976H291.352V30.504H294.136ZM297.784 39.096C297.144 38.984 295.816 38.728 294.104 38.024C295.736 36.84 296.344 35.608 296.616 35.048V33.944H288.792V35.08H295.224C294.904 35.576 294.28 36.52 292.808 37.384C291.4 36.536 290.792 35.768 290.472 35.384L289.432 35.944C289.736 36.344 290.328 37.08 291.576 37.992C289.704 38.776 288.312 38.984 287.544 39.096L288.12 40.376C290.088 39.944 291.512 39.464 292.824 38.776C294.808 39.864 296.424 40.184 297.256 40.344L297.784 39.096ZM282.536 30.92C283.4 31.336 284.28 31.896 285.016 32.536L285.816 31.432C285.272 30.984 284.216 30.264 283.272 29.848L282.536 30.92ZM284.792 34.008C284.456 35.24 283.688 37.32 282.488 39.096L283.496 40.216C285.064 37.736 285.688 35.448 285.88 34.664L284.792 34.008ZM302.24 26.232C302.224 27.32 302.128 32.632 302.128 33.832C302.128 36.616 302.416 39.544 306.8 39.544C311.664 39.544 312.704 36.248 313.216 33.352L311.872 32.856C311.424 35.288 310.896 38.168 306.752 38.168C303.744 38.168 303.648 36.024 303.648 33.976C303.648 32.456 303.712 30.552 303.856 26.232H302.24ZM317.976 26.376C317.464 28.776 317.304 31.336 317.304 33.976C317.304 37.032 317.576 38.632 317.72 39.56L319.272 39.432C319.144 38.856 318.776 37.32 318.776 33.752C318.776 29.72 319.256 27.624 319.496 26.504L317.976 26.376ZM321.928 27.672V29.08H329.448V27.672H321.928ZM322.28 32.968C321.72 33.912 321.432 34.824 321.432 35.656C321.432 38.408 324.392 38.632 326.76 38.632C328.12 38.632 329.24 38.536 329.784 38.488V36.984C328.312 37.144 327 37.176 326.12 37.176C324.408 37.176 322.776 36.984 322.776 35.528C322.776 35.384 322.792 34.472 323.576 33.368L322.28 32.968ZM8.816 52.152H14.224V50.712L8.816 50.76L8.8 48.104H7.296L7.36 55.64C6.96 55.592 6.656 55.544 6.128 55.544C3.84 55.544 1.584 56.488 1.584 58.68C1.584 60.248 2.768 61.56 5.408 61.56C8.736 61.56 8.848 59.512 8.832 58.568L8.816 57.464C10.768 58.216 12.624 59.656 13.6 60.744L14.64 59.368C13.856 58.552 11.984 57.016 8.832 55.944L8.816 52.152ZM7.376 58.472C7.376 59.128 7.216 60.232 5.392 60.232C5.04 60.232 3.008 60.232 3.008 58.696C3.008 57.4 4.528 56.856 5.904 56.856C6.576 56.856 7.056 56.952 7.392 57.016L7.376 58.472ZM22.776 61.048C24.056 61.032 25.432 60.92 26.68 60.52C29.736 59.56 30.088 57.048 30.088 56.088C30.088 53.848 28.52 52.152 25.784 52.152C24.936 52.152 23.816 52.312 22.824 52.472C22.28 52.568 19.624 53.048 19.016 53.144L19.256 54.552C21.72 53.928 24.44 53.4 25.72 53.4C27.288 53.4 28.68 54.2 28.68 56.136C28.68 59.848 23.752 59.816 22.424 59.8L22.776 61.048ZM47.744 48.968C43.808 49 42.336 49.032 38.752 49.224C37.936 49.272 35.376 49.384 34.416 49.416L34.544 50.984C36.288 50.776 41.824 50.44 42.288 50.424C40.4 51.528 37.6 53.624 37.6 56.664C37.6 61.144 42.912 61.368 46.064 61.496L46.352 59.944C44.976 59.992 43.44 59.896 42.32 59.656C40.624 59.304 39.088 58.648 39.088 56.568C39.088 53.816 42.224 51.336 44.528 50.568C45.008 50.408 45.344 50.376 46.144 50.376C46.768 50.376 47.232 50.392 47.776 50.44L47.744 48.968ZM54.968 60.856C54.296 59.944 53.16 58.6 52.12 57.64L50.904 58.536C51.432 59.096 52.424 60.136 53.56 61.848L54.968 60.856ZM74.672 61.784C78.08 60.568 78.896 57.896 79.28 56.328C80.08 56.68 80.352 56.824 81.072 57.256L81.552 55.816C80.56 55.272 79.632 54.92 79.584 54.904C79.824 53.624 79.952 52.232 80.064 51.08L78.544 50.968C78.512 51.704 78.432 52.84 78.192 54.408C76.736 53.928 75.68 53.672 74.336 53.56C74.864 50.408 74.912 50.056 75.12 48.456H68.496V49.848L73.504 49.8C73.408 50.936 73.2 52.36 72.976 53.512C67.744 53.72 67.456 57.16 67.456 57.944C67.456 59.656 68.576 60.68 70.112 60.68C72.528 60.68 73.232 58.392 74.096 54.824C75.536 54.952 76.896 55.368 77.936 55.768C77.376 58.088 76.544 59.688 73.792 60.68L74.672 61.784ZM72.736 54.744C71.888 58.216 71.456 59.416 70.016 59.416C68.8 59.416 68.72 58.168 68.72 57.864C68.72 56.776 69.376 55.736 70.416 55.224C71.12 54.872 71.792 54.776 72.736 54.744ZM94.664 52.584H93.224L93.32 56.008C92.968 55.928 92.456 55.816 91.656 55.816C88.824 55.816 87.896 57.592 87.896 58.792C87.896 60.28 89.08 61.608 91.48 61.608C93.064 61.608 94.68 61.032 94.68 58.664V58.008C95.256 58.344 96.232 58.936 97.272 60.184L98.152 58.92C97.368 58.056 96.088 57.064 94.744 56.472L94.664 52.584ZM93.352 58.408C93.352 59.496 93.112 60.36 91.528 60.36C91.224 60.36 89.256 60.36 89.256 58.744C89.256 57.848 90.024 57.032 91.656 57.032C92.504 57.032 92.984 57.208 93.352 57.336V58.408ZM88.6 50.12C88.808 48.952 88.824 48.856 88.952 48.088L87.432 48.024C87.368 48.664 87.32 49.016 87.144 50.12H84.184V51.464H86.888C86.472 53.256 85.768 56.392 84.056 59.144L85.528 59.784C86.104 58.6 87.416 55.928 88.328 51.464H91.96V50.12H88.6ZM97.88 51.368C96.184 50.424 95.112 49.944 93.512 49.384L92.952 50.568C94.392 51.096 95.592 51.672 97.208 52.648L97.88 51.368ZM112.176 56.2C111.216 55.176 110.288 53.624 109.616 52.008C111.024 51.944 112.4 51.88 114.144 51.512L113.888 50.136C112.288 50.472 110.784 50.664 109.152 50.712C108.944 50.072 108.72 49.032 108.576 48.056L107.056 48.168C107.12 48.552 107.36 49.72 107.68 50.76C107.28 50.776 106.416 50.792 105.744 50.776L101.072 50.696V52.088H105.68C105.92 52.088 107.152 52.072 108.128 52.056C108.992 54.248 110 55.976 110.944 57.032L112.176 56.2ZM104.112 54.888C102.48 55.688 101.792 56.84 101.792 58.008C101.792 58.808 102.096 59.592 102.736 60.168C103.856 61.176 105.44 61.496 108.24 61.496C110.432 61.496 111.84 61.368 112.416 61.304L112.4 59.88C111.408 60.008 110.192 60.152 108.112 60.152C105.824 60.152 103.232 59.944 103.232 57.992C103.232 57.688 103.312 56.696 104.88 55.928L104.112 54.888ZM121.624 48.008C121.24 49.048 120.312 51.608 120.072 52.28C119.704 53.32 119.432 54.088 117.16 61.032L118.664 61.496C119.096 59.88 119.352 58.92 119.912 57.432C120.92 55.368 122.232 55.032 122.872 55.032C124.008 55.032 124.296 55.976 124.296 57.16V58.056C124.296 59.304 124.312 61.56 127.032 61.56C130.696 61.56 131.08 57.272 131.176 55.16L129.784 54.84C129.784 55.768 129.704 56.968 129.256 58.264C128.728 59.784 127.912 60.152 127.128 60.152C125.832 60.152 125.704 59.272 125.704 58.12V57.048C125.704 55.944 125.576 53.672 123.112 53.672C122.232 53.672 121.608 53.976 120.744 54.68C121.176 53.432 122.136 50.808 123.208 48.44L121.624 48.008ZM141.2 61.496C142.976 61.32 144.576 60.776 145.616 59.912C147.072 58.696 147.76 56.808 147.76 54.904C147.76 52.2 146.368 48.616 141.184 48.616C136.96 48.616 133.792 51.4 133.792 55.752C133.792 58.392 135.104 60.248 136.672 60.248C137.392 60.248 138.416 59.88 139.36 58.392C141.008 55.752 141.328 51.816 141.472 49.96C145.872 50.104 146.256 53.624 146.256 54.888C146.256 59.464 142.368 59.928 140.72 60.104L141.2 61.496ZM140.048 50.024C139.888 51.864 139.632 55.112 138.288 57.416C137.872 58.12 137.392 58.712 136.72 58.712C135.584 58.712 135.184 56.872 135.184 55.784C135.184 53.928 135.92 52.136 137.408 51.048C138.224 50.44 139.104 50.2 140.048 50.024ZM159.784 47.496V48.536H157.704V49.592H159.784V50.84H156.856V51.88H159.784V53.16H157.704V54.184H159.784V55.336H157.48V56.376H159.784V57.576H157.048V58.648H159.784V60.072H160.936V58.648H164.744V57.576H160.936V56.376H164.232V55.336H160.936V54.184H164.024V51.88H164.792V50.84H164.024V48.536H160.936V47.496H159.784ZM162.84 50.84H160.936V49.592H162.84V50.84ZM162.84 53.16H160.936V51.88H162.84V53.16ZM160.552 60.648C157.432 60.648 156.008 59.24 155.912 59.128C156.088 58.664 156.824 56.536 156.888 53.064H154.84C155.544 51.832 156.312 50.504 156.856 49.304V48.104H153.656V49.256H155.56C155.176 50.184 154.136 52.152 153.496 53.048V54.216H155.72C155.688 55.4 155.576 56.648 155.128 57.992C154.6 56.888 154.456 55.864 154.36 55.208L153.272 55.368C153.368 55.96 153.64 57.832 154.568 59.256C153.944 60.28 153.4 60.696 152.952 61.048L153.672 62.232C154.136 61.8 154.712 61.272 155.352 60.232C155.8 60.664 157.384 61.896 160.456 61.896H164.728L164.936 60.648H160.552ZM152.584 51.336C153.144 49.8 153.368 48.6 153.528 47.672L152.248 47.464C151.928 49.736 151.08 52.504 149.72 54.152L150.344 55.464C150.68 55.112 150.936 54.84 151.352 54.088V62.312H152.584V51.336ZM179.808 56.504C178.992 57.512 177.712 58.504 177.52 58.648C176.448 57.848 175.872 57.096 175.472 56.536V56.392H180.16V54.184H181.424V53.128H180.16V51H175.472V50.248H174.224V51H169.728V52.04H174.224V53.128H169.024V49.848H181.328V48.664H174.832V47.496H173.504V48.664H167.728V55.32C167.728 56.92 167.6 57.448 167.424 58.376C167.136 59.88 166.656 60.76 166.384 61.224L167.472 62.36C168.88 59.704 169.024 56.616 169.024 55.432V54.184H174.224V55.368H169.728V56.392H174.224V60.68C174.224 60.888 174.192 61.048 173.824 61.048L172.112 61.032L172.368 62.344H174.304C175.12 62.344 175.472 61.864 175.472 61.16V58.184C177.008 60.088 179.104 61.272 180.816 61.912L181.568 60.68C180.992 60.472 179.904 60.088 178.56 59.32C179.632 58.536 180.16 58.056 180.88 57.288L179.808 56.504ZM178.896 52.04V53.128H175.472V52.04H178.896ZM178.896 54.184V55.368H175.472V54.184H178.896ZM169.744 57.448C170.784 57.928 171.28 58.248 171.984 58.904L172.832 57.928C172.016 57.288 171.488 57 170.464 56.52L169.744 57.448ZM173.472 58.584C172.928 58.84 170.528 59.944 168.688 60.52L169.184 61.672C172.592 60.248 172.976 60.088 173.68 59.704L173.472 58.584ZM190.6 53.272C189.704 53.272 188.952 53.992 188.952 54.92C188.952 55.816 189.672 56.568 190.6 56.568C191.528 56.568 192.248 55.8 192.248 54.92C192.248 54.024 191.512 53.272 190.6 53.272ZM213.824 61.096C212.896 60.552 211.328 59.656 209.296 58.808C209.92 58.168 210.976 56.968 211.744 54.52H214.576V53.256H205.904C206.48 52.088 206.688 51.56 206.864 51.128L205.392 50.856C205.2 51.416 204.928 52.168 204.368 53.256H199.824V54.52H203.68C202.8 56.04 202.016 56.968 201.536 57.528C204.032 58.216 205.456 58.696 206.752 59.208C204.752 60.312 202.352 60.712 200.208 60.904L200.672 62.312C204.832 61.88 207.296 60.424 208.176 59.784C210.8 60.92 212.224 61.864 212.944 62.344L213.824 61.096ZM210.336 54.52C210.16 55.048 209.552 56.888 208.016 58.296C206.416 57.688 204.816 57.224 203.664 56.888C203.984 56.472 204.448 55.864 205.216 54.52H210.336ZM200.208 48.936V52.424H201.568V50.168H212.848V52.424H214.208V48.936H207.856V47.496H206.48V48.936H200.208ZM228.52 52.792C229.512 53.416 230.232 53.736 230.792 53.992L231.464 52.68C228.52 51.608 226.152 49.688 224.536 47.512H223.08C221.304 49.992 218.68 51.72 216.136 52.696L216.808 54.008C217.384 53.736 218.056 53.432 219.144 52.776V53.992H223.128V56.424H218.04V57.624H223.128V60.648H216.472V61.928H231.128V60.648H224.488V57.624H229.608V56.424H224.488V53.992H228.52V52.792ZM219.16 52.76C220.936 51.688 222.504 50.28 223.8 48.648C225.512 50.776 227.48 52.12 228.472 52.76H219.16ZM239.296 49.624C239.52 48.824 239.6 48.456 239.696 47.896L238.16 47.832C238.048 48.744 237.936 49.208 237.824 49.624H234.144V50.904H237.44C236.416 53.896 235.136 55.592 233.728 56.92L234.72 57.992C235.232 57.464 236.288 56.056 237.024 55.048C238.144 53.912 239.312 53.416 240.192 53.416C240.928 53.416 241.376 53.736 241.552 54.68C239.968 55.384 237.104 56.824 237.104 59C237.104 61.576 240.72 61.576 242.528 61.576C244.048 61.576 245.44 61.48 246.352 61.416L246.304 60.04C244.864 60.2 243.36 60.264 242.08 60.264C240.32 60.264 238.544 60.264 238.544 58.856C238.544 57.544 240.48 56.52 241.712 55.944C241.744 56.36 241.744 56.632 241.744 56.904C241.744 57.48 241.696 58.072 241.664 58.44H243.056C243.104 57.928 243.104 57.448 243.104 57.224C243.104 56.648 243.088 55.96 243.04 55.4C244.8 54.728 245.936 54.376 247.232 54.008L246.848 52.616C245.408 53.112 243.216 53.992 242.848 54.136C242.528 52.616 241.504 52.264 240.416 52.264C239.616 52.264 238.976 52.536 237.856 53.208C238.32 52.408 238.544 51.88 238.912 50.904H245.968V49.624H239.296ZM261.288 51.16V48.12H259.848V51.16H254.264V48.184H252.808V51.16H250.104V52.536H252.808V56.84H254.264V52.536H259.848V54.504C259.848 58.024 257.752 59.864 253.224 60.296L253.752 61.688C256.152 61.4 261.288 60.456 261.288 54.568V52.536H264.056V51.16H261.288ZM274.304 50.872V48.2H272.832V50.872H267.296V52.232H272.832V61.736H274.304V52.232H279.856V51.656C280.816 51.384 281.472 50.52 281.472 49.528C281.472 48.296 280.48 47.304 279.248 47.304C278.032 47.304 277.024 48.296 277.024 49.512C277.024 50.024 277.184 50.488 277.488 50.872H274.304ZM279.248 48.296C279.92 48.296 280.48 48.84 280.48 49.528C280.48 50.2 279.936 50.76 279.248 50.76C278.576 50.76 278.016 50.2 278.016 49.528C278.016 48.84 278.576 48.296 279.248 48.296ZM268.096 60.776C270.016 58.632 270.512 56.024 270.736 53.912L269.376 53.768C269.2 55.736 268.624 58.024 266.928 59.72L268.096 60.776ZM276.464 53.912C277.008 57.192 277.632 58.952 279.072 60.712L280.272 59.784C278.96 58.2 278.288 56.536 277.808 53.752L276.464 53.912ZM283.32 54.152V55.672H297.08V54.152H283.32ZM313.104 55.576C310.8 54.328 308.32 53.096 305.296 52.136V48.04H303.744V61.72H305.296V53.64C308.64 54.792 311.264 56.392 312.352 57.064L313.104 55.576ZM318.84 48.232C318.824 49.32 318.728 54.632 318.728 55.832C318.728 58.616 319.016 61.544 323.4 61.544C328.264 61.544 329.304 58.248 329.816 55.352L328.472 54.856C328.024 57.288 327.496 60.168 323.352 60.168C320.344 60.168 320.248 58.024 320.248 55.976C320.248 54.456 320.312 52.552 320.456 48.232H318.84ZM337.168 60.856C336.496 59.944 335.36 58.6 334.32 57.64L333.104 58.536C333.632 59.096 334.624 60.136 335.76 61.848L337.168 60.856ZM9.216 76.6C9.328 75.912 9.376 75.384 9.376 74.456H13.776V73.288H6.48C6.704 72.856 6.832 72.584 7.088 71.944L5.808 71.672C5.312 73.224 4.368 74.392 3.232 75.304L4.24 76.168C4.864 75.608 5.232 75.208 5.776 74.456H8.128C8.128 75.608 8.048 76.104 7.968 76.6H3.312V77.784H7.584C6.448 80.136 3.904 80.76 3.104 80.952L3.872 82.12C5.696 81.512 7.744 80.472 8.8 78.04C9.2 78.952 10.48 80.984 14.096 82.104L14.8 80.872C12.208 80.296 10.512 78.808 9.968 77.784H14.448V76.6H9.216ZM1.12 70.024V84.008H15.328V82.792H2.48V71.256H14.992V70.024H1.12ZM30.328 77.272C30.824 77.576 31.128 77.72 31.56 77.928L32.168 76.856C31.72 76.696 31.288 76.536 30.568 76.136C30.6 76.088 31.16 75.544 31.656 74.904L30.76 74.36C30.584 74.6 30.2 75.08 29.736 75.576C28.968 74.984 28.568 74.456 28.248 74.056H31.976V73.048H26.152C26.264 72.824 26.328 72.664 26.488 72.264L25.224 72.12C25.096 72.488 25.016 72.696 24.856 73.048H21.016V74.056H24.248C23.8 74.648 23.4 75.064 22.904 75.464C22.76 75.304 22.312 74.808 21.8 74.424L21.064 75.096C21.512 75.448 21.56 75.496 22.088 76.056C21.544 76.424 21.128 76.632 20.568 76.904L21.272 77.864C21.624 77.656 21.736 77.592 22.072 77.384V80.712H25.512V82.776C25.512 83.096 25.464 83.16 25.144 83.16H23.624L23.896 84.312H25.624C26.12 84.312 26.808 84.28 26.808 83.288V80.712H30.328V77.272ZM29.16 77.896H23.24V76.936H29.16V77.896ZM23.896 76.008C24.936 75.064 25.384 74.36 25.576 74.056H26.936C27.288 74.568 27.688 75.176 28.616 76.008H23.896ZM29.16 79.784H23.24V78.776H29.16V79.784ZM19.24 76.216C19.24 76.664 19.224 76.968 19.224 77.224C18.424 77.624 18.056 77.8 16.952 78.232L17.224 79.544C17.704 79.304 18.312 79 19.112 78.472C18.76 81.448 17.88 82.6 17.16 83.496L18.136 84.36C18.776 83.592 20.504 81.528 20.504 76.264V71.912H32.024V70.792H26.072V69.496H24.76V70.792H19.24V76.216ZM18.904 74.84C18.744 74.024 18.408 72.904 17.944 71.992L16.952 72.472C17.32 73.384 17.608 74.408 17.784 75.368L18.904 74.84ZM20.6 84.072C21.672 83.672 22.664 83.144 24.024 81.816L23.096 81.048C21.96 82.136 21.176 82.568 19.896 83L20.6 84.072ZM28.104 81.832C28.968 82.808 30.328 83.656 31.56 84.088L32.264 83C30.776 82.472 30.104 82.088 28.952 80.984L28.104 81.832ZM35.776 70.376C35.264 72.776 35.104 75.336 35.104 77.976C35.104 81.032 35.376 82.632 35.52 83.56L37.072 83.432C36.944 82.856 36.576 81.32 36.576 77.752C36.576 73.72 37.056 71.624 37.296 70.504L35.776 70.376ZM39.728 71.672V73.08H47.248V71.672H39.728ZM40.08 76.968C39.52 77.912 39.232 78.824 39.232 79.656C39.232 82.408 42.192 82.632 44.56 82.632C45.92 82.632 47.04 82.536 47.584 82.488V80.984C46.112 81.144 44.8 81.176 43.92 81.176C42.208 81.176 40.576 80.984 40.576 79.528C40.576 79.384 40.592 78.472 41.376 77.368L40.08 76.968ZM55.704 82.632C57.64 82.616 59.432 82.392 60.792 81.832C64.2 80.456 64.6 77.752 64.6 76.52C64.6 74.12 63.08 71.72 59.336 71.72C58.008 71.72 56.472 71.976 54.952 72.248C54.296 72.36 51.192 72.904 50.824 72.952L51.176 74.568C53.88 73.896 57.32 73.128 59.24 73.128C62.36 73.128 63.064 75.032 63.064 76.536C63.064 78.12 62.232 79.272 61.368 79.896C59.8 81.016 57.96 81.24 55.32 81.256L55.704 82.632ZM68.208 70.856C68.112 71.944 67.952 73.688 67.952 75.432C67.952 79.592 68.672 83.176 71.264 83.176C72.08 83.176 72.672 82.792 73.056 82.408C73.952 81.512 74.688 80.168 75.216 78.68L74.032 78.008C72.928 80.888 72.096 81.544 71.376 81.544C69.584 81.544 69.392 78.04 69.392 75.56C69.392 73.4 69.6 71.944 69.728 70.984L68.208 70.856ZM81.104 81.592C81.328 75.192 79.68 72.936 77.776 71.336L76.672 72.184C78.336 73.544 79.584 75.848 79.584 80.024C79.584 80.76 79.552 81.24 79.52 81.656L81.104 81.592ZM97.544 70.968C93.608 71 92.136 71.032 88.552 71.224C87.736 71.272 85.176 71.384 84.216 71.416L84.344 72.984C86.088 72.776 91.624 72.44 92.088 72.424C90.2 73.528 87.4 75.624 87.4 78.664C87.4 83.144 92.712 83.368 95.864 83.496L96.152 81.944C94.776 81.992 93.24 81.896 92.12 81.656C90.424 81.304 88.888 80.648 88.888 78.568C88.888 75.816 92.024 73.336 94.328 72.568C94.808 72.408 95.144 72.376 95.944 72.376C96.568 72.376 97.032 72.392 97.576 72.44L97.544 70.968ZM108 83.496C109.776 83.32 111.376 82.776 112.416 81.912C113.872 80.696 114.56 78.808 114.56 76.904C114.56 74.2 113.168 70.616 107.984 70.616C103.76 70.616 100.592 73.4 100.592 77.752C100.592 80.392 101.904 82.248 103.472 82.248C104.192 82.248 105.216 81.88 106.16 80.392C107.808 77.752 108.128 73.816 108.272 71.96C112.672 72.104 113.056 75.624 113.056 76.888C113.056 81.464 109.168 81.928 107.52 82.104L108 83.496ZM106.848 72.024C106.688 73.864 106.432 77.112 105.088 79.416C104.672 80.12 104.192 80.712 103.52 80.712C102.384 80.712 101.984 78.872 101.984 77.784C101.984 75.928 102.72 74.136 104.208 73.048C105.024 72.44 105.904 72.2 106.848 72.024ZM124.488 73.32C124.776 72.856 125.096 72.328 125.56 71.368H131.576V70.056H116.792V71.368H124.136C122.92 73.96 120.552 76.712 116.616 78.52L117.416 79.784C118.552 79.208 120.968 77.912 123.448 74.776V84.344H124.84V73.32H124.488ZM131.8 78.584C129.368 77.096 127.736 75.416 126.376 73.72L125.4 74.488C127.352 76.952 128.408 78.024 130.84 79.784L131.8 78.584ZM147.424 83.096C146.496 82.552 144.928 81.656 142.896 80.808C143.52 80.168 144.576 78.968 145.344 76.52H148.176V75.256H139.504C140.08 74.088 140.288 73.56 140.464 73.128L138.992 72.856C138.8 73.416 138.528 74.168 137.968 75.256H133.424V76.52H137.28C136.4 78.04 135.616 78.968 135.136 79.528C137.632 80.216 139.056 80.696 140.352 81.208C138.352 82.312 135.952 82.712 133.808 82.904L134.272 84.312C138.432 83.88 140.896 82.424 141.776 81.784C144.4 82.92 145.824 83.864 146.544 84.344L147.424 83.096ZM143.936 76.52C143.76 77.048 143.152 78.888 141.616 80.296C140.016 79.688 138.416 79.224 137.264 78.888C137.584 78.472 138.048 77.864 138.816 76.52H143.936ZM133.808 70.936V74.424H135.168V72.168H146.448V74.424H147.808V70.936H141.456V69.496H140.08V70.936H133.808ZM157.4 75.272C156.504 75.272 155.752 75.992 155.752 76.92C155.752 77.816 156.472 78.568 157.4 78.568C158.328 78.568 159.048 77.8 159.048 76.92C159.048 76.024 158.312 75.272 157.4 75.272ZM167.376 77.432C167.728 76.12 167.872 74.04 167.888 72.936L166.864 72.84C166.864 73.64 166.768 75.48 166.32 76.92L167.376 77.432ZM168.544 69.496V84.344H169.84V69.496H168.544ZM171.792 74.84C171.712 74.568 171.36 73.336 170.96 72.424L170 72.808C170.336 73.64 170.592 74.584 170.72 75.256L171.792 74.84ZM180.928 75.128H179.664V82.856H172.88V75.128H171.616V84.008H180.928V75.128ZM177.552 74.664C177.184 75.88 176.848 76.536 176.432 77.32C175.632 76.504 175.152 76.056 174.432 75.512L173.6 76.328C174.56 77.112 175.088 77.64 175.792 78.376C175.072 79.448 174.448 80.232 173.312 81.144L174.192 82.056C175.6 80.84 176.16 80.072 176.656 79.352C177.152 79.912 177.536 80.392 178.24 81.448L179.184 80.6C178.736 79.912 178.336 79.352 177.344 78.28C177.808 77.464 178.224 76.68 178.688 75.16L177.552 74.664ZM177.104 72.792C176.72 71.304 176.016 69.912 175.824 69.528L174.64 69.864C174.736 70.056 175.552 71.752 175.872 73.176L177.104 72.792ZM179.456 74.2C180.24 73.112 181.024 71.496 181.392 70.312L180.192 69.784C180 70.344 179.424 72.088 178.352 73.64L179.456 74.2ZM174.096 73.416C173.696 72.36 173.008 71.112 172.336 70.2L171.232 70.664C171.936 71.672 172.544 72.92 172.912 73.864L174.096 73.416ZM190.872 83.784C194.28 82.568 195.096 79.896 195.48 78.328C196.28 78.68 196.552 78.824 197.272 79.256L197.752 77.816C196.76 77.272 195.832 76.92 195.784 76.904C196.024 75.624 196.152 74.232 196.264 73.08L194.744 72.968C194.712 73.704 194.632 74.84 194.392 76.408C192.936 75.928 191.88 75.672 190.536 75.56C191.064 72.408 191.112 72.056 191.32 70.456H184.696V71.848L189.704 71.8C189.608 72.936 189.4 74.36 189.176 75.512C183.944 75.72 183.656 79.16 183.656 79.944C183.656 81.656 184.776 82.68 186.312 82.68C188.728 82.68 189.432 80.392 190.296 76.824C191.736 76.952 193.096 77.368 194.136 77.768C193.576 80.088 192.744 81.688 189.992 82.68L190.872 83.784ZM188.936 76.744C188.088 80.216 187.656 81.416 186.216 81.416C185 81.416 184.92 80.168 184.92 79.864C184.92 78.776 185.576 77.736 186.616 77.224C187.32 76.872 187.992 76.776 188.936 76.744ZM207.2 75.272C206.304 75.272 205.552 75.992 205.552 76.92C205.552 77.816 206.272 78.568 207.2 78.568C208.128 78.568 208.848 77.8 208.848 76.92C208.848 76.024 208.112 75.272 207.2 75.272ZM216.36 70.872V72.12H219.928V73.752H221.224V72.12H226.344V73.752H227.624V72.12H231.24V70.872H227.624V69.48H226.344V70.872H221.224V69.48H219.928V70.872H216.36ZM231.24 74.776H224.424V73.016H223.096V74.776H216.36V76.008H223.096V78.072H217.976V84.04H229.592V78.072H224.424V76.008H231.24V74.776ZM228.264 82.872H219.304V79.256H228.264V82.872ZM243.52 76.008C243.408 75.928 243.264 75.816 243.168 75.752C243.536 75.576 245.184 74.808 246.624 73.64V72.792H237.408V73.752H244.464C243.6 74.392 243.152 74.648 242.192 75.128C241.952 74.968 241.088 74.456 240.208 74.056L239.44 74.92C240.496 75.352 241.088 75.656 241.568 76.008H237.696V84.36H238.944V81.704H241.76V84.312H242.992V81.704H245.984V82.712C245.984 83 245.84 83.048 245.616 83.048H244.288L244.528 84.36H246.112C247.216 84.36 247.216 83.56 247.216 83.08V76.008H243.52ZM241.76 78.328H238.944V77.032H241.76V78.328ZM241.76 80.696H238.944V79.32H241.76V80.696ZM245.984 78.328H242.992V77.032H245.984V78.328ZM245.984 80.696H242.992V79.32H245.984V80.696ZM235.456 76.392C235.456 76.76 235.44 76.984 235.424 77.208C235.28 77.304 234.112 77.944 232.848 78.424L233.168 79.736C233.728 79.448 234.272 79.176 235.328 78.536C235.04 80.936 234.576 82.184 233.44 83.512L234.496 84.408C235.216 83.544 236.704 81.768 236.704 76.136V71.896H247.76V70.76H241.904V69.464H240.56V70.76H235.456V76.392ZM235.088 74.888C234.88 74.056 234.448 72.872 233.984 72.008L232.928 72.584C233.296 73.304 233.76 74.52 233.984 75.432L235.088 74.888ZM255.896 71.624C256.12 70.824 256.2 70.456 256.296 69.896L254.76 69.832C254.648 70.744 254.536 71.208 254.424 71.624H250.744V72.904H254.04C253.016 75.896 251.736 77.592 250.328 78.92L251.32 79.992C251.832 79.464 252.888 78.056 253.624 77.048C254.744 75.912 255.912 75.416 256.792 75.416C257.528 75.416 257.976 75.736 258.152 76.68C256.568 77.384 253.704 78.824 253.704 81C253.704 83.576 257.32 83.576 259.128 83.576C260.648 83.576 262.04 83.48 262.952 83.416L262.904 82.04C261.464 82.2 259.96 82.264 258.68 82.264C256.92 82.264 255.144 82.264 255.144 80.856C255.144 79.544 257.08 78.52 258.312 77.944C258.344 78.36 258.344 78.632 258.344 78.904C258.344 79.48 258.296 80.072 258.264 80.44H259.656C259.704 79.928 259.704 79.448 259.704 79.224C259.704 78.648 259.688 77.96 259.64 77.4C261.4 76.728 262.536 76.376 263.832 76.008L263.448 74.616C262.008 75.112 259.816 75.992 259.448 76.136C259.128 74.616 258.104 74.264 257.016 74.264C256.216 74.264 255.576 74.536 254.456 75.208C254.92 74.408 255.144 73.88 255.512 72.904H262.568V71.624H255.896ZM270.512 71.176C271.456 71.016 271.968 70.888 272.832 70.664L272.352 69.496C270.272 70.056 268.496 70.296 266.16 70.36L266.432 71.56C267.728 71.512 268.384 71.448 269.216 71.352V73.704H266.128V74.888H269.056C268.56 76.024 267.568 78.104 265.92 79.72L266.496 81.24C267.984 79.624 268.784 78.12 269.216 77.16V84.344H270.512V76.856C271.104 77.944 271.712 78.792 272.464 79.528L273.12 78.264C271.808 77.144 270.928 75.736 270.512 74.936V74.888H273.088V73.704H270.512V71.176ZM280.48 70.52H273.664V83.912H280.48V70.52ZM279.168 82.664H274.944V71.736H279.168V82.664ZM294.2 71.032C291.752 70.232 289.016 70.088 287.64 70.024L287.384 71.4C289.544 71.48 291.896 71.784 293.8 72.552L294.2 71.032ZM285.432 72.312C285.224 73.144 285.08 74.024 285.016 75.512C285 75.992 284.952 78.392 284.952 78.936L286.376 78.984C286.392 78.904 286.408 78.856 286.456 78.696C287.512 77.304 289.656 76.392 291.8 76.392C293.912 76.392 294.76 77.544 294.76 78.792C294.76 79.448 294.584 80.2 294.136 80.68C293.176 81.736 291.256 82.168 289.048 82.168C287.976 82.168 287 82.072 285.928 81.88L286.088 83.288C286.744 83.384 287.688 83.512 289.16 83.512C292.584 83.512 296.28 82.648 296.28 78.808C296.28 77.48 295.592 75.096 291.88 75.096C289.8 75.096 288.008 75.768 286.376 77.064C286.376 74.712 286.504 73.784 286.872 72.568L285.432 72.312ZM305.344 83.8C308.736 83.144 310.704 81.976 310.704 76.824C310.704 76.552 310.672 75.464 310.656 75.032H313.504V73.688H310.576C310.544 73.192 310.416 70.872 310.368 70.248L308.992 70.28C309.04 71.128 309.12 72.968 309.152 73.688H303.76V75.032H309.2C309.216 75.528 309.232 76.28 309.232 76.616C309.232 80.984 307.888 81.912 304.816 82.504L305.344 83.8ZM310.624 69.592C311.136 70.76 311.408 71.736 311.6 72.904L312.752 72.488C312.448 71.208 312.256 70.44 311.696 69.224L310.624 69.592ZM312.8 69.176C313.312 70.344 313.536 71.128 313.776 72.472L314.928 72.056C314.56 70.536 314.432 70.008 313.872 68.792L312.8 69.176ZM300.992 70.28C300.672 72.664 300.512 75.064 300.512 77.464C300.512 79.448 300.592 81.448 301.008 83.4L302.496 83.208C302.064 81.192 301.952 79.176 301.952 77.32C301.952 73.992 302.32 71.624 302.528 70.376L300.992 70.28ZM324.52 71.848V70.168H323.112V71.848H317.032V73.08H323.112V75.064H317.272V76.28H323.112V78.168C322.776 78.104 322.232 78.008 321.512 78.008C319.128 78.008 317.48 79.224 317.48 80.904C317.48 81.928 318.152 83.592 321.272 83.592C322.616 83.592 324.52 83.16 324.52 80.872V79.96C325.4 80.36 326.808 81.096 328.36 82.808L329.304 81.432C327.624 80.024 326.216 79.144 324.52 78.52V76.28H329.32V75.064H324.52V73.08H329.624V71.848H324.52ZM323.112 80.584C323.112 81.848 322.488 82.344 321.096 82.344C318.984 82.344 318.824 81.16 318.824 80.856C318.824 79.8 320.024 79.192 321.512 79.192C322.328 79.192 322.792 79.32 323.112 79.416V80.584ZM10.512 93.8V92.008H9.04L9.072 93.8H1.2V95.128H9.088L9.104 96.856C8.768 96.568 8.384 96.216 7.312 96.216C5.328 96.216 4 97.592 4 99.464C4 101.016 4.992 102.6 6.976 102.6C8.816 102.6 9.344 101.4 9.504 101.064C9.296 102.968 8.112 104.44 3.84 104.392L4.288 105.736C7.072 105.624 10.816 104.856 10.816 100.632C10.816 100.216 10.784 99.8 10.72 99.4C10.672 99.016 10.592 98.648 10.512 98.344V95.128H14.704V93.8H10.512ZM9.136 99.576C9.136 100.632 8.304 101.432 7.168 101.432C5.68 101.432 5.344 100.072 5.344 99.4C5.344 97.928 6.464 97.416 7.344 97.416C8.752 97.416 9.008 98.36 9.136 98.872V99.576ZM20.136 101.048C18.824 101.048 17.752 102.104 17.752 103.432C17.752 104.744 18.808 105.816 20.136 105.816C21.448 105.816 22.52 104.744 22.52 103.432C22.52 102.088 21.432 101.048 20.136 101.048ZM20.136 101.848C20.984 101.848 21.704 102.536 21.704 103.432C21.704 104.296 21 105 20.136 105C19.256 105 18.552 104.296 18.552 103.432C18.552 102.552 19.272 101.848 20.136 101.848Z" fill="black"/>
</svg>
