<svg width="816" height="74" viewBox="0 0 816 74" fill="none" xmlns="http://www.w3.org/2000/svg">
<path d="M32.8223 29.0967V26.377C32.8223 26.1686 32.7799 25.988 32.6953 25.835C32.6139 25.6787 32.4902 25.5583 32.3242 25.4736C32.1582 25.389 31.9531 25.3467 31.709 25.3467C31.4811 25.3467 31.2809 25.3857 31.1084 25.4639C30.9391 25.542 30.8057 25.6445 30.708 25.7715C30.6136 25.8984 30.5664 26.0352 30.5664 26.1816H29.6631C29.6631 25.9928 29.7119 25.8057 29.8096 25.6201C29.9072 25.4346 30.0472 25.2669 30.2295 25.1172C30.415 24.9642 30.6364 24.8438 30.8936 24.7559C31.154 24.6647 31.4437 24.6191 31.7627 24.6191C32.1468 24.6191 32.4854 24.6842 32.7783 24.8145C33.0745 24.9447 33.3057 25.1416 33.4717 25.4053C33.641 25.6657 33.7256 25.9928 33.7256 26.3867V28.8477C33.7256 29.0234 33.7402 29.2106 33.7695 29.4092C33.8021 29.6077 33.8493 29.7786 33.9111 29.9219V30H32.9688C32.9232 29.8958 32.8874 29.7575 32.8613 29.585C32.8353 29.4092 32.8223 29.2464 32.8223 29.0967ZM32.9785 26.7969L32.9883 27.4316H32.0752C31.818 27.4316 31.5885 27.4528 31.3867 27.4951C31.1849 27.5342 31.0156 27.5944 30.8789 27.6758C30.7422 27.7572 30.638 27.8597 30.5664 27.9834C30.4948 28.1038 30.459 28.2454 30.459 28.4082C30.459 28.5742 30.4964 28.7256 30.5713 28.8623C30.6462 28.999 30.7585 29.1081 30.9082 29.1895C31.0612 29.2676 31.2484 29.3066 31.4697 29.3066C31.7464 29.3066 31.9906 29.248 32.2021 29.1309C32.4137 29.0137 32.5814 28.8704 32.7051 28.7012C32.832 28.5319 32.9004 28.3675 32.9102 28.208L33.2959 28.6426C33.2731 28.7793 33.2113 28.9307 33.1104 29.0967C33.0094 29.2627 32.8743 29.4222 32.7051 29.5752C32.5391 29.7249 32.3405 29.8503 32.1094 29.9512C31.8815 30.0488 31.6243 30.0977 31.3379 30.0977C30.9798 30.0977 30.6657 30.0277 30.3955 29.8877C30.1286 29.7477 29.9202 29.5605 29.7705 29.3262C29.624 29.0885 29.5508 28.8232 29.5508 28.5303C29.5508 28.2471 29.6061 27.998 29.7168 27.7832C29.8275 27.5651 29.987 27.3844 30.1953 27.2412C30.4036 27.0947 30.6543 26.984 30.9473 26.9092C31.2402 26.8343 31.5674 26.7969 31.9287 26.7969H32.9785ZM37.915 23.5205L35.5615 30H34.5996L37.3096 22.8906H37.9297L37.915 23.5205ZM39.8877 30L37.5293 23.5205L37.5146 22.8906H38.1348L40.8545 30H39.8877ZM39.7656 27.3682V28.1396H35.7715V27.3682H39.7656ZM45.6914 22.09L44.8614 22.06C44.8614 22.19 44.8514 22.37 44.8314 22.55C44.7414 23.41 44.5414 25.03 44.5414 26.4C44.5414 27.67 44.8114 29.09 45.1014 29.98L45.8314 29.76C45.5214 28.82 45.2414 27.62 45.2414 26.32C45.2414 24.95 45.4114 23.37 45.5814 22.53C45.6114 22.39 45.6514 22.21 45.6914 22.09ZM44.0814 23.32C43.6514 23.32 42.7814 23.26 42.4314 23.2L42.4514 23.95C42.8614 23.97 43.6414 24.01 44.0714 24.01C45.5614 24.01 47.5314 23.86 48.9714 23.61L48.9614 22.87C47.5814 23.18 45.8414 23.32 44.0814 23.32ZM48.2514 24.5L47.4514 24.3C47.4414 24.46 47.3914 24.73 47.3514 24.88C46.8914 26.5 46.0714 27.58 45.1814 28.36C44.5414 28.92 43.8914 29.2 43.3914 29.2C43.0214 29.2 42.8214 29 42.8214 28.59C42.8214 27.67 43.7214 26.57 44.8514 26.07C45.3614 25.84 46.1014 25.6 46.9414 25.6C48.4314 25.6 49.2514 26.45 49.2514 27.42C49.2514 28.71 48.1314 29.64 46.3314 29.84L46.7614 30.51C49.0814 30.14 50.0314 28.89 50.0314 27.46C50.0314 26.06 48.8414 24.96 46.9514 24.96C46.3014 24.96 45.4914 25.11 44.8214 25.37C43.3414 25.94 42.0714 27.35 42.0714 28.72C42.0714 29.57 42.5914 29.97 43.2514 29.97C43.9614 29.97 44.7614 29.6 45.4014 29.11C46.4514 28.3 47.4514 26.91 48.0414 25.06C48.1014 24.9 48.1914 24.63 48.2514 24.5Z" fill="#2A2F39"/>
<path d="M26.0166 68H23.9424V59.7295C23.9424 59.4541 23.9453 59.1787 23.9512 58.9033C23.957 58.6279 23.9629 58.3584 23.9688 58.0947C23.9805 57.8311 23.9951 57.5791 24.0127 57.3389C23.8896 57.4736 23.7373 57.6201 23.5557 57.7783C23.3799 57.9365 23.1924 58.1006 22.9932 58.2705L21.5166 59.4482L20.4795 58.1387L24.2939 55.1504H26.0166V68ZM38.9453 61.5664C38.9453 62.6035 38.8633 63.5322 38.6992 64.3525C38.541 65.167 38.2891 65.8584 37.9434 66.4268C37.5977 66.9951 37.1465 67.4287 36.5898 67.7275C36.0332 68.0264 35.3594 68.1758 34.5684 68.1758C33.5781 68.1758 32.7607 67.915 32.1162 67.3936C31.4717 66.8662 30.9941 66.1104 30.6836 65.126C30.373 64.1357 30.2178 62.9492 30.2178 61.5664C30.2178 60.1836 30.3584 59 30.6396 58.0156C30.9268 57.0254 31.3896 56.2666 32.0283 55.7393C32.667 55.2119 33.5137 54.9482 34.5684 54.9482C35.5645 54.9482 36.3848 55.2119 37.0293 55.7393C37.6797 56.2607 38.1602 57.0166 38.4707 58.0068C38.7871 58.9912 38.9453 60.1777 38.9453 61.5664ZM32.3008 61.5664C32.3008 62.6504 32.3711 63.5557 32.5117 64.2822C32.6582 65.0088 32.8984 65.5537 33.2324 65.917C33.5664 66.2744 34.0117 66.4531 34.5684 66.4531C35.125 66.4531 35.5703 66.2744 35.9043 65.917C36.2383 65.5596 36.4785 65.0176 36.625 64.291C36.7773 63.5645 36.8535 62.6562 36.8535 61.5664C36.8535 60.4883 36.7803 59.5859 36.6338 58.8594C36.4873 58.1328 36.2471 57.5879 35.9131 57.2246C35.5791 56.8555 35.1309 56.6709 34.5684 56.6709C34.0059 56.6709 33.5576 56.8555 33.2236 57.2246C32.8955 57.5879 32.6582 58.1328 32.5117 58.8594C32.3711 59.5859 32.3008 60.4883 32.3008 61.5664ZM46.2051 58.0859C47.3594 58.0859 48.2852 58.5078 48.9824 59.3516C49.6855 60.1953 50.0371 61.4492 50.0371 63.1133C50.0371 64.2148 49.873 65.1436 49.5449 65.8994C49.2227 66.6494 48.7686 67.2178 48.1826 67.6045C47.6025 67.9854 46.9258 68.1758 46.1523 68.1758C45.6602 68.1758 45.2324 68.1113 44.8691 67.9824C44.5059 67.8535 44.1953 67.6865 43.9375 67.4814C43.6797 67.2705 43.4629 67.042 43.2871 66.7959H43.1641C43.1934 67.0303 43.2197 67.291 43.2432 67.5781C43.2725 67.8594 43.2871 68.1172 43.2871 68.3516V72.3154H41.2129V58.2705H42.9004L43.1904 59.6152H43.2871C43.4688 59.3398 43.6885 59.085 43.9463 58.8506C44.21 58.6162 44.5264 58.4316 44.8955 58.2969C45.2705 58.1562 45.707 58.0859 46.2051 58.0859ZM45.6514 59.7734C45.083 59.7734 44.626 59.8877 44.2803 60.1162C43.9404 60.3389 43.6914 60.6758 43.5332 61.127C43.3809 61.5781 43.2988 62.1436 43.2871 62.8232V63.1133C43.2871 63.834 43.3604 64.4463 43.5068 64.9502C43.6592 65.4482 43.9082 65.8291 44.2539 66.0928C44.6055 66.3506 45.0801 66.4795 45.6777 66.4795C46.1816 66.4795 46.5977 66.3418 46.9258 66.0664C47.2598 65.791 47.5088 65.3984 47.6729 64.8887C47.8369 64.3789 47.9189 63.7783 47.9189 63.0869C47.9189 62.0381 47.7314 61.2236 47.3564 60.6436C46.9873 60.0635 46.4189 59.7734 45.6514 59.7734ZM54.5811 63.0254L51.3291 58.2705H53.6846L55.9082 61.6895L58.1406 58.2705H60.4873L57.2178 63.0254L60.6543 68H58.29L55.9082 64.3525L53.5176 68H51.1709L54.5811 63.0254Z" fill="#2A2F39"/>
<path d="M123.387 28.916V25.6523C123.387 25.4023 123.336 25.1855 123.234 25.002C123.137 24.8145 122.988 24.6699 122.789 24.5684C122.59 24.4668 122.344 24.416 122.051 24.416C121.777 24.416 121.537 24.4629 121.33 24.5566C121.127 24.6504 120.967 24.7734 120.85 24.9258C120.736 25.0781 120.68 25.2422 120.68 25.418H119.596C119.596 25.1914 119.654 24.9668 119.771 24.7441C119.889 24.5215 120.057 24.3203 120.275 24.1406C120.498 23.957 120.764 23.8125 121.072 23.707C121.385 23.5977 121.732 23.543 122.115 23.543C122.576 23.543 122.982 23.6211 123.334 23.7773C123.689 23.9336 123.967 24.1699 124.166 24.4863C124.369 24.7988 124.471 25.1914 124.471 25.6641V28.6172C124.471 28.8281 124.488 29.0527 124.523 29.291C124.562 29.5293 124.619 29.7344 124.693 29.9062V30H123.562C123.508 29.875 123.465 29.709 123.434 29.502C123.402 29.291 123.387 29.0957 123.387 28.916ZM123.574 26.1562L123.586 26.918H122.49C122.182 26.918 121.906 26.9434 121.664 26.9941C121.422 27.041 121.219 27.1133 121.055 27.2109C120.891 27.3086 120.766 27.4316 120.68 27.5801C120.594 27.7246 120.551 27.8945 120.551 28.0898C120.551 28.2891 120.596 28.4707 120.686 28.6348C120.775 28.7988 120.91 28.9297 121.09 29.0273C121.273 29.1211 121.498 29.168 121.764 29.168C122.096 29.168 122.389 29.0977 122.643 28.957C122.896 28.8164 123.098 28.6445 123.246 28.4414C123.398 28.2383 123.48 28.041 123.492 27.8496L123.955 28.3711C123.928 28.5352 123.854 28.7168 123.732 28.916C123.611 29.1152 123.449 29.3066 123.246 29.4902C123.047 29.6699 122.809 29.8203 122.531 29.9414C122.258 30.0586 121.949 30.1172 121.605 30.1172C121.176 30.1172 120.799 30.0332 120.475 29.8652C120.154 29.6973 119.904 29.4727 119.725 29.1914C119.549 28.9062 119.461 28.5879 119.461 28.2363C119.461 27.8965 119.527 27.5977 119.66 27.3398C119.793 27.0781 119.984 26.8613 120.234 26.6895C120.484 26.5137 120.785 26.3809 121.137 26.291C121.488 26.2012 121.881 26.1562 122.314 26.1562H123.574ZM129.498 22.2246L126.674 30H125.52L128.771 21.4688H129.516L129.498 22.2246ZM131.865 30L129.035 22.2246L129.018 21.4688H129.762L133.025 30H131.865ZM131.719 26.8418V27.7676H126.926V26.8418H131.719ZM138.83 20.508L137.834 20.472C137.834 20.628 137.822 20.844 137.798 21.06C137.69 22.092 137.45 24.036 137.45 25.68C137.45 27.204 137.774 28.908 138.122 29.976L138.998 29.712C138.626 28.584 138.29 27.144 138.29 25.584C138.29 23.94 138.494 22.044 138.698 21.036C138.734 20.868 138.782 20.652 138.83 20.508ZM136.898 21.984C136.382 21.984 135.338 21.912 134.918 21.84L134.942 22.74C135.434 22.764 136.37 22.812 136.886 22.812C138.674 22.812 141.038 22.632 142.766 22.332L142.754 21.444C141.098 21.816 139.01 21.984 136.898 21.984ZM141.902 23.4L140.942 23.16C140.93 23.352 140.87 23.676 140.822 23.856C140.27 25.8 139.286 27.096 138.218 28.032C137.45 28.704 136.67 29.04 136.07 29.04C135.626 29.04 135.386 28.8 135.386 28.308C135.386 27.204 136.466 25.884 137.822 25.284C138.434 25.008 139.322 24.72 140.33 24.72C142.118 24.72 143.102 25.74 143.102 26.904C143.102 28.452 141.758 29.568 139.598 29.808L140.114 30.612C142.898 30.168 144.038 28.668 144.038 26.952C144.038 25.272 142.61 23.952 140.342 23.952C139.562 23.952 138.59 24.132 137.786 24.444C136.01 25.128 134.486 26.82 134.486 28.464C134.486 29.484 135.11 29.964 135.902 29.964C136.754 29.964 137.714 29.52 138.482 28.932C139.742 27.96 140.942 26.292 141.65 24.072C141.722 23.88 141.83 23.556 141.902 23.4Z" fill="#2A2F39"/>
<path d="M118.017 68H115.942V59.7295C115.942 59.4541 115.945 59.1787 115.951 58.9033C115.957 58.6279 115.963 58.3584 115.969 58.0947C115.98 57.8311 115.995 57.5791 116.013 57.3389C115.89 57.4736 115.737 57.6201 115.556 57.7783C115.38 57.9365 115.192 58.1006 114.993 58.2705L113.517 59.4482L112.479 58.1387L116.294 55.1504H118.017V68ZM130.945 68H122.244V66.4443L125.575 63.0693C126.22 62.4131 126.75 61.8477 127.166 61.373C127.582 60.8926 127.89 60.4385 128.089 60.0107C128.294 59.583 128.396 59.1172 128.396 58.6133C128.396 57.9922 128.218 57.5234 127.86 57.207C127.503 56.8848 127.031 56.7236 126.445 56.7236C125.889 56.7236 125.373 56.835 124.898 57.0576C124.43 57.2744 123.943 57.585 123.439 57.9893L122.306 56.627C122.663 56.3223 123.044 56.0439 123.448 55.792C123.858 55.54 124.315 55.3408 124.819 55.1943C125.323 55.042 125.897 54.9658 126.542 54.9658C127.356 54.9658 128.06 55.1123 128.651 55.4053C129.243 55.6924 129.697 56.0938 130.014 56.6094C130.336 57.125 130.497 57.7256 130.497 58.4111C130.497 59.1025 130.359 59.7412 130.084 60.3271C129.809 60.9131 129.416 61.4932 128.906 62.0674C128.396 62.6357 127.79 63.2539 127.087 63.9219L124.863 66.0928V66.1895H130.945V68ZM138.205 58.0859C139.359 58.0859 140.285 58.5078 140.982 59.3516C141.686 60.1953 142.037 61.4492 142.037 63.1133C142.037 64.2148 141.873 65.1436 141.545 65.8994C141.223 66.6494 140.769 67.2178 140.183 67.6045C139.603 67.9854 138.926 68.1758 138.152 68.1758C137.66 68.1758 137.232 68.1113 136.869 67.9824C136.506 67.8535 136.195 67.6865 135.938 67.4814C135.68 67.2705 135.463 67.042 135.287 66.7959H135.164C135.193 67.0303 135.22 67.291 135.243 67.5781C135.272 67.8594 135.287 68.1172 135.287 68.3516V72.3154H133.213V58.2705H134.9L135.19 59.6152H135.287C135.469 59.3398 135.688 59.085 135.946 58.8506C136.21 58.6162 136.526 58.4316 136.896 58.2969C137.271 58.1562 137.707 58.0859 138.205 58.0859ZM137.651 59.7734C137.083 59.7734 136.626 59.8877 136.28 60.1162C135.94 60.3389 135.691 60.6758 135.533 61.127C135.381 61.5781 135.299 62.1436 135.287 62.8232V63.1133C135.287 63.834 135.36 64.4463 135.507 64.9502C135.659 65.4482 135.908 65.8291 136.254 66.0928C136.605 66.3506 137.08 66.4795 137.678 66.4795C138.182 66.4795 138.598 66.3418 138.926 66.0664C139.26 65.791 139.509 65.3984 139.673 64.8887C139.837 64.3789 139.919 63.7783 139.919 63.0869C139.919 62.0381 139.731 61.2236 139.356 60.6436C138.987 60.0635 138.419 59.7734 137.651 59.7734ZM146.581 63.0254L143.329 58.2705H145.685L147.908 61.6895L150.141 58.2705H152.487L149.218 63.0254L152.654 68H150.29L147.908 64.3525L145.518 68H143.171L146.581 63.0254Z" fill="#2A2F39"/>
<path d="M214.669 28.8257V25.29C214.669 25.0192 214.614 24.7843 214.504 24.5854C214.398 24.3823 214.237 24.2257 214.021 24.1157C213.806 24.0057 213.539 23.9507 213.222 23.9507C212.925 23.9507 212.665 24.0015 212.441 24.103C212.221 24.2046 212.047 24.3379 211.92 24.5029C211.798 24.668 211.736 24.8457 211.736 25.0361H210.562C210.562 24.7907 210.625 24.5474 210.752 24.3062C210.879 24.0649 211.061 23.847 211.298 23.6523C211.54 23.4535 211.827 23.2969 212.162 23.1826C212.5 23.0641 212.877 23.0049 213.292 23.0049C213.791 23.0049 214.231 23.0895 214.612 23.2588C214.997 23.4281 215.297 23.6841 215.513 24.0269C215.733 24.3654 215.843 24.7907 215.843 25.3027V28.502C215.843 28.7305 215.862 28.9738 215.9 29.2319C215.943 29.4901 216.004 29.7122 216.084 29.8984V30H214.859C214.8 29.8646 214.754 29.6847 214.72 29.4604C214.686 29.2319 214.669 29.0203 214.669 28.8257ZM214.872 25.8359L214.885 26.6611H213.698C213.363 26.6611 213.065 26.6886 212.803 26.7437C212.54 26.7944 212.32 26.8727 212.143 26.9785C211.965 27.0843 211.829 27.2176 211.736 27.3784C211.643 27.535 211.597 27.7191 211.597 27.9307C211.597 28.1465 211.645 28.3433 211.743 28.521C211.84 28.6987 211.986 28.8405 212.181 28.9463C212.38 29.0479 212.623 29.0986 212.911 29.0986C213.27 29.0986 213.588 29.0225 213.863 28.8701C214.138 28.7178 214.356 28.5316 214.517 28.3115C214.682 28.0915 214.771 27.8778 214.783 27.6704L215.285 28.2354C215.255 28.4131 215.175 28.6099 215.043 28.8257C214.912 29.0415 214.737 29.2489 214.517 29.4478C214.301 29.6424 214.043 29.8053 213.742 29.9365C213.446 30.0635 213.112 30.127 212.739 30.127C212.274 30.127 211.865 30.036 211.514 29.854C211.167 29.672 210.896 29.4287 210.702 29.124C210.511 28.8151 210.416 28.4702 210.416 28.0894C210.416 27.7212 210.488 27.3975 210.632 27.1182C210.776 26.8346 210.983 26.5998 211.254 26.4136C211.525 26.2231 211.851 26.0793 212.231 25.9819C212.612 25.8846 213.038 25.8359 213.507 25.8359H214.872ZM221.29 21.5767L218.23 30H216.979L220.502 20.7578H221.309L221.29 21.5767ZM223.854 30L220.788 21.5767L220.769 20.7578H221.575L225.111 30H223.854ZM223.695 26.5786V27.5815H218.503V26.5786H223.695ZM231.399 19.717L230.32 19.678C230.32 19.847 230.307 20.081 230.281 20.315C230.164 21.433 229.904 23.539 229.904 25.32C229.904 26.971 230.255 28.817 230.632 29.974L231.581 29.688C231.178 28.466 230.814 26.906 230.814 25.216C230.814 23.435 231.035 21.381 231.256 20.289C231.295 20.107 231.347 19.873 231.399 19.717ZM229.306 21.316C228.747 21.316 227.616 21.238 227.161 21.16L227.187 22.135C227.72 22.161 228.734 22.213 229.293 22.213C231.23 22.213 233.791 22.018 235.663 21.693L235.65 20.731C233.856 21.134 231.594 21.316 229.306 21.316ZM234.727 22.85L233.687 22.59C233.674 22.798 233.609 23.149 233.557 23.344C232.959 25.45 231.893 26.854 230.736 27.868C229.904 28.596 229.059 28.96 228.409 28.96C227.928 28.96 227.668 28.7 227.668 28.167C227.668 26.971 228.838 25.541 230.307 24.891C230.97 24.592 231.932 24.28 233.024 24.28C234.961 24.28 236.027 25.385 236.027 26.646C236.027 28.323 234.571 29.532 232.231 29.792L232.79 30.663C235.806 30.182 237.041 28.557 237.041 26.698C237.041 24.878 235.494 23.448 233.037 23.448C232.192 23.448 231.139 23.643 230.268 23.981C228.344 24.722 226.693 26.555 226.693 28.336C226.693 29.441 227.369 29.961 228.227 29.961C229.15 29.961 230.19 29.48 231.022 28.843C232.387 27.79 233.687 25.983 234.454 23.578C234.532 23.37 234.649 23.019 234.727 22.85Z" fill="#2A2F39"/>
<path d="M210.017 68H207.942V59.7295C207.942 59.4541 207.945 59.1787 207.951 58.9033C207.957 58.6279 207.963 58.3584 207.969 58.0947C207.98 57.8311 207.995 57.5791 208.013 57.3389C207.89 57.4736 207.737 57.6201 207.556 57.7783C207.38 57.9365 207.192 58.1006 206.993 58.2705L205.517 59.4482L204.479 58.1387L208.294 55.1504H210.017V68ZM222.453 58.0859C222.453 58.666 222.336 59.1699 222.102 59.5977C221.867 60.0254 221.545 60.377 221.135 60.6523C220.73 60.9219 220.262 61.1152 219.729 61.2324V61.2939C220.754 61.4229 221.527 61.7451 222.049 62.2607C222.576 62.7764 222.84 63.459 222.84 64.3086C222.84 65.0527 222.661 65.7178 222.304 66.3037C221.946 66.8838 221.398 67.3408 220.66 67.6748C219.922 68.0088 218.973 68.1758 217.812 68.1758C217.115 68.1758 216.468 68.1201 215.87 68.0088C215.278 67.8975 214.716 67.7188 214.183 67.4727V65.6357C214.728 65.9053 215.308 66.1133 215.923 66.2598C216.538 66.4062 217.121 66.4795 217.672 66.4795C218.744 66.4795 219.509 66.2803 219.966 65.8818C220.423 65.4775 220.651 64.9209 220.651 64.2119C220.651 63.7549 220.531 63.3799 220.291 63.0869C220.057 62.7939 219.69 62.5742 219.192 62.4277C218.7 62.2812 218.064 62.208 217.285 62.208H216.151V60.5469H217.294C218.038 60.5469 218.636 60.459 219.087 60.2832C219.538 60.1016 219.863 59.8525 220.062 59.5361C220.268 59.2197 220.37 58.8506 220.37 58.4287C220.37 57.8779 220.191 57.4502 219.834 57.1455C219.477 56.835 218.946 56.6797 218.243 56.6797C217.81 56.6797 217.414 56.7295 217.057 56.8291C216.705 56.9287 216.38 57.0547 216.081 57.207C215.782 57.3594 215.498 57.5234 215.229 57.6992L214.235 56.2666C214.722 55.9033 215.302 55.5957 215.976 55.3438C216.649 55.0918 217.435 54.9658 218.331 54.9658C219.649 54.9658 220.666 55.25 221.381 55.8184C222.096 56.3809 222.453 57.1367 222.453 58.0859ZM230.205 58.0859C231.359 58.0859 232.285 58.5078 232.982 59.3516C233.686 60.1953 234.037 61.4492 234.037 63.1133C234.037 64.2148 233.873 65.1436 233.545 65.8994C233.223 66.6494 232.769 67.2178 232.183 67.6045C231.603 67.9854 230.926 68.1758 230.152 68.1758C229.66 68.1758 229.232 68.1113 228.869 67.9824C228.506 67.8535 228.195 67.6865 227.938 67.4814C227.68 67.2705 227.463 67.042 227.287 66.7959H227.164C227.193 67.0303 227.22 67.291 227.243 67.5781C227.272 67.8594 227.287 68.1172 227.287 68.3516V72.3154H225.213V58.2705H226.9L227.19 59.6152H227.287C227.469 59.3398 227.688 59.085 227.946 58.8506C228.21 58.6162 228.526 58.4316 228.896 58.2969C229.271 58.1562 229.707 58.0859 230.205 58.0859ZM229.651 59.7734C229.083 59.7734 228.626 59.8877 228.28 60.1162C227.94 60.3389 227.691 60.6758 227.533 61.127C227.381 61.5781 227.299 62.1436 227.287 62.8232V63.1133C227.287 63.834 227.36 64.4463 227.507 64.9502C227.659 65.4482 227.908 65.8291 228.254 66.0928C228.605 66.3506 229.08 66.4795 229.678 66.4795C230.182 66.4795 230.598 66.3418 230.926 66.0664C231.26 65.791 231.509 65.3984 231.673 64.8887C231.837 64.3789 231.919 63.7783 231.919 63.0869C231.919 62.0381 231.731 61.2236 231.356 60.6436C230.987 60.0635 230.419 59.7734 229.651 59.7734ZM238.581 63.0254L235.329 58.2705H237.685L239.908 61.6895L242.141 58.2705H244.487L241.218 63.0254L244.654 68H242.29L239.908 64.3525L237.518 68H235.171L238.581 63.0254Z" fill="#2A2F39"/>
<path d="M305.951 28.7354V24.9277C305.951 24.6361 305.892 24.3831 305.773 24.1689C305.66 23.9502 305.486 23.7816 305.254 23.6631C305.021 23.5446 304.734 23.4854 304.393 23.4854C304.074 23.4854 303.793 23.54 303.552 23.6494C303.315 23.7588 303.128 23.9023 302.991 24.0801C302.859 24.2578 302.793 24.4492 302.793 24.6543H301.528C301.528 24.39 301.597 24.1279 301.733 23.8682C301.87 23.6084 302.066 23.3737 302.321 23.1641C302.581 22.9499 302.891 22.7812 303.251 22.6582C303.616 22.5306 304.021 22.4668 304.468 22.4668C305.006 22.4668 305.479 22.5579 305.89 22.7402C306.304 22.9225 306.628 23.1982 306.86 23.5674C307.097 23.932 307.216 24.39 307.216 24.9414V28.3867C307.216 28.6328 307.236 28.8949 307.277 29.1729C307.323 29.4508 307.389 29.6901 307.476 29.8906V30H306.156C306.092 29.8542 306.042 29.6605 306.006 29.4189C305.969 29.1729 305.951 28.945 305.951 28.7354ZM306.17 25.5156L306.184 26.4043H304.905C304.545 26.4043 304.224 26.4339 303.941 26.4932C303.659 26.5479 303.422 26.6322 303.23 26.7461C303.039 26.86 302.893 27.0036 302.793 27.1768C302.693 27.3454 302.643 27.5436 302.643 27.7715C302.643 28.0039 302.695 28.2158 302.8 28.4072C302.905 28.5986 303.062 28.7513 303.271 28.8652C303.486 28.9746 303.748 29.0293 304.058 29.0293C304.445 29.0293 304.787 28.9473 305.083 28.7832C305.379 28.6191 305.614 28.4186 305.787 28.1816C305.965 27.9447 306.061 27.7145 306.074 27.4912L306.614 28.0996C306.582 28.291 306.496 28.5029 306.354 28.7354C306.213 28.9678 306.024 29.1911 305.787 29.4053C305.555 29.6149 305.277 29.7904 304.953 29.9316C304.634 30.0684 304.274 30.1367 303.873 30.1367C303.372 30.1367 302.932 30.0387 302.554 29.8428C302.18 29.6468 301.888 29.3848 301.679 29.0566C301.474 28.724 301.371 28.3525 301.371 27.9424C301.371 27.5459 301.449 27.1973 301.604 26.8965C301.758 26.5911 301.982 26.3382 302.273 26.1377C302.565 25.9326 302.916 25.7777 303.326 25.6729C303.736 25.568 304.194 25.5156 304.7 25.5156H306.17ZM313.081 20.9287L309.786 30H308.439L312.233 20.0469H313.102L313.081 20.9287ZM315.843 30L312.541 20.9287L312.521 20.0469H313.389L317.196 30H315.843ZM315.672 26.3154V27.3955H310.08V26.3154H315.672ZM323.968 18.926L322.806 18.884C322.806 19.066 322.792 19.318 322.764 19.57C322.638 20.774 322.358 23.042 322.358 24.96C322.358 26.738 322.736 28.726 323.142 29.972L324.164 29.664C323.73 28.348 323.338 26.668 323.338 24.848C323.338 22.93 323.576 20.718 323.814 19.542C323.856 19.346 323.912 19.094 323.968 18.926ZM321.714 20.648C321.112 20.648 319.894 20.564 319.404 20.48L319.432 21.53C320.006 21.558 321.098 21.614 321.7 21.614C323.786 21.614 326.544 21.404 328.56 21.054L328.546 20.018C326.614 20.452 324.178 20.648 321.714 20.648ZM327.552 22.3L326.432 22.02C326.418 22.244 326.348 22.622 326.292 22.832C325.648 25.1 324.5 26.612 323.254 27.704C322.358 28.488 321.448 28.88 320.748 28.88C320.23 28.88 319.95 28.6 319.95 28.026C319.95 26.738 321.21 25.198 322.792 24.498C323.506 24.176 324.542 23.84 325.718 23.84C327.804 23.84 328.952 25.03 328.952 26.388C328.952 28.194 327.384 29.496 324.864 29.776L325.466 30.714C328.714 30.196 330.044 28.446 330.044 26.444C330.044 24.484 328.378 22.944 325.732 22.944C324.822 22.944 323.688 23.154 322.75 23.518C320.678 24.316 318.9 26.29 318.9 28.208C318.9 29.398 319.628 29.958 320.552 29.958C321.546 29.958 322.666 29.44 323.562 28.754C325.032 27.62 326.432 25.674 327.258 23.084C327.342 22.86 327.468 22.482 327.552 22.3Z" fill="#2A2F39"/>
<path d="M302.017 68H299.942V59.7295C299.942 59.4541 299.945 59.1787 299.951 58.9033C299.957 58.6279 299.963 58.3584 299.969 58.0947C299.98 57.8311 299.995 57.5791 300.013 57.3389C299.89 57.4736 299.737 57.6201 299.556 57.7783C299.38 57.9365 299.192 58.1006 298.993 58.2705L297.517 59.4482L296.479 58.1387L300.294 55.1504H302.017V68ZM315.411 65.1787H313.671V68H311.632V65.1787H305.787V63.6143L311.658 55.1152H313.671V63.4648H315.411V65.1787ZM311.632 63.4648V60.2744C311.632 60.0107 311.635 59.7441 311.641 59.4746C311.652 59.1992 311.664 58.9355 311.676 58.6836C311.688 58.4316 311.699 58.2002 311.711 57.9893C311.723 57.7725 311.731 57.5938 311.737 57.4531H311.667C311.556 57.6875 311.433 57.9277 311.298 58.1738C311.163 58.4141 311.02 58.6484 310.867 58.877L307.703 63.4648H311.632ZM322.205 58.0859C323.359 58.0859 324.285 58.5078 324.982 59.3516C325.686 60.1953 326.037 61.4492 326.037 63.1133C326.037 64.2148 325.873 65.1436 325.545 65.8994C325.223 66.6494 324.769 67.2178 324.183 67.6045C323.603 67.9854 322.926 68.1758 322.152 68.1758C321.66 68.1758 321.232 68.1113 320.869 67.9824C320.506 67.8535 320.195 67.6865 319.938 67.4814C319.68 67.2705 319.463 67.042 319.287 66.7959H319.164C319.193 67.0303 319.22 67.291 319.243 67.5781C319.272 67.8594 319.287 68.1172 319.287 68.3516V72.3154H317.213V58.2705H318.9L319.19 59.6152H319.287C319.469 59.3398 319.688 59.085 319.946 58.8506C320.21 58.6162 320.526 58.4316 320.896 58.2969C321.271 58.1562 321.707 58.0859 322.205 58.0859ZM321.651 59.7734C321.083 59.7734 320.626 59.8877 320.28 60.1162C319.94 60.3389 319.691 60.6758 319.533 61.127C319.381 61.5781 319.299 62.1436 319.287 62.8232V63.1133C319.287 63.834 319.36 64.4463 319.507 64.9502C319.659 65.4482 319.908 65.8291 320.254 66.0928C320.605 66.3506 321.08 66.4795 321.678 66.4795C322.182 66.4795 322.598 66.3418 322.926 66.0664C323.26 65.791 323.509 65.3984 323.673 64.8887C323.837 64.3789 323.919 63.7783 323.919 63.0869C323.919 62.0381 323.731 61.2236 323.356 60.6436C322.987 60.0635 322.419 59.7734 321.651 59.7734ZM330.581 63.0254L327.329 58.2705H329.685L331.908 61.6895L334.141 58.2705H336.487L333.218 63.0254L336.654 68H334.29L331.908 64.3525L329.518 68H327.171L330.581 63.0254Z" fill="#2A2F39"/>
<path d="M396.516 27.5547V23.2031C396.516 22.8698 396.448 22.5807 396.312 22.3359C396.182 22.0859 395.984 21.8932 395.719 21.7578C395.453 21.6224 395.125 21.5547 394.734 21.5547C394.37 21.5547 394.049 21.6172 393.773 21.7422C393.503 21.8672 393.289 22.0312 393.133 22.2344C392.982 22.4375 392.906 22.6562 392.906 22.8906H391.461C391.461 22.5885 391.539 22.2891 391.695 21.9922C391.852 21.6953 392.076 21.4271 392.367 21.1875C392.664 20.9427 393.018 20.75 393.43 20.6094C393.846 20.4635 394.31 20.3906 394.82 20.3906C395.435 20.3906 395.977 20.4948 396.445 20.7031C396.919 20.9115 397.289 21.2266 397.555 21.6484C397.826 22.0651 397.961 22.5885 397.961 23.2188V27.1562C397.961 27.4375 397.984 27.737 398.031 28.0547C398.083 28.3724 398.159 28.6458 398.258 28.875V29H396.75C396.677 28.8333 396.62 28.612 396.578 28.3359C396.536 28.0547 396.516 27.7943 396.516 27.5547ZM396.766 23.875L396.781 24.8906H395.32C394.909 24.8906 394.542 24.9245 394.219 24.9922C393.896 25.0547 393.625 25.151 393.406 25.2812C393.188 25.4115 393.021 25.5755 392.906 25.7734C392.792 25.9661 392.734 26.1927 392.734 26.4531C392.734 26.7188 392.794 26.9609 392.914 27.1797C393.034 27.3984 393.214 27.5729 393.453 27.7031C393.698 27.8281 393.997 27.8906 394.352 27.8906C394.794 27.8906 395.185 27.7969 395.523 27.6094C395.862 27.4219 396.13 27.1927 396.328 26.9219C396.531 26.651 396.641 26.388 396.656 26.1328L397.273 26.8281C397.237 27.0469 397.138 27.2891 396.977 27.5547C396.815 27.8203 396.599 28.0755 396.328 28.3203C396.062 28.5599 395.745 28.7604 395.375 28.9219C395.01 29.0781 394.599 29.1562 394.141 29.1562C393.568 29.1562 393.065 29.0443 392.633 28.8203C392.206 28.5964 391.872 28.2969 391.633 27.9219C391.398 27.5417 391.281 27.1172 391.281 26.6484C391.281 26.1953 391.37 25.7969 391.547 25.4531C391.724 25.1042 391.979 24.8151 392.312 24.5859C392.646 24.3516 393.047 24.1745 393.516 24.0547C393.984 23.9349 394.508 23.875 395.086 23.875H396.766ZM404.664 18.6328L400.898 29H399.359L403.695 17.625H404.688L404.664 18.6328ZM407.82 29L404.047 18.6328L404.023 17.625H405.016L409.367 29H407.82ZM407.625 24.7891V26.0234H401.234V24.7891H407.625ZM417.106 16.344L415.778 16.296C415.778 16.504 415.762 16.792 415.73 17.08C415.586 18.456 415.266 21.048 415.266 23.24C415.266 25.272 415.698 27.544 416.162 28.968L417.33 28.616C416.834 27.112 416.386 25.192 416.386 23.112C416.386 20.92 416.658 18.392 416.93 17.048C416.978 16.824 417.042 16.536 417.106 16.344ZM414.53 18.312C413.842 18.312 412.45 18.216 411.89 18.12L411.922 19.32C412.578 19.352 413.826 19.416 414.514 19.416C416.898 19.416 420.05 19.176 422.354 18.776L422.338 17.592C420.13 18.088 417.346 18.312 414.53 18.312ZM421.202 20.2L419.922 19.88C419.906 20.136 419.826 20.568 419.762 20.808C419.026 23.4 417.714 25.128 416.29 26.376C415.266 27.272 414.226 27.72 413.426 27.72C412.834 27.72 412.514 27.4 412.514 26.744C412.514 25.272 413.954 23.512 415.762 22.712C416.578 22.344 417.762 21.96 419.106 21.96C421.49 21.96 422.802 23.32 422.802 24.872C422.802 26.936 421.01 28.424 418.13 28.744L418.818 29.816C422.53 29.224 424.05 27.224 424.05 24.936C424.05 22.696 422.146 20.936 419.122 20.936C418.082 20.936 416.786 21.176 415.714 21.592C413.346 22.504 411.314 24.76 411.314 26.952C411.314 28.312 412.146 28.952 413.202 28.952C414.338 28.952 415.618 28.36 416.642 27.576C418.322 26.28 419.922 24.056 420.866 21.096C420.962 20.84 421.106 20.408 421.202 20.2Z" fill="#2A2F39"/>
<path d="M394.017 68H391.942V59.7295C391.942 59.4541 391.945 59.1787 391.951 58.9033C391.957 58.6279 391.963 58.3584 391.969 58.0947C391.98 57.8311 391.995 57.5791 392.013 57.3389C391.89 57.4736 391.737 57.6201 391.556 57.7783C391.38 57.9365 391.192 58.1006 390.993 58.2705L389.517 59.4482L388.479 58.1387L392.294 55.1504H394.017V68ZM398.262 62.5244C398.262 61.7686 398.314 61.0244 398.42 60.292C398.531 59.5596 398.719 58.874 398.982 58.2354C399.246 57.5967 399.609 57.0342 400.072 56.5479C400.541 56.0615 401.13 55.6807 401.839 55.4053C402.548 55.124 403.4 54.9834 404.396 54.9834C404.654 54.9834 404.944 54.9951 405.267 55.0186C405.589 55.042 405.855 55.0801 406.066 55.1328V56.8467C405.838 56.7822 405.586 56.7324 405.311 56.6973C405.041 56.6621 404.771 56.6445 404.502 56.6445C403.424 56.6445 402.583 56.8496 401.979 57.2598C401.376 57.6641 400.945 58.2207 400.688 58.9297C400.43 59.6328 400.28 60.4385 400.239 61.3467H400.345C400.521 61.0537 400.74 60.793 401.004 60.5645C401.268 60.3359 401.59 60.1543 401.971 60.0195C402.352 59.8789 402.794 59.8086 403.298 59.8086C404.048 59.8086 404.701 59.9668 405.258 60.2832C405.814 60.5938 406.242 61.0449 406.541 61.6367C406.846 62.2285 406.998 62.9463 406.998 63.79C406.998 64.6982 406.825 65.4805 406.479 66.1367C406.14 66.793 405.653 67.2969 405.021 67.6484C404.394 68 403.646 68.1758 402.779 68.1758C402.141 68.1758 401.546 68.0586 400.995 67.8242C400.45 67.5898 399.973 67.2383 399.562 66.7695C399.152 66.3008 398.833 65.7148 398.604 65.0117C398.376 64.3027 398.262 63.4736 398.262 62.5244ZM402.744 66.4707C403.412 66.4707 403.948 66.2539 404.353 65.8203C404.763 65.3809 404.968 64.71 404.968 63.8076C404.968 63.0752 404.786 62.4951 404.423 62.0674C404.065 61.6396 403.526 61.4258 402.806 61.4258C402.313 61.4258 401.883 61.5312 401.514 61.7422C401.145 61.9531 400.857 62.2197 400.652 62.542C400.453 62.8643 400.354 63.1924 400.354 63.5264C400.354 63.8662 400.403 64.209 400.503 64.5547C400.603 64.9004 400.752 65.2197 400.951 65.5127C401.15 65.7998 401.399 66.0312 401.698 66.207C401.997 66.3828 402.346 66.4707 402.744 66.4707ZM414.205 58.0859C415.359 58.0859 416.285 58.5078 416.982 59.3516C417.686 60.1953 418.037 61.4492 418.037 63.1133C418.037 64.2148 417.873 65.1436 417.545 65.8994C417.223 66.6494 416.769 67.2178 416.183 67.6045C415.603 67.9854 414.926 68.1758 414.152 68.1758C413.66 68.1758 413.232 68.1113 412.869 67.9824C412.506 67.8535 412.195 67.6865 411.938 67.4814C411.68 67.2705 411.463 67.042 411.287 66.7959H411.164C411.193 67.0303 411.22 67.291 411.243 67.5781C411.272 67.8594 411.287 68.1172 411.287 68.3516V72.3154H409.213V58.2705H410.9L411.19 59.6152H411.287C411.469 59.3398 411.688 59.085 411.946 58.8506C412.21 58.6162 412.526 58.4316 412.896 58.2969C413.271 58.1562 413.707 58.0859 414.205 58.0859ZM413.651 59.7734C413.083 59.7734 412.626 59.8877 412.28 60.1162C411.94 60.3389 411.691 60.6758 411.533 61.127C411.381 61.5781 411.299 62.1436 411.287 62.8232V63.1133C411.287 63.834 411.36 64.4463 411.507 64.9502C411.659 65.4482 411.908 65.8291 412.254 66.0928C412.605 66.3506 413.08 66.4795 413.678 66.4795C414.182 66.4795 414.598 66.3418 414.926 66.0664C415.26 65.791 415.509 65.3984 415.673 64.8887C415.837 64.3789 415.919 63.7783 415.919 63.0869C415.919 62.0381 415.731 61.2236 415.356 60.6436C414.987 60.0635 414.419 59.7734 413.651 59.7734ZM422.581 63.0254L419.329 58.2705H421.685L423.908 61.6895L426.141 58.2705H428.487L425.218 63.0254L428.654 68H426.29L423.908 64.3525L421.518 68H419.171L422.581 63.0254Z" fill="#2A2F39"/>
<path d="M487.08 27.374V22.4785C487.08 22.1035 487.004 21.7783 486.852 21.5029C486.705 21.2217 486.482 21.0049 486.184 20.8525C485.885 20.7002 485.516 20.624 485.076 20.624C484.666 20.624 484.306 20.6943 483.995 20.835C483.69 20.9756 483.45 21.1602 483.274 21.3887C483.104 21.6172 483.02 21.8633 483.02 22.127H481.394C481.394 21.7871 481.481 21.4502 481.657 21.1162C481.833 20.7822 482.085 20.4805 482.413 20.2109C482.747 19.9355 483.146 19.7188 483.608 19.5605C484.077 19.3965 484.599 19.3145 485.173 19.3145C485.864 19.3145 486.474 19.4316 487.001 19.666C487.534 19.9004 487.95 20.2549 488.249 20.7295C488.554 21.1982 488.706 21.7871 488.706 22.4961V26.9258C488.706 27.2422 488.732 27.5791 488.785 27.9365C488.844 28.2939 488.929 28.6016 489.04 28.8594V29H487.344C487.262 28.8125 487.197 28.5635 487.15 28.2529C487.104 27.9365 487.08 27.6436 487.08 27.374ZM487.361 23.2344L487.379 24.377H485.735C485.272 24.377 484.859 24.415 484.496 24.4912C484.133 24.5615 483.828 24.6699 483.582 24.8164C483.336 24.9629 483.148 25.1475 483.02 25.3701C482.891 25.5869 482.826 25.8418 482.826 26.1348C482.826 26.4336 482.894 26.7061 483.028 26.9521C483.163 27.1982 483.365 27.3945 483.635 27.541C483.91 27.6816 484.247 27.752 484.646 27.752C485.144 27.752 485.583 27.6465 485.964 27.4355C486.345 27.2246 486.646 26.9668 486.869 26.6621C487.098 26.3574 487.221 26.0615 487.238 25.7744L487.933 26.5566C487.892 26.8027 487.78 27.0752 487.599 27.374C487.417 27.6729 487.174 27.96 486.869 28.2354C486.57 28.5049 486.213 28.7305 485.797 28.9121C485.387 29.0879 484.924 29.1758 484.408 29.1758C483.764 29.1758 483.198 29.0498 482.712 28.7979C482.231 28.5459 481.856 28.209 481.587 27.7871C481.323 27.3594 481.191 26.8818 481.191 26.3545C481.191 25.8447 481.291 25.3965 481.49 25.0098C481.689 24.6172 481.977 24.292 482.352 24.0342C482.727 23.7705 483.178 23.5713 483.705 23.4365C484.232 23.3018 484.821 23.2344 485.472 23.2344H487.361ZM496.247 17.3369L492.011 29H490.279L495.157 16.2031H496.273L496.247 17.3369ZM499.798 29L495.553 17.3369L495.526 16.2031H496.643L501.538 29H499.798ZM499.578 24.2627V25.6514H492.389V24.2627H499.578ZM510.245 14.762L508.751 14.708C508.751 14.942 508.733 15.266 508.697 15.59C508.535 17.138 508.175 20.054 508.175 22.52C508.175 24.806 508.661 27.362 509.183 28.964L510.497 28.568C509.939 26.876 509.435 24.716 509.435 22.376C509.435 19.91 509.741 17.066 510.047 15.554C510.101 15.302 510.173 14.978 510.245 14.762ZM507.347 16.976C506.573 16.976 505.007 16.868 504.377 16.76L504.413 18.11C505.151 18.146 506.555 18.218 507.329 18.218C510.011 18.218 513.557 17.948 516.149 17.498L516.131 16.166C513.647 16.724 510.515 16.976 507.347 16.976ZM514.853 19.1L513.413 18.74C513.395 19.028 513.305 19.514 513.233 19.784C512.405 22.7 510.929 24.644 509.327 26.048C508.175 27.056 507.005 27.56 506.105 27.56C505.439 27.56 505.079 27.2 505.079 26.462C505.079 24.806 506.699 22.826 508.733 21.926C509.651 21.512 510.983 21.08 512.495 21.08C515.177 21.08 516.653 22.61 516.653 24.356C516.653 26.678 514.637 28.352 511.397 28.712L512.171 29.918C516.347 29.252 518.057 27.002 518.057 24.428C518.057 21.908 515.915 19.928 512.513 19.928C511.343 19.928 509.885 20.198 508.679 20.666C506.015 21.692 503.729 24.23 503.729 26.696C503.729 28.226 504.665 28.946 505.853 28.946C507.131 28.946 508.571 28.28 509.723 27.398C511.613 25.94 513.413 23.438 514.475 20.108C514.583 19.82 514.745 19.334 514.853 19.1Z" fill="#2A2F39"/>
<path d="M486.017 68H483.942V59.7295C483.942 59.4541 483.945 59.1787 483.951 58.9033C483.957 58.6279 483.963 58.3584 483.969 58.0947C483.98 57.8311 483.995 57.5791 484.013 57.3389C483.89 57.4736 483.737 57.6201 483.556 57.7783C483.38 57.9365 483.192 58.1006 482.993 58.2705L481.517 59.4482L480.479 58.1387L484.294 55.1504H486.017V68ZM494.577 54.9746C495.321 54.9746 495.992 55.0918 496.59 55.3262C497.188 55.5547 497.662 55.8975 498.014 56.3545C498.365 56.8115 498.541 57.377 498.541 58.0508C498.541 58.5723 498.433 59.0264 498.216 59.4131C498.005 59.7998 497.718 60.1396 497.354 60.4326C496.991 60.7197 496.584 60.9746 496.133 61.1973C496.637 61.4434 497.1 61.7275 497.521 62.0498C497.949 62.3662 498.292 62.7383 498.55 63.166C498.813 63.5938 498.945 64.0947 498.945 64.6689C498.945 65.3896 498.761 66.0137 498.392 66.541C498.028 67.0625 497.521 67.4668 496.871 67.7539C496.221 68.0352 495.462 68.1758 494.595 68.1758C493.663 68.1758 492.869 68.0381 492.213 67.7627C491.557 67.4873 491.059 67.0947 490.719 66.585C490.379 66.0693 490.209 65.4541 490.209 64.7393C490.209 64.1475 490.326 63.6348 490.561 63.2012C490.795 62.7676 491.108 62.3926 491.501 62.0762C491.899 61.7598 492.336 61.4932 492.811 61.2764C492.406 61.0361 492.037 60.7666 491.703 60.4678C491.369 60.1631 491.103 59.8145 490.903 59.4219C490.71 59.0234 490.613 58.5635 490.613 58.042C490.613 57.374 490.792 56.8145 491.149 56.3633C491.507 55.9062 491.984 55.5605 492.582 55.3262C493.186 55.0918 493.851 54.9746 494.577 54.9746ZM492.178 64.6602C492.178 65.2227 492.377 65.6855 492.775 66.0488C493.174 66.4121 493.769 66.5938 494.56 66.5938C495.345 66.5938 495.942 66.415 496.353 66.0576C496.763 65.7002 496.968 65.2285 496.968 64.6426C496.968 64.2676 496.862 63.9365 496.651 63.6494C496.446 63.3623 496.168 63.1074 495.816 62.8848C495.471 62.6562 495.087 62.4453 494.665 62.252L494.384 62.1377C493.927 62.3311 493.534 62.5508 493.206 62.7969C492.878 63.0371 492.623 63.3096 492.441 63.6143C492.266 63.9189 492.178 64.2676 492.178 64.6602ZM494.56 56.5654C493.991 56.5654 493.522 56.7061 493.153 56.9873C492.79 57.2627 492.608 57.6611 492.608 58.1826C492.608 58.5518 492.696 58.8682 492.872 59.1318C493.054 59.3955 493.297 59.624 493.602 59.8174C493.906 60.0049 494.243 60.1807 494.612 60.3447C494.97 60.1865 495.292 60.0137 495.579 59.8262C495.872 59.6328 496.104 59.4043 496.273 59.1406C496.449 58.8711 496.537 58.5488 496.537 58.1738C496.537 57.6582 496.353 57.2627 495.983 56.9873C495.62 56.7061 495.146 56.5654 494.56 56.5654ZM506.205 58.0859C507.359 58.0859 508.285 58.5078 508.982 59.3516C509.686 60.1953 510.037 61.4492 510.037 63.1133C510.037 64.2148 509.873 65.1436 509.545 65.8994C509.223 66.6494 508.769 67.2178 508.183 67.6045C507.603 67.9854 506.926 68.1758 506.152 68.1758C505.66 68.1758 505.232 68.1113 504.869 67.9824C504.506 67.8535 504.195 67.6865 503.938 67.4814C503.68 67.2705 503.463 67.042 503.287 66.7959H503.164C503.193 67.0303 503.22 67.291 503.243 67.5781C503.272 67.8594 503.287 68.1172 503.287 68.3516V72.3154H501.213V58.2705H502.9L503.19 59.6152H503.287C503.469 59.3398 503.688 59.085 503.946 58.8506C504.21 58.6162 504.526 58.4316 504.896 58.2969C505.271 58.1562 505.707 58.0859 506.205 58.0859ZM505.651 59.7734C505.083 59.7734 504.626 59.8877 504.28 60.1162C503.94 60.3389 503.691 60.6758 503.533 61.127C503.381 61.5781 503.299 62.1436 503.287 62.8232V63.1133C503.287 63.834 503.36 64.4463 503.507 64.9502C503.659 65.4482 503.908 65.8291 504.254 66.0928C504.605 66.3506 505.08 66.4795 505.678 66.4795C506.182 66.4795 506.598 66.3418 506.926 66.0664C507.26 65.791 507.509 65.3984 507.673 64.8887C507.837 64.3789 507.919 63.7783 507.919 63.0869C507.919 62.0381 507.731 61.2236 507.356 60.6436C506.987 60.0635 506.419 59.7734 505.651 59.7734ZM514.581 63.0254L511.329 58.2705H513.685L515.908 61.6895L518.141 58.2705H520.487L517.218 63.0254L520.654 68H518.29L515.908 64.3525L513.518 68H511.171L514.581 63.0254Z" fill="#2A2F39"/>
<path d="M577.645 26.1934V20.7539C577.645 20.3372 577.56 19.9759 577.391 19.6699C577.228 19.3574 576.98 19.1165 576.648 18.9473C576.316 18.778 575.906 18.6934 575.418 18.6934C574.962 18.6934 574.562 18.7715 574.217 18.9277C573.878 19.084 573.611 19.2891 573.416 19.543C573.227 19.7969 573.133 20.0703 573.133 20.3633H571.326C571.326 19.9857 571.424 19.6113 571.619 19.2402C571.814 18.8691 572.094 18.5339 572.459 18.2344C572.83 17.9284 573.273 17.6875 573.787 17.5117C574.308 17.3294 574.887 17.2383 575.525 17.2383C576.294 17.2383 576.971 17.3685 577.557 17.6289C578.149 17.8893 578.611 18.2832 578.943 18.8105C579.282 19.3314 579.451 19.9857 579.451 20.7734V25.6953C579.451 26.0469 579.48 26.4212 579.539 26.8184C579.604 27.2155 579.699 27.5573 579.822 27.8438V28H577.938C577.846 27.7917 577.775 27.515 577.723 27.1699C577.671 26.8184 577.645 26.4928 577.645 26.1934ZM577.957 21.5938L577.977 22.8633H576.15C575.636 22.8633 575.177 22.9056 574.773 22.9902C574.37 23.0684 574.031 23.1888 573.758 23.3516C573.484 23.5143 573.276 23.7194 573.133 23.9668C572.99 24.2077 572.918 24.4909 572.918 24.8164C572.918 25.1484 572.993 25.4512 573.143 25.7246C573.292 25.998 573.517 26.2161 573.816 26.3789C574.122 26.5352 574.497 26.6133 574.939 26.6133C575.493 26.6133 575.981 26.4961 576.404 26.2617C576.827 26.0273 577.163 25.7409 577.41 25.4023C577.664 25.0638 577.801 24.735 577.82 24.416L578.592 25.2852C578.546 25.5586 578.423 25.8613 578.221 26.1934C578.019 26.5254 577.749 26.8444 577.41 27.1504C577.078 27.4499 576.681 27.7005 576.219 27.9023C575.763 28.0977 575.249 28.1953 574.676 28.1953C573.96 28.1953 573.331 28.0553 572.791 27.7754C572.257 27.4954 571.84 27.1211 571.541 26.6523C571.248 26.1771 571.102 25.6465 571.102 25.0605C571.102 24.4941 571.212 23.9961 571.434 23.5664C571.655 23.1302 571.974 22.7689 572.391 22.4824C572.807 22.1895 573.309 21.9681 573.895 21.8184C574.48 21.6686 575.135 21.5938 575.857 21.5938H577.957ZM587.83 15.041L583.123 28H581.199L586.619 13.7812H587.859L587.83 15.041ZM591.775 28L587.059 15.041L587.029 13.7812H588.27L593.709 28H591.775ZM591.531 22.7363V24.2793H583.543V22.7363H591.531ZM603.383 12.18L601.723 12.12C601.723 12.38 601.703 12.74 601.663 13.1C601.483 14.82 601.083 18.06 601.083 20.8C601.083 23.34 601.623 26.18 602.203 27.96L603.663 27.52C603.043 25.64 602.483 23.24 602.483 20.64C602.483 17.9 602.823 14.74 603.163 13.06C603.223 12.78 603.303 12.42 603.383 12.18ZM600.163 14.64C599.303 14.64 597.563 14.52 596.863 14.4L596.903 15.9C597.723 15.94 599.283 16.02 600.143 16.02C603.123 16.02 607.063 15.72 609.943 15.22L609.923 13.74C607.163 14.36 603.683 14.64 600.163 14.64ZM608.503 17L606.903 16.6C606.883 16.92 606.783 17.46 606.703 17.76C605.783 21 604.143 23.16 602.363 24.72C601.083 25.84 599.783 26.4 598.783 26.4C598.043 26.4 597.643 26 597.643 25.18C597.643 23.34 599.443 21.14 601.703 20.14C602.723 19.68 604.203 19.2 605.883 19.2C608.863 19.2 610.503 20.9 610.503 22.84C610.503 25.42 608.263 27.28 604.663 27.68L605.523 29.02C610.163 28.28 612.063 25.78 612.063 22.92C612.063 20.12 609.683 17.92 605.903 17.92C604.603 17.92 602.983 18.22 601.643 18.74C598.683 19.88 596.143 22.7 596.143 25.44C596.143 27.14 597.183 27.94 598.503 27.94C599.923 27.94 601.523 27.2 602.803 26.22C604.903 24.6 606.903 21.82 608.083 18.12C608.203 17.8 608.383 17.26 608.503 17Z" fill="#2A2F39"/>
<path d="M580.645 68H571.943V66.4443L575.274 63.0693C575.919 62.4131 576.449 61.8477 576.865 61.373C577.281 60.8926 577.589 60.4385 577.788 60.0107C577.993 59.583 578.096 59.1172 578.096 58.6133C578.096 57.9922 577.917 57.5234 577.56 57.207C577.202 56.8848 576.73 56.7236 576.145 56.7236C575.588 56.7236 575.072 56.835 574.598 57.0576C574.129 57.2744 573.643 57.585 573.139 57.9893L572.005 56.627C572.362 56.3223 572.743 56.0439 573.147 55.792C573.558 55.54 574.015 55.3408 574.519 55.1943C575.022 55.042 575.597 54.9658 576.241 54.9658C577.056 54.9658 577.759 55.1123 578.351 55.4053C578.942 55.6924 579.396 56.0938 579.713 56.6094C580.035 57.125 580.196 57.7256 580.196 58.4111C580.196 59.1025 580.059 59.7412 579.783 60.3271C579.508 60.9131 579.115 61.4932 578.605 62.0674C578.096 62.6357 577.489 63.2539 576.786 63.9219L574.562 66.0928V66.1895H580.645V68ZM590.945 61.5664C590.945 62.6035 590.863 63.5322 590.699 64.3525C590.541 65.167 590.289 65.8584 589.943 66.4268C589.598 66.9951 589.146 67.4287 588.59 67.7275C588.033 68.0264 587.359 68.1758 586.568 68.1758C585.578 68.1758 584.761 67.915 584.116 67.3936C583.472 66.8662 582.994 66.1104 582.684 65.126C582.373 64.1357 582.218 62.9492 582.218 61.5664C582.218 60.1836 582.358 59 582.64 58.0156C582.927 57.0254 583.39 56.2666 584.028 55.7393C584.667 55.2119 585.514 54.9482 586.568 54.9482C587.564 54.9482 588.385 55.2119 589.029 55.7393C589.68 56.2607 590.16 57.0166 590.471 58.0068C590.787 58.9912 590.945 60.1777 590.945 61.5664ZM584.301 61.5664C584.301 62.6504 584.371 63.5557 584.512 64.2822C584.658 65.0088 584.898 65.5537 585.232 65.917C585.566 66.2744 586.012 66.4531 586.568 66.4531C587.125 66.4531 587.57 66.2744 587.904 65.917C588.238 65.5596 588.479 65.0176 588.625 64.291C588.777 63.5645 588.854 62.6562 588.854 61.5664C588.854 60.4883 588.78 59.5859 588.634 58.8594C588.487 58.1328 588.247 57.5879 587.913 57.2246C587.579 56.8555 587.131 56.6709 586.568 56.6709C586.006 56.6709 585.558 56.8555 585.224 57.2246C584.896 57.5879 584.658 58.1328 584.512 58.8594C584.371 59.5859 584.301 60.4883 584.301 61.5664ZM598.205 58.0859C599.359 58.0859 600.285 58.5078 600.982 59.3516C601.686 60.1953 602.037 61.4492 602.037 63.1133C602.037 64.2148 601.873 65.1436 601.545 65.8994C601.223 66.6494 600.769 67.2178 600.183 67.6045C599.603 67.9854 598.926 68.1758 598.152 68.1758C597.66 68.1758 597.232 68.1113 596.869 67.9824C596.506 67.8535 596.195 67.6865 595.938 67.4814C595.68 67.2705 595.463 67.042 595.287 66.7959H595.164C595.193 67.0303 595.22 67.291 595.243 67.5781C595.272 67.8594 595.287 68.1172 595.287 68.3516V72.3154H593.213V58.2705H594.9L595.19 59.6152H595.287C595.469 59.3398 595.688 59.085 595.946 58.8506C596.21 58.6162 596.526 58.4316 596.896 58.2969C597.271 58.1562 597.707 58.0859 598.205 58.0859ZM597.651 59.7734C597.083 59.7734 596.626 59.8877 596.28 60.1162C595.94 60.3389 595.691 60.6758 595.533 61.127C595.381 61.5781 595.299 62.1436 595.287 62.8232V63.1133C595.287 63.834 595.36 64.4463 595.507 64.9502C595.659 65.4482 595.908 65.8291 596.254 66.0928C596.605 66.3506 597.08 66.4795 597.678 66.4795C598.182 66.4795 598.598 66.3418 598.926 66.0664C599.26 65.791 599.509 65.3984 599.673 64.8887C599.837 64.3789 599.919 63.7783 599.919 63.0869C599.919 62.0381 599.731 61.2236 599.356 60.6436C598.987 60.0635 598.419 59.7734 597.651 59.7734ZM606.581 63.0254L603.329 58.2705H605.685L607.908 61.6895L610.141 58.2705H612.487L609.218 63.0254L612.654 68H610.29L607.908 64.3525L605.518 68H603.171L606.581 63.0254Z" fill="#2A2F39"/>
<path d="M666.773 24.832V18.3047C666.773 17.8047 666.672 17.3711 666.469 17.0039C666.273 16.6289 665.977 16.3398 665.578 16.1367C665.18 15.9336 664.688 15.832 664.102 15.832C663.555 15.832 663.074 15.9258 662.66 16.1133C662.254 16.3008 661.934 16.5469 661.699 16.8516C661.473 17.1562 661.359 17.4844 661.359 17.8359H659.191C659.191 17.3828 659.309 16.9336 659.543 16.4883C659.777 16.043 660.113 15.6406 660.551 15.2812C660.996 14.9141 661.527 14.625 662.145 14.4141C662.77 14.1953 663.465 14.0859 664.23 14.0859C665.152 14.0859 665.965 14.2422 666.668 14.5547C667.379 14.8672 667.934 15.3398 668.332 15.9727C668.738 16.5977 668.941 17.3828 668.941 18.3281V24.2344C668.941 24.6562 668.977 25.1055 669.047 25.582C669.125 26.0586 669.238 26.4688 669.387 26.8125V27H667.125C667.016 26.75 666.93 26.418 666.867 26.0039C666.805 25.582 666.773 25.1914 666.773 24.832ZM667.148 19.3125L667.172 20.8359H664.98C664.363 20.8359 663.812 20.8867 663.328 20.9883C662.844 21.082 662.438 21.2266 662.109 21.4219C661.781 21.6172 661.531 21.8633 661.359 22.1602C661.188 22.4492 661.102 22.7891 661.102 23.1797C661.102 23.5781 661.191 23.9414 661.371 24.2695C661.551 24.5977 661.82 24.8594 662.18 25.0547C662.547 25.2422 662.996 25.3359 663.527 25.3359C664.191 25.3359 664.777 25.1953 665.285 24.9141C665.793 24.6328 666.195 24.2891 666.492 23.8828C666.797 23.4766 666.961 23.082 666.984 22.6992L667.91 23.7422C667.855 24.0703 667.707 24.4336 667.465 24.832C667.223 25.2305 666.898 25.6133 666.492 25.9805C666.094 26.3398 665.617 26.6406 665.062 26.8828C664.516 27.1172 663.898 27.2344 663.211 27.2344C662.352 27.2344 661.598 27.0664 660.949 26.7305C660.309 26.3945 659.809 25.9453 659.449 25.3828C659.098 24.8125 658.922 24.1758 658.922 23.4727C658.922 22.793 659.055 22.1953 659.32 21.6797C659.586 21.1562 659.969 20.7227 660.469 20.3789C660.969 20.0273 661.57 19.7617 662.273 19.582C662.977 19.4023 663.762 19.3125 664.629 19.3125H667.148ZM678.996 11.4492L673.348 27H671.039L677.543 9.9375H679.031L678.996 11.4492ZM683.73 27L678.07 11.4492L678.035 9.9375H679.523L686.051 27H683.73ZM683.438 20.6836V22.5352H673.852V20.6836H683.438ZM697.659 8.016L695.667 7.944C695.667 8.256 695.643 8.688 695.595 9.12C695.379 11.184 694.899 15.072 694.899 18.36C694.899 21.408 695.547 24.816 696.243 26.952L697.995 26.424C697.251 24.168 696.579 21.288 696.579 18.168C696.579 14.88 696.987 11.088 697.395 9.072C697.467 8.736 697.563 8.304 697.659 8.016ZM693.795 10.968C692.763 10.968 690.675 10.824 689.835 10.68L689.883 12.48C690.867 12.528 692.739 12.624 693.771 12.624C697.347 12.624 702.075 12.264 705.531 11.664L705.507 9.888C702.195 10.632 698.019 10.968 693.795 10.968ZM703.803 13.8L701.883 13.32C701.859 13.704 701.739 14.352 701.643 14.712C700.539 18.6 698.571 21.192 696.435 23.064C694.899 24.408 693.339 25.08 692.139 25.08C691.251 25.08 690.771 24.6 690.771 23.616C690.771 21.408 692.931 18.768 695.643 17.568C696.867 17.016 698.643 16.44 700.659 16.44C704.235 16.44 706.203 18.48 706.203 20.808C706.203 23.904 703.515 26.136 699.195 26.616L700.227 28.224C705.795 27.336 708.075 24.336 708.075 20.904C708.075 17.544 705.219 14.904 700.683 14.904C699.123 14.904 697.179 15.264 695.571 15.888C692.019 17.256 688.971 20.64 688.971 23.928C688.971 25.968 690.219 26.928 691.803 26.928C693.507 26.928 695.427 26.04 696.963 24.864C699.483 22.92 701.883 19.584 703.299 15.144C703.443 14.76 703.659 14.112 703.803 13.8Z" fill="#2A2F39"/>
<path d="M672.645 68H663.943V66.4443L667.274 63.0693C667.919 62.4131 668.449 61.8477 668.865 61.373C669.281 60.8926 669.589 60.4385 669.788 60.0107C669.993 59.583 670.096 59.1172 670.096 58.6133C670.096 57.9922 669.917 57.5234 669.56 57.207C669.202 56.8848 668.73 56.7236 668.145 56.7236C667.588 56.7236 667.072 56.835 666.598 57.0576C666.129 57.2744 665.643 57.585 665.139 57.9893L664.005 56.627C664.362 56.3223 664.743 56.0439 665.147 55.792C665.558 55.54 666.015 55.3408 666.519 55.1943C667.022 55.042 667.597 54.9658 668.241 54.9658C669.056 54.9658 669.759 55.1123 670.351 55.4053C670.942 55.6924 671.396 56.0938 671.713 56.6094C672.035 57.125 672.196 57.7256 672.196 58.4111C672.196 59.1025 672.059 59.7412 671.783 60.3271C671.508 60.9131 671.115 61.4932 670.605 62.0674C670.096 62.6357 669.489 63.2539 668.786 63.9219L666.562 66.0928V66.1895H672.645V68ZM683.411 65.1787H681.671V68H679.632V65.1787H673.787V63.6143L679.658 55.1152H681.671V63.4648H683.411V65.1787ZM679.632 63.4648V60.2744C679.632 60.0107 679.635 59.7441 679.641 59.4746C679.652 59.1992 679.664 58.9355 679.676 58.6836C679.688 58.4316 679.699 58.2002 679.711 57.9893C679.723 57.7725 679.731 57.5938 679.737 57.4531H679.667C679.556 57.6875 679.433 57.9277 679.298 58.1738C679.163 58.4141 679.02 58.6484 678.867 58.877L675.703 63.4648H679.632ZM690.205 58.0859C691.359 58.0859 692.285 58.5078 692.982 59.3516C693.686 60.1953 694.037 61.4492 694.037 63.1133C694.037 64.2148 693.873 65.1436 693.545 65.8994C693.223 66.6494 692.769 67.2178 692.183 67.6045C691.603 67.9854 690.926 68.1758 690.152 68.1758C689.66 68.1758 689.232 68.1113 688.869 67.9824C688.506 67.8535 688.195 67.6865 687.938 67.4814C687.68 67.2705 687.463 67.042 687.287 66.7959H687.164C687.193 67.0303 687.22 67.291 687.243 67.5781C687.272 67.8594 687.287 68.1172 687.287 68.3516V72.3154H685.213V58.2705H686.9L687.19 59.6152H687.287C687.469 59.3398 687.688 59.085 687.946 58.8506C688.21 58.6162 688.526 58.4316 688.896 58.2969C689.271 58.1562 689.707 58.0859 690.205 58.0859ZM689.651 59.7734C689.083 59.7734 688.626 59.8877 688.28 60.1162C687.94 60.3389 687.691 60.6758 687.533 61.127C687.381 61.5781 687.299 62.1436 687.287 62.8232V63.1133C687.287 63.834 687.36 64.4463 687.507 64.9502C687.659 65.4482 687.908 65.8291 688.254 66.0928C688.605 66.3506 689.08 66.4795 689.678 66.4795C690.182 66.4795 690.598 66.3418 690.926 66.0664C691.26 65.791 691.509 65.3984 691.673 64.8887C691.837 64.3789 691.919 63.7783 691.919 63.0869C691.919 62.0381 691.731 61.2236 691.356 60.6436C690.987 60.0635 690.419 59.7734 689.651 59.7734ZM698.581 63.0254L695.329 58.2705H697.685L699.908 61.6895L702.141 58.2705H704.487L701.218 63.0254L704.654 68H702.29L699.908 64.3525L697.518 68H695.171L698.581 63.0254Z" fill="#2A2F39"/>
<path d="M755.902 23.4707V15.8555C755.902 15.2721 755.784 14.7663 755.547 14.3379C755.319 13.9004 754.973 13.5632 754.508 13.3262C754.043 13.0892 753.469 12.9707 752.785 12.9707C752.147 12.9707 751.587 13.0801 751.104 13.2988C750.63 13.5176 750.256 13.8047 749.982 14.1602C749.718 14.5156 749.586 14.8984 749.586 15.3086H747.057C747.057 14.7799 747.193 14.2559 747.467 13.7363C747.74 13.2168 748.132 12.7474 748.643 12.3281C749.162 11.8997 749.782 11.5625 750.502 11.3164C751.231 11.0612 752.042 10.9336 752.936 10.9336C754.011 10.9336 754.959 11.1159 755.779 11.4805C756.609 11.8451 757.256 12.3965 757.721 13.1348C758.195 13.8639 758.432 14.7799 758.432 15.8828V22.7734C758.432 23.2656 758.473 23.7897 758.555 24.3457C758.646 24.9017 758.778 25.3802 758.951 25.7812V26H756.312C756.185 25.7083 756.085 25.321 756.012 24.8379C755.939 24.3457 755.902 23.89 755.902 23.4707ZM756.34 17.0312L756.367 18.8086H753.811C753.09 18.8086 752.448 18.8678 751.883 18.9863C751.318 19.0957 750.844 19.2643 750.461 19.4922C750.078 19.7201 749.786 20.0072 749.586 20.3535C749.385 20.6908 749.285 21.0872 749.285 21.543C749.285 22.0078 749.39 22.4316 749.6 22.8145C749.809 23.1973 750.124 23.5026 750.543 23.7305C750.971 23.9492 751.495 24.0586 752.115 24.0586C752.89 24.0586 753.574 23.8945 754.166 23.5664C754.758 23.2383 755.228 22.8372 755.574 22.3633C755.93 21.8893 756.121 21.429 756.148 20.9824L757.229 22.1992C757.165 22.582 756.992 23.0059 756.709 23.4707C756.426 23.9355 756.048 24.3822 755.574 24.8105C755.109 25.2298 754.553 25.5807 753.906 25.8633C753.268 26.1367 752.548 26.2734 751.746 26.2734C750.743 26.2734 749.864 26.0775 749.107 25.6855C748.36 25.2936 747.777 24.7695 747.357 24.1133C746.947 23.4479 746.742 22.7051 746.742 21.8848C746.742 21.0918 746.897 20.3945 747.207 19.793C747.517 19.1823 747.964 18.6764 748.547 18.2754C749.13 17.8652 749.832 17.5553 750.652 17.3457C751.473 17.1361 752.389 17.0312 753.4 17.0312H756.34ZM770.162 7.85742L763.572 26H760.879L768.467 6.09375H770.203L770.162 7.85742ZM775.686 26L769.082 7.85742L769.041 6.09375H770.777L778.393 26H775.686ZM775.344 18.6309V20.791H764.16V18.6309H775.344ZM791.936 3.852L789.612 3.768C789.612 4.132 789.584 4.636 789.528 5.14C789.276 7.548 788.716 12.084 788.716 15.92C788.716 19.476 789.472 23.452 790.284 25.944L792.328 25.328C791.46 22.696 790.676 19.336 790.676 15.696C790.676 11.86 791.152 7.436 791.628 5.084C791.712 4.692 791.824 4.188 791.936 3.852ZM787.428 7.296C786.224 7.296 783.788 7.128 782.808 6.96L782.864 9.06C784.012 9.116 786.196 9.228 787.4 9.228C791.572 9.228 797.088 8.808 801.12 8.108L801.092 6.036C797.228 6.904 792.356 7.296 787.428 7.296ZM799.104 10.6L796.864 10.04C796.836 10.488 796.696 11.244 796.584 11.664C795.296 16.2 793 19.224 790.508 21.408C788.716 22.976 786.896 23.76 785.496 23.76C784.46 23.76 783.9 23.2 783.9 22.052C783.9 19.476 786.42 16.396 789.584 14.996C791.012 14.352 793.084 13.68 795.436 13.68C799.608 13.68 801.904 16.06 801.904 18.776C801.904 22.388 798.768 24.992 793.728 25.552L794.932 27.428C801.428 26.392 804.088 22.892 804.088 18.888C804.088 14.968 800.756 11.888 795.464 11.888C793.644 11.888 791.376 12.308 789.5 13.036C785.356 14.632 781.8 18.58 781.8 22.416C781.8 24.796 783.256 25.916 785.104 25.916C787.092 25.916 789.332 24.88 791.124 23.508C794.064 21.24 796.864 17.348 798.516 12.168C798.684 11.72 798.936 10.964 799.104 10.6Z" fill="#2A2F39"/>
<path d="M764.645 68H755.943V66.4443L759.274 63.0693C759.919 62.4131 760.449 61.8477 760.865 61.373C761.281 60.8926 761.589 60.4385 761.788 60.0107C761.993 59.583 762.096 59.1172 762.096 58.6133C762.096 57.9922 761.917 57.5234 761.56 57.207C761.202 56.8848 760.73 56.7236 760.145 56.7236C759.588 56.7236 759.072 56.835 758.598 57.0576C758.129 57.2744 757.643 57.585 757.139 57.9893L756.005 56.627C756.362 56.3223 756.743 56.0439 757.147 55.792C757.558 55.54 758.015 55.3408 758.519 55.1943C759.022 55.042 759.597 54.9658 760.241 54.9658C761.056 54.9658 761.759 55.1123 762.351 55.4053C762.942 55.6924 763.396 56.0938 763.713 56.6094C764.035 57.125 764.196 57.7256 764.196 58.4111C764.196 59.1025 764.059 59.7412 763.783 60.3271C763.508 60.9131 763.115 61.4932 762.605 62.0674C762.096 62.6357 761.489 63.2539 760.786 63.9219L758.562 66.0928V66.1895H764.645V68ZM770.577 54.9746C771.321 54.9746 771.992 55.0918 772.59 55.3262C773.188 55.5547 773.662 55.8975 774.014 56.3545C774.365 56.8115 774.541 57.377 774.541 58.0508C774.541 58.5723 774.433 59.0264 774.216 59.4131C774.005 59.7998 773.718 60.1396 773.354 60.4326C772.991 60.7197 772.584 60.9746 772.133 61.1973C772.637 61.4434 773.1 61.7275 773.521 62.0498C773.949 62.3662 774.292 62.7383 774.55 63.166C774.813 63.5938 774.945 64.0947 774.945 64.6689C774.945 65.3896 774.761 66.0137 774.392 66.541C774.028 67.0625 773.521 67.4668 772.871 67.7539C772.221 68.0352 771.462 68.1758 770.595 68.1758C769.663 68.1758 768.869 68.0381 768.213 67.7627C767.557 67.4873 767.059 67.0947 766.719 66.585C766.379 66.0693 766.209 65.4541 766.209 64.7393C766.209 64.1475 766.326 63.6348 766.561 63.2012C766.795 62.7676 767.108 62.3926 767.501 62.0762C767.899 61.7598 768.336 61.4932 768.811 61.2764C768.406 61.0361 768.037 60.7666 767.703 60.4678C767.369 60.1631 767.103 59.8145 766.903 59.4219C766.71 59.0234 766.613 58.5635 766.613 58.042C766.613 57.374 766.792 56.8145 767.149 56.3633C767.507 55.9062 767.984 55.5605 768.582 55.3262C769.186 55.0918 769.851 54.9746 770.577 54.9746ZM768.178 64.6602C768.178 65.2227 768.377 65.6855 768.775 66.0488C769.174 66.4121 769.769 66.5938 770.56 66.5938C771.345 66.5938 771.942 66.415 772.353 66.0576C772.763 65.7002 772.968 65.2285 772.968 64.6426C772.968 64.2676 772.862 63.9365 772.651 63.6494C772.446 63.3623 772.168 63.1074 771.816 62.8848C771.471 62.6562 771.087 62.4453 770.665 62.252L770.384 62.1377C769.927 62.3311 769.534 62.5508 769.206 62.7969C768.878 63.0371 768.623 63.3096 768.441 63.6143C768.266 63.9189 768.178 64.2676 768.178 64.6602ZM770.56 56.5654C769.991 56.5654 769.522 56.7061 769.153 56.9873C768.79 57.2627 768.608 57.6611 768.608 58.1826C768.608 58.5518 768.696 58.8682 768.872 59.1318C769.054 59.3955 769.297 59.624 769.602 59.8174C769.906 60.0049 770.243 60.1807 770.612 60.3447C770.97 60.1865 771.292 60.0137 771.579 59.8262C771.872 59.6328 772.104 59.4043 772.273 59.1406C772.449 58.8711 772.537 58.5488 772.537 58.1738C772.537 57.6582 772.353 57.2627 771.983 56.9873C771.62 56.7061 771.146 56.5654 770.56 56.5654ZM782.205 58.0859C783.359 58.0859 784.285 58.5078 784.982 59.3516C785.686 60.1953 786.037 61.4492 786.037 63.1133C786.037 64.2148 785.873 65.1436 785.545 65.8994C785.223 66.6494 784.769 67.2178 784.183 67.6045C783.603 67.9854 782.926 68.1758 782.152 68.1758C781.66 68.1758 781.232 68.1113 780.869 67.9824C780.506 67.8535 780.195 67.6865 779.938 67.4814C779.68 67.2705 779.463 67.042 779.287 66.7959H779.164C779.193 67.0303 779.22 67.291 779.243 67.5781C779.272 67.8594 779.287 68.1172 779.287 68.3516V72.3154H777.213V58.2705H778.9L779.19 59.6152H779.287C779.469 59.3398 779.688 59.085 779.946 58.8506C780.21 58.6162 780.526 58.4316 780.896 58.2969C781.271 58.1562 781.707 58.0859 782.205 58.0859ZM781.651 59.7734C781.083 59.7734 780.626 59.8877 780.28 60.1162C779.94 60.3389 779.691 60.6758 779.533 61.127C779.381 61.5781 779.299 62.1436 779.287 62.8232V63.1133C779.287 63.834 779.36 64.4463 779.507 64.9502C779.659 65.4482 779.908 65.8291 780.254 66.0928C780.605 66.3506 781.08 66.4795 781.678 66.4795C782.182 66.4795 782.598 66.3418 782.926 66.0664C783.26 65.791 783.509 65.3984 783.673 64.8887C783.837 64.3789 783.919 63.7783 783.919 63.0869C783.919 62.0381 783.731 61.2236 783.356 60.6436C782.987 60.0635 782.419 59.7734 781.651 59.7734ZM790.581 63.0254L787.329 58.2705H789.685L791.908 61.6895L794.141 58.2705H796.487L793.218 63.0254L796.654 68H794.29L791.908 64.3525L789.518 68H787.171L790.581 63.0254Z" fill="#2A2F39"/>
</svg>
