<svg width="271" height="204" viewBox="0 0 271 204" fill="none" xmlns="http://www.w3.org/2000/svg">
<path fill-rule="evenodd" clip-rule="evenodd" d="M124.538 94C107.65 94 93.7185 104.596 91.71 118.28C80.638 122.757 72.9999 132.247 72.9999 143.231C72.9999 158.525 87.809 170.923 106.077 170.923C112.341 170.923 118.198 169.465 123.191 166.933C129.251 173.302 138.595 177.385 149.077 177.385C165.942 177.385 179.859 166.818 181.897 153.16C188.709 148.088 193 140.694 193 132.462C193 117.168 178.191 104.769 159.923 104.769C157.02 104.769 154.204 105.082 151.521 105.671C145.526 98.6079 135.675 94 124.538 94Z" fill="url(#paint0_linear_126_486)"/>
<path d="M116.17 140.864L114.634 142.528C113.306 140.896 111.466 139.104 109.722 137.776C107.914 139.792 106.074 141.2 103.626 142.4C103.178 141.568 102.986 141.312 102.33 140.624C103.562 140.144 104.33 139.712 105.53 138.864C107.946 137.168 109.866 134.848 110.906 132.352L111.082 131.936C110.826 131.952 110.826 131.952 105.786 132.032C105.018 132.048 104.586 132.08 104.042 132.16L103.978 130.112C104.426 130.192 104.73 130.208 105.386 130.208C105.45 130.208 105.578 130.208 105.77 130.208L111.402 130.128C112.298 130.112 112.426 130.096 112.826 129.952L113.882 131.04C113.674 131.28 113.546 131.504 113.37 131.904C112.634 133.616 111.85 135.008 110.874 136.32C111.882 136.992 112.746 137.664 113.834 138.64C114.234 138.992 114.234 138.992 116.17 140.864ZM119.318 133.296L121.014 132.8C121.686 134.032 122.006 134.8 122.582 136.592L120.774 137.168C120.358 135.552 120.038 134.704 119.318 133.296ZM122.742 132.624L124.422 132.144C125.27 133.728 125.574 134.432 125.974 135.824L124.198 136.384C123.894 135.168 123.414 133.936 122.742 132.624ZM128.246 132.464L130.198 132.912C130.102 133.152 130.07 133.232 129.974 133.728C129.51 135.904 128.79 137.664 127.766 139.056C126.582 140.672 125.254 141.712 122.886 142.912C122.47 142.208 122.278 141.968 121.606 141.328C122.726 140.896 123.382 140.544 124.326 139.856C126.198 138.496 127.27 136.864 127.958 134.304C128.166 133.52 128.246 132.96 128.246 132.464ZM138.982 132.08L138.742 130.72C138.598 129.936 138.534 129.664 138.358 129.216L140.47 128.88C140.486 129.296 140.55 129.76 140.662 130.384L140.918 131.776L144.294 131.248C145.078 131.12 145.414 131.04 145.83 130.896L146.166 132.816C145.734 132.848 145.734 132.848 144.63 133.024L141.254 133.552L141.734 136.176L145.494 135.584C146.166 135.472 146.726 135.344 147.158 135.216L147.51 137.136C147.174 137.152 147.11 137.152 146.774 137.216C146.678 137.216 146.598 137.232 146.518 137.248C146.406 137.264 146.198 137.296 145.878 137.344L142.07 137.952L142.646 141.056C142.838 142.112 142.854 142.16 143.03 142.704L140.886 143.088C140.87 142.608 140.806 142.16 140.678 141.408L140.102 138.256L136.15 138.88C135.382 139.008 135.094 139.072 134.518 139.232L134.198 137.264C134.742 137.264 135.206 137.216 135.894 137.104L139.782 136.48L139.302 133.856L136.326 134.32C135.59 134.448 134.998 134.56 134.566 134.688L134.246 132.72C134.822 132.704 135.334 132.64 136.006 132.544L138.982 132.08ZM152.022 129.376L154.198 129.392C154.134 129.84 154.134 129.984 154.134 130.832L154.134 135.248C154.134 136.048 154.134 136.256 154.198 136.656L152.006 136.656C152.054 136.288 152.086 135.792 152.086 135.216L152.086 130.816C152.086 130 152.07 129.792 152.022 129.376ZM159.238 129.408L161.462 129.408C161.398 129.808 161.382 129.984 161.382 130.896L161.382 133.056C161.366 135.552 161.254 136.896 160.966 137.904C160.502 139.504 159.478 140.704 157.814 141.632C156.966 142.112 156.166 142.432 154.694 142.864C154.406 142.08 154.246 141.808 153.574 140.96C155.142 140.656 156.07 140.32 157.03 139.68C158.534 138.688 159.062 137.712 159.238 135.6C159.302 134.912 159.318 134.208 159.318 132.928L159.318 130.928C159.318 130.112 159.302 129.776 159.238 129.408Z" fill="#16191F" fill-opacity="0.64"/>
<path opacity="0.9" fill-rule="evenodd" clip-rule="evenodd" d="M219.462 64C236.35 64 250.282 74.5959 252.29 88.28C263.362 92.7568 271 102.247 271 113.231C271 128.525 256.191 140.923 237.923 140.923C232.407 140.923 227.207 139.793 222.634 137.794C216.575 143.49 207.75 147.077 197.923 147.077C182.148 147.077 168.952 137.831 165.644 125.459C156.812 120.487 151 112.042 151 102.462C151 87.1676 165.809 74.7693 184.077 74.7693C186.98 74.7693 189.796 75.0825 192.479 75.6707C198.474 68.6079 208.325 64 219.462 64Z" fill="url(#paint1_linear_126_486)"/>
<path d="M208.664 103.536L210.216 104.176C210.088 104.464 210.088 104.496 209.864 105.2C209.416 106.544 208.792 107.984 208.168 109.072C208.472 110.016 208.92 110.96 209.064 110.96C209.176 110.96 209.32 110.08 209.368 108.928C209.864 109.344 210.232 109.568 210.6 109.696C210.392 112.064 209.976 113.024 209.16 113.024C208.456 113.024 207.768 112.224 207.096 110.672C206.28 111.744 205.576 112.4 204.296 113.328C203.912 112.768 203.624 112.464 203.144 112.112C204.744 111.088 205.608 110.272 206.52 108.912C206.056 107.136 205.8 105.2 205.704 102.448L202.76 102.448L202.76 103.2C202.76 103.648 202.76 103.792 202.76 104.144L204.248 104.144C204.76 104.144 205.128 104.128 205.432 104.08C205.416 104.352 205.416 104.416 205.416 104.96C205.384 107.12 205.208 109.264 205.016 109.824C204.792 110.432 204.424 110.64 203.592 110.64C203.496 110.64 203.432 110.64 202.824 110.592C202.824 110 202.76 109.696 202.568 109.024C202.936 109.104 203.096 109.12 203.272 109.12C203.608 109.12 203.672 109.04 203.752 108.544C203.832 107.952 203.88 107.008 203.912 105.68L202.712 105.68C202.6 109.408 202.216 111.312 201.192 113.312C200.84 112.816 200.616 112.56 200.216 112.176C200.216 112.352 200.232 112.576 200.248 112.864L198.92 112.864L198.92 112.4L197.448 112.4L197.448 113.184L195.992 113.184C196.04 112.688 196.072 112.128 196.072 111.632L196.072 109.264C196.072 108.784 196.056 108.448 196.008 108.016C196.328 108.048 196.6 108.064 197.08 108.064L199.304 108.064C199.832 108.064 200.024 108.048 200.264 108.016C200.216 108.256 200.216 108.48 200.216 109.168L200.216 111.504C200.968 109.792 201.224 107.584 201.224 102.96C201.224 101.952 201.208 101.424 201.144 100.816C201.464 100.864 202.072 100.896 202.728 100.896L205.656 100.896C205.624 99.056 205.624 99.056 205.56 98.592L207.304 98.592C207.24 98.88 207.208 99.28 207.208 99.696C207.208 99.776 207.208 99.936 207.208 100.224C207.224 100.368 207.224 100.592 207.224 100.896L208.872 100.896C208.392 100.24 208.072 99.888 207.48 99.344L208.472 98.56C209.112 99.104 209.368 99.376 210.072 100.192L209.224 100.896C209.736 100.88 210.024 100.864 210.312 100.816L210.312 102.512C209.768 102.464 209.352 102.448 208.648 102.448L207.24 102.448C207.256 103.712 207.384 105.152 207.656 106.928C208.2 105.76 208.536 104.608 208.664 103.536ZM197.4 109.424L197.4 110.976L198.92 110.976L198.92 109.424L197.4 109.424ZM196.12 100.464L196.12 98.88C196.52 98.944 196.776 98.96 197.416 98.96L199.192 98.96C199.832 98.96 200.072 98.944 200.488 98.88L200.488 100.464C200.056 100.432 199.768 100.416 199.192 100.416L197.416 100.416C196.84 100.416 196.504 100.432 196.12 100.464ZM195.592 102.784L195.592 101.12C195.976 101.184 196.28 101.2 196.872 101.2L199.4 101.2C200.056 101.2 200.296 101.184 200.68 101.136L200.68 102.784C200.344 102.736 200.12 102.72 199.464 102.72L196.872 102.72C196.312 102.72 195.976 102.736 195.592 102.784ZM196.104 105.008L196.104 103.52C196.408 103.552 196.616 103.568 197.112 103.568L199.352 103.568C199.864 103.568 200.056 103.552 200.328 103.52L200.328 105.008C200.024 104.976 199.816 104.96 199.352 104.96L197.112 104.96C196.616 104.96 196.408 104.976 196.104 105.008ZM196.104 107.248L196.104 105.76C196.408 105.792 196.616 105.808 197.112 105.808L199.336 105.808C199.848 105.808 200.056 105.792 200.328 105.76L200.328 107.248C200.024 107.216 199.816 107.2 199.32 107.2L197.096 107.2C196.632 107.2 196.392 107.216 196.104 107.248ZM218.04 104.176L215.048 104.176C214.312 104.176 213.912 104.192 213.544 104.256L213.544 103.408L212.072 103.408C212.136 103.04 212.152 102.752 212.152 102.224L212.152 101.04C212.152 100.608 212.136 100.256 212.088 99.84C212.6 99.888 213.048 99.904 213.848 99.904L218.008 99.904L218.008 99.536C218.008 99.136 217.976 98.88 217.912 98.528L219.88 98.528C219.816 98.848 219.8 99.136 219.8 99.536L219.8 99.904L224.184 99.904C225 99.904 225.416 99.888 225.96 99.84C225.912 100.24 225.896 100.576 225.896 101.008L225.896 102.224C225.896 102.688 225.912 103.04 225.96 103.408L224.488 103.408L224.488 104.256C224.088 104.192 223.72 104.176 222.968 104.176L219.752 104.176C219.736 104.688 219.736 104.688 219.72 105.056L222.712 105.056C223.496 105.056 223.752 105.04 224.136 104.992L224.136 106.512C223.72 106.464 223.464 106.448 222.712 106.448L219.624 106.448C219.576 106.848 219.56 106.976 219.496 107.312L224.488 107.312C225.288 107.312 225.688 107.296 226.136 107.232L226.136 108.912C225.56 108.848 225.112 108.816 224.408 108.816L220.328 108.816C220.904 109.504 221.208 109.776 221.816 110.16C222.52 110.592 223.512 110.976 224.632 111.248C225.032 111.36 225.528 111.456 226.408 111.616C226.04 112.176 225.784 112.672 225.576 113.344C224.088 112.992 223.432 112.784 222.584 112.416C220.872 111.648 219.784 110.784 218.792 109.376C218.216 110.464 217.528 111.2 216.456 111.888C215.336 112.592 214.328 112.976 212.552 113.328C212.264 112.512 212.168 112.336 211.704 111.664C213.384 111.424 214.216 111.184 215.176 110.688C216.104 110.208 216.728 109.632 217.208 108.816L213.672 108.816C213.048 108.816 212.536 108.848 211.96 108.912L211.96 107.232C212.392 107.296 212.776 107.312 213.576 107.312L217.768 107.312C217.832 107.008 217.864 106.832 217.912 106.448L215.208 106.448C214.44 106.448 214.184 106.464 213.768 106.512L213.768 104.992C214.152 105.04 214.424 105.056 215.208 105.056L218.024 105.056C218.04 104.608 218.04 104.608 218.04 104.176ZM215.048 102.768L218.056 102.768C218.04 102.256 218.04 102.048 217.992 101.744L219.848 101.744C219.8 101.936 219.8 102.128 219.784 102.768L222.968 102.768C223.576 102.768 223.832 102.752 224.232 102.72L224.232 101.408L213.816 101.408L213.816 102.72C214.104 102.752 214.456 102.768 215.048 102.768Z" fill="#16191F" fill-opacity="0.64"/>
<path opacity="0.62" fill-rule="evenodd" clip-rule="evenodd" d="M68.4617 52C85.3496 52 99.2815 62.5959 101.29 76.2801C112.362 80.7569 120 90.2471 120 101.231C120 116.525 105.191 128.923 86.923 128.923C81.4071 128.923 76.2065 127.793 71.6337 125.794C65.5754 131.49 56.7497 135.077 46.9231 135.077C31.1476 135.077 17.9516 125.831 14.6443 113.459C5.81154 108.487 0 100.042 0 90.4616C0 75.1676 14.8091 62.7693 33.077 62.7693C35.9804 62.7693 38.7964 63.0825 41.4795 63.6707C47.4736 56.6079 57.3249 52 68.4617 52Z" fill="url(#paint2_linear_126_486)"/>
<path d="M32.848 86.864L34.928 87.088C34.88 87.232 34.832 87.408 34.8 87.584C34.768 87.792 34.752 87.872 34.704 88.128C34.656 88.464 34.656 88.464 34.432 89.664C34.368 90.016 34.368 90.048 34.32 90.256C34.784 90.224 35.008 90.208 35.312 90.208C36.368 90.208 37.152 90.496 37.68 91.056C38.224 91.664 38.432 92.432 38.432 93.888C38.432 96.64 37.968 98.832 37.2 99.712C36.752 100.24 36.272 100.432 35.424 100.432C34.688 100.432 34.032 100.304 32.96 99.968C32.976 99.648 32.992 99.424 32.992 99.264C32.992 98.848 32.96 98.528 32.832 97.904C33.696 98.288 34.608 98.528 35.168 98.528C35.632 98.528 35.888 98.224 36.128 97.44C36.384 96.608 36.544 95.152 36.544 93.792C36.544 92.32 36.176 91.888 34.912 91.888C34.592 91.888 34.352 91.904 33.984 91.936C33.504 93.888 33.36 94.368 33.008 95.408C32.448 97.008 32.016 98.032 31.088 99.904C31.008 100.064 31.008 100.064 30.848 100.384C30.8 100.48 30.8 100.496 30.72 100.656L28.864 99.632C29.344 98.992 29.984 97.84 30.528 96.624C31.216 95.056 31.44 94.384 32.08 92.096C31.264 92.192 29.744 92.464 29.216 92.608L29.024 90.72C29.616 90.72 31.552 90.528 32.432 90.4C32.72 88.672 32.848 87.696 32.848 87.168C32.848 87.104 32.848 86.992 32.848 86.864ZM38.576 89.936L40.224 89.136C41.824 91.008 42.832 92.912 43.52 95.376L41.696 96.304C41.392 94.928 41.024 93.872 40.416 92.672C39.84 91.488 39.328 90.752 38.576 89.936ZM48.992 94.064L49.024 94.096C49.12 93.984 49.12 93.984 49.328 93.744C49.84 93.184 50.672 92.8 51.392 92.8C52.128 92.8 52.832 93.168 53.184 93.712C53.504 94.224 53.584 94.8 53.584 96.64C53.584 97.792 53.648 98.112 53.936 98.352C54.112 98.496 54.4 98.576 54.784 98.576C55.632 98.576 56.32 97.984 56.784 96.864C57.072 96.144 57.312 95.152 57.392 94.32C57.92 94.864 58.16 95.024 59.152 95.52C58.464 98.832 56.896 100.496 54.48 100.496C53.248 100.496 52.368 100.016 51.968 99.104C51.792 98.688 51.696 98.112 51.696 97.328C51.696 97.312 51.696 97.232 51.696 97.168C51.712 96.592 51.712 96.208 51.712 96.048C51.712 95.552 51.68 95.312 51.584 95.104C51.472 94.88 51.184 94.736 50.864 94.736C50 94.736 49.104 95.536 48.32 96.976C47.84 97.888 47.184 99.664 46.976 100.64L44.912 99.968C45.136 99.504 45.28 99.12 45.792 97.728C49.472 87.504 49.472 87.504 49.584 86.848L51.744 87.392C51.52 87.824 51.44 88 50.96 89.232C50.048 91.568 49.344 93.312 48.992 94.064ZM61.488 91.232L61.52 89.376C62.096 89.472 62.736 89.52 63.664 89.52C63.856 89.52 64.032 89.52 64.4 89.504C64.544 88.736 64.704 87.504 64.704 87.056C64.704 86.992 64.704 86.896 64.688 86.768L66.8 86.96C66.688 87.328 66.688 87.328 66.496 88.496C66.416 88.944 66.4 89.04 66.336 89.408C67.52 89.296 68.272 89.168 69.072 88.928L69.152 90.768C69.024 90.784 69.024 90.784 68.64 90.848C67.824 91.008 66.544 91.168 66.016 91.184C65.84 92.176 65.44 93.872 65.024 95.328C64.56 96.992 64.288 97.792 63.232 100.624L61.216 99.84C62.32 97.808 63.552 94.08 64.08 91.232C63.968 91.248 63.904 91.248 63.872 91.248L62.944 91.248C62.864 91.248 62.704 91.248 62.432 91.232C62.144 91.216 61.92 91.216 61.792 91.216C61.712 91.216 61.632 91.216 61.488 91.232ZM74.176 91.584L74.208 93.488C73.44 93.408 72.992 93.376 72.192 93.376C70.608 93.376 69.552 93.488 67.968 93.84L67.824 92.08C70.096 91.648 70.864 91.568 72.592 91.568C73.024 91.568 73.168 91.568 74.176 91.584ZM67.872 94.944L69.456 95.584C68.816 96.384 68.624 96.784 68.624 97.344C68.624 98.16 69.424 98.576 71.024 98.576C72.192 98.576 73.728 98.32 74.656 97.984L74.8 99.952C74.512 99.984 74.384 100 74.016 100.064C72.688 100.256 71.984 100.32 71.04 100.32C69.616 100.32 68.592 100.112 67.824 99.68C67.136 99.28 66.688 98.512 66.688 97.712C66.688 96.864 66.992 96.144 67.872 94.944ZM80.992 94.064L81.024 94.096C81.12 93.984 81.12 93.984 81.328 93.744C81.84 93.184 82.672 92.8 83.392 92.8C84.128 92.8 84.832 93.168 85.184 93.712C85.504 94.224 85.584 94.8 85.584 96.64C85.584 97.792 85.648 98.112 85.936 98.352C86.112 98.496 86.4 98.576 86.784 98.576C87.632 98.576 88.32 97.984 88.784 96.864C89.072 96.144 89.312 95.152 89.392 94.32C89.92 94.864 90.16 95.024 91.152 95.52C90.464 98.832 88.896 100.496 86.48 100.496C85.248 100.496 84.368 100.016 83.968 99.104C83.792 98.688 83.696 98.112 83.696 97.328C83.696 97.312 83.696 97.232 83.696 97.168C83.712 96.592 83.712 96.208 83.712 96.048C83.712 95.552 83.68 95.312 83.584 95.104C83.472 94.88 83.184 94.736 82.864 94.736C82 94.736 81.104 95.536 80.32 96.976C79.84 97.888 79.184 99.664 78.976 100.64L76.912 99.968C77.136 99.504 77.28 99.12 77.792 97.728C81.472 87.504 81.472 87.504 81.584 86.848L83.744 87.392C83.52 87.824 83.44 88 82.96 89.232C82.048 91.568 81.344 93.312 80.992 94.064Z" fill="#16191F" fill-opacity="0.64"/>
<path opacity="0.54" fill-rule="evenodd" clip-rule="evenodd" d="M157.538 0C140.65 0 126.718 10.5959 124.71 24.28C113.638 28.7568 106 38.247 106 49.2308C106 64.5249 120.809 76.9232 139.077 76.9232C144.593 76.9232 149.793 75.7928 154.366 73.7936C160.425 79.4896 169.25 83.0771 179.077 83.0771C194.852 83.0771 208.048 73.8312 211.356 61.459C220.188 56.487 226 48.0425 226 38.4616C226 23.1676 211.191 10.7693 192.923 10.7693C190.02 10.7693 187.204 11.0825 184.521 11.6707C178.526 4.60791 168.675 0 157.538 0Z" fill="url(#paint3_linear_126_486)"/>
<path d="M162.544 37.376L154.192 37.376C153.488 38.432 152.784 39.248 151.808 40.16C151.392 39.632 151.056 39.296 150.56 38.912C151.92 37.712 152.8 36.608 153.456 35.296C153.664 34.896 153.76 34.624 153.808 34.288L155.728 34.576C155.584 34.848 155.584 34.848 155.168 35.696L162.544 35.696C163.456 35.696 164.016 35.664 164.544 35.584L164.544 37.472C164.016 37.408 163.392 37.376 162.544 37.376ZM160.752 47.568L159.552 48.896C158.592 47.968 157.872 47.312 156.768 46.432C155.536 47.488 154.448 48.176 152.144 49.312C151.824 48.752 151.584 48.448 150.944 47.808C153.12 46.88 154.208 46.288 155.376 45.376C154.4 44.656 153.856 44.304 152.592 43.552L153.76 42.48C154.928 43.152 155.456 43.488 156.592 44.256C157.344 43.456 157.792 42.8 157.984 42.208L159.696 43.024C159.536 43.2 159.36 43.44 159.008 43.92C158.624 44.464 158.368 44.8 157.968 45.248C158.944 46.016 159.744 46.672 160.752 47.568ZM161.12 42.032L153.344 42.032C152.512 42.032 151.984 42.064 151.504 42.128L151.504 40.448C151.872 40.512 152.256 40.528 152.88 40.528L161.008 40.528C162.064 40.528 162.4 40.512 162.88 40.464C162.816 40.976 162.8 41.392 162.8 41.92C162.8 43.616 162.96 45.008 163.248 46.032C163.44 46.656 163.536 46.864 163.808 47.12C164.032 46.816 164.144 46.064 164.192 44.752C164.72 45.248 165.04 45.456 165.568 45.712C165.312 48.224 164.816 49.248 163.84 49.248C163.12 49.248 162.304 48.416 161.856 47.2C161.36 45.888 161.152 44.384 161.12 42.032ZM153.728 39.648L153.728 38.096C153.936 38.128 154.448 38.16 154.928 38.16L161.632 38.16C162.432 38.16 162.976 38.128 163.328 38.08L163.328 39.664C162.848 39.6 162.432 39.584 161.632 39.584L155.248 39.584C154.592 39.584 154.16 39.6 153.728 39.648ZM178.032 43.536L179.552 43.536C180.288 43.536 180.56 43.52 180.944 43.456L180.944 45.152C180.496 45.088 180.144 45.072 179.52 45.072L178.032 45.072L178.032 47.232L179.824 47.232C180.528 47.232 180.992 47.2 181.424 47.152L181.424 48.896C180.96 48.816 180.528 48.8 179.824 48.8L174.608 48.8C173.872 48.8 173.456 48.816 172.976 48.896L172.976 47.152C173.424 47.216 173.808 47.232 174.512 47.232L176.368 47.232L176.368 45.072L175.344 45.072C174.688 45.072 174.304 45.088 173.856 45.152L173.856 43.456C174.256 43.52 174.656 43.536 175.376 43.536L176.368 43.536L176.368 43.136C176.368 42.384 176.352 42 176.288 41.6L178.112 41.6C178.048 41.984 178.032 42.384 178.032 43.136L178.032 43.536ZM171.104 46.864L171.104 47.776C171.104 48.432 171.136 48.896 171.2 49.312L169.472 49.312C169.536 48.864 169.568 48.368 169.568 47.696L169.568 46.864L168.304 46.864C167.568 46.864 167.296 46.88 166.8 46.96L166.8 45.344C167.264 45.408 167.552 45.424 168.304 45.424L169.568 45.424L169.568 44.48L168.864 44.48C168.16 44.48 167.792 44.496 167.232 44.528C167.28 43.984 167.296 43.456 167.296 42.688L167.296 40.16C167.296 39.376 167.28 38.944 167.232 38.432C167.68 38.464 168.048 38.48 168.864 38.48L169.568 38.48L169.568 37.472L168.384 37.472C167.696 37.472 167.392 37.488 166.88 37.536L166.88 35.952C167.344 36.032 167.632 36.048 168.384 36.048L169.568 36.048C169.568 35.296 169.552 34.976 169.472 34.528L171.2 34.528C171.12 34.928 171.104 35.232 171.104 36.048L171.792 36.048C172.544 36.048 172.816 36.032 173.296 35.952L173.296 37.536C172.848 37.488 172.56 37.472 171.792 37.472L171.104 37.472L171.104 38.48L171.984 38.48C172.768 38.48 173.056 38.464 173.44 38.432C173.408 38.848 173.392 39.152 173.392 40.064L173.392 40.96C174.448 40.592 175.36 40.128 176.208 39.536C175.44 38.736 174.912 37.936 174.368 36.8C174 36.816 173.888 36.816 173.664 36.848L173.664 35.152C174.064 35.216 174.544 35.248 175.28 35.248L178.832 35.248C179.392 35.248 179.744 35.232 180.016 35.168L180.976 36.176C180.848 36.384 180.752 36.512 180.576 36.8C179.536 38.432 179.312 38.736 178.496 39.552C179.36 40.128 180.096 40.448 181.664 40.88C181.216 41.44 180.944 41.904 180.768 42.4C179.12 41.76 178.288 41.312 177.344 40.592C176.336 41.36 175.456 41.872 174.176 42.432C173.952 41.92 173.696 41.52 173.392 41.216L173.392 42.752C173.392 43.536 173.408 44.08 173.44 44.528C173.04 44.496 172.736 44.48 171.952 44.48L171.104 44.48L171.104 45.424L172.448 45.424C173.136 45.424 173.392 45.408 173.728 45.36L173.728 46.96C173.264 46.88 172.976 46.864 172.384 46.864L171.104 46.864ZM171.056 43.136L172.064 43.136L172.064 42L171.056 42L171.056 43.136ZM171.056 40.832L172.064 40.832L172.064 39.808L171.056 39.808L171.056 40.832ZM169.616 39.808L168.656 39.808L168.656 40.832L169.616 40.832L169.616 39.808ZM169.616 42L168.656 42L168.656 43.136L169.616 43.136L169.616 42ZM178.704 36.784L175.984 36.784C176.352 37.488 176.768 38.064 177.328 38.624C178.048 37.92 178.336 37.52 178.704 36.784Z" fill="#16191F" fill-opacity="0.7"/>
<path fill-rule="evenodd" clip-rule="evenodd" d="M156.385 162C163.14 162 168.713 166.238 169.516 171.712C173.945 173.503 177 177.299 177 181.692C177 187.81 171.076 192.769 163.769 192.769C161.563 192.769 159.483 192.317 157.654 191.517C155.23 193.796 151.7 195.231 147.769 195.231C141.459 195.231 136.181 191.532 134.858 186.584C131.325 184.595 129 181.217 129 177.385C129 171.267 134.924 166.308 142.231 166.308C143.392 166.308 144.519 166.433 145.592 166.668C147.989 163.843 151.93 162 156.385 162Z" fill="url(#paint4_linear_126_486)"/>
<defs>
<linearGradient id="paint0_linear_126_486" x1="133" y1="94" x2="133" y2="177.385" gradientUnits="userSpaceOnUse">
<stop stop-color="white"/>
<stop offset="1" stop-color="white" stop-opacity="0"/>
</linearGradient>
<linearGradient id="paint1_linear_126_486" x1="211" y1="64" x2="211" y2="147.077" gradientUnits="userSpaceOnUse">
<stop stop-color="white"/>
<stop offset="1" stop-color="white" stop-opacity="0"/>
</linearGradient>
<linearGradient id="paint2_linear_126_486" x1="60" y1="52" x2="60" y2="135.077" gradientUnits="userSpaceOnUse">
<stop stop-color="white"/>
<stop offset="1" stop-color="white" stop-opacity="0"/>
</linearGradient>
<linearGradient id="paint3_linear_126_486" x1="166" y1="0" x2="166" y2="83.077" gradientUnits="userSpaceOnUse">
<stop stop-color="white"/>
<stop offset="1" stop-color="white" stop-opacity="0"/>
</linearGradient>
<linearGradient id="paint4_linear_126_486" x1="153" y1="162" x2="153" y2="195.231" gradientUnits="userSpaceOnUse">
<stop offset="0.463542" stop-color="white"/>
<stop offset="1" stop-color="white" stop-opacity="0"/>
</linearGradient>
</defs>
</svg>
