<svg width="408" height="319" viewBox="0 0 408 319" fill="none" xmlns="http://www.w3.org/2000/svg">
<path d="M204.072 317.554C205.1 318.816 206.908 318.816 207.936 317.554L228.593 292.193C230.074 290.375 228.89 287.501 226.66 287.501L185.34 287.501C183.11 287.501 181.926 290.375 183.408 292.193L204.072 317.554Z" fill="#DA3170"/>
<path fill-rule="evenodd" clip-rule="evenodd" d="M345.812 50.875C341.349 50.875 337.5 54.3928 337.5 60.375C337.5 64.1821 340.218 68.948 344.455 73.6239C348.193 77.7488 352.754 81.408 356.5 83.7346C360.246 81.408 364.807 77.7488 368.545 73.6239C372.782 68.948 375.5 64.1821 375.5 60.375C375.5 54.3928 371.651 50.875 367.188 50.875C365.646 50.875 364.117 51.6421 362.558 53.071C361.001 54.4982 359.648 56.372 358.476 58.1299C358.036 58.7906 357.294 59.1875 356.5 59.1875C355.706 59.1875 354.964 58.7906 354.524 58.1299C353.352 56.372 351.999 54.4982 350.442 53.071C348.883 51.6421 347.354 50.875 345.812 50.875ZM332.75 60.375C332.75 52.1072 338.401 46.125 345.812 46.125C349.021 46.125 351.648 47.7329 353.652 49.5696C354.711 50.5406 355.662 51.6355 356.5 52.7184C357.338 51.6355 358.289 50.5406 359.348 49.5696C361.352 47.7329 363.979 46.125 367.188 46.125C374.599 46.125 380.25 52.1072 380.25 60.375C380.25 66.0679 376.436 71.9895 372.065 76.8136C367.596 81.745 362.057 86.0604 357.678 88.562C356.948 88.9793 356.052 88.9793 355.322 88.562C350.944 86.0604 345.405 81.745 340.935 76.8136C336.564 71.9895 332.75 66.0679 332.75 60.375Z" fill="#DA3170"/>
<path fill-rule="evenodd" clip-rule="evenodd" d="M352 104.975C352 101.882 354.507 99.375 357.6 99.375H402.4C405.493 99.375 408 101.882 408 104.975V138.575C408 141.668 405.493 144.175 402.4 144.175H378.6L370.2 152.575C367.4 155.375 363.2 153.975 363.2 149.775V144.175H357.6C354.507 144.175 352 141.668 352 138.575V104.975ZM368.8 118.975C367.254 118.975 366 120.229 366 121.775C366 123.321 367.254 124.575 368.8 124.575C370.346 124.575 371.6 123.321 371.6 121.775C371.6 120.229 370.346 118.975 368.8 118.975ZM380 118.975C378.454 118.975 377.2 120.229 377.2 121.775C377.2 123.321 378.454 124.575 380 124.575C381.546 124.575 382.8 123.321 382.8 121.775C382.8 120.229 381.546 118.975 380 118.975ZM388.4 121.775C388.4 120.229 389.654 118.975 391.2 118.975C392.746 118.975 394 120.229 394 121.775C394 123.321 392.746 124.575 391.2 124.575C389.654 124.575 388.4 123.321 388.4 121.775Z" fill="#DA3170"/>
<path fill-rule="evenodd" clip-rule="evenodd" d="M304.147 238.3C304.782 237.666 305.811 237.666 306.445 238.3L313.34 245.195C313.974 245.829 313.974 246.858 313.34 247.493C312.705 248.127 311.676 248.127 311.042 247.493L310.467 246.918L306.832 250.554L310.566 254.289C311.201 254.923 311.201 255.952 310.566 256.587C309.932 257.221 308.903 257.221 308.268 256.587L307.119 255.438L296.087 266.47C295.122 267.435 293.656 267.695 292.418 267.119L288.989 265.524L285.861 268.652C285.227 269.286 284.198 269.286 283.563 268.652C282.929 268.017 282.929 266.988 283.563 266.353L286.691 263.225L285.097 259.797C284.521 258.559 284.78 257.094 285.746 256.129L296.778 245.096L295.629 243.947C294.994 243.313 294.994 242.284 295.629 241.649C296.263 241.015 297.292 241.015 297.927 241.649L301.086 244.809L304.722 241.173L304.147 240.599C303.513 239.964 303.513 238.935 304.147 238.3ZM308.169 244.62L307.02 243.471L303.619 246.872L304.768 248.021L308.169 244.62ZM304.821 253.14L299.076 247.395L296.49 249.98L299.363 252.852C299.839 253.328 299.839 254.1 299.363 254.576C298.887 255.052 298.115 255.052 297.639 254.576L294.767 251.704L293.043 253.427L295.916 256.3C296.392 256.776 296.392 257.547 295.916 258.023C295.44 258.499 294.668 258.499 294.192 258.023L291.32 255.151L288.044 258.427L289.868 262.348L293.789 264.172L304.821 253.14Z" fill="#DB3939"/>
<path d="M154 116C154 111.582 157.582 108 162 108H325C329.418 108 333 111.582 333 116V186H154V116Z" fill="#F8CFDE"/>
<line x1="154" y1="184" x2="333" y2="184" stroke="#B02B2B" stroke-width="4"/>
<g clip-path="url(#clip0_91_413)">
<path fill-rule="evenodd" clip-rule="evenodd" d="M172.085 84.241C172.095 84.4605 172.15 84.6682 172.241 84.8554C173.112 86.8008 174.217 88.2355 175.574 89.178C176.955 90.1372 178.474 90.4999 180 90.4999C181.527 90.4999 183.045 90.1372 184.426 89.178C185.792 88.2296 186.902 86.7824 187.777 84.8183C187.792 84.7846 187.806 84.7504 187.819 84.7156C187.941 84.3853 187.946 84.0371 187.853 83.7195C187.83 83.6436 187.803 83.5703 187.77 83.4997C187.569 83.0668 187.177 82.7402 186.703 82.6267C186.569 82.5944 186.434 82.5803 186.3 82.5833H173.701C173.594 82.5809 173.486 82.5895 173.378 82.6096C173.007 82.678 172.681 82.8756 172.449 83.1541C172.221 83.4285 172.083 83.7815 172.083 84.1666V84.1718C172.083 84.195 172.084 84.2179 172.085 84.241ZM183.53 85.7499H176.471C176.773 86.0972 177.078 86.3671 177.381 86.5771C178.137 87.1023 178.994 87.3333 180 87.3333C181.007 87.3333 181.864 87.1023 182.62 86.5771C182.922 86.3671 183.228 86.0972 183.53 85.7499Z" fill="#DA3170"/>
<path d="M175.544 78.4521C176.001 79.1972 176.976 79.4301 177.722 78.9724C178.467 78.5147 178.7 77.5396 178.242 76.7945C177.774 76.0338 177.183 75.4385 176.446 75.0683C175.708 74.6972 174.949 74.6147 174.251 74.6757C173.553 74.7368 172.819 74.9499 172.157 75.4435C171.496 75.9361 171.016 76.625 170.688 77.4554C170.367 78.2686 170.766 79.1884 171.579 79.5098C172.392 79.8312 173.312 79.4325 173.633 78.6193C173.793 78.2149 173.955 78.0531 174.049 77.983C174.142 77.9138 174.278 77.852 174.527 77.8304C174.775 77.8086 174.921 77.8457 175.024 77.8976C175.129 77.9504 175.316 78.0818 175.544 78.4521Z" fill="#DA3170"/>
<path d="M188.421 79.5098C187.607 79.8312 186.687 79.4326 186.366 78.6194C186.206 78.215 186.045 78.0532 185.951 77.9829C185.858 77.9138 185.721 77.8521 185.473 77.8304C185.224 77.8086 185.079 77.8456 184.975 77.8977C184.87 77.9504 184.683 78.0817 184.456 78.4522C183.998 79.1973 183.023 79.4302 182.278 78.9724C181.533 78.5147 181.3 77.5396 181.758 76.7945C182.225 76.0338 182.817 75.4385 183.553 75.0683C184.292 74.6972 185.051 74.6147 185.749 74.6757C186.446 74.7368 187.18 74.9499 187.842 75.4435C188.504 75.9361 188.983 76.625 189.311 77.4554C189.632 78.2687 189.234 79.1884 188.421 79.5098Z" fill="#DA3170"/>
<path fill-rule="evenodd" clip-rule="evenodd" d="M180 96.8333C188.744 96.8333 195.833 89.7444 195.833 81C195.833 72.2554 188.744 65.1666 180 65.1666C171.255 65.1666 164.167 72.2554 164.167 81C164.167 89.7444 171.255 96.8333 180 96.8333ZM180 93.6666C186.996 93.6666 192.667 87.9956 192.667 81C192.667 74.0043 186.996 68.3333 180 68.3333C173.004 68.3333 167.333 74.0043 167.333 81C167.333 87.9956 173.004 93.6666 180 93.6666Z" fill="#DA3170"/>
</g>
<rect y="134" width="106" height="56" rx="28" fill="#3959CC"/>
<path d="M29.7734 166.336C30.3411 166.336 30.8021 166.273 31.1562 166.148C31.8281 165.909 32.1641 165.464 32.1641 164.812C32.1641 164.432 31.9974 164.138 31.6641 163.93C31.3307 163.727 30.8073 163.547 30.0938 163.391L28.875 163.117C27.6771 162.846 26.849 162.552 26.3906 162.234C25.6146 161.703 25.2266 160.872 25.2266 159.742C25.2266 158.711 25.6016 157.854 26.3516 157.172C27.1016 156.49 28.2031 156.148 29.6562 156.148C30.8698 156.148 31.9036 156.471 32.7578 157.117C33.6172 157.758 34.0677 158.69 34.1094 159.914H31.7969C31.7552 159.221 31.4531 158.729 30.8906 158.438C30.5156 158.245 30.0495 158.148 29.4922 158.148C28.8724 158.148 28.3776 158.273 28.0078 158.523C27.638 158.773 27.4531 159.122 27.4531 159.57C27.4531 159.982 27.6354 160.289 28 160.492C28.2344 160.628 28.7344 160.786 29.5 160.969L31.4844 161.445C32.3542 161.654 33.0104 161.932 33.4531 162.281C34.1406 162.823 34.4844 163.607 34.4844 164.633C34.4844 165.685 34.0807 166.56 33.2734 167.258C32.4714 167.951 31.3359 168.297 29.8672 168.297C28.3672 168.297 27.1875 167.956 26.3281 167.273C25.4688 166.586 25.0391 165.643 25.0391 164.445H27.3359C27.4089 164.971 27.5521 165.365 27.7656 165.625C28.1562 166.099 28.8255 166.336 29.7734 166.336ZM42.1469 166.797C42.126 166.823 42.074 166.901 41.9906 167.031C41.9073 167.161 41.8083 167.276 41.6938 167.375C41.3448 167.688 41.0063 167.901 40.6781 168.016C40.3552 168.13 39.975 168.188 39.5375 168.188C38.2771 168.188 37.4281 167.734 36.9906 166.828C36.7458 166.328 36.6234 165.591 36.6234 164.617V159.484H38.9047V164.617C38.9047 165.102 38.962 165.466 39.0766 165.711C39.2797 166.143 39.6781 166.359 40.2719 166.359C41.0323 166.359 41.5531 166.052 41.8344 165.438C41.9802 165.104 42.0531 164.664 42.0531 164.117V159.484H44.3109V168H42.1469V166.797ZM51.6922 168.227C50.9891 168.227 50.424 168.086 49.9969 167.805C49.7417 167.638 49.4656 167.346 49.1688 166.93V168H46.9891V156.5H49.2078V160.594C49.4891 160.198 49.799 159.896 50.1375 159.688C50.5385 159.427 51.049 159.297 51.6688 159.297C52.7885 159.297 53.6635 159.701 54.2938 160.508C54.9292 161.315 55.2469 162.357 55.2469 163.633C55.2469 164.956 54.9344 166.052 54.3094 166.922C53.6844 167.792 52.812 168.227 51.6922 168.227ZM52.9109 163.867C52.9109 163.263 52.8328 162.763 52.6766 162.367C52.3797 161.617 51.8328 161.242 51.0359 161.242C50.2286 161.242 49.674 161.609 49.3719 162.344C49.2156 162.734 49.1375 163.24 49.1375 163.859C49.1375 164.589 49.299 165.193 49.6219 165.672C49.9448 166.151 50.437 166.391 51.0984 166.391C51.6714 166.391 52.1167 166.159 52.4344 165.695C52.7521 165.232 52.9109 164.622 52.9109 163.867ZM62.2297 161.828C62.0422 161.417 61.675 161.211 61.1281 161.211C60.4927 161.211 60.0656 161.417 59.8469 161.828C59.7271 162.062 59.6672 162.411 59.6672 162.875V168H57.4094V159.5H59.5734V160.742C59.8495 160.299 60.1099 159.984 60.3547 159.797C60.787 159.464 61.3469 159.297 62.0344 159.297C62.6854 159.297 63.2115 159.44 63.6125 159.727C63.9354 159.992 64.1802 160.333 64.3469 160.75C64.6385 160.25 65.0005 159.883 65.4328 159.648C65.8911 159.414 66.4016 159.297 66.9641 159.297C67.3391 159.297 67.7089 159.37 68.0734 159.516C68.438 159.661 68.7687 159.917 69.0656 160.281C69.3052 160.578 69.4667 160.943 69.55 161.375C69.6021 161.661 69.6281 162.081 69.6281 162.633L69.6125 168H67.3312V162.578C67.3312 162.255 67.2792 161.99 67.175 161.781C66.9771 161.385 66.6125 161.188 66.0812 161.188C65.4667 161.188 65.0422 161.443 64.8078 161.953C64.688 162.224 64.6281 162.549 64.6281 162.93V168H62.3859V162.93C62.3859 162.424 62.3339 162.057 62.2297 161.828ZM74.5719 159.484V168H72.3141V159.484H74.5719ZM74.5719 156.414V158.469H72.3141V156.414H74.5719ZM81.2344 166.414V168.078L80.1797 168.117C79.1276 168.154 78.4089 167.971 78.0234 167.57C77.7734 167.315 77.6484 166.922 77.6484 166.391V161.148H76.4609V159.562H77.6484V157.188H79.8516V159.562H81.2344V161.148H79.8516V165.648C79.8516 165.997 79.8958 166.216 79.9844 166.305C80.0729 166.388 80.3438 166.43 80.7969 166.43C80.8646 166.43 80.9349 166.43 81.0078 166.43C81.0859 166.424 81.1615 166.419 81.2344 166.414Z" fill="white"/>
<path fill-rule="evenodd" clip-rule="evenodd" d="M159.409 205C158.631 205 158 205.631 158 206.409V224.591C158 225.369 158.631 226 159.409 226H177.591C178.369 226 179 225.369 179 224.591V206.409C179 205.631 178.369 205 177.591 205H159.409ZM154 206.409C154 203.422 156.422 201 159.409 201H177.591C180.578 201 183 203.422 183 206.409V224.591C183 227.578 180.578 230 177.591 230H159.409C156.422 230 154 227.578 154 224.591V206.409Z" fill="#DB3939"/>
<rect x="101.5" y="17.5" width="88" height="33" rx="6.5" fill="#F2F6FD"/>
<path d="M121 34.5C121 36.7091 119.209 38.5 117 38.5C114.791 38.5 113 36.7091 113 34.5C113 32.2909 114.791 30.5 117 30.5C119.209 30.5 121 32.2909 121 34.5Z" fill="#3959CC"/>
<rect x="110" y="27.5" width="14" height="14" rx="7" stroke="#3959CC" stroke-width="2"/>
<path d="M169.588 37.6436V38.8916L168.797 38.9209C168.008 38.9482 167.469 38.8115 167.18 38.5107C166.992 38.3193 166.898 38.0244 166.898 37.626V33.6943H166.008V32.5049H166.898V30.7236H168.551V32.5049H169.588V33.6943H168.551V37.0693C168.551 37.3311 168.584 37.4951 168.65 37.5615C168.717 37.624 168.92 37.6553 169.26 37.6553C169.311 37.6553 169.363 37.6553 169.418 37.6553C169.477 37.6514 169.533 37.6475 169.588 37.6436Z" fill="#16191F" fill-opacity="0.9"/>
<path d="M164.91 34.7373H163.199C163.168 34.499 163.088 34.2842 162.959 34.0928C162.771 33.835 162.48 33.7061 162.086 33.7061C161.523 33.7061 161.138 33.9854 160.931 34.5439C160.822 34.8408 160.767 35.2354 160.767 35.7275C160.767 36.1963 160.822 36.5732 160.931 36.8584C161.13 37.3896 161.505 37.6553 162.056 37.6553C162.447 37.6553 162.724 37.5498 162.888 37.3389C163.052 37.1279 163.152 36.8545 163.187 36.5186H164.892C164.853 37.0264 164.67 37.5068 164.341 37.96C163.818 38.6904 163.043 39.0557 162.015 39.0557C160.988 39.0557 160.232 38.751 159.748 38.1416C159.263 37.5322 159.021 36.7412 159.021 35.7686C159.021 34.6709 159.289 33.8174 159.824 33.208C160.359 32.5986 161.097 32.2939 162.039 32.2939C162.839 32.2939 163.494 32.4736 164.002 32.833C164.513 33.1924 164.816 33.8271 164.91 34.7373Z" fill="#16191F" fill-opacity="0.9"/>
<path d="M157.572 36.958C157.529 37.3369 157.331 37.7217 156.98 38.1123C156.433 38.7334 155.667 39.0439 154.683 39.0439C153.87 39.0439 153.154 38.7822 152.532 38.2588C151.911 37.7354 151.601 36.8838 151.601 35.7041C151.601 34.5986 151.88 33.751 152.439 33.1611C153.001 32.5713 153.73 32.2764 154.624 32.2764C155.156 32.2764 155.634 32.376 156.06 32.5752C156.486 32.7744 156.837 33.0889 157.115 33.5186C157.365 33.8975 157.527 34.3369 157.601 34.8369C157.644 35.1299 157.661 35.5518 157.654 36.1025H153.282C153.306 36.7432 153.507 37.1924 153.886 37.4502C154.116 37.6104 154.394 37.6904 154.718 37.6904C155.062 37.6904 155.341 37.5928 155.556 37.3975C155.673 37.292 155.777 37.1455 155.866 36.958H157.572ZM155.919 35.001C155.892 34.5596 155.757 34.2256 155.515 33.999C155.277 33.7686 154.98 33.6533 154.624 33.6533C154.238 33.6533 153.937 33.7744 153.722 34.0166C153.511 34.2588 153.378 34.5869 153.323 35.001H155.919Z" fill="#16191F" fill-opacity="0.9"/>
<path d="M148.2 30.1963H149.87V38.833H148.2V30.1963Z" fill="#16191F" fill-opacity="0.9"/>
<path d="M146.352 36.958C146.309 37.3369 146.112 37.7217 145.76 38.1123C145.213 38.7334 144.448 39.0439 143.463 39.0439C142.651 39.0439 141.934 38.7822 141.313 38.2588C140.692 37.7354 140.381 36.8838 140.381 35.7041C140.381 34.5986 140.661 33.751 141.219 33.1611C141.782 32.5713 142.51 32.2764 143.405 32.2764C143.936 32.2764 144.414 32.376 144.84 32.5752C145.266 32.7744 145.618 33.0889 145.895 33.5186C146.145 33.8975 146.307 34.3369 146.381 34.8369C146.424 35.1299 146.442 35.5518 146.434 36.1025H142.063C142.086 36.7432 142.287 37.1924 142.666 37.4502C142.897 37.6104 143.174 37.6904 143.498 37.6904C143.842 37.6904 144.121 37.5928 144.336 37.3975C144.453 37.292 144.557 37.1455 144.647 36.958H146.352ZM144.7 35.001C144.672 34.5596 144.537 34.2256 144.295 33.999C144.057 33.7686 143.76 33.6533 143.405 33.6533C143.018 33.6533 142.717 33.7744 142.502 34.0166C142.291 34.2588 142.159 34.5869 142.104 35.001H144.7Z" fill="#16191F" fill-opacity="0.9"/>
<path d="M135.551 37.585C135.977 37.585 136.322 37.5381 136.588 37.4443C137.092 37.2646 137.344 36.9307 137.344 36.4424C137.344 36.1572 137.219 35.9365 136.969 35.7803C136.719 35.6279 136.326 35.4932 135.791 35.376L134.877 35.1709C133.979 34.9678 133.357 34.7471 133.014 34.5088C132.432 34.1104 132.141 33.4873 132.141 32.6396C132.141 31.8662 132.422 31.2236 132.984 30.7119C133.547 30.2002 134.373 29.9443 135.463 29.9443C136.373 29.9443 137.148 30.1865 137.789 30.6709C138.434 31.1514 138.771 31.8506 138.803 32.7686H137.068C137.037 32.249 136.811 31.8799 136.389 31.6611C136.107 31.5166 135.758 31.4443 135.34 31.4443C134.875 31.4443 134.504 31.5381 134.227 31.7256C133.949 31.9131 133.811 32.1748 133.811 32.5107C133.811 32.8193 133.947 33.0498 134.221 33.2021C134.396 33.3037 134.771 33.4229 135.346 33.5596L136.834 33.917C137.486 34.0732 137.979 34.2822 138.311 34.5439C138.826 34.9502 139.084 35.5381 139.084 36.3076C139.084 37.0967 138.781 37.7529 138.176 38.2764C137.574 38.7959 136.723 39.0557 135.621 39.0557C134.496 39.0557 133.611 38.7998 132.967 38.2881C132.322 37.7725 132 37.0654 132 36.167H133.723C133.777 36.5615 133.885 36.8564 134.045 37.0518C134.338 37.4072 134.84 37.585 135.551 37.585Z" fill="#16191F" fill-opacity="0.9"/>
<rect x="101.5" y="17.5" width="88" height="33" rx="6.5" stroke="#3959CC" stroke-width="3"/>
<path d="M131 187C131 191.418 127.418 195 123 195C118.582 195 115 191.418 115 187C115 182.582 118.582 179 123 179C127.418 179 131 182.582 131 187Z" fill="#3959CC"/>
<rect x="109.5" y="173.5" width="27" height="27" rx="13.5" stroke="#3959CC" stroke-width="3"/>
<path fill-rule="evenodd" clip-rule="evenodd" d="M65.5652 84.8303C58.8288 91.5667 47.9066 91.5667 41.1701 84.8303C34.4335 78.0936 34.4335 67.1715 41.1701 60.435L57.4335 44.1715C64.17 37.435 75.0921 37.435 81.8288 44.1715C82.1445 44.4873 82.4455 44.8123 82.7315 45.1456C82.9589 45.4102 83.1766 45.68 83.3853 45.9547C88.5183 52.7153 87.9997 62.3972 81.8294 68.5676L65.5652 84.8303ZM69.631 72.6328L53.3676 56.3692L45.2359 64.5009C40.7449 68.9919 40.7449 76.2734 45.2359 80.7645C49.727 85.2555 57.0083 85.2555 61.4994 80.7645L69.631 72.6328Z" fill="#3959CC"/>
<path d="M149 249C149 244.582 152.582 241 157 241H261C265.418 241 269 244.582 269 249V273H149V249Z" fill="#F8CFDE"/>
<path d="M167.64 254.824C168.198 255.42 168.478 256.296 168.478 257.452C168.478 258.67 168.202 259.599 167.652 260.238C167.106 260.877 166.402 261.197 165.539 261.197C164.988 261.197 164.531 261.059 164.167 260.784C163.969 260.632 163.774 260.41 163.583 260.118V263.723H161.793V254.081H163.526V255.103C163.721 254.803 163.928 254.566 164.148 254.392C164.55 254.083 165.029 253.929 165.583 253.929C166.391 253.929 167.077 254.227 167.64 254.824ZM166.611 257.541C166.611 257.007 166.489 256.535 166.243 256.125C166.002 255.715 165.608 255.509 165.062 255.509C164.407 255.509 163.956 255.82 163.71 256.442C163.583 256.772 163.52 257.191 163.52 257.699C163.52 258.503 163.734 259.068 164.161 259.394C164.415 259.584 164.715 259.68 165.062 259.68C165.566 259.68 165.949 259.485 166.211 259.096C166.478 258.706 166.611 258.188 166.611 257.541ZM170.08 251.644H171.889V261H170.08V251.644ZM174.17 254.83C174.648 254.221 175.469 253.916 176.633 253.916C177.39 253.916 178.063 254.066 178.651 254.367C179.24 254.667 179.534 255.234 179.534 256.068V259.242C179.534 259.462 179.538 259.728 179.546 260.042C179.559 260.278 179.595 260.439 179.654 260.524C179.714 260.609 179.802 260.678 179.921 260.733V261H177.953C177.898 260.86 177.86 260.729 177.839 260.606C177.818 260.484 177.801 260.344 177.788 260.188C177.538 260.458 177.251 260.689 176.925 260.879C176.535 261.104 176.095 261.216 175.604 261.216C174.978 261.216 174.46 261.038 174.049 260.683C173.643 260.323 173.44 259.815 173.44 259.159C173.44 258.309 173.768 257.693 174.424 257.312C174.784 257.105 175.312 256.957 176.011 256.868L176.626 256.792C176.961 256.749 177.2 256.696 177.344 256.633C177.602 256.523 177.731 256.351 177.731 256.119C177.731 255.835 177.632 255.64 177.433 255.535C177.238 255.425 176.95 255.37 176.569 255.37C176.142 255.37 175.839 255.475 175.662 255.687C175.535 255.844 175.45 256.055 175.408 256.322H173.662C173.7 255.717 173.869 255.219 174.17 254.83ZM175.516 259.692C175.685 259.832 175.892 259.902 176.138 259.902C176.527 259.902 176.885 259.788 177.21 259.559C177.541 259.331 177.712 258.914 177.725 258.309V257.636C177.61 257.708 177.494 257.767 177.375 257.813C177.261 257.856 177.103 257.896 176.899 257.934L176.493 258.01C176.112 258.078 175.839 258.16 175.674 258.258C175.395 258.423 175.255 258.679 175.255 259.026C175.255 259.335 175.342 259.557 175.516 259.692ZM187.382 256.563H185.528C185.494 256.305 185.408 256.072 185.268 255.865C185.065 255.585 184.75 255.446 184.322 255.446C183.713 255.446 183.296 255.748 183.072 256.354C182.953 256.675 182.894 257.103 182.894 257.636C182.894 258.144 182.953 258.552 183.072 258.861C183.288 259.436 183.694 259.724 184.291 259.724C184.714 259.724 185.014 259.61 185.192 259.381C185.37 259.153 185.478 258.857 185.516 258.493H187.363C187.32 259.043 187.122 259.563 186.766 260.054C186.199 260.846 185.359 261.241 184.246 261.241C183.133 261.241 182.314 260.911 181.79 260.251C181.265 259.591 181.002 258.734 181.002 257.68C181.002 256.491 181.292 255.566 181.872 254.906C182.452 254.246 183.252 253.916 184.271 253.916C185.139 253.916 185.848 254.111 186.398 254.5C186.952 254.889 187.28 255.577 187.382 256.563ZM194.805 258.969C194.758 259.379 194.544 259.796 194.164 260.219C193.571 260.892 192.742 261.229 191.675 261.229C190.795 261.229 190.019 260.945 189.346 260.378C188.673 259.811 188.336 258.888 188.336 257.61C188.336 256.413 188.639 255.494 189.244 254.855C189.854 254.216 190.643 253.897 191.612 253.897C192.187 253.897 192.706 254.005 193.167 254.221C193.628 254.437 194.009 254.777 194.31 255.243C194.58 255.653 194.756 256.129 194.836 256.671C194.883 256.988 194.902 257.445 194.894 258.042H190.158C190.184 258.736 190.402 259.223 190.812 259.502C191.062 259.675 191.362 259.762 191.713 259.762C192.086 259.762 192.388 259.656 192.621 259.445C192.748 259.331 192.86 259.172 192.958 258.969H194.805ZM193.015 256.849C192.985 256.37 192.839 256.009 192.577 255.763C192.319 255.514 191.997 255.389 191.612 255.389C191.193 255.389 190.867 255.52 190.634 255.782C190.406 256.045 190.262 256.4 190.203 256.849H193.015ZM202.621 256.938V261H200.774V256.792C200.774 256.419 200.71 256.119 200.583 255.89C200.418 255.569 200.105 255.408 199.644 255.408C199.166 255.408 198.802 255.569 198.552 255.89C198.307 256.208 198.184 256.662 198.184 257.255V261H196.381V251.675H198.184V254.982C198.446 254.58 198.749 254.301 199.092 254.145C199.439 253.984 199.803 253.903 200.184 253.903C200.611 253.903 200.998 253.977 201.345 254.125C201.696 254.274 201.984 254.5 202.208 254.805C202.399 255.063 202.515 255.329 202.558 255.604C202.6 255.875 202.621 256.32 202.621 256.938ZM210.336 254.957C210.92 255.689 211.212 256.555 211.212 257.553C211.212 258.569 210.92 259.438 210.336 260.162C209.752 260.882 208.865 261.241 207.676 261.241C206.487 261.241 205.601 260.882 205.017 260.162C204.433 259.438 204.141 258.569 204.141 257.553C204.141 256.555 204.433 255.689 205.017 254.957C205.601 254.225 206.487 253.859 207.676 253.859C208.865 253.859 209.752 254.225 210.336 254.957ZM207.67 255.389C207.141 255.389 206.733 255.577 206.445 255.954C206.161 256.326 206.02 256.859 206.02 257.553C206.02 258.247 206.161 258.783 206.445 259.159C206.733 259.536 207.141 259.724 207.67 259.724C208.199 259.724 208.605 259.536 208.889 259.159C209.172 258.783 209.314 258.247 209.314 257.553C209.314 256.859 209.172 256.326 208.889 255.954C208.605 255.577 208.199 255.389 207.67 255.389ZM212.801 251.644H214.61V261H212.801V251.644ZM222.928 251.656V261H221.17V260.042C220.912 260.452 220.618 260.75 220.288 260.937C219.958 261.123 219.547 261.216 219.056 261.216C218.248 261.216 217.567 260.89 217.012 260.238C216.462 259.582 216.187 258.742 216.187 257.718C216.187 256.538 216.458 255.609 217 254.932C217.545 254.255 218.273 253.916 219.183 253.916C219.602 253.916 219.974 254.009 220.3 254.195C220.626 254.377 220.891 254.631 221.094 254.957V251.656H222.928ZM218.053 257.585C218.053 258.224 218.18 258.734 218.434 259.115C218.684 259.5 219.065 259.692 219.577 259.692C220.089 259.692 220.478 259.502 220.745 259.121C221.011 258.74 221.145 258.247 221.145 257.642C221.145 256.796 220.931 256.191 220.503 255.827C220.241 255.607 219.936 255.497 219.589 255.497C219.06 255.497 218.671 255.698 218.421 256.1C218.176 256.497 218.053 256.993 218.053 257.585ZM230.751 258.969C230.704 259.379 230.491 259.796 230.11 260.219C229.517 260.892 228.688 261.229 227.622 261.229C226.741 261.229 225.965 260.945 225.292 260.378C224.619 259.811 224.283 258.888 224.283 257.61C224.283 256.413 224.585 255.494 225.19 254.855C225.8 254.216 226.589 253.897 227.558 253.897C228.134 253.897 228.652 254.005 229.113 254.221C229.575 254.437 229.955 254.777 230.256 255.243C230.527 255.653 230.702 256.129 230.783 256.671C230.829 256.988 230.848 257.445 230.84 258.042H226.104C226.13 258.736 226.348 259.223 226.758 259.502C227.008 259.675 227.308 259.762 227.66 259.762C228.032 259.762 228.335 259.656 228.567 259.445C228.694 259.331 228.806 259.172 228.904 258.969H230.751ZM228.961 256.849C228.931 256.37 228.785 256.009 228.523 255.763C228.265 255.514 227.943 255.389 227.558 255.389C227.139 255.389 226.813 255.52 226.581 255.782C226.352 256.045 226.208 256.4 226.149 256.849H228.961ZM235.793 255.75C235.066 255.75 234.577 255.987 234.327 256.461C234.188 256.728 234.118 257.139 234.118 257.693V261H232.296V254.081H234.022V255.287C234.302 254.826 234.545 254.511 234.752 254.341C235.091 254.058 235.531 253.916 236.073 253.916C236.107 253.916 236.134 253.918 236.155 253.922C236.181 253.922 236.234 253.924 236.314 253.929V255.782C236.2 255.77 236.098 255.761 236.009 255.757C235.92 255.753 235.848 255.75 235.793 255.75Z" fill="#16191F" fill-opacity="0.48"/>
<line x1="149" y1="271.5" x2="269" y2="271.5" stroke="#B02B2B" stroke-width="3"/>
<path d="M390.43 179.018V181.098L389.111 181.146C387.796 181.192 386.898 180.964 386.416 180.463C386.104 180.144 385.947 179.652 385.947 178.988V172.436H384.463V170.453H385.947V167.484H388.701V170.453H390.43V172.436H388.701V178.061C388.701 178.497 388.757 178.77 388.867 178.881C388.978 178.985 389.316 179.037 389.883 179.037C389.967 179.037 390.055 179.037 390.146 179.037C390.244 179.031 390.339 179.024 390.43 179.018Z" fill="#DA3170"/>
<path d="M383.156 181H379.689L377.854 177.807L376.008 181H372.629L376.262 175.609L372.785 170.375H376.193L377.971 173.461L379.709 170.375H383.02L379.523 175.561L383.156 181Z" fill="#DA3170"/>
<path d="M370.902 177.875C370.831 178.507 370.502 179.148 369.916 179.799C369.005 180.834 367.729 181.352 366.088 181.352C364.734 181.352 363.539 180.915 362.504 180.043C361.469 179.171 360.951 177.751 360.951 175.785C360.951 173.943 361.417 172.53 362.348 171.547C363.285 170.564 364.499 170.072 365.99 170.072C366.876 170.072 367.673 170.238 368.383 170.57C369.092 170.902 369.678 171.426 370.141 172.143C370.557 172.774 370.827 173.507 370.951 174.34C371.023 174.828 371.052 175.531 371.039 176.449H363.754C363.793 177.517 364.128 178.266 364.76 178.695C365.144 178.962 365.606 179.096 366.146 179.096C366.719 179.096 367.185 178.933 367.543 178.607C367.738 178.432 367.911 178.188 368.061 177.875H370.902ZM368.148 174.613C368.103 173.878 367.878 173.321 367.475 172.943C367.077 172.559 366.583 172.367 365.99 172.367C365.346 172.367 364.844 172.569 364.486 172.973C364.135 173.376 363.913 173.923 363.822 174.613H368.148Z" fill="#DA3170"/>
<path d="M360.982 166.605V169.154H356.676V181H353.648V169.154H349.322V166.605H360.982Z" fill="#DA3170"/>
<path d="M119 125C116.515 125 114.5 127.015 114.5 129.5V155C114.5 155.828 115.172 156.5 116 156.5C116.254 156.5 116.505 156.435 116.727 156.312L125 151.728L133.273 156.312C133.495 156.435 133.745 156.5 134 156.5C134.828 156.5 135.5 155.828 135.5 155V129.5C135.5 127.015 133.485 125 131 125H119Z" fill="#DA3170"/>
<path fill-rule="evenodd" clip-rule="evenodd" d="M106.768 223.816L105.146 225.547C104.785 225.933 104.583 226.442 104.583 226.971V248.667C104.583 249.817 105.517 250.75 106.668 250.75H124.722C127.588 250.75 129.602 249.668 130.997 247.943C132.217 246.435 132.884 244.509 133.41 242.99L133.462 242.84C134.054 241.133 134.638 239.062 135.076 237.134C135.504 235.255 135.833 233.335 135.833 232C135.833 230.208 134.925 228.612 133.783 227.515C132.637 226.413 131.014 225.578 129.236 225.578L122.003 225.578L122.247 224.933C122.978 222.998 123.859 220.632 124.434 218.975C125.207 216.743 124.814 214.362 123.592 212.803C122.971 212.011 122.022 211.306 120.794 211.185C119.518 211.059 118.372 211.606 117.499 212.485C116.397 213.595 113.295 216.875 110.497 219.847C109.092 221.34 107.754 222.765 106.768 223.816ZM120.497 217.61C120.817 216.686 120.626 215.884 120.39 215.487C119.281 216.61 116.293 219.769 113.531 222.703C112.128 224.194 110.792 225.617 109.807 226.667L108.75 227.794V246.584H124.722C126.37 246.584 127.178 246.039 127.758 245.322C128.472 244.439 128.931 243.189 129.525 241.475C130.061 239.928 130.605 238.006 131.013 236.21C131.432 234.367 131.667 232.835 131.667 232C131.667 231.623 131.447 231.049 130.896 230.519C130.349 229.994 129.716 229.744 129.236 229.744L118.977 229.745C118.29 229.745 117.648 229.406 117.259 228.84C116.871 228.273 116.787 227.551 117.034 226.91C117.034 226.91 117.034 226.911 118.977 227.661L117.034 226.91L117.136 226.644C117.203 226.472 117.299 226.221 117.418 225.91C117.656 225.288 117.985 224.425 118.349 223.461C119.08 221.526 119.943 219.207 120.497 217.61Z" fill="#6A82D9"/>
<path d="M96.25 225.75C95.0994 225.75 94.1666 226.683 94.1666 227.833V248.667C94.1666 249.817 95.0994 250.75 96.25 250.75H98.3333C99.4839 250.75 100.417 249.817 100.417 248.667V227.833C100.417 226.683 99.4839 225.75 98.3333 225.75H96.25Z" fill="#6A82D9"/>
<rect x="207" y="38" width="114.818" height="56" rx="28" fill="#DA3170"/>
<path d="M238.933 71.8172C238.497 71.2179 238.144 70.562 237.885 69.8676C237.813 69.6743 237.686 69.5065 237.519 69.3855L235.364 67.8267C234.756 67.3856 234.266 66.8015 233.937 66.126C233.608 65.4504 233.45 64.7042 233.478 63.9534C233.506 63.2025 233.719 62.4701 234.097 61.8209C234.475 61.1717 235.008 60.6257 235.647 60.2312C235.813 60.1306 235.934 59.9699 235.984 59.7825C236.035 59.595 236.011 59.3954 235.918 59.2252C235.868 59.1394 235.803 59.0644 235.724 59.0045C235.645 58.9446 235.556 58.9011 235.46 58.8766C235.364 58.8521 235.264 58.847 235.167 58.8617C235.069 58.8764 234.975 58.9106 234.891 58.9622C234.042 59.4824 233.334 60.204 232.831 61.0631C232.327 61.9222 232.044 62.8922 232.005 63.8872C231.966 64.8821 232.173 65.8713 232.608 66.7671C233.042 67.6629 233.691 68.4376 234.497 69.0226L239.036 72.3066C239.056 72.3212 239.081 72.3281 239.106 72.3261C239.13 72.3241 239.154 72.3134 239.171 72.2957C239.189 72.2781 239.2 72.2548 239.202 72.2299C239.204 72.2051 239.197 72.1804 239.182 72.1603L238.933 71.8172Z" fill="white"/>
<path d="M239.309 61.6989C239.32 61.6866 239.327 61.6721 239.331 61.6564C239.335 61.6408 239.336 61.6244 239.332 61.6087C239.329 61.5929 239.322 61.5781 239.312 61.5655C239.302 61.5528 239.289 61.5427 239.274 61.5358C238.895 61.3549 238.481 61.262 238.061 61.2639C237.609 61.2643 237.164 61.3712 236.761 61.576C236.358 61.7808 236.01 62.0778 235.743 62.4427C235.298 63.0551 235.114 63.8189 235.232 64.5667C235.35 65.3144 235.759 65.985 236.37 66.4312L236.372 66.4321L237.205 67.0349C237.22 67.0462 237.239 67.0529 237.258 67.0544C237.277 67.0558 237.297 67.0519 237.314 67.0431C237.331 67.0342 237.345 67.0208 237.355 67.0043C237.365 66.9879 237.371 66.9689 237.371 66.9496C237.383 65.0265 238.069 63.1684 239.309 61.6989Z" fill="white"/>
<path d="M237.325 59.6611C237.788 59.6611 238.163 59.2862 238.163 58.8237C238.163 58.3612 237.788 57.9863 237.325 57.9863C236.863 57.9863 236.488 58.3612 236.488 58.8237C236.488 59.2862 236.863 59.6611 237.325 59.6611Z" fill="white"/>
<path d="M244.295 58.6673L241.165 60.9419C239.558 62.1089 238.481 63.8662 238.171 65.8273C237.86 67.7883 238.341 69.7925 239.508 71.3988L241.315 73.8859C241.444 74.0627 241.606 74.2124 241.792 74.3265C241.978 74.4407 242.185 74.517 242.401 74.5512C242.617 74.5854 242.837 74.5767 243.05 74.5257C243.262 74.4747 243.462 74.3824 243.639 74.254L251.48 68.5569C252.792 67.6041 253.671 66.1694 253.925 64.5683C254.178 62.9672 253.785 61.331 252.833 60.0195C251.88 58.7081 250.445 57.8289 248.844 57.5753C247.243 57.3217 245.607 57.7145 244.295 58.6673Z" fill="white"/>
<path d="M239.252 59.701C239.751 59.8369 240.224 60.0567 240.649 60.351C240.667 60.3634 240.688 60.3699 240.709 60.3698C240.731 60.3696 240.752 60.3628 240.769 60.3501C241.004 60.1794 241.852 59.5632 241.852 59.5632C241.865 59.5534 241.876 59.5407 241.884 59.5259C241.891 59.5111 241.895 59.4948 241.895 59.4782C241.895 59.4616 241.891 59.4453 241.883 59.4306C241.876 59.4159 241.865 59.4031 241.851 59.3935L241.619 59.2267C241.014 58.7851 240.332 58.4598 239.608 58.2674C239.513 58.242 239.413 58.2361 239.315 58.25C239.217 58.2639 239.123 58.2973 239.038 58.3482C238.954 58.3992 238.88 58.4666 238.822 58.5465C238.764 58.6265 238.722 58.7173 238.7 58.8135C238.66 59.0041 238.695 59.2028 238.798 59.3682C238.9 59.5335 239.063 59.6528 239.252 59.701Z" fill="white"/>
<path d="M297.706 69.1445C297.649 69.6497 297.386 70.1628 296.917 70.6836C296.188 71.5117 295.167 71.9258 293.855 71.9258C292.771 71.9258 291.816 71.5768 290.988 70.8789C290.159 70.181 289.745 69.0456 289.745 67.4727C289.745 65.9987 290.118 64.8685 290.863 64.082C291.613 63.2956 292.584 62.9023 293.777 62.9023C294.485 62.9023 295.123 63.0352 295.691 63.3008C296.258 63.5664 296.727 63.9857 297.097 64.5586C297.43 65.0638 297.646 65.6497 297.745 66.3164C297.803 66.707 297.826 67.2695 297.816 68.0039H291.988C292.019 68.8581 292.287 69.457 292.792 69.8008C293.1 70.0143 293.469 70.1211 293.902 70.1211C294.36 70.1211 294.732 69.9909 295.019 69.7305C295.175 69.5898 295.313 69.3945 295.433 69.1445H297.706ZM295.503 66.5352C295.467 65.9466 295.287 65.5013 294.964 65.1992C294.646 64.8919 294.251 64.7383 293.777 64.7383C293.261 64.7383 292.86 64.8997 292.573 65.2227C292.292 65.5456 292.115 65.9831 292.042 66.5352H295.503Z" fill="white"/>
<path d="M287.653 63.1289V71.6445H285.395V63.1289H287.653ZM287.653 60.0586V62.1133H285.395V60.0586H287.653Z" fill="white"/>
<path d="M279.608 71.8711C278.905 71.8711 278.34 71.7305 277.912 71.4492C277.657 71.2826 277.381 70.9909 277.084 70.5742V71.6445H274.905V60.1445H277.123V64.2383C277.405 63.8424 277.715 63.5404 278.053 63.332C278.454 63.0716 278.965 62.9414 279.584 62.9414C280.704 62.9414 281.579 63.3451 282.209 64.1523C282.845 64.9596 283.162 66.0013 283.162 67.2773C283.162 68.6003 282.85 69.6966 282.225 70.5664C281.6 71.4362 280.728 71.8711 279.608 71.8711ZM280.827 67.5117C280.827 66.9076 280.748 66.4076 280.592 66.0117C280.295 65.2617 279.748 64.8867 278.952 64.8867C278.144 64.8867 277.59 65.2539 277.287 65.9883C277.131 66.3789 277.053 66.8841 277.053 67.5039C277.053 68.2331 277.215 68.8372 277.537 69.3164C277.86 69.7956 278.353 70.0352 279.014 70.0352C279.587 70.0352 280.032 69.8034 280.35 69.3398C280.668 68.8763 280.827 68.2669 280.827 67.5117Z" fill="white"/>
<path d="M269.812 67.207V60.1289H272.258V67.207C272.258 68.431 272.068 69.3841 271.688 70.0664C270.979 71.3164 269.628 71.9414 267.633 71.9414C265.638 71.9414 264.284 71.3164 263.57 70.0664C263.19 69.3841 263 68.431 263 67.207V60.1289H265.445V67.207C265.445 67.9987 265.539 68.5768 265.727 68.9414C266.018 69.5872 266.654 69.9102 267.633 69.9102C268.607 69.9102 269.24 69.5872 269.531 68.9414C269.719 68.5768 269.812 67.9987 269.812 67.207Z" fill="white"/>
<rect x="11" y="101" width="22" height="22" rx="3" fill="#3959CC"/>
<path fill-rule="evenodd" clip-rule="evenodd" d="M29.4032 107.93C29.81 108.337 29.81 108.996 29.4032 109.403L21.0699 117.737C20.6631 118.143 20.0035 118.143 19.5967 117.737L14.5967 112.737C14.1899 112.33 14.1899 111.67 14.5967 111.263C15.0035 110.857 15.6631 110.857 16.0699 111.263L20.3333 115.527L27.9301 107.93C28.3369 107.523 28.9964 107.523 29.4032 107.93Z" fill="white"/>
<rect x="11" y="101" width="22" height="22" rx="3" stroke="#3959CC" stroke-width="2"/>
<path d="M43.2188 106.484H45.625V115.93H51.3281V118H43.2188V106.484ZM53.7406 110.406C54.3292 109.656 55.3396 109.281 56.7719 109.281C57.7042 109.281 58.5323 109.466 59.2563 109.836C59.9802 110.206 60.3422 110.904 60.3422 111.93V115.836C60.3422 116.107 60.3474 116.435 60.3578 116.82C60.3734 117.112 60.4177 117.31 60.4906 117.414C60.5635 117.518 60.6729 117.604 60.8188 117.672V118H58.3969C58.3292 117.828 58.2823 117.667 58.2563 117.516C58.2302 117.365 58.2094 117.193 58.1938 117C57.8865 117.333 57.5323 117.617 57.1313 117.852C56.6521 118.128 56.1104 118.266 55.5063 118.266C54.7354 118.266 54.0974 118.047 53.5922 117.609C53.0922 117.167 52.8422 116.542 52.8422 115.734C52.8422 114.688 53.2458 113.93 54.0531 113.461C54.4958 113.206 55.1469 113.023 56.0063 112.914L56.7641 112.82C57.1755 112.768 57.4698 112.703 57.6469 112.625C57.9646 112.49 58.1234 112.279 58.1234 111.992C58.1234 111.643 58.001 111.404 57.7563 111.273C57.5167 111.138 57.1625 111.07 56.6938 111.07C56.1677 111.07 55.7953 111.201 55.5766 111.461C55.4203 111.654 55.3161 111.914 55.2641 112.242H53.1156C53.1625 111.497 53.3708 110.885 53.7406 110.406ZM55.3969 116.391C55.6052 116.562 55.8604 116.648 56.1625 116.648C56.6417 116.648 57.0818 116.508 57.4828 116.227C57.8891 115.945 58.1 115.432 58.1156 114.688V113.859C57.975 113.948 57.8318 114.021 57.6859 114.078C57.5453 114.13 57.35 114.18 57.1 114.227L56.6 114.32C56.1313 114.404 55.7953 114.505 55.5922 114.625C55.2484 114.828 55.0766 115.143 55.0766 115.57C55.0766 115.951 55.1833 116.224 55.3969 116.391ZM67.5516 118.227C66.8484 118.227 66.2833 118.086 65.8563 117.805C65.601 117.638 65.325 117.346 65.0281 116.93V118H62.8484V106.5H65.0672V110.594C65.3484 110.198 65.6583 109.896 65.9969 109.688C66.3979 109.427 66.9083 109.297 67.5281 109.297C68.6479 109.297 69.5229 109.701 70.1531 110.508C70.7885 111.315 71.1063 112.357 71.1063 113.633C71.1063 114.956 70.7938 116.052 70.1688 116.922C69.5438 117.792 68.6714 118.227 67.5516 118.227ZM68.7703 113.867C68.7703 113.263 68.6922 112.763 68.5359 112.367C68.2391 111.617 67.6922 111.242 66.8953 111.242C66.088 111.242 65.5333 111.609 65.2313 112.344C65.075 112.734 64.9969 113.24 64.9969 113.859C64.9969 114.589 65.1583 115.193 65.4813 115.672C65.8042 116.151 66.2964 116.391 66.9578 116.391C67.5307 116.391 67.976 116.159 68.2938 115.695C68.6115 115.232 68.7703 114.622 68.7703 113.867ZM80.5969 115.5C80.5396 116.005 80.2766 116.518 79.8078 117.039C79.0786 117.867 78.0578 118.281 76.7453 118.281C75.662 118.281 74.7062 117.932 73.8781 117.234C73.05 116.536 72.6359 115.401 72.6359 113.828C72.6359 112.354 73.0083 111.224 73.7531 110.438C74.5031 109.651 75.4745 109.258 76.6672 109.258C77.3755 109.258 78.0135 109.391 78.5812 109.656C79.149 109.922 79.6177 110.341 79.9875 110.914C80.3208 111.419 80.537 112.005 80.6359 112.672C80.6932 113.062 80.7167 113.625 80.7062 114.359H74.8781C74.9094 115.214 75.1776 115.812 75.6828 116.156C75.9901 116.37 76.3599 116.477 76.7922 116.477C77.2505 116.477 77.6229 116.346 77.9094 116.086C78.0656 115.945 78.2036 115.75 78.3234 115.5H80.5969ZM78.3937 112.891C78.3573 112.302 78.1776 111.857 77.8547 111.555C77.537 111.247 77.1411 111.094 76.6672 111.094C76.1516 111.094 75.7505 111.255 75.4641 111.578C75.1828 111.901 75.0057 112.339 74.9328 112.891H78.3937ZM82.8609 106.484H85.0875V118H82.8609V106.484Z" fill="#16191F" fill-opacity="0.9"/>
<rect x="198" y="201" width="165" height="28" rx="14" fill="#DA3170"/>
<path d="M275.628 219.26C274.29 219.26 273.268 218.896 272.562 218.168C271.614 217.276 271.14 215.989 271.14 214.309C271.14 212.595 271.614 211.309 272.562 210.45C273.268 209.722 274.29 209.358 275.628 209.358C276.965 209.358 277.987 209.722 278.693 210.45C279.637 211.309 280.109 212.595 280.109 214.309C280.109 215.989 279.637 217.276 278.693 218.168C277.987 218.896 276.965 219.26 275.628 219.26ZM277.475 216.747C277.928 216.175 278.154 215.363 278.154 214.309C278.154 213.26 277.925 212.449 277.468 211.878C277.016 211.302 276.402 211.015 275.628 211.015C274.853 211.015 274.235 211.3 273.774 211.872C273.313 212.443 273.082 213.255 273.082 214.309C273.082 215.363 273.313 216.175 273.774 216.747C274.235 217.318 274.853 217.604 275.628 217.604C276.402 217.604 277.018 217.318 277.475 216.747ZM290.387 219H287.873L284.985 214.912L284.052 215.871V219H282.129V209.644H284.052V213.497L287.664 209.644H290.19L286.356 213.497L290.387 219Z" fill="white"/>
<path fill-rule="evenodd" clip-rule="evenodd" d="M114.555 65.1266C114.789 63.9385 115.813 63.0834 117.003 63.0834H121.996C123.187 63.0834 124.211 63.9385 124.445 65.1266L125.773 71.8891C127.3 72.4871 128.723 73.297 130.009 74.2833L136.35 71.8452C137.463 71.4171 138.719 71.8485 139.349 72.876L141.995 77.1869C142.626 78.2144 142.457 79.5522 141.59 80.3833L136.66 85.1153C136.867 86.211 136.976 87.3426 136.976 88.5C136.976 89.6575 136.867 90.7891 136.66 91.8848L141.59 96.6166C142.456 97.4477 142.626 98.7854 141.995 99.813L139.349 104.124C138.718 105.151 137.463 105.583 136.35 105.155L130.009 102.717C128.723 103.703 127.3 104.513 125.773 105.111L124.445 111.873C124.211 113.061 123.186 113.917 121.996 113.917H117.003C115.813 113.917 114.789 113.061 114.555 111.873L113.227 105.111C111.7 104.513 110.277 103.704 108.992 102.718L102.65 105.156C101.536 105.584 100.281 105.153 99.6504 104.125L97.0044 99.8145C96.3738 98.7869 96.5432 97.4492 97.4091 96.6181L102.34 91.8863C102.132 90.7901 102.023 89.658 102.023 88.5C102.023 87.3426 102.132 86.2108 102.339 85.1148L97.4094 80.3835C96.5434 79.5524 96.374 78.2146 97.0047 77.1871L99.6507 72.8762C100.281 71.8487 101.537 71.4173 102.65 71.8453L108.991 74.2832C110.276 73.2968 111.7 72.4868 113.227 71.8888L114.555 65.1266ZM119.5 98.6667C125.015 98.6667 129.486 94.1148 129.486 88.5C129.486 82.8851 125.015 78.3334 119.5 78.3334C113.984 78.3334 109.513 82.8851 109.513 88.5C109.513 94.1148 113.984 98.6667 119.5 98.6667Z" fill="#3959CC"/>
<rect x="260" width="58" height="28" rx="14" fill="#DB3939"/>
<path d="M273.271 18H269.24V8.64355H273.271C273.85 8.65202 274.333 8.71973 274.718 8.84668C275.374 9.0625 275.905 9.45817 276.311 10.0337C276.637 10.4992 276.859 11.0028 276.978 11.5444C277.096 12.0861 277.155 12.6024 277.155 13.0933C277.155 14.3374 276.906 15.3911 276.406 16.2544C275.729 17.4181 274.684 18 273.271 18ZM274.724 11.0303C274.424 10.5225 273.829 10.2686 272.941 10.2686H271.138V16.375H272.941C273.863 16.375 274.506 15.9201 274.87 15.0103C275.069 14.5109 275.169 13.9163 275.169 13.2266C275.169 12.2744 275.02 11.5423 274.724 11.0303ZM284.901 15.9688C284.854 16.3792 284.64 16.7961 284.26 17.2192C283.667 17.8921 282.838 18.2285 281.771 18.2285C280.891 18.2285 280.115 17.945 279.442 17.3779C278.769 16.8109 278.432 15.8883 278.432 14.6104C278.432 13.4128 278.735 12.4945 279.34 11.8555C279.95 11.2165 280.739 10.897 281.708 10.897C282.283 10.897 282.802 11.0049 283.263 11.2207C283.724 11.4365 284.105 11.7772 284.406 12.2427C284.676 12.6532 284.852 13.1292 284.932 13.6709C284.979 13.9883 284.998 14.4453 284.99 15.042H280.254C280.28 15.736 280.498 16.2227 280.908 16.502C281.158 16.6755 281.458 16.7622 281.809 16.7622C282.182 16.7622 282.484 16.6564 282.717 16.4448C282.844 16.3306 282.956 16.1719 283.054 15.9688H284.901ZM283.111 13.8486C283.081 13.3704 282.935 13.0086 282.673 12.7632C282.415 12.5135 282.093 12.3887 281.708 12.3887C281.289 12.3887 280.963 12.5199 280.73 12.7822C280.502 13.0446 280.358 13.4001 280.299 13.8486H283.111ZM286.743 8.64355H288.552V18H286.743V8.64355ZM296.735 15.9688C296.689 16.3792 296.475 16.7961 296.094 17.2192C295.502 17.8921 294.672 18.2285 293.606 18.2285C292.726 18.2285 291.949 17.945 291.276 17.3779C290.603 16.8109 290.267 15.8883 290.267 14.6104C290.267 13.4128 290.57 12.4945 291.175 11.8555C291.784 11.2165 292.573 10.897 293.542 10.897C294.118 10.897 294.636 11.0049 295.098 11.2207C295.559 11.4365 295.94 11.7772 296.24 12.2427C296.511 12.6532 296.687 13.1292 296.767 13.6709C296.814 13.9883 296.833 14.4453 296.824 15.042H292.089C292.114 15.736 292.332 16.2227 292.743 16.502C292.992 16.6755 293.293 16.7622 293.644 16.7622C294.016 16.7622 294.319 16.6564 294.552 16.4448C294.679 16.3306 294.791 16.1719 294.888 15.9688H296.735ZM294.945 13.8486C294.916 13.3704 294.77 13.0086 294.507 12.7632C294.249 12.5135 293.927 12.3887 293.542 12.3887C293.123 12.3887 292.798 12.5199 292.565 12.7822C292.336 13.0446 292.192 13.4001 292.133 13.8486H294.945ZM301.707 16.7114V18.0635L300.85 18.0952C299.995 18.1248 299.411 17.9767 299.098 17.6509C298.895 17.4435 298.793 17.124 298.793 16.6924V12.4331H297.828V11.1445H298.793V9.21484H300.583V11.1445H301.707V12.4331H300.583V16.0894C300.583 16.3729 300.619 16.5506 300.691 16.6226C300.763 16.6903 300.983 16.7241 301.351 16.7241C301.406 16.7241 301.463 16.7241 301.523 16.7241C301.586 16.7199 301.647 16.7157 301.707 16.7114ZM309.281 15.9688C309.234 16.3792 309.02 16.7961 308.64 17.2192C308.047 17.8921 307.218 18.2285 306.151 18.2285C305.271 18.2285 304.495 17.945 303.822 17.3779C303.149 16.8109 302.812 15.8883 302.812 14.6104C302.812 13.4128 303.115 12.4945 303.72 11.8555C304.329 11.2165 305.119 10.897 306.088 10.897C306.663 10.897 307.182 11.0049 307.643 11.2207C308.104 11.4365 308.485 11.7772 308.786 12.2427C309.056 12.6532 309.232 13.1292 309.312 13.6709C309.359 13.9883 309.378 14.4453 309.37 15.042H304.634C304.66 15.736 304.878 16.2227 305.288 16.502C305.538 16.6755 305.838 16.7622 306.189 16.7622C306.562 16.7622 306.864 16.6564 307.097 16.4448C307.224 16.3306 307.336 16.1719 307.433 15.9688H309.281ZM307.491 13.8486C307.461 13.3704 307.315 13.0086 307.053 12.7632C306.794 12.5135 306.473 12.3887 306.088 12.3887C305.669 12.3887 305.343 12.5199 305.11 12.7822C304.882 13.0446 304.738 13.4001 304.679 13.8486H307.491Z" fill="white"/>
<path d="M71.5934 202.83C70.8006 201.722 69.1518 201.723 68.3612 202.834L58.3714 216.864C57.4358 218.178 58.3754 220 59.9886 220H64V240C64 241.105 64.8954 242 66 242H74C75.1046 242 76 241.105 76 240V220H80.0114C81.6264 220 82.5656 218.174 81.6262 216.861L71.5934 202.83Z" fill="#263F94"/>
<defs>
<clipPath id="clip0_91_413">
<rect width="32" height="32" fill="white" transform="translate(164 65)"/>
</clipPath>
</defs>
</svg>
