<svg width="180" height="72" viewBox="0 0 180 72" fill="none" xmlns="http://www.w3.org/2000/svg">
<path d="M26.4647 15.3701C26.0337 15.3701 25.6125 15.4979 25.2542 15.7373C24.8959 15.9767 24.6166 16.317 24.4517 16.7151C24.2868 17.1133 24.2436 17.5513 24.3277 17.974C24.4118 18.3966 24.6193 18.7849 24.924 19.0896C25.2287 19.3943 25.6169 19.6018 26.0395 19.6859C26.4622 19.77 26.9003 19.7269 27.2984 19.562C27.6965 19.3971 28.0368 19.1178 28.2763 18.7595C28.5157 18.4012 28.6435 17.98 28.6435 17.549C28.6429 16.9714 28.4131 16.4175 28.0047 16.009C27.5962 15.6005 27.0423 15.3708 26.4647 15.3701Z" fill="#3959CC"/>
<path d="M43.834 17.1595L36.0325 22.8276C34.0505 24.2677 32.3715 26.084 31.0914 28.1729C29.8113 30.2618 28.9552 32.5824 28.572 35.0022C28.1887 37.4219 28.2858 39.8935 28.8578 42.2757C29.4297 44.658 30.4652 46.9042 31.9052 48.8863L36.4083 55.0842C37.0546 55.9738 38.0278 56.5701 39.1138 56.7421C40.1998 56.9141 41.3096 56.6477 42.1991 56.0014L61.7396 41.8045C63.3578 40.6288 64.7286 39.1458 65.7737 37.4404C66.8188 35.7349 67.5177 33.8403 67.8306 31.8647C68.1435 29.8891 68.0643 27.8713 67.5973 25.9263C67.1304 23.9814 66.2849 22.1474 65.1092 20.5292L65.1092 20.5292C63.9335 18.911 62.4506 17.5402 60.7451 16.4951C59.0397 15.45 57.1451 14.751 55.1695 14.4381C53.1939 14.1252 51.176 14.2045 49.2311 14.6715C47.2861 15.1384 45.4522 15.9838 43.834 17.1595Z" fill="#F777A6"/>
<path d="M31.2102 19.7203C32.578 20.0851 33.8661 20.701 35.0087 21.5367L36.417 22.5483L39.5539 20.2692L37.1641 18.5528C35.6563 17.4525 33.9573 16.642 32.1535 16.1623C31.9197 16.0999 31.6759 16.0843 31.4361 16.1162C31.1963 16.1481 30.9651 16.2271 30.7559 16.3484C30.5466 16.4698 30.3633 16.6312 30.2164 16.8235C30.0696 17.0158 29.9621 17.2351 29.9001 17.4689C29.8381 17.7028 29.8228 17.9466 29.8551 18.1863C29.8874 18.4261 29.9667 18.6572 30.0884 18.8663C30.21 19.0754 30.3718 19.2584 30.5643 19.405C30.7568 19.5515 30.9763 19.6587 31.2102 19.7203Z" fill="#3959CC"/>
<path d="M36.4083 55.0842L31.9052 48.8863C31.3164 48.0757 30.7933 47.2194 30.3411 46.3254L21.5777 39.9847C20.0586 38.8835 18.835 37.4243 18.0152 35.7367C17.1955 34.049 16.805 32.1851 16.8785 30.3103C16.952 28.4356 17.4872 26.6079 18.4365 24.9896C19.3858 23.3713 20.72 22.0124 22.3205 21.0334C22.7359 20.7781 23.033 20.3683 23.1466 19.8941C23.2601 19.4199 23.1809 18.9201 22.9263 18.5042C22.6716 18.0884 22.2624 17.7906 21.7883 17.6762C21.3143 17.5619 20.8143 17.6402 20.3981 17.8942C18.2822 19.1905 16.5189 20.9888 15.2642 23.1296C14.0096 25.2704 13.3024 27.6877 13.2054 30.1672C13.1083 32.6467 13.6244 35.1118 14.7079 37.3441C15.7914 39.5764 17.4089 41.507 19.4169 42.9648L36.8029 55.5442C36.6604 55.4007 36.5285 55.247 36.4083 55.0842Z" fill="#3959CC"/>
<path d="M33.115 25.4547L32.481 24.9993C31.2703 24.104 29.8028 23.6238 28.2971 23.6304C27.1713 23.6313 26.0615 23.8977 25.058 24.408C24.0546 24.9183 23.1856 25.6582 22.5218 26.5675C21.413 28.0935 20.9548 29.9972 21.2478 31.8606C21.5409 33.7241 22.5612 35.3952 24.085 36.5072L24.0877 36.5092L28.4205 39.6442C28.184 37.0833 28.4789 34.5011 29.2867 32.0595C30.0945 29.6178 31.3978 27.3693 33.115 25.4547Z" fill="#3959CC"/>
<path d="M130.705 17.2638L129.278 18.3008C128.915 18.5642 128.608 18.8965 128.374 19.2787C128.139 19.6609 127.983 20.0854 127.913 20.5281C127.843 20.9708 127.86 21.423 127.965 21.8588C128.07 22.2947 128.259 22.7056 128.522 23.0682L129.346 24.2022C129.405 24.2827 129.479 24.351 129.564 24.403C129.649 24.4551 129.743 24.4899 129.841 24.5055C129.94 24.5211 130.04 24.5171 130.137 24.4939C130.234 24.4706 130.325 24.4285 130.406 24.3699L133.981 21.7726C134.277 21.5575 134.528 21.2862 134.719 20.9742C134.91 20.6622 135.038 20.3155 135.095 19.9541C135.152 19.5927 135.138 19.2235 135.052 18.8677C134.967 18.5118 134.812 18.1763 134.597 17.8803C134.163 17.2824 133.509 16.8815 132.779 16.7659C132.049 16.6503 131.303 16.8294 130.705 17.2638Z" fill="#3D4454"/>
<path d="M163.156 32.8511C163.156 32.8511 148.405 32.8531 148.202 32.8651H146.69C145.598 32.8651 144.55 33.2993 143.777 34.072C143.004 34.8447 142.57 35.8928 142.57 36.9856V38.6777C142.57 38.7979 142.594 38.917 142.64 39.0281C142.686 39.1392 142.753 39.2401 142.838 39.3252C142.923 39.4102 143.024 39.4776 143.135 39.5237C143.246 39.5697 143.365 39.5934 143.486 39.5934H163.156C164.113 39.5934 166.81 39.5934 166.81 36.2876C166.81 32.8945 164.156 32.8511 163.156 32.8511Z" fill="#3D4454"/>
<path d="M107.205 44.2171L100.692 44.2216C100.676 44.2216 100.661 44.2183 100.647 44.2118C100.634 44.2054 100.621 44.196 100.612 44.1843C100.602 44.1725 100.595 44.1588 100.591 44.1441C100.587 44.1293 100.586 44.1139 100.589 44.0988L103.254 29.2716C103.364 28.5593 103.421 27.84 103.426 27.1194C103.426 23.9771 101.489 22.2984 98.3036 22.2984L81.4738 22.295C81.2293 22.295 80.9948 22.3921 80.8219 22.565C80.649 22.7379 80.5519 22.9724 80.5519 23.2169V24.9205C80.5519 26.0207 80.9889 27.0759 81.7669 27.8539C82.5449 28.6318 83.6001 29.0689 84.7003 29.0689L94.3864 29.0565C95.3334 29.0565 95.8069 29.2716 95.8069 30.3477C95.8069 30.553 93.5581 42.9896 93.3505 44.1371C93.3462 44.161 93.3335 44.1826 93.3147 44.1981C93.2959 44.2136 93.2723 44.2219 93.248 44.2216L80.1015 44.2091C79.8792 44.2092 79.6573 44.2271 79.4378 44.2626C78.7875 44.3212 78.1708 44.5774 77.6705 44.9969C77.1385 45.381 76.7053 45.886 76.4067 46.4703C76.1081 47.0546 75.9526 47.7014 75.953 48.3576L75.953 50.0611C75.953 50.1822 75.9768 50.3021 76.0232 50.4139C76.0695 50.5258 76.1374 50.6274 76.223 50.713C76.3086 50.7986 76.4102 50.8665 76.5221 50.9129C76.6339 50.9592 76.7538 50.983 76.8749 50.983L107.205 50.9797C108.101 50.9797 108.961 50.6235 109.596 49.9893C110.23 49.3552 110.586 48.4952 110.586 47.5984C110.586 46.7016 110.23 45.8416 109.596 45.2075C108.961 44.5733 108.101 44.2171 107.205 44.2171Z" fill="#3D4454"/>
<path d="M139.419 17.2638L137.992 18.3008C137.26 18.8329 136.769 19.6341 136.627 20.5282C136.485 21.4222 136.705 22.3359 137.237 23.0683L138.061 24.2022C138.119 24.2828 138.193 24.351 138.278 24.4031C138.363 24.4551 138.457 24.4899 138.556 24.5055C138.654 24.5211 138.754 24.5172 138.851 24.4939C138.948 24.4706 139.039 24.4285 139.12 24.37L142.695 21.7726C142.991 21.5575 143.242 21.2862 143.433 20.9742C143.624 20.6622 143.752 20.3156 143.809 19.9542C143.867 19.5927 143.852 19.2235 143.767 18.8677C143.681 18.5119 143.527 18.1764 143.312 17.8803C143.096 17.5843 142.825 17.3335 142.513 17.1423C142.201 16.9511 141.854 16.8232 141.493 16.7659C141.132 16.7087 140.762 16.7232 140.407 16.8086C140.051 16.8941 139.715 17.0487 139.419 17.2638Z" fill="#3D4454"/>
<path d="M136.351 44.2651C136.351 44.2651 129.455 44.2716 129.376 44.2772C122.068 44.3241 122.092 44.3365 122.092 40.6204V37.2153C122.092 37.1924 122.099 37.1701 122.113 37.1519C122.127 37.1337 122.147 37.1206 122.169 37.1146L134.735 33.7035L134.736 33.7033C135.778 33.4285 136.668 32.7518 137.212 31.8215C137.756 30.8913 137.909 29.7834 137.637 28.7406L137.22 27.1398C137.16 26.9083 137.01 26.7103 136.804 26.5892C136.597 26.4682 136.351 26.434 136.12 26.4943L132.241 27.5048L132.238 27.4981L131.443 27.7125L131.035 27.8188C131.006 27.8264 130.979 27.8373 130.95 27.8456L122.223 30.2007C122.208 30.2049 122.192 30.2054 122.176 30.2023C122.16 30.1992 122.145 30.1925 122.133 30.1828C122.12 30.1731 122.11 30.1605 122.103 30.1462C122.095 30.1318 122.092 30.116 122.092 30.1V21.887C122.092 20.7353 121.634 19.6309 120.82 18.8165C120.006 18.0022 118.901 17.5447 117.75 17.5447H115.966C115.711 17.5447 115.465 17.6464 115.284 17.8274C115.103 18.0083 115.002 18.2538 115.002 18.5097V24.1315L115.002 24.1336L115.005 42.0751C115.005 50.9554 113.821 50.9554 129.501 50.9554H136.351C137.238 50.9554 138.089 50.603 138.716 49.9757C139.343 49.3483 139.696 48.4975 139.696 47.6103C139.696 46.7231 139.343 45.8723 138.716 45.2449C138.089 44.6176 137.238 44.2651 136.351 44.2651Z" fill="#3D4454"/>
</svg>
