<svg width="345" height="72" viewBox="0 0 345 72" fill="none" xmlns="http://www.w3.org/2000/svg">
<path d="M19.1062 11.6592C17.6168 11.6592 16.4355 12.8918 16.4355 14.3299C16.4355 15.8193 17.6682 17.0006 19.1062 17.0006C20.5957 17.0006 21.7769 15.7679 21.7769 14.3299C21.7769 12.8404 20.5957 11.6592 19.1062 11.6592Z" fill="#3959CC"/>
<path d="M40.5751 13.8675L30.9195 20.8524C20.6476 28.3509 18.3364 42.7315 25.8349 53.0548L31.3817 60.7074C33.0252 63.0185 36.2609 63.4808 38.5207 61.8373L62.6596 44.3237C71.0826 38.2119 72.9316 26.4506 66.8198 18.0276C60.7593 9.60465 48.998 7.75571 40.5751 13.8675Z" fill="#F777A6"/>
<path d="M24.9611 17.0517C26.656 17.5139 28.1968 18.2329 29.6349 19.3115L31.3811 20.5441L35.233 17.7193L32.3055 15.6136C30.4052 14.2269 28.3509 13.2511 26.091 12.6861C24.8584 12.378 23.6258 13.097 23.3176 14.2783C23.0095 15.4595 23.7799 16.6922 24.9611 17.0517Z" fill="#3959CC"/>
<path d="M31.3815 60.7071L25.8347 53.0546C25.1156 52.0274 24.448 51.0002 23.883 49.8703L13.0975 42.0636C10.0159 39.8552 8.01291 36.5682 7.44796 32.8703C6.883 29.1724 7.75612 25.4232 9.96458 22.393C11.0431 20.9035 12.4298 19.6195 14.022 18.6437C15.1005 17.976 15.4087 16.5893 14.7924 15.5108C14.1247 14.4322 12.738 14.1241 11.6594 14.7404C9.5537 16.0244 7.75612 17.6679 6.31805 19.6709C3.39056 23.6769 2.20929 28.6074 2.97968 33.538C3.75007 38.4685 6.42077 42.7827 10.4268 45.7102L31.8951 61.2721C31.6896 61.118 31.5356 60.9126 31.3815 60.7071Z" fill="#3959CC"/>
<path d="M27.3237 24.1395L26.5534 23.5745C25.0126 22.4446 23.2663 21.8796 21.366 21.8796C18.5413 21.8796 15.8706 23.215 14.2271 25.5262C12.8404 27.4778 12.2754 29.7376 12.6349 32.1002C12.9944 34.4627 14.2271 36.4144 16.1274 37.8524L21.4688 41.7044C20.9552 35.3358 22.9582 28.9673 27.3237 24.1395Z" fill="#3959CC"/>
<path d="M125.329 18.728V38.84C125.329 43.864 124.145 47.592 121.777 50.024C119.313 52.488 115.521 53.72 110.401 53.72C105.281 53.72 101.505 52.504 99.0726 50.072C96.6726 47.608 95.4726 43.864 95.4726 38.84V18.728H104.401V39.368C104.401 43.816 106.401 46.04 110.401 46.04C114.401 46.04 116.401 43.816 116.401 39.368V18.728H125.329ZM130.955 53V18.728H139.115V30.824H139.211C140.907 28.52 143.275 27.368 146.315 27.368C149.643 27.368 152.283 28.664 154.235 31.256C155.963 33.592 156.827 36.504 156.827 39.992C156.827 43.832 155.947 47 154.187 49.496C152.203 52.312 149.371 53.72 145.691 53.72C142.747 53.72 140.459 52.52 138.827 50.12H138.731V53H130.955ZM143.819 33.608C142.507 33.608 141.403 34.072 140.507 35C139.387 36.184 138.827 37.944 138.827 40.28C138.827 45.08 140.475 47.48 143.771 47.48C145.435 47.48 146.715 46.712 147.611 45.176C148.315 43.864 148.667 42.232 148.667 40.28C148.667 38.456 148.315 36.952 147.611 35.768C146.747 34.328 145.483 33.608 143.819 33.608ZM161.477 53V28.088H169.637V53H161.477ZM169.637 18.728V24.968H161.477V18.728H169.637ZM182.352 37.976H192.48C192.416 36.568 191.92 35.368 190.992 34.376C190.096 33.384 188.976 32.888 187.632 32.888C186.224 32.888 185.056 33.352 184.128 34.28C183.2 35.208 182.608 36.44 182.352 37.976ZM200.64 42.536H182.352C182.416 44.264 182.928 45.64 183.888 46.664C184.88 47.688 186.224 48.2 187.92 48.2C190.256 48.2 191.808 47.288 192.576 45.464H200.208C199.504 48.184 197.952 50.28 195.552 51.752C193.376 53.064 190.8 53.72 187.824 53.72C183.696 53.72 180.416 52.552 177.984 50.216C175.456 47.848 174.192 44.6 174.192 40.472C174.192 36.696 175.52 33.56 178.176 31.064C180.736 28.6 183.888 27.368 187.632 27.368C191.952 27.368 195.28 28.84 197.616 31.784C199.824 34.536 200.832 38.12 200.64 42.536Z" fill="#3D4454"/>
<path d="M242.273 18.728L231.185 53H220.913L210.113 18.728H219.425L226.145 44.216H226.241L232.961 18.728H242.273ZM244.79 53V28.088H252.95V53H244.79ZM252.95 18.728V24.968H244.79V18.728H252.95ZM273.729 28.088V33.368H268.689V44.696C268.689 46.296 269.665 47.096 271.617 47.096C271.841 47.096 272.177 47.08 272.625 47.048C273.105 47.016 273.473 47 273.729 47V53C273.345 53 272.609 53.048 271.521 53.144C270.561 53.208 269.809 53.24 269.265 53.24C265.809 53.24 263.489 52.632 262.305 51.416C261.121 50.2 260.529 47.88 260.529 44.456V33.368H256.401V28.088H260.529V20.552H268.689V28.088H273.729ZM284.177 45.848C284.177 47.736 285.313 48.68 287.585 48.68C289.505 48.68 290.833 48.104 291.569 46.952C292.337 45.8 292.673 43.928 292.577 41.336C292.065 41.656 290.977 41.976 289.313 42.296C287.649 42.616 286.497 42.936 285.857 43.256C284.737 43.832 284.177 44.696 284.177 45.848ZM284.657 35.768H277.025C277.281 30.168 281.217 27.368 288.833 27.368C292.353 27.368 295.025 27.88 296.849 28.904C299.249 30.248 300.449 32.52 300.449 35.72V46.616C300.449 49.56 300.769 51.688 301.409 53H293.201C293.009 52.488 292.849 51.704 292.721 50.648C290.769 52.696 288.033 53.72 284.513 53.72C282.017 53.72 280.001 53.112 278.465 51.896C276.833 50.552 276.017 48.648 276.017 46.184C276.017 43.72 276.849 41.864 278.513 40.616C279.761 39.656 281.665 38.952 284.225 38.504C286.337 38.184 288.433 37.864 290.513 37.544C291.953 37.256 292.673 36.488 292.673 35.24C292.673 34.376 292.225 33.704 291.329 33.224C290.593 32.84 289.729 32.648 288.737 32.648C286.401 32.648 285.041 33.688 284.657 35.768ZM306.102 53V18.728H314.262V53H306.102ZM318.577 44.792H326.353C326.353 45.976 326.801 46.904 327.697 47.576C328.465 48.152 329.473 48.44 330.721 48.44C331.681 48.44 332.513 48.248 333.217 47.864C334.113 47.384 334.561 46.696 334.561 45.8C334.561 44.968 334.081 44.328 333.121 43.88C332.769 43.752 331.921 43.512 330.577 43.16C328.817 42.776 327.057 42.376 325.297 41.96C323.313 41.416 321.841 40.696 320.881 39.8C319.633 38.648 319.009 37.048 319.009 35C319.009 32.28 320.289 30.264 322.849 28.952C324.865 27.896 327.377 27.368 330.385 27.368C337.809 27.368 341.633 30.056 341.857 35.432H334.321C334.321 33.576 333.105 32.648 330.673 32.648C328.337 32.648 327.169 33.272 327.169 34.52C327.169 35.512 328.241 36.312 330.385 36.92C332.369 37.304 334.369 37.704 336.385 38.12C338.625 38.6 340.305 39.592 341.425 41.096C342.289 42.248 342.721 43.496 342.721 44.84C342.721 47.912 341.425 50.232 338.833 51.8C336.721 53.08 334.033 53.72 330.769 53.72C327.345 53.72 324.609 53.096 322.561 51.848C320.001 50.344 318.673 47.992 318.577 44.792Z" fill="#3D4454"/>
</svg>
