<svg width="1640" height="226" viewBox="0 0 1640 226" fill="none" xmlns="http://www.w3.org/2000/svg">
<g clip-path="url(#clip0_138_522)">
<path d="M71.2718 5.77808C64.7818 5.77808 59.6348 11.0891 59.6348 17.2861C59.6348 23.7041 65.0058 28.7941 71.2718 28.7941C77.7618 28.7941 82.9088 23.4821 82.9088 17.2861C82.9088 10.8681 77.7618 5.77808 71.2718 5.77808Z" fill="#3959CC"/>
<path d="M164.821 15.2939L122.747 45.391C77.9882 77.702 67.9172 139.668 100.591 184.15L124.761 217.125C131.923 227.084 146.022 229.076 155.869 221.994L261.053 146.528C297.756 120.193 305.812 69.5139 279.181 33.2189C252.773 -3.07505 201.523 -11.0421 164.821 15.2939Z" fill="#F777A6"/>
<path d="M96.7849 29.0141C104.17 31.0061 110.884 34.1041 117.15 38.7521L124.759 44.0631L141.544 31.8911L128.788 22.8181C120.507 16.8421 111.555 12.6371 101.708 10.2031C96.3369 8.87506 90.9659 11.9741 89.6229 17.0641C88.2809 22.1541 91.6369 27.4651 96.7849 29.0141ZM124.76 217.125L100.59 184.15C97.4569 179.724 94.5479 175.298 92.0859 170.429L45.0889 136.79C31.6609 127.274 22.9329 113.111 20.4709 97.1771C18.0089 81.2421 21.8139 65.0871 31.4369 52.0301C36.1369 45.6121 42.1789 40.0791 49.1169 35.8751C53.8169 32.9981 55.1589 27.0221 52.4739 22.3751C49.5639 17.7271 43.5219 16.4001 38.8219 19.0551C29.6469 24.5881 21.8139 31.6701 15.5469 40.3011C2.79088 57.5631 -2.35611 78.8081 1.00089 100.054C4.35789 121.299 15.9949 139.889 33.4509 152.503L126.998 219.559C126.103 218.895 125.431 218.01 124.76 217.125Z" fill="#3959CC"/>
<path d="M107.08 59.5549L103.723 57.1209C97.0092 52.2519 89.4002 49.8179 81.1192 49.8179C68.8102 49.8179 57.1732 55.5719 50.0122 65.5309C43.9692 73.9399 41.5072 83.6779 43.0742 93.8579C44.6402 104.038 50.0122 112.448 58.2922 118.644L81.5672 135.242C79.3292 107.8 88.0572 80.3579 107.08 59.5549Z" fill="#3959CC"/>
<path d="M521.358 128.527C521.358 150.584 515.222 167.671 502.951 179.787C490.835 191.748 473.515 197.728 450.992 197.728C428.468 197.728 411.071 191.748 398.8 179.787C386.528 167.826 380.393 150.74 380.393 128.527V28.104H426.993V127.828C426.993 137.303 429.012 144.604 433.051 149.73C437.245 154.701 443.225 157.186 450.992 157.186C458.758 157.186 464.661 154.701 468.7 149.73C472.738 144.604 474.758 137.303 474.758 127.828V28.104H521.358V128.527ZM598.584 86.82C602.002 82.005 606.429 78.354 611.865 75.869C617.457 73.384 623.36 72.141 629.573 72.141C639.67 72.141 648.524 74.704 656.135 79.83C663.747 84.956 669.572 92.257 673.61 101.732C677.804 111.207 679.901 122.236 679.901 134.818C679.901 147.4 677.727 158.429 673.377 167.904C669.183 177.379 663.203 184.68 655.436 189.806C647.67 194.932 638.66 197.495 628.408 197.495C621.884 197.495 615.826 196.097 610.234 193.301C604.798 190.35 600.293 186.078 596.72 180.486H596.254V194H553.382V28.104H598.118V86.82H598.584ZM614.195 105.926C608.603 105.926 604.099 108.567 600.681 113.848C597.419 118.974 595.788 125.964 595.788 134.818C595.788 143.672 597.419 150.74 600.681 156.021C604.099 161.147 608.603 163.71 614.195 163.71C619.943 163.71 624.525 161.147 627.942 156.021C631.36 150.74 633.068 143.672 633.068 134.818C633.068 125.964 631.36 118.974 627.942 113.848C624.525 108.567 619.943 105.926 614.195 105.926ZM702.985 194V75.636H747.721V194H702.985ZM702.985 60.957V28.104H747.721V60.957H702.985ZM834.118 168.836C838.623 168.836 842.273 167.826 845.069 165.807C848.021 163.632 849.729 160.836 850.195 157.419H895.863C894.155 165.03 890.504 171.943 884.912 178.156C879.32 184.214 872.175 189.029 863.476 192.602C854.778 196.019 845.147 197.728 834.584 197.728C821.07 197.728 809.498 195.01 799.867 189.573C790.392 183.981 783.169 176.37 778.198 166.739C773.228 157.108 770.742 146.235 770.742 134.119C770.742 122.314 773.228 111.751 778.198 102.431C783.169 92.956 790.392 85.5 799.867 80.063C809.498 74.626 820.837 71.908 833.885 71.908C848.176 71.908 860.292 75.092 870.233 81.461C880.33 87.83 887.708 96.839 892.368 108.489C894.232 113.149 895.553 118.197 896.329 123.634C897.106 129.071 897.494 135.828 897.494 143.905H814.779C815.245 153.07 817.109 159.516 820.371 163.244C823.789 166.972 828.371 168.836 834.118 168.836ZM833.885 99.868C823.323 99.868 817.032 106.703 815.012 120.372H852.525C851.904 113.227 849.962 108.023 846.7 104.761C843.438 101.499 839.167 99.868 833.885 99.868ZM1015.21 194L966.98 28.104H1016.14L1032.45 91.713C1038.35 114.547 1042.94 135.439 1046.2 154.39H1046.67C1049.93 135.439 1054.51 114.547 1060.41 91.713L1076.49 28.104H1125.89L1077.65 194H1015.21ZM1143.48 194V75.636H1188.22V194H1143.48ZM1143.48 60.957V28.104H1188.22V60.957H1143.48ZM1283.94 161.147C1287.2 161.147 1289.99 160.759 1292.32 159.982V193.068C1289.53 194 1286.03 194.699 1281.84 195.165C1277.8 195.786 1274.07 196.097 1270.65 196.097C1254.5 196.097 1242.77 192.913 1235.47 186.544C1228.17 180.175 1224.52 169.923 1224.52 155.788V107.557H1206.58V75.636H1224.52V42.55H1269.26V75.636H1291.16V107.557H1269.26V143.672C1269.26 150.041 1270.34 154.545 1272.52 157.186C1274.85 159.827 1278.65 161.147 1283.94 161.147ZM1369.08 71.908C1388.19 71.908 1402.4 76.102 1411.72 84.49C1421.04 92.878 1425.7 105.072 1425.7 121.071V159.516C1425.7 174.117 1426.94 185.612 1429.43 194H1389.12C1387.88 189.495 1387.26 184.525 1387.26 179.088H1386.79C1377.47 191.204 1364.66 197.262 1348.35 197.262C1335.76 197.262 1325.74 193.767 1318.29 186.777C1310.83 179.787 1307.1 170.933 1307.1 160.215C1307.1 149.497 1310.83 141.031 1318.29 134.818C1325.74 128.605 1338.09 124.178 1355.34 121.537C1363.72 120.139 1372.81 119.129 1382.6 118.508V114.314C1382.6 103.441 1377.94 98.004 1368.62 98.004C1364.27 98.004 1360.85 99.324 1358.36 101.965C1356.03 104.45 1354.79 108.178 1354.64 113.149H1312C1312.77 101.188 1317.82 91.325 1327.14 83.558C1336.46 75.791 1350.44 71.908 1369.08 71.908ZM1382.6 140.876C1374.99 141.653 1368.93 142.507 1364.42 143.439C1359.61 144.526 1356.11 146.157 1353.94 148.332C1351.92 150.507 1350.91 153.458 1350.91 157.186C1350.91 160.914 1352 163.943 1354.17 166.273C1356.5 168.448 1359.76 169.535 1363.96 169.535C1366.6 169.535 1369.08 169.069 1371.41 168.137C1373.9 167.205 1375.92 165.807 1377.47 163.943C1379.49 161.768 1380.81 159.283 1381.43 156.487C1382.21 153.691 1382.6 149.963 1382.6 145.303V140.876ZM1454.4 194V28.104H1499.14V194H1454.4ZM1581.11 71.908C1598.5 71.908 1612.02 75.17 1621.65 81.694C1631.28 88.218 1636.1 98.004 1636.1 111.052H1593.69C1593.69 102.353 1589.26 98.004 1580.41 98.004C1573.11 98.004 1569.46 100.645 1569.46 105.926C1569.46 107.945 1570.08 109.576 1571.32 110.819C1572.56 111.906 1574.74 113.071 1577.85 114.314C1580.95 115.401 1585.84 116.799 1592.52 118.508C1602.47 121.149 1610.7 123.867 1617.22 126.663C1623.75 129.304 1629.18 133.265 1633.53 138.546C1638.04 143.827 1640.29 150.662 1640.29 159.05C1640.29 170.855 1635.24 180.253 1625.14 187.243C1615.05 194.233 1600.91 197.728 1582.74 197.728C1542.51 197.728 1522.39 183.67 1522.39 155.555H1567.13C1567.13 160.526 1568.37 164.254 1570.86 166.739C1573.5 169.069 1577.53 170.234 1582.97 170.234C1587.17 170.234 1590.27 169.535 1592.29 168.137C1594.47 166.739 1595.55 164.72 1595.55 162.079C1595.55 159.749 1594.7 157.885 1592.99 156.487C1591.44 154.934 1588.87 153.613 1585.3 152.526C1581.73 151.283 1576.06 149.652 1568.29 147.633C1559.28 145.303 1551.83 142.895 1545.92 140.41C1540.18 137.925 1535.28 134.197 1531.25 129.226C1527.36 124.255 1525.42 117.654 1525.42 109.421C1525.42 98.082 1530.08 88.995 1539.4 82.16C1548.88 75.325 1562.78 71.908 1581.11 71.908Z" fill="#373C4A"/>
</g>
<defs>
<clipPath id="clip0_138_522">
<rect width="1640" height="226" fill="white"/>
</clipPath>
</defs>
</svg>
