<svg width="1791" height="394" viewBox="0 0 1791 394" fill="none" xmlns="http://www.w3.org/2000/svg"><path d="M143.272 98.778c-6.49 0-11.637 5.311-11.637 11.508 0 6.418 5.371 11.508 11.637 11.508 6.49 0 11.637-5.312 11.637-11.508 0-6.418-5.147-11.508-11.637-11.508Z" fill="#3959CC"/><path d="m236.821 108.294-42.074 30.097c-44.759 32.311-54.83 94.277-22.156 138.759l24.17 32.975c7.162 9.959 21.261 11.951 31.108 4.869l105.184-75.466c36.703-26.335 44.759-77.014 18.128-113.309-26.408-36.294-77.658-44.261-114.36-17.925Z" fill="#F777A6"/><path d="M168.785 122.014c7.385 1.992 14.099 5.09 20.365 9.738l7.609 5.311 16.785-12.172-12.756-9.073c-8.281-5.976-17.233-10.181-27.08-12.615-5.371-1.328-10.742 1.771-12.085 6.861-1.342 5.09 2.014 10.401 7.162 11.95ZM196.76 310.125l-24.17-32.975c-3.133-4.426-6.042-8.852-8.504-13.721l-46.997-33.639c-13.428-9.516-22.156-23.679-24.618-39.613-2.462-15.935 1.343-32.09 10.966-45.147 4.7-6.418 10.742-11.951 17.68-16.155 4.7-2.877 6.042-8.853 3.357-13.5-2.91-4.648-8.952-5.975-13.652-3.32-9.175 5.533-17.008 12.615-23.275 21.246-12.756 17.262-17.903 38.507-14.546 59.753 3.357 21.245 14.994 39.835 32.45 52.449l93.547 67.056c-.895-.664-1.567-1.549-2.238-2.434Z" fill="#3959CC"/><path d="m179.08 152.555-3.357-2.434c-6.714-4.869-14.323-7.303-22.604-7.303-12.309 0-23.946 5.754-31.107 15.713-6.043 8.409-8.505 18.147-6.938 28.327 1.566 10.18 6.938 18.59 15.218 24.786l23.275 16.598c-2.238-27.442 6.49-54.884 25.513-75.687Z" fill="#3959CC"/><path d="M593.358 221.527c0 22.057-6.136 39.144-18.407 51.26-12.116 11.961-29.436 17.941-51.959 17.941-22.524 0-39.921-5.98-52.192-17.941-12.272-11.961-18.407-29.047-18.407-51.26V121.104h46.6v99.724c0 9.475 2.019 16.776 6.058 21.902 4.194 4.971 10.174 7.456 17.941 7.456 7.766 0 13.669-2.485 17.708-7.456 4.038-5.126 6.058-12.427 6.058-21.902v-99.724h46.6v100.423Zm77.226-41.707c3.418-4.815 7.845-8.466 13.281-10.951 5.592-2.485 11.495-3.728 17.708-3.728 10.097 0 18.951 2.563 26.562 7.689 7.612 5.126 13.437 12.427 17.475 21.902 4.194 9.475 6.291 20.504 6.291 33.086 0 12.582-2.174 23.611-6.524 33.086-4.194 9.475-10.174 16.776-17.941 21.902-7.766 5.126-16.776 7.689-27.028 7.689-6.524 0-12.582-1.398-18.174-4.194-5.436-2.951-9.941-7.223-13.514-12.815h-.466V287h-42.872V121.104h44.736v58.716h.466Zm15.611 19.106c-5.592 0-10.096 2.641-13.514 7.922-3.262 5.126-4.893 12.116-4.893 20.97s1.631 15.922 4.893 21.203c3.418 5.126 7.922 7.689 13.514 7.689 5.748 0 10.33-2.563 13.747-7.689 3.418-5.281 5.126-12.349 5.126-21.203s-1.708-15.844-5.126-20.97c-3.417-5.281-7.999-7.922-13.747-7.922ZM774.985 287V168.636h44.736V287h-44.736Zm0-133.043v-32.853h44.736v32.853h-44.736Zm131.133 107.879c4.505 0 8.155-1.01 10.951-3.029 2.952-2.175 4.66-4.971 5.126-8.388h45.668c-1.708 7.611-5.359 14.524-10.951 20.737-5.592 6.058-12.737 10.873-21.436 14.446-8.698 3.417-18.329 5.126-28.892 5.126-13.514 0-25.086-2.718-34.717-8.155-9.475-5.592-16.698-13.203-21.669-22.834-4.97-9.631-7.456-20.504-7.456-32.62 0-11.805 2.486-22.368 7.456-31.688 4.971-9.475 12.194-16.931 21.669-22.368 9.631-5.437 20.97-8.155 34.018-8.155 14.291 0 26.407 3.184 36.348 9.553 10.097 6.369 17.475 15.378 22.135 27.028 1.864 4.66 3.185 9.708 3.961 15.145.777 5.437 1.165 12.194 1.165 20.271h-82.715c.466 9.165 2.33 15.611 5.592 19.339 3.418 3.728 8 5.592 13.747 5.592Zm-.233-68.968c-10.562 0-16.853 6.835-18.873 20.504h37.513c-.621-7.145-2.563-12.349-5.825-15.611-3.262-3.262-7.533-4.893-12.815-4.893ZM1087.21 287l-48.23-165.896h49.16l16.31 63.609c5.9 22.834 10.49 43.726 13.75 62.677h.47c3.26-18.951 7.84-39.843 13.74-62.677l16.08-63.609h49.4L1149.65 287h-62.44Zm128.27 0V168.636h44.74V287h-44.74Zm0-133.043v-32.853h44.74v32.853h-44.74Zm140.46 100.19c3.26 0 6.05-.388 8.38-1.165v33.086c-2.79.932-6.29 1.631-10.48 2.097-4.04.621-7.77.932-11.19.932-16.15 0-27.88-3.184-35.18-9.553-7.3-6.369-10.95-16.621-10.95-30.756v-48.231h-17.94v-31.921h17.94V135.55h44.74v33.086h21.9v31.921h-21.9v36.115c0 6.369 1.08 10.873 3.26 13.514 2.33 2.641 6.13 3.961 11.42 3.961Zm85.14-89.239c19.11 0 33.32 4.194 42.64 12.582 9.32 8.388 13.98 20.582 13.98 36.581v38.445c0 14.601 1.24 26.096 3.73 34.484h-40.31c-1.24-4.505-1.86-9.475-1.86-14.912h-.47c-9.32 12.116-22.13 18.174-38.44 18.174-12.59 0-22.61-3.495-30.06-10.485-7.46-6.99-11.19-15.844-11.19-26.562 0-10.718 3.73-19.184 11.19-25.397 7.45-6.213 19.8-10.64 37.05-13.281 8.38-1.398 17.47-2.408 27.26-3.029v-4.194c0-10.873-4.66-16.31-13.98-16.31-4.35 0-7.77 1.32-10.26 3.961-2.33 2.485-3.57 6.213-3.72 11.184H1384c.77-11.961 5.82-21.824 15.14-29.591 9.32-7.767 23.3-11.65 41.94-11.65Zm13.52 68.968c-7.61.777-13.67 1.631-18.18 2.563-4.81 1.087-8.31 2.718-10.48 4.893-2.02 2.175-3.03 5.126-3.03 8.854 0 3.728 1.09 6.757 3.26 9.087 2.33 2.175 5.59 3.262 9.79 3.262 2.64 0 5.12-.466 7.45-1.398 2.49-.932 4.51-2.33 6.06-4.194 2.02-2.175 3.34-4.66 3.96-7.456.78-2.796 1.17-6.524 1.17-11.184v-4.427ZM1526.4 287V121.104h44.74V287h-44.74Zm126.71-122.092c17.39 0 30.91 3.262 40.54 9.786 9.63 6.524 14.45 16.31 14.45 29.358h-42.41c0-8.699-4.43-13.048-13.28-13.048-7.3 0-10.95 2.641-10.95 7.922 0 2.019.62 3.65 1.86 4.893 1.24 1.087 3.42 2.252 6.53 3.495 3.1 1.087 7.99 2.485 14.67 4.194 9.95 2.641 18.18 5.359 24.7 8.155 6.53 2.641 11.96 6.602 16.31 11.883 4.51 5.281 6.76 12.116 6.76 20.504 0 11.805-5.05 21.203-15.15 28.193-10.09 6.99-24.23 10.485-42.4 10.485-40.23 0-60.35-14.058-60.35-42.173h44.74c0 4.971 1.24 8.699 3.73 11.184 2.64 2.33 6.67 3.495 12.11 3.495 4.2 0 7.3-.699 9.32-2.097 2.18-1.398 3.26-3.417 3.26-6.058 0-2.33-.85-4.194-2.56-5.592-1.55-1.553-4.12-2.874-7.69-3.961-3.57-1.243-9.24-2.874-17.01-4.893-9.01-2.33-16.46-4.738-22.37-7.223-5.74-2.485-10.64-6.213-14.67-11.184-3.89-4.971-5.83-11.572-5.83-19.805 0-11.339 4.66-20.426 13.98-27.261 9.48-6.835 23.38-10.252 41.71-10.252Z" fill="#373C4A"/></svg>