<svg width="560" height="315" viewBox="0 0 560 315" fill="none" xmlns="http://www.w3.org/2000/svg">
<rect width="560" height="315" fill="white"/>
<path d="M102.338 18.136H111.634V19.844H102.338V18.136ZM101.33 21.454H112.502C112.292 23.694 111.508 26.34 109.534 27.74C108.694 28.328 107 29.252 103.416 29.588L102.856 27.824C106.51 27.614 109.52 26.732 110.304 23.176H101.33V21.454ZM123.242 19.284L124.25 18.556C124.964 19.284 125.468 19.998 126.112 21.048L125.034 21.832C124.46 20.782 124.012 20.138 123.242 19.284ZM125.132 18.122L126.126 17.38C126.938 18.178 127.526 19.074 128.002 19.872L126.952 20.67C126.336 19.578 125.93 18.99 125.132 18.122ZM116.41 26.074L114.996 24.394C115.528 23.778 117.754 21.034 118.216 20.488C118.944 19.634 119.434 19.438 120.022 19.438C120.638 19.438 121.17 19.634 122.122 20.656L128.03 26.914L126.56 28.636L120.792 22.196C120.554 21.944 120.246 21.664 119.966 21.664C119.686 21.664 119.462 21.944 119.196 22.294C118.734 22.896 116.816 25.542 116.41 26.074ZM133.52 18.248V21.496C133.52 26.704 132.092 28.594 130.958 29.7L129.544 28.286C130.846 26.886 131.672 25.472 131.672 21.65V18.248H133.52ZM137.258 17.884V27.11C138.658 26.494 140.072 25.878 140.702 22.224L142.466 22.98C141.892 25.5 140.632 29.154 135.396 29.434V17.884H137.258Z" fill="#16191F" fill-opacity="0.64"/>
<path d="M100 50C100 45.5817 103.582 42 108 42H452C456.418 42 460 45.5817 460 50V98H100V50Z" fill="#16191F" fill-opacity="0.04"/>
<mask id="path-3-inside-1_2696_3602" fill="white">
<path d="M100 42H460V98H100V42Z"/>
</mask>
<path d="M460 96H100V100H460V96Z" fill="#16191F" fill-opacity="0.18" mask="url(#path-3-inside-1_2696_3602)"/>
<path d="M102.338 126.136H111.634V127.844H102.338V126.136ZM101.33 129.454H112.502C112.292 131.694 111.508 134.34 109.534 135.74C108.694 136.328 107 137.252 103.416 137.588L102.856 135.824C106.51 135.614 109.52 134.732 110.304 131.176H101.33V129.454ZM123.242 127.284L124.25 126.556C124.964 127.284 125.468 127.998 126.112 129.048L125.034 129.832C124.46 128.782 124.012 128.138 123.242 127.284ZM125.132 126.122L126.126 125.38C126.938 126.178 127.526 127.074 128.002 127.872L126.952 128.67C126.336 127.578 125.93 126.99 125.132 126.122ZM116.41 134.074L114.996 132.394C115.528 131.778 117.754 129.034 118.216 128.488C118.944 127.634 119.434 127.438 120.022 127.438C120.638 127.438 121.17 127.634 122.122 128.656L128.03 134.914L126.56 136.636L120.792 130.196C120.554 129.944 120.246 129.664 119.966 129.664C119.686 129.664 119.462 129.944 119.196 130.294C118.734 130.896 116.816 133.542 116.41 134.074ZM133.52 126.248V129.496C133.52 134.704 132.092 136.594 130.958 137.7L129.544 136.286C130.846 134.886 131.672 133.472 131.672 129.65V126.248H133.52ZM137.258 125.884V135.11C138.658 134.494 140.072 133.878 140.702 130.224L142.466 130.98C141.892 133.5 140.632 137.154 135.396 137.434V125.884H137.258Z" fill="#16191F" fill-opacity="0.64"/>
<path d="M100 158C100 153.582 103.582 150 108 150H452C456.418 150 460 153.582 460 158V206H100V158Z" fill="#16191F" fill-opacity="0.04"/>
<mask id="path-7-inside-2_2696_3602" fill="white">
<path d="M100 150H460V206H100V150Z"/>
</mask>
<path d="M460 204H100V208H460V204Z" fill="#16191F" fill-opacity="0.18" mask="url(#path-7-inside-2_2696_3602)"/>
<rect x="100" y="238" width="360" height="56" rx="28" fill="#3959CC"/>
<path d="M264.488 263.648H269.72V261.664H264.488V259.136H262.312V261.664H257.016V263.648H262.312V272.688H264.488V263.648ZM258.168 272C259.832 270.208 260.568 267.808 260.808 265.216L258.824 265.008C258.728 266.336 258.344 268.72 256.504 270.512L258.168 272ZM266.008 265.216C266.488 268.512 267.128 270.288 268.568 272L270.296 270.672C268.68 268.64 268.296 267.024 267.944 264.976L266.008 265.216ZM266.344 258.4C266.952 259.44 267.272 260.176 267.64 261.392L268.904 260.864C268.536 259.808 268.168 258.896 267.512 257.856L266.344 258.4ZM268.872 258.352C269.48 259.424 269.8 260.176 270.152 261.36L271.416 260.848C270.984 259.568 270.68 258.832 270.056 257.824L268.872 258.352ZM274.672 266.128C275.616 265.536 276.112 265.088 276.544 264.672C278.24 265.536 279.296 266.224 280.88 267.472C279.104 269.264 276.784 270.4 274.304 270.928L275.392 272.864C285.232 270.368 286 262.256 286.24 259.776H277.44C276.48 262.032 274.976 263.488 273.28 264.512L274.672 266.128ZM283.68 261.728C283.424 263.184 283.024 264.528 282.144 265.904C280.672 264.736 279.328 264 277.776 263.296C278.08 262.896 278.336 262.576 278.864 261.728H283.68ZM296.328 262.176C294.152 260.864 292.36 260.272 291.192 259.92L290.216 261.76C292.824 262.608 294.472 263.664 295.176 264.144L296.328 262.176ZM291 272.464C298.44 271.648 301.736 267.888 303.64 261.984L301.768 260.672C299.72 268.176 295.272 269.76 290.52 270.144L291 272.464Z" fill="white"/>
</svg>
