<svg width="112" height="112" viewBox="0 0 112 112" fill="none" xmlns="http://www.w3.org/2000/svg">
<g filter="url(#filter0_d_2815_1108)">
<rect x="4" width="104" height="104" rx="52" fill="#3959CC"/>
<path d="M36.928 45.844L35.776 47.604C36.832 48.196 38.496 49.268 39.392 49.892L40.576 48.132C39.744 47.54 37.984 46.42 36.928 45.844ZM33.968 57.204L35.168 59.3C36.576 59.044 38.88 58.244 40.512 57.332C43.12 55.812 45.392 53.796 46.864 51.572L45.632 49.396C44.368 51.684 42.128 53.876 39.408 55.396C37.664 56.356 35.76 56.9 33.968 57.204ZM34.464 49.492L33.312 51.252C34.384 51.828 36.048 52.9 36.944 53.54L38.128 51.748C37.296 51.156 35.536 50.068 34.464 49.492ZM51.136 49.844V51.844C51.488 51.812 52.064 51.796 52.416 51.796H59.728C60.096 51.796 60.576 51.812 60.976 51.844V49.844C60.592 49.892 60.128 49.924 59.728 49.924H52.416C52.064 49.924 51.488 49.892 51.136 49.844ZM54.896 58.02H56.992V50.932H54.896V58.02ZM50.336 56.836V58.932C50.752 58.884 51.248 58.868 51.648 58.868H60.48C60.768 58.868 61.36 58.884 61.696 58.932V56.836C61.36 56.884 60.928 56.932 60.48 56.932H51.648C51.232 56.932 50.736 56.9 50.336 56.836ZM79.264 47.684L78 46.5C77.696 46.58 76.816 46.644 76.368 46.644C75.536 46.644 68.752 46.644 67.744 46.644C67.088 46.644 66.416 46.564 65.792 46.468V48.708C66.544 48.628 67.088 48.596 67.744 48.596C68.752 48.596 75.12 48.596 76.096 48.596C75.68 49.38 74.432 50.788 73.136 51.572L74.8 52.9C76.384 51.78 77.904 49.748 78.656 48.5C78.8 48.276 79.104 47.892 79.264 47.684ZM72.752 49.828H70.432C70.512 50.356 70.528 50.772 70.528 51.284C70.528 53.908 70.144 55.588 68.128 56.996C67.536 57.444 66.96 57.716 66.432 57.892L68.304 59.412C72.656 57.06 72.752 53.796 72.752 49.828Z" fill="white"/>
</g>
<defs>
<filter id="filter0_d_2815_1108" x="0" y="0" width="112" height="112" filterUnits="userSpaceOnUse" color-interpolation-filters="sRGB">
<feFlood flood-opacity="0" result="BackgroundImageFix"/>
<feColorMatrix in="SourceAlpha" type="matrix" values="0 0 0 0 0 0 0 0 0 0 0 0 0 0 0 0 0 0 127 0" result="hardAlpha"/>
<feOffset dy="4"/>
<feGaussianBlur stdDeviation="2"/>
<feComposite in2="hardAlpha" operator="out"/>
<feColorMatrix type="matrix" values="0 0 0 0 0 0 0 0 0 0 0 0 0 0 0 0 0 0 0.25 0"/>
<feBlend mode="normal" in2="BackgroundImageFix" result="effect1_dropShadow_2815_1108"/>
<feBlend mode="normal" in="SourceGraphic" in2="effect1_dropShadow_2815_1108" result="shape"/>
</filter>
</defs>
</svg>
