<svg width="71" height="32" viewBox="0 0 71 32" fill="none" xmlns="http://www.w3.org/2000/svg">
<rect width="71" height="20" rx="4" fill="#DB3939"/>
<path d="M15.523 10.284H9.439V15.912H15.523V10.284ZM14.083 12.528H10.867V11.508H14.083V12.528ZM14.083 14.676H10.867V13.632H14.083V14.676ZM8.935 9.78C8.563 9.936 8.395 10.008 7.711 10.248V8.232H8.875V6.876H7.711V4.8H6.295V6.876H4.723V8.232H6.295V10.68C5.551 10.884 5.179 10.968 4.639 11.076L4.831 12.576C5.227 12.504 5.527 12.444 6.295 12.228V14.328C6.295 14.616 6.115 14.616 5.935 14.616H4.819L5.011 16.104H6.475C6.907 16.104 7.711 16.056 7.711 14.832V11.748C8.419 11.472 8.623 11.388 9.007 11.196L8.935 9.78ZM14.971 4.98C13.507 5.664 11.899 5.952 10.723 6.06V4.8H9.259V8.316C9.259 9.048 9.487 9.504 10.615 9.504H14.515C15.451 9.504 15.919 9.372 16.135 7.176L14.671 6.744C14.551 8.04 14.479 8.1 14.071 8.1H11.251C10.951 8.1 10.723 8.064 10.723 7.716V7.308C12.079 7.212 14.119 6.924 15.631 6.228L14.971 4.98ZM22.069 14.052C21.169 13.728 20.665 13.092 20.257 12.504C20.449 11.868 20.605 11.316 20.773 10.368L19.309 10.164C18.853 13.08 17.689 14.244 17.041 14.796L18.013 16.068C18.709 15.468 19.153 14.928 19.705 13.872C20.737 15.18 21.997 15.816 24.085 15.816H28.285L28.597 14.376H24.085C23.869 14.376 23.797 14.376 23.581 14.364V12.456H27.169V11.064H23.581V9.588H26.329V8.196H19.333V9.588H22.069V14.052ZM22.045 4.764V5.724H17.461V8.664H18.949V7.092H26.713V8.664H28.189V5.724H23.581V4.764H22.045ZM35.131 14.784C34.651 14.592 34.243 14.388 33.667 13.824H35.263V12.672H32.959C33.019 12.384 33.043 12.276 33.067 12.12H35.095V11.064H33.127V10.5H35.059V9.3L35.479 9.948C35.587 9.804 35.599 9.792 35.755 9.588V15.864H40.903V14.52H39.499V13.092H40.627V11.88H39.499V10.536H40.627V9.312H39.499V7.956H40.831V6.672H39.487C39.715 6.216 39.991 5.52 40.171 5.016L38.755 4.764C38.707 4.956 38.431 5.964 38.107 6.672H37.207C37.423 6.048 37.531 5.652 37.687 4.944L36.271 4.752C35.983 6.06 35.539 7.212 35.059 8.028V7.476H29.911V10.5H31.867V11.064H29.911V12.12H31.795C31.771 12.3 31.747 12.408 31.675 12.672H29.635V13.824H31.147C30.619 14.52 29.911 14.868 29.575 15.036L30.403 16.152C31.651 15.516 32.155 14.748 32.479 14.1C33.247 15.3 34.051 15.744 34.387 15.936L35.131 14.784ZM38.203 11.88H37.123V10.536H38.203V11.88ZM38.203 9.312H37.123V7.956H38.203V9.312ZM38.203 14.52H37.123V13.092H38.203V14.52ZM31.903 9.54H31.003V8.46H31.903V9.54ZM34.003 9.54H33.115V8.46H34.003V9.54ZM31.939 4.764H30.691V5.496H29.635V6.636H30.691V7.272H31.939V6.636H33.091V7.272H34.351V6.636H35.323V5.496H34.339V4.764H33.091V5.496H31.939V4.764ZM51.481 13.416V14.352C51.481 14.772 51.373 14.772 51.001 14.772H49.969L50.209 16.08H51.925C52.501 16.08 52.873 15.948 52.873 14.988V10.044H49.753C49.801 9.6 49.813 9.396 49.825 9.108H53.293V7.86H45.301V9.108H48.481C48.469 9.624 48.469 9.804 48.445 10.044H45.613V16.08H47.005V13.548L47.701 14.544C48.109 14.124 48.733 13.476 49.213 12.3C49.669 13.308 50.245 13.956 50.665 14.412L51.481 13.416ZM51.481 13.272C50.461 12.372 50.161 11.604 50.017 11.208H51.481V13.272ZM48.289 11.208C48.037 12.384 47.317 13.068 47.005 13.344V11.208H48.289ZM43.705 9.72C43.705 10.044 43.693 10.176 43.693 10.488C43.009 10.776 42.625 10.92 41.929 11.112L42.133 12.696C42.793 12.432 42.889 12.372 43.537 12.024C43.309 13.452 42.961 14.22 42.301 15.036L43.525 16.092C44.785 14.448 45.109 12.504 45.109 9.744V7.068H53.293V5.76H48.901V4.8H47.389V5.76H43.705V8.676C43.513 7.848 43.249 7.212 42.973 6.6L41.881 7.272C42.169 7.908 42.481 8.976 42.565 9.708L43.705 9.048V9.72ZM62.983 7.704C63.559 7.98 64.147 8.256 65.335 8.604L66.007 7.08C63.811 6.624 62.347 5.892 60.967 4.752H59.323C57.931 6 56.167 6.708 54.319 7.044L54.907 8.52C56.035 8.22 56.623 7.992 57.367 7.656V8.088H62.983V7.704ZM58.699 6.948C59.383 6.516 59.743 6.24 60.175 5.808C60.727 6.324 61.087 6.6 61.639 6.948H58.699ZM61.411 11.7C62.407 11.304 63.847 10.68 64.795 9.864V8.652H55.351V9.864H62.323C61.423 10.356 59.947 10.884 58.831 11.076L59.179 11.7H55.459V15.888H64.831V11.7H61.411ZM63.355 14.676H56.959V12.912H63.355V14.676ZM34.339 22.468V21.292H32.791V22.468H30.379V23.956H32.791V24.796C32.635 24.748 32.479 24.712 32.251 24.712C31.099 24.712 30.115 25.792 30.115 27.412C30.115 28.636 30.739 29.68 31.831 29.68C32.095 29.68 32.275 29.608 32.431 29.56C32.419 29.668 32.407 29.8 32.407 29.884C32.407 31.468 34.495 31.468 36.019 31.468C37.615 31.468 40.075 31.468 40.075 28.78C40.075 27.808 39.763 26.752 38.755 25.336L37.339 25.9C38.191 27.04 38.431 28.084 38.431 28.636C38.431 29.872 37.279 29.932 36.043 29.932C34.279 29.932 33.835 29.788 33.835 29.176C33.835 28.912 33.919 28.636 34.015 28.408C34.303 27.748 34.447 27.28 34.447 26.752C34.447 26.476 34.399 26.14 34.339 25.96V23.956H36.667V22.468H34.339ZM32.311 25.96C32.743 25.96 32.995 26.212 32.995 26.824C32.995 27.436 32.779 28.348 32.095 28.348C31.375 28.348 31.339 27.604 31.339 27.352C31.339 26.524 31.771 25.96 32.311 25.96ZM40.783 23.692C39.835 22.444 38.707 21.76 38.095 21.424L37.075 22.504C38.179 23.176 38.887 23.824 39.619 24.832L40.783 23.692Z" fill="white"/>
</svg>
