<svg width="343" height="282" viewBox="0 0 343 282" fill="none" xmlns="http://www.w3.org/2000/svg">
<g clip-path="url(#clip0_2815_1060)">
<rect width="343" height="282" rx="8" fill="white"/>
<path d="M25.328 31.264V44.976H38.704V31.264H25.328ZM37.376 32.48V43.696H26.64V32.48H37.376ZM28.4 34.432V41.6H35.568V34.432H28.4ZM34.288 35.584V40.432H29.664V35.584H34.288ZM48.824 34.464C49.336 33.952 49.704 33.472 50.072 32.96H51.144C51.384 33.456 51.816 34.48 52.008 35.088L53.224 34.656C53 34.08 52.776 33.52 52.472 32.96H56.008V31.808H50.792C51.064 31.312 51.144 31.088 51.272 30.72L49.992 30.416C49.672 31.248 48.952 32.8 47.512 33.936L48.232 34.464H47.88C46.648 35.776 44.392 37.328 40.952 38.064L41.56 39.328C42.392 39.12 43.128 38.912 44.696 38.096V38.976H52.472V38.064C53.464 38.56 54.248 38.912 55.656 39.312L56.28 38C53.768 37.408 50.84 36.288 49.304 34.464H48.824ZM45.144 37.856C46.44 37.168 47.784 36.256 48.6 35.344C49.64 36.4 50.488 37.008 52.072 37.856H45.144ZM54.232 40.048H42.952V45.04H54.232V40.048ZM52.872 43.872H44.312V41.2H52.872V43.872ZM44.456 31.808C44.76 31.264 44.856 31.056 45 30.704L43.72 30.4C43.208 31.648 42.072 33.056 40.92 33.952L41.784 34.912C42.296 34.512 42.744 34.128 43.656 32.96H44.312C44.664 33.76 44.904 34.608 45 34.976L46.248 34.624C46.168 34.336 46.008 33.76 45.624 32.96H48.312V31.808H44.456ZM62.352 32.08C61.648 33.504 60.784 34.8 60.576 35.104C60.224 34.736 60.048 34.544 59.616 34.144C60.064 33.568 61.024 31.968 61.536 30.88L60.304 30.496C59.872 31.568 59.248 32.656 58.736 33.376C58.624 33.28 58.592 33.248 58.256 33.008L57.664 34.032C58.672 34.816 59.184 35.312 59.872 36.128C59.616 36.48 59.504 36.64 58.944 37.344C58.576 37.36 58.384 37.36 57.712 37.36L57.744 38.512C58.384 38.464 59.488 38.4 60.256 38.368V45.328H61.504V38.272C62.128 38.224 62.336 38.208 62.864 38.144C62.96 38.416 63.008 38.56 63.136 39.008L64.224 38.576C63.872 37.456 63.504 36.592 62.992 35.712L61.984 36.128C62.208 36.56 62.32 36.784 62.48 37.168C61.952 37.216 61.792 37.216 60.336 37.296C61.568 35.808 62.912 33.632 63.488 32.624L62.352 32.08ZM67.664 30.48V32.256H64V33.472H67.664V36.064H64.496V37.28H72.208V36.064H68.976V33.472H72.624V32.256H68.976V30.48H67.664ZM72.064 38.864H64.608V45.04H72.064V38.864ZM70.784 43.856H65.872V40.064H70.784V43.856ZM58.752 44.16C59.088 43.184 59.424 41.872 59.52 39.792L58.368 39.6C58.336 40.176 58.24 42.016 57.616 43.76L58.752 44.16ZM64.048 43.008C63.84 41.584 63.536 40.432 63.216 39.472L62.176 39.776C62.464 40.736 62.752 42.304 62.832 43.328L64.048 43.008ZM89.384 43.68C87.384 43.04 85.352 42.176 83.304 39.936H89.224V38.736H82.44V37.424H87.944V30.944H75.672V37.424H81.144V38.736H74.376V39.936H80.2C79.624 40.656 78.12 42.416 74.232 43.744L74.904 44.976C78.792 43.28 80.216 41.744 81.144 40.48V45.36H82.44V40.576C83.32 41.712 84.856 43.344 88.68 44.992L89.384 43.68ZM81.144 33.632H76.984V32.064H81.144V33.632ZM81.144 36.32H76.984V34.672H81.144V36.32ZM86.632 33.632H82.44V32.064H86.632V33.632ZM86.632 36.32H82.44V34.672H86.632V36.32ZM97.296 32.624C97.52 31.824 97.6 31.456 97.696 30.896L96.16 30.832C96.048 31.744 95.936 32.208 95.824 32.624H92.144V33.904H95.44C94.416 36.896 93.136 38.592 91.728 39.92L92.72 40.992C93.232 40.464 94.288 39.056 95.024 38.048C96.144 36.912 97.312 36.416 98.192 36.416C98.928 36.416 99.376 36.736 99.552 37.68C97.968 38.384 95.104 39.824 95.104 42C95.104 44.576 98.72 44.576 100.528 44.576C102.048 44.576 103.44 44.48 104.352 44.416L104.304 43.04C102.864 43.2 101.36 43.264 100.08 43.264C98.32 43.264 96.544 43.264 96.544 41.856C96.544 40.544 98.48 39.52 99.712 38.944C99.744 39.36 99.744 39.632 99.744 39.904C99.744 40.48 99.696 41.072 99.664 41.44H101.056C101.104 40.928 101.104 40.448 101.104 40.224C101.104 39.648 101.088 38.96 101.04 38.4C102.8 37.728 103.936 37.376 105.232 37.008L104.848 35.616C103.408 36.112 101.216 36.992 100.848 37.136C100.528 35.616 99.504 35.264 98.416 35.264C97.616 35.264 96.976 35.536 95.856 36.208C96.32 35.408 96.544 34.88 96.912 33.904H103.968V32.624H97.296ZM122.568 44.192C120.168 43.28 119.16 42.24 118.312 41.376C118.68 41.152 120.408 40.128 121.464 39.168L120.52 38.24C119.336 39.408 117.784 40.272 117.512 40.416C116.648 39.232 116.312 38.288 116.168 37.888H122.408V36.768H115.688V35.344H121.272V34.272H115.688V33.008H122.04V31.872H115.688V30.512H114.376V31.872H108.024V33.008H114.376V34.272H108.76V35.344H114.376V36.768H107.624V37.888H113.464C111.384 39.808 109.32 40.624 107.432 41.12L107.992 42.368C109.832 41.744 110.744 41.264 111.304 40.96V43.728C109.816 43.904 109.256 43.952 108.632 44L108.888 45.232C109.336 45.184 113.896 44.688 116.872 43.856L116.856 42.688C115.448 43.04 114.04 43.312 112.616 43.536V40.16C113.912 39.232 114.632 38.432 114.952 38.08C115.416 39.36 117.144 43.6 121.816 45.408L122.568 44.192ZM125.152 31.056V32.304H137.968V31.056H125.152ZM124.192 35.328V36.576H130.848V43.488C130.848 43.84 130.736 43.984 130.368 43.984L128.064 43.968L128.256 45.328H130.832C132 45.328 132.224 44.736 132.224 44V36.576H138.928V35.328H124.192ZM125.088 44.384C126.192 43.312 127.648 40.784 128.128 38.352L126.816 38.032C126.464 39.952 125.28 42.176 124.048 43.44L125.088 44.384ZM134.912 38.352C135.44 40.224 136.448 42.56 138.016 44.336L139.04 43.376C137.68 41.648 136.976 40.56 136.176 38L134.912 38.352ZM150.424 36C151.176 37.056 151.576 37.808 152.104 39.088L153.224 38.384C152.664 37.168 152.2 36.304 151.464 35.36L150.424 36ZM152.792 34.976C153.56 36.08 153.928 36.768 154.472 38.064L155.592 37.36C155.016 36.112 154.6 35.328 153.832 34.336L152.792 34.976ZM154.744 31.968C151.08 31.984 149.576 32.016 145.784 32.224C144.968 32.272 142.2 32.4 141.416 32.416L141.544 33.984C143.288 33.776 148.824 33.44 149.288 33.424C147.4 34.528 144.6 36.624 144.6 39.664C144.6 44.144 149.912 44.368 153.064 44.496L153.352 42.944C151.928 42.992 150.344 42.864 149.32 42.656C147.624 42.304 146.088 41.648 146.088 39.568C146.088 36.816 149.224 34.336 151.528 33.568C152.008 33.408 152.36 33.376 153.144 33.376C153.592 33.376 154.088 33.392 154.776 33.44L154.744 31.968ZM171.216 35.76C169.632 36.128 168.016 36.224 166.544 36.304C166.224 35.44 166.08 34.816 165.984 34.4C167.344 34.336 169.088 34.192 170.192 34L170.064 32.656C168.672 32.896 166.384 33.104 165.744 33.104C165.632 32.384 165.584 31.904 165.536 31.184L164 31.2C164.048 31.808 164.096 32.224 164.256 33.168C163.264 33.184 163.152 33.184 162.64 33.184L158.8 33.168V34.464L162.8 34.48C163.376 34.48 163.936 34.464 164.512 34.448C164.688 35.2 164.832 35.744 165.04 36.352C164.096 36.384 163.568 36.384 163.088 36.384L158.224 36.32V37.616L163.28 37.648C163.84 37.648 165.072 37.632 165.504 37.6C165.888 38.544 166.592 39.952 167.52 41.072L168.768 40.208C167.808 39.04 167.36 38.176 167.056 37.536C168.464 37.456 170.16 37.312 171.376 37.088L171.216 35.76ZM160.752 39.232C159.744 40.224 159.568 41.008 159.568 41.6C159.568 42.56 160.272 43.44 161.344 43.92C162.288 44.336 163.456 44.56 166.56 44.56C168.4 44.56 169.024 44.512 169.808 44.448L169.776 43.04C169.008 43.104 167.968 43.2 166.128 43.2C163.824 43.2 161.04 43.04 161.04 41.392C161.04 40.816 161.504 40.288 161.84 39.952L160.752 39.232ZM184.952 31.504C181.128 31.728 179.816 31.744 176.424 31.744V33.12C179.032 33.072 179.976 33.04 182.696 32.848C179.688 35.552 176.024 38.496 174.792 39.456L175.624 40.656C177.816 38.576 179.896 36.992 182.728 36.992C185.8 36.992 186.056 38.992 186.056 39.84C186.056 41.856 184.648 42.56 184.2 42.784C183.416 39.824 180.936 39.648 180.376 39.648C178.888 39.648 177.672 40.576 177.672 41.904C177.672 43.424 179.256 44.56 181.8 44.56C184.792 44.56 187.48 42.944 187.48 39.808C187.48 37.088 185.592 35.792 183.24 35.792C181.96 35.792 181 36.128 180.376 36.336C181.432 35.504 181.656 35.328 183.704 33.68C184.104 33.36 184.6 32.96 184.952 32.704V31.504ZM183 43.28C182.744 43.344 182.392 43.424 181.752 43.424C179.96 43.424 178.936 42.656 178.936 41.872C178.936 41.44 179.352 40.816 180.328 40.816C181.72 40.816 182.648 41.76 183 43.28ZM198.816 35.152H204.224V33.712L198.816 33.76L198.8 31.104H197.296L197.36 38.64C196.96 38.592 196.656 38.544 196.128 38.544C193.84 38.544 191.584 39.488 191.584 41.68C191.584 43.248 192.768 44.56 195.408 44.56C198.736 44.56 198.848 42.512 198.832 41.568L198.816 40.464C200.768 41.216 202.624 42.656 203.6 43.744L204.64 42.368C203.856 41.552 201.984 40.016 198.832 38.944L198.816 35.152ZM197.376 41.472C197.376 42.128 197.216 43.232 195.392 43.232C195.04 43.232 193.008 43.232 193.008 41.696C193.008 40.4 194.528 39.856 195.904 39.856C196.576 39.856 197.056 39.952 197.392 40.016L197.376 41.472ZM218.712 32.016C215.768 31.248 213.864 30.976 211.064 30.944L210.888 32.288C213.976 32.368 215.88 32.672 218.328 33.424L218.712 32.016ZM211.128 44.816C214.12 44.736 219.912 44.56 219.912 38.96C219.912 35.376 217.592 34.944 215.544 34.944C214.632 34.944 210.12 35.456 209.096 35.536L209.272 37.104C211.4 36.736 214.424 36.288 215.528 36.288C216.824 36.288 218.36 36.592 218.36 39.072C218.36 43.216 213.656 43.36 210.728 43.408L211.128 44.816ZM225.776 31.376C225.264 33.776 225.104 36.336 225.104 38.976C225.104 42.032 225.376 43.632 225.52 44.56L227.072 44.432C226.944 43.856 226.576 42.32 226.576 38.752C226.576 34.72 227.056 32.624 227.296 31.504L225.776 31.376ZM229.728 32.672V34.08H237.248V32.672H229.728ZM230.08 37.968C229.52 38.912 229.232 39.824 229.232 40.656C229.232 43.408 232.192 43.632 234.56 43.632C235.92 43.632 237.04 43.536 237.584 43.488V41.984C236.112 42.144 234.8 42.176 233.92 42.176C232.208 42.176 230.576 41.984 230.576 40.528C230.576 40.384 230.592 39.472 231.376 38.368L230.08 37.968ZM251.464 35.584H250.024L250.12 39.008C249.768 38.928 249.256 38.816 248.456 38.816C245.624 38.816 244.696 40.592 244.696 41.792C244.696 43.28 245.88 44.608 248.28 44.608C249.864 44.608 251.48 44.032 251.48 41.664V41.008C252.056 41.344 253.032 41.936 254.072 43.184L254.952 41.92C254.168 41.056 252.888 40.064 251.544 39.472L251.464 35.584ZM250.152 41.408C250.152 42.496 249.912 43.36 248.328 43.36C248.024 43.36 246.056 43.36 246.056 41.744C246.056 40.848 246.824 40.032 248.456 40.032C249.304 40.032 249.784 40.208 250.152 40.336V41.408ZM245.4 33.12C245.608 31.952 245.624 31.856 245.752 31.088L244.232 31.024C244.168 31.664 244.12 32.016 243.944 33.12H240.984V34.464H243.688C243.272 36.256 242.568 39.392 240.856 42.144L242.328 42.784C242.904 41.6 244.216 38.928 245.128 34.464H248.76V33.12H245.4ZM254.68 34.368C252.984 33.424 251.912 32.944 250.312 32.384L249.752 33.568C251.192 34.096 252.392 34.672 254.008 35.648L254.68 34.368ZM259.984 31.376C259.808 32.304 259.488 34.064 259.488 36.688C259.488 38.448 259.632 39.744 259.712 40.368L261.056 40.288C261.072 39.632 261.088 38.592 262.928 35.952L262.096 35.152C261.536 36.016 261.088 36.816 260.88 37.2C260.88 34.544 261.168 32.864 261.44 31.52L259.984 31.376ZM267.456 31.44C267.632 34.4 267.664 34.832 267.664 36.336C267.664 40.08 267.552 42.304 262.112 43.728L263.216 44.816C269.008 43.36 269.184 40.144 269.184 36.704C269.184 34.976 269.104 33.168 268.976 31.44H267.456ZM282.12 32.848V31.168H280.712V32.848H274.632V34.08H280.712V36.064H274.872V37.28H280.712V39.168C280.376 39.104 279.832 39.008 279.112 39.008C276.728 39.008 275.08 40.224 275.08 41.904C275.08 42.928 275.752 44.592 278.872 44.592C280.216 44.592 282.12 44.16 282.12 41.872V40.96C283 41.36 284.408 42.096 285.96 43.808L286.904 42.432C285.224 41.024 283.816 40.144 282.12 39.52V37.28H286.92V36.064H282.12V34.08H287.224V32.848H282.12ZM280.712 41.584C280.712 42.848 280.088 43.344 278.696 43.344C276.584 43.344 276.424 42.16 276.424 41.856C276.424 40.8 277.624 40.192 279.112 40.192C279.928 40.192 280.392 40.32 280.712 40.416V41.584ZM293.04 31.232C293.024 32.32 292.928 37.632 292.928 38.832C292.928 41.616 293.216 44.544 297.6 44.544C302.464 44.544 303.504 41.248 304.016 38.352L302.672 37.856C302.224 40.288 301.696 43.168 297.552 43.168C294.544 43.168 294.448 41.024 294.448 38.976C294.448 37.456 294.512 35.552 294.656 31.232H293.04ZM26.528 71.8C27.472 69.656 28.608 65.528 29.264 61.544H33.856V60.184H29.456C29.584 59.176 29.616 58.936 29.712 58.12L28.16 58.072C28.08 59 28.08 59.064 27.968 60.184H25.456V61.544H27.792C27.6 62.824 26.72 68.072 25.04 71.304L26.528 71.8ZM38.4 62.344C34.656 62.232 33.136 62.712 31.92 63.176L32.384 64.408C33.792 63.896 35.152 63.736 36.768 63.736C37.488 63.736 37.968 63.768 38.4 63.784V62.344ZM31.36 66.648C30.944 67.304 30.608 67.96 30.608 68.76C30.608 71.48 33.872 71.48 35.76 71.48C36.272 71.48 38.368 71.448 38.768 71.432L38.752 69.976C37.424 70.072 36.224 70.104 35.68 70.104C33.824 70.104 31.968 70.04 31.968 68.632C31.968 68.456 31.968 67.976 32.512 67.176L31.36 66.648ZM44.136 67.048C42.824 67.048 41.752 68.104 41.752 69.432C41.752 70.744 42.808 71.816 44.136 71.816C45.448 71.816 46.52 70.744 46.52 69.432C46.52 68.088 45.432 67.048 44.136 67.048ZM44.136 67.848C44.984 67.848 45.704 68.536 45.704 69.432C45.704 70.296 45 71 44.136 71C43.256 71 42.552 70.296 42.552 69.432C42.552 68.552 43.272 67.848 44.136 67.848ZM36.576 93.2C35.616 92.176 34.688 90.624 34.016 89.008C35.424 88.944 36.8 88.88 38.544 88.512L38.288 87.136C36.688 87.472 35.184 87.664 33.552 87.712C33.344 87.072 33.12 86.032 32.976 85.056L31.456 85.168C31.52 85.552 31.76 86.72 32.08 87.76C31.68 87.776 30.816 87.792 30.144 87.776L25.472 87.696V89.088H30.08C30.32 89.088 31.552 89.072 32.528 89.056C33.392 91.248 34.4 92.976 35.344 94.032L36.576 93.2ZM28.512 91.888C26.88 92.688 26.192 93.84 26.192 95.008C26.192 95.808 26.496 96.592 27.136 97.168C28.256 98.176 29.84 98.496 32.64 98.496C34.832 98.496 36.24 98.368 36.816 98.304L36.8 96.88C35.808 97.008 34.592 97.152 32.512 97.152C30.224 97.152 27.632 96.944 27.632 94.992C27.632 94.688 27.712 93.696 29.28 92.928L28.512 91.888ZM52.6 86.032C50.152 85.232 47.416 85.088 46.04 85.024L45.784 86.4C47.944 86.48 50.296 86.784 52.2 87.552L52.6 86.032ZM43.832 87.312C43.624 88.144 43.48 89.024 43.416 90.512C43.4 90.992 43.352 93.392 43.352 93.936L44.776 93.984C44.792 93.904 44.808 93.856 44.856 93.696C45.912 92.304 48.056 91.392 50.2 91.392C52.312 91.392 53.16 92.544 53.16 93.792C53.16 94.448 52.984 95.2 52.536 95.68C51.576 96.736 49.656 97.168 47.448 97.168C46.376 97.168 45.4 97.072 44.328 96.88L44.488 98.288C45.144 98.384 46.088 98.512 47.56 98.512C50.984 98.512 54.68 97.648 54.68 93.808C54.68 92.48 53.992 90.096 50.28 90.096C48.2 90.096 46.408 90.768 44.776 92.064C44.776 89.712 44.904 88.784 45.272 87.568L43.832 87.312ZM59.776 85.376C59.264 87.776 59.104 90.336 59.104 92.976C59.104 96.032 59.376 97.632 59.52 98.56L61.072 98.432C60.944 97.856 60.576 96.32 60.576 92.752C60.576 88.72 61.056 86.624 61.296 85.504L59.776 85.376ZM63.728 86.672V88.08H71.248V86.672H63.728ZM64.08 91.968C63.52 92.912 63.232 93.824 63.232 94.656C63.232 97.408 66.192 97.632 68.56 97.632C69.92 97.632 71.04 97.536 71.584 97.488V95.984C70.112 96.144 68.8 96.176 67.92 96.176C66.208 96.176 64.576 95.984 64.576 94.528C64.576 94.384 64.592 93.472 65.376 92.368L64.08 91.968ZM75.128 85.264V98.976H88.504V85.264H75.128ZM87.176 86.48V97.696H76.44V86.48H87.176ZM78.2 88.432V95.6H85.368V88.432H78.2ZM84.088 89.584V94.432H79.464V89.584H84.088ZM98.624 88.464C99.136 87.952 99.504 87.472 99.872 86.96H100.944C101.184 87.456 101.616 88.48 101.808 89.088L103.024 88.656C102.8 88.08 102.576 87.52 102.272 86.96H105.808V85.808H100.592C100.864 85.312 100.944 85.088 101.072 84.72L99.792 84.416C99.472 85.248 98.752 86.8 97.312 87.936L98.032 88.464H97.68C96.448 89.776 94.192 91.328 90.752 92.064L91.36 93.328C92.192 93.12 92.928 92.912 94.496 92.096V92.976H102.272V92.064C103.264 92.56 104.048 92.912 105.456 93.312L106.08 92C103.568 91.408 100.64 90.288 99.104 88.464H98.624ZM94.944 91.856C96.24 91.168 97.584 90.256 98.4 89.344C99.44 90.4 100.288 91.008 101.872 91.856H94.944ZM104.032 94.048H92.752V99.04H104.032V94.048ZM102.672 97.872H94.112V95.2H102.672V97.872ZM94.256 85.808C94.56 85.264 94.656 85.056 94.8 84.704L93.52 84.4C93.008 85.648 91.872 87.056 90.72 87.952L91.584 88.912C92.096 88.512 92.544 88.128 93.456 86.96H94.112C94.464 87.76 94.704 88.608 94.8 88.976L96.048 88.624C95.968 88.336 95.808 87.76 95.424 86.96H98.112V85.808H94.256ZM117.512 86.8V85.008H116.04L116.072 86.8H108.2V88.128H116.088L116.104 89.856C115.768 89.568 115.384 89.216 114.312 89.216C112.328 89.216 111 90.592 111 92.464C111 94.016 111.992 95.6 113.976 95.6C115.816 95.6 116.344 94.4 116.504 94.064C116.296 95.968 115.112 97.44 110.84 97.392L111.288 98.736C114.072 98.624 117.816 97.856 117.816 93.632C117.816 93.216 117.784 92.8 117.72 92.4C117.672 92.016 117.592 91.648 117.512 91.344V88.128H121.704V86.8H117.512ZM116.136 92.576C116.136 93.632 115.304 94.432 114.168 94.432C112.68 94.432 112.344 93.072 112.344 92.4C112.344 90.928 113.464 90.416 114.344 90.416C115.752 90.416 116.008 91.36 116.136 91.872V92.576ZM135.152 85.504C131.328 85.728 130.016 85.744 126.624 85.744V87.12C129.232 87.072 130.176 87.04 132.896 86.848C129.888 89.552 126.224 92.496 124.992 93.456L125.824 94.656C128.016 92.576 130.096 90.992 132.928 90.992C136 90.992 136.256 92.992 136.256 93.84C136.256 95.856 134.848 96.56 134.4 96.784C133.616 93.824 131.136 93.648 130.576 93.648C129.088 93.648 127.872 94.576 127.872 95.904C127.872 97.424 129.456 98.56 132 98.56C134.992 98.56 137.68 96.944 137.68 93.808C137.68 91.088 135.792 89.792 133.44 89.792C132.16 89.792 131.2 90.128 130.576 90.336C131.632 89.504 131.856 89.328 133.904 87.68C134.304 87.36 134.8 86.96 135.152 86.704V85.504ZM133.2 97.28C132.944 97.344 132.592 97.424 131.952 97.424C130.16 97.424 129.136 96.656 129.136 95.872C129.136 95.44 129.552 94.816 130.528 94.816C131.92 94.816 132.848 95.76 133.2 97.28ZM153.512 88.816C151.032 89.216 149.72 89.472 147.992 90C147.656 89.312 147.576 88.464 147.576 86.768C147.576 85.984 147.592 85.536 147.608 85.104H146.04C146.088 88.512 146.12 89.44 146.648 90.48C145.528 90.96 142.232 92.336 142.232 95.072C142.232 98.48 146.664 98.48 149.432 98.48C151.736 98.48 153.144 98.384 154.184 98.32L154.152 96.816C153.24 96.912 151.752 97.056 149.112 97.056C145.672 97.056 143.72 96.88 143.72 95.024C143.72 91.472 152.36 90.496 153.656 90.352L153.512 88.816ZM161.968 97.856C161.296 96.944 160.16 95.6 159.12 94.64L157.904 95.536C158.432 96.096 159.424 97.136 160.56 98.848L161.968 97.856ZM182.2 85.008V90.192H186.936V97.568C186.936 97.984 186.824 98.096 186.504 98.096L185.032 98.08L185.368 99.344H187.08C188.072 99.344 188.2 98.512 188.2 98.144V85.008H182.2ZM186.936 87.12H183.448V86H186.936V87.12ZM186.936 89.216H183.448V88.016H186.936V89.216ZM185.24 97.472C183.544 96.848 182.744 95.936 182.376 95.392H185.896V94.368H181.8C181.912 93.824 181.928 93.52 181.96 93.12H185.544V92.112H183.688C183.992 91.504 184.168 90.944 184.216 90.784L182.968 90.624C182.936 90.784 182.728 91.6 182.504 92.112H180.264C180.152 91.712 179.896 91.008 179.704 90.592L178.472 90.8C178.696 91.248 178.808 91.504 179.064 92.112H177.272V93.12H180.744C180.744 93.44 180.744 93.824 180.616 94.368H176.888V95.392H180.248C179.896 96.048 179.016 97.152 176.872 97.712L177.528 98.8C179.56 98.128 180.776 96.912 181.368 95.648C182.392 97.52 184.088 98.304 184.648 98.56L185.24 97.472ZM174.6 85.008V99.344H175.864V90.192H180.584V85.008H174.6ZM179.336 87.12H175.864V86H179.336V87.12ZM179.336 89.216H175.864V88.016H179.336V89.216ZM205.232 85.632H200.688V84.496H199.408V85.632H194.864V86.736H199.408V87.84H195.44V93.52H199.408V94.72H194.672V95.824H199.408V97.216H200.688V95.824H205.392V94.72H200.688V93.52H204.752V87.84H200.688V86.736H205.232V85.632ZM199.408 90.144H196.656V88.88H199.408V90.144ZM199.408 92.48H196.656V91.12H199.408V92.48ZM203.52 92.48H200.688V91.12H203.52V92.48ZM203.52 90.144H200.688V88.88H203.52V90.144ZM194.224 87.392C193.36 85.952 192.176 84.992 191.824 84.688L190.928 85.552C191.888 86.352 192.736 87.52 193.184 88.272L194.224 87.392ZM190.64 90.736V91.984H192.384V96.48C191.856 97.072 190.88 97.76 190.464 98.032L191.088 99.44C191.376 99.216 192.512 98.32 193.408 97.168C194.608 98.976 196.496 98.976 197.296 98.976H205.296L205.536 97.744H197.248C196.704 97.744 196.08 97.744 194.912 97.168C194.176 96.8 193.808 96.24 193.68 95.424V90.736H190.64ZM209.288 84.496V99.344H210.6V84.496H209.288ZM208.04 92.512C208.456 91.184 208.632 89.088 208.632 87.664L207.56 87.632C207.56 88.624 207.416 90.72 206.936 92.016L208.04 92.512ZM214.888 88.032C215.24 86.72 215.304 86.016 215.352 85.408L214.024 85.184C213.928 87.344 213.096 89.824 212.008 91.344L213.016 92.192C213.64 91.408 214.12 90.272 214.488 89.264H216.808V92.528H213.336V93.744H216.808V97.504H211.976V98.736H222.008V97.504H218.104V93.744H221.368V92.528H218.104V89.264H221.752V88.032H218.104V84.496H216.808V88.032H214.888ZM212.776 89.584C212.536 88.64 212.104 87.648 211.848 87.088L210.888 87.52C211.288 88.368 211.512 89.072 211.736 90.08L212.776 89.584ZM231.6 98.496C233.376 98.32 234.976 97.776 236.016 96.912C237.472 95.696 238.16 93.808 238.16 91.904C238.16 89.2 236.768 85.616 231.584 85.616C227.36 85.616 224.192 88.4 224.192 92.752C224.192 95.392 225.504 97.248 227.072 97.248C227.792 97.248 228.816 96.88 229.76 95.392C231.408 92.752 231.728 88.816 231.872 86.96C236.272 87.104 236.656 90.624 236.656 91.888C236.656 96.464 232.768 96.928 231.12 97.104L231.6 98.496ZM230.448 87.024C230.288 88.864 230.032 92.112 228.688 94.416C228.272 95.12 227.792 95.712 227.12 95.712C225.984 95.712 225.584 93.872 225.584 92.784C225.584 90.928 226.32 89.136 227.808 88.048C228.624 87.44 229.504 87.2 230.448 87.024ZM246.36 87.984H254.024V86.672H246.376V85.072H244.968V86.672H241.592V87.984H244.968C244.968 89.232 244.968 89.616 244.984 90.096C243.048 90.816 241.144 92.336 241.144 94.896C241.144 96.592 242.168 97.808 243.752 97.808C244.616 97.808 248.264 97.456 250.088 90.816C251.128 91.12 253.048 91.664 253.048 94C253.048 96.64 250.552 97.184 248.216 97.248L248.584 98.576C250.088 98.496 254.504 98.256 254.504 94.128C254.504 91.488 252.568 89.456 248.68 89.456C247.592 89.456 246.84 89.6 246.36 89.696V87.984ZM246.872 94.8C246.536 93.584 246.44 92.48 246.376 90.944C247.56 90.624 248.328 90.64 248.824 90.656C248.376 92.112 247.816 93.728 246.872 94.8ZM245.784 95.808C245.448 96.032 244.792 96.48 243.864 96.48C242.76 96.48 242.44 95.504 242.44 94.8C242.44 93.072 243.96 91.904 245.032 91.408C245.16 93.328 245.448 94.816 245.784 95.808ZM267.952 85.504C264.128 85.728 262.816 85.744 259.424 85.744V87.12C262.032 87.072 262.976 87.04 265.696 86.848C262.688 89.552 259.024 92.496 257.792 93.456L258.624 94.656C260.816 92.576 262.896 90.992 265.728 90.992C268.8 90.992 269.056 92.992 269.056 93.84C269.056 95.856 267.648 96.56 267.2 96.784C266.416 93.824 263.936 93.648 263.376 93.648C261.888 93.648 260.672 94.576 260.672 95.904C260.672 97.424 262.256 98.56 264.8 98.56C267.792 98.56 270.48 96.944 270.48 93.808C270.48 91.088 268.592 89.792 266.24 89.792C264.96 89.792 264 90.128 263.376 90.336C264.432 89.504 264.656 89.328 266.704 87.68C267.104 87.36 267.6 86.96 267.952 86.704V85.504ZM266 97.28C265.744 97.344 265.392 97.424 264.752 97.424C262.96 97.424 261.936 96.656 261.936 95.872C261.936 95.44 262.352 94.816 263.328 94.816C264.72 94.816 265.648 95.76 266 97.28ZM283.192 91.408C283.304 90.72 283.32 90.256 283.352 89.696H288.376V88.56H277.624V89.696H282.168C282.152 90.224 282.136 90.784 282.056 91.408H278.136V99.312H279.4V92.496H281.864C281.576 93.664 281.096 94.832 279.512 95.888L280.264 96.928C281.896 95.664 282.408 94.448 282.776 93.296C283.528 94.976 284.6 95.984 285.688 96.864L286.456 95.84C284.488 94.528 283.928 93.424 283.56 92.496H286.536V97.44C286.536 98 286.36 98.032 285.848 98.032H284.44L284.664 99.312H286.6C287.8 99.312 287.8 98.416 287.8 98.08V91.408H283.192ZM275.912 91.344C275.912 91.488 275.912 91.808 275.896 92.112C275.256 92.416 274.328 92.848 273.32 93.2L273.544 94.608C274.648 94.096 275.512 93.648 275.784 93.488C275.416 96.064 274.696 97.216 273.8 98.32L274.824 99.296C276.744 97.04 277.176 93.952 277.176 91.328V87.152H288.376V85.968H282.296V84.528H280.984V85.968H275.912V91.344ZM275.432 90.224C275.208 89.056 274.728 87.904 274.392 87.216L273.336 87.648C273.608 88.272 274.088 89.584 274.248 90.656L275.432 90.224ZM291.376 93.424C292.128 93.824 293.216 94.4 294.56 95.344C292.544 97.136 290.688 97.84 289.952 98.112L290.832 99.328C291.472 99.04 293.36 98.176 295.616 96.112C297.216 97.344 298.176 98.368 298.72 98.944L299.664 97.856C299.024 97.248 298.08 96.352 296.544 95.2C297.696 93.984 298.24 93.104 298.544 92.64L297.328 92.048C296.992 92.576 296.48 93.392 295.488 94.432C293.664 93.184 292.704 92.704 292.128 92.432L291.376 93.424ZM293.968 85.648C294.208 85.28 294.352 85.04 294.576 84.64L293.168 84.336C292.224 86.256 290.976 87.376 289.936 88.176L290.928 89.152C291.552 88.608 292.32 87.888 293.12 86.848H304.912V85.648H293.968ZM290.24 90.4V91.6H301.12C301.088 91.968 301.008 92.656 301.008 94.256C301.008 95.232 301.008 99.28 303.104 99.28C304.304 99.28 304.768 98.128 305.216 95.824L304 95.232C303.92 95.776 303.616 97.824 303.152 97.824C302.304 97.824 302.304 95.232 302.304 94.448C302.304 93.952 302.336 92.528 302.496 90.4H290.24ZM303.792 88.048H292.896V89.184H303.792V88.048ZM30.896 113.624C31.12 112.824 31.2 112.456 31.296 111.896L29.76 111.832C29.648 112.744 29.536 113.208 29.424 113.624H25.744V114.904H29.04C28.016 117.896 26.736 119.592 25.328 120.92L26.32 121.992C26.832 121.464 27.888 120.056 28.624 119.048C29.744 117.912 30.912 117.416 31.792 117.416C32.528 117.416 32.976 117.736 33.152 118.68C31.568 119.384 28.704 120.824 28.704 123C28.704 125.576 32.32 125.576 34.128 125.576C35.648 125.576 37.04 125.48 37.952 125.416L37.904 124.04C36.464 124.2 34.96 124.264 33.68 124.264C31.92 124.264 30.144 124.264 30.144 122.856C30.144 121.544 32.08 120.52 33.312 119.944C33.344 120.36 33.344 120.632 33.344 120.904C33.344 121.48 33.296 122.072 33.264 122.44H34.656C34.704 121.928 34.704 121.448 34.704 121.224C34.704 120.648 34.688 119.96 34.64 119.4C36.4 118.728 37.536 118.376 38.832 118.008L38.448 116.616C37.008 117.112 34.816 117.992 34.448 118.136C34.128 116.616 33.104 116.264 32.016 116.264C31.216 116.264 30.576 116.536 29.456 117.208C29.92 116.408 30.144 115.88 30.512 114.904H37.568V113.624H30.896ZM49.416 116.152H54.824V114.712L49.416 114.76L49.4 112.104H47.896L47.96 119.64C47.56 119.592 47.256 119.544 46.728 119.544C44.44 119.544 42.184 120.488 42.184 122.68C42.184 124.248 43.368 125.56 46.008 125.56C49.336 125.56 49.448 123.512 49.432 122.568L49.416 121.464C51.368 122.216 53.224 123.656 54.2 124.744L55.24 123.368C54.456 122.552 52.584 121.016 49.432 119.944L49.416 116.152ZM47.976 122.472C47.976 123.128 47.816 124.232 45.992 124.232C45.64 124.232 43.608 124.232 43.608 122.696C43.608 121.4 45.128 120.856 46.504 120.856C47.176 120.856 47.656 120.952 47.992 121.016L47.976 122.472ZM60.784 112.376C60.608 113.304 60.288 115.064 60.288 117.688C60.288 119.448 60.432 120.744 60.512 121.368L61.856 121.288C61.872 120.632 61.888 119.592 63.728 116.952L62.896 116.152C62.336 117.016 61.888 117.816 61.68 118.2C61.68 115.544 61.968 113.864 62.24 112.52L60.784 112.376ZM68.256 112.44C68.432 115.4 68.464 115.832 68.464 117.336C68.464 121.08 68.352 123.304 62.912 124.728L64.016 125.816C69.808 124.36 69.984 121.144 69.984 117.704C69.984 115.976 69.904 114.168 69.776 112.44H68.256ZM78.952 113.048C78.424 114.088 77.8 115.064 77.176 116.024C76.872 115.72 76.488 115.32 76.28 115.128C76.472 114.84 77.384 113.528 78.136 111.88L77.016 111.416C76.456 112.696 75.912 113.704 75.416 114.392L74.92 113.992L74.264 114.936C75.448 115.816 76.264 116.776 76.488 117.032C75.928 117.848 75.672 118.184 75.528 118.376C75.192 118.392 74.952 118.392 74.328 118.408L74.392 119.592C74.648 119.56 75.928 119.48 76.92 119.416V126.312H78.152V119.304L79.384 119.192C79.48 119.496 79.528 119.704 79.608 120.056L80.696 119.592C80.296 118.04 79.816 117.224 79.576 116.776L78.584 117.192C78.728 117.48 78.808 117.608 79.032 118.168C78.744 118.2 77.256 118.296 76.92 118.312C78.152 116.68 79.096 115.192 80.104 113.56L78.952 113.048ZM84.216 111.528V113.256H80.504V114.488H89.16V113.256H85.544V111.528H84.216ZM80.44 126.312C81.208 126.056 82.952 125.48 84.824 123.736C86.488 125.448 88.056 126.056 88.776 126.328L89.448 125.144C88.616 124.856 87.16 124.36 85.656 122.84C87.096 121.128 87.592 119.592 87.832 118.808L86.616 118.296C86.312 119.224 85.832 120.616 84.824 121.88C83.688 120.376 83.352 119.048 83.16 118.312L82.008 118.776C82.248 119.56 82.696 121.048 84.008 122.792C82.552 124.152 80.968 124.744 79.8 125.112L80.44 126.312ZM75.432 125.256C75.992 123.64 76.168 121.24 76.2 120.776L75.064 120.6C75 121.896 74.728 123.512 74.28 124.808L75.432 125.256ZM80.616 123.816C80.408 122.056 80.008 120.968 79.848 120.488L78.856 120.744C79.224 122.056 79.384 123.336 79.448 124.104L80.616 123.816ZM81.24 118.44C82.92 117.352 83.72 116.136 84.072 115.608L83.016 114.968C82.264 116.088 81.4 116.856 80.36 117.496L81.24 118.44ZM85.752 115.544C86.792 117.224 88.168 118.152 88.632 118.472L89.432 117.496C88.312 116.728 87.624 116.088 86.776 114.952L85.752 115.544ZM93.984 112.376C93.808 113.304 93.488 115.064 93.488 117.688C93.488 119.448 93.632 120.744 93.712 121.368L95.056 121.288C95.072 120.632 95.088 119.592 96.928 116.952L96.096 116.152C95.536 117.016 95.088 117.816 94.88 118.2C94.88 115.544 95.168 113.864 95.44 112.52L93.984 112.376ZM101.456 112.44C101.632 115.4 101.664 115.832 101.664 117.336C101.664 121.08 101.552 123.304 96.112 124.728L97.216 125.816C103.008 124.36 103.184 121.144 103.184 117.704C103.184 115.976 103.104 114.168 102.976 112.44H101.456ZM112.68 123.544C115.016 121.56 116.728 118.936 117.528 115.976C118.056 118.36 118.968 120.952 121.672 123.624L122.616 122.504C119.096 119.448 118.296 115.144 118.216 112.008H113.448V113.272H116.936C116.52 116.744 114.664 120.392 111.688 122.408L112.68 123.544ZM111.656 114.152C110.68 113.112 109.736 112.344 108.712 111.672L107.848 112.584C109.416 113.704 110.2 114.552 110.728 115.16L111.656 114.152ZM107.592 117.704V118.968H109.656V122.984C108.776 123.976 107.848 124.632 107.416 124.936L108.104 126.36C109.176 125.448 110.024 124.392 110.408 123.896C110.936 124.632 111.896 125.992 114.984 125.992H122.328L122.552 124.696H114.776C113.016 124.696 111.304 124.2 110.952 122.424V117.704H107.592ZM126.16 113.064C126.24 113.592 126.464 114.952 126.912 116.488C125.44 117.768 124.816 119.512 124.816 121.032C124.816 122.392 125.424 124.44 127.52 124.44C129.184 124.44 130.4 123.128 131.264 121.672C132.144 120.2 132.672 118.376 133.104 115.88C133.824 115.976 136.88 116.376 136.88 120.072C136.88 123.976 132.896 124.12 131.44 124.184L131.824 125.512C133.088 125.464 138.304 125.208 138.304 120.12C138.304 118.28 137.408 115 133.312 114.632C133.408 113.96 133.456 113.528 133.552 112.168L132.08 112.072C132.064 112.744 132.064 113.352 131.92 114.616C129.792 114.696 128.272 115.576 127.968 115.752C127.696 114.776 127.536 113.832 127.424 112.84L126.16 113.064ZM130.192 120.984C129.536 120.248 128.832 118.632 128.32 117C128.64 116.792 129.872 116.008 131.808 115.848C131.488 117.688 131.008 119.576 130.192 120.984ZM129.52 121.96C129.088 122.472 128.4 123.112 127.584 123.112C126.944 123.112 126.128 122.68 126.128 121.096C126.128 120.328 126.336 118.968 127.328 117.832C127.84 119.368 128.624 120.984 129.52 121.96ZM149.32 113.848V112.168H147.912V113.848H141.832V115.08H147.912V117.064H142.072V118.28H147.912V120.168C147.576 120.104 147.032 120.008 146.312 120.008C143.928 120.008 142.28 121.224 142.28 122.904C142.28 123.928 142.952 125.592 146.072 125.592C147.416 125.592 149.32 125.16 149.32 122.872V121.96C150.2 122.36 151.608 123.096 153.16 124.808L154.104 123.432C152.424 122.024 151.016 121.144 149.32 120.52V118.28H154.12V117.064H149.32V115.08H154.424V113.848H149.32ZM147.912 122.584C147.912 123.848 147.288 124.344 145.896 124.344C143.784 124.344 143.624 123.16 143.624 122.856C143.624 121.8 144.824 121.192 146.312 121.192C147.128 121.192 147.592 121.32 147.912 121.416V122.584ZM167.312 113.8V112.008H165.84L165.872 113.8H158V115.128H165.888L165.904 116.856C165.568 116.568 165.184 116.216 164.112 116.216C162.128 116.216 160.8 117.592 160.8 119.464C160.8 121.016 161.792 122.6 163.776 122.6C165.616 122.6 166.144 121.4 166.304 121.064C166.096 122.968 164.912 124.44 160.64 124.392L161.088 125.736C163.872 125.624 167.616 124.856 167.616 120.632C167.616 120.216 167.584 119.8 167.52 119.4C167.472 119.016 167.392 118.648 167.312 118.344V115.128H171.504V113.8H167.312ZM165.936 119.576C165.936 120.632 165.104 121.432 163.968 121.432C162.48 121.432 162.144 120.072 162.144 119.4C162.144 117.928 163.264 117.416 164.144 117.416C165.552 117.416 165.808 118.36 165.936 118.872V119.576ZM32 146.416L37.184 151.616L37.696 151.104L32.496 145.92L37.696 140.736L37.184 140.224L32 145.424L26.816 140.224L26.304 140.736L31.504 145.92L26.304 151.104L26.816 151.616L32 146.416ZM36.352 144.592C35.632 144.592 35.024 145.184 35.024 145.92C35.024 146.656 35.632 147.248 36.352 147.248C37.104 147.248 37.696 146.64 37.696 145.92C37.696 145.2 37.104 144.592 36.352 144.592ZM27.648 144.592C26.912 144.592 26.304 145.184 26.304 145.92C26.304 146.656 26.912 147.248 27.648 147.248C28.384 147.248 28.976 146.64 28.976 145.92C28.976 145.2 28.384 144.592 27.648 144.592ZM32 140.224C31.28 140.224 30.672 140.816 30.672 141.568C30.672 142.288 31.264 142.896 32 142.896C32.752 142.896 33.328 142.272 33.328 141.568C33.328 140.832 32.752 140.224 32 140.224ZM32 148.944C31.28 148.944 30.672 149.536 30.672 150.272C30.672 151.008 31.264 151.616 32 151.616C32.752 151.616 33.328 150.992 33.328 150.272C33.328 149.552 32.752 148.944 32 148.944ZM41.928 139.264V152.976H55.304V139.264H41.928ZM53.976 140.48V151.696H43.24V140.48H53.976ZM45 142.432V149.6H52.168V142.432H45ZM50.888 143.584V148.432H46.264V143.584H50.888ZM65.424 142.464C65.936 141.952 66.304 141.472 66.672 140.96H67.744C67.984 141.456 68.416 142.48 68.608 143.088L69.824 142.656C69.6 142.08 69.376 141.52 69.072 140.96H72.608V139.808H67.392C67.664 139.312 67.744 139.088 67.872 138.72L66.592 138.416C66.272 139.248 65.552 140.8 64.112 141.936L64.832 142.464H64.48C63.248 143.776 60.992 145.328 57.552 146.064L58.16 147.328C58.992 147.12 59.728 146.912 61.296 146.096V146.976H69.072V146.064C70.064 146.56 70.848 146.912 72.256 147.312L72.88 146C70.368 145.408 67.44 144.288 65.904 142.464H65.424ZM61.744 145.856C63.04 145.168 64.384 144.256 65.2 143.344C66.24 144.4 67.088 145.008 68.672 145.856H61.744ZM70.832 148.048H59.552V153.04H70.832V148.048ZM69.472 151.872H60.912V149.2H69.472V151.872ZM61.056 139.808C61.36 139.264 61.456 139.056 61.6 138.704L60.32 138.4C59.808 139.648 58.672 141.056 57.52 141.952L58.384 142.912C58.896 142.512 59.344 142.128 60.256 140.96H60.912C61.264 141.76 61.504 142.608 61.6 142.976L62.848 142.624C62.768 142.336 62.608 141.76 62.224 140.96H64.912V139.808H61.056ZM80.696 140.624C80.92 139.824 81 139.456 81.096 138.896L79.56 138.832C79.448 139.744 79.336 140.208 79.224 140.624H75.544V141.904H78.84C77.816 144.896 76.536 146.592 75.128 147.92L76.12 148.992C76.632 148.464 77.688 147.056 78.424 146.048C79.544 144.912 80.712 144.416 81.592 144.416C82.328 144.416 82.776 144.736 82.952 145.68C81.368 146.384 78.504 147.824 78.504 150C78.504 152.576 82.12 152.576 83.928 152.576C85.448 152.576 86.84 152.48 87.752 152.416L87.704 151.04C86.264 151.2 84.76 151.264 83.48 151.264C81.72 151.264 79.944 151.264 79.944 149.856C79.944 148.544 81.88 147.52 83.112 146.944C83.144 147.36 83.144 147.632 83.144 147.904C83.144 148.48 83.096 149.072 83.064 149.44H84.456C84.504 148.928 84.504 148.448 84.504 148.224C84.504 147.648 84.488 146.96 84.44 146.4C86.2 145.728 87.336 145.376 88.632 145.008L88.248 143.616C86.808 144.112 84.616 144.992 84.248 145.136C83.928 143.616 82.904 143.264 81.816 143.264C81.016 143.264 80.376 143.536 79.256 144.208C79.72 143.408 79.944 142.88 80.312 141.904H87.368V140.624H80.696ZM105.408 144.672H97.008V147.392H98.24V145.808H104.144V147.392H105.408V144.672ZM101.664 146.736V151.92C101.664 152.272 101.664 153.168 102.816 153.168H104.576C105.44 153.168 105.776 152.656 105.744 150.048L104.624 149.712C104.624 150.16 104.608 151.216 104.544 151.552C104.496 151.744 104.448 151.968 104.096 151.968H103.296C102.912 151.968 102.912 151.856 102.912 151.552V146.736H101.664ZM99.104 146.736C99.056 149.696 98.608 151.28 96.144 152.208L96.928 153.312C99.488 152.064 100.224 150.544 100.336 146.736H99.104ZM95.248 140.064C94.832 140.832 94.368 141.68 93.632 142.912C93.328 142.56 93.168 142.416 92.816 142.08C93.184 141.536 93.888 140.304 94.512 138.96L93.344 138.544C93.024 139.36 92.672 140.224 92 141.36C91.76 141.184 91.68 141.12 91.52 140.992L90.864 142C91.664 142.544 92.24 143.104 92.96 143.952L92 145.424H90.848L90.944 146.624C91.68 146.592 92.352 146.56 93.296 146.48V153.328H94.496V146.368C94.912 146.336 95.36 146.288 95.744 146.24C95.824 146.592 95.856 146.704 95.92 147.04L96.976 146.656C96.88 146.304 96.56 145.04 95.952 143.808L94.992 144.224C95.136 144.496 95.232 144.688 95.424 145.264C95.12 145.28 93.6 145.36 93.264 145.376C94.352 143.824 95.408 142.24 96.336 140.576L95.248 140.064ZM100.496 138.528V139.824H96.64V141.008H100.496V142.416H97.152V143.536H105.248V142.416H101.792V141.008H105.744V139.824H101.792V138.528H100.496ZM91.968 152.24C92.368 151.072 92.592 149.76 92.656 147.792L91.552 147.68C91.52 148.784 91.36 150.432 90.848 151.776L91.968 152.24ZM96.688 151.072C96.624 149.856 96.448 148.704 96.096 147.552L95.104 147.696C95.36 149.008 95.504 149.888 95.536 151.248L96.688 151.072ZM117.912 143.792C118.024 149.568 117.192 150.864 113.32 151.488L113.848 152.8C119.192 152.128 119.464 148.688 119.384 143.792H121.96V142.432L119.368 142.448C119.352 141.968 119.304 139.68 119.304 139.152H117.832C117.848 139.984 117.88 141.728 117.896 142.448H112.2V143.792H117.912ZM109.208 139.296C108.888 141.76 108.728 143.936 108.728 146.416C108.728 148.416 108.808 150.432 109.224 152.4L110.728 152.208C110.28 150.24 110.168 148.192 110.168 146.336C110.168 142.992 110.552 140.544 110.728 139.392L109.208 139.296ZM138.144 139.968C134.208 140 132.736 140.032 129.152 140.224C128.336 140.272 125.776 140.384 124.816 140.416L124.944 141.984C126.688 141.776 132.224 141.44 132.688 141.424C130.8 142.528 128 144.624 128 147.664C128 152.144 133.312 152.368 136.464 152.496L136.752 150.944C135.376 150.992 133.84 150.896 132.72 150.656C131.024 150.304 129.488 149.648 129.488 147.568C129.488 144.816 132.624 142.336 134.928 141.568C135.408 141.408 135.744 141.376 136.544 141.376C137.168 141.376 137.632 141.392 138.176 141.44L138.144 139.968ZM146.136 141.328L146.184 139.12H144.712L144.696 141.328H141.832V142.64H144.664L144.632 145.568H141.608V146.88H144.616C144.616 149.184 144.616 150.032 144.968 150.752C145.768 152.352 147.304 152.544 149.352 152.544C151.112 152.544 154.712 152.544 154.712 148.224C154.712 146.64 154.216 145.28 153.624 144.176L152.312 144.528C152.952 145.888 153.24 147.008 153.24 148.08C153.24 151.168 150.936 151.168 149.272 151.168C145.96 151.168 145.944 150.432 146.04 146.88H148.2C149.496 146.88 150.552 146.768 151.176 146.592L151.096 145.28C150.392 145.488 149.64 145.568 148.136 145.568H146.056L146.12 142.64H151.288V141.328H146.136ZM161.968 151.856C161.296 150.944 160.16 149.6 159.12 148.64L157.904 149.536C158.432 150.096 159.424 151.136 160.56 152.848L161.968 151.856ZM176.76 141.344C176.904 140.464 177 139.6 177.112 138.592L175.768 138.496C175.736 139.168 175.672 140.032 175.496 141.344H173.976V142.576H175.304C175.032 144.272 174.648 145.856 174.12 147.456C174.616 147.712 175.432 148.096 176.712 149.12C175.688 150.912 174.44 151.76 173.8 152.176L174.68 153.28C175.32 152.8 176.616 151.824 177.704 149.968C178.552 150.752 178.936 151.184 179.336 151.632L180.312 150.576C179.944 150.192 179.352 149.584 178.296 148.752C178.904 147.296 179.432 144.608 179.672 141.344H176.76ZM178.344 142.576C178.056 145.616 177.464 147.456 177.256 147.968C176.648 147.536 176.088 147.184 175.592 146.88C176.248 144.336 176.456 143.168 176.552 142.576H178.344ZM188.28 139.12H180.328V140.384H186.744C185.928 141.6 184.76 142.528 184.504 142.736H183.784V144.912H179.8V146.176H183.784V151.488C183.784 151.808 183.672 152 183.32 152L180.84 151.984L181.08 153.344H183.608C184.36 153.344 185.112 152.912 185.112 151.888V146.176H188.792V144.912H185.112V143.728C185.56 143.36 187.336 141.872 188.28 140.384V139.12ZM204.416 143.76C202.832 144.128 201.216 144.224 199.744 144.304C199.424 143.44 199.28 142.816 199.184 142.4C200.544 142.336 202.288 142.192 203.392 142L203.264 140.656C201.872 140.896 199.584 141.104 198.944 141.104C198.832 140.384 198.784 139.904 198.736 139.184L197.2 139.2C197.248 139.808 197.296 140.224 197.456 141.168C196.464 141.184 196.352 141.184 195.84 141.184L192 141.168V142.464L196 142.48C196.576 142.48 197.136 142.464 197.712 142.448C197.888 143.2 198.032 143.744 198.24 144.352C197.296 144.384 196.768 144.384 196.288 144.384L191.424 144.32V145.616L196.48 145.648C197.04 145.648 198.272 145.632 198.704 145.6C199.088 146.544 199.792 147.952 200.72 149.072L201.968 148.208C201.008 147.04 200.56 146.176 200.256 145.536C201.664 145.456 203.36 145.312 204.576 145.088L204.416 143.76ZM193.952 147.232C192.944 148.224 192.768 149.008 192.768 149.6C192.768 150.56 193.472 151.44 194.544 151.92C195.488 152.336 196.656 152.56 199.76 152.56C201.6 152.56 202.224 152.512 203.008 152.448L202.976 151.04C202.208 151.104 201.168 151.2 199.328 151.2C197.024 151.2 194.24 151.04 194.24 149.392C194.24 148.816 194.704 148.288 195.04 147.952L193.952 147.232ZM218.264 143.584H216.824L216.92 147.008C216.568 146.928 216.056 146.816 215.256 146.816C212.424 146.816 211.496 148.592 211.496 149.792C211.496 151.28 212.68 152.608 215.08 152.608C216.664 152.608 218.28 152.032 218.28 149.664V149.008C218.856 149.344 219.832 149.936 220.872 151.184L221.752 149.92C220.968 149.056 219.688 148.064 218.344 147.472L218.264 143.584ZM216.952 149.408C216.952 150.496 216.712 151.36 215.128 151.36C214.824 151.36 212.856 151.36 212.856 149.744C212.856 148.848 213.624 148.032 215.256 148.032C216.104 148.032 216.584 148.208 216.952 148.336V149.408ZM212.2 141.12C212.408 139.952 212.424 139.856 212.552 139.088L211.032 139.024C210.968 139.664 210.92 140.016 210.744 141.12H207.784V142.464H210.488C210.072 144.256 209.368 147.392 207.656 150.144L209.128 150.784C209.704 149.6 211.016 146.928 211.928 142.464H215.56V141.12H212.2ZM221.48 142.368C219.784 141.424 218.712 140.944 217.112 140.384L216.552 141.568C217.992 142.096 219.192 142.672 220.808 143.648L221.48 142.368ZM236.512 142.816C234.032 143.216 232.72 143.472 230.992 144C230.656 143.312 230.576 142.464 230.576 140.768C230.576 139.984 230.592 139.536 230.608 139.104H229.04C229.088 142.512 229.12 143.44 229.648 144.48C228.528 144.96 225.232 146.336 225.232 149.072C225.232 152.48 229.664 152.48 232.432 152.48C234.736 152.48 236.144 152.384 237.184 152.32L237.152 150.816C236.24 150.912 234.752 151.056 232.112 151.056C228.672 151.056 226.72 150.88 226.72 149.024C226.72 145.472 235.36 144.496 236.656 144.352L236.512 142.816ZM254.216 143.76C252.632 144.128 251.016 144.224 249.544 144.304C249.224 143.44 249.08 142.816 248.984 142.4C250.344 142.336 252.088 142.192 253.192 142L253.064 140.656C251.672 140.896 249.384 141.104 248.744 141.104C248.632 140.384 248.584 139.904 248.536 139.184L247 139.2C247.048 139.808 247.096 140.224 247.256 141.168C246.264 141.184 246.152 141.184 245.64 141.184L241.8 141.168V142.464L245.8 142.48C246.376 142.48 246.936 142.464 247.512 142.448C247.688 143.2 247.832 143.744 248.04 144.352C247.096 144.384 246.568 144.384 246.088 144.384L241.224 144.32V145.616L246.28 145.648C246.84 145.648 248.072 145.632 248.504 145.6C248.888 146.544 249.592 147.952 250.52 149.072L251.768 148.208C250.808 147.04 250.36 146.176 250.056 145.536C251.464 145.456 253.16 145.312 254.376 145.088L254.216 143.76ZM243.752 147.232C242.744 148.224 242.568 149.008 242.568 149.6C242.568 150.56 243.272 151.44 244.344 151.92C245.288 152.336 246.456 152.56 249.56 152.56C251.4 152.56 252.024 152.512 252.808 152.448L252.776 151.04C252.008 151.104 250.968 151.2 249.128 151.2C246.824 151.2 244.04 151.04 244.04 149.392C244.04 148.816 244.504 148.288 244.84 147.952L243.752 147.232ZM258.976 139.376C258.464 141.776 258.304 144.336 258.304 146.976C258.304 150.032 258.576 151.632 258.72 152.56L260.272 152.432C260.144 151.856 259.776 150.32 259.776 146.752C259.776 142.72 260.256 140.624 260.496 139.504L258.976 139.376ZM262.928 140.672V142.08H270.448V140.672H262.928ZM263.28 145.968C262.72 146.912 262.432 147.824 262.432 148.656C262.432 151.408 265.392 151.632 267.76 151.632C269.12 151.632 270.24 151.536 270.784 151.488V149.984C269.312 150.144 268 150.176 267.12 150.176C265.408 150.176 263.776 149.984 263.776 148.528C263.776 148.384 263.792 147.472 264.576 146.368L263.28 145.968ZM286.76 142.56C287.192 142.784 287.496 142.928 288.008 143.152L288.616 141.888C286.664 141.216 285.112 140.352 283.512 138.496H282.168C281.176 139.952 279.416 141.152 277.192 141.888L277.784 143.152C278.12 143.008 278.36 142.912 278.936 142.624V143.52H282.216V144.976H277.704V146.08H282.216V149.424C282.216 149.824 281.96 149.808 281.784 149.808L280.136 149.792L280.344 151.04H282.328C283.48 151.04 283.496 150.208 283.496 149.824V146.08H287.944V144.976H283.496V143.52H286.76V142.56ZM279.32 142.432C281.128 141.44 282.248 140.24 282.888 139.504C284.168 140.96 285.544 141.856 286.536 142.432H279.32ZM277.224 141.392C276.312 140.16 275.672 139.504 274.776 138.736L273.88 139.568C274.888 140.48 275.432 141.12 276.168 142.24L277.224 141.392ZM273.624 144.736V145.984H275.384V150.528C274.984 150.928 274.536 151.344 273.448 152.048L274.104 153.44C274.904 152.784 275.704 152 276.36 151.184C276.792 151.728 277.784 152.992 280.44 152.992H288.36L288.6 151.744H280.408C279.72 151.744 279.08 151.744 277.96 151.168C276.872 150.592 276.728 149.728 276.648 149.248V144.736H273.624ZM278.232 150.432C278.776 150 279.992 149.008 280.856 147.264L279.8 146.72C279.16 148.016 278.152 148.928 277.336 149.488L278.232 150.432ZM284.712 147.248C285.208 148.096 286.184 149.536 287.32 150.544L288.312 149.648C287.656 149.088 286.808 148.288 285.816 146.656L284.712 147.248ZM290.848 141.216V148.784H296.912V153.344H298.272V148.784H304.416V141.216H298.272V138.496H296.912V141.216H290.848ZM296.912 147.488H292.192V142.528H296.912V147.488ZM303.072 147.488H298.272V142.528H303.072V147.488ZM28.96 167.048C28.672 167.576 28.176 168.472 27.232 169.944C27.104 169.8 26.864 169.56 26.352 169.112C26.544 168.84 27.664 167.032 28.256 165.864L27.04 165.448C26.624 166.312 26.256 167.064 25.488 168.376C25.424 168.328 25.36 168.28 25.056 168.072L24.48 169.08C25.504 169.864 26.368 170.808 26.544 171C26.064 171.736 25.808 172.104 25.568 172.408C25.216 172.424 25.024 172.408 24.56 172.408L24.608 173.544C25.152 173.544 25.424 173.528 26.992 173.432V180.312H28.208V173.352C28.976 173.288 29.264 173.256 29.472 173.224C29.584 173.592 29.616 173.736 29.68 174.04L30.32 173.784L30.864 174.92C31.632 174.6 33.024 174.04 34.912 172.696C35.792 173.336 36.992 174.104 39.024 174.872L39.696 173.592C38.96 173.368 37.632 172.936 35.968 171.864C37.312 170.664 38.176 169.4 38.672 168.088V166.936H34.016C34.352 166.312 34.464 165.992 34.576 165.608L33.232 165.4C32.448 167.64 30.992 168.92 29.936 169.736L30.736 170.664C31.12 170.376 31.472 170.12 32.112 169.48C32.752 170.6 33.36 171.32 33.936 171.864C32.304 172.952 31.232 173.352 30.768 173.512C30.288 171.832 29.952 171.24 29.664 170.76L28.688 171.176C28.88 171.608 29.024 171.896 29.152 172.248C28.416 172.312 27.344 172.344 26.848 172.376C28 170.776 29.12 169.176 30.08 167.464L28.96 167.048ZM37.28 168.088C36.96 168.712 36.368 169.88 34.912 171.096C33.76 170.12 33.184 169.24 32.848 168.648C33.008 168.456 33.136 168.28 33.28 168.088H37.28ZM25.568 179.256C25.744 178.792 26.144 177.688 26.176 174.712L25.056 174.68C25.04 175.672 24.976 177.272 24.432 178.696L25.568 179.256ZM30.624 178.168C30.528 177.128 30.256 175.608 29.904 174.536L28.896 174.712C29.328 176.264 29.424 177.672 29.456 178.392L30.624 178.168ZM37.344 175.8C36.192 175.112 34.592 174.456 33.392 174.12L32.72 175.208C33.68 175.48 35.52 176.168 36.672 176.968L37.344 175.8ZM38.336 179.176C36.304 178.2 33.52 177.464 31.52 177.16L31.104 178.36C33.168 178.664 36.064 179.56 37.664 180.44L38.336 179.176ZM41.336 166.088V167.4H53.528C52.456 168.456 50.648 169.512 49.176 170.088H47.944V178.456C47.944 178.952 47.544 178.952 47.368 178.952L44.712 178.936L45 180.328H47.8C48.792 180.328 49.32 180.152 49.32 178.952V171.464C51.656 170.52 53.8 169.16 55.576 167.368V166.088H41.336ZM67.424 171C68.176 172.056 68.576 172.808 69.104 174.088L70.224 173.384C69.664 172.168 69.2 171.304 68.464 170.36L67.424 171ZM69.792 169.976C70.56 171.08 70.928 171.768 71.472 173.064L72.592 172.36C72.016 171.112 71.6 170.328 70.832 169.336L69.792 169.976ZM71.744 166.968C68.08 166.984 66.576 167.016 62.784 167.224C61.968 167.272 59.2 167.4 58.416 167.416L58.544 168.984C60.288 168.776 65.824 168.44 66.288 168.424C64.4 169.528 61.6 171.624 61.6 174.664C61.6 179.144 66.912 179.368 70.064 179.496L70.352 177.944C68.928 177.992 67.344 177.864 66.32 177.656C64.624 177.304 63.088 176.648 63.088 174.568C63.088 171.816 66.224 169.336 68.528 168.568C69.008 168.408 69.36 168.376 70.144 168.376C70.592 168.376 71.088 168.392 71.776 168.44L71.744 166.968ZM88.216 170.76C86.632 171.128 85.016 171.224 83.544 171.304C83.224 170.44 83.08 169.816 82.984 169.4C84.344 169.336 86.088 169.192 87.192 169L87.064 167.656C85.672 167.896 83.384 168.104 82.744 168.104C82.632 167.384 82.584 166.904 82.536 166.184L81 166.2C81.048 166.808 81.096 167.224 81.256 168.168C80.264 168.184 80.152 168.184 79.64 168.184L75.8 168.168V169.464L79.8 169.48C80.376 169.48 80.936 169.464 81.512 169.448C81.688 170.2 81.832 170.744 82.04 171.352C81.096 171.384 80.568 171.384 80.088 171.384L75.224 171.32V172.616L80.28 172.648C80.84 172.648 82.072 172.632 82.504 172.6C82.888 173.544 83.592 174.952 84.52 176.072L85.768 175.208C84.808 174.04 84.36 173.176 84.056 172.536C85.464 172.456 87.16 172.312 88.376 172.088L88.216 170.76ZM77.752 174.232C76.744 175.224 76.568 176.008 76.568 176.6C76.568 177.56 77.272 178.44 78.344 178.92C79.288 179.336 80.456 179.56 83.56 179.56C85.4 179.56 86.024 179.512 86.808 179.448L86.776 178.04C86.008 178.104 84.968 178.2 83.128 178.2C80.824 178.2 78.04 178.04 78.04 176.392C78.04 175.816 78.504 175.288 78.84 174.952L77.752 174.232ZM99.52 167.848V166.168H98.112V167.848H92.032V169.08H98.112V171.064H92.272V172.28H98.112V174.168C97.776 174.104 97.232 174.008 96.512 174.008C94.128 174.008 92.48 175.224 92.48 176.904C92.48 177.928 93.152 179.592 96.272 179.592C97.616 179.592 99.52 179.16 99.52 176.872V175.96C100.4 176.36 101.808 177.096 103.36 178.808L104.304 177.432C102.624 176.024 101.216 175.144 99.52 174.52V172.28H104.32V171.064H99.52V169.08H104.624V167.848H99.52ZM98.112 176.584C98.112 177.848 97.488 178.344 96.096 178.344C93.984 178.344 93.824 177.16 93.824 176.856C93.824 175.8 95.024 175.192 96.512 175.192C97.328 175.192 97.792 175.32 98.112 175.416V176.584ZM117.512 167.8V166.008H116.04L116.072 167.8H108.2V169.128H116.088L116.104 170.856C115.768 170.568 115.384 170.216 114.312 170.216C112.328 170.216 111 171.592 111 173.464C111 175.016 111.992 176.6 113.976 176.6C115.816 176.6 116.344 175.4 116.504 175.064C116.296 176.968 115.112 178.44 110.84 178.392L111.288 179.736C114.072 179.624 117.816 178.856 117.816 174.632C117.816 174.216 117.784 173.8 117.72 173.4C117.672 173.016 117.592 172.648 117.512 172.344V169.128H121.704V167.8H117.512ZM116.136 173.576C116.136 174.632 115.304 175.432 114.168 175.432C112.68 175.432 112.344 174.072 112.344 173.4C112.344 171.928 113.464 171.416 114.344 171.416C115.752 171.416 116.008 172.36 116.136 172.872V173.576Z" fill="#16191F" fill-opacity="0.9"/>
<rect x="24" y="210" width="295" height="48" rx="24" fill="#3959CC"/>
<path d="M151.564 234.884H159.468V236.436H151.564V234.884ZM155.66 233.652H157.372V239.86C157.372 240.628 157.244 241.06 156.716 241.332C156.204 241.588 155.516 241.604 154.572 241.604C154.492 241.14 154.236 240.452 154.012 240.036C154.588 240.052 155.212 240.052 155.404 240.052C155.596 240.036 155.66 239.988 155.66 239.812V233.652ZM155.276 235.828L156.636 236.372C155.628 238.052 153.852 239.7 152.204 240.596C151.916 240.18 151.388 239.54 151.004 239.22C152.604 238.532 154.364 237.172 155.276 235.828ZM149.708 229.748H153.724V231.044H149.708V229.748ZM157.132 229.748H161.18V231.044H157.132V229.748ZM160.396 227.524H162.332V239.636C162.332 240.724 162.108 241.268 161.452 241.588C160.764 241.908 159.772 241.94 158.3 241.94C158.22 241.396 157.916 240.484 157.628 239.988C158.572 240.036 159.66 240.02 159.98 240.02C160.284 240.02 160.396 239.908 160.396 239.62V227.524ZM149.868 227.524H154.924V233.332H149.868V231.956H153.132V228.916H149.868V227.524ZM161.42 227.524V228.916H157.836V232.004H161.42V233.38H156.012V227.524H161.42ZM148.764 227.524H150.668V241.94H148.764V227.524ZM173.308 229.204C173.756 229.876 174.46 231.028 174.828 231.764L173.388 232.388C172.908 231.38 172.508 230.612 171.916 229.78L173.308 229.204ZM175.452 228.324C175.932 228.964 176.652 230.1 177.02 230.82L175.628 231.492C175.116 230.484 174.668 229.748 174.076 228.948L175.452 228.324ZM169.18 227.908C169.084 228.596 169.004 229.412 168.972 230.052C168.908 231.764 168.78 235.348 168.78 237.332C168.78 238.948 169.74 239.476 170.988 239.476C173.628 239.476 175.308 237.956 176.46 236.212L177.916 237.988C176.876 239.508 174.62 241.652 170.972 241.652C168.348 241.652 166.652 240.5 166.652 237.764C166.652 235.62 166.812 231.412 166.812 230.052C166.812 229.284 166.748 228.516 166.604 227.892L169.18 227.908ZM183.02 228.324C183.468 228.372 184.012 228.404 184.46 228.404C185.324 228.404 188.732 228.324 189.644 228.244C190.316 228.196 190.684 228.132 190.876 228.068L191.9 229.508C191.532 229.748 191.148 229.972 190.796 230.244C189.932 230.852 188.252 232.26 187.228 233.06C187.772 232.916 188.252 232.884 188.748 232.884C191.468 232.884 193.532 234.58 193.532 236.9C193.532 239.428 191.612 241.428 187.74 241.428C185.516 241.428 183.836 240.42 183.836 238.804C183.836 237.508 185.02 236.324 186.716 236.324C188.908 236.324 190.124 237.796 190.172 239.556L188.3 239.796C188.268 238.644 187.66 237.844 186.716 237.844C186.124 237.844 185.724 238.212 185.724 238.628C185.724 239.22 186.38 239.62 187.356 239.62C190.06 239.62 191.436 238.596 191.436 236.884C191.436 235.428 189.996 234.452 188.124 234.452C185.66 234.452 184.076 235.764 182.364 237.7L180.908 236.196C182.044 235.3 183.98 233.668 184.908 232.884C185.804 232.148 187.484 230.804 188.268 230.1C187.452 230.132 185.244 230.212 184.38 230.276C183.948 230.308 183.452 230.34 183.084 230.404L183.02 228.324Z" fill="white"/>
</g>
<rect x="0.5" y="0.5" width="342" height="281" rx="7.5" stroke="#16191F" stroke-opacity="0.18"/>
<defs>
<clipPath id="clip0_2815_1060">
<rect width="343" height="282" rx="8" fill="white"/>
</clipPath>
</defs>
</svg>
