<svg width="560" height="315" viewBox="0 0 560 315" fill="none" xmlns="http://www.w3.org/2000/svg">
<rect width="560" height="315" fill="white"/>
<g clip-path="url(#clip0_3239_146)">
<mask id="path-1-inside-1_3239_146" fill="white">
<path d="M109 136C109 131.582 112.582 128 117 128H444C448.418 128 452 131.582 452 136V315H109V136Z"/>
</mask>
<path d="M109 136C109 131.582 112.582 128 117 128H444C448.418 128 452 131.582 452 136V315H109V136Z" fill="white"/>
<path d="M266.339 171V161.128H262.995V159.16H272.051V161.128H268.707V171H266.339ZM273.795 171V162.056H276.147V171H273.795ZM274.963 160.6C274.147 160.6 273.603 160.088 273.603 159.304C273.603 158.536 274.147 158.04 274.963 158.04C275.779 158.04 276.339 158.536 276.339 159.304C276.339 160.088 275.779 160.6 274.963 160.6ZM281.919 171.224C279.791 171.224 278.975 169.88 278.975 167.88V163.896H277.727V162.152L279.119 162.056L279.375 159.624H281.327V162.056H283.551V163.896H281.327V167.88C281.327 168.904 281.759 169.384 282.543 169.384C282.847 169.384 283.183 169.272 283.439 169.176L283.823 170.888C283.343 171.048 282.719 171.224 281.919 171.224ZM287.597 171.224C285.949 171.224 285.389 170.152 285.389 168.488V158.248H287.741V168.584C287.741 169.144 287.981 169.32 288.205 169.32C288.285 169.32 288.349 169.32 288.509 169.288L288.797 171.032C288.525 171.128 288.157 171.224 287.597 171.224ZM294.34 171.224C291.828 171.224 289.876 169.496 289.876 166.536C289.876 163.624 291.924 161.832 294.036 161.832C296.516 161.832 297.78 163.624 297.78 166.104C297.78 166.552 297.732 166.968 297.684 167.192H292.148C292.356 168.664 293.316 169.416 294.644 169.416C295.364 169.416 296.004 169.192 296.66 168.792L297.444 170.248C296.564 170.856 295.444 171.224 294.34 171.224ZM292.116 165.624H295.78C295.78 164.408 295.236 163.64 294.084 163.64C293.14 163.64 292.308 164.312 292.116 165.624Z" fill="#16191F" fill-opacity="0.9"/>
<path d="M126.216 207.392H130.216C131.32 207.392 131.96 207.44 132.664 207.744C133.512 208.112 134.376 209.008 134.376 210.624C134.376 212.432 133.304 213.056 132.776 213.36C133.336 213.632 134.808 214.336 134.808 216.448C134.808 220 131.592 220 130.424 220H126.216V207.392ZM130.184 208.768H127.72V212.768H130.568C131 212.768 132.904 212.768 132.904 210.784C132.904 208.768 131.224 208.768 130.184 208.768ZM130.76 214.112H127.72V218.624H130.296C131.8 218.624 133.288 218.448 133.288 216.336C133.288 214.288 131.432 214.112 130.76 214.112ZM136.204 215.296C136.204 212.144 138.412 210.32 140.844 210.32C143.308 210.32 145.5 212.16 145.5 215.296C145.5 218.4 143.308 220.256 140.86 220.256C138.396 220.256 136.204 218.416 136.204 215.296ZM137.644 215.296C137.644 218.048 139.5 218.944 140.844 218.944C142.22 218.944 144.06 218.048 144.06 215.296C144.06 212.544 142.22 211.648 140.86 211.648C139.5 211.648 137.644 212.528 137.644 215.296ZM154.204 220V218.752C153.42 219.744 152.396 220.256 151.132 220.256C148.716 220.256 146.908 218.304 146.908 215.296C146.908 212.272 148.716 210.32 151.132 210.32C152.396 210.32 153.42 210.832 154.204 211.84V206.8H155.644V220H154.204ZM154.284 215.296C154.284 212.368 152.508 211.648 151.34 211.648C149.036 211.648 148.348 213.68 148.348 215.296C148.348 216.912 149.036 218.944 151.34 218.944C152.508 218.944 154.284 218.208 154.284 215.296ZM158.539 224.256L160.475 219.312L157.003 210.576H158.539L161.227 217.424L163.915 210.576H165.451L159.963 224.256H158.539Z" fill="#16191F" fill-opacity="0.9"/>
<rect x="125" y="251" width="311" height="48" rx="24" fill="#3959CC"/>
<path d="M260.564 275.884H268.468V277.436H260.564V275.884ZM264.66 274.652H266.372V280.86C266.372 281.628 266.244 282.06 265.716 282.332C265.204 282.588 264.516 282.604 263.572 282.604C263.492 282.14 263.236 281.452 263.012 281.036C263.588 281.052 264.212 281.052 264.404 281.052C264.596 281.036 264.66 280.988 264.66 280.812V274.652ZM264.276 276.828L265.636 277.372C264.628 279.052 262.852 280.7 261.204 281.596C260.916 281.18 260.388 280.54 260.004 280.22C261.604 279.532 263.364 278.172 264.276 276.828ZM258.708 270.748H262.724V272.044H258.708V270.748ZM266.132 270.748H270.18V272.044H266.132V270.748ZM269.396 268.524H271.332V280.636C271.332 281.724 271.108 282.268 270.452 282.588C269.764 282.908 268.772 282.94 267.3 282.94C267.22 282.396 266.916 281.484 266.628 280.988C267.572 281.036 268.66 281.02 268.98 281.02C269.284 281.02 269.396 280.908 269.396 280.62V268.524ZM258.868 268.524H263.924V274.332H258.868V272.956H262.132V269.916H258.868V268.524ZM270.42 268.524V269.916H266.836V273.004H270.42V274.38H265.012V268.524H270.42ZM257.764 268.524H259.668V282.94H257.764V268.524ZM282.308 270.204C282.756 270.876 283.46 272.028 283.828 272.764L282.388 273.388C281.908 272.38 281.508 271.612 280.916 270.78L282.308 270.204ZM284.452 269.324C284.932 269.964 285.652 271.1 286.02 271.82L284.628 272.492C284.116 271.484 283.668 270.748 283.076 269.948L284.452 269.324ZM278.18 268.908C278.084 269.596 278.004 270.412 277.972 271.052C277.908 272.764 277.78 276.348 277.78 278.332C277.78 279.948 278.74 280.476 279.988 280.476C282.628 280.476 284.308 278.956 285.46 277.212L286.916 278.988C285.876 280.508 283.62 282.652 279.972 282.652C277.348 282.652 275.652 281.5 275.652 278.764C275.652 276.62 275.812 272.412 275.812 271.052C275.812 270.284 275.748 269.516 275.604 268.892L278.18 268.908ZM292.02 269.324C292.468 269.372 293.012 269.404 293.46 269.404C294.324 269.404 297.732 269.324 298.644 269.244C299.316 269.196 299.684 269.132 299.876 269.068L300.9 270.508C300.532 270.748 300.148 270.972 299.796 271.244C298.932 271.852 297.252 273.26 296.228 274.06C296.772 273.916 297.252 273.884 297.748 273.884C300.468 273.884 302.532 275.58 302.532 277.9C302.532 280.428 300.612 282.428 296.74 282.428C294.516 282.428 292.836 281.42 292.836 279.804C292.836 278.508 294.02 277.324 295.716 277.324C297.908 277.324 299.124 278.796 299.172 280.556L297.3 280.796C297.268 279.644 296.66 278.844 295.716 278.844C295.124 278.844 294.724 279.212 294.724 279.628C294.724 280.22 295.38 280.62 296.356 280.62C299.06 280.62 300.436 279.596 300.436 277.884C300.436 276.428 298.996 275.452 297.124 275.452C294.66 275.452 293.076 276.764 291.364 278.7L289.908 277.196C291.044 276.3 292.98 274.668 293.908 273.884C294.804 273.148 296.484 271.804 297.268 271.1C296.452 271.132 294.244 271.212 293.38 271.276C292.948 271.308 292.452 271.34 292.084 271.404L292.02 269.324Z" fill="white"/>
</g>
<path d="M108 136C108 131.029 112.029 127 117 127H444C448.971 127 453 131.029 453 136H451C451 132.134 447.866 129 444 129H117C113.134 129 110 132.134 110 136H108ZM452 315H109H452ZM108 315V136C108 131.029 112.029 127 117 127V129C113.134 129 110 132.134 110 136V315H108ZM444 127C448.971 127 453 131.029 453 136V315H451V136C451 132.134 447.866 129 444 129V127Z" fill="#16191F" fill-opacity="0.18" mask="url(#path-1-inside-1_3239_146)"/>
<defs>
<clipPath id="clip0_3239_146">
<path d="M109 136C109 131.582 112.582 128 117 128H444C448.418 128 452 131.582 452 136V315H109V136Z" fill="white"/>
</clipPath>
</defs>
</svg>
