<svg width="560" height="315" viewBox="0 0 560 315" fill="none" xmlns="http://www.w3.org/2000/svg">
<rect width="560" height="315" fill="white"/>
<path d="M232.375 135.625C240.245 135.625 246.625 129.245 246.625 121.375C246.625 113.505 240.245 107.125 232.375 107.125C224.505 107.125 218.125 113.505 218.125 121.375C218.125 129.245 224.505 135.625 232.375 135.625Z" fill="#3959CC"/>
<path d="M251.969 121.375C251.969 110.554 243.196 101.781 232.375 101.781C221.554 101.781 212.781 110.554 212.781 121.375C212.781 132.196 221.554 140.969 232.375 140.969C243.196 140.969 251.969 132.196 251.969 121.375Z" stroke="#3959CC" stroke-width="2"/>
<path d="M270.166 109.605H272.845V129.612H281.224V132.063H270.166V109.605ZM286.232 118.753L286.004 116.217C286.659 115.846 288.54 114.82 291.447 114.82C292.188 114.82 295.266 114.82 297.09 116.929C298.145 118.155 298.23 119.494 298.23 121.204V128.899C298.23 130.695 298.572 131.436 298.857 132.063H296.178C295.979 131.664 295.751 131.208 295.722 129.982C294.126 131.692 292.046 132.519 289.709 132.519C286.061 132.519 284.408 130.21 284.408 127.617C284.408 122.601 289.509 122.002 292.416 121.66C294.81 121.375 295.637 121.29 295.637 119.922C295.637 117.984 293.556 117.186 291.419 117.186C288.825 117.186 287.03 118.269 286.232 118.753ZM295.694 126.762V123.256C294.839 123.598 294.582 123.655 292.131 123.94C289.652 124.254 286.916 124.738 286.916 127.531C286.916 129.156 287.999 130.239 289.88 130.239C291.818 130.239 294.468 129.099 295.694 126.762ZM306.262 129.811V132.063H303.726V108.55H306.262V117.528C307.687 115.732 309.483 114.82 311.763 114.82C316.038 114.82 319.258 118.297 319.258 123.684C319.258 129.042 316.038 132.519 311.763 132.519C309.483 132.519 307.687 131.607 306.262 129.811ZM306.148 123.684C306.148 128.871 309.283 130.182 311.392 130.182C315.468 130.182 316.722 126.562 316.722 123.684C316.722 120.805 315.468 117.186 311.392 117.186C309.283 117.186 306.148 118.468 306.148 123.684ZM338.054 124.596H325.428C325.571 127.674 327.309 130.182 331.442 130.182C334.206 130.182 335.745 129.27 336.714 128.7V131.436C335.945 131.778 334.149 132.519 331.442 132.519C324.659 132.519 322.92 127.446 322.92 123.769C322.92 118.326 326.283 114.82 330.615 114.82C332.667 114.82 335.774 115.675 337.256 119.352C338.025 121.233 338.054 123.456 338.054 124.596ZM325.457 122.316H335.46C335.147 118.24 332.354 117.186 330.501 117.186C327.737 117.186 325.656 119.266 325.457 122.316ZM348.047 129.726V132.063H346.479C342.774 132.063 342.774 130.125 342.774 128.329V108.55H345.368V128.244C345.368 128.985 345.368 129.726 346.736 129.726H348.047Z" fill="#16191F" fill-opacity="0.9"/>
<path d="M251.969 192.625C251.969 181.804 243.196 173.031 232.375 173.031C221.554 173.031 212.781 181.804 212.781 192.625C212.781 203.446 221.554 212.219 232.375 212.219C243.196 212.219 251.969 203.446 251.969 192.625Z" stroke="#16191F" stroke-opacity="0.48" stroke-width="2"/>
<path d="M270.166 180.854H272.845V200.861H281.224V203.312H270.166V180.854ZM286.232 190.003L286.004 187.466C286.659 187.096 288.54 186.07 291.447 186.07C292.188 186.07 295.266 186.07 297.09 188.179C298.145 189.405 298.23 190.744 298.23 192.454V200.149C298.23 201.944 298.572 202.685 298.857 203.312H296.178C295.979 202.913 295.751 202.458 295.722 201.232C294.126 202.942 292.046 203.768 289.709 203.768C286.061 203.768 284.408 201.46 284.408 198.867C284.408 193.851 289.509 193.252 292.416 192.91C294.81 192.625 295.637 192.539 295.637 191.171C295.637 189.233 293.556 188.435 291.419 188.435C288.825 188.435 287.03 189.518 286.232 190.003ZM295.694 198.011V194.506C294.839 194.848 294.582 194.905 292.131 195.19C289.652 195.503 286.916 195.988 286.916 198.781C286.916 200.406 287.999 201.489 289.88 201.489C291.818 201.489 294.468 200.348 295.694 198.011ZM306.262 201.061V203.312H303.726V179.8H306.262V188.777C307.687 186.982 309.483 186.07 311.763 186.07C316.038 186.07 319.258 189.547 319.258 194.934C319.258 200.292 316.038 203.768 311.763 203.768C309.483 203.768 307.687 202.856 306.262 201.061ZM306.148 194.934C306.148 200.121 309.283 201.431 311.392 201.431C315.468 201.431 316.722 197.812 316.722 194.934C316.722 192.055 315.468 188.435 311.392 188.435C309.283 188.435 306.148 189.718 306.148 194.934ZM338.054 195.845H325.428C325.571 198.923 327.309 201.431 331.442 201.431C334.206 201.431 335.745 200.519 336.714 199.949V202.685C335.945 203.027 334.149 203.768 331.442 203.768C324.659 203.768 322.92 198.696 322.92 195.019C322.92 189.576 326.283 186.07 330.615 186.07C332.667 186.07 335.774 186.925 337.256 190.601C338.025 192.482 338.054 194.705 338.054 195.845ZM325.457 193.565H335.46C335.147 189.49 332.354 188.435 330.501 188.435C327.737 188.435 325.656 190.516 325.457 193.565ZM348.047 200.975V203.312H346.479C342.774 203.312 342.774 201.374 342.774 199.579V179.8H345.368V199.493C345.368 200.234 345.368 200.975 346.736 200.975H348.047Z" fill="#16191F" fill-opacity="0.9"/>
</svg>
