<svg width="560" height="315" viewBox="0 0 560 315" fill="none" xmlns="http://www.w3.org/2000/svg">
<rect width="560" height="315" fill="white"/>
<rect x="80" y="89" width="400" height="56" rx="8" fill="white"/>
<rect x="93" y="106" width="22" height="22" rx="11" stroke="#16191F" stroke-opacity="0.18" stroke-width="2"/>
<path d="M129.04 110.232H132.752C133.936 110.232 134.528 110.296 135.264 110.68C136.528 111.336 137.152 112.504 137.152 113.976C137.152 115.176 136.656 116.968 134.224 117.512L138.144 123H135.44L131.872 117.656H131.264V123H129.04V110.232ZM132.544 112.296H131.264V115.72H132.528C133.136 115.72 134.912 115.72 134.912 113.992C134.912 112.296 133.392 112.296 132.544 112.296ZM140.122 116.088L139.946 114.072C140.986 113.512 142.026 113.224 143.21 113.224C144.138 113.224 145.626 113.384 146.57 114.488C147.034 115.048 147.242 115.736 147.242 117.032V120.824C147.242 122.184 147.466 122.696 147.61 123H145.546C145.418 122.728 145.354 122.488 145.338 122.024C144.122 123.24 142.746 123.256 142.33 123.256C140.666 123.256 139.146 122.296 139.146 120.344C139.146 117.576 141.914 117.208 143.658 116.984C144.698 116.84 145.162 116.792 145.162 116.2C145.162 115.592 144.538 115.112 143.274 115.112C142.122 115.112 141.098 115.48 140.122 116.088ZM145.194 119.848V118.312C144.714 118.536 144.586 118.552 143.418 118.712C142.41 118.84 141.146 119 141.146 120.264C141.146 120.904 141.546 121.448 142.474 121.448C142.666 121.448 144.202 121.448 145.194 119.848ZM156.581 123V121.944C156.085 122.472 155.365 123.256 153.765 123.256C151.141 123.256 149.541 121 149.541 118.232C149.541 115.64 150.997 113.224 153.765 113.224C155.221 113.224 156.085 113.976 156.533 114.424V109.64H158.645V123H156.581ZM156.581 118.232C156.581 115.576 154.901 115.16 154.101 115.16C152.437 115.16 151.653 116.568 151.653 118.232C151.653 119.896 152.437 121.32 154.101 121.32C154.917 121.32 156.581 120.888 156.581 118.232ZM163.645 109.992V112.264H161.309V109.992H163.645ZM163.533 113.48V123H161.421V113.48H163.533ZM165.93 118.232C165.93 115.112 168.154 113.224 170.65 113.224C173.162 113.224 175.354 115.144 175.354 118.232C175.354 121.336 173.162 123.256 170.634 123.256C168.138 123.256 165.93 121.352 165.93 118.232ZM168.042 118.232C168.042 120.696 169.642 121.32 170.634 121.32C171.69 121.32 173.242 120.648 173.242 118.232C173.242 115.832 171.69 115.16 170.65 115.16C169.642 115.16 168.042 115.784 168.042 118.232ZM188.002 119.912V122.328C187.554 122.552 186.162 123.256 183.954 123.256C179.506 123.256 177.154 120.184 177.154 116.648C177.154 112.552 180.178 109.976 183.954 109.976C185.41 109.976 186.77 110.36 188.002 111.176L187.266 113.24C186.754 112.808 185.842 112.04 183.954 112.04C181.058 112.04 179.41 114.104 179.41 116.616C179.41 118.92 180.818 121.192 184.114 121.192C186.146 121.192 187.378 120.328 188.002 119.912ZM190.778 116.088L190.602 114.072C191.642 113.512 192.682 113.224 193.866 113.224C194.794 113.224 196.282 113.384 197.226 114.488C197.69 115.048 197.898 115.736 197.898 117.032V120.824C197.898 122.184 198.122 122.696 198.266 123H196.202C196.074 122.728 196.01 122.488 195.994 122.024C194.778 123.24 193.402 123.256 192.986 123.256C191.322 123.256 189.802 122.296 189.802 120.344C189.802 117.576 192.57 117.208 194.314 116.984C195.354 116.84 195.818 116.792 195.818 116.2C195.818 115.592 195.194 115.112 193.93 115.112C192.778 115.112 191.754 115.48 190.778 116.088ZM195.85 119.848V118.312C195.37 118.536 195.242 118.552 194.074 118.712C193.066 118.84 191.802 119 191.802 120.264C191.802 120.904 192.202 121.448 193.13 121.448C193.322 121.448 194.858 121.448 195.85 119.848ZM202.757 123H200.645V113.48H202.693V114.536C203.637 113.112 205.157 113.208 205.589 113.24V115.16C204.101 115.08 202.757 115.544 202.757 117.688V123ZM214.213 123V121.944C213.717 122.472 212.997 123.256 211.397 123.256C208.773 123.256 207.173 121 207.173 118.232C207.173 115.64 208.629 113.224 211.397 113.224C212.853 113.224 213.717 113.976 214.165 114.424V109.64H216.277V123H214.213ZM214.213 118.232C214.213 115.576 212.533 115.16 211.733 115.16C210.069 115.16 209.285 116.568 209.285 118.232C209.285 119.896 210.069 121.32 211.733 121.32C212.549 121.32 214.213 120.888 214.213 118.232ZM219.82 112.184L222.7 110.232H224.7V123H222.428V112.664L220.108 114.28L219.82 112.184Z" fill="#16191F" fill-opacity="0.9"/>
<rect x="80.5" y="89.5" width="399" height="55" rx="7.5" stroke="#16191F" stroke-opacity="0.18"/>
<rect x="81" y="170" width="398" height="54" rx="7" fill="#F2F6FD"/>
<circle cx="104" cy="197" r="8" fill="#3959CC"/>
<rect x="93" y="186" width="22" height="22" rx="11" stroke="#3959CC" stroke-width="2"/>
<path d="M129.04 190.232H132.752C133.936 190.232 134.528 190.296 135.264 190.68C136.528 191.336 137.152 192.504 137.152 193.976C137.152 195.176 136.656 196.968 134.224 197.512L138.144 203H135.44L131.872 197.656H131.264V203H129.04V190.232ZM132.544 192.296H131.264V195.72H132.528C133.136 195.72 134.912 195.72 134.912 193.992C134.912 192.296 133.392 192.296 132.544 192.296ZM140.122 196.088L139.946 194.072C140.986 193.512 142.026 193.224 143.21 193.224C144.138 193.224 145.626 193.384 146.57 194.488C147.034 195.048 147.242 195.736 147.242 197.032V200.824C147.242 202.184 147.466 202.696 147.61 203H145.546C145.418 202.728 145.354 202.488 145.338 202.024C144.122 203.24 142.746 203.256 142.33 203.256C140.666 203.256 139.146 202.296 139.146 200.344C139.146 197.576 141.914 197.208 143.658 196.984C144.698 196.84 145.162 196.792 145.162 196.2C145.162 195.592 144.538 195.112 143.274 195.112C142.122 195.112 141.098 195.48 140.122 196.088ZM145.194 199.848V198.312C144.714 198.536 144.586 198.552 143.418 198.712C142.41 198.84 141.146 199 141.146 200.264C141.146 200.904 141.546 201.448 142.474 201.448C142.666 201.448 144.202 201.448 145.194 199.848ZM156.581 203V201.944C156.085 202.472 155.365 203.256 153.765 203.256C151.141 203.256 149.541 201 149.541 198.232C149.541 195.64 150.997 193.224 153.765 193.224C155.221 193.224 156.085 193.976 156.533 194.424V189.64H158.645V203H156.581ZM156.581 198.232C156.581 195.576 154.901 195.16 154.101 195.16C152.437 195.16 151.653 196.568 151.653 198.232C151.653 199.896 152.437 201.32 154.101 201.32C154.917 201.32 156.581 200.888 156.581 198.232ZM163.645 189.992V192.264H161.309V189.992H163.645ZM163.533 193.48V203H161.421V193.48H163.533ZM165.93 198.232C165.93 195.112 168.154 193.224 170.65 193.224C173.162 193.224 175.354 195.144 175.354 198.232C175.354 201.336 173.162 203.256 170.634 203.256C168.138 203.256 165.93 201.352 165.93 198.232ZM168.042 198.232C168.042 200.696 169.642 201.32 170.634 201.32C171.69 201.32 173.242 200.648 173.242 198.232C173.242 195.832 171.69 195.16 170.65 195.16C169.642 195.16 168.042 195.784 168.042 198.232ZM188.002 199.912V202.328C187.554 202.552 186.162 203.256 183.954 203.256C179.506 203.256 177.154 200.184 177.154 196.648C177.154 192.552 180.178 189.976 183.954 189.976C185.41 189.976 186.77 190.36 188.002 191.176L187.266 193.24C186.754 192.808 185.842 192.04 183.954 192.04C181.058 192.04 179.41 194.104 179.41 196.616C179.41 198.92 180.818 201.192 184.114 201.192C186.146 201.192 187.378 200.328 188.002 199.912ZM190.778 196.088L190.602 194.072C191.642 193.512 192.682 193.224 193.866 193.224C194.794 193.224 196.282 193.384 197.226 194.488C197.69 195.048 197.898 195.736 197.898 197.032V200.824C197.898 202.184 198.122 202.696 198.266 203H196.202C196.074 202.728 196.01 202.488 195.994 202.024C194.778 203.24 193.402 203.256 192.986 203.256C191.322 203.256 189.802 202.296 189.802 200.344C189.802 197.576 192.57 197.208 194.314 196.984C195.354 196.84 195.818 196.792 195.818 196.2C195.818 195.592 195.194 195.112 193.93 195.112C192.778 195.112 191.754 195.48 190.778 196.088ZM195.85 199.848V198.312C195.37 198.536 195.242 198.552 194.074 198.712C193.066 198.84 191.802 199 191.802 200.264C191.802 200.904 192.202 201.448 193.13 201.448C193.322 201.448 194.858 201.448 195.85 199.848ZM202.757 203H200.645V193.48H202.693V194.536C203.637 193.112 205.157 193.208 205.589 193.24V195.16C204.101 195.08 202.757 195.544 202.757 197.688V203ZM214.213 203V201.944C213.717 202.472 212.997 203.256 211.397 203.256C208.773 203.256 207.173 201 207.173 198.232C207.173 195.64 208.629 193.224 211.397 193.224C212.853 193.224 213.717 193.976 214.165 194.424V189.64H216.277V203H214.213ZM214.213 198.232C214.213 195.576 212.533 195.16 211.733 195.16C210.069 195.16 209.285 196.568 209.285 198.232C209.285 199.896 210.069 201.32 211.733 201.32C212.549 201.32 214.213 200.888 214.213 198.232ZM222.988 200.936H227.836V203H218.204C219.612 201.56 221.148 199.976 222.764 198.024C224.7 195.704 225.036 194.856 225.036 193.96C225.036 192.936 224.364 192.04 223.116 192.04C221.276 192.04 220.3 193.72 219.996 194.248L219.02 192.056C220.012 190.76 221.532 189.976 223.148 189.976C225.212 189.976 227.308 191.208 227.308 193.896C227.308 195.832 226.38 197.256 222.988 200.936Z" fill="#16191F" fill-opacity="0.9"/>
<rect x="81" y="170" width="398" height="54" rx="7" stroke="#3959CC" stroke-width="2"/>
</svg>
