<svg width="560" height="315" viewBox="0 0 560 315" fill="none" xmlns="http://www.w3.org/2000/svg">
<rect width="560" height="315" fill="white"/>
<path d="M66.304 127.692V131.22H80.164C79.184 133.88 77.7 136.876 74.676 140.152C71.68 143.4 68.824 145.36 64.764 147.096L66.892 150.204C71.148 148.328 75.152 145.052 77.784 142.112C81.956 145.752 84.336 148.356 86.044 150.26L89.18 147.236C85.848 143.932 84.336 142.7 80.08 139.34C81.872 136.848 83.944 133.376 85.092 127.692H66.304ZM97.426 138.836C99.33 140.264 104.622 144.24 108.71 149.952L111.986 147.264C110.558 145.528 109.606 144.492 107.646 142.532C115.878 136.876 117.502 131.444 118.174 128.728H94.15V132.312H112.658C110.922 135.28 108.878 137.52 105.042 140.124C102.69 138.08 101.206 137.016 100.254 136.344L97.426 138.836ZM123.088 136.4V140.292H147.112V136.4H123.088ZM175.546 138.892C173.082 137.548 168.602 135.056 162.302 133.068V126.348H158.27V150.26H162.302V136.96C166.81 138.724 169.554 140.18 173.586 142.784L175.546 138.892ZM182.42 128.14V131.808H199.948C199.08 138.164 196.588 144.324 184.548 146.592L186.172 150.092C202.44 146.788 203.756 135.364 204.204 128.14H182.42ZM222.166 137.772C219.534 141.244 216.09 144.044 212.086 145.808L213.962 148.58C216.23 147.432 220.066 145.024 223.258 140.768L223.314 146.536C223.314 147.348 223.118 147.46 222.39 147.46C221.69 147.46 219.702 147.32 218.974 147.264L219.478 150.428C219.982 150.456 221.382 150.54 222.166 150.54C223.622 150.54 226.59 150.54 226.562 146.984L226.478 137.772H231.686V134.58H226.45L226.394 130.94H223.146L223.174 134.58H212.898V137.772H222.166ZM250.824 131.808C247.016 129.512 243.88 128.476 241.836 127.86L240.128 131.08C244.692 132.564 247.576 134.412 248.808 135.252L250.824 131.808ZM241.5 149.812C254.52 148.384 260.288 141.804 263.62 131.472L260.344 129.176C256.76 142.308 248.976 145.08 240.66 145.752L241.5 149.812ZM286.342 139.284H274.246V148.916H285.11L285.502 151.604H290.29C291.242 151.604 292.698 151.492 292.698 148.916V126.208H281.442V137.324H289.366V147.376C289.366 147.852 289.282 148.132 288.638 148.132H286.342V139.284ZM289.366 128.924V130.688H284.774V128.924H289.366ZM289.366 132.816V134.692H284.774V132.816H289.366ZM283.15 142.14V145.948H277.438V142.14H283.15ZM268.002 151.604H271.39V137.324H279.062V126.208H268.002V151.604ZM275.73 128.924V130.688H271.418V128.924H275.73ZM275.73 132.816V134.692H271.418V132.816H275.73ZM303.016 148.3H300.076V145.164H303.016V148.3ZM296.912 138.248V141.076H305.788V138.248H296.912ZM296.912 133.992V136.876H305.788V133.992H296.912ZM296.912 142.42V151.128H305.788V142.42H296.912ZM312.424 125.2C310.576 128.14 308.364 130.156 306.46 131.388V129.876H296.128V132.76H305.844L307.356 134.944C309.484 133.628 312.732 130.716 314.16 128.224C314.972 129.652 317.128 133.236 321.216 135.84L323.064 132.592C318.976 129.96 317.072 127.3 315.868 125.2H312.424ZM296.912 125.816V128.672H305.788V125.816H296.912ZM314.328 132.172C311.864 134.552 310.184 135.7 306.88 137.072L308.56 139.704C312.004 138.192 314.3 136.54 316.624 134.328L314.328 132.172ZM320.628 141.188C317.044 145.248 311.472 147.74 306.516 148.328L308.14 151.548C316.4 149.784 320.824 145.668 322.896 143.568L320.628 141.188ZM317.548 136.652C314.664 139.592 310.8 141.608 306.852 142.672L308.672 145.64C310.856 144.912 315.756 143.176 319.872 138.864L317.548 136.652ZM337.386 128.644C337.638 127.636 337.778 127.104 337.974 126.04L334.11 125.844C333.942 126.964 333.83 127.552 333.578 128.644H327.446V131.808H332.626C331.058 136.064 329.098 138.808 326.466 141.356L328.986 143.96C330.05 142.896 332.206 139.928 332.794 139.088C335.118 136.792 336.938 136.512 337.722 136.512C339.29 136.512 339.598 137.324 339.794 137.828C337.19 139.06 332.43 141.412 332.43 145.22C332.43 150.036 338.646 150.176 342.594 150.176C344.386 150.176 346.626 150.092 348.838 149.98L348.782 146.48C345.674 146.844 342.146 146.844 341.642 146.844C338.618 146.844 336.21 146.844 336.21 144.8C336.21 143.54 337.386 142.308 340.27 140.992C340.298 141.636 340.326 142.812 340.186 144.436H343.714C343.742 143.96 343.77 143.316 343.77 142.392C343.77 141.048 343.686 140.18 343.658 139.592C346.794 138.5 348.922 137.968 350.406 137.632L349.65 134.16C348.138 134.58 346.57 135.14 343.07 136.456C342.454 134.72 341.278 133.6 338.73 133.6C337.386 133.6 336.686 133.936 334.922 134.832C335.538 133.74 335.846 133.096 336.35 131.808H348.138V128.644H337.386ZM359.856 132.452H354.2V135.784H359.408C357.98 138.696 356.216 141.216 353.892 143.344L355.292 147.432C356.552 146.06 358.26 144.156 359.856 140.88V151.604H363.244V140.6C364.308 142.56 365.428 143.904 365.932 144.52L367.724 141.524C365.204 139.06 363.636 136.232 363.384 135.784H367.864V132.452H363.244V129.036C365.792 128.728 366.884 128.448 368.088 128.112L366.968 124.976C362.908 126.208 354.9 126.432 354.34 126.432L354.788 129.624C355.88 129.568 358.68 129.4 359.856 129.344V132.452ZM369.432 127.244V145.584H372.932V127.244H369.432ZM376.236 125.116V147.124C376.236 147.684 376.068 147.88 375.368 147.88H371.056L371.728 151.604H376.796C377.58 151.604 379.764 151.352 379.764 148.636V125.116H376.236ZM408.31 126.292H385.854V139.788C385.854 143.792 384.734 146.536 383.25 148.692L386.134 151.492C387.59 149.476 388.542 147.152 388.962 143.26H395.178V151.352H398.454V143.26H404.782V147.376C404.782 148.02 404.446 148.076 404.082 148.076H401.31L401.786 151.604H405.258C406.77 151.604 408.31 151.128 408.31 148.86V126.292ZM395.178 133.236H389.242V129.624H395.178V133.236ZM404.782 133.236H398.454V129.624H404.782V133.236ZM395.178 140.04H389.242V136.428H395.178V140.04ZM404.782 140.04H398.454V136.428H404.782V140.04ZM429.408 135.532C430.724 137.296 431.452 138.64 432.404 140.88L434.7 139.536C433.692 137.436 432.824 135.84 431.564 134.272L429.408 135.532ZM433.356 133.684C434.728 135.504 435.428 136.764 436.408 139.004L438.704 137.716C437.64 135.56 436.828 134.104 435.512 132.48L433.356 133.684ZM437.192 127.524C431.508 127.636 426.16 127.776 419.356 128.224C416.36 128.42 415.408 128.476 413.56 128.476L413.812 132.508C416.332 132.2 422.94 131.696 425.768 131.5C423.276 133.096 418.936 136.484 418.936 141.468C418.936 149.812 429.044 149.952 434.336 150.064L434.924 146.032C434.42 146.06 433.944 146.088 433.104 146.088C424.62 146.088 422.8 144.044 422.8 141.272C422.8 136.932 427.784 132.704 431.648 131.556C432.628 131.248 433.692 131.192 434.784 131.192C435.428 131.192 436.212 131.22 437.304 131.276L437.192 127.524ZM465.85 134.272C463.582 134.832 461.174 135.084 458.178 135.252C457.87 134.44 457.618 133.32 457.478 132.592C459.55 132.48 462.126 132.256 464.17 131.864L463.834 128.588C461.482 129.064 459.326 129.26 456.946 129.4C456.834 128.532 456.722 127.496 456.694 126.32L452.802 126.404C452.858 127.468 452.942 128 453.11 129.54H444.066V132.76H452.606C452.97 132.76 453.054 132.76 453.67 132.732C453.978 134.16 454.286 135.224 454.342 135.364C453.922 135.392 453.502 135.364 453.082 135.364H443.058V138.5H453.894C454.09 138.5 454.762 138.5 455.406 138.472C455.938 139.788 456.862 142.028 458.71 144.1L461.986 142C461.314 141.244 460.39 140.124 459.466 138.304C462.21 138.108 464.142 137.912 466.298 137.492L465.85 134.272ZM447.286 140.628C445.69 142.364 445.298 143.624 445.298 144.828C445.298 146.844 446.866 148.356 448.378 149.056C449.526 149.56 451.094 150.232 457.282 150.204C460.894 150.204 462.238 150.092 463.554 150.008L463.414 146.368C462.014 146.508 459.83 146.704 456.358 146.704C452.41 146.704 449.078 146.34 449.078 144.24C449.078 143.68 449.358 143.064 450.226 142.084L447.286 140.628ZM490.252 126.852C483.616 127.132 480.9 127.16 474.768 127.132V130.744C478.324 130.688 481.18 130.548 484.176 130.352C477.764 135.98 472.864 139.732 471.716 140.572L473.816 143.708C478.072 139.676 481.264 137.324 485.604 137.324C489.356 137.324 491.092 139.2 491.092 141.776C491.092 143.204 490.476 144.856 488.852 145.864C487.732 142.532 484.652 141.02 482.104 141.02C479.136 141.02 476.924 142.924 476.924 145.388C476.924 147.88 479.248 150.288 484.428 150.288C490.42 150.288 494.76 147.04 494.76 141.664C494.76 136.148 490.448 134.3 487.116 134.3C486.164 134.3 484.876 134.496 483.56 134.86C485.772 133.124 488.74 130.8 490.252 129.764V126.852ZM485.884 147.18C485.632 147.236 485.044 147.376 484.092 147.376C481.74 147.376 480.172 146.536 480.172 145.22C480.172 144.632 480.872 143.904 482.02 143.904C483.952 143.904 485.184 145.136 485.884 147.18ZM64.344 167.112C66.388 168.288 68.656 170.248 69.972 171.76L72.408 168.708C70.336 166.552 68.236 165.236 66.556 164.284L64.344 167.112ZM63.868 178.088H67.424V183.8C66.304 184.976 63.784 186.572 63.56 186.712L65.1 190.408C65.772 189.876 67.816 188.308 69.328 186.292C70.756 189.82 74.956 189.848 78.12 189.848H89.796L90.58 186.46H78.68C75.404 186.46 71.484 186.46 70.868 182.988V174.784H63.868V178.088ZM87.668 163.836C84.056 165.18 78.652 165.712 74.368 165.712V174.98C74.368 179.852 72.8 181.98 72.1 182.904L75.012 185.172C77.448 181.784 77.812 177.892 77.812 175.372V174.868H82.04V185.564H85.512V174.868H90.104V171.62H77.812V168.624C80.052 168.512 85.008 168.148 89.544 166.972L87.668 163.836ZM115.738 186.852C113.05 184.556 107.59 181.252 104.342 179.488C101.094 177.752 100.73 177.556 100.73 177.108C100.73 176.688 101.57 176.072 102.242 175.596C106.918 172.208 109.858 170.108 113.218 166.916L109.186 164.788C107.058 166.916 105.966 168.008 99.414 173.272C97.146 175.092 96.11 176.044 96.11 177.388C96.11 178.536 96.894 179.32 98.63 180.412C106.75 185.564 108.486 186.684 112.042 189.68L115.738 186.852ZM136.024 189.092C138.852 188.812 141.68 187.972 143.64 186.32C146.44 183.968 147.504 180.496 147.504 177.192C147.504 171.452 144.144 166.02 135.8 166.02C128.716 166.02 122.668 170.584 122.668 178.648C122.668 182.848 124.656 186.852 128.212 186.852C133.98 186.852 136.332 177.192 136.808 169.548C141.204 169.856 143.556 172.656 143.556 177.024C143.556 183.828 138.348 185.172 134.82 185.508L136.024 189.092ZM133.196 169.744C132.328 179.88 129.864 182.82 128.38 182.82C126.7 182.82 126.28 180.048 126.28 178.732C126.28 174.112 128.912 170.668 133.196 169.744ZM167.37 176.128C167.51 175.176 167.538 174.644 167.538 173.664H174.734V170.668H162.666C162.974 170.08 163.198 169.548 163.506 168.848L160.09 168.372C159.53 169.996 158.27 171.844 155.918 173.664L158.522 175.988C159.446 175.148 159.922 174.644 160.706 173.664H164.262C164.262 174.28 164.262 175.064 164.094 176.128H156.45V179.124H163.114C162.358 180.356 160.93 182.092 156.254 182.904L158.13 186.012C162.218 184.724 164.514 182.904 165.914 180.496C166.894 182.288 168.798 184.584 174.51 186.124L176.274 182.932C173.586 182.512 170.086 181.476 168.49 179.124H175.63V176.128H167.37ZM151.942 164.984V189.848H177.226V186.6H155.414V168.26H176.61V164.984H151.942ZM188.72 184.696H194.544V187.076C194.544 187.44 194.516 187.552 194.04 187.552H191.632L192.304 190.492H195.804C196.42 190.492 197.876 190.492 197.876 188.644V184.696H203.756V179.152C204.428 179.516 204.596 179.6 205.184 179.88L206.584 177.08C205.828 176.856 205.212 176.66 204.316 176.156C205.212 175.26 205.66 174.728 205.94 174.392L203.812 173.132C203.224 173.972 202.944 174.336 202.412 174.896C201.292 174 200.928 173.524 200.424 172.908H206.248V170.5H196.756C196.924 170.136 197.036 169.884 197.288 169.24L194.432 168.848H206.304V166.048H196.364V164.06H192.808V166.048H183.596V171.928C182.98 169.856 182.364 168.68 181.972 167.924L179.592 169.688C180.264 171.2 180.74 172.516 181.272 174.952L183.596 173.384V175.008C183.596 176.044 183.596 176.828 183.54 177.78C182.336 178.228 182.084 178.312 179.704 178.984L180.264 182.54C181.188 182.176 181.888 181.896 183.232 181.196C182.784 184.388 181.86 186.32 180.208 188.392L182.98 190.604C186.34 186.068 186.648 180.58 186.76 177.836L187.908 179.908C188.3 179.628 188.524 179.544 188.72 179.404V184.696ZM200.676 177.78V179.152H191.828V177.78H200.676ZM193.284 175.652C193.788 175.064 194.6 174.196 195.412 172.908H197.148C197.624 173.664 198.212 174.56 199.276 175.652H193.284ZM200.676 181.14V182.568H191.828V181.14H200.676ZM187.264 174.7C187.796 175.148 187.992 175.316 188.58 175.96C188.188 176.212 187.712 176.52 186.788 176.968V168.848H194.096C193.872 169.688 193.648 170.164 193.508 170.5H187.432V172.908H191.996C191.66 173.328 191.184 173.888 190.4 174.588C189.728 173.86 189.308 173.524 188.916 173.216L187.264 174.7ZM190.4 184.724C189.532 185.536 188.244 186.656 185.08 187.524L186.788 190.296C188.216 189.736 190.624 188.56 192.64 186.572L190.4 184.724ZM206.724 187.608C204.596 186.992 203.112 186.236 201.348 184.752L199.248 186.796C201.628 188.868 204.204 190.016 204.96 190.352L206.724 187.608ZM224.714 183.884C224.126 183.492 222.922 182.652 220.626 181.924C220.654 181.42 220.654 181.112 220.654 180.496H224.994C225.554 183.268 226.114 184.808 226.394 185.508C224.07 186.908 222.334 187.412 221.27 187.72L222.53 190.52C223.622 190.212 225.302 189.708 227.626 188.28C228.494 189.54 229.67 190.632 231.714 190.632C234.066 190.632 235.018 188.644 235.746 186.796L233.73 184.276C233.226 185.704 232.61 186.628 232.386 186.964C232.246 187.16 231.994 187.412 231.686 187.412C230.986 187.412 230.482 186.656 230.258 186.32C232.498 184.304 233.422 182.736 233.898 181.896L231.154 180.748C230.65 181.56 230.09 182.4 228.97 183.492C228.718 182.652 228.41 181.42 228.214 180.496H235.466V177.528H231.826L233.114 176.688C232.246 175.764 232.078 175.596 231.49 175.12C231.994 175.064 232.946 174.952 233.394 174.896C233.45 175.232 233.506 175.4 233.618 176.016L235.774 175.288C235.326 173.692 234.906 172.152 234.262 170.864L232.302 171.48C232.526 171.928 232.582 172.068 232.834 172.824C232.526 172.852 230.65 172.964 230.23 172.992C232.134 170.92 233.03 169.744 234.682 167.308L232.582 166.384C232.134 167.112 231.994 167.28 230.846 168.848C230.538 168.484 230.314 168.232 230.006 167.924C230.398 167.42 231.378 166.132 232.19 164.704L229.866 164.032C229.642 164.48 229.502 164.788 228.466 166.356L228.018 165.964L226.786 167.644C226.73 166.412 226.73 165.292 226.73 164.172H223.566C223.566 165.908 223.566 166.636 223.594 167.476L221.718 166.44C221.354 167.056 221.074 167.56 220.038 168.904C219.73 168.512 219.45 168.232 219.17 167.896C220.29 166.636 220.906 165.6 221.41 164.788L219.058 164.06C218.778 164.648 218.582 165.04 217.546 166.468C217.378 166.328 217.126 166.132 216.986 166.02L215.558 168.092C216.174 168.652 217.098 169.436 218.414 170.948C217.714 171.816 216.762 172.992 216.23 173.552H215.81L216.118 175.96C217.462 175.848 220.29 175.624 221.69 175.456C221.746 175.848 221.802 176.016 221.858 176.548L224.014 175.904C223.874 175.148 223.51 173.328 222.67 171.48L220.682 172.068C220.878 172.488 220.962 172.712 221.186 173.44C220.822 173.468 219.478 173.524 219.03 173.524C220.57 171.9 222.978 168.736 223.622 167.84C223.734 171.284 224.042 174.532 224.49 177.528H216.958C216.062 176.38 215.306 175.26 214.718 174V172.292H216.398V169.072H214.718V164.172H211.582V169.072H208.978V172.292H211.442C210.938 175.064 210.098 177.78 208.642 180.188L209.958 184.92C210.462 183.968 211.022 182.96 211.582 180.888V190.548H214.718V178.872C215.334 180.132 215.474 180.356 215.838 180.944L216.734 178.592V180.496H217.546C217.462 184.192 217.154 185.844 215.67 188.308L218.078 190.576C218.946 189.456 219.898 188.028 220.374 184.668C221.97 185.424 222.782 186.124 223.342 186.6L224.714 183.884ZM228.886 175.932C229.194 176.184 229.866 176.716 230.678 177.528H227.682C227.626 177.22 227.458 175.736 227.402 175.4C227.766 175.4 229.502 175.26 229.922 175.232L228.886 175.932ZM227.15 173.104C227.01 171.816 226.87 170.248 226.814 168.26C227.85 169.128 228.83 170.248 229.278 170.836C228.242 172.124 227.682 172.768 227.402 173.104H227.15ZM257.292 187.972L258.02 190.548H260.764C263.34 190.548 263.564 189.568 263.564 187.58V165.04H252.448V174.728H260.26V186.32C260.26 187.02 260.204 187.244 259.42 187.244H257.74L258.132 186.6C257.152 186.208 255.864 185.704 254.184 184.08H258.804V181.616H252.476C252.616 180.972 252.644 180.552 252.7 179.936H258.44V177.5H255.892C255.976 177.304 256.536 176.24 256.732 175.512L253.428 175.176C253.288 175.736 253.008 176.772 252.728 177.5H249.844C249.676 176.856 249.312 175.876 248.976 175.176L245.784 175.68C245.98 176.016 246.596 177.332 246.708 177.5H244.356V179.936H249.62C249.62 180.468 249.62 180.888 249.424 181.616H243.796V184.08H248.164C246.316 186.18 244.244 186.824 243.236 187.104L245.028 189.848C249.396 188.224 250.992 185.284 251.384 184.556C251.692 185.088 253.176 187.72 256.48 189.26L257.292 187.972ZM260.26 167.42V168.96H255.668V167.42H260.26ZM260.26 170.892V172.432H255.668V170.892H260.26ZM239.036 190.548H242.34V174.728H250.124V165.04H239.036V190.548ZM246.932 167.42V168.96H242.34V167.42H246.932ZM246.932 170.892V172.432H242.34V170.892H246.932ZM271.53 189.148C273.882 184.584 275.562 177.864 276.346 173.496L278.474 173.468C281.246 173.44 281.974 174.252 281.974 177.444C281.974 179.432 281.638 181.672 281.246 183.128C280.826 184.64 280.434 185.48 278.586 185.48C277.438 185.48 276.29 185.256 275.786 185.144L276.01 188.896C276.43 188.952 277.578 189.092 279.09 189.092C281.554 189.092 283.318 188.336 284.27 186.208C285.334 183.8 285.614 179.908 285.614 177.864C285.614 171.9 283.654 169.996 279.51 169.996H276.99C277.382 167.532 277.466 166.832 277.662 165.32L273.742 165.124C273.602 167.14 273.49 168.204 273.238 169.996H268.618V173.552L272.65 173.524C272.062 176.744 270.41 183.072 267.918 187.468L271.53 189.148ZM292.978 179.992C292.67 175.568 291.55 171.144 288.694 167.728L285.53 169.296C287.966 172.544 288.946 176.604 289.086 180.664L292.978 179.992ZM316.764 166.748C313.684 165.824 310.38 165.18 304.668 164.984L304.024 168.456C311.416 168.848 315.056 170.332 315.84 170.64L316.764 166.748ZM300.72 169.66C300.132 173.188 300.076 174.644 299.992 181.196L303.66 181.336C303.688 181.084 303.716 180.972 303.744 180.636C305.48 178.536 308.812 177.192 312.032 177.192C314.748 177.192 316.316 178.592 316.316 180.608C316.316 183.436 314.328 185.62 307.076 185.62C304.724 185.62 302.792 185.368 301.504 185.2L301.952 188.812C302.932 188.924 304.584 189.092 307.16 189.092C314.86 189.092 320.208 187.02 320.208 180.748C320.208 178.284 318.892 173.888 312.452 173.888C309.232 173.888 306.432 174.84 303.744 176.66C303.828 173.244 303.996 171.9 304.5 170.024L300.72 169.66ZM334.138 188.952L336.294 190.632C337.75 187.804 338.59 184.752 338.59 177.444V168.092H347.69V186.432C347.69 187.104 347.634 187.384 346.794 187.384H343.826L344.386 190.548H348.39C350.742 190.548 350.742 188.812 350.742 187.832V165.068H335.566V177.304C335.566 179.18 335.566 184.164 334.138 187.412V181.448H326.018V190.072H334.138V188.952ZM331.366 187.356H329.07V184.136H331.366V187.356ZM326.018 165.068V167.7H334.138V165.068H326.018ZM326.018 173.132V175.904H334.138V173.132H326.018ZM326.018 177.22V179.992H334.138V177.22H326.018ZM339.486 178.984V186.824H346.57V178.984H339.486ZM344.246 184.108H341.866V181.672H344.246V184.108ZM325.262 169.044V171.872H334.782V169.044H325.262ZM344.582 168.764H341.838V170.108H339.29V172.712H341.838V174.756H339.262V177.416H346.99V174.756H344.582V172.712H346.962V170.108H344.582V168.764ZM370.72 168.82C372.344 170.528 373.184 171.704 374.444 173.86L376.516 172.236C375.228 170.192 374.164 168.736 372.708 167.308L370.72 168.82ZM374.444 166.412C376.152 168.26 376.88 169.212 378.224 171.424L380.324 169.856C379.148 168.036 378.028 166.468 376.432 164.956L374.444 166.412ZM380.52 182.288C379.904 181.896 378.812 181.168 376.908 179.6C375.2 178.2 371.616 175.064 370.188 173.692C367.36 171.032 366.268 170.052 364.28 170.052C363.02 170.052 362.152 170.528 361.004 171.48C360.024 172.32 355.656 176.884 354.592 177.808L357.14 181.224C358.708 179.404 360.276 177.5 361.844 175.624C363.216 174 363.692 173.832 364.14 173.832C364.56 173.832 364.924 174 365.54 174.504C366.296 175.12 367.388 176.24 368.312 177.136C372.288 181.084 375.452 184.192 378.056 186.124L380.52 182.288ZM403.102 165.852C396.466 166.132 393.75 166.16 387.618 166.132V169.744C391.174 169.688 394.03 169.548 397.026 169.352C390.614 174.98 385.714 178.732 384.566 179.572L386.666 182.708C390.922 178.676 394.114 176.324 398.454 176.324C402.206 176.324 403.942 178.2 403.942 180.776C403.942 182.204 403.326 183.856 401.702 184.864C400.582 181.532 397.502 180.02 394.954 180.02C391.986 180.02 389.774 181.924 389.774 184.388C389.774 186.88 392.098 189.288 397.278 189.288C403.27 189.288 407.61 186.04 407.61 180.664C407.61 175.148 403.298 173.3 399.966 173.3C399.014 173.3 397.726 173.496 396.41 173.86C398.622 172.124 401.59 169.8 403.102 168.764V165.852ZM398.734 186.18C398.482 186.236 397.894 186.376 396.942 186.376C394.59 186.376 393.022 185.536 393.022 184.22C393.022 183.632 393.722 182.904 394.87 182.904C396.802 182.904 398.034 184.136 398.734 186.18Z" fill="black"/>
</svg>
