<svg xmlns="http://www.w3.org/2000/svg" width="560" height="315" fill="none"><g clip-path="url(#a)"><path fill="#fff" d="M560 0H0v315h560V0Z"/><path fill="#fff" d="M80 97a8 8 0 0 1 8-8h384a8 8 0 0 1 8 8v48H80V97Z"/><path stroke="#16191F" stroke-opacity=".18" d="M80.5 97a7.5 7.5 0 0 1 7.5-7.5h384a7.5 7.5 0 0 1 7.5 7.5v47.5h-399V97Z"/><path fill="#16191F" fill-opacity=".48" d="M93.44 110.392h1.568V123H93.44v-12.608ZM99.693 123H98.27v-9.424h1.424v1.248c.72-1.088 1.92-1.504 2.96-1.504 1.472 0 2.352.784 2.704 1.504.352.72.416 1.424.416 2.864V123h-1.44v-5.312c0-1.472 0-3.056-2.032-3.056-.448 0-2.608.128-2.608 3.056V123Zm10.522-9.424v1.264c.8-1.008 1.808-1.52 3.088-1.52 2.4 0 4.208 1.952 4.208 4.976 0 3.008-1.808 4.96-4.208 4.96-1.28 0-2.288-.512-3.088-1.52v5.52h-1.424v-13.68h1.424Zm-.064 4.72c0 2.912 1.76 3.648 2.944 3.648 2.288 0 2.992-2.032 2.992-3.648s-.704-3.648-2.992-3.648c-1.184 0-2.944.72-2.944 3.648Zm15.976-4.72h1.44V123h-1.44v-1.248c-.992 1.488-2.656 1.504-2.96 1.504-1.472 0-2.336-.784-2.704-1.504-.352-.72-.4-1.376-.4-2.864v-5.312h1.424v5.312c0 1.488 0 3.056 2.032 3.056.448 0 2.608-.112 2.608-3.056v-5.312Zm4.746 0v-2.704h1.424v2.704h2.864v1.328h-2.864v5.376c0 .88 0 1.664 1.456 1.664.208 0 .576-.016 1.28-.112v1.312a10.08 10.08 0 0 1-1.488.112c-2.608 0-2.672-1.568-2.672-2.976v-5.376h-1.216v-1.328h1.216Z"/><path fill="#16191F" fill-opacity=".18" d="M479 142H81v2h398v-2Z"/><path fill="#fff" d="M80 177a8 8 0 0 1 8-8h384a8 8 0 0 1 8 8v48H80v-48Z"/><path stroke="#16191F" stroke-opacity=".18" d="M80.5 177a7.5 7.5 0 0 1 7.5-7.5h384a7.5 7.5 0 0 1 7.5 7.5v47.5h-399V177Z"/><path fill="#16191F" fill-opacity=".48" d="M93.44 190.392h1.568V203H93.44v-12.608ZM99.693 203H98.27v-9.424h1.424v1.248c.72-1.088 1.92-1.504 2.96-1.504 1.472 0 2.352.784 2.704 1.504.352.72.416 1.424.416 2.864V203h-1.44v-5.312c0-1.472 0-3.056-2.032-3.056-.448 0-2.608.128-2.608 3.056V203Zm10.522-9.424v1.264c.8-1.008 1.808-1.52 3.088-1.52 2.4 0 4.208 1.952 4.208 4.976 0 3.008-1.808 4.96-4.208 4.96-1.28 0-2.288-.512-3.088-1.52v5.52h-1.424v-13.68h1.424Zm-.064 4.72c0 2.912 1.76 3.648 2.944 3.648 2.288 0 2.992-2.032 2.992-3.648s-.704-3.648-2.992-3.648c-1.184 0-2.944.72-2.944 3.648Zm15.976-4.72h1.44V203h-1.44v-1.248c-.992 1.488-2.656 1.504-2.96 1.504-1.472 0-2.336-.784-2.704-1.504-.352-.72-.4-1.376-.4-2.864v-5.312h1.424v5.312c0 1.488 0 3.056 2.032 3.056.448 0 2.608-.112 2.608-3.056v-5.312Zm4.746 0v-2.704h1.424v2.704h2.864v1.328h-2.864v5.376c0 .88 0 1.664 1.456 1.664.208 0 .576-.016 1.28-.112v1.312a10.08 10.08 0 0 1-1.488.112c-2.608 0-2.672-1.568-2.672-2.976v-5.376h-1.216v-1.328h1.216Z"/><path fill="#16191F" fill-opacity=".64" fill-rule="evenodd" d="M458 192.833a4.167 4.167 0 1 0 0 8.335 4.167 4.167 0 0 0 0-8.335ZM455.5 197a2.5 2.5 0 1 1 5 0 2.5 2.5 0 0 1-5 0Z" clip-rule="evenodd"/><path fill="#16191F" fill-opacity=".64" fill-rule="evenodd" d="M458 190.337a9.663 9.663 0 0 0-9.114 6.384.823.823 0 0 0 0 .558 9.663 9.663 0 0 0 9.114 6.384 9.663 9.663 0 0 0 9.114-6.384.823.823 0 0 0 0-.558 9.663 9.663 0 0 0-9.114-6.384Zm0 11.667a8.008 8.008 0 0 1-7.447-5.004 8.008 8.008 0 0 1 7.447-5.004 8.008 8.008 0 0 1 7.447 5.004 8.008 8.008 0 0 1-7.447 5.004Z" clip-rule="evenodd"/><path fill="#16191F" fill-opacity=".18" d="M479 222H81v2h398v-2Z"/></g><defs><clipPath id="a"><path fill="#fff" d="M0 0h560v315H0z"/></clipPath></defs></svg>