<svg width="560" height="315" viewBox="0 0 560 315" fill="none" xmlns="http://www.w3.org/2000/svg">
<rect width="560" height="315" fill="white"/>
<g clip-path="url(#clip0_2147_5344)">
<rect x="80" y="129" width="400" height="56" rx="8" fill="white"/>
<path d="M104.016 150.824L103.488 152.888C102.24 152.04 101.264 152.04 100.992 152.04C99.808 152.04 99.04 152.76 99.04 153.688C99.04 154.76 99.904 155.064 100.944 155.416C102.784 156.056 104.688 156.712 104.688 159.288C104.688 161.56 102.88 163.256 100.112 163.256C98.752 163.256 97.424 162.872 96.272 162.136L96.928 160.104C98.144 160.968 99.168 161.192 100 161.192C101.312 161.192 102.416 160.584 102.416 159.448C102.416 158.184 101.136 157.752 100.112 157.4C98.24 156.776 96.784 155.976 96.784 153.8C96.784 151.624 98.448 149.976 100.928 149.976C102.048 149.976 103.04 150.28 104.016 150.824ZM115.224 158.92H108.6C108.664 159.544 108.84 161.384 111.496 161.384C112.888 161.384 113.704 161 114.472 160.6V162.648C113.992 162.84 112.968 163.256 111.4 163.256C107.4 163.256 106.504 160.232 106.504 158.312C106.504 155.304 108.328 153.224 110.92 153.224C111.96 153.224 113.864 153.608 114.76 155.816C115.176 156.808 115.24 157.976 115.224 158.92ZM108.632 157.304H113.128C112.888 155.16 111.304 155.064 110.888 155.064C110.536 155.064 108.92 155.144 108.632 157.304ZM121.218 161.064V163H120.178C117.858 163 117.618 162.04 117.618 160.392V149.64H119.73V160.248C119.73 160.728 119.778 161.064 120.546 161.064H121.218ZM131.362 158.92H124.738C124.802 159.544 124.978 161.384 127.634 161.384C129.026 161.384 129.842 161 130.61 160.6V162.648C130.13 162.84 129.106 163.256 127.538 163.256C123.538 163.256 122.642 160.232 122.642 158.312C122.642 155.304 124.466 153.224 127.058 153.224C128.098 153.224 130.002 153.608 130.898 155.816C131.314 156.808 131.378 157.976 131.362 158.92ZM124.77 157.304H129.266C129.026 155.16 127.442 155.064 127.026 155.064C126.674 155.064 125.058 155.144 124.77 157.304ZM141.052 160.472V162.6C140.668 162.792 139.756 163.256 138.172 163.256C134.988 163.256 133.164 161.256 133.164 158.296C133.164 155.128 135.34 153.224 138.092 153.224C139.724 153.224 140.716 153.848 141.052 154.072L140.508 155.944C140.22 155.72 139.484 155.16 138.236 155.16C136.46 155.16 135.26 156.36 135.26 158.232C135.26 159.88 136.14 161.32 138.284 161.32C139.708 161.32 140.588 160.76 141.052 160.472ZM143.642 153.48V150.728H145.754V153.48H148.426V155.416H145.754V160.008C145.754 160.824 145.85 161.32 146.97 161.32C147.45 161.32 148.01 161.24 148.282 161.208V163.128C147.994 163.16 147.306 163.256 146.49 163.256C143.642 163.256 143.642 161.56 143.642 160.136V155.416H142.506V153.48H143.642Z" fill="#16191F" fill-opacity="0.9"/>
<path fill-rule="evenodd" clip-rule="evenodd" d="M451.116 148.116C451.604 147.628 452.396 147.628 452.884 148.116L456.884 152.116C457.372 152.604 457.372 153.396 456.884 153.884C456.396 154.372 455.604 154.372 455.116 153.884L452 150.768L448.884 153.884C448.396 154.372 447.604 154.372 447.116 153.884C446.628 153.396 446.628 152.604 447.116 152.116L451.116 148.116Z" fill="#3959CC"/>
<path fill-rule="evenodd" clip-rule="evenodd" d="M447.116 160.116C447.604 159.628 448.396 159.628 448.884 160.116L452 163.232L455.116 160.116C455.604 159.628 456.396 159.628 456.884 160.116C457.372 160.604 457.372 161.396 456.884 161.884L452.884 165.884C452.396 166.372 451.604 166.372 451.116 165.884L447.116 161.884C446.628 161.396 446.628 160.604 447.116 160.116Z" fill="#3959CC"/>
</g>
<rect x="80.5" y="129.5" width="399" height="55" rx="7.5" stroke="#16191F" stroke-opacity="0.18"/>
<defs>
<clipPath id="clip0_2147_5344">
<rect x="80" y="129" width="400" height="56" rx="8" fill="white"/>
</clipPath>
</defs>
</svg>
