<svg width="560" height="315" viewBox="0 0 560 315" fill="none" xmlns="http://www.w3.org/2000/svg">
<rect width="560" height="315" fill="white"/>
<rect x="80" y="89" width="400" height="56" rx="8" fill="white"/>
<rect x="80.5" y="89.5" width="399" height="55" rx="7.5" stroke="#16191F" stroke-opacity="0.18"/>
<rect x="93" y="106" width="22" height="22" rx="3" stroke="#16191F" stroke-opacity="0.18" stroke-width="2"/>
<path d="M139.424 119.912V122.328C138.976 122.552 137.584 123.256 135.376 123.256C130.928 123.256 128.576 120.184 128.576 116.648C128.576 112.552 131.6 109.976 135.376 109.976C136.832 109.976 138.192 110.36 139.424 111.176L138.688 113.24C138.176 112.808 137.264 112.04 135.376 112.04C132.48 112.04 130.832 114.104 130.832 116.616C130.832 118.92 132.24 121.192 135.536 121.192C137.568 121.192 138.8 120.328 139.424 119.912ZM143.704 123H141.592V109.64H143.704V114.392C143.976 114.104 144.76 113.224 146.36 113.224C147.832 113.224 148.744 114.04 149.096 114.76C149.464 115.496 149.528 116.216 149.528 117.64V123H147.416V117.592C147.416 116.536 147.416 115.16 145.752 115.16C145.416 115.16 143.704 115.24 143.704 117.592V123ZM160.418 118.92H153.794C153.858 119.544 154.034 121.384 156.69 121.384C158.082 121.384 158.898 121 159.666 120.6V122.648C159.186 122.84 158.162 123.256 156.594 123.256C152.594 123.256 151.698 120.232 151.698 118.312C151.698 115.304 153.522 113.224 156.114 113.224C157.154 113.224 159.058 113.608 159.954 115.816C160.37 116.808 160.434 117.976 160.418 118.92ZM153.826 117.304H158.322C158.082 115.16 156.498 115.064 156.082 115.064C155.73 115.064 154.114 115.144 153.826 117.304ZM170.108 120.472V122.6C169.724 122.792 168.812 123.256 167.228 123.256C164.044 123.256 162.22 121.256 162.22 118.296C162.22 115.128 164.396 113.224 167.148 113.224C168.78 113.224 169.772 113.848 170.108 114.072L169.564 115.944C169.276 115.72 168.54 115.16 167.292 115.16C165.516 115.16 164.316 116.36 164.316 118.232C164.316 119.88 165.196 121.32 167.34 121.32C168.764 121.32 169.644 120.76 170.108 120.472ZM174.395 109.64V117.208L177.835 113.48H180.315L176.571 117.544L180.907 123H178.299L174.395 117.8V123H172.283V109.64H174.395ZM184.572 121.944V123H182.524V109.64H184.636V114.424C185.084 113.976 185.948 113.224 187.388 113.224C190.156 113.224 191.612 115.64 191.612 118.232C191.612 121 190.028 123.256 187.404 123.256C185.804 123.256 185.068 122.472 184.572 121.944ZM184.588 118.232C184.588 120.888 186.252 121.32 187.068 121.32C188.732 121.32 189.5 119.896 189.5 118.232C189.5 116.568 188.732 115.16 187.068 115.16C186.268 115.16 184.588 115.576 184.588 118.232ZM193.411 118.232C193.411 115.112 195.635 113.224 198.131 113.224C200.643 113.224 202.835 115.144 202.835 118.232C202.835 121.336 200.643 123.256 198.115 123.256C195.619 123.256 193.411 121.352 193.411 118.232ZM195.523 118.232C195.523 120.696 197.123 121.32 198.115 121.32C199.171 121.32 200.723 120.648 200.723 118.232C200.723 115.832 199.171 115.16 198.131 115.16C197.123 115.16 195.523 115.784 195.523 118.232ZM206.795 113.48L208.651 116.504L210.507 113.48H212.875L209.931 118.04L213.099 123H210.715L208.651 119.624L206.587 123H204.203L207.371 118.04L204.427 113.48H206.795ZM225.271 119.912V122.328C224.823 122.552 223.431 123.256 221.223 123.256C216.775 123.256 214.423 120.184 214.423 116.648C214.423 112.552 217.447 109.976 221.223 109.976C222.679 109.976 224.039 110.36 225.271 111.176L224.535 113.24C224.023 112.808 223.111 112.04 221.223 112.04C218.327 112.04 216.679 114.104 216.679 116.616C216.679 118.92 218.087 121.192 221.383 121.192C223.415 121.192 224.647 120.328 225.271 119.912ZM228.047 116.088L227.871 114.072C228.911 113.512 229.951 113.224 231.135 113.224C232.063 113.224 233.551 113.384 234.495 114.488C234.959 115.048 235.167 115.736 235.167 117.032V120.824C235.167 122.184 235.391 122.696 235.535 123H233.471C233.343 122.728 233.279 122.488 233.263 122.024C232.047 123.24 230.671 123.256 230.255 123.256C228.591 123.256 227.071 122.296 227.071 120.344C227.071 117.576 229.839 117.208 231.583 116.984C232.623 116.84 233.087 116.792 233.087 116.2C233.087 115.592 232.463 115.112 231.199 115.112C230.047 115.112 229.023 115.48 228.047 116.088ZM233.119 119.848V118.312C232.639 118.536 232.511 118.552 231.343 118.712C230.335 118.84 229.071 119 229.071 120.264C229.071 120.904 229.471 121.448 230.399 121.448C230.591 121.448 232.127 121.448 233.119 119.848ZM240.026 123H237.914V113.48H239.962V114.536C240.906 113.112 242.426 113.208 242.858 113.24V115.16C241.37 115.08 240.026 115.544 240.026 117.688V123ZM251.481 123V121.944C250.985 122.472 250.265 123.256 248.665 123.256C246.041 123.256 244.441 121 244.441 118.232C244.441 115.64 245.897 113.224 248.665 113.224C250.121 113.224 250.985 113.976 251.433 114.424V109.64H253.545V123H251.481ZM251.481 118.232C251.481 115.576 249.801 115.16 249.001 115.16C247.337 115.16 246.553 116.568 246.553 118.232C246.553 119.896 247.337 121.32 249.001 121.32C249.817 121.32 251.481 120.888 251.481 118.232Z" fill="#16191F" fill-opacity="0.9"/>
<rect x="81" y="170" width="398" height="54" rx="7" fill="#F2F6FD"/>
<rect x="81" y="170" width="398" height="54" rx="7" stroke="#3959CC" stroke-width="2"/>
<rect x="93" y="186" width="22" height="22" rx="3" fill="#3959CC"/>
<rect x="93" y="186" width="22" height="22" rx="3" stroke="#3959CC" stroke-width="2"/>
<path fill-rule="evenodd" clip-rule="evenodd" d="M111.403 192.93C111.81 193.337 111.81 193.996 111.403 194.403L103.07 202.737C102.663 203.143 102.004 203.143 101.597 202.737L96.5967 197.737C96.1899 197.33 96.1899 196.67 96.5967 196.263C97.0035 195.857 97.6631 195.857 98.0699 196.263L102.333 200.527L109.93 192.93C110.337 192.523 110.996 192.523 111.403 192.93Z" fill="white"/>
<path d="M139.424 199.912V202.328C138.976 202.552 137.584 203.256 135.376 203.256C130.928 203.256 128.576 200.184 128.576 196.648C128.576 192.552 131.6 189.976 135.376 189.976C136.832 189.976 138.192 190.36 139.424 191.176L138.688 193.24C138.176 192.808 137.264 192.04 135.376 192.04C132.48 192.04 130.832 194.104 130.832 196.616C130.832 198.92 132.24 201.192 135.536 201.192C137.568 201.192 138.8 200.328 139.424 199.912ZM143.704 203H141.592V189.64H143.704V194.392C143.976 194.104 144.76 193.224 146.36 193.224C147.832 193.224 148.744 194.04 149.096 194.76C149.464 195.496 149.528 196.216 149.528 197.64V203H147.416V197.592C147.416 196.536 147.416 195.16 145.752 195.16C145.416 195.16 143.704 195.24 143.704 197.592V203ZM160.418 198.92H153.794C153.858 199.544 154.034 201.384 156.69 201.384C158.082 201.384 158.898 201 159.666 200.6V202.648C159.186 202.84 158.162 203.256 156.594 203.256C152.594 203.256 151.698 200.232 151.698 198.312C151.698 195.304 153.522 193.224 156.114 193.224C157.154 193.224 159.058 193.608 159.954 195.816C160.37 196.808 160.434 197.976 160.418 198.92ZM153.826 197.304H158.322C158.082 195.16 156.498 195.064 156.082 195.064C155.73 195.064 154.114 195.144 153.826 197.304ZM170.108 200.472V202.6C169.724 202.792 168.812 203.256 167.228 203.256C164.044 203.256 162.22 201.256 162.22 198.296C162.22 195.128 164.396 193.224 167.148 193.224C168.78 193.224 169.772 193.848 170.108 194.072L169.564 195.944C169.276 195.72 168.54 195.16 167.292 195.16C165.516 195.16 164.316 196.36 164.316 198.232C164.316 199.88 165.196 201.32 167.34 201.32C168.764 201.32 169.644 200.76 170.108 200.472ZM174.395 189.64V197.208L177.835 193.48H180.315L176.571 197.544L180.907 203H178.299L174.395 197.8V203H172.283V189.64H174.395ZM184.572 201.944V203H182.524V189.64H184.636V194.424C185.084 193.976 185.948 193.224 187.388 193.224C190.156 193.224 191.612 195.64 191.612 198.232C191.612 201 190.028 203.256 187.404 203.256C185.804 203.256 185.068 202.472 184.572 201.944ZM184.588 198.232C184.588 200.888 186.252 201.32 187.068 201.32C188.732 201.32 189.5 199.896 189.5 198.232C189.5 196.568 188.732 195.16 187.068 195.16C186.268 195.16 184.588 195.576 184.588 198.232ZM193.411 198.232C193.411 195.112 195.635 193.224 198.131 193.224C200.643 193.224 202.835 195.144 202.835 198.232C202.835 201.336 200.643 203.256 198.115 203.256C195.619 203.256 193.411 201.352 193.411 198.232ZM195.523 198.232C195.523 200.696 197.123 201.32 198.115 201.32C199.171 201.32 200.723 200.648 200.723 198.232C200.723 195.832 199.171 195.16 198.131 195.16C197.123 195.16 195.523 195.784 195.523 198.232ZM206.795 193.48L208.651 196.504L210.507 193.48H212.875L209.931 198.04L213.099 203H210.715L208.651 199.624L206.587 203H204.203L207.371 198.04L204.427 193.48H206.795ZM225.271 199.912V202.328C224.823 202.552 223.431 203.256 221.223 203.256C216.775 203.256 214.423 200.184 214.423 196.648C214.423 192.552 217.447 189.976 221.223 189.976C222.679 189.976 224.039 190.36 225.271 191.176L224.535 193.24C224.023 192.808 223.111 192.04 221.223 192.04C218.327 192.04 216.679 194.104 216.679 196.616C216.679 198.92 218.087 201.192 221.383 201.192C223.415 201.192 224.647 200.328 225.271 199.912ZM228.047 196.088L227.871 194.072C228.911 193.512 229.951 193.224 231.135 193.224C232.063 193.224 233.551 193.384 234.495 194.488C234.959 195.048 235.167 195.736 235.167 197.032V200.824C235.167 202.184 235.391 202.696 235.535 203H233.471C233.343 202.728 233.279 202.488 233.263 202.024C232.047 203.24 230.671 203.256 230.255 203.256C228.591 203.256 227.071 202.296 227.071 200.344C227.071 197.576 229.839 197.208 231.583 196.984C232.623 196.84 233.087 196.792 233.087 196.2C233.087 195.592 232.463 195.112 231.199 195.112C230.047 195.112 229.023 195.48 228.047 196.088ZM233.119 199.848V198.312C232.639 198.536 232.511 198.552 231.343 198.712C230.335 198.84 229.071 199 229.071 200.264C229.071 200.904 229.471 201.448 230.399 201.448C230.591 201.448 232.127 201.448 233.119 199.848ZM240.026 203H237.914V193.48H239.962V194.536C240.906 193.112 242.426 193.208 242.858 193.24V195.16C241.37 195.08 240.026 195.544 240.026 197.688V203ZM251.481 203V201.944C250.985 202.472 250.265 203.256 248.665 203.256C246.041 203.256 244.441 201 244.441 198.232C244.441 195.64 245.897 193.224 248.665 193.224C250.121 193.224 250.985 193.976 251.433 194.424V189.64H253.545V203H251.481ZM251.481 198.232C251.481 195.576 249.801 195.16 249.001 195.16C247.337 195.16 246.553 196.568 246.553 198.232C246.553 199.896 247.337 201.32 249.001 201.32C249.817 201.32 251.481 200.888 251.481 198.232Z" fill="#16191F" fill-opacity="0.9"/>
</svg>
