<svg width="560" height="315" viewBox="0 0 560 315" fill="none" xmlns="http://www.w3.org/2000/svg">
<rect width="560" height="315" fill="white"/>
<rect x="90.5" y="75.5" width="388" height="165" rx="2.5" fill="#F2F6FD" stroke="#3959CC" stroke-width="3" stroke-dasharray="6 6"/>
<rect x="149" y="74" width="271" height="168" rx="12" fill="#8F9193"/>
<path d="M419.939 156.939C419.354 157.525 419.354 158.475 419.939 159.061L429.485 168.607C430.071 169.192 431.021 169.192 431.607 168.607C432.192 168.021 432.192 167.071 431.607 166.485L423.121 158L431.607 149.515C432.192 148.929 432.192 147.979 431.607 147.393C431.021 146.808 430.071 146.808 429.485 147.393L419.939 156.939ZM421 159.5H477V156.5H421V159.5Z" fill="#3959CC"/>
<path d="M149.061 159.061C149.646 158.475 149.646 157.525 149.061 156.939L139.515 147.393C138.929 146.808 137.979 146.808 137.393 147.393C136.808 147.979 136.808 148.929 137.393 149.515L145.879 158L137.393 166.485C136.808 167.071 136.808 168.021 137.393 168.607C137.979 169.192 138.929 169.192 139.515 168.607L149.061 159.061ZM92 159.5H148V156.5H92V159.5Z" fill="#3959CC"/>
</svg>
