<svg width="560" height="315" viewBox="0 0 560 315" fill="none" xmlns="http://www.w3.org/2000/svg">
<rect width="560" height="315" fill="white"/>
<rect x="240" y="108" width="80" height="40" rx="20" fill="#3959CC"/>
<path d="M316.667 128C316.667 137.205 309.205 144.667 300 144.667C290.795 144.667 283.333 137.205 283.333 128C283.333 118.795 290.795 111.333 300 111.333C309.205 111.333 316.667 118.795 316.667 128Z" fill="white"/>
<rect x="240" y="168" width="80" height="40" rx="20" fill="#16191F" fill-opacity="0.48"/>
<path d="M276.667 188C276.667 197.205 269.205 204.667 260 204.667C250.795 204.667 243.333 197.205 243.333 188C243.333 178.795 250.795 171.333 260 171.333C269.205 171.333 276.667 178.795 276.667 188Z" fill="white"/>
</svg>
