<svg width="560" height="315" viewBox="0 0 560 315" fill="none" xmlns="http://www.w3.org/2000/svg">
<rect width="560" height="315" fill="white"/>
<g clip-path="url(#clip0_2133_4803)">
<rect x="109" y="60" width="343" height="195" rx="8" fill="white"/>
<path d="M266.339 103V93.128H262.995V91.16H272.051V93.128H268.707V103H266.339ZM273.795 103V94.056H276.147V103H273.795ZM274.963 92.6C274.147 92.6 273.603 92.088 273.603 91.304C273.603 90.536 274.147 90.04 274.963 90.04C275.779 90.04 276.339 90.536 276.339 91.304C276.339 92.088 275.779 92.6 274.963 92.6ZM281.919 103.224C279.791 103.224 278.975 101.88 278.975 99.88V95.896H277.727V94.152L279.119 94.056L279.375 91.624H281.327V94.056H283.551V95.896H281.327V99.88C281.327 100.904 281.759 101.384 282.543 101.384C282.847 101.384 283.183 101.272 283.439 101.176L283.823 102.888C283.343 103.048 282.719 103.224 281.919 103.224ZM287.597 103.224C285.949 103.224 285.389 102.152 285.389 100.488V90.248H287.741V100.584C287.741 101.144 287.981 101.32 288.205 101.32C288.285 101.32 288.349 101.32 288.509 101.288L288.797 103.032C288.525 103.128 288.157 103.224 287.597 103.224ZM294.34 103.224C291.828 103.224 289.876 101.496 289.876 98.536C289.876 95.624 291.924 93.832 294.036 93.832C296.516 93.832 297.78 95.624 297.78 98.104C297.78 98.552 297.732 98.968 297.684 99.192H292.148C292.356 100.664 293.316 101.416 294.644 101.416C295.364 101.416 296.004 101.192 296.66 100.792L297.444 102.248C296.564 102.856 295.444 103.224 294.34 103.224ZM292.116 97.624H295.78C295.78 96.408 295.236 95.64 294.084 95.64C293.14 95.64 292.308 96.312 292.116 97.624Z" fill="#16191F" fill-opacity="0.9"/>
<path d="M134.216 139.392H138.216C139.32 139.392 139.96 139.44 140.664 139.744C141.512 140.112 142.376 141.008 142.376 142.624C142.376 144.432 141.304 145.056 140.776 145.36C141.336 145.632 142.808 146.336 142.808 148.448C142.808 152 139.592 152 138.424 152H134.216V139.392ZM138.184 140.768H135.72V144.768H138.568C139 144.768 140.904 144.768 140.904 142.784C140.904 140.768 139.224 140.768 138.184 140.768ZM138.76 146.112H135.72V150.624H138.296C139.8 150.624 141.288 150.448 141.288 148.336C141.288 146.288 139.432 146.112 138.76 146.112ZM144.804 147.296C144.804 144.144 147.012 142.32 149.444 142.32C151.908 142.32 154.1 144.16 154.1 147.296C154.1 150.4 151.908 152.256 149.46 152.256C146.996 152.256 144.804 150.416 144.804 147.296ZM146.244 147.296C146.244 150.048 148.1 150.944 149.444 150.944C150.82 150.944 152.66 150.048 152.66 147.296C152.66 144.544 150.82 143.648 149.46 143.648C148.1 143.648 146.244 144.528 146.244 147.296ZM163.404 152V150.752C162.62 151.744 161.596 152.256 160.332 152.256C157.916 152.256 156.108 150.304 156.108 147.296C156.108 144.272 157.916 142.32 160.332 142.32C161.596 142.32 162.62 142.832 163.404 143.84V138.8H164.844V152H163.404ZM163.484 147.296C163.484 144.368 161.708 143.648 160.54 143.648C158.236 143.648 157.548 145.68 157.548 147.296C157.548 148.912 158.236 150.944 160.54 150.944C161.708 150.944 163.484 150.208 163.484 147.296ZM168.339 156.256L170.275 151.312L166.803 142.576H168.339L171.027 149.424L173.715 142.576H175.251L169.763 156.256H168.339Z" fill="#16191F" fill-opacity="0.9"/>
<rect x="133" y="183" width="295" height="48" rx="24" fill="#3959CC"/>
<path d="M260.564 207.884H268.468V209.436H260.564V207.884ZM264.66 206.652H266.372V212.86C266.372 213.628 266.244 214.06 265.716 214.332C265.204 214.588 264.516 214.604 263.572 214.604C263.492 214.14 263.236 213.452 263.012 213.036C263.588 213.052 264.212 213.052 264.404 213.052C264.596 213.036 264.66 212.988 264.66 212.812V206.652ZM264.276 208.828L265.636 209.372C264.628 211.052 262.852 212.7 261.204 213.596C260.916 213.18 260.388 212.54 260.004 212.22C261.604 211.532 263.364 210.172 264.276 208.828ZM258.708 202.748H262.724V204.044H258.708V202.748ZM266.132 202.748H270.18V204.044H266.132V202.748ZM269.396 200.524H271.332V212.636C271.332 213.724 271.108 214.268 270.452 214.588C269.764 214.908 268.772 214.94 267.3 214.94C267.22 214.396 266.916 213.484 266.628 212.988C267.572 213.036 268.66 213.02 268.98 213.02C269.284 213.02 269.396 212.908 269.396 212.62V200.524ZM258.868 200.524H263.924V206.332H258.868V204.956H262.132V201.916H258.868V200.524ZM270.42 200.524V201.916H266.836V205.004H270.42V206.38H265.012V200.524H270.42ZM257.764 200.524H259.668V214.94H257.764V200.524ZM282.308 202.204C282.756 202.876 283.46 204.028 283.828 204.764L282.388 205.388C281.908 204.38 281.508 203.612 280.916 202.78L282.308 202.204ZM284.452 201.324C284.932 201.964 285.652 203.1 286.02 203.82L284.628 204.492C284.116 203.484 283.668 202.748 283.076 201.948L284.452 201.324ZM278.18 200.908C278.084 201.596 278.004 202.412 277.972 203.052C277.908 204.764 277.78 208.348 277.78 210.332C277.78 211.948 278.74 212.476 279.988 212.476C282.628 212.476 284.308 210.956 285.46 209.212L286.916 210.988C285.876 212.508 283.62 214.652 279.972 214.652C277.348 214.652 275.652 213.5 275.652 210.764C275.652 208.62 275.812 204.412 275.812 203.052C275.812 202.284 275.748 201.516 275.604 200.892L278.18 200.908ZM292.02 201.324C292.468 201.372 293.012 201.404 293.46 201.404C294.324 201.404 297.732 201.324 298.644 201.244C299.316 201.196 299.684 201.132 299.876 201.068L300.9 202.508C300.532 202.748 300.148 202.972 299.796 203.244C298.932 203.852 297.252 205.26 296.228 206.06C296.772 205.916 297.252 205.884 297.748 205.884C300.468 205.884 302.532 207.58 302.532 209.9C302.532 212.428 300.612 214.428 296.74 214.428C294.516 214.428 292.836 213.42 292.836 211.804C292.836 210.508 294.02 209.324 295.716 209.324C297.908 209.324 299.124 210.796 299.172 212.556L297.3 212.796C297.268 211.644 296.66 210.844 295.716 210.844C295.124 210.844 294.724 211.212 294.724 211.628C294.724 212.22 295.38 212.62 296.356 212.62C299.06 212.62 300.436 211.596 300.436 209.884C300.436 208.428 298.996 207.452 297.124 207.452C294.66 207.452 293.076 208.764 291.364 210.7L289.908 209.196C291.044 208.3 292.98 206.668 293.908 205.884C294.804 205.148 296.484 203.804 297.268 203.1C296.452 203.132 294.244 203.212 293.38 203.276C292.948 203.308 292.452 203.34 292.084 203.404L292.02 201.324Z" fill="white"/>
</g>
<rect x="109.5" y="60.5" width="342" height="194" rx="7.5" stroke="#16191F" stroke-opacity="0.18"/>
<defs>
<clipPath id="clip0_2133_4803">
<rect x="109" y="60" width="343" height="195" rx="8" fill="white"/>
</clipPath>
</defs>
</svg>
