<svg width="560" height="315" viewBox="0 0 560 315" fill="none" xmlns="http://www.w3.org/2000/svg">
<rect width="560" height="315" fill="white"/>
<g clip-path="url(#clip0_2147_5349)">
<rect x="80.5" y="65.5" width="400" height="56" rx="8" fill="white"/>
<path d="M105.38 96.364H100.212L99.124 99.5H96.628L101.348 86.732H104.244L108.964 99.5H106.468L105.38 96.364ZM100.884 94.428H104.708L102.804 88.94L100.884 94.428ZM118.158 96.972V99.1C117.774 99.292 116.862 99.756 115.278 99.756C112.094 99.756 110.27 97.756 110.27 94.796C110.27 91.628 112.446 89.724 115.198 89.724C116.83 89.724 117.822 90.348 118.158 90.572L117.614 92.444C117.326 92.22 116.59 91.66 115.342 91.66C113.566 91.66 112.366 92.86 112.366 94.732C112.366 96.38 113.246 97.82 115.39 97.82C116.814 97.82 117.694 97.26 118.158 96.972ZM127.805 96.972V99.1C127.421 99.292 126.509 99.756 124.925 99.756C121.741 99.756 119.917 97.756 119.917 94.796C119.917 91.628 122.093 89.724 124.845 89.724C126.477 89.724 127.469 90.348 127.805 90.572L127.261 92.444C126.973 92.22 126.237 91.66 124.989 91.66C123.213 91.66 122.013 92.86 122.013 94.732C122.013 96.38 122.893 97.82 125.037 97.82C126.461 97.82 127.341 97.26 127.805 96.972ZM129.611 94.732C129.611 91.612 131.835 89.724 134.331 89.724C136.843 89.724 139.035 91.644 139.035 94.732C139.035 97.836 136.843 99.756 134.315 99.756C131.819 99.756 129.611 97.852 129.611 94.732ZM131.723 94.732C131.723 97.196 133.323 97.82 134.315 97.82C135.371 97.82 136.923 97.148 136.923 94.732C136.923 92.332 135.371 91.66 134.331 91.66C133.323 91.66 131.723 92.284 131.723 94.732ZM143.379 99.5H141.267V89.98H143.315V91.036C144.259 89.612 145.779 89.708 146.211 89.74V91.66C144.723 91.58 143.379 92.044 143.379 94.188V99.5ZM154.834 99.5V98.444C154.338 98.972 153.618 99.756 152.018 99.756C149.394 99.756 147.794 97.5 147.794 94.732C147.794 92.14 149.25 89.724 152.018 89.724C153.474 89.724 154.338 90.476 154.786 90.924V86.14H156.898V99.5H154.834ZM154.834 94.732C154.834 92.076 153.154 91.66 152.354 91.66C150.69 91.66 149.906 93.068 149.906 94.732C149.906 96.396 150.69 97.82 152.354 97.82C153.17 97.82 154.834 97.388 154.834 94.732ZM161.898 86.492V88.764H159.562V86.492H161.898ZM161.786 89.98V99.5H159.674V89.98H161.786ZM164.183 94.732C164.183 91.612 166.407 89.724 168.903 89.724C171.415 89.724 173.607 91.644 173.607 94.732C173.607 97.836 171.415 99.756 168.887 99.756C166.391 99.756 164.183 97.852 164.183 94.732ZM166.295 94.732C166.295 97.196 167.895 97.82 168.887 97.82C169.943 97.82 171.495 97.148 171.495 94.732C171.495 92.332 169.943 91.66 168.903 91.66C167.895 91.66 166.295 92.284 166.295 94.732ZM177.935 99.5H175.823V89.98H177.855V91.02C178.095 90.732 178.863 89.724 180.575 89.724C182.175 89.724 183.023 90.636 183.327 91.26C183.695 91.996 183.759 92.716 183.759 94.14V99.5H181.647V94.092C181.647 93.02 181.647 91.66 179.983 91.66C179.711 91.66 177.935 91.708 177.935 94.092V99.5Z" fill="#16191F" fill-opacity="0.9"/>
<path fill-rule="evenodd" clip-rule="evenodd" d="M451.616 98.3839C452.104 98.872 452.896 98.872 453.384 98.3839L461.384 90.3839C461.872 89.8957 461.872 89.1043 461.384 88.6161C460.896 88.128 460.104 88.128 459.616 88.6161L452.5 95.7322L445.384 88.6161C444.896 88.128 444.104 88.128 443.616 88.6161C443.128 89.1043 443.128 89.8957 443.616 90.3839L451.616 98.3839Z" fill="#3959CC"/>
</g>
<rect x="81" y="66" width="399" height="55" rx="7.5" stroke="#16191F" stroke-opacity="0.18"/>
<g clip-path="url(#clip1_2147_5349)">
<rect x="80.5" y="137.5" width="400" height="112" rx="8" fill="white"/>
<path d="M105.38 168.364H100.212L99.124 171.5H96.628L101.348 158.732H104.244L108.964 171.5H106.468L105.38 168.364ZM100.884 166.428H104.708L102.804 160.94L100.884 166.428ZM118.158 168.972V171.1C117.774 171.292 116.862 171.756 115.278 171.756C112.094 171.756 110.27 169.756 110.27 166.796C110.27 163.628 112.446 161.724 115.198 161.724C116.83 161.724 117.822 162.348 118.158 162.572L117.614 164.444C117.326 164.22 116.59 163.66 115.342 163.66C113.566 163.66 112.366 164.86 112.366 166.732C112.366 168.38 113.246 169.82 115.39 169.82C116.814 169.82 117.694 169.26 118.158 168.972ZM127.805 168.972V171.1C127.421 171.292 126.509 171.756 124.925 171.756C121.741 171.756 119.917 169.756 119.917 166.796C119.917 163.628 122.093 161.724 124.845 161.724C126.477 161.724 127.469 162.348 127.805 162.572L127.261 164.444C126.973 164.22 126.237 163.66 124.989 163.66C123.213 163.66 122.013 164.86 122.013 166.732C122.013 168.38 122.893 169.82 125.037 169.82C126.461 169.82 127.341 169.26 127.805 168.972ZM129.611 166.732C129.611 163.612 131.835 161.724 134.331 161.724C136.843 161.724 139.035 163.644 139.035 166.732C139.035 169.836 136.843 171.756 134.315 171.756C131.819 171.756 129.611 169.852 129.611 166.732ZM131.723 166.732C131.723 169.196 133.323 169.82 134.315 169.82C135.371 169.82 136.923 169.148 136.923 166.732C136.923 164.332 135.371 163.66 134.331 163.66C133.323 163.66 131.723 164.284 131.723 166.732ZM143.379 171.5H141.267V161.98H143.315V163.036C144.259 161.612 145.779 161.708 146.211 161.74V163.66C144.723 163.58 143.379 164.044 143.379 166.188V171.5ZM154.834 171.5V170.444C154.338 170.972 153.618 171.756 152.018 171.756C149.394 171.756 147.794 169.5 147.794 166.732C147.794 164.14 149.25 161.724 152.018 161.724C153.474 161.724 154.338 162.476 154.786 162.924V158.14H156.898V171.5H154.834ZM154.834 166.732C154.834 164.076 153.154 163.66 152.354 163.66C150.69 163.66 149.906 165.068 149.906 166.732C149.906 168.396 150.69 169.82 152.354 169.82C153.17 169.82 154.834 169.388 154.834 166.732ZM161.898 158.492V160.764H159.562V158.492H161.898ZM161.786 161.98V171.5H159.674V161.98H161.786ZM164.183 166.732C164.183 163.612 166.407 161.724 168.903 161.724C171.415 161.724 173.607 163.644 173.607 166.732C173.607 169.836 171.415 171.756 168.887 171.756C166.391 171.756 164.183 169.852 164.183 166.732ZM166.295 166.732C166.295 169.196 167.895 169.82 168.887 169.82C169.943 169.82 171.495 169.148 171.495 166.732C171.495 164.332 169.943 163.66 168.903 163.66C167.895 163.66 166.295 164.284 166.295 166.732ZM177.935 171.5H175.823V161.98H177.855V163.02C178.095 162.732 178.863 161.724 180.575 161.724C182.175 161.724 183.023 162.636 183.327 163.26C183.695 163.996 183.759 164.716 183.759 166.14V171.5H181.647V166.092C181.647 165.02 181.647 163.66 179.983 163.66C179.711 163.66 177.935 163.708 177.935 166.092V171.5Z" fill="#16191F" fill-opacity="0.9"/>
<path fill-rule="evenodd" clip-rule="evenodd" d="M451.616 160.616C452.104 160.128 452.896 160.128 453.384 160.616L461.384 168.616C461.872 169.104 461.872 169.896 461.384 170.384C460.896 170.872 460.104 170.872 459.616 170.384L452.5 163.268L445.384 170.384C444.896 170.872 444.104 170.872 443.616 170.384C443.128 169.896 443.128 169.104 443.616 168.616L451.616 160.616Z" fill="#3959CC"/>
<path d="M99.14 226.236V227.5H97.716V214.3H99.14V219.34C99.94 218.332 100.948 217.82 102.228 217.82C104.628 217.82 106.436 219.772 106.436 222.796C106.436 225.804 104.628 227.756 102.228 227.756C100.948 227.756 99.94 227.244 99.14 226.236ZM99.076 222.796C99.076 225.708 100.836 226.444 102.02 226.444C104.308 226.444 105.012 224.412 105.012 222.796C105.012 221.18 104.308 219.148 102.02 219.148C100.836 219.148 99.076 219.868 99.076 222.796ZM108.46 222.796C108.46 219.644 110.668 217.82 113.1 217.82C115.564 217.82 117.756 219.66 117.756 222.796C117.756 225.9 115.564 227.756 113.116 227.756C110.652 227.756 108.46 225.916 108.46 222.796ZM109.9 222.796C109.9 225.548 111.756 226.444 113.1 226.444C114.476 226.444 116.316 225.548 116.316 222.796C116.316 220.044 114.476 219.148 113.116 219.148C111.756 219.148 109.9 220.028 109.9 222.796ZM127.06 227.5V226.252C126.276 227.244 125.252 227.756 123.988 227.756C121.572 227.756 119.764 225.804 119.764 222.796C119.764 219.772 121.572 217.82 123.988 217.82C125.252 217.82 126.276 218.332 127.06 219.34V214.3H128.5V227.5H127.06ZM127.14 222.796C127.14 219.868 125.364 219.148 124.196 219.148C121.892 219.148 121.204 221.18 121.204 222.796C121.204 224.412 121.892 226.444 124.196 226.444C125.364 226.444 127.14 225.708 127.14 222.796ZM131.996 231.756L133.932 226.812L130.46 218.076H131.996L134.684 224.924L137.372 218.076H138.908L133.42 231.756H131.996Z" fill="#16191F" fill-opacity="0.9"/>
</g>
<rect x="81" y="138" width="399" height="111" rx="7.5" stroke="#16191F" stroke-opacity="0.18"/>
<defs>
<clipPath id="clip0_2147_5349">
<rect x="80.5" y="65.5" width="400" height="56" rx="8" fill="white"/>
</clipPath>
<clipPath id="clip1_2147_5349">
<rect x="80.5" y="137.5" width="400" height="112" rx="8" fill="white"/>
</clipPath>
</defs>
</svg>
