<svg width="560" height="315" viewBox="0 0 560 315" fill="none" xmlns="http://www.w3.org/2000/svg">
<rect width="560" height="315" fill="white"/>
<path d="M209.538 75H184.308C180.824 75 178 77.824 178 81.3077V106.538C178 110.022 180.824 112.846 184.308 112.846H209.538C213.022 112.846 215.846 110.022 215.846 106.538V81.3077C215.846 77.824 213.022 75 209.538 75Z" fill="#3959CC"/>
<path fill-rule="evenodd" clip-rule="evenodd" d="M184.768 93.9231C184.768 93.0159 185.503 92.2804 186.41 92.2804H207.436C208.343 92.2804 209.078 93.0159 209.078 93.9231C209.078 94.8303 208.343 95.5656 207.436 95.5656H186.41C185.503 95.5656 184.768 94.8303 184.768 93.9231Z" fill="white"/>
<path d="M230.379 83.5028H232.751V101.215H240.169V103.385H230.379V83.5028ZM244.602 91.6018L244.4 89.3563C244.98 89.0283 246.646 88.12 249.219 88.12C249.875 88.12 252.6 88.12 254.215 89.9871C255.148 91.072 255.224 92.2578 255.224 93.7717V100.584C255.224 102.174 255.527 102.83 255.779 103.385H253.408C253.231 103.031 253.029 102.628 253.004 101.543C251.591 103.057 249.749 103.788 247.68 103.788C244.451 103.788 242.987 101.745 242.987 99.4486C242.987 95.008 247.504 94.4782 250.077 94.1754C252.196 93.9231 252.928 93.8474 252.928 92.6363C252.928 90.9206 251.086 90.2142 249.194 90.2142C246.898 90.2142 245.308 91.1729 244.602 91.6018ZM252.979 98.6917V95.5883C252.222 95.8911 251.995 95.9415 249.825 96.1938C247.63 96.4714 245.208 96.9003 245.208 99.3729C245.208 100.811 246.166 101.77 247.832 101.77C249.547 101.77 251.894 100.761 252.979 98.6917ZM262.335 101.391V103.385H260.089V82.5692H262.335V90.5169C263.596 88.9274 265.186 88.12 267.204 88.12C270.989 88.12 273.84 91.1982 273.84 95.9668C273.84 100.71 270.989 103.788 267.204 103.788C265.186 103.788 263.596 102.981 262.335 101.391ZM262.234 95.9668C262.234 100.559 265.009 101.719 266.876 101.719C270.484 101.719 271.594 98.5151 271.594 95.9668C271.594 93.4185 270.484 90.2142 266.876 90.2142C265.009 90.2142 262.234 91.3495 262.234 95.9668ZM290.48 96.7742H279.302C279.428 99.4991 280.968 101.719 284.626 101.719C287.073 101.719 288.436 100.912 289.294 100.407V102.83C288.612 103.132 287.023 103.788 284.626 103.788C278.621 103.788 277.082 99.2972 277.082 96.0425C277.082 91.2234 280.059 88.12 283.894 88.12C285.711 88.12 288.461 88.8769 289.773 92.1317C290.454 93.7969 290.48 95.7649 290.48 96.7742ZM279.328 94.7557H288.184C287.906 91.1477 285.433 90.2142 283.793 90.2142C281.346 90.2142 279.504 92.056 279.328 94.7557ZM299.326 101.316V103.385H297.938C294.658 103.385 294.658 101.669 294.658 100.079V82.5692H296.954V100.004C296.954 100.66 296.954 101.316 298.165 101.316H299.326ZM304.288 86.5305L308.728 83.5028H310.848V103.385H308.426V86.152L304.616 88.776L304.288 86.5305Z" fill="#16191F" fill-opacity="0.9"/>
<path d="M258.423 139.654H233.192C230.58 139.654 228.462 141.772 228.462 144.385V169.615C228.462 172.228 230.58 174.346 233.192 174.346H258.423C261.036 174.346 263.154 172.228 263.154 169.615V144.385C263.154 141.772 261.036 139.654 258.423 139.654Z" fill="#3959CC"/>
<path fill-rule="evenodd" clip-rule="evenodd" d="M257.482 150.582C258.123 151.224 258.123 152.264 257.482 152.905L244.341 166.046C243.699 166.688 242.659 166.688 242.018 166.046L234.133 158.162C233.492 157.52 233.492 156.48 234.133 155.838C234.775 155.197 235.815 155.197 236.456 155.838L243.179 162.562L255.159 150.582C255.8 149.941 256.84 149.941 257.482 150.582Z" fill="white"/>
<path d="M258.423 139.654H233.192C230.58 139.654 228.462 141.772 228.462 144.385V169.615C228.462 172.228 230.58 174.346 233.192 174.346H258.423C261.036 174.346 263.154 172.228 263.154 169.615V144.385C263.154 141.772 261.036 139.654 258.423 139.654Z" stroke="#3959CC" stroke-width="2"/>
<path d="M279.264 146.58H281.635V164.292H289.053V166.462H279.264V146.58ZM293.487 154.679L293.285 152.433C293.865 152.105 295.53 151.197 298.104 151.197C298.76 151.197 301.485 151.197 303.099 153.064C304.033 154.149 304.109 155.335 304.109 156.849V163.661C304.109 165.25 304.411 165.906 304.664 166.462H302.292C302.115 166.108 301.914 165.705 301.888 164.62C300.475 166.134 298.634 166.865 296.565 166.865C293.335 166.865 291.872 164.822 291.872 162.526C291.872 158.085 296.388 157.555 298.962 157.252C301.081 157 301.813 156.924 301.813 155.713C301.813 153.998 299.971 153.291 298.079 153.291C295.783 153.291 294.193 154.25 293.487 154.679ZM301.863 161.769V158.665C301.106 158.968 300.879 159.018 298.709 159.271C296.514 159.548 294.092 159.977 294.092 162.45C294.092 163.888 295.051 164.847 296.716 164.847C298.432 164.847 300.778 163.838 301.863 161.769ZM311.219 164.468V166.462H308.974V145.646H311.219V153.594C312.481 152.004 314.07 151.197 316.089 151.197C319.874 151.197 322.725 154.275 322.725 159.044C322.725 163.787 319.874 166.865 316.089 166.865C314.07 166.865 312.481 166.058 311.219 164.468ZM311.118 159.044C311.118 163.636 313.894 164.796 315.761 164.796C319.369 164.796 320.479 161.592 320.479 159.044C320.479 156.495 319.369 153.291 315.761 153.291C313.894 153.291 311.118 154.426 311.118 159.044ZM339.363 159.851H328.187C328.313 162.576 329.852 164.796 333.511 164.796C335.957 164.796 337.32 163.989 338.178 163.484V165.906C337.496 166.209 335.907 166.865 333.511 166.865C327.506 166.865 325.967 162.374 325.967 159.119C325.967 154.3 328.944 151.197 332.779 151.197C334.596 151.197 337.345 151.954 338.657 155.209C339.338 156.874 339.363 158.842 339.363 159.851ZM328.212 157.833H337.067C336.79 154.225 334.318 153.291 332.678 153.291C330.231 153.291 328.389 155.133 328.212 157.833ZM348.21 164.393V166.462H346.822C343.542 166.462 343.542 164.746 343.542 163.156V145.646H345.838V163.081C345.838 163.737 345.838 164.393 347.049 164.393H348.21ZM355.948 164.292H364.93V166.462H350.7C352.289 164.897 354.989 162.273 357.638 159.195C360.666 155.688 361.675 154.023 361.675 151.979C361.675 149.582 359.884 148.346 357.941 148.346C354.812 148.346 353.349 150.97 352.895 151.777L351.936 149.254C353.425 147.286 355.494 146.176 357.941 146.176C360.464 146.176 364.047 147.614 364.047 151.954C364.047 153.871 363.467 155.461 361.448 158.06C360.388 159.422 358.774 161.365 355.948 164.292Z" fill="#16191F" fill-opacity="0.9"/>
<path d="M258.423 202.731H233.192C230.58 202.731 228.462 204.849 228.462 207.462V232.692C228.462 235.305 230.58 237.423 233.192 237.423H258.423C261.036 237.423 263.154 235.305 263.154 232.692V207.462C263.154 204.849 261.036 202.731 258.423 202.731Z" stroke="#16191F" stroke-opacity="0.48" stroke-width="2"/>
<path d="M279.264 209.657H281.635V227.369H289.053V229.538H279.264V209.657ZM293.487 217.756L293.285 215.51C293.865 215.182 295.53 214.274 298.104 214.274C298.76 214.274 301.485 214.274 303.099 216.141C304.033 217.226 304.109 218.412 304.109 219.926V226.738C304.109 228.327 304.411 228.983 304.664 229.538H302.292C302.115 229.185 301.914 228.782 301.888 227.697C300.475 229.21 298.634 229.942 296.565 229.942C293.335 229.942 291.872 227.898 291.872 225.602C291.872 221.162 296.388 220.632 298.962 220.329C301.081 220.077 301.813 220.001 301.813 218.79C301.813 217.074 299.971 216.368 298.079 216.368C295.783 216.368 294.193 217.327 293.487 217.756ZM301.863 224.846V221.742C301.106 222.045 300.879 222.095 298.709 222.348C296.514 222.625 294.092 223.054 294.092 225.527C294.092 226.965 295.051 227.924 296.716 227.924C298.432 227.924 300.778 226.914 301.863 224.846ZM311.219 227.545V229.538H308.974V208.723H311.219V216.671C312.481 215.081 314.07 214.274 316.089 214.274C319.874 214.274 322.725 217.352 322.725 222.121C322.725 226.864 319.874 229.942 316.089 229.942C314.07 229.942 312.481 229.135 311.219 227.545ZM311.118 222.121C311.118 226.713 313.894 227.873 315.761 227.873C319.369 227.873 320.479 224.669 320.479 222.121C320.479 219.572 319.369 216.368 315.761 216.368C313.894 216.368 311.118 217.503 311.118 222.121ZM339.363 222.928H328.187C328.313 225.653 329.852 227.873 333.511 227.873C335.957 227.873 337.32 227.066 338.177 226.561V228.983C337.496 229.286 335.907 229.942 333.511 229.942C327.506 229.942 325.967 225.451 325.967 222.196C325.967 217.377 328.944 214.274 332.779 214.274C334.596 214.274 337.345 215.031 338.657 218.286C339.338 219.951 339.363 221.919 339.363 222.928ZM328.212 220.91H337.067C336.79 217.302 334.318 216.368 332.678 216.368C330.231 216.368 328.389 218.21 328.212 220.91ZM348.21 227.47V229.538H346.822C343.542 229.538 343.542 227.823 343.542 226.233V208.723H345.838V226.158C345.838 226.814 345.838 227.47 347.049 227.47H348.21ZM350.902 228.403L351.608 226.208C353.955 227.798 356.402 227.798 357.108 227.798C361.019 227.798 362.356 225.527 362.356 223.735C362.356 221.616 360.54 220.052 357.108 220.052H355.267V217.907H357.134C360.06 217.907 361.196 216.065 361.196 214.526C361.196 212.583 359.657 211.423 357.462 211.423C355.519 211.423 353.904 212.23 352.617 213.694L351.709 211.498C354.283 209.253 356.881 209.253 357.462 209.253C360.338 209.253 363.492 210.893 363.492 214.4C363.492 215.233 363.34 217.529 360.54 218.765C363.189 219.623 364.753 221.338 364.753 223.912C364.753 226.41 362.886 229.942 357.083 229.942C354.838 229.942 352.87 229.463 350.902 228.403Z" fill="#16191F" fill-opacity="0.9"/>
</svg>
