<svg width="560" height="315" viewBox="0 0 560 315" fill="none" xmlns="http://www.w3.org/2000/svg">
<rect width="560" height="315" fill="white"/>
<mask id="path-1-inside-1_2139_5229" fill="white">
<path d="M80 85C80 80.5817 83.5817 77 88 77H472C476.418 77 480 80.5817 480 85V237H80V85Z"/>
</mask>
<path d="M80 85C80 80.5817 83.5817 77 88 77H472C476.418 77 480 80.5817 480 85V237H80V85Z" fill="#16191F" fill-opacity="0.04"/>
<path d="M106.192 106.408H110.8V113.08C110.8 113.416 110.8 114.312 109.6 114.312H107.664L107.44 113.032H108.848C109.36 113.032 109.536 113 109.536 112.44V107.496H106.56C106.928 108.424 107.488 109.528 109.456 110.84L108.688 111.864C107.6 110.984 106.528 109.976 105.776 108.296C105.408 109.448 104.896 110.664 103.264 111.928L102.512 110.888C104.096 109.832 104.576 108.664 104.864 107.496H102.4V114.312H101.136V106.408H105.056C105.136 105.784 105.152 105.224 105.168 104.696H100.624V103.56H111.376V104.696H106.352C106.32 105.256 106.304 105.72 106.192 106.408ZM98.912 106.344V100.968H103.984V99.528H105.296V100.968H111.376V102.152H100.176V106.328C100.176 108.952 99.744 112.04 97.824 114.296L96.8 113.32C97.696 112.216 98.416 111.064 98.784 108.488C98.512 108.648 97.648 109.096 96.544 109.608L96.32 108.2C97.328 107.848 98.256 107.416 98.896 107.112C98.912 106.808 98.912 106.488 98.912 106.344ZM98.432 105.224L97.248 105.656C97.088 104.584 96.608 103.272 96.336 102.648L97.392 102.216C97.728 102.904 98.208 104.056 98.432 105.224ZM114.12 105.256L113.48 104.056C116.248 103.112 118.2 101.304 119.432 99.352L120.84 99.704C120.6 100.088 120.472 100.296 120.088 100.824H126.056V102.024C124.36 104.968 122.312 106.424 120.712 107.464H127.336V114.008H117.352V109.208C116.472 109.576 115.576 109.944 113.528 110.472L113.032 109.112C116.392 108.456 118.28 107.4 119.592 106.664C118.472 105.496 117.304 104.616 116.504 104.056C115.72 104.552 115.176 104.84 114.12 105.256ZM124.472 102.024H119.016C118.248 102.76 117.768 103.144 117.544 103.32C118.84 104.2 119.512 104.744 120.744 105.928C122.152 104.872 123.352 103.864 124.472 102.024ZM125.992 112.792V108.664H118.648V112.792H125.992ZM137.12 113.464L135.52 113.832C135.168 111.544 134.48 108.776 133.552 105.496C132.544 105.88 131.744 106.2 130.832 106.664L130.304 105.192C130.768 105.048 132.752 104.344 133.168 104.2C132.528 102.184 132.464 101.96 132.08 100.984L133.552 100.584C133.76 101.192 133.84 101.448 134.528 103.736C134.672 103.688 136.16 103.176 137.776 102.728C137.456 102.024 136.816 101.064 136.48 100.584L137.728 100.072C138.4 100.936 138.784 101.592 139.184 102.408C139.504 102.36 139.936 102.296 140.496 102.296C142.752 102.296 144.08 104.008 144.08 105.832C144.08 108.136 142.256 109.464 139.936 109.464C138.768 109.464 137.904 109.144 137.568 109.016L137.728 107.656C138.128 107.816 138.816 108.088 139.856 108.088C141.248 108.088 142.624 107.32 142.624 105.736C142.624 105.144 142.304 103.576 140.304 103.576C139.12 103.576 137.28 104.12 134.896 104.984C135.52 107.112 135.68 107.752 137.12 113.464ZM160.136 107.4V114.04H151.4V107.4H160.136ZM158.776 112.84V108.584H152.744V112.84H158.776ZM157.208 102.344L158.216 101.56C158.664 102.008 160.168 103.56 161.336 105.864L160.152 106.76C159.928 106.232 159.8 105.96 159.528 105.48C156.504 105.896 151.72 105.896 150.344 105.896L150.264 104.648C150.328 104.648 151.736 104.632 151.96 104.632C153.176 102.392 153.848 100.456 154.184 99.432L155.64 99.784C155.144 101.176 154.248 103.288 153.464 104.632C155.944 104.616 156.968 104.6 158.84 104.376C158.12 103.368 157.72 102.904 157.208 102.344ZM150.456 101.288L149.656 102.408C148.968 101.848 148.28 101.352 146.968 100.68L147.688 99.624C148.136 99.816 149.112 100.248 150.456 101.288ZM149.576 105.4L148.808 106.6C147.848 105.832 147.304 105.496 146.232 104.936L146.888 103.8C148.088 104.36 149 104.984 149.576 105.4ZM147.112 114.296L146.184 113.032C146.68 112.488 147.752 111.336 149.208 107.928L150.296 108.728C150.104 109.176 148.904 112.184 147.112 114.296ZM176.128 107.272V110.712H172.608V113.288C172.608 114.28 171.92 114.312 171.424 114.312H169.696L169.424 113.16H170.944C171.264 113.16 171.312 113.096 171.312 112.776V110.712H167.872V107.384C167.536 107.592 167.424 107.656 167.072 107.864L166.368 106.904C166.928 106.632 167.344 106.424 167.888 106.056C167.36 105.496 167.312 105.448 166.864 105.096L167.6 104.424C168.112 104.808 168.56 105.304 168.704 105.464C169.2 105.064 169.6 104.648 170.048 104.056H166.816V103.048H170.656C170.816 102.696 170.896 102.488 171.024 102.12L172.288 102.264C172.128 102.664 172.064 102.824 171.952 103.048H177.776V104.056H174.048C174.368 104.456 174.768 104.984 175.536 105.576C176 105.08 176.384 104.6 176.56 104.36L177.456 104.904C176.96 105.544 176.4 106.088 176.368 106.136C177.088 106.536 177.52 106.696 177.968 106.856L177.36 107.928C176.928 107.72 176.624 107.576 176.128 107.272ZM174.96 107.896V106.936H169.04V107.896H174.96ZM169.696 106.008H174.416C173.488 105.176 173.088 104.568 172.736 104.056H171.376C171.184 104.36 170.736 105.064 169.696 106.008ZM174.96 109.784V108.776H169.04V109.784H174.96ZM165.04 106.216V100.792H170.56V99.496H171.872V100.792H177.824V101.912H166.304V106.264C166.304 111.528 164.576 113.592 163.936 114.36L162.96 113.496C163.68 112.6 164.56 111.448 164.912 108.472C164.112 109 163.504 109.304 163.024 109.544L162.752 108.232C163.856 107.8 164.224 107.624 165.024 107.224C165.024 106.968 165.04 106.664 165.04 106.216ZM164.704 104.84L163.584 105.368C163.408 104.408 163.12 103.384 162.752 102.472L163.744 101.992C164.208 102.904 164.544 104.024 164.704 104.84ZM166.4 114.072L165.696 113C166.976 112.568 167.76 112.136 168.896 111.048L169.824 111.816C168.464 113.144 167.472 113.672 166.4 114.072ZM173.904 111.832L174.752 110.984C175.904 112.088 176.576 112.472 178.064 113L177.36 114.088C176.128 113.656 174.768 112.808 173.904 111.832ZM186.36 101.832V99.496H187.704V101.832H193.688V112.968C193.688 113.336 193.688 114.328 192.36 114.328H189.64L189.432 112.984L191.912 113C192.12 113 192.36 112.984 192.36 112.584V103.08H187.784C187.96 104.408 188.568 106.952 192.216 109.352L191.336 110.472C188.168 108.056 187.4 105.976 187.048 105C186.296 106.824 185.192 108.856 182.632 110.408L181.816 109.256C184.024 108.072 185.736 106.184 186.248 103.08H181.656V114.328H180.312V101.832H186.36ZM208.928 109.016V114.072H198.224V109.048C197.696 109.256 197.376 109.368 196.64 109.592L196.032 108.312C197.712 107.944 200.72 107.048 202.928 104.728H204.272C206.48 107.064 209.6 107.928 211.136 108.264L210.528 109.544C209.76 109.304 209.472 109.208 208.928 109.016ZM199.28 108.616H207.952C205.456 107.528 204.144 106.248 203.616 105.736C202.464 106.872 201.312 107.688 199.28 108.616ZM207.616 112.888V109.784H199.536V112.888H207.616ZM202.912 99.464H204.24V100.792H210.576V104.184H209.264V102.024H197.904V104.184H196.576V100.792H202.912V99.464ZM197.44 106.376L196.768 105.208C198.096 104.792 199.568 104.136 201.088 102.616L202.048 103.368C200.48 105 198.848 105.816 197.44 106.376ZM204.976 103.416L206.016 102.632C207.616 104.056 208.992 104.712 210.432 105.192L209.744 106.376C208.032 105.736 206.4 104.728 204.976 103.416ZM214.776 100.376L216.296 100.504C216.056 101.624 215.576 103.72 215.576 107.752C215.576 111.32 215.944 112.856 216.072 113.432L214.52 113.56C214.376 112.632 214.104 111.032 214.104 107.976C214.104 105.336 214.264 102.776 214.776 100.376ZM218.728 101.672H226.248V103.08H218.728V101.672ZM219.08 106.968L220.376 107.368C219.592 108.472 219.576 109.384 219.576 109.528C219.576 110.984 221.208 111.176 222.92 111.176C223.8 111.176 225.112 111.144 226.584 110.984V112.488C226.04 112.536 224.92 112.632 223.56 112.632C221.192 112.632 218.232 112.408 218.232 109.656C218.232 108.824 218.52 107.912 219.08 106.968ZM234.704 112.632L234.32 111.256C236.96 111.24 238.8 111.016 240.368 109.896C241.232 109.272 242.064 108.12 242.064 106.536C242.064 105.032 241.36 103.128 238.24 103.128C236.32 103.128 232.88 103.896 230.176 104.568L229.824 102.952C230.192 102.904 233.296 102.36 233.952 102.248C235.472 101.976 237.008 101.72 238.336 101.72C242.08 101.72 243.6 104.12 243.6 106.52C243.6 107.752 243.2 110.456 239.792 111.832C238.432 112.392 236.64 112.616 234.704 112.632ZM247.208 100.856L248.728 100.984C248.6 101.944 248.392 103.4 248.392 105.56C248.392 108.04 248.584 111.544 250.376 111.544C251.096 111.544 251.928 110.888 253.032 108.008L254.216 108.68C253.688 110.168 252.952 111.512 252.056 112.408C251.672 112.792 251.08 113.176 250.264 113.176C247.672 113.176 246.952 109.592 246.952 105.432C246.952 103.688 247.112 101.944 247.208 100.856ZM260.104 111.592L258.52 111.656C258.552 111.24 258.584 110.76 258.584 110.024C258.584 105.848 257.336 103.544 255.672 102.184L256.776 101.336C258.68 102.936 260.328 105.192 260.104 111.592ZM276.544 100.968L276.576 102.44C276.032 102.392 275.568 102.376 274.944 102.376C274.144 102.376 273.808 102.408 273.328 102.568C271.024 103.336 267.888 105.816 267.888 108.568C267.888 110.648 269.424 111.304 271.12 111.656C272.24 111.896 273.776 111.992 275.152 111.944L274.864 113.496C271.712 113.368 266.4 113.144 266.4 108.664C266.4 105.624 269.2 103.528 271.088 102.424C270.624 102.44 265.088 102.776 263.344 102.984L263.216 101.416C264.176 101.384 266.736 101.272 267.552 101.224C271.136 101.032 272.608 101 276.544 100.968ZM289.736 102.008H293.992V103.304H293.16C292.84 107.096 292.008 109.016 291.192 110.296C292.328 111.816 293.56 112.68 294.2 113.128L293.4 114.36C292.728 113.88 291.576 113.032 290.376 111.4C288.936 113.112 287.4 113.944 286.6 114.36L285.768 113.144C286.568 112.776 288.232 111.992 289.64 110.248C289.144 109.32 288.552 108.024 288.168 106.136C287.912 106.584 287.704 106.872 287.464 107.24L286.456 106.296C287.176 105.32 288.264 103.704 288.904 99.448L290.184 99.592C290.008 100.792 289.88 101.384 289.736 102.008ZM291.88 103.304H289.384C289.336 103.496 289.256 103.752 289.032 104.36C289.256 106.248 289.704 107.784 290.424 109.112C291.288 107.592 291.72 105.592 291.88 103.304ZM286.744 99.912L287.88 100.424C287.496 101.208 286.92 102.344 285.64 103.88H287.064V105.048H284.584C283.784 105.832 283.352 106.2 283.128 106.376H286.248V107.384C285.64 108.2 284.568 109.016 284.056 109.336V109.976C285.112 109.88 286.232 109.704 287.24 109.56V110.68C286.664 110.792 285.704 110.968 284.056 111.176V113.032C284.056 113.4 284.056 114.36 282.744 114.36H280.824L280.6 113.096L282.408 113.112C282.664 113.112 282.84 113.048 282.84 112.728V111.304C281.656 111.448 280.248 111.56 279.192 111.624L279.096 110.376C280.024 110.328 281.832 110.184 282.84 110.104V108.648H283.368C283.688 108.408 284.264 107.896 284.552 107.464H281.688C280.68 108.136 280.184 108.392 279.624 108.68L279.064 107.544C279.64 107.272 281.192 106.552 282.872 105.048H279.192V103.88H282.232V102.072H279.56V100.936H282.232V99.496H283.416V100.936H285.608V101.992C286.232 101.08 286.52 100.424 286.744 99.912ZM283.416 103.88H284.072C284.984 102.888 285.432 102.248 285.544 102.072H283.416V103.88ZM307.2 101L306.896 102.344C304.016 101.4 301.456 101.224 299.472 101.144L299.648 99.896C300.864 99.928 304.064 100.04 307.2 101ZM297.504 103.464L306.736 103.448V104.68C305.6 105.592 304.288 106.696 303.184 107.688C303.472 107.592 303.648 107.56 303.888 107.56C305.344 107.56 305.344 108.92 305.344 109.816V110.472C305.344 111.8 305.536 112.168 307.696 112.168C308.48 112.168 309.296 112.088 309.808 112.04L309.872 113.464C309.28 113.512 308.688 113.576 307.584 113.576C305.904 113.576 303.984 113.576 303.984 111.144V110.088C303.984 109.304 303.984 108.696 303.168 108.696C302.704 108.696 302.064 108.984 301.424 109.432C300.64 110.136 299.968 110.84 297.456 113.496L296.432 112.392C296.544 112.296 299.056 109.912 299.504 109.496C302.88 106.28 303.536 105.72 304.688 104.76L297.504 104.808V103.464ZM326.344 100.968L326.376 102.44C325.832 102.392 325.368 102.376 324.744 102.376C323.944 102.376 323.608 102.408 323.128 102.568C320.824 103.336 317.688 105.816 317.688 108.568C317.688 110.648 319.224 111.304 320.92 111.656C322.04 111.896 323.576 111.992 324.952 111.944L324.664 113.496C321.512 113.368 316.2 113.144 316.2 108.664C316.2 105.624 319 103.528 320.888 102.424C320.424 102.44 314.888 102.776 313.144 102.984L313.016 101.416C313.976 101.384 316.536 101.272 317.352 101.224C320.936 101.032 322.408 101 326.344 100.968ZM341.664 112.712L340.304 113.832C338.08 111.912 335.856 110.568 333.008 108.856C331.536 107.976 330.928 107.608 330.928 106.872C330.928 106.104 331.472 105.688 332.608 104.872C335.296 102.92 337.44 101.24 338.768 99.8L340.304 100.664C338.976 101.944 337.472 103.256 333.6 105.864C332.96 106.296 332.656 106.584 332.656 106.76C332.656 106.984 332.832 107.08 333.328 107.368C333.808 107.64 335.984 108.824 336.416 109.08C338.032 110.008 340.352 111.528 341.664 112.712ZM347.528 113.8L346.04 113.304C347.672 110.184 348.584 105 348.792 103.544H346.456V102.184H348.968C349.08 101.064 349.08 101 349.16 100.072L350.712 100.12C350.616 100.936 350.584 101.176 350.456 102.184H354.856V103.544H350.264C349.608 107.528 348.472 111.656 347.528 113.8ZM355.752 100.168L356.824 99.624C357.512 100.712 357.896 101.624 358.28 102.728L357.128 103.32C356.696 101.96 356.424 101.352 355.752 100.168ZM359.4 104.344V105.784C358.968 105.768 358.488 105.736 357.768 105.736C356.152 105.736 354.792 105.896 353.384 106.408L352.92 105.176C354.568 104.552 356.184 104.248 359.4 104.344ZM352.36 108.648L353.512 109.176C352.968 109.976 352.968 110.456 352.968 110.632C352.968 112.04 354.824 112.104 356.68 112.104C357.224 112.104 358.44 112.072 359.768 111.976V113.432C359.368 113.448 357.272 113.48 356.76 113.48C354.872 113.48 351.608 113.48 351.608 110.76C351.608 109.96 351.944 109.304 352.36 108.648ZM358.12 99.592L359.192 99.048C359.896 100.12 360.312 101.176 360.664 102.152L359.512 102.744C359.128 101.496 358.792 100.712 358.12 99.592ZM374.176 108.2L372.944 109.032C372 107.976 370.992 106.248 370.128 104.056C369.152 104.072 367.92 104.088 367.68 104.088H363.072V102.696L367.744 102.776C368.416 102.792 369.28 102.776 369.68 102.76C369.36 101.72 369.12 100.552 369.056 100.168L370.576 100.056C370.72 101.032 370.944 102.072 371.152 102.712C372.784 102.664 374.288 102.472 375.888 102.136L376.144 103.512C374.4 103.88 373.024 103.944 371.616 104.008C372.288 105.624 373.216 107.176 374.176 108.2ZM366.112 106.888L366.88 107.928C365.312 108.696 365.232 109.688 365.232 109.992C365.232 111.944 367.824 112.152 370.112 112.152C372.192 112.152 373.408 112.008 374.4 111.88L374.416 113.304C373.84 113.368 372.432 113.496 370.24 113.496C367.44 113.496 365.856 113.176 364.736 112.168C364.096 111.592 363.792 110.808 363.792 110.008C363.792 108.84 364.48 107.688 366.112 106.888ZM380.008 100.856L381.528 100.984C381.4 101.944 381.192 103.4 381.192 105.56C381.192 108.04 381.384 111.544 383.176 111.544C383.896 111.544 384.728 110.888 385.832 108.008L387.016 108.68C386.488 110.168 385.752 111.512 384.856 112.408C384.472 112.792 383.88 113.176 383.064 113.176C380.472 113.176 379.752 109.592 379.752 105.432C379.752 103.688 379.912 101.944 380.008 100.856ZM392.904 111.592L391.32 111.656C391.352 111.24 391.384 110.76 391.384 110.024C391.384 105.848 390.136 103.544 388.472 102.184L389.576 101.336C391.48 102.936 393.128 105.192 392.904 111.592Z" fill="#16191F" fill-opacity="0.48"/>
<path d="M80 77H480H80ZM480 239H80V235H480V239ZM80 237V77V237ZM480 77V237V77Z" fill="#16191F" fill-opacity="0.18" mask="url(#path-1-inside-1_2139_5229)"/>
</svg>
