<svg width="560" height="315" viewBox="0 0 560 315" fill="none" xmlns="http://www.w3.org/2000/svg">
<rect width="560" height="315" fill="white"/>
<rect x="80" y="89" width="400" height="56" rx="8" fill="white"/>
<rect x="80.5" y="89.5" width="399" height="55" rx="7.5" stroke="#16191F" stroke-opacity="0.18"/>
<path d="M93.008 110.232H97.232C98.288 110.232 98.992 110.28 99.712 110.584C100.864 111.08 101.616 112.152 101.616 113.544C101.616 115.224 100.704 115.896 100.176 116.264C100.752 116.6 102.016 117.336 102.016 119.384C102.016 123 98.56 123 97.424 123H93.008V110.232ZM97.344 112.296H95.264V115.432H97.568C99.312 115.432 99.36 114.072 99.36 113.864C99.36 112.376 97.968 112.296 97.344 112.296ZM97.728 117.32H95.264V120.936H97.472C98.224 120.936 99.744 120.872 99.744 119.144C99.744 117.512 98.32 117.32 97.728 117.32ZM109.932 113.48H112.044V123H109.996V121.944C109.772 122.248 109.004 123.256 107.292 123.256C105.692 123.256 104.844 122.328 104.54 121.704C104.172 120.984 104.108 120.264 104.108 118.84V113.48H106.22V118.888C106.22 119.944 106.22 121.32 107.884 121.32C108.156 121.32 109.932 121.256 109.932 118.888V113.48ZM115.046 113.48V110.728H117.158V113.48H119.83V115.416H117.158V120.008C117.158 120.824 117.254 121.32 118.374 121.32C118.854 121.32 119.414 121.24 119.686 121.208V123.128C119.398 123.16 118.71 123.256 117.894 123.256C115.046 123.256 115.046 121.56 115.046 120.136V115.416H113.91V113.48H115.046ZM122.114 113.48V110.728H124.226V113.48H126.898V115.416H124.226V120.008C124.226 120.824 124.322 121.32 125.442 121.32C125.922 121.32 126.482 121.24 126.754 121.208V123.128C126.466 123.16 125.778 123.256 124.962 123.256C122.114 123.256 122.114 121.56 122.114 120.136V115.416H120.978V113.48H122.114ZM128.399 118.232C128.399 115.112 130.623 113.224 133.119 113.224C135.631 113.224 137.823 115.144 137.823 118.232C137.823 121.336 135.631 123.256 133.103 123.256C130.607 123.256 128.399 121.352 128.399 118.232ZM130.511 118.232C130.511 120.696 132.111 121.32 133.103 121.32C134.159 121.32 135.711 120.648 135.711 118.232C135.711 115.832 134.159 115.16 133.119 115.16C132.111 115.16 130.511 115.784 130.511 118.232ZM142.151 123H140.039V113.48H142.071V114.52C142.311 114.232 143.079 113.224 144.791 113.224C146.391 113.224 147.239 114.136 147.543 114.76C147.911 115.496 147.975 116.216 147.975 117.64V123H145.863V117.592C145.863 116.52 145.863 115.16 144.199 115.16C143.927 115.16 142.151 115.208 142.151 117.592V123ZM160.993 119.912V122.328C160.545 122.552 159.153 123.256 156.945 123.256C152.497 123.256 150.145 120.184 150.145 116.648C150.145 112.552 153.169 109.976 156.945 109.976C158.401 109.976 159.761 110.36 160.993 111.176L160.257 113.24C159.745 112.808 158.833 112.04 156.945 112.04C154.049 112.04 152.401 114.104 152.401 116.616C152.401 118.92 153.809 121.192 157.105 121.192C159.137 121.192 160.369 120.328 160.993 119.912ZM163.769 116.088L163.593 114.072C164.633 113.512 165.673 113.224 166.857 113.224C167.785 113.224 169.273 113.384 170.217 114.488C170.681 115.048 170.889 115.736 170.889 117.032V120.824C170.889 122.184 171.113 122.696 171.257 123H169.193C169.065 122.728 169.001 122.488 168.985 122.024C167.769 123.24 166.393 123.256 165.977 123.256C164.313 123.256 162.793 122.296 162.793 120.344C162.793 117.576 165.561 117.208 167.305 116.984C168.345 116.84 168.809 116.792 168.809 116.2C168.809 115.592 168.185 115.112 166.921 115.112C165.769 115.112 164.745 115.48 163.769 116.088ZM168.841 119.848V118.312C168.361 118.536 168.233 118.552 167.065 118.712C166.057 118.84 164.793 119 164.793 120.264C164.793 120.904 165.193 121.448 166.121 121.448C166.313 121.448 167.849 121.448 168.841 119.848ZM175.748 123H173.636V113.48H175.684V114.536C176.628 113.112 178.148 113.208 178.58 113.24V115.16C177.092 115.08 175.748 115.544 175.748 117.688V123ZM187.203 123V121.944C186.707 122.472 185.987 123.256 184.387 123.256C181.763 123.256 180.163 121 180.163 118.232C180.163 115.64 181.619 113.224 184.387 113.224C185.843 113.224 186.707 113.976 187.155 114.424V109.64H189.267V123H187.203ZM187.203 118.232C187.203 115.576 185.523 115.16 184.723 115.16C183.059 115.16 182.275 116.568 182.275 118.232C182.275 119.896 183.059 121.32 184.723 121.32C185.539 121.32 187.203 120.888 187.203 118.232Z" fill="#16191F" fill-opacity="0.9"/>
<rect x="80" y="169" width="400" height="56" rx="8" fill="#F2F6FD"/>
<rect x="80.5" y="169.5" width="399" height="55" rx="7.5" stroke="#16191F" stroke-opacity="0.18"/>
<path d="M93.008 190.232H97.232C98.288 190.232 98.992 190.28 99.712 190.584C100.864 191.08 101.616 192.152 101.616 193.544C101.616 195.224 100.704 195.896 100.176 196.264C100.752 196.6 102.016 197.336 102.016 199.384C102.016 203 98.56 203 97.424 203H93.008V190.232ZM97.344 192.296H95.264V195.432H97.568C99.312 195.432 99.36 194.072 99.36 193.864C99.36 192.376 97.968 192.296 97.344 192.296ZM97.728 197.32H95.264V200.936H97.472C98.224 200.936 99.744 200.872 99.744 199.144C99.744 197.512 98.32 197.32 97.728 197.32ZM109.932 193.48H112.044V203H109.996V201.944C109.772 202.248 109.004 203.256 107.292 203.256C105.692 203.256 104.844 202.328 104.54 201.704C104.172 200.984 104.108 200.264 104.108 198.84V193.48H106.22V198.888C106.22 199.944 106.22 201.32 107.884 201.32C108.156 201.32 109.932 201.256 109.932 198.888V193.48ZM115.046 193.48V190.728H117.158V193.48H119.83V195.416H117.158V200.008C117.158 200.824 117.254 201.32 118.374 201.32C118.854 201.32 119.414 201.24 119.686 201.208V203.128C119.398 203.16 118.71 203.256 117.894 203.256C115.046 203.256 115.046 201.56 115.046 200.136V195.416H113.91V193.48H115.046ZM122.114 193.48V190.728H124.226V193.48H126.898V195.416H124.226V200.008C124.226 200.824 124.322 201.32 125.442 201.32C125.922 201.32 126.482 201.24 126.754 201.208V203.128C126.466 203.16 125.778 203.256 124.962 203.256C122.114 203.256 122.114 201.56 122.114 200.136V195.416H120.978V193.48H122.114ZM128.399 198.232C128.399 195.112 130.623 193.224 133.119 193.224C135.631 193.224 137.823 195.144 137.823 198.232C137.823 201.336 135.631 203.256 133.103 203.256C130.607 203.256 128.399 201.352 128.399 198.232ZM130.511 198.232C130.511 200.696 132.111 201.32 133.103 201.32C134.159 201.32 135.711 200.648 135.711 198.232C135.711 195.832 134.159 195.16 133.119 195.16C132.111 195.16 130.511 195.784 130.511 198.232ZM142.151 203H140.039V193.48H142.071V194.52C142.311 194.232 143.079 193.224 144.791 193.224C146.391 193.224 147.239 194.136 147.543 194.76C147.911 195.496 147.975 196.216 147.975 197.64V203H145.863V197.592C145.863 196.52 145.863 195.16 144.199 195.16C143.927 195.16 142.151 195.208 142.151 197.592V203ZM160.993 199.912V202.328C160.545 202.552 159.153 203.256 156.945 203.256C152.497 203.256 150.145 200.184 150.145 196.648C150.145 192.552 153.169 189.976 156.945 189.976C158.401 189.976 159.761 190.36 160.993 191.176L160.257 193.24C159.745 192.808 158.833 192.04 156.945 192.04C154.049 192.04 152.401 194.104 152.401 196.616C152.401 198.92 153.809 201.192 157.105 201.192C159.137 201.192 160.369 200.328 160.993 199.912ZM163.769 196.088L163.593 194.072C164.633 193.512 165.673 193.224 166.857 193.224C167.785 193.224 169.273 193.384 170.217 194.488C170.681 195.048 170.889 195.736 170.889 197.032V200.824C170.889 202.184 171.113 202.696 171.257 203H169.193C169.065 202.728 169.001 202.488 168.985 202.024C167.769 203.24 166.393 203.256 165.977 203.256C164.313 203.256 162.793 202.296 162.793 200.344C162.793 197.576 165.561 197.208 167.305 196.984C168.345 196.84 168.809 196.792 168.809 196.2C168.809 195.592 168.185 195.112 166.921 195.112C165.769 195.112 164.745 195.48 163.769 196.088ZM168.841 199.848V198.312C168.361 198.536 168.233 198.552 167.065 198.712C166.057 198.84 164.793 199 164.793 200.264C164.793 200.904 165.193 201.448 166.121 201.448C166.313 201.448 167.849 201.448 168.841 199.848ZM175.748 203H173.636V193.48H175.684V194.536C176.628 193.112 178.148 193.208 178.58 193.24V195.16C177.092 195.08 175.748 195.544 175.748 197.688V203ZM187.203 203V201.944C186.707 202.472 185.987 203.256 184.387 203.256C181.763 203.256 180.163 201 180.163 198.232C180.163 195.64 181.619 193.224 184.387 193.224C185.843 193.224 186.707 193.976 187.155 194.424V189.64H189.267V203H187.203ZM187.203 198.232C187.203 195.576 185.523 195.16 184.723 195.16C183.059 195.16 182.275 196.568 182.275 198.232C182.275 199.896 183.059 201.32 184.723 201.32C185.539 201.32 187.203 200.888 187.203 198.232Z" fill="#16191F" fill-opacity="0.9"/>
</svg>
