<svg width="560" height="315" viewBox="0 0 560 315" fill="none" xmlns="http://www.w3.org/2000/svg">
<rect width="560" height="315" fill="white"/>
<path d="M359.2 47H200.8C183.79 47 170 60.7896 170 77.8C170 94.8104 183.79 108.6 200.8 108.6H359.2C376.21 108.6 390 94.8104 390 77.8C390 60.7896 376.21 47 359.2 47Z" fill="#3959CC"/>
<path d="M249.776 70.3552H254.422C255.584 70.3552 256.358 70.408 257.15 70.7424C258.418 71.288 259.245 72.4672 259.245 73.9984C259.245 75.8464 258.242 76.5856 257.661 76.9904C258.294 77.36 259.685 78.1696 259.685 80.4224C259.685 84.4 255.883 84.4 254.634 84.4H249.776V70.3552ZM254.546 72.6256H252.258V76.0752H254.792C256.71 76.0752 256.763 74.5792 256.763 74.3504C256.763 72.7136 255.232 72.6256 254.546 72.6256ZM254.968 78.152H252.258V82.1296H254.686C255.514 82.1296 257.186 82.0592 257.186 80.1584C257.186 78.3632 255.619 78.152 254.968 78.152ZM268.392 73.928H270.715V84.4H268.462V83.2384C268.216 83.5728 267.371 84.6816 265.488 84.6816C263.728 84.6816 262.795 83.6608 262.461 82.9744C262.056 82.1824 261.986 81.3904 261.986 79.824V73.928H264.309V79.8768C264.309 81.0384 264.309 82.552 266.139 82.552C266.438 82.552 268.392 82.4816 268.392 79.8768V73.928ZM274.017 73.928V70.9008H276.34V73.928H279.28V76.0576H276.34V81.1088C276.34 82.0064 276.446 82.552 277.678 82.552C278.206 82.552 278.822 82.464 279.121 82.4288V84.5408C278.804 84.576 278.048 84.6816 277.15 84.6816C274.017 84.6816 274.017 82.816 274.017 81.2496V76.0576H272.768V73.928H274.017ZM281.793 73.928V70.9008H284.116V73.928H287.055V76.0576H284.116V81.1088C284.116 82.0064 284.222 82.552 285.454 82.552C285.982 82.552 286.598 82.464 286.897 82.4288V84.5408C286.58 84.576 285.823 84.6816 284.926 84.6816C281.793 84.6816 281.793 82.816 281.793 81.2496V76.0576H280.543V73.928H281.793ZM288.707 79.1552C288.707 75.7232 291.153 73.6464 293.899 73.6464C296.662 73.6464 299.073 75.7584 299.073 79.1552C299.073 82.5696 296.662 84.6816 293.881 84.6816C291.135 84.6816 288.707 82.5872 288.707 79.1552ZM291.03 79.1552C291.03 81.8656 292.79 82.552 293.881 82.552C295.043 82.552 296.75 81.8128 296.75 79.1552C296.75 76.5152 295.043 75.776 293.899 75.776C292.79 75.776 291.03 76.4624 291.03 79.1552ZM303.834 84.4H301.511V73.928H303.746V75.072C304.01 74.7552 304.855 73.6464 306.738 73.6464C308.498 73.6464 309.431 74.6496 309.765 75.336C310.17 76.1456 310.24 76.9376 310.24 78.504V84.4H307.917V78.4512C307.917 77.272 307.917 75.776 306.087 75.776C305.787 75.776 303.834 75.8288 303.834 78.4512V84.4Z" fill="white"/>
<path d="M359.2 127.3H200.8C184.397 127.3 171.1 140.597 171.1 157C171.1 173.403 184.397 186.7 200.8 186.7H359.2C375.603 186.7 388.9 173.403 388.9 157C388.9 140.597 375.603 127.3 359.2 127.3Z" fill="white"/>
<path d="M249.776 149.555H254.422C255.584 149.555 256.358 149.608 257.15 149.942C258.418 150.488 259.245 151.667 259.245 153.198C259.245 155.046 258.242 155.786 257.661 156.19C258.294 156.56 259.685 157.37 259.685 159.622C259.685 163.6 255.883 163.6 254.634 163.6H249.776V149.555ZM254.546 151.826H252.258V155.275H254.792C256.71 155.275 256.763 153.779 256.763 153.55C256.763 151.914 255.232 151.826 254.546 151.826ZM254.968 157.352H252.258V161.33H254.686C255.514 161.33 257.186 161.259 257.186 159.358C257.186 157.563 255.619 157.352 254.968 157.352ZM268.392 153.128H270.715V163.6H268.462V162.438C268.216 162.773 267.371 163.882 265.488 163.882C263.728 163.882 262.795 162.861 262.461 162.174C262.056 161.382 261.986 160.59 261.986 159.024V153.128H264.309V159.077C264.309 160.238 264.309 161.752 266.139 161.752C266.438 161.752 268.392 161.682 268.392 159.077V153.128ZM274.017 153.128V150.101H276.34V153.128H279.28V155.258H276.34V160.309C276.34 161.206 276.446 161.752 277.678 161.752C278.206 161.752 278.822 161.664 279.121 161.629V163.741C278.804 163.776 278.048 163.882 277.15 163.882C274.017 163.882 274.017 162.016 274.017 160.45V155.258H272.768V153.128H274.017ZM281.793 153.128V150.101H284.116V153.128H287.055V155.258H284.116V160.309C284.116 161.206 284.222 161.752 285.454 161.752C285.982 161.752 286.598 161.664 286.897 161.629V163.741C286.58 163.776 285.823 163.882 284.926 163.882C281.793 163.882 281.793 162.016 281.793 160.45V155.258H280.543V153.128H281.793ZM288.707 158.355C288.707 154.923 291.153 152.846 293.899 152.846C296.662 152.846 299.073 154.958 299.073 158.355C299.073 161.77 296.662 163.882 293.881 163.882C291.135 163.882 288.707 161.787 288.707 158.355ZM291.03 158.355C291.03 161.066 292.79 161.752 293.881 161.752C295.043 161.752 296.75 161.013 296.75 158.355C296.75 155.715 295.043 154.976 293.899 154.976C292.79 154.976 291.03 155.662 291.03 158.355ZM303.834 163.6H301.511V153.128H303.746V154.272C304.01 153.955 304.855 152.846 306.738 152.846C308.498 152.846 309.431 153.85 309.765 154.536C310.17 155.346 310.24 156.138 310.24 157.704V163.6H307.917V157.651C307.917 156.472 307.917 154.976 306.087 154.976C305.787 154.976 303.834 155.029 303.834 157.651V163.6Z" fill="#3959CC"/>
<path d="M359.2 127.3H200.8C184.397 127.3 171.1 140.597 171.1 157C171.1 173.403 184.397 186.7 200.8 186.7H359.2C375.603 186.7 388.9 173.403 388.9 157C388.9 140.597 375.603 127.3 359.2 127.3Z" stroke="#3959CC" stroke-width="2"/>
<path d="M249.776 228.755H254.422C255.584 228.755 256.358 228.808 257.15 229.142C258.418 229.688 259.245 230.867 259.245 232.398C259.245 234.246 258.242 234.986 257.661 235.39C258.294 235.76 259.685 236.57 259.685 238.822C259.685 242.8 255.883 242.8 254.634 242.8H249.776V228.755ZM254.546 231.026H252.258V234.475H254.792C256.71 234.475 256.763 232.979 256.763 232.75C256.763 231.114 255.232 231.026 254.546 231.026ZM254.968 236.552H252.258V240.53H254.686C255.514 240.53 257.186 240.459 257.186 238.558C257.186 236.763 255.619 236.552 254.968 236.552ZM268.392 232.328H270.715V242.8H268.462V241.638C268.216 241.973 267.371 243.082 265.488 243.082C263.728 243.082 262.795 242.061 262.461 241.374C262.056 240.582 261.986 239.79 261.986 238.224V232.328H264.309V238.277C264.309 239.438 264.309 240.952 266.139 240.952C266.438 240.952 268.392 240.882 268.392 238.277V232.328ZM274.017 232.328V229.301H276.34V232.328H279.28V234.458H276.34V239.509C276.34 240.406 276.446 240.952 277.678 240.952C278.206 240.952 278.822 240.864 279.121 240.829V242.941C278.804 242.976 278.048 243.082 277.15 243.082C274.017 243.082 274.017 241.216 274.017 239.65V234.458H272.768V232.328H274.017ZM281.793 232.328V229.301H284.116V232.328H287.055V234.458H284.116V239.509C284.116 240.406 284.222 240.952 285.454 240.952C285.982 240.952 286.598 240.864 286.897 240.829V242.941C286.58 242.976 285.823 243.082 284.926 243.082C281.793 243.082 281.793 241.216 281.793 239.65V234.458H280.543V232.328H281.793ZM288.707 237.555C288.707 234.123 291.153 232.046 293.899 232.046C296.662 232.046 299.073 234.158 299.073 237.555C299.073 240.97 296.662 243.082 293.881 243.082C291.135 243.082 288.707 240.987 288.707 237.555ZM291.03 237.555C291.03 240.266 292.79 240.952 293.881 240.952C295.043 240.952 296.75 240.213 296.75 237.555C296.75 234.915 295.043 234.176 293.899 234.176C292.79 234.176 291.03 234.862 291.03 237.555ZM303.834 242.8H301.511V232.328H303.746V233.472C304.01 233.155 304.855 232.046 306.738 232.046C308.498 232.046 309.431 233.05 309.765 233.736C310.17 234.546 310.24 235.338 310.24 236.904V242.8H307.917V236.851C307.917 235.672 307.917 234.176 306.087 234.176C305.787 234.176 303.834 234.229 303.834 236.851V242.8Z" fill="#3959CC"/>
</svg>
