<svg xmlns="http://www.w3.org/2000/svg" width="560" height="315" fill="none"><g clip-path="url(#a)"><path fill="#fff" d="M560 0H0v315h560V0Z"/><path stroke="#16191F" stroke-opacity=".18" d="M80.5 85a7.5 7.5 0 0 1 7.5-7.5h384a7.5 7.5 0 0 1 7.5 7.5v151.5h-399V85Z"/><path fill="#16191F" fill-opacity=".48" d="M106.192 106.408h4.608v6.672c0 .336 0 1.232-1.2 1.232h-1.936l-.224-1.28h1.408c.512 0 .688-.032.688-.592v-4.944h-2.976c.368.928.928 2.032 2.896 3.344l-.768 1.024c-1.088-.88-2.16-1.888-2.912-3.568-.368 1.152-.88 2.368-2.512 3.632l-.752-1.04c1.584-1.056 2.064-2.224 2.352-3.392H102.4v6.816h-1.264v-7.904h3.92c.08-.624.096-1.184.112-1.712h-4.544v-1.136h10.752v1.136h-5.024c-.032.56-.048 1.024-.16 1.712Zm-7.28-.064v-5.376h5.072v-1.44h1.312v1.44h6.08v1.184h-11.2v4.176c0 2.624-.432 5.712-2.352 7.968l-1.024-.976c.896-1.104 1.616-2.256 1.984-4.832-.272.16-1.136.608-2.24 1.12l-.224-1.408c1.008-.352 1.936-.784 2.576-1.088.016-.304.016-.624.016-.768Zm-.48-1.12-1.184.432c-.16-1.072-.64-2.384-.912-3.008l1.056-.432c.336.688.816 1.84 1.04 3.008Zm15.688.032-.64-1.2a11.298 11.298 0 0 0 5.952-4.704l1.408.352c-.24.384-.368.592-.752 1.12h5.968v1.2c-1.696 2.944-3.744 4.4-5.344 5.44h6.624v6.544h-9.984v-4.8c-.88.368-1.776.736-3.824 1.264l-.496-1.36c3.36-.656 5.248-1.712 6.56-2.448-1.12-1.168-2.288-2.048-3.088-2.608-.784.496-1.328.784-2.384 1.2Zm10.352-3.232h-5.456a19.224 19.224 0 0 1-1.472 1.296c1.296.88 1.968 1.424 3.2 2.608 1.408-1.056 2.608-2.064 3.728-3.904Zm1.52 10.768v-4.128h-7.344v4.128h7.344Zm11.128.672-1.6.368c-.352-2.288-1.04-5.056-1.968-8.336-1.008.384-1.808.704-2.72 1.168l-.528-1.472c.464-.144 2.448-.848 2.864-.992-.64-2.016-.704-2.24-1.088-3.216l1.472-.4c.208.608.288.864.976 3.152.144-.048 1.632-.56 3.248-1.008-.32-.704-.96-1.664-1.296-2.144l1.248-.512c.672.864 1.056 1.52 1.456 2.336.32-.048.752-.112 1.312-.112 2.256 0 3.584 1.712 3.584 3.536 0 2.304-1.824 3.632-4.144 3.632a6.542 6.542 0 0 1-2.368-.448l.16-1.36c.4.16 1.088.432 2.128.432 1.392 0 2.768-.768 2.768-2.352 0-.592-.32-2.16-2.32-2.16-1.184 0-3.024.544-5.408 1.408.624 2.128.784 2.768 2.224 8.48Zm23.016-6.064v6.64H151.4v-6.64h8.736Zm-1.36 5.44v-4.256h-6.032v4.256h6.032Zm-1.568-10.496 1.008-.784c.448.448 1.952 2 3.12 4.304l-1.184.896c-.224-.528-.352-.8-.624-1.28-3.024.416-7.808.416-9.184.416l-.08-1.248c.064 0 1.472-.016 1.696-.016a31.07 31.07 0 0 0 2.224-5.2l1.456.352c-.496 1.392-1.392 3.504-2.176 4.848 2.48-.016 3.504-.032 5.376-.256-.72-1.008-1.12-1.472-1.632-2.032Zm-6.752-1.056-.8 1.12c-.688-.56-1.376-1.056-2.688-1.728l.72-1.056c.448.192 1.424.624 2.768 1.664Zm-.88 4.112-.768 1.2c-.96-.768-1.504-1.104-2.576-1.664l.656-1.136c1.2.56 2.112 1.184 2.688 1.6Zm-2.464 8.896-.928-1.264c.496-.544 1.568-1.696 3.024-5.104l1.088.8c-.192.448-1.392 3.456-3.184 5.568Zm29.016-7.024v3.44h-3.52v2.576c0 .992-.688 1.024-1.184 1.024h-1.728l-.272-1.152h1.52c.32 0 .368-.064.368-.384v-2.064h-3.44v-3.328c-.336.208-.448.272-.8.48l-.704-.96c.56-.272.976-.48 1.52-.848-.528-.56-.576-.608-1.024-.96l.736-.672c.512.384.96.88 1.104 1.04.496-.4.896-.816 1.344-1.408h-3.232v-1.008h3.84c.16-.352.24-.56.368-.928l1.264.144c-.16.4-.224.56-.336.784h5.824v1.008h-3.728c.32.4.72.928 1.488 1.52.464-.496.848-.976 1.024-1.216l.896.544c-.496.64-1.056 1.184-1.088 1.232.72.4 1.152.56 1.6.72l-.608 1.072c-.432-.208-.736-.352-1.232-.656Zm-1.168.624v-.96h-5.92v.96h5.92Zm-5.264-1.888h4.72c-.928-.832-1.328-1.44-1.68-1.952h-1.36c-.192.304-.64 1.008-1.68 1.952Zm5.264 3.776v-1.008h-5.92v1.008h5.92Zm-9.92-3.568v-5.424h5.52v-1.296h1.312v1.296h5.952v1.12h-11.52v4.352c0 5.264-1.728 7.328-2.368 8.096l-.976-.864c.72-.896 1.6-2.048 1.952-5.024-.8.528-1.408.832-1.888 1.072l-.272-1.312a21.75 21.75 0 0 0 2.272-1.008c0-.256.016-.56.016-1.008Zm-.336-1.376-1.12.528a15.338 15.338 0 0 0-.832-2.896l.992-.48c.464.912.8 2.032.96 2.848Zm1.696 9.232-.704-1.072c1.28-.432 2.064-.864 3.2-1.952l.928.768c-1.36 1.328-2.352 1.856-3.424 2.256Zm7.504-2.24.848-.848c1.152 1.104 1.824 1.488 3.312 2.016l-.704 1.088c-1.232-.432-2.592-1.28-3.456-2.256Zm12.456-10v-2.336h1.344v2.336h5.984v11.136c0 .368 0 1.36-1.328 1.36h-2.72l-.208-1.344 2.48.016c.208 0 .448-.016.448-.416v-9.504h-4.576c.176 1.328.784 3.872 4.432 6.272l-.88 1.12c-3.168-2.416-3.936-4.496-4.288-5.472-.752 1.824-1.856 3.856-4.416 5.408l-.816-1.152c2.208-1.184 3.92-3.072 4.432-6.176h-4.592v11.248h-1.344v-12.496h6.048Zm22.568 7.184v5.056h-10.704v-5.024c-.528.208-.848.32-1.584.544l-.608-1.28c1.68-.368 4.688-1.264 6.896-3.584h1.344c2.208 2.336 5.328 3.2 6.864 3.536l-.608 1.28a38.053 38.053 0 0 1-1.6-.528Zm-9.648-.4h8.672c-2.496-1.088-3.808-2.368-4.336-2.88-1.152 1.136-2.304 1.952-4.336 2.88Zm8.336 4.272v-3.104h-8.08v3.104h8.08Zm-4.704-13.424h1.328v1.328h6.336v3.392h-1.312v-2.16h-11.36v2.16h-1.328v-3.392h6.336v-1.328Zm-5.472 6.912-.672-1.168c1.328-.416 2.8-1.072 4.32-2.592l.96.752c-1.568 1.632-3.2 2.448-4.608 3.008Zm7.536-2.96 1.04-.784c1.6 1.424 2.976 2.08 4.416 2.56l-.688 1.184c-1.712-.64-3.344-1.648-4.768-2.96Zm9.8-3.04 1.52.128c-.24 1.12-.72 3.216-.72 7.248 0 3.568.368 5.104.496 5.68l-1.552.128c-.144-.928-.416-2.528-.416-5.584 0-2.64.16-5.2.672-7.6Zm3.952 1.296h7.52v1.408h-7.52v-1.408Zm.352 5.296 1.296.4c-.784 1.104-.8 2.016-.8 2.16 0 1.456 1.632 1.648 3.344 1.648.88 0 2.192-.032 3.664-.192v1.504c-.544.048-1.664.144-3.024.144-2.368 0-5.328-.224-5.328-2.976 0-.832.288-1.744.848-2.688Zm15.624 5.664-.384-1.376c2.64-.016 4.48-.24 6.048-1.36a4.118 4.118 0 0 0 1.696-3.36c0-1.504-.704-3.408-3.824-3.408-1.92 0-5.36.768-8.064 1.44l-.352-1.616c.368-.048 3.472-.592 4.128-.704 1.52-.272 3.056-.528 4.384-.528 3.744 0 5.264 2.4 5.264 4.8 0 1.232-.4 3.936-3.808 5.312-1.36.56-3.152.784-5.088.8Zm12.504-11.776 1.52.128c-.128.96-.336 2.416-.336 4.576 0 2.48.192 5.984 1.984 5.984.72 0 1.552-.656 2.656-3.536l1.184.672c-.528 1.488-1.264 2.832-2.16 3.728-.384.384-.976.768-1.792.768-2.592 0-3.312-3.584-3.312-7.744 0-1.744.16-3.488.256-4.576Zm12.896 10.736-1.584.064c.032-.416.064-.896.064-1.632 0-4.176-1.248-6.48-2.912-7.84l1.104-.848c1.904 1.6 3.552 3.856 3.328 10.256Zm16.44-10.624.032 1.472a17.389 17.389 0 0 0-1.632-.064c-.8 0-1.136.032-1.616.192-2.304.768-5.44 3.248-5.44 6 0 2.08 1.536 2.736 3.232 3.088 1.12.24 2.656.336 4.032.288l-.288 1.552c-3.152-.128-8.464-.352-8.464-4.832 0-3.04 2.8-5.136 4.688-6.24-.464.016-6 .352-7.744.56l-.128-1.568c.96-.032 3.52-.144 4.336-.192 3.584-.192 5.056-.224 8.992-.256Zm13.192 1.04h4.256v1.296h-.832c-.32 3.792-1.152 5.712-1.968 6.992 1.136 1.52 2.368 2.384 3.008 2.832l-.8 1.232a12.664 12.664 0 0 1-3.024-2.96c-1.44 1.712-2.976 2.544-3.776 2.96l-.832-1.216c.8-.368 2.464-1.152 3.872-2.896a14.578 14.578 0 0 1-1.472-4.112c-.256.448-.464.736-.704 1.104l-1.008-.944c.72-.976 1.808-2.592 2.448-6.848l1.28.144a26.542 26.542 0 0 1-.448 2.416Zm2.144 1.296h-2.496c-.048.192-.128.448-.352 1.056.224 1.888.672 3.424 1.392 4.752.864-1.52 1.296-3.52 1.456-5.808Zm-5.136-3.392 1.136.512c-.384.784-.96 1.92-2.24 3.456h1.424v1.168h-2.48c-.8.784-1.232 1.152-1.456 1.328h3.12v1.008c-.608.816-1.68 1.632-2.192 1.952v.64c1.056-.096 2.176-.272 3.184-.416v1.12c-.576.112-1.536.288-3.184.496v1.856c0 .368 0 1.328-1.312 1.328h-1.92l-.224-1.264 1.808.016c.256 0 .432-.064.432-.384v-1.424a65.212 65.212 0 0 1-3.648.32l-.096-1.248c.928-.048 2.736-.192 3.744-.272v-1.456h.528c.32-.24.896-.752 1.184-1.184h-2.864a17.901 17.901 0 0 1-2.064 1.216l-.56-1.136c.576-.272 2.128-.992 3.808-2.496h-3.68v-1.168h3.04v-1.808h-2.672v-1.136h2.672v-1.44h1.184v1.44h2.192v1.056c.624-.912.912-1.568 1.136-2.08Zm-3.328 3.968h.656c.912-.992 1.36-1.632 1.472-1.808h-2.128v1.808ZM307.2 101l-.304 1.344c-2.88-.944-5.44-1.12-7.424-1.2l.176-1.248c1.216.032 4.416.144 7.552 1.104Zm-9.696 2.464 9.232-.016v1.232a88.373 88.373 0 0 0-3.552 3.008c.288-.096.464-.128.704-.128 1.456 0 1.456 1.36 1.456 2.256v.656c0 1.328.192 1.696 2.352 1.696.784 0 1.6-.08 2.112-.128l.064 1.424c-.592.048-1.184.112-2.288.112-1.68 0-3.6 0-3.6-2.432v-1.056c0-.784 0-1.392-.816-1.392-.464 0-1.104.288-1.744.736-.784.704-1.456 1.408-3.968 4.064l-1.024-1.104c.112-.096 2.624-2.48 3.072-2.896 3.376-3.216 4.032-3.776 5.184-4.736l-7.184.048v-1.344Zm28.84-2.496.032 1.472a17.389 17.389 0 0 0-1.632-.064c-.8 0-1.136.032-1.616.192-2.304.768-5.44 3.248-5.44 6 0 2.08 1.536 2.736 3.232 3.088 1.12.24 2.656.336 4.032.288l-.288 1.552c-3.152-.128-8.464-.352-8.464-4.832 0-3.04 2.8-5.136 4.688-6.24-.464.016-6 .352-7.744.56l-.128-1.568c.96-.032 3.52-.144 4.336-.192 3.584-.192 5.056-.224 8.992-.256Zm15.32 11.744-1.36 1.12c-2.224-1.92-4.448-3.264-7.296-4.976-1.472-.88-2.08-1.248-2.08-1.984 0-.768.544-1.184 1.68-2 2.688-1.952 4.832-3.632 6.16-5.072l1.536.864c-1.328 1.28-2.832 2.592-6.704 5.2-.64.432-.944.72-.944.896 0 .224.176.32.672.608.48.272 2.656 1.456 3.088 1.712 1.616.928 3.936 2.448 5.248 3.632Zm5.864 1.088-1.488-.496c1.632-3.12 2.544-8.304 2.752-9.76h-2.336v-1.36h2.512c.112-1.12.112-1.184.192-2.112l1.552.048c-.096.816-.128 1.056-.256 2.064h4.4v1.36h-4.592c-.656 3.984-1.792 8.112-2.736 10.256Zm8.224-13.632 1.072-.544c.688 1.088 1.072 2 1.456 3.104l-1.152.592c-.432-1.36-.704-1.968-1.376-3.152Zm3.648 4.176v1.44c-.432-.016-.912-.048-1.632-.048-1.616 0-2.976.16-4.384.672l-.464-1.232c1.648-.624 3.264-.928 6.48-.832Zm-7.04 4.304 1.152.528c-.544.8-.544 1.28-.544 1.456 0 1.408 1.856 1.472 3.712 1.472.544 0 1.76-.032 3.088-.128v1.456c-.4.016-2.496.048-3.008.048-1.888 0-5.152 0-5.152-2.72 0-.8.336-1.456.752-2.112Zm5.76-9.056 1.072-.544c.704 1.072 1.12 2.128 1.472 3.104l-1.152.592c-.384-1.248-.72-2.032-1.392-3.152Zm16.056 8.608-1.232.832c-.944-1.056-1.952-2.784-2.816-4.976-.976.016-2.208.032-2.448.032h-4.608v-1.392l4.672.08c.672.016 1.536 0 1.936-.016a23.91 23.91 0 0 1-.624-2.592l1.52-.112c.144.976.368 2.016.576 2.656a26.239 26.239 0 0 0 4.736-.576l.256 1.376c-1.744.368-3.12.432-4.528.496.672 1.616 1.6 3.168 2.56 4.192Zm-8.064-1.312.768 1.04c-1.568.768-1.648 1.76-1.648 2.064 0 1.952 2.592 2.16 4.88 2.16 2.08 0 3.296-.144 4.288-.272l.016 1.424c-.576.064-1.984.192-4.176.192-2.8 0-4.384-.32-5.504-1.328a2.866 2.866 0 0 1-.944-2.16c0-1.168.688-2.32 2.32-3.12Zm13.896-6.032 1.52.128c-.128.96-.336 2.416-.336 4.576 0 2.48.192 5.984 1.984 5.984.72 0 1.552-.656 2.656-3.536l1.184.672c-.528 1.488-1.264 2.832-2.16 3.728-.384.384-.976.768-1.792.768-2.592 0-3.312-3.584-3.312-7.744 0-1.744.16-3.488.256-4.576Zm12.896 10.736-1.584.064c.032-.416.064-.896.064-1.632 0-4.176-1.248-6.48-2.912-7.84l1.104-.848c1.904 1.6 3.552 3.856 3.328 10.256Z"/><path fill="#16191F" fill-opacity=".18" d="M81 234h398v2H81z"/></g><defs><clipPath id="a"><path fill="#fff" d="M0 0h560v315H0z"/></clipPath></defs></svg>