<svg width="560" height="315" viewBox="0 0 560 315" fill="none" xmlns="http://www.w3.org/2000/svg">
<rect width="560" height="315" fill="#16191F" fill-opacity="0.18"/>
<path d="M259.663 186.086C257.483 183.089 255.721 179.81 254.425 176.338C254.065 175.371 253.428 174.533 252.593 173.927L241.821 166.133C238.78 163.928 236.328 161.008 234.684 157.63C233.039 154.252 232.252 150.521 232.392 146.767C232.532 143.013 233.594 139.351 235.486 136.105C237.377 132.859 240.039 130.129 243.236 128.156C244.066 127.653 244.67 126.849 244.922 125.912C245.174 124.975 245.054 123.977 244.588 123.126C244.342 122.697 244.013 122.322 243.62 122.022C243.227 121.723 242.778 121.506 242.299 121.383C241.821 121.26 241.322 121.235 240.833 121.309C240.345 121.382 239.876 121.553 239.454 121.811C235.209 124.412 231.671 128.02 229.154 132.315C226.637 136.611 225.218 141.461 225.023 146.436C224.828 151.411 225.864 156.357 228.038 160.836C230.212 165.315 233.457 169.188 237.486 172.113L260.179 188.533C260.28 188.606 260.404 188.641 260.528 188.631C260.652 188.621 260.769 188.567 260.857 188.479C260.945 188.391 260.998 188.274 261.008 188.15C261.018 188.026 260.983 187.902 260.91 187.801L259.663 186.086Z" fill="#16191F" fill-opacity="0.48"/>
<path d="M261.547 135.494C261.599 135.433 261.637 135.36 261.656 135.282C261.676 135.204 261.678 135.122 261.661 135.043C261.644 134.964 261.609 134.89 261.558 134.827C261.508 134.764 261.444 134.713 261.371 134.679C259.477 133.774 257.403 133.31 255.304 133.32C253.045 133.321 250.818 133.856 248.804 134.88C246.791 135.904 245.048 137.389 243.716 139.213C241.491 142.275 240.572 146.095 241.16 149.833C241.748 153.572 243.795 156.925 246.852 159.156L246.858 159.16L251.024 162.175C251.102 162.231 251.195 162.265 251.291 162.272C251.387 162.279 251.483 162.259 251.569 162.215C251.655 162.171 251.727 162.104 251.777 162.022C251.827 161.939 251.854 161.845 251.853 161.748C251.914 152.132 255.344 142.842 261.547 135.494Z" fill="#16191F" fill-opacity="0.48"/>
<path d="M251.626 125.306C253.938 125.306 255.813 123.431 255.813 121.119C255.813 118.806 253.938 116.932 251.626 116.932C249.314 116.932 247.439 118.806 247.439 121.119C247.439 123.431 249.314 125.306 251.626 125.306Z" fill="#16191F" fill-opacity="0.48"/>
<path d="M286.476 120.337L270.823 131.709C262.792 137.544 257.407 146.331 255.854 156.136C254.301 165.942 256.707 175.962 262.542 183.994L271.577 196.43C272.219 197.313 273.029 198.062 273.96 198.633C274.892 199.203 275.926 199.585 277.005 199.756C278.084 199.927 279.186 199.884 280.248 199.629C281.311 199.374 282.312 198.912 283.196 198.27L322.402 169.785C328.959 165.021 333.356 157.847 334.623 149.841C335.891 141.836 333.927 133.655 329.163 127.098C324.399 120.54 317.225 116.144 309.22 114.876C301.214 113.608 293.033 115.573 286.476 120.337Z" fill="#16191F" fill-opacity="0.48"/>
<path d="M261.259 125.505C263.755 126.185 266.118 127.284 268.246 128.755C268.334 128.817 268.439 128.85 268.547 128.849C268.655 128.848 268.76 128.814 268.847 128.751C270.021 127.897 274.259 124.816 274.259 124.816C274.326 124.767 274.38 124.703 274.418 124.629C274.455 124.556 274.475 124.474 274.474 124.391C274.474 124.308 274.454 124.227 274.416 124.153C274.379 124.079 274.324 124.016 274.256 123.967L273.095 123.133C270.07 120.925 266.661 119.299 263.041 118.337C262.564 118.21 262.065 118.181 261.576 118.25C261.086 118.32 260.616 118.487 260.192 118.741C259.769 118.996 259.401 119.333 259.11 119.733C258.819 120.132 258.611 120.586 258.499 121.068C258.298 122.02 258.473 123.014 258.988 123.841C259.502 124.668 260.316 125.264 261.259 125.505Z" fill="#16191F" fill-opacity="0.48"/>
</svg>
