<svg width="560" height="315" viewBox="0 0 560 315" fill="none" xmlns="http://www.w3.org/2000/svg">
<rect width="560" height="315" fill="white"/>
<g clip-path="url(#clip0_2147_5347)">
<mask id="path-1-inside-1_2147_5347" fill="white">
<path d="M80 76C80 71.5817 83.5817 68 88 68H472C476.418 68 480 71.5817 480 76V315H80V76Z"/>
</mask>
<path d="M80 76C80 71.5817 83.5817 68 88 68H472C476.418 68 480 71.5817 480 76V315H80V76Z" fill="white"/>
<path d="M266.998 99.296V110H264.742V99.296H260.726V97.232H271.014V99.296H266.998ZM275.198 96.992V99.264H272.862V96.992H275.198ZM275.086 100.48V110H272.974V100.48H275.086ZM278.267 100.48V97.728H280.379V100.48H283.051V102.416H280.379V107.008C280.379 107.824 280.475 108.32 281.595 108.32C282.075 108.32 282.635 108.24 282.907 108.208V110.128C282.619 110.16 281.931 110.256 281.115 110.256C278.267 110.256 278.267 108.56 278.267 107.136V102.416H277.131V100.48H278.267ZM288.696 108.064V110H287.656C285.336 110 285.096 109.04 285.096 107.392V96.64H287.208V107.248C287.208 107.728 287.256 108.064 288.024 108.064H288.696ZM298.84 105.92H292.216C292.28 106.544 292.456 108.384 295.112 108.384C296.504 108.384 297.32 108 298.088 107.6V109.648C297.608 109.84 296.584 110.256 295.016 110.256C291.016 110.256 290.12 107.232 290.12 105.312C290.12 102.304 291.944 100.224 294.536 100.224C295.576 100.224 297.48 100.608 298.376 102.816C298.792 103.808 298.856 104.976 298.84 105.92ZM292.248 104.304H296.744C296.504 102.16 294.92 102.064 294.504 102.064C294.152 102.064 292.536 102.144 292.248 104.304Z" fill="#16191F" fill-opacity="0.9"/>
<path d="M97.216 147.392H101.216C102.32 147.392 102.96 147.44 103.664 147.744C104.512 148.112 105.376 149.008 105.376 150.624C105.376 152.432 104.304 153.056 103.776 153.36C104.336 153.632 105.808 154.336 105.808 156.448C105.808 160 102.592 160 101.424 160H97.216V147.392ZM101.184 148.768H98.72V152.768H101.568C102 152.768 103.904 152.768 103.904 150.784C103.904 148.768 102.224 148.768 101.184 148.768ZM101.76 154.112H98.72V158.624H101.296C102.8 158.624 104.288 158.448 104.288 156.336C104.288 154.288 102.432 154.112 101.76 154.112ZM107.804 155.296C107.804 152.144 110.012 150.32 112.444 150.32C114.908 150.32 117.1 152.16 117.1 155.296C117.1 158.4 114.908 160.256 112.46 160.256C109.996 160.256 107.804 158.416 107.804 155.296ZM109.244 155.296C109.244 158.048 111.1 158.944 112.444 158.944C113.82 158.944 115.66 158.048 115.66 155.296C115.66 152.544 113.82 151.648 112.46 151.648C111.1 151.648 109.244 152.528 109.244 155.296ZM126.404 160V158.752C125.62 159.744 124.596 160.256 123.332 160.256C120.916 160.256 119.108 158.304 119.108 155.296C119.108 152.272 120.916 150.32 123.332 150.32C124.596 150.32 125.62 150.832 126.404 151.84V146.8H127.844V160H126.404ZM126.484 155.296C126.484 152.368 124.708 151.648 123.54 151.648C121.236 151.648 120.548 153.68 120.548 155.296C120.548 156.912 121.236 158.944 123.54 158.944C124.708 158.944 126.484 158.208 126.484 155.296ZM131.339 164.256L133.275 159.312L129.803 150.576H131.339L134.027 157.424L136.715 150.576H138.251L132.763 164.256H131.339Z" fill="#16191F" fill-opacity="0.9"/>
<rect x="96" y="191" width="368" height="48" rx="24" fill="#3959CC"/>
<path d="M231.572 208.104H245.396V221.96H231.572V208.104ZM243.412 209.96H233.54V220.04H243.412V209.96ZM234.852 211.368H242.068V218.568H234.852V211.368ZM240.26 213.016H236.628V216.888H240.26V213.016ZM262.892 214.424L262.044 216.44C260.892 216.136 260.156 215.864 259.052 215.352V216.216H251.116V215.448C249.948 216.008 249.212 216.248 248.124 216.456L247.276 214.536C249.868 214.04 251.996 213.24 254.06 211.464H255.132L254.236 210.76C254.476 210.568 254.604 210.44 254.796 210.232H252.684C252.988 210.808 253.1 211.112 253.244 211.496L251.308 211.976C251.212 211.624 250.924 210.792 250.652 210.232H250.428C249.9 210.904 249.452 211.416 248.556 212.152L247.308 210.552C248.284 209.816 249.372 208.696 250.028 207.288L251.98 207.624C251.836 208.008 251.756 208.168 251.596 208.504H254.876V210.152C255.052 209.96 255.996 208.92 256.556 207.304L258.492 207.64C258.412 207.928 258.348 208.136 258.188 208.504H262.636V210.232H259.836C260.108 210.664 260.252 210.936 260.524 211.56L258.604 212.12C258.348 211.48 258.092 210.872 257.724 210.232H257.244C256.908 210.728 256.62 211.144 256.22 211.56C258.108 213.384 261.932 214.216 262.892 214.424ZM252.62 214.632H257.644C256.188 213.8 255.708 213.384 255.1 212.808C254.508 213.464 253.996 213.8 252.62 214.632ZM261.004 217V222.136H249.196V217H261.004ZM258.972 220.424V218.664H251.228V220.424H258.972ZM271.092 209.368H277.236V211.176H270.5C270.212 211.912 270.036 212.28 269.684 212.904C270.692 212.392 271.092 212.2 271.86 212.2C273.316 212.2 273.988 212.84 274.34 213.832C276.34 213.08 277.236 212.76 278.1 212.52L278.532 214.504C277.684 214.696 276.468 215 274.676 215.624C274.692 215.96 274.74 216.456 274.74 217.224C274.74 217.752 274.724 218.12 274.708 218.392H272.692C272.772 217.464 272.756 216.792 272.74 216.424C271.092 217.176 270.42 217.88 270.42 218.6C270.42 219.768 271.796 219.768 273.524 219.768C273.812 219.768 275.828 219.768 277.604 219.56L277.636 221.56C276.372 221.624 275.092 221.672 274.068 221.672C271.812 221.672 268.26 221.592 268.26 218.84C268.26 216.664 270.98 215.32 272.468 214.616C272.356 214.328 272.18 213.864 271.284 213.864C270.836 213.864 269.796 214.024 268.468 215.336C268.132 215.816 266.9 217.512 266.292 218.12L264.852 216.632C266.356 215.176 267.476 213.608 268.372 211.176H265.412V209.368H268.916C269.06 208.744 269.124 208.408 269.22 207.768L271.428 207.88C271.316 208.488 271.236 208.792 271.092 209.368ZM280.796 216.04L280.684 214.2C281.356 214.2 281.436 214.2 281.676 214.184C282.14 213.544 282.364 213.224 282.524 213C282.412 212.856 281.788 212.008 280.588 211.096L281.452 209.448C281.74 209.672 281.788 209.72 281.852 209.768C282.684 208.248 282.876 207.784 283.052 207.384L284.78 207.864C284.092 209.288 283.244 210.552 283.004 210.888C283.148 211.032 283.292 211.176 283.564 211.48C284.652 209.832 284.908 209.336 285.068 209L286.556 209.64V208.424H290.108V207.416H292.076V208.424H295.804V210.184H292.076V211.192H295.308V212.808H287.036V211.192H290.108V210.184H286.556V209.864C286.028 210.84 285.276 211.848 283.612 214.104C283.82 214.088 284.844 214.04 285.084 214.024C284.94 213.56 284.876 213.368 284.764 213.048L286.044 212.552C286.38 213.32 286.54 213.768 286.78 214.616V213.672H295.468V216.792H293.676V215.288H288.508V216.792H286.78V215.848L285.596 216.216C285.516 215.752 285.5 215.704 285.468 215.576C285.356 215.592 285.292 215.608 284.716 215.672V222.456H283.036V215.832C282.732 215.864 280.972 216.024 280.796 216.04ZM291.324 220.952V215.976H293.148V220.168C293.148 220.472 293.196 220.504 293.468 220.504H293.98C294.204 220.504 294.252 220.344 294.268 220.232C294.316 219.912 294.332 218.872 294.332 218.472L295.82 218.888C295.804 221.128 295.804 222.312 294.572 222.312H292.476C291.324 222.312 291.324 221.336 291.324 220.952ZM287.084 222.472L285.916 220.84C288.316 219.96 288.556 218.584 288.7 215.976H290.508C290.396 219.672 289.532 221.336 287.084 222.472ZM281.148 216.728L282.588 216.872C282.46 219.816 282.3 220.6 282.06 221.48L280.572 220.696C280.748 220.184 281.068 219.24 281.148 216.728ZM285.116 216.808L286.412 216.616C286.684 217.832 286.78 218.68 286.86 219.88L285.404 220.152C285.404 219.624 285.404 218.504 285.116 216.808ZM307.3 213.224H302.148V211.224H307.252C307.252 210.728 307.188 208.568 307.188 208.12H309.38C309.396 209 309.412 210.456 309.428 211.224H311.86V213.224H309.46C309.492 217.368 309.524 220.936 303.908 221.832L303.012 219.864C306.884 219.208 307.396 218.008 307.3 213.224ZM299.012 208.2L301.156 208.344C300.964 209.496 300.612 211.768 300.612 215.032C300.612 217 300.74 219.128 301.22 221.144L299.012 221.432C298.852 220.616 298.484 218.792 298.484 215.368C298.484 212.008 298.836 209.416 299.012 208.2ZM325.244 208.344V210.008C324.38 210.6 322.684 211.928 321.42 212.92C322.172 212.712 322.908 212.6 323.452 212.6C325.356 212.6 327.82 213.656 327.82 216.808C327.82 219.88 325.34 221.736 321.916 221.736C318.956 221.736 317.628 220.36 317.628 218.936C317.628 217.528 318.892 216.44 320.588 216.44C322.044 216.44 323.804 217.304 324.444 219.208C325.372 218.632 325.724 217.688 325.724 216.872C325.724 215.4 324.732 214.328 322.588 214.328C320.108 214.328 318.284 215.672 315.852 217.976L314.652 216.184C315.308 215.704 318.108 213.56 321.772 210.344C320.06 210.456 318.428 210.536 316.396 210.568V208.504C319.9 208.52 321.452 208.504 325.244 208.344ZM322.748 219.96C322.348 218.792 321.644 218.088 320.54 218.088C319.884 218.088 319.484 218.504 319.484 218.84C319.484 219.592 320.38 220.072 321.724 220.072C322.268 220.072 322.604 219.992 322.748 219.96Z" fill="white"/>
<path d="M257.024 267.864H263.28V273.368H258.88V282.456H257.024V267.864ZM264.64 267.864H270.976V281.128C270.976 282.008 270.432 282.456 269.584 282.456H267.328L266.928 280.504H268.704C269.024 280.504 269.136 280.44 269.136 280.088V273.368H264.64V267.864ZM258.88 269.24V270.088H261.504V269.24H258.88ZM266.432 269.24V270.088H269.136V269.24H266.432ZM258.88 271.208V272.088H261.504V271.208H258.88ZM266.432 271.208V272.088H269.136V271.208H266.432ZM263.376 276.568H259.392V274.872H264.464V273.752H266.288V274.872H268.64V276.568H266.288V280.744C266.288 281.576 265.776 282.088 264.944 282.088H262.624L262.368 280.296H264.08C264.352 280.296 264.464 280.264 264.464 279.928V277.592C263.408 278.984 261.52 280.632 259.936 281.4L258.944 279.736C260.656 279 262.208 278.04 263.376 276.568ZM282.24 268.76L283.44 267.944C284.288 268.824 284.944 269.816 285.552 270.872L284.288 271.752C283.6 270.504 283.168 269.832 282.24 268.76ZM275.12 268.184L277.456 268.216C277.376 269.8 277.328 271.4 277.296 272.984C277.264 274.024 277.232 275.08 277.232 276.12C277.232 278.2 277.52 279.624 279.968 279.624C281.6 279.624 282.976 279 283.76 277.512C284.208 276.648 284.432 275.528 284.592 274.584L286.592 275.464C286.272 277.128 285.76 278.696 284.592 279.944C283.328 281.304 281.664 281.688 279.888 281.688C278.528 281.688 277.184 281.416 276.192 280.408C275.136 279.32 275.04 277.48 275.04 276.024C275.04 273.416 275.104 270.792 275.12 268.184ZM280.08 270.056L281.296 269.272C282.128 270.2 282.736 271.16 283.328 272.248L282.048 273.096C281.408 271.832 280.976 271.144 280.08 270.056ZM290.896 268.504C291.6 268.504 292.304 268.52 292.992 268.52C295.248 268.52 297.488 268.44 299.744 268.344V270.008C298.736 270.696 296.928 272.12 295.92 272.92C296.592 272.744 297.248 272.6 297.952 272.6C299.28 272.6 300.752 273.128 301.552 274.232C302.08 274.968 302.32 275.912 302.32 276.808C302.32 280.184 299.44 281.736 296.416 281.736C295.2 281.736 293.936 281.512 292.992 280.728C292.464 280.28 292.128 279.608 292.128 278.936C292.128 277.336 293.632 276.44 295.088 276.44C296.832 276.44 298.384 277.544 298.944 279.208C299.76 278.696 300.224 277.848 300.224 276.872C300.224 275.016 298.736 274.312 297.104 274.312C294.304 274.312 292.256 276.168 290.352 277.976L289.152 276.184C291.616 274.36 293.968 272.376 296.272 270.344C294.48 270.472 292.688 270.52 290.896 270.568V268.504ZM297.248 279.96C297.056 279.416 296.88 279.016 296.448 278.616C296.064 278.28 295.552 278.088 295.04 278.088C294.464 278.088 293.984 278.44 293.984 278.84C293.984 279.864 295.472 280.056 296.224 280.056C296.576 280.056 296.912 280.04 297.248 279.96Z" fill="#3959CC"/>
</g>
<path d="M79 76C79 71.0294 83.0294 67 88 67H472C476.971 67 481 71.0294 481 76H479C479 72.134 475.866 69 472 69H88C84.134 69 81 72.134 81 76H79ZM480 315H80H480ZM79 315V76C79 71.0294 83.0294 67 88 67V69C84.134 69 81 72.134 81 76V315H79ZM472 67C476.971 67 481 71.0294 481 76V315H479V76C479 72.134 475.866 69 472 69V67Z" fill="#16191F" fill-opacity="0.18" mask="url(#path-1-inside-1_2147_5347)"/>
<defs>
<clipPath id="clip0_2147_5347">
<path d="M80 76C80 71.5817 83.5817 68 88 68H472C476.418 68 480 71.5817 480 76V315H80V76Z" fill="white"/>
</clipPath>
</defs>
</svg>
