<svg width="560" height="315" viewBox="0 0 560 315" fill="none" xmlns="http://www.w3.org/2000/svg">
<rect width="560" height="315" fill="white"/>
<rect x="46" y="95" width="468" height="126" rx="8" fill="white"/>
<rect x="46.5" y="95.5" width="467" height="125" rx="7.5" stroke="#16191F" stroke-opacity="0.18"/>
<path d="M72.5769 165.756C71.9955 164.957 71.5256 164.083 71.1799 163.157C71.0841 162.899 70.9141 162.675 70.6914 162.514L67.819 160.436C67.0079 159.847 66.3542 159.069 65.9156 158.168C65.4771 157.267 65.2672 156.272 65.3045 155.271C65.3418 154.27 65.6251 153.293 66.1295 152.428C66.6339 151.562 67.3437 150.834 68.1963 150.308C68.4177 150.174 68.5788 149.96 68.6459 149.71C68.7131 149.46 68.6811 149.194 68.5568 148.967C68.4913 148.853 68.4036 148.752 68.2987 148.673C68.1939 148.593 68.0741 148.535 67.9464 148.502C67.8188 148.469 67.6859 148.463 67.5556 148.482C67.4253 148.502 67.3002 148.547 67.1878 148.616C66.0558 149.31 65.1123 150.272 64.441 151.417C63.7698 152.563 63.3914 153.856 63.3395 155.183C63.2876 156.509 63.5637 157.828 64.1434 159.023C64.7232 160.217 65.5886 161.25 66.6629 162.03L72.7145 166.409C72.7414 166.428 72.7743 166.437 72.8074 166.435C72.8405 166.432 72.8716 166.418 72.8951 166.394C72.9185 166.371 72.9328 166.34 72.9354 166.307C72.938 166.273 72.9287 166.241 72.9092 166.214L72.5769 165.756Z" fill="#3959CC"/>
<path d="M73.0792 152.265C73.0931 152.249 73.1031 152.229 73.1084 152.209C73.1136 152.188 73.114 152.166 73.1095 152.145C73.1049 152.124 73.0956 152.104 73.0822 152.087C73.0688 152.07 73.0517 152.057 73.0323 152.048C72.5271 151.806 71.974 151.683 71.4143 151.685C70.8119 151.686 70.2181 151.828 69.6812 152.101C69.1442 152.374 68.6793 152.77 68.3242 153.257C67.7309 154.073 67.4858 155.092 67.6426 156.089C67.7994 157.086 68.3453 157.98 69.1605 158.575L69.1621 158.576L70.273 159.38C70.2939 159.395 70.3185 159.404 70.3442 159.406C70.3699 159.408 70.3956 159.402 70.4184 159.391C70.4413 159.379 70.4605 159.361 70.4739 159.339C70.4873 159.317 70.4943 159.292 70.4942 159.266C70.5103 156.702 71.425 154.225 73.0792 152.265Z" fill="#3959CC"/>
<path d="M70.4336 149.548C71.0502 149.548 71.5501 149.048 71.5501 148.432C71.5501 147.815 71.0502 147.315 70.4336 147.315C69.8169 147.315 69.317 147.815 69.317 148.432C69.317 149.048 69.8169 149.548 70.4336 149.548Z" fill="#3959CC"/>
<path d="M79.7269 148.223L75.5528 151.256C73.4111 152.812 71.9752 155.155 71.5611 157.77C71.1469 160.384 71.7885 163.057 73.3445 165.198L75.7539 168.515C75.9251 168.75 76.1411 168.95 76.3894 169.102C76.6378 169.254 76.9137 169.356 77.2014 169.402C77.4891 169.447 77.783 169.436 78.0662 169.368C78.3495 169.3 78.6166 169.176 78.8522 169.005L89.3072 161.409C91.0558 160.139 92.2281 158.226 92.5662 156.091C92.9044 153.956 92.3806 151.775 91.1102 150.026C89.8397 148.277 87.9267 147.105 85.7919 146.767C83.6572 146.429 81.4755 146.953 79.7269 148.223Z" fill="#3959CC"/>
<path d="M73.0024 149.601C73.6681 149.783 74.2981 150.076 74.8655 150.468C74.8891 150.484 74.9172 150.493 74.9459 150.493C74.9746 150.493 75.0026 150.484 75.0259 150.467C75.3389 150.239 76.469 149.418 76.469 149.418C76.4868 149.405 76.5014 149.388 76.5114 149.368C76.5214 149.348 76.5266 149.326 76.5265 149.304C76.5264 149.282 76.5211 149.26 76.511 149.241C76.5009 149.221 76.4863 149.204 76.4684 149.191L76.1588 148.969C75.3521 148.38 74.4429 147.946 73.4777 147.69C73.3503 147.656 73.2174 147.648 73.0869 147.667C72.9564 147.685 72.8309 147.73 72.718 147.798C72.605 147.866 72.5068 147.955 72.4292 148.062C72.3517 148.169 72.2963 148.29 72.2664 148.418C72.2129 148.672 72.2596 148.937 72.3967 149.157C72.5339 149.378 72.7508 149.537 73.0024 149.601Z" fill="#3959CC"/>
<path d="M112.464 118.296V129H110.208V118.296H106.192V116.232H116.48V118.296H112.464ZM120.664 115.992V118.264H118.328V115.992H120.664ZM120.552 119.48V129H118.44V119.48H120.552ZM123.733 119.48V116.728H125.845V119.48H128.517V121.416H125.845V126.008C125.845 126.824 125.941 127.32 127.061 127.32C127.541 127.32 128.101 127.24 128.373 127.208V129.128C128.085 129.16 127.397 129.256 126.581 129.256C123.733 129.256 123.733 127.56 123.733 126.136V121.416H122.597V119.48H123.733ZM134.162 127.064V129H133.122C130.802 129 130.562 128.04 130.562 126.392V115.64H132.674V126.248C132.674 126.728 132.722 127.064 133.49 127.064H134.162ZM144.305 124.92H137.681C137.745 125.544 137.921 127.384 140.577 127.384C141.969 127.384 142.785 127 143.553 126.6V128.648C143.073 128.84 142.049 129.256 140.481 129.256C136.481 129.256 135.585 126.232 135.585 124.312C135.585 121.304 137.409 119.224 140.001 119.224C141.041 119.224 142.945 119.608 143.841 121.816C144.257 122.808 144.321 123.976 144.305 124.92ZM137.713 123.304H142.209C141.969 121.16 140.385 121.064 139.969 121.064C139.617 121.064 138.001 121.144 137.713 123.304Z" fill="#16191F" fill-opacity="0.9"/>
<path d="M106.988 144.756H108.21V153.882H112.032V155H106.988V144.756ZM113.435 151.178C113.435 148.617 115.229 147.135 117.205 147.135C119.207 147.135 120.988 148.63 120.988 151.178C120.988 153.7 119.207 155.208 117.218 155.208C115.216 155.208 113.435 153.713 113.435 151.178ZM114.605 151.178C114.605 153.414 116.113 154.142 117.205 154.142C118.323 154.142 119.818 153.414 119.818 151.178C119.818 148.942 118.323 148.214 117.218 148.214C116.113 148.214 114.605 148.929 114.605 151.178ZM124.182 155H123.025V147.343H124.182V148.357C125.001 147.109 126.158 147.135 126.652 147.135V148.214C124.988 148.188 124.182 148.994 124.182 150.684V155ZM135.067 151.594H129.308C129.373 152.998 130.166 154.142 132.051 154.142C133.312 154.142 134.014 153.726 134.456 153.466V154.714C134.105 154.87 133.286 155.208 132.051 155.208C128.957 155.208 128.164 152.894 128.164 151.217C128.164 148.734 129.698 147.135 131.674 147.135C132.61 147.135 134.027 147.525 134.703 149.202C135.054 150.06 135.067 151.074 135.067 151.594ZM129.321 150.554H133.884C133.741 148.695 132.467 148.214 131.622 148.214C130.361 148.214 129.412 149.163 129.321 150.554ZM142.826 155H141.669V150.58C141.669 149.436 141.552 148.201 140.252 148.201C139.485 148.201 138.276 148.695 138.276 150.515V155H137.106V147.343H138.276V148.37C138.484 148.058 139.108 147.135 140.473 147.135C140.759 147.135 142.046 147.135 142.631 148.565C143.099 147.733 143.853 147.135 145.036 147.135C145.634 147.135 146.869 147.343 147.272 148.773C147.402 149.228 147.428 149.657 147.428 150.463V155H146.258V150.593C146.258 149.631 146.258 148.214 144.802 148.214C144.386 148.214 142.826 148.357 142.826 150.762V155ZM156.082 144.756V146.186H154.717V144.756H156.082ZM155.991 147.343V155H154.808V147.343H155.991ZM159.716 147.343V148.37C160.366 147.551 161.185 147.135 162.225 147.135C164.175 147.135 165.644 148.721 165.644 151.178C165.644 153.622 164.175 155.208 162.225 155.208C161.185 155.208 160.366 154.792 159.716 153.973V158.458H158.559V147.343H159.716ZM159.664 151.178C159.664 153.544 161.094 154.142 162.056 154.142C163.915 154.142 164.487 152.491 164.487 151.178C164.487 149.865 163.915 148.214 162.056 148.214C161.094 148.214 159.664 148.799 159.664 151.178ZM172.205 147.616L171.906 148.682C171.542 148.474 171.048 148.214 170.203 148.214C169.475 148.214 168.643 148.474 168.643 149.306C168.643 150.086 169.072 150.229 170.502 150.671C171.36 150.944 172.686 151.36 172.686 152.894C172.686 154.649 170.957 155.208 169.592 155.208C169.358 155.208 168.227 155.208 167.109 154.597L167.499 153.596C167.928 153.817 168.578 154.142 169.618 154.142C169.891 154.142 171.516 154.142 171.516 152.907C171.516 152.049 170.645 151.802 169.891 151.581C168.695 151.243 167.486 150.853 167.486 149.345C167.486 147.928 168.734 147.135 170.19 147.135C171.191 147.135 171.906 147.473 172.205 147.616ZM179.637 147.343H180.807V155H179.637V153.986C178.831 155.195 177.479 155.208 177.232 155.208C176.036 155.208 175.334 154.571 175.035 153.986C174.749 153.401 174.71 152.868 174.71 151.659V147.343H175.867V151.659C175.867 152.868 175.867 154.142 177.518 154.142C177.882 154.142 179.637 154.051 179.637 151.659V147.343ZM188.968 155H187.811V150.58C187.811 149.436 187.694 148.201 186.394 148.201C185.627 148.201 184.418 148.695 184.418 150.515V155H183.248V147.343H184.418V148.37C184.626 148.058 185.25 147.135 186.615 147.135C186.901 147.135 188.188 147.135 188.773 148.565C189.241 147.733 189.995 147.135 191.178 147.135C191.776 147.135 193.011 147.343 193.414 148.773C193.544 149.228 193.57 149.657 193.57 150.463V155H192.4V150.593C192.4 149.631 192.4 148.214 190.944 148.214C190.528 148.214 188.968 148.357 188.968 150.762V155ZM206.372 155V153.986C205.735 154.792 204.903 155.208 203.876 155.208C201.913 155.208 200.444 153.622 200.444 151.178C200.444 148.721 201.913 147.135 203.876 147.135C204.903 147.135 205.735 147.551 206.372 148.37V144.275H207.542V155H206.372ZM206.437 151.178C206.437 148.799 204.994 148.214 204.045 148.214C202.173 148.214 201.614 149.865 201.614 151.178C201.614 152.491 202.173 154.142 204.045 154.142C204.994 154.142 206.437 153.544 206.437 151.178ZM209.578 151.178C209.578 148.617 211.372 147.135 213.348 147.135C215.35 147.135 217.131 148.63 217.131 151.178C217.131 153.7 215.35 155.208 213.361 155.208C211.359 155.208 209.578 153.713 209.578 151.178ZM210.748 151.178C210.748 153.414 212.256 154.142 213.348 154.142C214.466 154.142 215.961 153.414 215.961 151.178C215.961 148.942 214.466 148.214 213.361 148.214C212.256 148.214 210.748 148.929 210.748 151.178ZM221.677 153.934V155H220.962C219.272 155 219.272 154.116 219.272 153.297V144.275H220.455V153.258C220.455 153.596 220.455 153.934 221.079 153.934H221.677ZM222.936 151.178C222.936 148.617 224.73 147.135 226.706 147.135C228.708 147.135 230.489 148.63 230.489 151.178C230.489 153.7 228.708 155.208 226.719 155.208C224.717 155.208 222.936 153.713 222.936 151.178ZM224.106 151.178C224.106 153.414 225.614 154.142 226.706 154.142C227.824 154.142 229.319 153.414 229.319 151.178C229.319 148.942 227.824 148.214 226.719 148.214C225.614 148.214 224.106 148.929 224.106 151.178ZM233.683 155H232.526V147.343H233.683V148.357C234.502 147.109 235.659 147.135 236.153 147.135V148.214C234.489 148.188 233.683 148.994 233.683 150.684V155ZM247.373 147.616L247.074 148.682C246.71 148.474 246.216 148.214 245.371 148.214C244.643 148.214 243.811 148.474 243.811 149.306C243.811 150.086 244.24 150.229 245.67 150.671C246.528 150.944 247.854 151.36 247.854 152.894C247.854 154.649 246.125 155.208 244.76 155.208C244.526 155.208 243.395 155.208 242.277 154.597L242.667 153.596C243.096 153.817 243.746 154.142 244.786 154.142C245.059 154.142 246.684 154.142 246.684 152.907C246.684 152.049 245.813 151.802 245.059 151.581C243.863 151.243 242.654 150.853 242.654 149.345C242.654 147.928 243.902 147.135 245.358 147.135C246.359 147.135 247.074 147.473 247.373 147.616ZM251.256 144.756V146.186H249.891V144.756H251.256ZM251.165 147.343V155H249.982V147.343H251.165ZM253.966 147.343V145.146H255.123V147.343H257.45V148.422H255.123V152.79C255.123 153.505 255.123 154.142 256.306 154.142C256.475 154.142 256.774 154.129 257.346 154.051V155.117C257.073 155.156 256.67 155.208 256.137 155.208C254.018 155.208 253.966 153.934 253.966 152.79V148.422H252.978V147.343H253.966ZM264.435 148.929L264.331 147.772C264.63 147.603 265.488 147.135 266.814 147.135C267.152 147.135 268.556 147.135 269.388 148.097C269.869 148.656 269.908 149.267 269.908 150.047V153.557C269.908 154.376 270.064 154.714 270.194 155H268.972C268.881 154.818 268.777 154.61 268.764 154.051C268.036 154.831 267.087 155.208 266.021 155.208C264.357 155.208 263.603 154.155 263.603 152.972C263.603 150.684 265.93 150.411 267.256 150.255C268.348 150.125 268.725 150.086 268.725 149.462C268.725 148.578 267.776 148.214 266.801 148.214C265.618 148.214 264.799 148.708 264.435 148.929ZM268.751 152.582V150.983C268.361 151.139 268.244 151.165 267.126 151.295C265.995 151.438 264.747 151.659 264.747 152.933C264.747 153.674 265.241 154.168 266.099 154.168C266.983 154.168 268.192 153.648 268.751 152.582ZM278.124 155H276.967V150.58C276.967 149.436 276.85 148.201 275.55 148.201C274.783 148.201 273.574 148.695 273.574 150.515V155H272.404V147.343H273.574V148.37C273.782 148.058 274.406 147.135 275.771 147.135C276.057 147.135 277.344 147.135 277.929 148.565C278.397 147.733 279.151 147.135 280.334 147.135C280.932 147.135 282.167 147.343 282.57 148.773C282.7 149.228 282.726 149.657 282.726 150.463V155H281.556V150.593C281.556 149.631 281.556 148.214 280.1 148.214C279.684 148.214 278.124 148.357 278.124 150.762V155ZM291.684 151.594H285.925C285.99 152.998 286.783 154.142 288.668 154.142C289.929 154.142 290.631 153.726 291.073 153.466V154.714C290.722 154.87 289.903 155.208 288.668 155.208C285.574 155.208 284.781 152.894 284.781 151.217C284.781 148.734 286.315 147.135 288.291 147.135C289.227 147.135 290.644 147.525 291.32 149.202C291.671 150.06 291.684 151.074 291.684 151.594ZM285.938 150.554H290.501C290.358 148.695 289.084 148.214 288.239 148.214C286.978 148.214 286.029 149.163 285.938 150.554ZM293.969 147.343V145.146H295.126V147.343H297.453V148.422H295.126V152.79C295.126 153.505 295.126 154.142 296.309 154.142C296.478 154.142 296.777 154.129 297.349 154.051V155.117C297.076 155.156 296.673 155.208 296.14 155.208C294.021 155.208 293.969 153.934 293.969 152.79V148.422H292.981V147.343H293.969ZM299.099 153.31H300.75V154.883C300.75 155.936 300.282 156.261 299.099 156.313V155.624C299.853 155.598 299.905 155.325 299.918 154.961H299.099V153.31ZM313.762 153.466V154.688C313.476 154.844 312.787 155.208 311.513 155.208C308.861 155.208 307.522 153.427 307.522 151.23C307.522 148.76 309.225 147.135 311.461 147.135C312.319 147.135 313.047 147.343 313.762 147.811L313.437 148.877C313.216 148.695 312.618 148.201 311.513 148.201C309.992 148.201 308.692 149.176 308.692 151.178C308.692 152.894 309.667 154.142 311.539 154.142C312.722 154.142 313.476 153.648 313.762 153.466ZM315.375 151.178C315.375 148.617 317.169 147.135 319.145 147.135C321.147 147.135 322.928 148.63 322.928 151.178C322.928 153.7 321.147 155.208 319.158 155.208C317.156 155.208 315.375 153.713 315.375 151.178ZM316.545 151.178C316.545 153.414 318.053 154.142 319.145 154.142C320.263 154.142 321.758 153.414 321.758 151.178C321.758 148.942 320.263 148.214 319.158 148.214C318.053 148.214 316.545 148.929 316.545 151.178ZM326.122 155H324.965V147.343H326.122V148.357C326.707 147.473 327.682 147.135 328.527 147.135C329.723 147.135 330.438 147.772 330.724 148.357C331.01 148.942 331.062 149.514 331.062 150.684V155H329.892V150.684C329.892 149.488 329.892 148.201 328.241 148.201C327.877 148.201 326.122 148.305 326.122 150.684V155ZM338.002 147.616L337.703 148.682C337.339 148.474 336.845 148.214 336 148.214C335.272 148.214 334.44 148.474 334.44 149.306C334.44 150.086 334.869 150.229 336.299 150.671C337.157 150.944 338.483 151.36 338.483 152.894C338.483 154.649 336.754 155.208 335.389 155.208C335.155 155.208 334.024 155.208 332.906 154.597L333.296 153.596C333.725 153.817 334.375 154.142 335.415 154.142C335.688 154.142 337.313 154.142 337.313 152.907C337.313 152.049 336.442 151.802 335.688 151.581C334.492 151.243 333.283 150.853 333.283 149.345C333.283 147.928 334.531 147.135 335.987 147.135C336.988 147.135 337.703 147.473 338.002 147.616ZM347.007 151.594H341.248C341.313 152.998 342.106 154.142 343.991 154.142C345.252 154.142 345.954 153.726 346.396 153.466V154.714C346.045 154.87 345.226 155.208 343.991 155.208C340.897 155.208 340.104 152.894 340.104 151.217C340.104 148.734 341.638 147.135 343.614 147.135C344.55 147.135 345.967 147.525 346.643 149.202C346.994 150.06 347.007 151.074 347.007 151.594ZM341.261 150.554H345.824C345.681 148.695 344.407 148.214 343.562 148.214C342.301 148.214 341.352 149.163 341.261 150.554ZM354.856 153.466V154.688C354.57 154.844 353.881 155.208 352.607 155.208C349.955 155.208 348.616 153.427 348.616 151.23C348.616 148.76 350.319 147.135 352.555 147.135C353.413 147.135 354.141 147.343 354.856 147.811L354.531 148.877C354.31 148.695 353.712 148.201 352.607 148.201C351.086 148.201 349.786 149.176 349.786 151.178C349.786 152.894 350.761 154.142 352.633 154.142C353.816 154.142 354.57 153.648 354.856 153.466ZM357.133 147.343V145.146H358.29V147.343H360.617V148.422H358.29V152.79C358.29 153.505 358.29 154.142 359.473 154.142C359.642 154.142 359.941 154.129 360.513 154.051V155.117C360.24 155.156 359.837 155.208 359.304 155.208C357.185 155.208 357.133 153.934 357.133 152.79V148.422H356.145V147.343H357.133ZM368.827 151.594H363.068C363.133 152.998 363.926 154.142 365.811 154.142C367.072 154.142 367.774 153.726 368.216 153.466V154.714C367.865 154.87 367.046 155.208 365.811 155.208C362.717 155.208 361.924 152.894 361.924 151.217C361.924 148.734 363.458 147.135 365.434 147.135C366.37 147.135 367.787 147.525 368.463 149.202C368.814 150.06 368.827 151.074 368.827 151.594ZM363.081 150.554H367.644C367.501 148.695 366.227 148.214 365.382 148.214C364.121 148.214 363.172 149.163 363.081 150.554ZM371.113 147.343V145.146H372.27V147.343H374.597V148.422H372.27V152.79C372.27 153.505 372.27 154.142 373.453 154.142C373.622 154.142 373.921 154.129 374.493 154.051V155.117C374.22 155.156 373.817 155.208 373.284 155.208C371.165 155.208 371.113 153.934 371.113 152.79V148.422H370.125V147.343H371.113ZM381.234 147.343H382.404V155H381.234V153.986C380.428 155.195 379.076 155.208 378.829 155.208C377.633 155.208 376.931 154.571 376.632 153.986C376.346 153.401 376.307 152.868 376.307 151.659V147.343H377.464V151.659C377.464 152.868 377.464 154.142 379.115 154.142C379.479 154.142 381.234 154.051 381.234 151.659V147.343ZM386.016 155H384.859V147.343H386.016V148.357C386.835 147.109 387.992 147.135 388.486 147.135V148.214C386.822 148.188 386.016 148.994 386.016 150.684V155ZM395.676 148.929L395.572 147.772C395.871 147.603 396.729 147.135 398.055 147.135C398.393 147.135 399.797 147.135 400.629 148.097C401.11 148.656 401.149 149.267 401.149 150.047V153.557C401.149 154.376 401.305 154.714 401.435 155H400.213C400.122 154.818 400.018 154.61 400.005 154.051C399.277 154.831 398.328 155.208 397.262 155.208C395.598 155.208 394.844 154.155 394.844 152.972C394.844 150.684 397.171 150.411 398.497 150.255C399.589 150.125 399.966 150.086 399.966 149.462C399.966 148.578 399.017 148.214 398.042 148.214C396.859 148.214 396.04 148.708 395.676 148.929ZM399.992 152.582V150.983C399.602 151.139 399.485 151.165 398.367 151.295C397.236 151.438 395.988 151.659 395.988 152.933C395.988 153.674 396.482 154.168 397.34 154.168C398.224 154.168 399.433 153.648 399.992 152.582ZM409.183 155V153.986C408.546 154.792 407.714 155.208 406.687 155.208C404.724 155.208 403.255 153.622 403.255 151.178C403.255 148.721 404.724 147.135 406.687 147.135C407.714 147.135 408.546 147.551 409.183 148.37V144.275H410.353V155H409.183ZM409.248 151.178C409.248 148.799 407.805 148.214 406.856 148.214C404.984 148.214 404.425 149.865 404.425 151.178C404.425 152.491 404.984 154.142 406.856 154.142C407.805 154.142 409.248 153.544 409.248 151.178ZM414.197 144.756V146.186H412.832V144.756H414.197ZM414.106 147.343V155H412.923V147.343H414.106ZM417.83 147.343V148.37C418.48 147.551 419.299 147.135 420.339 147.135C422.289 147.135 423.758 148.721 423.758 151.178C423.758 153.622 422.289 155.208 420.339 155.208C419.299 155.208 418.48 154.792 417.83 153.973V158.458H416.673V147.343H417.83ZM417.778 151.178C417.778 153.544 419.208 154.142 420.17 154.142C422.029 154.142 422.601 152.491 422.601 151.178C422.601 149.865 422.029 148.214 420.17 148.214C419.208 148.214 417.778 148.799 417.778 151.178ZM427.212 144.756V146.186H425.847V144.756H427.212ZM427.121 147.343V155H425.938V147.343H427.121ZM434.173 147.616L433.874 148.682C433.51 148.474 433.016 148.214 432.171 148.214C431.443 148.214 430.611 148.474 430.611 149.306C430.611 150.086 431.04 150.229 432.47 150.671C433.328 150.944 434.654 151.36 434.654 152.894C434.654 154.649 432.925 155.208 431.56 155.208C431.326 155.208 430.195 155.208 429.077 154.597L429.467 153.596C429.896 153.817 430.546 154.142 431.586 154.142C431.859 154.142 433.484 154.142 433.484 152.907C433.484 152.049 432.613 151.802 431.859 151.581C430.663 151.243 429.454 150.853 429.454 149.345C429.454 147.928 430.702 147.135 432.158 147.135C433.159 147.135 433.874 147.473 434.173 147.616ZM442.476 153.466V154.688C442.19 154.844 441.501 155.208 440.227 155.208C437.575 155.208 436.236 153.427 436.236 151.23C436.236 148.76 437.939 147.135 440.175 147.135C441.033 147.135 441.761 147.343 442.476 147.811L442.151 148.877C441.93 148.695 441.332 148.201 440.227 148.201C438.706 148.201 437.406 149.176 437.406 151.178C437.406 152.894 438.381 154.142 440.253 154.142C441.436 154.142 442.19 153.648 442.476 153.466ZM445.897 144.756V146.186H444.532V144.756H445.897ZM445.806 147.343V155H444.623V147.343H445.806ZM113.488 173.594H107.729C107.794 174.998 108.587 176.142 110.472 176.142C111.733 176.142 112.435 175.726 112.877 175.466V176.714C112.526 176.87 111.707 177.208 110.472 177.208C107.378 177.208 106.585 174.894 106.585 173.217C106.585 170.734 108.119 169.135 110.095 169.135C111.031 169.135 112.448 169.525 113.124 171.202C113.475 172.06 113.488 173.074 113.488 173.594ZM107.742 172.554H112.305C112.162 170.695 110.888 170.214 110.043 170.214C108.782 170.214 107.833 171.163 107.742 172.554ZM118.049 175.934V177H117.334C115.644 177 115.644 176.116 115.644 175.297V166.275H116.827V175.258C116.827 175.596 116.827 175.934 117.451 175.934H118.049ZM121.115 166.756V168.186H119.75V166.756H121.115ZM121.024 169.343V177H119.841V169.343H121.024ZM123.825 169.343V167.146H124.982V169.343H127.309V170.422H124.982V174.79C124.982 175.505 124.982 176.142 126.165 176.142C126.334 176.142 126.633 176.129 127.205 176.051V177.117C126.932 177.156 126.529 177.208 125.996 177.208C123.877 177.208 123.825 175.934 123.825 174.79V170.422H122.837V169.343H123.825ZM128.954 175.31H130.605V176.883C130.605 177.936 130.137 178.261 128.954 178.313V177.624C129.708 177.598 129.76 177.325 129.773 176.961H128.954V175.31ZM142.305 169.616L142.006 170.682C141.642 170.474 141.148 170.214 140.303 170.214C139.575 170.214 138.743 170.474 138.743 171.306C138.743 172.086 139.172 172.229 140.602 172.671C141.46 172.944 142.786 173.36 142.786 174.894C142.786 176.649 141.057 177.208 139.692 177.208C139.458 177.208 138.327 177.208 137.209 176.597L137.599 175.596C138.028 175.817 138.678 176.142 139.718 176.142C139.991 176.142 141.616 176.142 141.616 174.907C141.616 174.049 140.745 173.802 139.991 173.581C138.795 173.243 137.586 172.853 137.586 171.345C137.586 169.928 138.834 169.135 140.29 169.135C141.291 169.135 142.006 169.473 142.305 169.616ZM151.31 173.594H145.551C145.616 174.998 146.409 176.142 148.294 176.142C149.555 176.142 150.257 175.726 150.699 175.466V176.714C150.348 176.87 149.529 177.208 148.294 177.208C145.2 177.208 144.407 174.894 144.407 173.217C144.407 170.734 145.941 169.135 147.917 169.135C148.853 169.135 150.27 169.525 150.946 171.202C151.297 172.06 151.31 173.074 151.31 173.594ZM145.564 172.554H150.127C149.984 170.695 148.71 170.214 147.865 170.214C146.604 170.214 145.655 171.163 145.564 172.554ZM158.886 177V175.986C158.249 176.792 157.417 177.208 156.39 177.208C154.427 177.208 152.958 175.622 152.958 173.178C152.958 170.721 154.427 169.135 156.39 169.135C157.417 169.135 158.249 169.551 158.886 170.37V166.275H160.056V177H158.886ZM158.951 173.178C158.951 170.799 157.508 170.214 156.559 170.214C154.687 170.214 154.128 171.865 154.128 173.178C154.128 174.491 154.687 176.142 156.559 176.142C157.508 176.142 158.951 175.544 158.951 173.178ZM173.841 173.594H168.082C168.147 174.998 168.94 176.142 170.825 176.142C172.086 176.142 172.788 175.726 173.23 175.466V176.714C172.879 176.87 172.06 177.208 170.825 177.208C167.731 177.208 166.938 174.894 166.938 173.217C166.938 170.734 168.472 169.135 170.448 169.135C171.384 169.135 172.801 169.525 173.477 171.202C173.828 172.06 173.841 173.074 173.841 173.594ZM168.095 172.554H172.658C172.515 170.695 171.241 170.214 170.396 170.214C169.135 170.214 168.186 171.163 168.095 172.554ZM177.271 166.756V168.186H175.906V166.756H177.271ZM177.18 169.343V177H175.997V169.343H177.18ZM184.674 169.343H185.844V177H184.674V175.986C183.868 177.195 182.516 177.208 182.269 177.208C181.073 177.208 180.371 176.571 180.072 175.986C179.786 175.401 179.747 174.868 179.747 173.659V169.343H180.904V173.659C180.904 174.868 180.904 176.142 182.555 176.142C182.919 176.142 184.674 176.051 184.674 173.659V169.343ZM192.783 169.616L192.484 170.682C192.12 170.474 191.626 170.214 190.781 170.214C190.053 170.214 189.221 170.474 189.221 171.306C189.221 172.086 189.65 172.229 191.08 172.671C191.938 172.944 193.264 173.36 193.264 174.894C193.264 176.649 191.535 177.208 190.17 177.208C189.936 177.208 188.805 177.208 187.687 176.597L188.077 175.596C188.506 175.817 189.156 176.142 190.196 176.142C190.469 176.142 192.094 176.142 192.094 174.907C192.094 174.049 191.223 173.802 190.469 173.581C189.273 173.243 188.064 172.853 188.064 171.345C188.064 169.928 189.312 169.135 190.768 169.135C191.769 169.135 192.484 169.473 192.783 169.616ZM200.995 177H199.838V172.58C199.838 171.436 199.721 170.201 198.421 170.201C197.654 170.201 196.445 170.695 196.445 172.515V177H195.275V169.343H196.445V170.37C196.653 170.058 197.277 169.135 198.642 169.135C198.928 169.135 200.215 169.135 200.8 170.565C201.268 169.733 202.022 169.135 203.205 169.135C203.803 169.135 205.038 169.343 205.441 170.773C205.571 171.228 205.597 171.657 205.597 172.463V177H204.427V172.593C204.427 171.631 204.427 170.214 202.971 170.214C202.555 170.214 200.995 170.357 200.995 172.762V177ZM207.626 173.178C207.626 170.617 209.42 169.135 211.396 169.135C213.398 169.135 215.179 170.63 215.179 173.178C215.179 175.7 213.398 177.208 211.409 177.208C209.407 177.208 207.626 175.713 207.626 173.178ZM208.796 173.178C208.796 175.414 210.304 176.142 211.396 176.142C212.514 176.142 214.009 175.414 214.009 173.178C214.009 170.942 212.514 170.214 211.409 170.214C210.304 170.214 208.796 170.929 208.796 173.178ZM222.741 177V175.986C222.104 176.792 221.272 177.208 220.245 177.208C218.282 177.208 216.813 175.622 216.813 173.178C216.813 170.721 218.282 169.135 220.245 169.135C221.272 169.135 222.104 169.551 222.741 170.37V166.275H223.911V177H222.741ZM222.806 173.178C222.806 170.799 221.363 170.214 220.414 170.214C218.542 170.214 217.983 171.865 217.983 173.178C217.983 174.491 218.542 176.142 220.414 176.142C221.363 176.142 222.806 175.544 222.806 173.178ZM231.43 169.343V167.146H232.587V169.343H234.914V170.422H232.587V174.79C232.587 175.505 232.587 176.142 233.77 176.142C233.939 176.142 234.238 176.129 234.81 176.051V177.117C234.537 177.156 234.134 177.208 233.601 177.208C231.482 177.208 231.43 175.934 231.43 174.79V170.422H230.442V169.343H231.43ZM243.124 173.594H237.365C237.43 174.998 238.223 176.142 240.108 176.142C241.369 176.142 242.071 175.726 242.513 175.466V176.714C242.162 176.87 241.343 177.208 240.108 177.208C237.014 177.208 236.221 174.894 236.221 173.217C236.221 170.734 237.755 169.135 239.731 169.135C240.667 169.135 242.084 169.525 242.76 171.202C243.111 172.06 243.124 173.074 243.124 173.594ZM237.378 172.554H241.941C241.798 170.695 240.524 170.214 239.679 170.214C238.418 170.214 237.469 171.163 237.378 172.554ZM250.883 177H249.726V172.58C249.726 171.436 249.609 170.201 248.309 170.201C247.542 170.201 246.333 170.695 246.333 172.515V177H245.163V169.343H246.333V170.37C246.541 170.058 247.165 169.135 248.53 169.135C248.816 169.135 250.103 169.135 250.688 170.565C251.156 169.733 251.91 169.135 253.093 169.135C253.691 169.135 254.926 169.343 255.329 170.773C255.459 171.228 255.485 171.657 255.485 172.463V177H254.315V172.593C254.315 171.631 254.315 170.214 252.859 170.214C252.443 170.214 250.883 170.357 250.883 172.762V177ZM259.099 169.343V170.37C259.749 169.551 260.568 169.135 261.608 169.135C263.558 169.135 265.027 170.721 265.027 173.178C265.027 175.622 263.558 177.208 261.608 177.208C260.568 177.208 259.749 176.792 259.099 175.973V180.458H257.942V169.343H259.099ZM259.047 173.178C259.047 175.544 260.477 176.142 261.439 176.142C263.298 176.142 263.87 174.491 263.87 173.178C263.87 171.865 263.298 170.214 261.439 170.214C260.477 170.214 259.047 170.799 259.047 173.178ZM266.674 173.178C266.674 170.617 268.468 169.135 270.444 169.135C272.446 169.135 274.227 170.63 274.227 173.178C274.227 175.7 272.446 177.208 270.457 177.208C268.455 177.208 266.674 175.713 266.674 173.178ZM267.844 173.178C267.844 175.414 269.352 176.142 270.444 176.142C271.562 176.142 273.057 175.414 273.057 173.178C273.057 170.942 271.562 170.214 270.457 170.214C269.352 170.214 267.844 170.929 267.844 173.178ZM277.421 177H276.264V169.343H277.421V170.357C278.24 169.109 279.397 169.135 279.891 169.135V170.214C278.227 170.188 277.421 170.994 277.421 172.684V177ZM288.004 166.756V168.186H286.639V166.756H288.004ZM287.913 169.343V177H286.73V169.343H287.913ZM291.637 177H290.48V169.343H291.637V170.357C292.222 169.473 293.197 169.135 294.042 169.135C295.238 169.135 295.953 169.772 296.239 170.357C296.525 170.942 296.577 171.514 296.577 172.684V177H295.407V172.684C295.407 171.488 295.407 170.201 293.756 170.201C293.392 170.201 291.637 170.305 291.637 172.684V177ZM304.829 175.466V176.688C304.543 176.844 303.854 177.208 302.58 177.208C299.928 177.208 298.589 175.427 298.589 173.23C298.589 170.76 300.292 169.135 302.528 169.135C303.386 169.135 304.114 169.343 304.829 169.811L304.504 170.877C304.283 170.695 303.685 170.201 302.58 170.201C301.059 170.201 299.759 171.176 299.759 173.178C299.759 174.894 300.734 176.142 302.606 176.142C303.789 176.142 304.543 175.648 304.829 175.466ZM308.25 166.756V168.186H306.885V166.756H308.25ZM308.159 169.343V177H306.976V169.343H308.159ZM316.251 177V175.986C315.614 176.792 314.782 177.208 313.755 177.208C311.792 177.208 310.323 175.622 310.323 173.178C310.323 170.721 311.792 169.135 313.755 169.135C314.782 169.135 315.614 169.551 316.251 170.37V166.275H317.421V177H316.251ZM316.316 173.178C316.316 170.799 314.873 170.214 313.924 170.214C312.052 170.214 311.493 171.865 311.493 173.178C311.493 174.491 312.052 176.142 313.924 176.142C314.873 176.142 316.316 175.544 316.316 173.178ZM324.814 169.343H325.984V177H324.814V175.986C324.008 177.195 322.656 177.208 322.409 177.208C321.213 177.208 320.511 176.571 320.212 175.986C319.926 175.401 319.887 174.868 319.887 173.659V169.343H321.044V173.659C321.044 174.868 321.044 176.142 322.695 176.142C323.059 176.142 324.814 176.051 324.814 173.659V169.343ZM329.596 177H328.439V169.343H329.596V170.357C330.181 169.473 331.156 169.135 332.001 169.135C333.197 169.135 333.912 169.772 334.198 170.357C334.484 170.942 334.536 171.514 334.536 172.684V177H333.366V172.684C333.366 171.488 333.366 170.201 331.715 170.201C331.351 170.201 329.596 170.305 329.596 172.684V177ZM337.224 169.343V167.146H338.381V169.343H340.708V170.422H338.381V174.79C338.381 175.505 338.381 176.142 339.564 176.142C339.733 176.142 340.032 176.129 340.604 176.051V177.117C340.331 177.156 339.928 177.208 339.395 177.208C337.276 177.208 337.224 175.934 337.224 174.79V170.422H336.236V169.343H337.224ZM352.165 169.343H353.335V177H352.165V175.986C351.359 177.195 350.007 177.208 349.76 177.208C348.564 177.208 347.862 176.571 347.563 175.986C347.277 175.401 347.238 174.868 347.238 173.659V169.343H348.395V173.659C348.395 174.868 348.395 176.142 350.046 176.142C350.41 176.142 352.165 176.051 352.165 173.659V169.343ZM356.023 169.343V167.146H357.18V169.343H359.507V170.422H357.18V174.79C357.18 175.505 357.18 176.142 358.363 176.142C358.532 176.142 358.831 176.129 359.403 176.051V177.117C359.13 177.156 358.727 177.208 358.194 177.208C356.075 177.208 356.023 175.934 356.023 174.79V170.422H355.035V169.343H356.023ZM368.546 175.934V177H367.831C366.141 177 366.141 176.116 366.141 175.297V166.275H367.324V175.258C367.324 175.596 367.324 175.934 367.948 175.934H368.546ZM370.689 170.929L370.585 169.772C370.884 169.603 371.742 169.135 373.068 169.135C373.406 169.135 374.81 169.135 375.642 170.097C376.123 170.656 376.162 171.267 376.162 172.047V175.557C376.162 176.376 376.318 176.714 376.448 177H375.226C375.135 176.818 375.031 176.61 375.018 176.051C374.29 176.831 373.341 177.208 372.275 177.208C370.611 177.208 369.857 176.155 369.857 174.972C369.857 172.684 372.184 172.411 373.51 172.255C374.602 172.125 374.979 172.086 374.979 171.462C374.979 170.578 374.03 170.214 373.055 170.214C371.872 170.214 371.053 170.708 370.689 170.929ZM375.005 174.582V172.983C374.615 173.139 374.498 173.165 373.38 173.295C372.249 173.438 371.001 173.659 371.001 174.933C371.001 175.674 371.495 176.168 372.353 176.168C373.237 176.168 374.446 175.648 375.005 174.582ZM379.828 175.973V177H378.671V166.275H379.828V170.37C380.478 169.551 381.297 169.135 382.337 169.135C384.287 169.135 385.756 170.721 385.756 173.178C385.756 175.622 384.287 177.208 382.337 177.208C381.297 177.208 380.478 176.792 379.828 175.973ZM379.776 173.178C379.776 175.544 381.206 176.142 382.168 176.142C384.027 176.142 384.599 174.491 384.599 173.178C384.599 171.865 384.027 170.214 382.168 170.214C381.206 170.214 379.776 170.799 379.776 173.178ZM387.403 173.178C387.403 170.617 389.197 169.135 391.173 169.135C393.175 169.135 394.956 170.63 394.956 173.178C394.956 175.7 393.175 177.208 391.186 177.208C389.184 177.208 387.403 175.713 387.403 173.178ZM388.573 173.178C388.573 175.414 390.081 176.142 391.173 176.142C392.291 176.142 393.786 175.414 393.786 173.178C393.786 170.942 392.291 170.214 391.186 170.214C390.081 170.214 388.573 170.929 388.573 173.178ZM398.15 177H396.993V169.343H398.15V170.357C398.969 169.109 400.126 169.135 400.62 169.135V170.214C398.956 170.188 398.15 170.994 398.15 172.684V177ZM409.036 173.594H403.277C403.342 174.998 404.135 176.142 406.02 176.142C407.281 176.142 407.983 175.726 408.425 175.466V176.714C408.074 176.87 407.255 177.208 406.02 177.208C402.926 177.208 402.133 174.894 402.133 173.217C402.133 170.734 403.667 169.135 405.643 169.135C406.579 169.135 407.996 169.525 408.672 171.202C409.023 172.06 409.036 173.074 409.036 173.594ZM403.29 172.554H407.853C407.71 170.695 406.436 170.214 405.591 170.214C404.33 170.214 403.381 171.163 403.29 172.554ZM422.406 173.594H416.647C416.712 174.998 417.505 176.142 419.39 176.142C420.651 176.142 421.353 175.726 421.795 175.466V176.714C421.444 176.87 420.625 177.208 419.39 177.208C416.296 177.208 415.503 174.894 415.503 173.217C415.503 170.734 417.037 169.135 419.013 169.135C419.949 169.135 421.366 169.525 422.042 171.202C422.393 172.06 422.406 173.074 422.406 173.594ZM416.66 172.554H421.223C421.08 170.695 419.806 170.214 418.961 170.214C417.7 170.214 416.751 171.163 416.66 172.554ZM424.692 169.343V167.146H425.849V169.343H428.176V170.422H425.849V174.79C425.849 175.505 425.849 176.142 427.032 176.142C427.201 176.142 427.5 176.129 428.072 176.051V177.117C427.799 177.156 427.396 177.208 426.863 177.208C424.744 177.208 424.692 175.934 424.692 174.79V170.422H423.704V169.343H424.692ZM112.513 199V197.986C111.876 198.792 111.044 199.208 110.017 199.208C108.054 199.208 106.585 197.622 106.585 195.178C106.585 192.721 108.054 191.135 110.017 191.135C111.044 191.135 111.876 191.551 112.513 192.37V188.275H113.683V199H112.513ZM112.578 195.178C112.578 192.799 111.135 192.214 110.186 192.214C108.314 192.214 107.755 193.865 107.755 195.178C107.755 196.491 108.314 198.142 110.186 198.142C111.135 198.142 112.578 197.544 112.578 195.178ZM115.72 195.178C115.72 192.617 117.514 191.135 119.49 191.135C121.492 191.135 123.273 192.63 123.273 195.178C123.273 197.7 121.492 199.208 119.503 199.208C117.501 199.208 115.72 197.713 115.72 195.178ZM116.89 195.178C116.89 197.414 118.398 198.142 119.49 198.142C120.608 198.142 122.103 197.414 122.103 195.178C122.103 192.942 120.608 192.214 119.503 192.214C118.398 192.214 116.89 192.929 116.89 195.178ZM127.819 197.934V199H127.104C125.414 199 125.414 198.116 125.414 197.297V188.275H126.597V197.258C126.597 197.596 126.597 197.934 127.221 197.934H127.819ZM129.078 195.178C129.078 192.617 130.872 191.135 132.848 191.135C134.85 191.135 136.631 192.63 136.631 195.178C136.631 197.7 134.85 199.208 132.861 199.208C130.859 199.208 129.078 197.713 129.078 195.178ZM130.248 195.178C130.248 197.414 131.756 198.142 132.848 198.142C133.966 198.142 135.461 197.414 135.461 195.178C135.461 192.942 133.966 192.214 132.861 192.214C131.756 192.214 130.248 192.929 130.248 195.178ZM139.825 199H138.668V191.343H139.825V192.357C140.644 191.109 141.801 191.135 142.295 191.135V192.214C140.631 192.188 139.825 192.994 139.825 194.684V199ZM150.71 195.594H144.951C145.016 196.998 145.809 198.142 147.694 198.142C148.955 198.142 149.657 197.726 150.099 197.466V198.714C149.748 198.87 148.929 199.208 147.694 199.208C144.6 199.208 143.807 196.894 143.807 195.217C143.807 192.734 145.341 191.135 147.317 191.135C148.253 191.135 149.67 191.525 150.346 193.202C150.697 194.06 150.71 195.074 150.71 195.594ZM144.964 194.554H149.527C149.384 192.695 148.11 192.214 147.265 192.214C146.004 192.214 145.055 193.163 144.964 194.554ZM163.288 199H162.131V194.58C162.131 193.436 162.014 192.201 160.714 192.201C159.947 192.201 158.738 192.695 158.738 194.515V199H157.568V191.343H158.738V192.37C158.946 192.058 159.57 191.135 160.935 191.135C161.221 191.135 162.508 191.135 163.093 192.565C163.561 191.733 164.315 191.135 165.498 191.135C166.096 191.135 167.331 191.343 167.734 192.773C167.864 193.228 167.89 193.657 167.89 194.463V199H166.72V194.593C166.72 193.631 166.72 192.214 165.264 192.214C164.848 192.214 163.288 192.357 163.288 194.762V199ZM170.802 192.929L170.698 191.772C170.997 191.603 171.855 191.135 173.181 191.135C173.519 191.135 174.923 191.135 175.755 192.097C176.236 192.656 176.275 193.267 176.275 194.047V197.557C176.275 198.376 176.431 198.714 176.561 199H175.339C175.248 198.818 175.144 198.61 175.131 198.051C174.403 198.831 173.454 199.208 172.388 199.208C170.724 199.208 169.97 198.155 169.97 196.972C169.97 194.684 172.297 194.411 173.623 194.255C174.715 194.125 175.092 194.086 175.092 193.462C175.092 192.578 174.143 192.214 173.168 192.214C171.985 192.214 171.166 192.708 170.802 192.929ZM175.118 196.582V194.983C174.728 195.139 174.611 195.165 173.493 195.295C172.362 195.438 171.114 195.659 171.114 196.933C171.114 197.674 171.608 198.168 172.466 198.168C173.35 198.168 174.559 197.648 175.118 196.582ZM185.324 191.2V192.292C185.103 192.266 184.687 192.227 184.219 192.5C184.284 192.643 184.518 193.098 184.518 193.8C184.518 195.763 182.698 196.296 181.619 196.296C181.216 196.296 180.943 196.231 180.787 196.205C180.28 196.348 179.864 196.699 179.864 196.998C179.864 197.271 180.098 197.375 180.215 197.427C180.54 197.531 181.034 197.557 182.217 197.622C182.932 197.661 185.168 197.778 185.168 199.949C185.168 202.458 182.178 202.458 181.645 202.458C179.123 202.458 178.174 201.275 178.174 200.079C178.174 198.87 179.058 198.285 179.318 198.116C179.058 197.96 178.694 197.713 178.694 197.167C178.694 196.556 179.214 196.062 179.708 195.763C178.811 195.152 178.603 194.281 178.603 193.67C178.603 192.188 179.812 191.135 181.567 191.135C181.944 191.135 182.698 191.187 183.387 191.616C183.829 191.291 184.297 191.135 184.843 191.135C185.103 191.135 185.194 191.161 185.324 191.2ZM184.011 200.001C184.011 198.87 183.101 198.558 181.177 198.558C179.331 198.558 179.331 199.845 179.331 200.027C179.331 201.262 180.826 201.418 181.645 201.418C183.101 201.418 184.011 200.885 184.011 200.001ZM181.593 192.175C180.319 192.175 179.76 192.994 179.76 193.748C179.76 194.58 180.436 195.256 181.554 195.256C182.607 195.256 183.348 194.645 183.348 193.722C183.348 192.903 182.776 192.175 181.593 192.175ZM188.138 199H186.981V191.343H188.138V192.357C188.723 191.473 189.698 191.135 190.543 191.135C191.739 191.135 192.454 191.772 192.74 192.357C193.026 192.942 193.078 193.514 193.078 194.684V199H191.908V194.684C191.908 193.488 191.908 192.201 190.257 192.201C189.893 192.201 188.138 192.305 188.138 194.684V199ZM195.987 192.929L195.883 191.772C196.182 191.603 197.04 191.135 198.366 191.135C198.704 191.135 200.108 191.135 200.94 192.097C201.421 192.656 201.46 193.267 201.46 194.047V197.557C201.46 198.376 201.616 198.714 201.746 199H200.524C200.433 198.818 200.329 198.61 200.316 198.051C199.588 198.831 198.639 199.208 197.573 199.208C195.909 199.208 195.155 198.155 195.155 196.972C195.155 194.684 197.482 194.411 198.808 194.255C199.9 194.125 200.277 194.086 200.277 193.462C200.277 192.578 199.328 192.214 198.353 192.214C197.17 192.214 196.351 192.708 195.987 192.929ZM200.303 196.582V194.983C199.913 195.139 199.796 195.165 198.678 195.295C197.547 195.438 196.299 195.659 196.299 196.933C196.299 197.674 196.793 198.168 197.651 198.168C198.535 198.168 199.744 197.648 200.303 196.582ZM209.244 192.929L209.14 191.772C209.439 191.603 210.297 191.135 211.623 191.135C211.961 191.135 213.365 191.135 214.197 192.097C214.678 192.656 214.717 193.267 214.717 194.047V197.557C214.717 198.376 214.873 198.714 215.003 199H213.781C213.69 198.818 213.586 198.61 213.573 198.051C212.845 198.831 211.896 199.208 210.83 199.208C209.166 199.208 208.412 198.155 208.412 196.972C208.412 194.684 210.739 194.411 212.065 194.255C213.157 194.125 213.534 194.086 213.534 193.462C213.534 192.578 212.585 192.214 211.61 192.214C210.427 192.214 209.608 192.708 209.244 192.929ZM213.56 196.582V194.983C213.17 195.139 213.053 195.165 211.935 195.295C210.804 195.438 209.556 195.659 209.556 196.933C209.556 197.674 210.05 198.168 210.908 198.168C211.792 198.168 213.001 197.648 213.56 196.582ZM219.735 197.934V199H219.02C217.33 199 217.33 198.116 217.33 197.297V188.275H218.513V197.258C218.513 197.596 218.513 197.934 219.137 197.934H219.735ZM222.801 188.756V190.186H221.436V188.756H222.801ZM222.71 191.343V199H221.527V191.343H222.71ZM230.802 192.37V191.343H231.972V202.458H230.802V197.973C230.165 198.792 229.333 199.208 228.306 199.208C226.343 199.208 224.874 197.622 224.874 195.178C224.874 192.721 226.343 191.135 228.306 191.135C229.333 191.135 230.165 191.551 230.802 192.37ZM230.867 195.178C230.867 192.799 229.424 192.214 228.475 192.214C226.603 192.214 226.044 193.865 226.044 195.178C226.044 196.491 226.603 198.142 228.475 198.142C229.424 198.142 230.867 197.544 230.867 195.178ZM239.365 191.343H240.535V199H239.365V197.986C238.559 199.195 237.207 199.208 236.96 199.208C235.764 199.208 235.062 198.571 234.763 197.986C234.477 197.401 234.438 196.868 234.438 195.659V191.343H235.595V195.659C235.595 196.868 235.595 198.142 237.246 198.142C237.61 198.142 239.365 198.051 239.365 195.659V191.343ZM243.445 192.929L243.341 191.772C243.64 191.603 244.498 191.135 245.824 191.135C246.162 191.135 247.566 191.135 248.398 192.097C248.879 192.656 248.918 193.267 248.918 194.047V197.557C248.918 198.376 249.074 198.714 249.204 199H247.982C247.891 198.818 247.787 198.61 247.774 198.051C247.046 198.831 246.097 199.208 245.031 199.208C243.367 199.208 242.613 198.155 242.613 196.972C242.613 194.684 244.94 194.411 246.266 194.255C247.358 194.125 247.735 194.086 247.735 193.462C247.735 192.578 246.786 192.214 245.811 192.214C244.628 192.214 243.809 192.708 243.445 192.929ZM247.761 196.582V194.983C247.371 195.139 247.254 195.165 246.136 195.295C245.005 195.438 243.757 195.659 243.757 196.933C243.757 197.674 244.251 198.168 245.109 198.168C245.993 198.168 247.202 197.648 247.761 196.582ZM251.362 197.31H253.013V199H251.362V197.31Z" fill="#16191F" fill-opacity="0.9"/>
<path fill-rule="evenodd" clip-rule="evenodd" d="M492.07 157.263C492.477 157.67 492.477 158.33 492.07 158.737L485.403 165.403C484.996 165.81 484.337 165.81 483.93 165.403C483.523 164.996 483.523 164.337 483.93 163.93L489.86 158L483.93 152.07C483.523 151.663 483.523 151.004 483.93 150.597C484.337 150.19 484.996 150.19 485.403 150.597L492.07 157.263Z" fill="#3959CC"/>
</svg>
